<?xml version="1.0" encoding="UTF-8" standalone="no"?>
<!-- Created with Inkscape (http://www.inkscape.org/) -->

<svg
   version="1.1"
   id="svg1"
   width="522.25256"
   height="312.94809"
   viewBox="0 0 522.25256 312.94809"
   sodipodi:docname="m1_iletimde_4.pdf"
   xmlns:inkscape="http://www.inkscape.org/namespaces/inkscape"
   xmlns:sodipodi="http://sodipodi.sourceforge.net/DTD/sodipodi-0.dtd"
   xmlns="http://www.w3.org/2000/svg"
   xmlns:svg="http://www.w3.org/2000/svg">
  <defs
     id="defs1" />
  <sodipodi:namedview
     id="namedview1"
     pagecolor="#ffffff"
     bordercolor="#000000"
     borderopacity="0.25"
     inkscape:showpageshadow="2"
     inkscape:pageopacity="0.0"
     inkscape:pagecheckerboard="0"
     inkscape:deskcolor="#d1d1d1">
    <inkscape:page
       x="0"
       y="0"
       width="522.25256"
       height="312.94809"
       id="page2"
       margin="0"
       bleed="0" />
  </sodipodi:namedview>
  <g
     id="g1"
     inkscape:groupmode="layer"
     inkscape:label="1"
     transform="translate(-13.280859,-13.280701)">
    <path
       id="path1"
       d="M -157.36436,-103.7026 V 131.00848 H 234.3251 V -103.7026 Z"
       style="fill:#ffffff;fill-opacity:1;fill-rule:nonzero;stroke:none"
       transform="matrix(1.3333333,0,0,-1.3333333,223.1,187.95867)" />
    <path
       id="path2"
       d="M -152.57672,-72.3552 H 8.00781 V 79.72563 h -160.58453 z"
       style="fill:none;stroke:#000000;stroke-width:0.99628;stroke-linecap:butt;stroke-linejoin:miter;stroke-miterlimit:10;stroke-dasharray:none;stroke-opacity:1"
       transform="matrix(1.3333333,0,0,-1.3333333,223.1,187.95867)" />
    <g
       id="g2"
       aria-label="M&#10;1&#10;MOSFETDurumu:"
       transform="matrix(1.3333333,0,0,1.3333333,36.98,312.296)">
      <path
         id="path3"
         d="m 9.2230078,-6.0345 c 0.09375,-0.3632812 0.1054688,-0.4570312 0.8554692,-0.4570312 0.234375,0 0.316406,0 0.316406,-0.1992188 0,-0.1171875 -0.09375,-0.1171875 -0.269531,-0.1171875 H 8.8128516 c -0.2578125,0 -0.2695313,0 -0.3867188,0.1992188 L 4.7933203,-0.93684375 4.0198828,-6.5735625 c -0.035156,-0.234375 -0.058594,-0.234375 -0.3164062,-0.234375 h -1.359375 c -0.1875,0 -0.3046875,0 -0.3046875,0.1992188 0,0.1171875 0.09375,0.1171875 0.2929687,0.1171875 0.1289063,0 0.3046875,0.011719 0.421875,0.011719 0.1640625,0.023437 0.2226563,0.058594 0.2226563,0.1640625 0,0.035156 -0.011719,0.070312 -0.035156,0.1875 l -1.265625,5.0742188 c -0.1054687,0.39843745 -0.2695312,0.7148437 -1.07812499,0.74999995 -0.046875,0 -0.17578125,0 -0.17578125,0.1875 0,0.08203125 0.0585938,0.1171875 0.140625,0.1171875 0.31640625,0 0.66796874,-0.03515625 0.99609374,-0.03515625 0.3398438,0 0.6914063,0.03515625 1.0195313,0.03515625 0.046875,0 0.1757812,0 0.1757812,-0.19921875 0,-0.10546875 -0.1054687,-0.10546875 -0.1757812,-0.10546875 -0.5625,-0.0117188 -0.6796875,-0.2109375 -0.6796875,-0.4453125 0,-0.0703125 0.011719,-0.1171875 0.046875,-0.22265625 l 1.3476562,-5.4375 h 0.011719 l 0.8554687,6.17578125 c 0.023437,0.12890625 0.035156,0.234375 0.1523438,0.234375 0.1054687,0 0.1757812,-0.10546875 0.2226562,-0.17578125 l 4.0195313,-6.3046875 h 0.011719 l -1.4296875,5.70703125 c -0.09375,0.38671875 -0.1171875,0.46875 -0.9023437,0.46875 -0.1640625,0 -0.28125,0 -0.28125,0.1875 0,0.1171875 0.1289062,0.1171875 0.1523437,0.1171875 0.28125,0 0.9609375,-0.03515625 1.2304688,-0.03515625 0.4101562,0 0.84375,0.03515625 1.2539062,0.03515625 0.058594,0 0.1875,0 0.1875,-0.19921875 0,-0.10546875 -0.09375,-0.10546875 -0.28125,-0.10546875 -0.3632812,0 -0.6445312,0 -0.6445312,-0.1875 0,-0.0351563 0,-0.0585938 0.046875,-0.234375 z m 0,0"
         style="fill:#000000;fill-opacity:1;fill-rule:nonzero;stroke:none" />
      <path
         id="path4"
         d="m 11.997422,-2.9348906 c 0,-0.1875 -0.01172,-0.1992188 -0.210938,-0.1992188 -0.445312,0.4335938 -1.078125,0.4453125 -1.359375,0.4453125 v 0.2460938 c 0.164063,0 0.621094,0 1.007813,-0.1875 v 3.55078123 c 0,0.23437497 0,0.32812497 -0.691406,0.32812497 h -0.269532 v 0.2460938 c 0.128907,-0.011719 0.984375,-0.023437 1.242188,-0.023437 0.210937,0 1.089844,0.011719 1.242187,0.023437 V 1.2487031 h -0.257812 c -0.703125,0 -0.703125,-0.09375 -0.703125,-0.32812497 z m 0,0"
         style="fill:#000000;fill-opacity:1;fill-rule:nonzero;stroke:none" />
      <path
         id="path5"
         d="m 19.857773,-6.5852812 c -0.09375,-0.2226563 -0.117187,-0.2226563 -0.351562,-0.2226563 h -1.6875 v 0.3164063 h 0.246094 c 0.761718,0 0.785156,0.1054687 0.785156,0.46875 v 4.9804687 c 0,0.26953125 0,0.73828125 -1.03125,0.73828125 V 6.5625e-4 C 18.170273,-0.0110625 18.662461,-0.0345 18.990586,-0.0345 c 0.328125,0 0.820312,0.0234375 1.160156,0.03515625 v -0.3046875 c -1.019531,0 -1.019531,-0.46875 -1.019531,-0.73828125 V -6.4095 h 0.01172 l 2.402343,6.1875 c 0.04687,0.12890625 0.09375,0.22265625 0.199219,0.22265625 0.105469,0 0.128906,-0.08203125 0.175781,-0.1875 l 2.449219,-6.30468745 h 0.01172 v 5.71874995 c 0,0.3515625 -0.02344,0.46875 -0.785156,0.46875 H 23.349961 V 6.5625e-4 C 23.724961,-0.0345 24.39293,-0.0345 24.791367,-0.0345 c 0.386719,0 1.054688,0 1.417969,0.03515625 v -0.3046875 h -0.234375 c -0.773438,0 -0.785156,-0.1171875 -0.785156,-0.46875 V -6.0227812 c 0,-0.3632813 0.01172,-0.46875 0.785156,-0.46875 h 0.234375 v -0.3164063 h -1.675781 c -0.269532,0 -0.269532,0.011719 -0.339844,0.1992188 l -2.179688,5.6015625 z m 13.913086,3.2109375 c 0,-2.0390625 -1.5,-3.6445313 -3.316406,-3.6445313 -1.78125,0 -3.304687,1.59375 -3.304687,3.6445313 0,2.0390625 1.535156,3.5976562 3.304687,3.5976562 1.816406,0 3.316406,-1.5820312 3.316406,-3.5976562 z M 30.466172,-0.0345 c -0.960938,0 -2.296875,-0.87890625 -2.296875,-3.4804687 0,-2.578125 1.453125,-3.2578125 2.285156,-3.2578125 0.867188,0 2.285156,0.703125 2.285156,3.2578125 0,2.6367187 -1.359375,3.4804687 -2.273437,3.4804687 z m 7.350586,-3.8320312 -1.277344,-0.3046875 c -0.621094,-0.1523438 -1.007812,-0.6914063 -1.007812,-1.265625 0,-0.703125 0.539062,-1.3007813 1.3125,-1.3007813 1.664062,0 1.886718,1.6289063 1.945312,2.0742188 0.01172,0.058594 0.01172,0.1171875 0.117188,0.1171875 0.128906,0 0.128906,-0.046875 0.128906,-0.234375 V -6.7845 c 0,-0.1640625 0,-0.234375 -0.105469,-0.234375 -0.07031,0 -0.08203,0.011719 -0.152344,0.1289063 l -0.351562,0.5625 c -0.292969,-0.28125 -0.703125,-0.6914063 -1.59375,-0.6914063 -1.101563,0 -1.933594,0.8789063 -1.933594,1.9335938 0,0.8203125 0.527344,1.546875 1.300781,1.8164062 0.105469,0.046875 0.621094,0.1640625 1.3125,0.328125 0.269532,0.070312 0.574219,0.140625 0.84375,0.515625 0.210938,0.2578125 0.316407,0.5859375 0.316407,0.9140625 0,0.703125 -0.503907,1.41796875 -1.335938,1.41796875 -0.292969,0 -1.042969,-0.046875 -1.570312,-0.5390625 C 35.180039,-1.1595 35.156602,-1.8040312 35.144883,-2.1555937 c -0.01172,-0.1054688 -0.09375,-0.1054688 -0.117188,-0.1054688 -0.128906,0 -0.128906,0.070312 -0.128906,0.2460938 v 1.99218745 c 0,0.17578125 0,0.24609375 0.105469,0.24609375 0.07031,0 0.08203,-0.0234375 0.152344,-0.12890625 0,-0.01171875 0.02344,-0.046875 0.351562,-0.57421875 0.316406,0.33984375 0.949219,0.703125 1.839844,0.703125 1.160156,0 1.957031,-0.984375 1.957031,-2.0742187 0,-0.9960938 -0.65625,-1.8164063 -1.488281,-2.015625 z m 7.854492,-2.90625 h -5.472656 v 0.3046875 h 0.234375 c 0.773437,0 0.796875,0.1171875 0.796875,0.46875 v 5.22656245 c 0,0.3515625 -0.02344,0.46875 -0.796875,0.46875 H 40.198594 V 6.5625e-4 C 40.550156,-0.0345 41.323594,-0.0345 41.710312,-0.0345 c 0.410157,0 1.3125,0 1.675782,0.03515625 v -0.3046875 h -0.328125 c -0.949219,0 -0.949219,-0.12890625 -0.949219,-0.48046875 v -2.4492187 h 0.855469 c 0.960937,0 1.054687,0.3164062 1.054687,1.1601562 h 0.257813 v -2.6367187 h -0.257813 c 0,0.8320312 -0.09375,1.1601562 -1.054687,1.1601562 H 42.10875 v -2.5195312 c 0,-0.328125 0.02344,-0.3984375 0.492187,-0.3984375 h 1.195313 c 1.488281,0 1.746094,0.5625 1.898437,1.9335937 H 45.9525 Z m 2.0625,5.99999995 c 0,0.3515625 -0.02344,0.46875 -0.796875,0.46875 H 46.7025 v 0.3046875 h 5.753906 L 52.866562,-2.56575 H 52.620469 C 52.374375,-1.0305937 52.14,-0.30403125 50.429062,-0.30403125 h -1.324218 c -0.46875,0 -0.492188,-0.0703125 -0.492188,-0.3984375 V -3.362625 H 49.515 c 0.960937,0 1.078125,0.3164063 1.078125,1.1601563 h 0.246094 v -2.6367188 h -0.246094 c 0,0.8554688 -0.117188,1.1601563 -1.078125,1.1601563 h -0.902344 v -2.390625 c 0,-0.328125 0.02344,-0.3984375 0.492188,-0.3984375 h 1.289062 c 1.523438,0 1.792969,0.5507812 1.945313,1.9335937 h 0.246093 L 52.315781,-6.7727812 H 46.7025 v 0.3046875 h 0.234375 c 0.773437,0 0.796875,0.1171875 0.796875,0.46875 z M 59.789414,-6.737625 h -6.082031 l -0.1875,2.2382813 h 0.246094 c 0.140625,-1.6054688 0.292968,-1.9335938 1.792968,-1.9335938 0.175782,0 0.433594,0 0.539063,0.023437 0.210937,0.035156 0.210937,0.140625 0.210937,0.375 v 5.25 c 0,0.33984375 0,0.48046875 -1.054687,0.48046875 H 54.85582 v 0.304688 C 55.265977,-0.0345 56.285508,-0.0345 56.742539,-0.0345 c 0.457031,0 1.488281,0 1.898438,0.03515625 v -0.3046875 h -0.398438 c -1.054687,0 -1.054687,-0.140625 -1.054687,-0.48046875 v -5.25 c 0,-0.1992187 0,-0.3398437 0.1875,-0.375 0.105468,-0.023437 0.375,-0.023437 0.5625,-0.023437 1.5,0 1.652343,0.328125 1.792968,1.9335938 h 0.246094 z m 4.230469,-0.070312 v 0.3164063 h 0.234375 c 0.773437,0 0.785156,0.1054687 0.785156,0.46875 v 5.24999995 c 0,0.3515625 -0.01172,0.46875 -0.785156,0.46875 h -0.234375 v 0.3046875 h 3.644531 c 1.675781,0 3.046875,-1.47656245 3.046875,-3.35156245 0,-1.8867188 -1.347656,-3.4570313 -3.046875,-3.4570313 z m 2.367187,6.50390625 c -0.46875,0 -0.492187,-0.0703125 -0.492187,-0.3984375 V -6.0930937 c 0,-0.328125 0.02344,-0.3984375 0.492187,-0.3984375 h 0.996094 c 0.621094,0 1.300781,0.2109375 1.816406,0.9257812 0.421875,0.5859375 0.515625,1.4414063 0.515625,2.2148438 0,1.1132812 -0.1875,1.7109375 -0.550781,2.1914062 -0.199219,0.26953125 -0.761719,0.85546875 -1.769531,0.85546875 z M 75.170273,-0.7845 V 0.106125 L 76.61168,6.5625e-4 v -0.3046875 c -0.703125,0 -0.785157,-0.0703125 -0.785157,-0.5625 V -4.4055937 l -1.453125,0.1171875 v 0.3046875 c 0.691407,0 0.773438,0.070312 0.773438,0.5625 v 1.7695312 c 0,0.8671875 -0.480469,1.546875 -1.207031,1.546875 -0.832032,0 -0.878907,-0.46875 -0.878907,-0.9960937 v -3.3046875 l -1.464843,0.1171875 v 0.3046875 c 0.785156,0 0.785156,0.035156 0.785156,0.9140625 v 1.5 c 0,0.77343745 0,1.6757812 1.511719,1.6757812 0.550781,0 0.996093,-0.26953125 1.277343,-0.890625 z m 3.307618,-2.5195312 v -1.1015625 l -1.382813,0.1171875 v 0.3046875 c 0.691406,0 0.773438,0.070312 0.773438,0.5625 v 2.6601562 c 0,0.45703125 -0.105469,0.45703125 -0.773438,0.45703125 V 6.5625e-4 C 77.481797,-0.0110625 77.950547,-0.0345 78.231797,-0.0345 c 0.398437,0 0.867187,0 1.265625,0.03515625 v -0.3046875 h -0.210938 c -0.738281,0 -0.761718,-0.1171875 -0.761718,-0.46875 V -2.3079375 c 0,-0.984375 0.421875,-1.875 1.183593,-1.875 0.05859,0 0.08203,0 0.105469,0.011719 -0.03516,0.011719 -0.234375,0.1289062 -0.234375,0.3867187 0,0.28125 0.210938,0.4335938 0.433594,0.4335938 0.175781,0 0.421875,-0.1289063 0.421875,-0.4453125 0,-0.3164063 -0.304688,-0.609375 -0.726563,-0.609375 -0.738281,0 -1.089843,0.6679687 -1.230468,1.1015623 z M 84.606797,-0.7845 V 0.106125 L 86.048203,6.5625e-4 v -0.3046875 c -0.703125,0 -0.785156,-0.0703125 -0.785156,-0.5625 V -4.4055937 l -1.453125,0.1171875 v 0.3046875 c 0.691406,0 0.773437,0.070312 0.773437,0.5625 v 1.7695312 c 0,0.8671875 -0.480468,1.546875 -1.207031,1.546875 -0.832031,0 -0.878906,-0.46875 -0.878906,-0.9960937 v -3.3046875 l -1.464844,0.1171875 v 0.3046875 c 0.785156,0 0.785156,0.035156 0.785156,0.9140625 v 1.5 c 0,0.77343745 0,1.6757812 1.511719,1.6757812 0.550781,0 0.996094,-0.26953125 1.277344,-0.890625 z m 2.745117,-2.6367187 v 2.6601562 c 0,0.45703125 -0.117187,0.45703125 -0.785156,0.45703125 V 6.5625e-4 C 86.91832,-0.0110625 87.422227,-0.0345 87.691758,-0.0345 c 0.257812,0 0.785156,0.0234375 1.113281,0.03515625 v -0.3046875 c -0.65625,0 -0.773437,0 -0.773437,-0.45703125 v -1.828125 c 0,-1.03125 0.714843,-1.59375 1.347656,-1.59375 0.621094,0 0.738281,0.5390625 0.738281,1.1015625 v 2.3203125 c 0,0.45703125 -0.117187,0.45703125 -0.773437,0.45703125 V 6.5625e-4 C 89.683945,-0.0110625 90.19957,-0.0345 90.469102,-0.0345 c 0.257812,0 0.773437,0.0234375 1.113281,0.03515625 v -0.3046875 c -0.667969,0 -0.785156,0 -0.785156,-0.45703125 v -1.828125 c 0,-1.03125 0.714843,-1.59375 1.347656,-1.59375 0.632812,0 0.738281,0.5390625 0.738281,1.1015625 v 2.3203125 c 0,0.45703125 -0.105469,0.45703125 -0.773437,0.45703125 V 6.5625e-4 C 92.461289,-0.0110625 92.965195,-0.0345 93.234727,-0.0345 c 0.257812,0 0.773437,0.0234375 1.113281,0.03515625 v -0.3046875 c -0.515625,0 -0.761719,0 -0.773438,-0.3046875 V -2.5071562 c 0,-0.8554688 0,-1.171875 -0.316406,-1.5234375 -0.128906,-0.1757813 -0.46875,-0.375 -1.042969,-0.375 -0.832031,0 -1.277343,0.5976562 -1.441406,0.984375 -0.140625,-0.8671875 -0.878906,-0.984375 -1.324219,-0.984375 -0.726562,0 -1.195312,0.4335937 -1.476562,1.0546875 v -1.0546875 l -1.40625,0.1171875 v 0.3046875 c 0.703125,0 0.785156,0.070312 0.785156,0.5625 z M 98.165391,-0.7845 V 0.106125 L 99.606797,6.5625e-4 v -0.3046875 c -0.703125,0 -0.785156,-0.0703125 -0.785156,-0.5625 V -4.4055937 l -1.453125,0.1171875 v 0.3046875 c 0.691406,0 0.773437,0.070312 0.773437,0.5625 v 1.7695312 c 0,0.8671875 -0.480469,1.546875 -1.207031,1.546875 -0.832031,0 -0.878906,-0.46875 -0.878906,-0.9960937 v -3.3046875 l -1.464844,0.1171875 v 0.3046875 c 0.785156,0 0.785156,0.035156 0.785156,0.9140625 v 1.5 c 0,0.77343745 0,1.6757812 1.511719,1.6757812 0.550781,0 0.996094,-0.26953125 1.277344,-0.890625 z m 3.553709,-2.9765625 c 0,-0.2929687 -0.23437,-0.5273437 -0.52734,-0.5273437 -0.28125,0 -0.52735,0.234375 -0.52735,0.5273437 0,0.28125 0.2461,0.5273438 0.52735,0.5273438 0.29297,0 0.52734,-0.2460938 0.52734,-0.5273438 z m 0,3.234375 c 0,-0.29296875 -0.23437,-0.5273437 -0.52734,-0.5273437 -0.28125,0 -0.52735,0.23437495 -0.52735,0.5273437 0,0.29296875 0.2461,0.52734375 0.52735,0.52734375 0.29297,0 0.52734,-0.234375 0.52734,-0.52734375 z m 0,0"
         style="fill:#000000;fill-opacity:1;fill-rule:nonzero;stroke:none" />
    </g>
    <path
       id="path6"
       d="m 1.7570343,-4.4055937 -1.39453122,0.1171875 v 0.3046875 c 0.65625002,0 0.73828122,0.058594 0.73828122,0.5507812 v 2.671875 c 0,0.45703125 -0.10546872,0.45703125 -0.77343747,0.45703125 V 6.5625e-4 C 0.64375308,-0.0110625 1.1828156,-0.0345 1.4289093,-0.0345 c 0.3398438,0 0.6914063,0.0234375 1.03125,0.03515625 v -0.3046875 c -0.65625,0 -0.703125,-0.0585938 -0.703125,-0.4453125 z m 0.046875,-1.734375 c 0,-0.3164063 -0.2460937,-0.5273438 -0.5273437,-0.5273438 -0.31640627,0 -0.52734377,0.2695313 -0.52734377,0.5273438 0,0.2695312 0.2109375,0.5273437 0.52734377,0.5273437 0.28125,0 0.5273437,-0.1992187 0.5273437,-0.5273437 z M 4.525589,-6.9134062 3.0959015,-6.8079375 v 0.3164063 c 0.703125,0 0.7734375,0.070312 0.7734375,0.5507812 v 5.1796875 c 0,0.45703125 -0.1054687,0.45703125 -0.7734375,0.45703125 V 6.5625e-4 C 3.4240265,-0.0110625 3.9513703,-0.0345 4.197464,-0.0345 c 0.2578125,0 0.7382813,0.0234375 1.1132813,0.03515625 v -0.3046875 c -0.6679688,0 -0.7851563,0 -0.7851563,-0.45703125 z m 2.1240235,4.40625 c 0.058594,-1.4882813 0.9023437,-1.734375 1.2421875,-1.734375 1.0195312,0 1.125,1.3476562 1.125,1.734375 z m -0.011719,0.2109375 H 9.426956 c 0.2109375,0 0.2460938,0 0.2460938,-0.2109375 0,-0.984375 -0.5390625,-1.9570313 -1.78125,-1.9570313 -1.1601563,0 -2.0742188,1.03125 -2.0742188,2.2734375 0,1.3359375 1.0429688,2.296875 2.1914063,2.296875 1.21875,0 1.6640625,-1.1015625 1.6640625,-1.2890625 0,-0.1054687 -0.082031,-0.1171875 -0.1289063,-0.1171875 -0.09375,0 -0.1171875,0.058594 -0.1289062,0.140625 -0.3515625,1.01953125 -1.2539063,1.01953125 -1.3476563,1.01953125 -0.5039062,0 -0.9023437,-0.29296875 -1.125,-0.66796875 C 6.6378937,-1.2884062 6.6378937,-1.9446562 6.6378935,-2.2962187 Z m 5.0478515,-1.6875 h 1.429688 V -4.2884062 H 11.685745 V -6.12825 h -0.246093 c -0.01172,0.8203125 -0.316407,1.8867188 -1.289063,1.921875 v 0.2226563 h 0.84375 v 2.7539062 c 0,1.21875 0.925781,1.3359375 1.289063,1.3359375 0.703125,0 0.984375,-0.703125 0.984375,-1.3359375 V -1.8040312 H 13.021683 V -1.25325 c 0,0.73828125 -0.304688,1.11328125 -0.667969,1.11328125 -0.667969,0 -0.667969,-0.90234375 -0.667969,-1.07812495 z m 3.908203,-0.421875 -1.394531,0.1171875 v 0.3046875 c 0.65625,0 0.738281,0.058594 0.738281,0.5507812 v 2.671875 c 0,0.45703125 -0.105468,0.45703125 -0.773437,0.45703125 V 6.5625e-4 C 14.480667,-0.0110625 15.01973,-0.0345 15.265823,-0.0345 c 0.339844,0 0.691407,0.0234375 1.03125,0.03515625 v -0.3046875 c -0.65625,0 -0.703125,-0.0585938 -0.703125,-0.4453125 z m 0.04687,-1.734375 c 0,-0.3164063 -0.246093,-0.5273438 -0.527343,-0.5273438 -0.316407,0 -0.527344,0.2695313 -0.527344,0.5273438 0,0.2695312 0.210937,0.5273437 0.527344,0.5273437 0.28125,0 0.527343,-0.1992187 0.527343,-0.5273437 z m 2.06543,2.71875 v 2.6601562 c 0,0.45703125 -0.117187,0.45703125 -0.785156,0.45703125 V 6.5625e-4 C 17.272659,-0.0110625 17.776566,-0.0345 18.046097,-0.0345 c 0.257812,0 0.785156,0.0234375 1.113281,0.03515625 v -0.3046875 c -0.65625,0 -0.773437,0 -0.773437,-0.45703125 v -1.828125 c 0,-1.03125 0.714843,-1.59375 1.347656,-1.59375 0.621094,0 0.738281,0.5390625 0.738281,1.1015625 v 2.3203125 c 0,0.45703125 -0.117187,0.45703125 -0.773437,0.45703125 V 6.5625e-4 C 20.038284,-0.0110625 20.553909,-0.0345 20.823441,-0.0345 c 0.257812,0 0.773437,0.0234375 1.113281,0.03515625 v -0.3046875 c -0.667969,0 -0.785156,0 -0.785156,-0.45703125 v -1.828125 c 0,-1.03125 0.714843,-1.59375 1.347656,-1.59375 0.632812,0 0.738281,0.5390625 0.738281,1.1015625 v 2.3203125 c 0,0.45703125 -0.105469,0.45703125 -0.773437,0.45703125 V 6.5625e-4 C 22.815628,-0.0110625 23.319534,-0.0345 23.589066,-0.0345 c 0.257812,0 0.773437,0.0234375 1.113281,0.03515625 v -0.3046875 c -0.515625,0 -0.761719,0 -0.773438,-0.3046875 V -2.5071562 c 0,-0.8554688 0,-1.171875 -0.316406,-1.5234375 -0.128906,-0.1757813 -0.46875,-0.375 -1.042969,-0.375 -0.832031,0 -1.277343,0.5976562 -1.441406,0.984375 -0.140625,-0.8671875 -0.878906,-0.984375 -1.324219,-0.984375 -0.726562,0 -1.195312,0.4335937 -1.476562,1.0546875 v -1.0546875 l -1.40625,0.1171875 v 0.3046875 c 0.703125,0 0.785156,0.070312 0.785156,0.5625 z m 10.986328,2.8710937 v 0.65625 L 30.157425,6.5625e-4 v -0.3046875 c -0.703125,0 -0.773438,-0.0703125 -0.773438,-0.5625 V -6.9134062 l -1.441406,0.1054687 v 0.3164063 c 0.703125,0 0.785156,0.070312 0.785156,0.5507812 v 2.15625 c -0.292968,-0.3632812 -0.726562,-0.6210937 -1.265625,-0.6210937 -1.171875,0 -2.214843,0.984375 -2.214843,2.2617187 0,1.265625 0.972656,2.25 2.109375,2.25 0.644531,0 1.089843,-0.33984375 1.335937,-0.65625 z m 0,-2.671875 v 2.0507813 c 0,0.1757812 0,0.1992187 -0.105469,0.3632812 -0.304687,0.48046875 -0.75,0.703125 -1.183593,0.703125 -0.445313,0 -0.796875,-0.2578125 -1.042969,-0.64453125 C 26.102737,-1.1595 26.067581,-1.722 26.067581,-2.1321562 c 0,-0.3632813 0.02344,-0.9609375 0.316406,-1.4179688 0.210938,-0.3046875 0.585938,-0.6328125 1.125,-0.6328125 0.351563,0 0.761719,0.1523438 1.078125,0.5976563 0.105469,0.1640625 0.105469,0.1875 0.105469,0.3632812 z m 2.862305,0.7148438 c 0.05859,-1.4882813 0.902344,-1.734375 1.242187,-1.734375 1.019532,0 1.125,1.3476562 1.125,1.734375 z m -0.01172,0.2109375 h 2.789063 c 0.210937,0 0.246093,0 0.246093,-0.2109375 0,-0.984375 -0.539062,-1.9570313 -1.78125,-1.9570313 -1.160156,0 -2.074218,1.03125 -2.074218,2.2734375 0,1.3359375 1.042968,2.296875 2.191406,2.296875 1.21875,0 1.664062,-1.1015625 1.664062,-1.2890625 0,-0.1054687 -0.08203,-0.1171875 -0.128906,-0.1171875 -0.09375,0 -0.117187,0.058594 -0.128906,0.140625 -0.351563,1.01953125 -1.253906,1.01953125 -1.347656,1.01953125 -0.503907,0 -0.902344,-0.29296875 -1.125,-0.66796875 -0.304688,-0.4804687 -0.304688,-1.1367187 -0.304688,-1.4882812 z m 0,0"
       style="fill:#ff0000;fill-opacity:1;fill-rule:nonzero;stroke:none"
       aria-label="iletimde"
       transform="matrix(1.3333333,0,0,1.3333333,180.39166,312.296)" />
    <path
       id="path7"
       d="M -5.66928,-0.65121 V -15.03793 H -19.5591 m 0,-15.27919 h 13.88982 v -14.38672"
       style="fill:none;stroke:#0000ff;stroke-width:0.3985;stroke-linecap:butt;stroke-linejoin:miter;stroke-miterlimit:10;stroke-dasharray:none;stroke-opacity:1"
       transform="matrix(1.3333333,0,0,-1.3333333,223.1,187.95867)" />
    <path
       id="path8"
       d="m -19.5591,-11.76399 v -21.82707 m -3.33342,18.55313 v -15.27919"
       style="fill:none;stroke:#0000ff;stroke-width:0.797;stroke-linecap:butt;stroke-linejoin:miter;stroke-miterlimit:10;stroke-dasharray:none;stroke-opacity:1"
       transform="matrix(1.3333333,0,0,-1.3333333,223.1,187.95867)" />
    <path
       id="path9"
       d="M -22.89252,-22.67754 H -33.64818"
       style="fill:none;stroke:#0000ff;stroke-width:0.3985;stroke-linecap:butt;stroke-linejoin:miter;stroke-miterlimit:10;stroke-dasharray:none;stroke-opacity:1"
       transform="matrix(1.3333333,0,0,-1.3333333,223.1,187.95867)" />
    <g
       id="g9"
       aria-label="M&#10;1"
       transform="matrix(1.3333333,0,0,1.3333333,180.096,259.784)">
      <path
         id="path10"
         d="m 10.852805,-7.2881953 c 0.105468,-0.4101563 0.128906,-0.5273438 0.984375,-0.5273438 0.222656,0 0.328125,0 0.328125,-0.2226562 0,-0.1289063 -0.08203,-0.1289063 -0.304688,-0.1289063 h -1.441406 c -0.292969,0 -0.304688,0.011719 -0.4335938,0.2109375 l -4.3710938,6.890625 -0.890625,-6.8320312 C 4.6887422,-8.1671016 4.6770234,-8.1671016 4.3606172,-8.1671016 H 2.8840547 c -0.234375,0 -0.3398438,0 -0.3398438,0.234375 0,0.1171875 0.1054688,0.1171875 0.2929688,0.1171875 0.7265625,0 0.7265625,0.09375 0.7265625,0.2226563 0,0.023437 0,0.09375 -0.046875,0.28125 l -1.5351563,6.09375 c -0.140625,0.57421874 -0.4101562,0.83203124 -1.21874996,0.86718749 -0.0351563,0 -0.17578125,0.0117188 -0.17578125,0.22265625 0,0.1289062475 0.10546875,0.1289062475 0.15234375,0.1289062475 0.24609375,0 0.85546876,-0.0234374975 1.08984376,-0.0234374975 h 0.5742187 c 0.1640625,0 0.375,0.0234374975 0.5390625,0.0234374975 0.082031,0 0.2109375,0 0.2109375,-0.2226562475 0,-0.1171875 -0.1171875,-0.12890625 -0.1640625,-0.12890625 -0.3984375,-0.0117188 -0.7734375,-0.0820313 -0.7734375,-0.50390625 0,-0.12890625 0,-0.140625 0.046875,-0.30468754 l 1.6523438,-6.5859375 h 0.011719 l 0.984375,7.41796879 c 0.035156,0.29296875 0.046875,0.3281249975 0.1523438,0.3281249975 0.140625,0 0.1992187,-0.0937499975 0.2578125,-0.1992187475 l 4.804687,-7.60546874 h 0.01172 l -1.7343751,6.92578124 c -0.1054687,0.41015625 -0.1289062,0.52734375 -0.9726562,0.52734375 -0.2226563,0 -0.3398438,0 -0.3398438,0.22265625 0,0.1289062475 0.1054688,0.1289062475 0.1757813,0.1289062475 0.2109375,0 0.4453125,-0.0234374975 0.6445312,-0.0234374975 h 1.4179688 c 0.1992187,0 0.4453125,0.0234374975 0.65625,0.0234374975 0.09375,0 0.2226558,0 0.2226558,-0.2226562475 0,-0.12890625 -0.105468,-0.12890625 -0.2812496,-0.12890625 -0.7382812,0 -0.7382812,-0.09375 -0.7382812,-0.2109375 0,-0.0117188 0,-0.09375 0.023437,-0.1875 z m 0,0"
         style="fill:#000000;fill-opacity:1;fill-rule:nonzero;stroke:none" />
      <path
         id="path11"
         d="m 13.832297,-3.2803828 c 0,-0.2226563 -0.02344,-0.2226563 -0.234375,-0.2226563 -0.328125,0.3164063 -0.75,0.5039063 -1.511719,0.5039063 v 0.2695312 c 0.222656,0 0.644531,0 1.113281,-0.2226562 v 4.0898437 c 0,0.2929688 -0.02344,0.3984375 -0.785156,0.3984375 h -0.28125 v 0.2578125 c 0.328125,-0.023437 1.019531,-0.023437 1.371094,-0.023437 0.363281,0 1.054687,0 1.382812,0.023437 V 1.5360234 h -0.28125 c -0.75,0 -0.773437,-0.1054687 -0.773437,-0.3984375 z m 0,0"
         style="fill:#000000;fill-opacity:1;fill-rule:nonzero;stroke:none" />
    </g>
    <path
       id="path12"
       d="m -10.48819,-32.42865 5.10222,2.12592 -5.10222,2.12591 z"
       style="fill:#0000ff;fill-opacity:1;fill-rule:nonzero;stroke:none"
       transform="matrix(1.3333333,0,0,-1.3333333,223.1,187.95867)" />
    <path
       id="path13"
       d="m -138.4035,-44.00836 h 72.70966 v 95.38718 h -72.70966 z"
       style="fill:none;stroke:#000000;stroke-width:0.99628;stroke-linecap:butt;stroke-linejoin:miter;stroke-miterlimit:10;stroke-dasharray:none;stroke-opacity:1"
       transform="matrix(1.3333333,0,0,-1.3333333,223.1,187.95867)" />
    <g
       id="g13"
       aria-label="I&#10;2&#10;CLojik"
       transform="matrix(1.3333333,0,0,1.3333333,48.661333,188.936)">
      <path
         id="path14"
         d="m 3.1163047,-8.7059062 c 0,-0.5273438 0.035156,-0.6679688 1.1132812,-0.6679688 H 4.5459922 V -9.79575 c -0.3398438,0.023437 -1.5820313,0.023437 -2.0039063,0.023437 -0.4335937,0 -1.68749996,0 -2.02734371,-0.023437 v 0.421875 h 0.31640625 c 1.07812496,0 1.11328126,0.140625 1.11328126,0.6679688 v 7.6171875 c 0,0.5273437 -0.035156,0.67968745 -1.11328126,0.67968745 H 0.51474219 V 0.001125 c 0.33984375,-0.0234375 1.58203121,-0.0234375 2.00390621,-0.0234375 0.4335938,0 1.6875,0 2.0273438,0.0234375 V -0.40903125 H 4.2295859 c -1.078125,0 -1.1132812,-0.15234375 -1.1132812,-0.67968745 z m 0,0"
         style="fill:#000000;fill-opacity:1;fill-rule:nonzero;stroke:none" />
      <path
         id="path15"
         d="m 6.3331016,-5.9666484 1.0546875,-1.03125 c 1.5585937,-1.3710938 2.15625,-1.9101563 2.15625,-2.90625 0,-1.1367186 -0.9023438,-1.9335936 -2.1210938,-1.9335936 -1.125,0 -1.8515625,0.914062 -1.8515625,1.804687 0,0.5507816 0.4921875,0.5507816 0.5273438,0.5507816 0.1640625,0 0.515625,-0.1171875 0.515625,-0.5273436 0,-0.257813 -0.1875,-0.515625 -0.5273438,-0.515625 -0.082031,0 -0.1054687,0 -0.1289062,0.01172 0.2226562,-0.644532 0.7617187,-1.019532 1.3359375,-1.019532 0.9140625,0 1.3359375,0.808594 1.3359375,1.6289066 0,0.796875 -0.4921875,1.5820312 -1.0429688,2.203125 l -1.9101562,2.1328125 c -0.1054688,0.1054687 -0.1054688,0.1289062 -0.1054688,0.3632812 h 3.6914063 l 0.28125,-1.734375 H 9.2862266 c -0.046875,0.3046875 -0.1171875,0.7382813 -0.2109375,0.890625 -0.070312,0.082031 -0.7265625,0.082031 -0.9492188,0.082031 z m 0,0"
         style="fill:#000000;fill-opacity:1;fill-rule:nonzero;stroke:none" />
      <path
         id="path16"
         d="m 19.897555,-9.7723125 c 0,-0.2578125 0,-0.3281245 -0.140625,-0.3281245 -0.09375,0 -0.105469,0.03516 -0.1875,0.1757808 l -0.703125,1.1367187 c -0.644532,-0.8085937 -1.617188,-1.3124995 -2.660157,-1.3124995 -2.625,0 -4.886718,2.273437 -4.886718,5.1914058 0,2.9765625 2.296875,5.2148437 4.886718,5.2148437 2.355469,0 3.691407,-2.0507812 3.691407,-3.6328125 0,-0.1523437 0,-0.2460937 -0.152344,-0.2460937 -0.152344,0 -0.164063,0.070312 -0.164063,0.1757812 -0.128906,2.2851563 -1.792968,3.28125 -3.1875,3.28125 -0.996093,0 -3.738281,-0.59765625 -3.738281,-4.7929687 0,-4.1367188 2.695313,-4.7695313 3.726563,-4.7695313 1.511718,0 2.824218,1.2773438 3.117187,3.421875 0.02344,0.1757813 0.02344,0.2226563 0.199219,0.2226563 0.199219,0 0.199219,-0.046875 0.199219,-0.328125 z m 13.652343,6.1054688 h -0.316406 c -0.140625,1.4296875 -0.328125,3.25781245 -2.847656,3.25781245 h -1.242188 c -0.632812,0 -0.65625,-0.10546875 -0.65625,-0.57421875 v -7.7109375 c 0,-0.515625 0.02344,-0.6796875 1.277344,-0.6796875 h 0.421875 V -9.79575 c -0.410156,0.023437 -1.675781,0.023437 -2.179687,0.023437 -0.433594,0 -1.699219,0 -2.050782,-0.023437 v 0.421875 h 0.292969 c 1.03125,0 1.066406,0.140625 1.066406,0.6679688 v 7.6171875 c 0,0.5273437 -0.03516,0.67968745 -1.066406,0.67968745 H 25.956148 V 0.001125 h 7.21875 z m 7.183594,0.5976562 c 0,-1.8515625 -1.40625,-3.328125 -3.070312,-3.328125 -1.722657,0 -3.082032,1.5234375 -3.082032,3.328125 0,1.8398438 1.429688,3.2109375 3.070313,3.2109375 1.6875,0 3.082031,-1.40625 3.082031,-3.2109375 z m -3.070312,2.89453125 c -0.527344,0 -1.171875,-0.22265625 -1.59375,-0.92578125 -0.386719,-0.6445312 -0.398438,-1.5 -0.398438,-2.0976562 0,-0.5390625 0,-1.4179688 0.445313,-2.0625 0.398437,-0.6210938 1.03125,-0.84375 1.535156,-0.84375 0.550781,0 1.160156,0.2578125 1.546875,0.8085937 0.445312,0.6679688 0.445312,1.5703125 0.445312,2.0976563 0,0.5039062 0,1.3945312 -0.375,2.0625 -0.398437,0.6914062 -1.066406,0.96093745 -1.605468,0.96093745 z m 7.201172,-8.66015625 c 0,-0.4335937 -0.339844,-0.703125 -0.679688,-0.703125 -0.410156,0 -0.703125,0.3164063 -0.703125,0.703125 0,0.375 0.316406,0.6914063 0.679688,0.6914063 0.433593,0 0.703125,-0.3515625 0.703125,-0.6914063 z m -2.097657,2.671875 v 0.4101563 c 1.066407,0 1.195313,0.1054687 1.195313,0.8085937 v 5.73046875 c 0,0.79687505 -0.152344,1.85156255 -0.984375,1.85156255 -0.03516,0 -0.46875,0 -0.808594,-0.1992188 0.375,-0.070312 0.492188,-0.3398437 0.492188,-0.5859375 0,-0.328125 -0.246094,-0.5859375 -0.585938,-0.5859375 -0.363281,0 -0.609375,0.2578125 -0.609375,0.5976563 0,0.6914062 0.773438,1.0664062 1.523438,1.0664062 1.03125,0 1.875,-0.890625 1.875,-2.203125 V -6.327 Z m 5.982422,-2.671875 c 0,-0.375 -0.304687,-0.703125 -0.703125,-0.703125 -0.375,0 -0.691406,0.3046875 -0.691406,0.6914063 0,0.4335937 0.351562,0.703125 0.691406,0.703125 0.445313,0 0.703125,-0.375 0.703125,-0.6914063 z m -1.980469,2.671875 v 0.4101563 c 0.914063,0 1.042969,0.09375 1.042969,0.7851562 v 3.9023438 c 0,0.65624995 -0.152344,0.65624995 -1.089844,0.65624995 V 0.001125 c 0.410157,-0.0234375 1.089844,-0.0234375 1.511719,-0.0234375 0.152344,0 0.984375,0 1.476563,0.0234375 v -0.41015625 c -0.9375,0 -0.984375,-0.0820313 -0.984375,-0.63281245 V -6.327 Z m 7.40625,2.3671875 c 0,-0.023437 -0.105468,-0.1289062 -0.105468,-0.1523437 0,-0.035156 0.902343,-0.8085938 1.019531,-0.9257813 0.996094,-0.8671875 1.617187,-0.8789062 1.921875,-0.890625 v -0.421875 c -0.28125,0.035156 -0.65625,0.035156 -1.089844,0.035156 -0.375,0 -1.101562,0 -1.429687,-0.035156 V -5.7645 c 0.234375,0.011719 0.410156,0.140625 0.410156,0.375 0,0.28125 -0.28125,0.5390625 -0.304688,0.5390625 l -2.050781,1.8164063 V -9.9480937 L 50.553805,-9.79575 v 0.421875 c 0.984375,0 1.089843,0.09375 1.089843,0.796875 v 7.5117188 c 0,0.65624995 -0.152343,0.65624995 -1.089843,0.65624995 V 0.001125 c 0.410156,-0.0234375 1.089843,-0.0234375 1.523437,-0.0234375 0.433594,0 1.113281,0 1.523438,0.0234375 v -0.41015625 c -0.925782,0 -1.089844,0 -1.089844,-0.65624995 V -2.577 l 0.914062,-0.8085937 1.382813,1.9804687 c 0.210937,0.3046875 0.316406,0.45703125 0.316406,0.65625 0,0.2578125 -0.210937,0.33984375 -0.503906,0.33984375 V 0.001125 c 0.351562,-0.0234375 1.054687,-0.0234375 1.441406,-0.0234375 0.621094,0 0.644531,0 1.265625,0.0234375 v -0.41015625 c -0.386719,0 -0.832031,0 -1.230469,-0.59765625 z m 0,0"
         style="fill:#000000;fill-opacity:1;fill-rule:nonzero;stroke:none" />
    </g>
    <path
       id="path17"
       d="M -50.74074,32.032 -22.9611,51.8747 V 12.18932 Z"
       style="fill:none;stroke:#000000;stroke-width:0.797;stroke-linecap:butt;stroke-linejoin:miter;stroke-miterlimit:10;stroke-dasharray:none;stroke-opacity:1"
       transform="matrix(1.3333333,0,0,-1.3333333,223.1,187.95867)" />
    <path
       id="path18"
       d="m -17.00824,32.032 h -5.95286 m -33.73252,0 h 5.95288"
       style="fill:none;stroke:#000000;stroke-width:0.3985;stroke-linecap:butt;stroke-linejoin:miter;stroke-miterlimit:10;stroke-dasharray:none;stroke-opacity:1"
       transform="matrix(1.3333333,0,0,-1.3333333,223.1,187.95867)" />
    <path
       id="path19"
       d="M -5.66928,-0.85036 V 32.032 h -11.33898"
       style="fill:none;stroke:#000000;stroke-width:0.3985;stroke-linecap:butt;stroke-linejoin:miter;stroke-miterlimit:10;stroke-dasharray:none;stroke-opacity:1"
       transform="matrix(1.3333333,0,0,-1.3333333,223.1,187.95867)" />
    <path
       id="path20"
       d="m -56.69362,32.032 h -9.07117 v 0 -19.8431"
       style="fill:none;stroke:#000000;stroke-width:0.3985;stroke-linecap:butt;stroke-linejoin:miter;stroke-miterlimit:10;stroke-dasharray:none;stroke-opacity:1"
       transform="matrix(1.3333333,0,0,-1.3333333,223.1,187.95867)" />
    <path
       id="path21"
       d="M -5.66928,-44.5047 V -56.41028"
       style="fill:none;stroke:#0000ff;stroke-width:0.3985;stroke-linecap:butt;stroke-linejoin:miter;stroke-miterlimit:10;stroke-dasharray:none;stroke-opacity:1"
       transform="matrix(1.3333333,0,0,-1.3333333,223.1,187.95867)" />
    <path
       id="path22"
       d="M -11.62213,-56.41028 H 0.28355 m -9.92131,-1.98424 h 7.93696 m -6.44881,-1.98437 h 4.96066"
       style="fill:none;stroke:#0000ff;stroke-width:0.797;stroke-linecap:butt;stroke-linejoin:miter;stroke-miterlimit:10;stroke-dasharray:none;stroke-opacity:1"
       transform="matrix(1.3333333,0,0,-1.3333333,223.1,187.95867)" />
    <path
       id="path23"
       d="m -33.449,-22.67754 -32.31579,0.85038"
       style="fill:none;stroke:#ff0000;stroke-width:0.3985;stroke-linecap:butt;stroke-linejoin:miter;stroke-miterlimit:10;stroke-dasharray:none;stroke-opacity:1"
       transform="matrix(1.3333333,0,0,-1.3333333,223.1,187.95867)" />
    <path
       id="path24"
       d="M -65.76479,-21.82716 V 12.1889"
       style="fill:none;stroke:#000000;stroke-width:0.3985;stroke-linecap:butt;stroke-linejoin:miter;stroke-miterlimit:10;stroke-dasharray:none;stroke-opacity:1"
       transform="matrix(1.3333333,0,0,-1.3333333,223.1,187.95867)" />
    <path
       id="path25"
       d="m -56.69362,-24.30733 5.10222,2.12592 -5.10222,2.12591 z"
       style="fill:#ff0000;fill-opacity:1;fill-rule:nonzero;stroke:none"
       transform="matrix(1.3333333,0,0,-1.3333333,223.1,187.95867)" />
    <path
       id="path26"
       d="m -56.69362,29.90565 -5.1022,2.12594 5.1022,2.12591 z"
       style="fill:#000000;fill-opacity:1;fill-rule:nonzero;stroke:none"
       transform="matrix(1.3333333,0,0,-1.3333333,223.1,187.95867)" />
    <path
       id="path27"
       d="M 65.19774,97.22932 V 64.91403 m 0,-31.74838 V 0.85036"
       style="fill:none;stroke:#ff0000;stroke-width:0.3985;stroke-linecap:butt;stroke-linejoin:miter;stroke-miterlimit:10;stroke-dasharray:none;stroke-opacity:1"
       transform="matrix(1.3333333,0,0,-1.3333333,223.1,187.95867)" />
    <path
       id="path28"
       d="m 65.19774,65.31255 5.95285,-3.07743 -11.9057,-5.3578 11.9057,-5.35782 -11.9057,-5.35782 11.9057,-5.35782 -11.9057,-5.35782 5.95285,-2.6789"
       style="fill:none;stroke:#ff0000;stroke-width:0.797;stroke-linecap:butt;stroke-linejoin:bevel;stroke-miterlimit:10;stroke-dasharray:none;stroke-opacity:1"
       transform="matrix(1.3333333,0,0,-1.3333333,223.1,187.95867)" />
    <g
       id="g28"
       aria-label="R&#10;¸cekme-direnci"
       transform="matrix(1.3333333,0,0,1.3333333,320.90533,125.43333)">
      <path
         id="path29"
         d="m 3.7389687,-6.1169922 c 0.058594,-0.234375 0.082031,-0.3398437 0.28125,-0.3632812 0.082031,-0.011719 0.3984375,-0.011719 0.5976563,-0.011719 0.7148437,0 1.8164062,0 1.8164062,0.984375 0,0.3398438 -0.1523437,1.0195313 -0.5507812,1.4179688 -0.2578125,0.2578125 -0.7851563,0.5742187 -1.6757813,0.5742187 H 3.0944375 Z m 1.4296875,2.7304688 c 1.0078125,-0.2226563 2.1914063,-0.9140625 2.1914063,-1.921875 0,-0.8554688 -0.890625,-1.5 -2.203125,-1.5 H 2.321 c -0.1992188,0 -0.2929688,0 -0.2929688,0.1992187 0,0.1171875 0.09375,0.1171875 0.28125,0.1171875 0.023437,0 0.2109375,0 0.3867188,0.011719 0.1757812,0.023437 0.2578125,0.035156 0.2578125,0.1640625 0,0.035156 0,0.070312 -0.035156,0.1875 L 1.582719,-0.77324199 c -0.09375,0.38671875 -0.1171875,0.46875 -0.9023437,0.46875 -0.17578125,0 -0.26953125,0 -0.26953125,0.19921875 0,0.1054687525 0.1171875,0.1054687525 0.140625,0.1054687525 0.28125,0 0.97265625,-0.0351562525 1.25390625,-0.0351562525 0.28125,0 0.984375,0.0351562525 1.265625,0.0351562525 0.082031,0 0.1992187,0 0.1992187,-0.1992187525 0,-0.10546875 -0.09375,-0.10546875 -0.28125,-0.10546875 -0.3632812,0 -0.6445312,0 -0.6445312,-0.1875 0,-0.0585938 0.011719,-0.10546875 0.023437,-0.1640625 l 0.65625,-2.63671871 h 1.1953125 c 0.9023437,0 1.078125,0.5507812 1.078125,0.9023437 0,0.1523438 -0.082031,0.4570313 -0.140625,0.6914063 -0.070312,0.2695312 -0.1523438,0.6445312 -0.1523438,0.84374996 0,1.078125 1.1953125,1.078125 1.3242188,1.078125 0.84375,0 1.1953125,-1.0078125 1.1953125,-1.1484375 0,-0.11718746 -0.1171875,-0.11718746 -0.1171875,-0.11718746 -0.09375,0 -0.1171875,0.0703125 -0.1289063,0.14062496 -0.2578125,0.73828125 -0.6796875,0.9023437525 -0.9140625,0.9023437525 -0.328125,0 -0.3984375,-0.2226562525 -0.3984375,-0.6093750025 0,-0.3046875 0.058594,-0.82031251 0.1054688,-1.13671871 0.011719,-0.140625 0.035156,-0.328125 0.035156,-0.46875 0,-0.7617188 -0.6679687,-1.078125 -0.9374996,-1.1718752 z m 0,0"
         style="fill:#000000;fill-opacity:1;fill-rule:nonzero;stroke:none" />
      <path
         id="path30"
         d="M 10.260453,1.5763672 H 9.3815469 v 0.3398437 c 0.2460937,0 0.7382811,0.011719 0.7382811,0.3398438 0,0.3515625 -0.8906249,0.3515625 -1.1718749,0.3515625 H 8.6315469 v 0.3164062 h 0.4453125 c 1.7929686,0 1.9218746,-0.4101562 1.9218746,-0.6679687 0,-0.46875 -0.46875,-0.5742188 -0.738281,-0.6210938 z m 1.03125,-0.87890626 c 0,-0.12890625 -0.117187,-0.12890625 -0.222656,-0.12890625 -0.152344,0 -0.175781,0.0117188 -0.222656,0.1171875 -0.105469,0.234375 -0.328125,0.49218751 -0.8671879,0.49218751 -1.1132812,0 -1.1132812,-0.97265626 -1.1132812,-1.25390626 0,-0.52734375 0.082031,-1.23046874 1.0195312,-1.23046874 0.035156,0 0.4335939,0 0.4335939,0.035156 0,0.011719 -0.01172,0.023437 -0.01172,0.023437 -0.01172,0.023437 -0.08203,0.1289063 -0.08203,0.28125004 0,0.28125 0.210937,0.48046875 0.480469,0.48046875 0.292968,0 0.492187,-0.19921875 0.492187,-0.4921875 0,-0.66796879 -0.9375,-0.69140629 -1.3359374,-0.69140629 -1.5585937,0 -1.96875,0.97265629 -1.96875,1.61718754 0,0.8203125 0.609375,1.59374996 1.921875,1.59374996 0.3398434,0 0.7031254,-0.058594 0.9726564,-0.2226562 0.398437,-0.234375 0.503906,-0.57421876 0.503906,-0.62109306 z m 3.890625,-0.65625 c 0.152344,0 0.246094,0 0.246094,-0.2109375 0,-0.19921875 -0.04687,-0.71484375 -0.386719,-1.06640624 -0.375,-0.375 -0.890625,-0.4335938 -1.277344,-0.4335938 -1.289062,0 -1.898437,0.77343754 -1.898437,1.59375004 0,0.83203125 0.644531,1.61718746 2.015625,1.61718746 0.257812,0 0.65625,-0.035156 1.007812,-0.2226562 0.410157,-0.2109375 0.539063,-0.55078126 0.539063,-0.62109376 0,-0.15234375 -0.152344,-0.15234375 -0.222656,-0.15234375 -0.128907,0 -0.164063,0.0117188 -0.222657,0.1171875 -0.246093,0.51562501 -0.878906,0.51562501 -0.996093,0.51562501 -1.101563,0 -1.136719,-0.80859376 -1.148438,-1.13671876 z m -2.34375,-0.29296875 c 0,-0.26953125 0.03516,-1.08984379 0.9375,-1.08984379 0.902344,0 0.949219,0.79687504 0.960938,1.08984379 z m 4.564453,0.0585938 V -3.3455078 l -1.300781,0.058594 v 0.3867188 c 0.421875,0 0.46875,0 0.46875,0.2929687 v 3.7148438 h -0.46875 v 0.3867187 c 0.03516,0 0.5625,-0.023437 0.867187,-0.023437 0.328125,0 0.855469,0.023437 0.855469,0.023437 v -0.386719 h -0.46875 V 0.36933594 l 0.480469,-0.33984375 0.878906,0.9609375 c 0.05859,0.0585937 0.07031,0.0703125 0.07031,0.0703125 0,0.046875 -0.09375,0.046875 -0.152344,0.046875 v 0.3867187 c 0.304687,-0.011719 0.609375,-0.023437 0.914062,-0.023437 0.246094,0 0.492188,0 0.738282,0.023437 V 1.1076172 c -0.210938,0 -0.351563,0 -0.410157,-0.023437 -0.05859,-0.011719 -0.07031,-0.023437 -0.152343,-0.10546876 l -1.265625,-1.3828125 0.996093,-0.71484374 c 0.09375,-0.058594 0.140625,-0.09375 0.644532,-0.09375 v -0.3867188 c -0.1875,0.011719 -0.386719,0.023437 -0.574219,0.023437 -0.304688,0 -0.867188,-0.023437 -0.902344,-0.023437 v 0.3867188 c 0.09375,0 0.117188,0.023437 0.140625,0.046875 -0.01172,0.011719 -0.05859,0.046875 -0.08203,0.058594 z m 9.823242,-0.41015625 c 0,-0.86718744 -0.574218,-1.04296874 -1.195312,-1.04296874 -0.667969,0 -1.089844,0.3164062 -1.324219,0.65624999 C 24.530961,-1.599414 23.933305,-1.646289 23.558305,-1.646289 c -0.832032,0 -1.230469,0.4921875 -1.371094,0.72656249 V -1.6462891 l -1.265625,0.058594 v 0.3867187 c 0.410156,0 0.46875,0 0.46875,0.28125004 V 1.1076172 h -0.46875 v 0.3867187 c 0.01172,0 0.574219,-0.023437 0.902344,-0.023437 0.351562,0 0.914062,0.023437 0.914062,0.023437 V 1.1076172 h -0.457031 v -1.34765626 c 0,-0.82031254 0.738281,-1.07812504 1.136719,-1.07812504 0.316406,0 0.445312,0.1523438 0.445312,0.66796879 V 1.1076172 h -0.46875 v 0.3867187 c 0.01172,0 0.574219,-0.023437 0.914063,-0.023437 0.339843,0 0.902343,0.023437 0.914062,0.023437 V 1.1076172 h -0.46875 v -1.34765626 c 0,-0.82031254 0.738281,-1.07812504 1.136719,-1.07812504 0.316406,0 0.445312,0.1523438 0.445312,0.66796879 V 1.1076172 h -0.457031 v 0.3867187 c 0,0 0.5625,-0.023437 0.902344,-0.023437 0.339844,0 0.902344,0.023437 0.914062,0.023437 V 1.1076172 h -0.46875 z m 4.333008,0.64453125 c 0.152344,0 0.246094,0 0.246094,-0.2109375 0,-0.19921875 -0.04687,-0.71484375 -0.386719,-1.06640629 -0.375,-0.375 -0.890625,-0.4335937 -1.277344,-0.4335937 -1.289062,0 -1.898437,0.77343749 -1.898437,1.59374999 0,0.83203125 0.644531,1.61718741 2.015625,1.61718741 0.257812,0 0.65625,-0.035156 1.007812,-0.2226562 0.410157,-0.2109375 0.539063,-0.55078121 0.539063,-0.62109371 0,-0.15234375 -0.152344,-0.15234375 -0.222656,-0.15234375 -0.128907,0 -0.164063,0.0117188 -0.222657,0.1171875 -0.246093,0.51562496 -0.878906,0.51562496 -0.996093,0.51562496 -1.101563,0 -1.136719,-0.80859371 -1.148438,-1.13671871 z m -2.34375,-0.29296875 c 0,-0.26953125 0.03516,-1.08984374 0.9375,-1.08984374 0.902344,0 0.949219,0.79687499 0.960938,1.08984374 z m 5.373047,-0.1875 h -2.367187 v 0.7734375 h 2.367187 z m 3.37793,-2.84765634 v 0.3867188 c 0.410156,0 0.46875,0 0.46875,0.2695312 v 1.2773438 C 38.001664,-1.6111328 37.603227,-1.646289 37.38057,-1.646289 c -1.253906,0 -1.933593,0.71484374 -1.933593,1.60546874 0,0.85546875 0.644531,1.58203116 1.839843,1.58203116 0.445313,0 0.820313,-0.140625 1.089844,-0.3398437 v 0.3398437 l 1.359375,-0.046875 V 1.1076172 c -0.410156,0 -0.46875,0 -0.46875,-0.28125001 V -3.3455078 Z m 0.410156,3.97265634 C 38.22432,0.92011724 37.884477,1.213086 37.368852,1.213086 c -0.949219,0 -0.949219,-0.83203126 -0.949219,-1.24218751 0,-0.43359375 0,-1.28906249 1.042969,-1.28906249 0.585937,0 0.902343,0.38671874 0.914062,0.41015624 z m 3.580078,-3.46875004 c 0,-0.328125 -0.269531,-0.5742188 -0.5625,-0.5742188 -0.339844,0 -0.574219,0.28125 -0.574219,0.5742188 0,0.328125 0.269532,0.5625 0.5625,0.5625 0.339844,0 0.574219,-0.2695313 0.574219,-0.5625 z m -1.335937,1.1953126 v 0.3867187 c 0.398437,0 0.445312,0 0.445312,0.28124999 V 1.1076172 h -0.46875 v 0.3867187 c 0.01172,0 0.5625,-0.023437 0.878906,-0.023437 0.28125,0 0.5625,0 0.84375,0.023437 V 1.1076172 h -0.421875 v -2.7539063 z m 3.729492,1.61718744 c 0,-0.6328125 0.28125,-1.31249994 0.914062,-1.34765624 -0.01172,0 -0.09375,0.1171875 -0.09375,0.2929688 0,0.26953119 0.1875,0.48046869 0.46875,0.48046869 0.28125,0 0.480469,-0.2109375 0.480469,-0.48046869 0,-0.3867188 -0.398437,-0.6210938 -0.832031,-0.6210938 -0.503906,0 -0.832031,0.3398437 -1.019531,0.77343749 h -0.01172 V -1.6462891 l -1.207031,0.058594 v 0.3867187 c 0.410156,0 0.46875,0 0.46875,0.28125004 V 1.1076172 h -0.46875 v 0.3867187 c 0.02344,0 0.5625,-0.023437 0.890625,-0.023437 0.269531,0 0.949218,0.023437 0.996093,0.023437 V 1.1076172 h -0.585937 z m 5.636719,0.01171875 c 0.152343,0 0.246093,0 0.246093,-0.2109375 0,-0.19921875 -0.04687,-0.71484375 -0.386718,-1.06640619 -0.375,-0.375 -0.890625,-0.4335938 -1.277344,-0.4335938 -1.289063,0 -1.898438,0.77343749 -1.898438,1.59374999 0,0.83203125 0.644532,1.61718751 2.015625,1.61718751 0.257813,0 0.65625,-0.035156 1.007813,-0.2226562 0.410156,-0.2109375 0.539062,-0.55078131 0.539062,-0.62109381 0,-0.15234375 -0.152343,-0.15234375 -0.222656,-0.15234375 -0.128906,0 -0.164062,0.0117188 -0.222656,0.1171875 -0.246094,0.51562506 -0.878906,0.51562506 -0.996094,0.51562506 -1.101562,0 -1.136719,-0.80859381 -1.148437,-1.13671881 z m -2.34375,-0.29296875 c 0,-0.26953125 0.03516,-1.08984374 0.9375,-1.08984374 0.902343,0 0.949218,0.79687499 0.960937,1.08984374 z m 7.142578,-0.3515625 c 0,-0.85546874 -0.550782,-1.04296874 -1.195313,-1.04296874 -0.84375,0 -1.230469,0.5039063 -1.359375,0.72656249 V -1.6462891 l -1.265625,0.058594 v 0.3867187 c 0.410156,0 0.46875,0 0.46875,0.28125004 V 1.1076172 h -0.46875 v 0.3867187 c 0.01172,0 0.574219,-0.023437 0.902344,-0.023437 0.351562,0 0.914062,0.023437 0.914062,0.023437 V 1.1076172 h -0.457031 v -1.34765626 c 0,-0.80859374 0.714844,-1.07812504 1.136719,-1.07812504 0.304687,0 0.445312,0.1523438 0.445312,0.65625004 V 1.1076172 h -0.46875 v 0.3867187 c 0,0 0.574219,-0.023437 0.902344,-0.023437 0.339844,0 0.902344,0.023437 0.914063,0.023437 V 1.1076172 h -0.46875 z m 4.470703,1.30078125 c 0,-0.12890625 -0.117188,-0.12890625 -0.222656,-0.12890625 -0.152344,0 -0.175782,0.0117188 -0.222657,0.1171875 -0.105468,0.234375 -0.328125,0.49218756 -0.867187,0.49218756 -1.113281,0 -1.113281,-0.97265631 -1.113281,-1.25390631 0,-0.52734375 0.08203,-1.23046869 1.019531,-1.23046869 0.03516,0 0.433594,0 0.433594,0.035156 0,0.011719 -0.01172,0.023437 -0.01172,0.023437 -0.01172,0.023437 -0.08203,0.1289063 -0.08203,0.28124999 0,0.28125 0.210937,0.48046875 0.480468,0.48046875 0.292969,0 0.492188,-0.19921875 0.492188,-0.4921875 0,-0.66796874 -0.9375,-0.69140624 -1.335938,-0.69140624 -1.558593,0 -1.96875,0.97265624 -1.96875,1.61718749 0,0.8203125 0.609375,1.59374991 1.921875,1.59374991 0.339844,0 0.703125,-0.058594 0.972657,-0.2226562 0.398437,-0.234375 0.503906,-0.57421871 0.503906,-0.62109301 z m 2.121094,-3.48046879 c 0,-0.328125 -0.269532,-0.5742188 -0.5625,-0.5742188 -0.339844,0 -0.574219,0.28125 -0.574219,0.5742188 0,0.328125 0.269531,0.5625 0.5625,0.5625 0.339844,0 0.574219,-0.2695313 0.574219,-0.5625 z m -1.335938,1.1953126 v 0.3867187 c 0.398438,0 0.445313,0 0.445313,0.28124999 V 1.1076172 h -0.46875 v 0.3867187 c 0.01172,0 0.5625,-0.023437 0.878906,-0.023437 0.28125,0 0.5625,0 0.84375,0.023437 V 1.1076172 h -0.421875 v -2.7539063 z m 0,0"
         style="fill:#000000;fill-opacity:1;fill-rule:nonzero;stroke:none" />
    </g>
    <path
       id="path31"
       d="m 95.1317,0.85036 c 0,0.87657 -0.71059,1.58716 -1.58716,1.58716 -0.87656,0 -1.58714,-0.71059 -1.58714,-1.58716 0,-0.87654 0.71058,-1.58713 1.58714,-1.58713 0.87657,0 1.58716,0.71059 1.58716,1.58713 z"
       style="fill:#ffffff;fill-opacity:1;fill-rule:nonzero;stroke:#000000;stroke-width:0.3985;stroke-linecap:butt;stroke-linejoin:miter;stroke-miterlimit:10;stroke-dasharray:none;stroke-opacity:1"
       transform="matrix(1.3333333,0,0,-1.3333333,223.1,187.95867)" />
    <path
       id="path32"
       d="M 3.4793594,-3.8684531 2.2020156,-4.1731406 c -0.6210937,-0.1523438 -1.0078125,-0.6914063 -1.0078125,-1.265625 0,-0.703125 0.5390625,-1.3007813 1.3125,-1.3007813 1.6640625,0 1.8867188,1.6289063 1.9453125,2.0742188 0.011719,0.058594 0.011719,0.1171875 0.1171875,0.1171875 0.1289063,0 0.1289063,-0.046875 0.1289063,-0.234375 v -2.0039063 c 0,-0.1640625 0,-0.234375 -0.1054688,-0.234375 -0.070312,0 -0.082031,0.011719 -0.1523437,0.1289063 l -0.3515625,0.5625 c -0.2929688,-0.28125 -0.703125,-0.6914063 -1.59375,-0.6914063 -1.1015625,0 -1.93359377,0.8789063 -1.93359377,1.9335938 0,0.8203125 0.52734377,1.546875 1.30078127,1.8164062 0.1054687,0.046875 0.6210937,0.1640625 1.3125,0.328125 0.2695312,0.070312 0.5742187,0.140625 0.84375,0.515625 0.2109375,0.2578125 0.3164062,0.5859375 0.3164062,0.9140625 0,0.70312503 -0.5039062,1.41796878 -1.3359375,1.41796878 -0.2929687,0 -1.0429687,-0.046875 -1.5703125,-0.5390625 C 0.84264063,-1.1614219 0.81920313,-1.8059531 0.80748438,-2.1575156 c -0.0117188,-0.1054688 -0.09375,-0.1054688 -0.1171875,-0.1054688 -0.12890625,0 -0.12890625,0.070312 -0.12890625,0.2460938 v 1.99218748 c 0,0.17578125 0,0.24609375 0.10546875,0.24609375 0.0703125,0 0.0820313,-0.0234375 0.15234375,-0.12890625 0,-0.01171875 0.0234375,-0.046875 0.35156247,-0.57421875 0.3164063,0.33984375 0.9492188,0.703125 1.8398438,0.703125 1.1601562,0 1.9570312,-0.984375 1.9570312,-2.07421873 0,-0.9960938 -0.65625,-1.8164063 -1.4882812,-2.015625 z m 2.4082031,-2.9414063 v 0.3164063 h 0.234375 c 0.7734375,0 0.7851563,0.1054687 0.7851563,0.46875 v 5.24999998 c 0,0.3515625 -0.011719,0.46875 -0.7851563,0.46875 h -0.234375 v 0.3046875 h 3.6445313 c 1.6757812,0 3.0468752,-1.47656248 3.0468752,-3.35156248 0,-1.8867188 -1.347656,-3.4570313 -3.0468752,-3.4570313 z M 8.25475,-0.30595312 c -0.46875,0 -0.4921875,-0.0703125 -0.4921875,-0.3984375 V -6.0950156 c 0,-0.328125 0.023437,-0.3984375 0.4921875,-0.3984375 h 0.9960938 c 0.6210937,0 1.3007812,0.2109375 1.8164062,0.9257812 0.421875,0.5859375 0.515625,1.4414063 0.515625,2.2148438 0,1.1132812 -0.1875,1.7109375 -0.550781,2.1914062 -0.199219,0.26953128 -0.761719,0.85546878 -1.7695315,0.85546878 z m 8.572266,-6.63281248 c -0.04687,-0.1289063 -0.07031,-0.1992188 -0.222657,-0.1992188 -0.164062,0 -0.1875,0.058594 -0.246093,0.1992188 l -2.0625,5.96484373 c -0.175782,0.50390625 -0.574219,0.65625 -1.113282,0.66796875 v 0.3046875 c 0.234375,-0.01171875 0.65625,-0.03515625 1.019532,-0.03515625 0.304687,0 0.820312,0.0234375 1.148437,0.03515625 v -0.3046875 c -0.503906,0 -0.75,-0.2578125 -0.75,-0.515625 0,-0.0234375 0.01172,-0.12890625 0.02344,-0.140625 l 0.457031,-1.31249998 h 2.460937 l 0.527344,1.52343748 c 0.01172,0.046875 0.02344,0.10546875 0.02344,0.140625 0,0.3046875 -0.550782,0.3046875 -0.820313,0.3046875 v 0.3046875 c 0.351563,-0.03515625 1.054688,-0.03515625 1.429688,-0.03515625 0.433593,0 0.890625,0.01171875 1.300781,0.03515625 v -0.3046875 H 19.82702 c -0.597657,0 -0.738282,-0.0703125 -0.84375,-0.3984375 z m -0.527344,1.125 1.125,3.234375 h -2.238281 z m 11.513672,2.4960937 c 0.08203,-0.234375 0.257812,-0.65625 0.914062,-0.6679687 v -0.3046875 c -0.234375,0.011719 -0.515625,0.023437 -0.75,0.023437 -0.234375,0 -0.691406,-0.023437 -0.867187,-0.023437 v 0.3046875 c 0.375,0.011719 0.480469,0.234375 0.480469,0.4335937 0,0.082031 -0.02344,0.1289063 -0.05859,0.234375 l -1.019531,2.54296878 -1.113282,-2.77734378 c -0.05859,-0.140625 -0.05859,-0.1523437 -0.05859,-0.1757812 0,-0.2578125 0.386718,-0.2578125 0.5625,-0.2578125 v -0.3046875 c -0.292969,0 -0.855469,0.023437 -1.078125,0.023437 -0.269532,0 -0.667969,-0.011719 -0.972657,-0.023437 v 0.3046875 c 0.632813,0 0.667969,0.058594 0.796875,0.3632812 l 1.441407,3.53906253 c 0.05859,0.140625 0.07031,0.1875 0.199218,0.1875 0.128907,0 0.175782,-0.08203125 0.210938,-0.1875 z m 1.945312,0.8085938 c 0.05859,-1.4882813 0.902344,-1.734375 1.242188,-1.734375 1.019531,0 1.125,1.3476562 1.125,1.734375 z m -0.01172,0.2109375 H 32.536 c 0.210938,0 0.246094,0 0.246094,-0.2109375 0,-0.984375 -0.539063,-1.9570313 -1.78125,-1.9570313 -1.160156,0 -2.074219,1.03125 -2.074219,2.2734375 0,1.33593753 1.042969,2.29687503 2.191406,2.29687503 1.21875,0 1.664063,-1.1015625 1.664063,-1.28906253 0,-0.1054687 -0.08203,-0.1171875 -0.128906,-0.1171875 -0.09375,0 -0.117188,0.058594 -0.128907,0.140625 -0.351562,1.01953128 -1.253906,1.01953128 -1.347656,1.01953128 -0.503906,0 -0.902344,-0.29296875 -1.125,-0.66796875 C 29.746938,-1.2903281 29.746938,-1.9465781 29.746938,-2.2981406 Z m 7.461914,-1.0546875 c 0.257812,-0.6210938 0.761718,-0.6328125 0.925781,-0.6328125 v -0.3046875 c -0.234375,0.011719 -0.515625,0.023437 -0.75,0.023437 -0.175781,0 -0.644531,-0.023437 -0.867188,-0.023437 v 0.3046875 c 0.304688,0.011719 0.46875,0.1757812 0.46875,0.4335937 0,0.09375 -0.01172,0.1171875 -0.05859,0.234375 L 35.91979,-0.86845312 34.818228,-3.5520469 c -0.04687,-0.09375 -0.05859,-0.140625 -0.05859,-0.1757812 0,-0.2578125 0.363281,-0.2578125 0.550781,-0.2578125 v -0.3046875 c -0.257812,0 -0.914062,0.023437 -1.078125,0.023437 -0.269531,0 -0.667969,-0.011719 -0.972656,-0.023437 v 0.3046875 c 0.480469,0 0.667969,0 0.808594,0.3515625 l 1.5,3.63281248 C 35.509642,0.12764063 35.369013,0.45576563 35.310419,0.58467188 35.099482,1.1354531 34.818232,1.8268594 34.1737,1.8268594 c -0.04687,0 -0.269531,0 -0.46875,-0.1875 0.316407,-0.035156 0.398438,-0.2578125 0.398438,-0.4101563 0,-0.26953122 -0.199219,-0.42187497 -0.421875,-0.42187497 -0.199219,0 -0.421875,0.12890625 -0.421875,0.42187497 0,0.4570313 0.421875,0.8085938 0.914062,0.8085938 0.632813,0 1.042969,-0.5625 1.277344,-1.13671877 z m 4.160156,2.58984373 c 0.03516,0.3984375 0.304687,0.8203125 0.773437,0.8203125 0.210938,0 0.820313,-0.140625 0.820313,-0.94921875 V -1.4426719 h -0.246094 v 0.55078128 c 0,0.5859375 -0.246094,0.64453125 -0.363281,0.64453125 -0.328125,0 -0.363281,-0.45703125 -0.363281,-0.50390625 V -2.7434531 c 0,-0.4101563 0,-0.8085938 -0.363282,-1.171875 -0.386718,-0.3867188 -0.878906,-0.5507813 -1.359375,-0.5507813 -0.820312,0 -1.511718,0.46875 -1.511718,1.125 0,0.3046875 0.199218,0.46875 0.457031,0.46875 0.28125,0 0.46875,-0.1992187 0.46875,-0.4570312 0,-0.1171875 -0.05859,-0.4453125 -0.515625,-0.4570313 0.269531,-0.3515625 0.761719,-0.4570312 1.078125,-0.4570312 0.492187,0 1.054687,0.3867187 1.054687,1.2773437 v 0.3632813 c -0.503906,0.035156 -1.207031,0.058594 -1.828125,0.3632812 -0.75,0.3398438 -0.996093,0.8554688 -0.996093,1.28906253 0,0.80859375 0.960937,1.0546875 1.59375,1.0546875 0.65625,0 1.113281,-0.3984375 1.300781,-0.8671875 z m -0.07031,-1.62890623 v 0.9960937 c 0,0.94921878 -0.714843,1.28906253 -1.160156,1.28906253 -0.492187,0 -0.902344,-0.3515625 -0.902344,-0.85546875 0,-0.53906248 0.421875,-1.37109378 2.0625,-1.42968748 z m 8.53418,-1.4765625 -1.277344,-0.3046875 c -0.621093,-0.1523438 -1.007812,-0.6914063 -1.007812,-1.265625 0,-0.703125 0.539062,-1.3007813 1.3125,-1.3007813 1.664062,0 1.886719,1.6289063 1.945312,2.0742188 0.01172,0.058594 0.01172,0.1171875 0.117188,0.1171875 0.128906,0 0.128906,-0.046875 0.128906,-0.234375 v -2.0039063 c 0,-0.1640625 0,-0.234375 -0.105469,-0.234375 -0.07031,0 -0.08203,0.011719 -0.152343,0.1289063 l -0.351563,0.5625 c -0.292969,-0.28125 -0.703125,-0.6914063 -1.59375,-0.6914063 -1.101562,0 -1.933594,0.8789063 -1.933594,1.9335938 0,0.8203125 0.527344,1.546875 1.300782,1.8164062 0.105468,0.046875 0.621093,0.1640625 1.3125,0.328125 0.269531,0.070312 0.574218,0.140625 0.84375,0.515625 0.210937,0.2578125 0.316406,0.5859375 0.316406,0.9140625 0,0.70312503 -0.503906,1.41796878 -1.335938,1.41796878 -0.292968,0 -1.042968,-0.046875 -1.570312,-0.5390625 C 47.196156,-1.1614219 47.172719,-1.8059531 47.161,-2.1575156 c -0.01172,-0.1054688 -0.09375,-0.1054688 -0.117187,-0.1054688 -0.128907,0 -0.128907,0.070312 -0.128907,0.2460938 v 1.99218748 c 0,0.17578125 0,0.24609375 0.105469,0.24609375 0.07031,0 0.08203,-0.0234375 0.152344,-0.12890625 0,-0.01171875 0.02344,-0.046875 0.351562,-0.57421875 0.316407,0.33984375 0.949219,0.703125 1.839844,0.703125 1.160156,0 1.957031,-0.984375 1.957031,-2.07421873 0,-0.9960938 -0.65625,-1.8164063 -1.48828,-2.015625 z m 2.616211,0.4570312 c 0,2.0625 1.605469,3.63281253 3.457031,3.63281253 1.628906,0 2.601563,-1.38281253 2.601563,-2.54296873 0,-0.1054688 0,-0.1757813 -0.128907,-0.1757813 -0.105468,0 -0.105468,0.070312 -0.117187,0.1640625 -0.08203,1.42968753 -1.148438,2.23828128 -2.226563,2.23828128 -0.609375,0 -2.566406,-0.33984375 -2.566406,-3.30468748 0,-2.9765625 1.945313,-3.3164063 2.554688,-3.3164063 1.078125,0 1.96875,0.9023438 2.167968,2.3671875 0.02344,0.1289063 0.02344,0.1640625 0.164063,0.1640625 0.152344,0 0.152344,-0.035156 0.152344,-0.234375 v -2.3671875 c 0,-0.1640625 0,-0.234375 -0.105469,-0.234375 -0.03516,0 -0.08203,0 -0.164063,0.1171875 l -0.492187,0.7382813 c -0.375,-0.3632813 -0.878906,-0.8554688 -1.839844,-0.8554688 -1.863281,0 -3.457031,1.5820313 -3.457031,3.609375 z m 10.617187,-0.7617187 1.792969,-1.7226563 c 0.08203,-0.082031 0.609375,-0.5859375 1.417969,-0.5976562 v -0.3164063 c -0.257813,0.035156 -0.585938,0.035156 -0.855469,0.035156 -0.351562,0 -0.925781,0 -1.253906,-0.035156 v 0.3164063 c 0.398437,0.011719 0.457031,0.234375 0.457031,0.328125 0,0.1523437 -0.105469,0.2578125 -0.1875,0.328125 l -3.117187,2.9765625 v -3.1640625 c 0,-0.3632813 0.02344,-0.46875 0.785156,-0.46875 h 0.246094 v -0.3164063 c -0.351563,0.035156 -1.089844,0.035156 -1.464844,0.035156 -0.375,0 -1.125,0 -1.476563,-0.035156 v 0.3164063 h 0.234375 c 0.773438,0 0.796875,0.1054687 0.796875,0.46875 v 5.24999998 c 0,0.3515625 -0.02344,0.46875 -0.796875,0.46875 h -0.234375 v 0.3046875 c 0.351563,-0.03515625 1.089844,-0.03515625 1.464844,-0.03515625 0.375,0 1.125,0 1.476563,0.03515625 v -0.3046875 h -0.246094 c -0.761719,0 -0.785156,-0.1171875 -0.785156,-0.46875 V -2.5207969 l 1.160156,-1.1015625 1.804687,2.67187503 c 0.05859,0.09375 0.140625,0.22265625 0.140625,0.33984375 0,0.3046875 -0.386718,0.3046875 -0.585937,0.3046875 v 0.3046875 c 0.351562,-0.03515625 1.054687,-0.03515625 1.429687,-0.03515625 0.351563,0 0.726563,0.01171875 1.148438,0.03515625 v -0.3046875 c -0.539063,0 -0.75,-0.046875 -1.054688,-0.48046875 z m 0,0"
       style="fill:#000000;fill-opacity:1;fill-rule:nonzero;stroke:none"
       aria-label="SDAveyaSCK"
       transform="matrix(1.3333333,0,0,1.3333333,358.61867,190.072)" />
    <path
       id="path33"
       d="M 93.54454,0.85036 H 65.19774"
       style="fill:none;stroke:#0000ff;stroke-width:1.19553;stroke-linecap:butt;stroke-linejoin:miter;stroke-miterlimit:10;stroke-dasharray:none;stroke-opacity:1"
       transform="matrix(1.3333333,0,0,-1.3333333,223.1,187.95867)" />
    <path
       id="path34"
       d="m 65.19774,0.85036 v 0 H -5.66928 v -1.70072"
       style="fill:none;stroke:#0000ff;stroke-width:1.19553;stroke-linecap:butt;stroke-linejoin:miter;stroke-miterlimit:10;stroke-dasharray:none;stroke-opacity:1"
       transform="matrix(1.3333333,0,0,-1.3333333,223.1,187.95867)" />
    <path
       id="path35"
       d="m 61.22926,103.5789 3.96848,5.55585 3.96847,-5.55585"
       style="fill:none;stroke:#ff0000;stroke-width:0.797;stroke-linecap:butt;stroke-linejoin:miter;stroke-miterlimit:10;stroke-dasharray:none;stroke-opacity:1"
       transform="matrix(1.3333333,0,0,-1.3333333,223.1,187.95867)" />
    <path
       id="path36"
       d="m 65.19774,97.22932 v 11.90543"
       style="fill:none;stroke:#ff0000;stroke-width:0.3985;stroke-linecap:butt;stroke-linejoin:miter;stroke-miterlimit:10;stroke-dasharray:none;stroke-opacity:1"
       transform="matrix(1.3333333,0,0,-1.3333333,223.1,187.95867)" />
    <g
       id="g36"
       aria-label="+V&#10;cc"
       transform="matrix(1.3333333,0,0,1.3333333,295.90933,32.617333)">
      <path
         id="path37"
         d="m 4.0787422,-2.2969844 h 2.7773437 c 0.140625,0 0.328125,0 0.328125,-0.1992187 0,-0.1992188 -0.1875,-0.1992188 -0.328125,-0.1992188 H 4.0787422 v -2.7890625 c 0,-0.1289062 0,-0.328125 -0.1992188,-0.328125 -0.1992187,0 -0.1992187,0.1992188 -0.1992187,0.328125 v 2.7890625 H 0.89124219 c -0.140625,0 -0.328125,0 -0.328125,0.1992188 0,0.1992187 0.1875,0.1992187 0.328125,0.1992187 H 3.6803047 v 2.80078128 c 0,0.12890625 0,0.328125 0.1992187,0.328125 0.1992188,0 0.1992188,-0.19921875 0.1992188,-0.328125 z m 0,0"
         style="fill:#ff0000;fill-opacity:1;fill-rule:nonzero;stroke:none" />
      <path
         id="path38"
         d="m 14.007453,-5.6719844 c 0.480469,-0.7734375 0.902344,-0.8085937 1.277344,-0.8203125 0.117187,-0.011719 0.128906,-0.1875 0.128906,-0.1875 0,-0.082031 -0.05859,-0.1289062 -0.128906,-0.1289062 -0.257813,0 -0.550781,0.035156 -0.820313,0.035156 -0.328125,0 -0.667968,-0.035156 -0.984375,-0.035156 -0.05859,0 -0.1875,0 -0.1875,0.1992187 0,0.1054688 0.08203,0.1171875 0.152344,0.1171875 0.269531,0.011719 0.457031,0.1171875 0.457031,0.328125 0,0.1523438 -0.140625,0.3632813 -0.140625,0.375 l -3.058593,4.86328128 -0.679688,-5.27343748 c 0,-0.1640625 0.222656,-0.2929688 0.679688,-0.2929688 0.140625,0 0.257812,0 0.257812,-0.1992187 0,-0.09375 -0.08203,-0.1171875 -0.140625,-0.1171875 -0.398437,0 -0.8320311,0.035156 -1.2421874,0.035156 -0.1757812,0 -0.3632812,-0.011719 -0.5390625,-0.011719 -0.1875,0 -0.375,-0.023437 -0.5390625,-0.023437 -0.070312,0 -0.1875,0 -0.1875,0.1992187 0,0.1171875 0.082031,0.1171875 0.2460938,0.1171875 0.5507812,0 0.5625,0.082031 0.5976562,0.3398438 l 0.7851563,6.14062498 c 0.035156,0.19921875 0.070312,0.234375 0.1992191,0.234375 0.164062,0 0.199218,-0.0585938 0.28125,-0.1875 z m 0,0"
         style="fill:#ff0000;fill-opacity:1;fill-rule:nonzero;stroke:none" />
      <path
         id="path39"
         d="m 16.620734,-1.1778437 c -0.257812,0.046875 -0.363281,0.23437495 -0.363281,0.3867187 0,0.1875 0.152344,0.2578125 0.269531,0.2578125 0.164063,0 0.398438,-0.10546875 0.398438,-0.4453125 0,-0.46875 -0.539063,-0.5976562 -0.914063,-0.5976562 -1.042968,0 -2.015625,0.96093745 -2.015625,1.92187495 0,0.609375 0.421875,1.21875005 1.289063,1.21875005 1.183594,0 1.734375,-0.6914063 1.734375,-0.7851563 0,-0.046875 -0.07031,-0.1171875 -0.128906,-0.1171875 -0.03516,0 -0.04687,0.0117188 -0.105469,0.0703125 -0.550781,0.6328125 -1.359375,0.6328125 -1.488281,0.6328125 -0.503907,0 -0.726563,-0.3398437 -0.726563,-0.7734375 0,-0.19921875 0.105469,-0.9609375 0.46875,-1.44140625 0.257813,-0.33984375 0.621094,-0.53906245 0.972656,-0.53906245 0.09375,0 0.433594,0.011719 0.609375,0.2109375 z m 3.559571,0 c -0.257813,0.046875 -0.363282,0.23437495 -0.363282,0.3867187 0,0.1875 0.152344,0.2578125 0.269532,0.2578125 0.164062,0 0.398437,-0.10546875 0.398437,-0.4453125 0,-0.46875 -0.539062,-0.5976562 -0.914062,-0.5976562 -1.042969,0 -2.015625,0.96093745 -2.015625,1.92187495 0,0.609375 0.421875,1.21875005 1.289062,1.21875005 1.183594,0 1.734375,-0.6914063 1.734375,-0.7851563 0,-0.046875 -0.07031,-0.1171875 -0.128906,-0.1171875 -0.03516,0 -0.04687,0.0117188 -0.105469,0.0703125 -0.550781,0.6328125 -1.359375,0.6328125 -1.488281,0.6328125 -0.503906,0 -0.726563,-0.3398437 -0.726563,-0.7734375 0,-0.19921875 0.105469,-0.9609375 0.46875,-1.44140625 0.257813,-0.33984375 0.621094,-0.53906245 0.972657,-0.53906245 0.09375,0 0.433593,0.011719 0.609375,0.2109375 z m 0,0"
         style="fill:#ff0000;fill-opacity:1;fill-rule:nonzero;stroke:none" />
    </g>
    <path
       id="path40"
       d="M 85.04042,-99.21384 V -28.7453"
       style="fill:none;stroke:#808080;stroke-width:0.3985;stroke-linecap:butt;stroke-linejoin:miter;stroke-miterlimit:10;stroke-dasharray:2.98883, 2.98883;stroke-dashoffset:0;stroke-opacity:1"
       transform="matrix(1.3333333,0,0,-1.3333333,223.1,187.95867)" />
    <path
       id="path41"
       d="M -2.07224,2.39104 C -1.69365,0.95639 -0.84999,0.27895 0,0 -0.84999,-0.27895 -1.69365,-0.95639 -2.07224,-2.39104"
       style="fill:none;stroke:#808080;stroke-width:0.3985;stroke-linecap:round;stroke-linejoin:round;stroke-miterlimit:10;stroke-dasharray:none;stroke-opacity:1"
       transform="matrix(0,-1.3333333,-1.3333333,0,336.48723,226.02007)" />
    <path
       id="path42"
       d="m 5.9075078,-0.6319375 c 0.1289063,0.22265625 0.5273438,0.62109375 0.6328125,0.62109375 0.09375,0 0.09375,-0.08203125 0.09375,-0.22265625 v -1.734375 c 0,-0.3867187 0.046875,-0.4453125 0.6914063,-0.4453125 V -2.717875 c -0.375,0.011719 -0.9140625,0.023437 -1.21875,0.023437 -0.3984375,0 -1.2421875,0 -1.6054688,-0.023437 v 0.3046875 h 0.3164063 c 0.9023437,0 0.9257812,0.1171875 0.9257812,0.4804688 v 0.6328125 c 0,1.12499995 -1.2539062,1.2070312 -1.5351562,1.2070312 -0.65625,0 -2.625,-0.33984375 -2.625,-3.3164062 0,-2.9765625 1.96875,-3.3046875 2.5664062,-3.3046875 1.0664063,0 1.96875,0.9023437 2.1679688,2.3671875 0.023437,0.1289062 0.023437,0.1640625 0.1640625,0.1640625 0.1523437,0 0.1523437,-0.035156 0.1523437,-0.234375 v -2.3671875 c 0,-0.1640625 0,-0.234375 -0.1054687,-0.234375 -0.046875,0 -0.082031,0 -0.1640625,0.1171875 l -0.4921875,0.7382812 c -0.328125,-0.3164062 -0.8554688,-0.8554687 -1.8515625,-0.8554687 -1.8515625,0 -3.45703129,1.5703125 -3.45703129,3.609375 0,2.0507812 1.59374999,3.63281245 3.48046879,3.63281245 0.7265625,0 1.5234375,-0.2578125 1.8632812,-0.85546875 z m 3.0234375,-1.875 c 0.058594,-1.4882812 0.9023438,-1.734375 1.2421877,-1.734375 1.019531,0 1.125,1.3476563 1.125,1.734375 z M 8.9192266,-2.296 h 2.7890624 c 0.210938,0 0.246094,0 0.246094,-0.2109375 0,-0.984375 -0.539063,-1.9570312 -1.78125,-1.9570312 -1.1601564,0 -2.0742189,1.03125 -2.0742189,2.2734375 0,1.33593745 1.0429687,2.29687495 2.1914059,2.29687495 1.21875,0 1.664063,-1.1015625 1.664063,-1.28906245 0,-0.1054688 -0.08203,-0.1171875 -0.128906,-0.1171875 -0.09375,0 -0.117188,0.058594 -0.128907,0.140625 -0.351562,1.0195312 -1.253906,1.0195312 -1.347656,1.0195312 -0.5039062,0 -0.9023437,-0.29296875 -1.1249999,-0.66796875 C 8.9192266,-1.2881875 8.9192266,-1.9444375 8.9192266,-2.296 Z M 13.908484,-3.3038125 V -4.405375 l -1.382812,0.1171875 V -3.9835 c 0.691406,0 0.773437,0.070312 0.773437,0.5625 v 2.66015625 c 0,0.45703125 -0.105468,0.45703125 -0.773437,0.45703125 V 8.75e-4 c 0.386719,-0.01171875 0.855469,-0.03515625 1.136719,-0.03515625 0.398437,0 0.867187,0 1.265625,0.03515625 v -0.3046875 h -0.210938 c -0.738281,0 -0.761719,-0.1171875 -0.761719,-0.46875 v -1.5351562 c 0,-0.984375 0.421875,-1.875 1.183594,-1.875 0.05859,0 0.08203,0 0.105469,0.011719 -0.03516,0.011719 -0.234375,0.1289063 -0.234375,0.3867188 0,0.28125 0.210937,0.4335937 0.433594,0.4335937 0.175781,0 0.421875,-0.1289062 0.421875,-0.4453125 0,-0.3164062 -0.304688,-0.609375 -0.726563,-0.609375 -0.738281,0 -1.089844,0.6679688 -1.230469,1.1015622 z m 3.996094,-1.1015625 -1.394531,0.1171875 V -3.9835 c 0.65625,0 0.738281,0.058594 0.738281,0.5507813 v 2.67187495 c 0,0.45703125 -0.105469,0.45703125 -0.773437,0.45703125 V 8.75e-4 c 0.316406,-0.01171875 0.855468,-0.03515625 1.101562,-0.03515625 0.339844,0 0.691406,0.0234375 1.03125,0.03515625 v -0.3046875 c -0.65625,0 -0.703125,-0.0585938 -0.703125,-0.4453125 z m 0.04687,-1.734375 c 0,-0.3164062 -0.246094,-0.5273437 -0.527344,-0.5273437 -0.316406,0 -0.527343,0.2695312 -0.527343,0.5273437 0,0.2695313 0.210937,0.5273438 0.527343,0.5273438 0.28125,0 0.527344,-0.1992188 0.527344,-0.5273438 z m 2.72168,-0.7734375 -1.429688,0.1054688 v 0.3164062 c 0.703125,0 0.773438,0.070312 0.773438,0.5507813 v 5.17968745 c 0,0.45703125 -0.105469,0.45703125 -0.773438,0.45703125 V 8.75e-4 c 0.328125,-0.01171875 0.855469,-0.03515625 1.101563,-0.03515625 0.257812,0 0.738281,0.0234375 1.113281,0.03515625 v -0.3046875 c -0.667969,0 -0.785156,0 -0.785156,-0.45703125 z m 2.768554,2.5078125 -1.394531,0.1171875 V -3.9835 c 0.65625,0 0.738281,0.058594 0.738281,0.5507813 v 2.67187495 c 0,0.45703125 -0.105468,0.45703125 -0.773437,0.45703125 V 8.75e-4 c 0.316406,-0.01171875 0.855469,-0.03515625 1.101562,-0.03515625 0.339844,0 0.691407,0.0234375 1.03125,0.03515625 v -0.3046875 c -0.65625,0 -0.703125,-0.0585938 -0.703125,-0.4453125 z m 0.04687,-1.734375 c 0,-0.3164062 -0.246093,-0.5273437 -0.527343,-0.5273437 -0.316407,0 -0.527344,0.2695312 -0.527344,0.5273437 0,0.2695313 0.210937,0.5273438 0.527344,0.5273438 0.28125,0 0.527343,-0.1992188 0.527343,-0.5273438 z m 2.0625,2.71875 v 2.66015625 c 0,0.45703125 -0.117187,0.45703125 -0.785156,0.45703125 V 8.75e-4 c 0.351563,-0.01171875 0.855469,-0.03515625 1.125,-0.03515625 0.257813,0 0.785156,0.0234375 1.113281,0.03515625 v -0.3046875 c -0.65625,0 -0.773437,0 -0.773437,-0.45703125 V -2.5889687 c 0,-1.03125 0.714844,-1.59375 1.347656,-1.59375 0.621094,0 0.738281,0.5390625 0.738281,1.1015625 v 2.32031245 c 0,0.45703125 -0.117187,0.45703125 -0.773437,0.45703125 V 8.75e-4 c 0.339844,-0.01171875 0.855469,-0.03515625 1.125,-0.03515625 0.257812,0 0.773437,0.0234375 1.113281,0.03515625 v -0.3046875 c -0.667969,0 -0.785156,0 -0.785156,-0.45703125 V -2.5889687 c 0,-1.03125 0.714844,-1.59375 1.347656,-1.59375 0.632813,0 0.738281,0.5390625 0.738281,1.1015625 v 2.32031245 c 0,0.45703125 -0.105468,0.45703125 -0.773437,0.45703125 V 8.75e-4 c 0.351562,-0.01171875 0.855469,-0.03515625 1.125,-0.03515625 0.257812,0 0.773437,0.0234375 1.113281,0.03515625 v -0.3046875 c -0.515625,0 -0.761719,0 -0.773437,-0.3046875 v -1.8984375 c 0,-0.8554687 0,-1.171875 -0.316407,-1.5234375 -0.128906,-0.1757812 -0.46875,-0.375 -1.042968,-0.375 -0.832032,0 -1.277344,0.5976563 -1.441407,0.984375 -0.140625,-0.8671875 -0.878906,-0.984375 -1.324218,-0.984375 -0.726563,0 -1.195313,0.4335938 -1.476563,1.0546875 V -4.405375 l -1.40625,0.1171875 V -3.9835 c 0.703125,0 0.785156,0.070312 0.785156,0.5625 z m 0,0"
       style="fill:#808080;fill-opacity:1;fill-rule:nonzero;stroke:none"
       aria-label="Gerilim"
       transform="matrix(1.3333333,0,0,1.3333333,314.65067,221.06133)" />
    <path
       id="path43"
       d="M 56.69362,-70.86702 H 212.20256"
       style="fill:none;stroke:#808080;stroke-width:0.3985;stroke-linecap:butt;stroke-linejoin:miter;stroke-miterlimit:10;stroke-dasharray:2.98883, 2.98883;stroke-dashoffset:0;stroke-opacity:1"
       transform="matrix(1.3333333,0,0,-1.3333333,223.1,187.95867)" />
    <path
       id="path44"
       d="M -2.07224,2.39104 C -1.69365,0.95639 -0.84999,0.27895 0,0 -0.84999,-0.27895 -1.69365,-0.95639 -2.07224,-2.39104"
       style="fill:none;stroke:#808080;stroke-width:0.3985;stroke-linecap:round;stroke-linejoin:round;stroke-miterlimit:10;stroke-dasharray:none;stroke-opacity:1"
       transform="matrix(1.3333333,0,0,-1.3333333,506.30241,282.44803)" />
    <path
       id="path45"
       d="m 3.8901953,-3.9955625 c 0.082031,-0.1054687 0.082031,-0.1289062 0.082031,-0.1640625 0,-0.1289062 -0.082031,-0.1289062 -0.2578125,-0.1289062 H 0.52691406 l -0.10546875,1.59375 H 0.66753906 C 0.72613281,-3.7025937 0.91363281,-4.0775937 2.0151953,-4.0775937 H 3.1519141 L 0.36285156,-0.315875 c -0.0820313,0.10546875 -0.0820313,0.12890625 -0.0820313,0.17578125 0,0.140625 0.0703125,0.140625 0.2578125,0.140625 H 3.8198828 L 3.9956641,-1.86275 H 3.7495703 c -0.09375,1.171875 -0.3046875,1.6171875 -1.453125,1.6171875 H 1.1128516 Z m 3.8525391,3.234375 c 0.035156,0.3984375 0.3046875,0.8203125 0.7734375,0.8203125 0.2109375,0 0.8203125,-0.140625 0.8203125,-0.94921875 V -1.440875 H 9.0903906 v 0.55078125 c 0,0.5859375 -0.2460937,0.64453125 -0.3632812,0.64453125 -0.328125,0 -0.3632813,-0.45703125 -0.3632813,-0.50390625 V -2.7416562 c 0,-0.4101563 0,-0.8085938 -0.3632812,-1.171875 -0.3867188,-0.3867188 -0.8789063,-0.5507813 -1.359375,-0.5507813 -0.8203125,0 -1.5117188,0.46875 -1.5117188,1.125 0,0.3046875 0.1992188,0.46875 0.4570313,0.46875 0.28125,0 0.46875,-0.1992187 0.46875,-0.4570312 0,-0.1171875 -0.058594,-0.4453125 -0.515625,-0.4570313 0.2695312,-0.3515625 0.7617187,-0.4570312 1.078125,-0.4570312 0.4921875,0 1.0546875,0.3867187 1.0546875,1.2773437 v 0.3632813 c -0.5039063,0.035156 -1.2070313,0.058594 -1.828125,0.3632812 -0.75,0.3398438 -0.9960938,0.8554688 -0.9960938,1.2890625 0,0.80859375 0.9609375,1.0546875 1.59375,1.0546875 0.65625,0 1.1132813,-0.3984375 1.3007813,-0.8671875 z M 7.6724219,-2.3900937 V -1.394 c 0,0.94921875 -0.7148438,1.2890625 -1.1601563,1.2890625 -0.4921875,0 -0.9023437,-0.3515625 -0.9023437,-0.85546875 0,-0.53906245 0.421875,-1.37109375 2.0625,-1.42968745 z m 2.8388671,-1.03125 v 2.6601562 c 0,0.45703125 -0.117187,0.45703125 -0.7851562,0.45703125 V 5.3125e-4 C 10.077695,-0.0111875 10.581602,-0.034625 10.851133,-0.034625 c 0.257812,0 0.785156,0.0234375 1.113281,0.03515625 v -0.3046875 c -0.65625,0 -0.773437,0 -0.773437,-0.45703125 v -1.828125 c 0,-1.03125 0.714843,-1.59375 1.347656,-1.59375 0.621094,0 0.738281,0.5390625 0.738281,1.1015625 v 2.3203125 c 0,0.45703125 -0.117187,0.45703125 -0.773437,0.45703125 v 0.3046875 c 0.339843,-0.01171875 0.855468,-0.03515625 1.125,-0.03515625 0.257812,0 0.773437,0.0234375 1.113281,0.03515625 v -0.3046875 c -0.667969,0 -0.785156,0 -0.785156,-0.45703125 v -1.828125 c 0,-1.03125 0.714843,-1.59375 1.347656,-1.59375 0.632812,0 0.738281,0.5390625 0.738281,1.1015625 v 2.3203125 c 0,0.45703125 -0.105469,0.45703125 -0.773437,0.45703125 v 0.3046875 c 0.351562,-0.01171875 0.855468,-0.03515625 1.125,-0.03515625 0.257812,0 0.773437,0.0234375 1.113281,0.03515625 v -0.3046875 c -0.515625,0 -0.761719,0 -0.773438,-0.3046875 V -2.5072812 c 0,-0.8554688 0,-1.171875 -0.316406,-1.5234375 -0.128906,-0.1757813 -0.46875,-0.375 -1.042969,-0.375 -0.832031,0 -1.277343,0.5976562 -1.441406,0.984375 -0.140625,-0.8671875 -0.878906,-0.984375 -1.324219,-0.984375 -0.726562,0 -1.195312,0.4335937 -1.476562,1.0546875 v -1.0546875 l -1.4062502,0.1171875 v 0.3046875 c 0.7031252,0 0.7851562,0.070312 0.7851562,0.5625 z m 10.514648,2.6601562 c 0.03516,0.3984375 0.304688,0.8203125 0.773438,0.8203125 0.210937,0 0.820312,-0.140625 0.820312,-0.94921875 V -1.440875 h -0.246093 v 0.55078125 c 0,0.5859375 -0.246094,0.64453125 -0.363282,0.64453125 -0.328125,0 -0.363281,-0.45703125 -0.363281,-0.50390625 V -2.7416562 c 0,-0.4101563 0,-0.8085938 -0.363281,-1.171875 -0.386719,-0.3867188 -0.878906,-0.5507813 -1.359375,-0.5507813 -0.820313,0 -1.511719,0.46875 -1.511719,1.125 0,0.3046875 0.199219,0.46875 0.457031,0.46875 0.28125,0 0.46875,-0.1992187 0.46875,-0.4570312 0,-0.1171875 -0.05859,-0.4453125 -0.515625,-0.4570313 0.269532,-0.3515625 0.761719,-0.4570312 1.078125,-0.4570312 0.492188,0 1.054688,0.3867187 1.054688,1.2773437 v 0.3632813 c -0.503906,0.035156 -1.207031,0.058594 -1.828125,0.3632812 -0.75,0.3398438 -0.996094,0.8554688 -0.996094,1.2890625 0,0.80859375 0.960938,1.0546875 1.59375,1.0546875 0.65625,0 1.113281,-0.3984375 1.300781,-0.8671875 z m -0.07031,-1.6289062 V -1.394 c 0,0.94921875 -0.714844,1.2890625 -1.160156,1.2890625 -0.492188,0 -0.902344,-0.3515625 -0.902344,-0.85546875 0,-0.53906245 0.421875,-1.37109375 2.0625,-1.42968745 z m 2.838867,-1.03125 v 2.6601562 c 0,0.45703125 -0.117187,0.45703125 -0.785156,0.45703125 v 0.3046875 c 0.351562,-0.01171875 0.855469,-0.03515625 1.125,-0.03515625 0.257812,0 0.785156,0.0234375 1.113281,0.03515625 v -0.3046875 c -0.65625,0 -0.773437,0 -0.773437,-0.45703125 v -1.828125 c 0,-1.03125 0.714843,-1.59375 1.347656,-1.59375 0.621094,0 0.738281,0.5390625 0.738281,1.1015625 v 2.3203125 c 0,0.45703125 -0.117187,0.45703125 -0.773437,0.45703125 v 0.3046875 c 0.339843,-0.01171875 0.855468,-0.03515625 1.125,-0.03515625 0.257812,0 0.773437,0.0234375 1.113281,0.03515625 v -0.3046875 c -0.515625,0 -0.773438,0 -0.785156,-0.3046875 V -2.5072812 c 0,-0.8554688 0,-1.171875 -0.304688,-1.5234375 -0.140625,-0.1757813 -0.46875,-0.375 -1.042969,-0.375 -0.726562,0 -1.195312,0.4335937 -1.476562,1.0546875 v -1.0546875 l -1.40625,0.1171875 v 0.3046875 c 0.703125,0 0.785156,0.070312 0.785156,0.5625 z m 0,0"
       style="fill:#808080;fill-opacity:1;fill-rule:nonzero;stroke:none"
       aria-label="zaman"
       transform="matrix(1.3333333,0,0,1.3333333,487.74667,292.85867)" />
    <path
       id="path46"
       d="m 85.04042,-70.86702 v 28.3468"
       style="fill:none;stroke:#ff0000;stroke-width:1.19553;stroke-linecap:butt;stroke-linejoin:miter;stroke-miterlimit:10;stroke-dasharray:none;stroke-opacity:1"
       transform="matrix(1.3333333,0,0,-1.3333333,223.1,187.95867)" />
    <path
       id="path47"
       d="m 85.04042,-42.52022 h 28.34682"
       style="fill:none;stroke:#ff0000;stroke-width:1.19553;stroke-linecap:butt;stroke-linejoin:miter;stroke-miterlimit:10;stroke-dasharray:none;stroke-opacity:1"
       transform="matrix(1.3333333,0,0,-1.3333333,223.1,187.95867)" />
    <path
       id="path48"
       d="m 113.38724,-42.52022 v -28.3468"
       style="fill:none;stroke:#0000ff;stroke-width:1.19553;stroke-linecap:butt;stroke-linejoin:miter;stroke-miterlimit:10;stroke-dasharray:none;stroke-opacity:1"
       transform="matrix(1.3333333,0,0,-1.3333333,223.1,187.95867)" />
    <path
       id="path49"
       d="m 113.38724,-70.86702 h 28.3468"
       style="fill:none;stroke:#0000ff;stroke-width:1.19553;stroke-linecap:butt;stroke-linejoin:miter;stroke-miterlimit:10;stroke-dasharray:none;stroke-opacity:1"
       transform="matrix(1.3333333,0,0,-1.3333333,223.1,187.95867)" />
    <path
       id="path50"
       d="m 141.73404,-70.86702 v 28.3468"
       style="fill:none;stroke:#ff0000;stroke-width:1.19553;stroke-linecap:butt;stroke-linejoin:miter;stroke-miterlimit:10;stroke-dasharray:none;stroke-opacity:1"
       transform="matrix(1.3333333,0,0,-1.3333333,223.1,187.95867)" />
    <path
       id="path51"
       d="m 141.73404,-42.52022 h 28.34682"
       style="fill:none;stroke:#ff0000;stroke-width:1.19553;stroke-linecap:butt;stroke-linejoin:miter;stroke-miterlimit:10;stroke-dasharray:none;stroke-opacity:1"
       transform="matrix(1.3333333,0,0,-1.3333333,223.1,187.95867)" />
    <path
       id="path52"
       d="m 170.08086,-42.52022 v -28.3468"
       style="fill:none;stroke:#0000ff;stroke-width:1.19553;stroke-linecap:butt;stroke-linejoin:miter;stroke-miterlimit:10;stroke-dasharray:none;stroke-opacity:1"
       transform="matrix(1.3333333,0,0,-1.3333333,223.1,187.95867)" />
    <path
       id="path53"
       d="m 170.08086,-70.86702 h 28.3468"
       style="fill:none;stroke:#0000ff;stroke-width:1.19553;stroke-linecap:butt;stroke-linejoin:miter;stroke-miterlimit:10;stroke-dasharray:none;stroke-opacity:1"
       transform="matrix(1.3333333,0,0,-1.3333333,223.1,187.95867)" />
  </g>
</svg>
