{"accessors":[{"bufferView":0,"byteOffset":0,"componentType":5126,"count":31,"max":[2.041077998579e-20,0.001,4.99919927554e-36],"min":[0.0,0.0,-0.001],"type":"VEC3"},{"bufferView":0,"byteOffset":372,"componentType":5126,"count":31,"max":[0.001,0.001,2.4457014982292093e-19],"min":[0.0,0.0,0.0],"type":"VEC3"},{"bufferView":0,"byteOffset":744,"componentType":5126,"count":498,"max":[0.001,0.001,2.4457014982292093e-19],"min":[0.0,0.0,-0.001],"type":"VEC3"},{"bufferView":0,"byteOffset":6720,"componentType":5126,"count":31,"max":[0.001,0.0,0.0],"min":[0.0,0.0,-0.001],"type":"VEC3"},{"bufferView":1,"byteOffset":0,"componentType":5126,"count":31,"type":"VEC3"},{"bufferView":1,"byteOffset":372,"componentType":5126,"count":31,"type":"VEC3"},{"bufferView":1,"byteOffset":744,"componentType":5126,"count":498,"type":"VEC3"},{"bufferView":1,"byteOffset":6720,"componentType":5126,"count":31,"type":"VEC3"},{"bufferView":2,"byteOffset":0,"componentType":5123,"count":87,"type":"SCALAR"},{"bufferView":2,"byteOffset":176,"componentType":5123,"count":87,"type":"SCALAR"},{"bufferView":2,"byteOffset":352,"componentType":5123,"count":2718,"type":"SCALAR"},{"bufferView":2,"byteOffset":5788,"componentType":5123,"count":87,"type":"SCALAR"}],"asset":{"generator":"Open CASCADE Technology 7.8 [dev.opencascade.org]","version":"2.0"},"bufferViews":[{"buffer":0,"byteLength":7092,"byteOffset":0,"byteStride":12,"target":34962},{"buffer":0,"byteLength":7092,"byteOffset":7092,"byteStride":12,"target":34962},{"buffer":0,"byteLength":5964,"byteOffset":14184,"target":34963}],"buffers":[{"byteLength":20148,"uri":"3b-farkli-renk.bin"}],"materials":[{"name":"mat_0","pbrMetallicRoughness":{"baseColorFactor":[1.0,1.0,0.0,1.0]},"doubleSided":true}],"meshes":[{"name":"Open CASCADE STEP translator 7.8 3","primitives":[{"attributes":{"NORMAL":4,"POSITION":0},"indices":8,"material":0,"mode":4},{"attributes":{"NORMAL":5,"POSITION":1},"indices":9,"material":0,"mode":4},{"attributes":{"NORMAL":6,"POSITION":2},"indices":10,"material":0,"mode":4},{"attributes":{"NORMAL":7,"POSITION":3},"indices":11,"material":0,"mode":4}]}],"nodes":[{"mesh":0,"name":"Open CASCADE STEP translator 7.8 3"}],"scene":0,"scenes":[{"nodes":[0]}]}