{"accessors":[{"bufferView":0,"byteOffset":0,"componentType":5126,"count":228,"max":[0.005,0.004,0.004999516923531905],"min":[-0.00499806778747277,-0.004,-0.004999516923531905],"type":"VEC3"},{"bufferView":0,"byteOffset":2736,"componentType":5126,"count":344,"max":[0.005,-0.004,0.004999516923531905],"min":[-0.00499806778747277,-0.005,-0.004999516923531905],"type":"VEC3"},{"bufferView":0,"byteOffset":6864,"componentType":5126,"count":344,"max":[0.005,0.005,0.004999516923531905],"min":[-0.00499806778747277,0.004,-0.004999516923531905],"type":"VEC3"},{"bufferView":0,"byteOffset":10992,"componentType":5126,"count":113,"max":[0.004,-0.005,0.003999613538825524],"min":[-0.003998454229978216,-0.005,-0.003999613538825524],"type":"VEC3"},{"bufferView":0,"byteOffset":12348,"componentType":5126,"count":113,"max":[0.004,0.005,0.003999613538825524],"min":[-0.003998454229978216,0.005,-0.003999613538825524],"type":"VEC3"},{"bufferView":1,"byteOffset":0,"componentType":5126,"count":228,"type":"VEC3"},{"bufferView":1,"byteOffset":2736,"componentType":5126,"count":344,"type":"VEC3"},{"bufferView":1,"byteOffset":6864,"componentType":5126,"count":344,"type":"VEC3"},{"bufferView":1,"byteOffset":10992,"componentType":5126,"count":113,"type":"VEC3"},{"bufferView":1,"byteOffset":12348,"componentType":5126,"count":113,"type":"VEC3"},{"bufferView":2,"byteOffset":0,"componentType":5123,"count":678,"type":"SCALAR"},{"bufferView":2,"byteOffset":1356,"componentType":5123,"count":1362,"type":"SCALAR"},{"bufferView":2,"byteOffset":4080,"componentType":5123,"count":1362,"type":"SCALAR"},{"bufferView":2,"byteOffset":6804,"componentType":5123,"count":333,"type":"SCALAR"},{"bufferView":2,"byteOffset":7472,"componentType":5123,"count":333,"type":"SCALAR"}],"asset":{"generator":"Open CASCADE Technology 7.8 [dev.opencascade.org]","version":"2.0"},"bufferViews":[{"buffer":0,"byteLength":13704,"byteOffset":0,"byteStride":12,"target":34962},{"buffer":0,"byteLength":13704,"byteOffset":13704,"byteStride":12,"target":34962},{"buffer":0,"byteLength":8140,"byteOffset":27408,"target":34963}],"buffers":[{"byteLength":35548,"uri":"attr_circular_kenar_pah.bin"}],"materials":[{"name":"mat_0","pbrMetallicRoughness":{"baseColorFactor":[0.0,0.5225215554237366,1.0,1.0]},"doubleSided":true}],"meshes":[{"name":"Gövde","primitives":[{"attributes":{"NORMAL":5,"POSITION":0},"indices":10,"material":0,"mode":4},{"attributes":{"NORMAL":6,"POSITION":1},"indices":11,"material":0,"mode":4},{"attributes":{"NORMAL":7,"POSITION":2},"indices":12,"material":0,"mode":4},{"attributes":{"NORMAL":8,"POSITION":3},"indices":13,"material":0,"mode":4},{"attributes":{"NORMAL":9,"POSITION":4},"indices":14,"material":0,"mode":4}]}],"nodes":[{"mesh":0,"name":"Gövde"}],"scene":0,"scenes":[{"nodes":[0]}]}