{"accessors":[{"bufferView":0,"byteOffset":0,"componentType":5126,"count":172,"max":[0.0211875,0.003,0.029998934554435478],"min":[-0.029988486658590854,0.0,-0.029998934554435527],"type":"VEC3"},{"bufferView":0,"byteOffset":2064,"componentType":5126,"count":162,"max":[0.0211875,0.0,0.029998934554435478],"min":[-0.029988486658590854,0.0,-0.029998934554435527],"type":"VEC3"},{"bufferView":0,"byteOffset":4008,"componentType":5126,"count":156,"max":[0.0211875,0.003,0.024999861381247348],"min":[-0.01699046738802511,0.0,-0.024999861381247362],"type":"VEC3"},{"bufferView":0,"byteOffset":5880,"componentType":5126,"count":162,"max":[0.0211875,0.003,0.029998934554435478],"min":[-0.029988486658590854,0.003,-0.029998934554435527],"type":"VEC3"},{"bufferView":0,"byteOffset":7824,"componentType":5126,"count":4,"max":[0.031407910185362,0.003,-0.003118522834659],"min":[0.028411033250911998,0.0,-0.008889195065356001],"type":"VEC3"},{"bufferView":0,"byteOffset":7872,"componentType":5126,"count":4,"max":[0.028411033250911998,0.003,-0.003118522834659],"min":[0.021980941282305,0.0,-0.004085914497656],"type":"VEC3"},{"bufferView":0,"byteOffset":7920,"componentType":5126,"count":4,"max":[0.026543090807917002,0.003,0.000547520627641],"min":[0.021980941282305,0.0,-0.004085914497656],"type":"VEC3"},{"bufferView":0,"byteOffset":7968,"componentType":5126,"count":4,"max":[0.026543090807917002,0.003,0.006363961030679001],"min":[0.023636038969321,0.0,0.000547520627641],"type":"VEC3"},{"bufferView":0,"byteOffset":8016,"componentType":5126,"count":4,"max":[0.029452479372359,0.003,0.006363961030679001],"min":[0.023636038969321,0.0,0.0034569091920830003],"type":"VEC3"},{"bufferView":0,"byteOffset":8064,"componentType":5126,"count":4,"max":[0.034085914497656,0.003,0.008019058717695],"min":[0.029452479372359,0.0,0.0034569091920830003],"type":"VEC3"},{"bufferView":0,"byteOffset":8112,"componentType":5126,"count":4,"max":[0.034085914497656,0.003,0.008019058717695],"min":[0.033118522834659,0.0,0.001588966749088],"type":"VEC3"},{"bufferView":0,"byteOffset":8160,"componentType":5126,"count":4,"max":[0.038889195065356,0.003,0.001588966749088],"min":[0.033118522834659,0.0,-0.001407910185362],"type":"VEC3"},{"bufferView":0,"byteOffset":8208,"componentType":5126,"count":4,"max":[0.038889195065356,0.003,-0.001407910185362],"min":[0.032474873734153004,0.0,-0.002474873734153],"type":"VEC3"},{"bufferView":0,"byteOffset":8256,"componentType":5126,"count":4,"max":[0.032474873734153004,0.003,-0.002474873734153],"min":[0.031407910185362,0.0,-0.008889195065356001],"type":"VEC3"},{"bufferView":0,"byteOffset":8304,"componentType":5126,"count":10,"max":[0.038889195065356,0.0,0.008019058717695],"min":[0.021980941282305,0.0,-0.008889195065356001],"type":"VEC3"},{"bufferView":0,"byteOffset":8424,"componentType":5126,"count":10,"max":[0.038889195065356,0.003,0.008019058717695],"min":[0.021980941282305,0.003,-0.008889195065356001],"type":"VEC3"},{"bufferView":1,"byteOffset":0,"componentType":5126,"count":172,"type":"VEC3"},{"bufferView":1,"byteOffset":2064,"componentType":5126,"count":162,"type":"VEC3"},{"bufferView":1,"byteOffset":4008,"componentType":5126,"count":156,"type":"VEC3"},{"bufferView":1,"byteOffset":5880,"componentType":5126,"count":162,"type":"VEC3"},{"bufferView":1,"byteOffset":7824,"componentType":5126,"count":4,"type":"VEC3"},{"bufferView":1,"byteOffset":7872,"componentType":5126,"count":4,"type":"VEC3"},{"bufferView":1,"byteOffset":7920,"componentType":5126,"count":4,"type":"VEC3"},{"bufferView":1,"byteOffset":7968,"componentType":5126,"count":4,"type":"VEC3"},{"bufferView":1,"byteOffset":8016,"componentType":5126,"count":4,"type":"VEC3"},{"bufferView":1,"byteOffset":8064,"componentType":5126,"count":4,"type":"VEC3"},{"bufferView":1,"byteOffset":8112,"componentType":5126,"count":4,"type":"VEC3"},{"bufferView":1,"byteOffset":8160,"componentType":5126,"count":4,"type":"VEC3"},{"bufferView":1,"byteOffset":8208,"componentType":5126,"count":4,"type":"VEC3"},{"bufferView":1,"byteOffset":8256,"componentType":5126,"count":4,"type":"VEC3"},{"bufferView":1,"byteOffset":8304,"componentType":5126,"count":10,"type":"VEC3"},{"bufferView":1,"byteOffset":8424,"componentType":5126,"count":10,"type":"VEC3"},{"bufferView":2,"byteOffset":0,"componentType":5123,"count":510,"type":"SCALAR"},{"bufferView":2,"byteOffset":1020,"componentType":5123,"count":480,"type":"SCALAR"},{"bufferView":2,"byteOffset":1980,"componentType":5123,"count":462,"type":"SCALAR"},{"bufferView":2,"byteOffset":2904,"componentType":5123,"count":480,"type":"SCALAR"},{"bufferView":2,"byteOffset":3864,"componentType":5123,"count":6,"type":"SCALAR"},{"bufferView":2,"byteOffset":3876,"componentType":5123,"count":6,"type":"SCALAR"},{"bufferView":2,"byteOffset":3888,"componentType":5123,"count":6,"type":"SCALAR"},{"bufferView":2,"byteOffset":3900,"componentType":5123,"count":6,"type":"SCALAR"},{"bufferView":2,"byteOffset":3912,"componentType":5123,"count":6,"type":"SCALAR"},{"bufferView":2,"byteOffset":3924,"componentType":5123,"count":6,"type":"SCALAR"},{"bufferView":2,"byteOffset":3936,"componentType":5123,"count":6,"type":"SCALAR"},{"bufferView":2,"byteOffset":3948,"componentType":5123,"count":6,"type":"SCALAR"},{"bufferView":2,"byteOffset":3960,"componentType":5123,"count":6,"type":"SCALAR"},{"bufferView":2,"byteOffset":3972,"componentType":5123,"count":6,"type":"SCALAR"},{"bufferView":2,"byteOffset":3984,"componentType":5123,"count":24,"type":"SCALAR"},{"bufferView":2,"byteOffset":4032,"componentType":5123,"count":24,"type":"SCALAR"}],"asset":{"generator":"Open CASCADE Technology 7.8 [dev.opencascade.org]","version":"2.0"},"bufferViews":[{"buffer":0,"byteLength":8544,"byteOffset":0,"byteStride":12,"target":34962},{"buffer":0,"byteLength":8544,"byteOffset":8544,"byteStride":12,"target":34962},{"buffer":0,"byteLength":4080,"byteOffset":17088,"target":34963}],"buffers":[{"byteLength":21168,"uri":"ay_yildiz.bin"}],"materials":[{"name":"mat_0","pbrMetallicRoughness":{"baseColorFactor":[1.0,1.0,1.0,1.0]},"doubleSided":true}],"meshes":[{"name":"Open CASCADE STEP translator 7.8 70.1","primitives":[{"attributes":{"NORMAL":16,"POSITION":0},"indices":32,"material":0,"mode":4},{"attributes":{"NORMAL":17,"POSITION":1},"indices":33,"material":0,"mode":4},{"attributes":{"NORMAL":18,"POSITION":2},"indices":34,"material":0,"mode":4},{"attributes":{"NORMAL":19,"POSITION":3},"indices":35,"material":0,"mode":4}]},{"name":"Open CASCADE STEP translator 7.8 70.2","primitives":[{"attributes":{"NORMAL":20,"POSITION":4},"indices":36,"material":0,"mode":4},{"attributes":{"NORMAL":21,"POSITION":5},"indices":37,"material":0,"mode":4},{"attributes":{"NORMAL":22,"POSITION":6},"indices":38,"material":0,"mode":4},{"attributes":{"NORMAL":23,"POSITION":7},"indices":39,"material":0,"mode":4},{"attributes":{"NORMAL":24,"POSITION":8},"indices":40,"material":0,"mode":4},{"attributes":{"NORMAL":25,"POSITION":9},"indices":41,"material":0,"mode":4},{"attributes":{"NORMAL":26,"POSITION":10},"indices":42,"material":0,"mode":4},{"attributes":{"NORMAL":27,"POSITION":11},"indices":43,"material":0,"mode":4},{"attributes":{"NORMAL":28,"POSITION":12},"indices":44,"material":0,"mode":4},{"attributes":{"NORMAL":29,"POSITION":13},"indices":45,"material":0,"mode":4},{"attributes":{"NORMAL":30,"POSITION":14},"indices":46,"material":0,"mode":4},{"attributes":{"NORMAL":31,"POSITION":15},"indices":47,"material":0,"mode":4}]}],"nodes":[{"children":[1,2],"name":"Unnamed12"},{"mesh":0,"name":"Open CASCADE STEP translator 7.8 70.1"},{"mesh":1,"name":"Open CASCADE STEP translator 7.8 70.2"}],"scene":0,"scenes":[{"nodes":[0]}]}