{"accessors":[{"bufferView":0,"byteOffset":0,"componentType":5126,"count":4,"max":[-0.02,0.007,0.02],"min":[-0.02,-0.008,-0.02],"type":"VEC3"},{"bufferView":0,"byteOffset":48,"componentType":5126,"count":4,"max":[0.02,0.007,0.02],"min":[-0.02,-0.008,0.02],"type":"VEC3"},{"bufferView":0,"byteOffset":96,"componentType":5126,"count":4,"max":[-0.018000000000000002,-0.008,0.02],"min":[-0.02,-0.01,-0.02],"type":"VEC3"},{"bufferView":0,"byteOffset":144,"componentType":5126,"count":86,"max":[-0.017,0.01,0.02],"min":[-0.02,0.007,-0.02],"type":"VEC3"},{"bufferView":0,"byteOffset":1176,"componentType":5126,"count":4,"max":[0.02,0.007,-0.02],"min":[-0.02,-0.008,-0.02],"type":"VEC3"},{"bufferView":0,"byteOffset":1224,"componentType":5126,"count":4,"max":[0.02,0.007,0.02],"min":[0.02,-0.008,-0.02],"type":"VEC3"},{"bufferView":0,"byteOffset":1272,"componentType":5126,"count":4,"max":[0.02,-0.008,0.02],"min":[-0.02,-0.01,0.018000000000000002],"type":"VEC3"},{"bufferView":0,"byteOffset":1320,"componentType":5126,"count":86,"max":[0.02,0.01,0.02],"min":[-0.02,0.007,0.017],"type":"VEC3"},{"bufferView":0,"byteOffset":2352,"componentType":5126,"count":4,"max":[0.018000000000000002,-0.01,0.018000000000000002],"min":[-0.018000000000000002,-0.01,-0.018000000000000002],"type":"VEC3"},{"bufferView":0,"byteOffset":2400,"componentType":5126,"count":4,"max":[0.02,-0.008,-0.018000000000000002],"min":[-0.02,-0.01,-0.02],"type":"VEC3"},{"bufferView":0,"byteOffset":2448,"componentType":5126,"count":4,"max":[0.017,0.01,0.017],"min":[-0.017,0.01,-0.017],"type":"VEC3"},{"bufferView":0,"byteOffset":2496,"componentType":5126,"count":86,"max":[0.02,0.01,-0.017],"min":[-0.02,0.007,-0.02],"type":"VEC3"},{"bufferView":0,"byteOffset":3528,"componentType":5126,"count":4,"max":[0.02,-0.008,0.02],"min":[0.018000000000000002,-0.01,-0.02],"type":"VEC3"},{"bufferView":0,"byteOffset":3576,"componentType":5126,"count":86,"max":[0.02,0.01,0.02],"min":[0.017,0.007,-0.02],"type":"VEC3"},{"bufferView":1,"byteOffset":0,"componentType":5126,"count":4,"type":"VEC3"},{"bufferView":1,"byteOffset":48,"componentType":5126,"count":4,"type":"VEC3"},{"bufferView":1,"byteOffset":96,"componentType":5126,"count":4,"type":"VEC3"},{"bufferView":1,"byteOffset":144,"componentType":5126,"count":86,"type":"VEC3"},{"bufferView":1,"byteOffset":1176,"componentType":5126,"count":4,"type":"VEC3"},{"bufferView":1,"byteOffset":1224,"componentType":5126,"count":4,"type":"VEC3"},{"bufferView":1,"byteOffset":1272,"componentType":5126,"count":4,"type":"VEC3"},{"bufferView":1,"byteOffset":1320,"componentType":5126,"count":86,"type":"VEC3"},{"bufferView":1,"byteOffset":2352,"componentType":5126,"count":4,"type":"VEC3"},{"bufferView":1,"byteOffset":2400,"componentType":5126,"count":4,"type":"VEC3"},{"bufferView":1,"byteOffset":2448,"componentType":5126,"count":4,"type":"VEC3"},{"bufferView":1,"byteOffset":2496,"componentType":5126,"count":86,"type":"VEC3"},{"bufferView":1,"byteOffset":3528,"componentType":5126,"count":4,"type":"VEC3"},{"bufferView":1,"byteOffset":3576,"componentType":5126,"count":86,"type":"VEC3"},{"bufferView":2,"byteOffset":0,"componentType":5123,"count":6,"type":"SCALAR"},{"bufferView":2,"byteOffset":12,"componentType":5123,"count":6,"type":"SCALAR"},{"bufferView":2,"byteOffset":24,"componentType":5123,"count":6,"type":"SCALAR"},{"bufferView":2,"byteOffset":36,"componentType":5123,"count":252,"type":"SCALAR"},{"bufferView":2,"byteOffset":540,"componentType":5123,"count":6,"type":"SCALAR"},{"bufferView":2,"byteOffset":552,"componentType":5123,"count":6,"type":"SCALAR"},{"bufferView":2,"byteOffset":564,"componentType":5123,"count":6,"type":"SCALAR"},{"bufferView":2,"byteOffset":576,"componentType":5123,"count":252,"type":"SCALAR"},{"bufferView":2,"byteOffset":1080,"componentType":5123,"count":6,"type":"SCALAR"},{"bufferView":2,"byteOffset":1092,"componentType":5123,"count":6,"type":"SCALAR"},{"bufferView":2,"byteOffset":1104,"componentType":5123,"count":6,"type":"SCALAR"},{"bufferView":2,"byteOffset":1116,"componentType":5123,"count":252,"type":"SCALAR"},{"bufferView":2,"byteOffset":1620,"componentType":5123,"count":6,"type":"SCALAR"},{"bufferView":2,"byteOffset":1632,"componentType":5123,"count":252,"type":"SCALAR"}],"asset":{"generator":"Open CASCADE Technology 7.8 [dev.opencascade.org]","version":"2.0"},"bufferViews":[{"buffer":0,"byteLength":4608,"byteOffset":0,"byteStride":12,"target":34962},{"buffer":0,"byteLength":4608,"byteOffset":4608,"byteStride":12,"target":34962},{"buffer":0,"byteLength":2136,"byteOffset":9216,"target":34963}],"buffers":[{"byteLength":11352,"uri":"chamfer_and_fillet.bin"}],"materials":[{"name":"mat_0","pbrMetallicRoughness":{"baseColorFactor":[0.0,0.5225215554237366,1.0,1.0]},"doubleSided":true}],"meshes":[{"name":"Gövde","primitives":[{"attributes":{"NORMAL":14,"POSITION":0},"indices":28,"material":0,"mode":4},{"attributes":{"NORMAL":15,"POSITION":1},"indices":29,"material":0,"mode":4},{"attributes":{"NORMAL":16,"POSITION":2},"indices":30,"material":0,"mode":4},{"attributes":{"NORMAL":17,"POSITION":3},"indices":31,"material":0,"mode":4},{"attributes":{"NORMAL":18,"POSITION":4},"indices":32,"material":0,"mode":4},{"attributes":{"NORMAL":19,"POSITION":5},"indices":33,"material":0,"mode":4},{"attributes":{"NORMAL":20,"POSITION":6},"indices":34,"material":0,"mode":4},{"attributes":{"NORMAL":21,"POSITION":7},"indices":35,"material":0,"mode":4},{"attributes":{"NORMAL":22,"POSITION":8},"indices":36,"material":0,"mode":4},{"attributes":{"NORMAL":23,"POSITION":9},"indices":37,"material":0,"mode":4},{"attributes":{"NORMAL":24,"POSITION":10},"indices":38,"material":0,"mode":4},{"attributes":{"NORMAL":25,"POSITION":11},"indices":39,"material":0,"mode":4},{"attributes":{"NORMAL":26,"POSITION":12},"indices":40,"material":0,"mode":4},{"attributes":{"NORMAL":27,"POSITION":13},"indices":41,"material":0,"mode":4}]}],"nodes":[{"mesh":0,"name":"Gövde"}],"scene":0,"scenes":[{"nodes":[0]}]}