{"accessors":[{"bufferView":0,"byteOffset":0,"componentType":5126,"count":228,"max":[-0.015,0.005,0.024999516923531907],"min":[-0.02499806778747277,0.0,0.015000483076468096],"type":"VEC3"},{"bufferView":0,"byteOffset":2736,"componentType":5126,"count":113,"max":[-0.015,0.0,0.024999516923531907],"min":[-0.02499806778747277,0.0,0.015000483076468096],"type":"VEC3"},{"bufferView":0,"byteOffset":4092,"componentType":5126,"count":113,"max":[-0.015,0.005,0.024999516923531907],"min":[-0.02499806778747277,0.005,0.015000483076468096],"type":"VEC3"},{"bufferView":0,"byteOffset":5448,"componentType":5126,"count":228,"max":[-0.015,0.005,0.004999516923531905],"min":[-0.02499806778747277,0.0,-0.004999516923531905],"type":"VEC3"},{"bufferView":0,"byteOffset":8184,"componentType":5126,"count":113,"max":[-0.015,0.0,0.004999516923531905],"min":[-0.02499806778747277,0.0,-0.004999516923531905],"type":"VEC3"},{"bufferView":0,"byteOffset":9540,"componentType":5126,"count":113,"max":[-0.015,0.005,0.004999516923531905],"min":[-0.02499806778747277,0.005,-0.004999516923531905],"type":"VEC3"},{"bufferView":0,"byteOffset":10896,"componentType":5126,"count":228,"max":[-0.015,0.005,-0.015000483076468096],"min":[-0.02499806778747277,0.0,-0.024999516923531907],"type":"VEC3"},{"bufferView":0,"byteOffset":13632,"componentType":5126,"count":113,"max":[-0.015,0.0,-0.015000483076468096],"min":[-0.02499806778747277,0.0,-0.024999516923531907],"type":"VEC3"},{"bufferView":0,"byteOffset":14988,"componentType":5126,"count":113,"max":[-0.015,0.005,-0.015000483076468096],"min":[-0.02499806778747277,0.005,-0.024999516923531907],"type":"VEC3"},{"bufferView":0,"byteOffset":16344,"componentType":5126,"count":228,"max":[0.005,0.005,0.024999516923531907],"min":[-0.00499806778747277,0.0,0.015000483076468096],"type":"VEC3"},{"bufferView":0,"byteOffset":19080,"componentType":5126,"count":113,"max":[0.005,0.0,0.024999516923531907],"min":[-0.00499806778747277,0.0,0.015000483076468096],"type":"VEC3"},{"bufferView":0,"byteOffset":20436,"componentType":5126,"count":113,"max":[0.005,0.005,0.024999516923531907],"min":[-0.00499806778747277,0.005,0.015000483076468096],"type":"VEC3"},{"bufferView":0,"byteOffset":21792,"componentType":5126,"count":228,"max":[0.005,0.005,0.004999516923531905],"min":[-0.00499806778747277,0.0,-0.004999516923531905],"type":"VEC3"},{"bufferView":0,"byteOffset":24528,"componentType":5126,"count":113,"max":[0.005,0.0,0.004999516923531905],"min":[-0.00499806778747277,0.0,-0.004999516923531905],"type":"VEC3"},{"bufferView":0,"byteOffset":25884,"componentType":5126,"count":113,"max":[0.005,0.005,0.004999516923531905],"min":[-0.00499806778747277,0.005,-0.004999516923531905],"type":"VEC3"},{"bufferView":0,"byteOffset":27240,"componentType":5126,"count":228,"max":[0.005,0.005,-0.015000483076468096],"min":[-0.00499806778747277,0.0,-0.024999516923531907],"type":"VEC3"},{"bufferView":0,"byteOffset":29976,"componentType":5126,"count":113,"max":[0.005,0.0,-0.015000483076468096],"min":[-0.00499806778747277,0.0,-0.024999516923531907],"type":"VEC3"},{"bufferView":0,"byteOffset":31332,"componentType":5126,"count":113,"max":[0.005,0.005,-0.015000483076468096],"min":[-0.00499806778747277,0.005,-0.024999516923531907],"type":"VEC3"},{"bufferView":0,"byteOffset":32688,"componentType":5126,"count":228,"max":[0.025,0.005,0.024999516923531907],"min":[0.01500193221252723,0.0,0.015000483076468096],"type":"VEC3"},{"bufferView":0,"byteOffset":35424,"componentType":5126,"count":113,"max":[0.025,0.0,0.024999516923531907],"min":[0.01500193221252723,0.0,0.015000483076468096],"type":"VEC3"},{"bufferView":0,"byteOffset":36780,"componentType":5126,"count":113,"max":[0.025,0.005,0.024999516923531907],"min":[0.01500193221252723,0.005,0.015000483076468096],"type":"VEC3"},{"bufferView":0,"byteOffset":38136,"componentType":5126,"count":228,"max":[0.025,0.005,0.004999516923531905],"min":[0.01500193221252723,0.0,-0.004999516923531905],"type":"VEC3"},{"bufferView":0,"byteOffset":40872,"componentType":5126,"count":113,"max":[0.025,0.0,0.004999516923531905],"min":[0.01500193221252723,0.0,-0.004999516923531905],"type":"VEC3"},{"bufferView":0,"byteOffset":42228,"componentType":5126,"count":113,"max":[0.025,0.005,0.004999516923531905],"min":[0.01500193221252723,0.005,-0.004999516923531905],"type":"VEC3"},{"bufferView":0,"byteOffset":43584,"componentType":5126,"count":228,"max":[0.025,0.005,-0.015000483076468096],"min":[0.01500193221252723,0.0,-0.024999516923531907],"type":"VEC3"},{"bufferView":0,"byteOffset":46320,"componentType":5126,"count":113,"max":[0.025,0.0,-0.015000483076468096],"min":[0.01500193221252723,0.0,-0.024999516923531907],"type":"VEC3"},{"bufferView":0,"byteOffset":47676,"componentType":5126,"count":113,"max":[0.025,0.005,-0.015000483076468096],"min":[0.01500193221252723,0.005,-0.024999516923531907],"type":"VEC3"},{"bufferView":1,"byteOffset":0,"componentType":5126,"count":228,"type":"VEC3"},{"bufferView":1,"byteOffset":2736,"componentType":5126,"count":113,"type":"VEC3"},{"bufferView":1,"byteOffset":4092,"componentType":5126,"count":113,"type":"VEC3"},{"bufferView":1,"byteOffset":5448,"componentType":5126,"count":228,"type":"VEC3"},{"bufferView":1,"byteOffset":8184,"componentType":5126,"count":113,"type":"VEC3"},{"bufferView":1,"byteOffset":9540,"componentType":5126,"count":113,"type":"VEC3"},{"bufferView":1,"byteOffset":10896,"componentType":5126,"count":228,"type":"VEC3"},{"bufferView":1,"byteOffset":13632,"componentType":5126,"count":113,"type":"VEC3"},{"bufferView":1,"byteOffset":14988,"componentType":5126,"count":113,"type":"VEC3"},{"bufferView":1,"byteOffset":16344,"componentType":5126,"count":228,"type":"VEC3"},{"bufferView":1,"byteOffset":19080,"componentType":5126,"count":113,"type":"VEC3"},{"bufferView":1,"byteOffset":20436,"componentType":5126,"count":113,"type":"VEC3"},{"bufferView":1,"byteOffset":21792,"componentType":5126,"count":228,"type":"VEC3"},{"bufferView":1,"byteOffset":24528,"componentType":5126,"count":113,"type":"VEC3"},{"bufferView":1,"byteOffset":25884,"componentType":5126,"count":113,"type":"VEC3"},{"bufferView":1,"byteOffset":27240,"componentType":5126,"count":228,"type":"VEC3"},{"bufferView":1,"byteOffset":29976,"componentType":5126,"count":113,"type":"VEC3"},{"bufferView":1,"byteOffset":31332,"componentType":5126,"count":113,"type":"VEC3"},{"bufferView":1,"byteOffset":32688,"componentType":5126,"count":228,"type":"VEC3"},{"bufferView":1,"byteOffset":35424,"componentType":5126,"count":113,"type":"VEC3"},{"bufferView":1,"byteOffset":36780,"componentType":5126,"count":113,"type":"VEC3"},{"bufferView":1,"byteOffset":38136,"componentType":5126,"count":228,"type":"VEC3"},{"bufferView":1,"byteOffset":40872,"componentType":5126,"count":113,"type":"VEC3"},{"bufferView":1,"byteOffset":42228,"componentType":5126,"count":113,"type":"VEC3"},{"bufferView":1,"byteOffset":43584,"componentType":5126,"count":228,"type":"VEC3"},{"bufferView":1,"byteOffset":46320,"componentType":5126,"count":113,"type":"VEC3"},{"bufferView":1,"byteOffset":47676,"componentType":5126,"count":113,"type":"VEC3"},{"bufferView":2,"byteOffset":0,"componentType":5123,"count":678,"type":"SCALAR"},{"bufferView":2,"byteOffset":1356,"componentType":5123,"count":333,"type":"SCALAR"},{"bufferView":2,"byteOffset":2024,"componentType":5123,"count":333,"type":"SCALAR"},{"bufferView":2,"byteOffset":2692,"componentType":5123,"count":678,"type":"SCALAR"},{"bufferView":2,"byteOffset":4048,"componentType":5123,"count":333,"type":"SCALAR"},{"bufferView":2,"byteOffset":4716,"componentType":5123,"count":333,"type":"SCALAR"},{"bufferView":2,"byteOffset":5384,"componentType":5123,"count":678,"type":"SCALAR"},{"bufferView":2,"byteOffset":6740,"componentType":5123,"count":333,"type":"SCALAR"},{"bufferView":2,"byteOffset":7408,"componentType":5123,"count":333,"type":"SCALAR"},{"bufferView":2,"byteOffset":8076,"componentType":5123,"count":678,"type":"SCALAR"},{"bufferView":2,"byteOffset":9432,"componentType":5123,"count":333,"type":"SCALAR"},{"bufferView":2,"byteOffset":10100,"componentType":5123,"count":333,"type":"SCALAR"},{"bufferView":2,"byteOffset":10768,"componentType":5123,"count":678,"type":"SCALAR"},{"bufferView":2,"byteOffset":12124,"componentType":5123,"count":333,"type":"SCALAR"},{"bufferView":2,"byteOffset":12792,"componentType":5123,"count":333,"type":"SCALAR"},{"bufferView":2,"byteOffset":13460,"componentType":5123,"count":678,"type":"SCALAR"},{"bufferView":2,"byteOffset":14816,"componentType":5123,"count":333,"type":"SCALAR"},{"bufferView":2,"byteOffset":15484,"componentType":5123,"count":333,"type":"SCALAR"},{"bufferView":2,"byteOffset":16152,"componentType":5123,"count":678,"type":"SCALAR"},{"bufferView":2,"byteOffset":17508,"componentType":5123,"count":333,"type":"SCALAR"},{"bufferView":2,"byteOffset":18176,"componentType":5123,"count":333,"type":"SCALAR"},{"bufferView":2,"byteOffset":18844,"componentType":5123,"count":678,"type":"SCALAR"},{"bufferView":2,"byteOffset":20200,"componentType":5123,"count":333,"type":"SCALAR"},{"bufferView":2,"byteOffset":20868,"componentType":5123,"count":333,"type":"SCALAR"},{"bufferView":2,"byteOffset":21536,"componentType":5123,"count":678,"type":"SCALAR"},{"bufferView":2,"byteOffset":22892,"componentType":5123,"count":333,"type":"SCALAR"},{"bufferView":2,"byteOffset":23560,"componentType":5123,"count":333,"type":"SCALAR"}],"asset":{"generator":"Open CASCADE Technology 7.8 [dev.opencascade.org]","version":"2.0"},"bufferViews":[{"buffer":0,"byteLength":49032,"byteOffset":0,"byteStride":12,"target":34962},{"buffer":0,"byteLength":49032,"byteOffset":49032,"byteStride":12,"target":34962},{"buffer":0,"byteLength":24228,"byteOffset":98064,"target":34963}],"buffers":[{"byteLength":122292,"uri":"coklu_daire.bin"}],"materials":[{"name":"mat_0","pbrMetallicRoughness":{"baseColorFactor":[0.0,0.5225215554237366,1.0,1.0]},"doubleSided":true}],"meshes":[{"name":"Open CASCADE STEP translator 7.8 9.1","primitives":[{"attributes":{"NORMAL":27,"POSITION":0},"indices":54,"material":0,"mode":4},{"attributes":{"NORMAL":28,"POSITION":1},"indices":55,"material":0,"mode":4},{"attributes":{"NORMAL":29,"POSITION":2},"indices":56,"material":0,"mode":4}]},{"name":"Open CASCADE STEP translator 7.8 9.2","primitives":[{"attributes":{"NORMAL":30,"POSITION":3},"indices":57,"material":0,"mode":4},{"attributes":{"NORMAL":31,"POSITION":4},"indices":58,"material":0,"mode":4},{"attributes":{"NORMAL":32,"POSITION":5},"indices":59,"material":0,"mode":4}]},{"name":"Open CASCADE STEP translator 7.8 9.3","primitives":[{"attributes":{"NORMAL":33,"POSITION":6},"indices":60,"material":0,"mode":4},{"attributes":{"NORMAL":34,"POSITION":7},"indices":61,"material":0,"mode":4},{"attributes":{"NORMAL":35,"POSITION":8},"indices":62,"material":0,"mode":4}]},{"name":"Open CASCADE STEP translator 7.8 9.4","primitives":[{"attributes":{"NORMAL":36,"POSITION":9},"indices":63,"material":0,"mode":4},{"attributes":{"NORMAL":37,"POSITION":10},"indices":64,"material":0,"mode":4},{"attributes":{"NORMAL":38,"POSITION":11},"indices":65,"material":0,"mode":4}]},{"name":"Open CASCADE STEP translator 7.8 9.5","primitives":[{"attributes":{"NORMAL":39,"POSITION":12},"indices":66,"material":0,"mode":4},{"attributes":{"NORMAL":40,"POSITION":13},"indices":67,"material":0,"mode":4},{"attributes":{"NORMAL":41,"POSITION":14},"indices":68,"material":0,"mode":4}]},{"name":"Open CASCADE STEP translator 7.8 9.6","primitives":[{"attributes":{"NORMAL":42,"POSITION":15},"indices":69,"material":0,"mode":4},{"attributes":{"NORMAL":43,"POSITION":16},"indices":70,"material":0,"mode":4},{"attributes":{"NORMAL":44,"POSITION":17},"indices":71,"material":0,"mode":4}]},{"name":"Open CASCADE STEP translator 7.8 9.7","primitives":[{"attributes":{"NORMAL":45,"POSITION":18},"indices":72,"material":0,"mode":4},{"attributes":{"NORMAL":46,"POSITION":19},"indices":73,"material":0,"mode":4},{"attributes":{"NORMAL":47,"POSITION":20},"indices":74,"material":0,"mode":4}]},{"name":"Open CASCADE STEP translator 7.8 9.8","primitives":[{"attributes":{"NORMAL":48,"POSITION":21},"indices":75,"material":0,"mode":4},{"attributes":{"NORMAL":49,"POSITION":22},"indices":76,"material":0,"mode":4},{"attributes":{"NORMAL":50,"POSITION":23},"indices":77,"material":0,"mode":4}]},{"name":"Open CASCADE STEP translator 7.8 9.9","primitives":[{"attributes":{"NORMAL":51,"POSITION":24},"indices":78,"material":0,"mode":4},{"attributes":{"NORMAL":52,"POSITION":25},"indices":79,"material":0,"mode":4},{"attributes":{"NORMAL":53,"POSITION":26},"indices":80,"material":0,"mode":4}]}],"nodes":[{"children":[1,2,3,4,5,6,7,8,9],"name":"Unnamed4"},{"mesh":0,"name":"Open CASCADE STEP translator 7.8 9.1"},{"mesh":1,"name":"Open CASCADE STEP translator 7.8 9.2"},{"mesh":2,"name":"Open CASCADE STEP translator 7.8 9.3"},{"mesh":3,"name":"Open CASCADE STEP translator 7.8 9.4"},{"mesh":4,"name":"Open CASCADE STEP translator 7.8 9.5"},{"mesh":5,"name":"Open CASCADE STEP translator 7.8 9.6"},{"mesh":6,"name":"Open CASCADE STEP translator 7.8 9.7"},{"mesh":7,"name":"Open CASCADE STEP translator 7.8 9.8"},{"mesh":8,"name":"Open CASCADE STEP translator 7.8 9.9"}],"scene":0,"scenes":[{"nodes":[0]}]}