{"accessors":[{"bufferView":0,"byteOffset":0,"componentType":5126,"count":4,"max":[0.0,0.01,0.01],"min":[-5.819083983019001e-17,-0.0100000001,0.005],"type":"VEC3"},{"bufferView":0,"byteOffset":48,"componentType":5126,"count":62,"max":[0.02,0.01,0.01],"min":[0.0,0.01,-0.01],"type":"VEC3"},{"bufferView":0,"byteOffset":792,"componentType":5126,"count":116,"max":[0.0049981015351247575,0.01,0.005],"min":[-5.819083983019001e-17,-0.010000000299848153,-0.005],"type":"VEC3"},{"bufferView":0,"byteOffset":2184,"componentType":5126,"count":62,"max":[0.02,-0.01,0.01],"min":[-5.819083983019001e-17,-0.010000000299848153,-0.01],"type":"VEC3"},{"bufferView":0,"byteOffset":2928,"componentType":5126,"count":4,"max":[0.02,0.01,0.01],"min":[0.0,-0.01,0.01],"type":"VEC3"},{"bufferView":0,"byteOffset":2976,"componentType":5126,"count":4,"max":[0.0,0.01,-0.005],"min":[-5.813362794293e-17,-0.0100000001,-0.01],"type":"VEC3"},{"bufferView":0,"byteOffset":3024,"componentType":5126,"count":4,"max":[0.02,0.01,-0.01],"min":[0.0,-0.01,-0.01],"type":"VEC3"},{"bufferView":0,"byteOffset":3072,"componentType":5126,"count":4,"max":[0.02,0.01,0.01],"min":[0.02,-0.01,-0.01],"type":"VEC3"},{"bufferView":1,"byteOffset":0,"componentType":5126,"count":4,"type":"VEC3"},{"bufferView":1,"byteOffset":48,"componentType":5126,"count":62,"type":"VEC3"},{"bufferView":1,"byteOffset":792,"componentType":5126,"count":116,"type":"VEC3"},{"bufferView":1,"byteOffset":2184,"componentType":5126,"count":62,"type":"VEC3"},{"bufferView":1,"byteOffset":2928,"componentType":5126,"count":4,"type":"VEC3"},{"bufferView":1,"byteOffset":2976,"componentType":5126,"count":4,"type":"VEC3"},{"bufferView":1,"byteOffset":3024,"componentType":5126,"count":4,"type":"VEC3"},{"bufferView":1,"byteOffset":3072,"componentType":5126,"count":4,"type":"VEC3"},{"bufferView":2,"byteOffset":0,"componentType":5123,"count":6,"type":"SCALAR"},{"bufferView":2,"byteOffset":12,"componentType":5123,"count":180,"type":"SCALAR"},{"bufferView":2,"byteOffset":372,"componentType":5123,"count":342,"type":"SCALAR"},{"bufferView":2,"byteOffset":1056,"componentType":5123,"count":180,"type":"SCALAR"},{"bufferView":2,"byteOffset":1416,"componentType":5123,"count":6,"type":"SCALAR"},{"bufferView":2,"byteOffset":1428,"componentType":5123,"count":6,"type":"SCALAR"},{"bufferView":2,"byteOffset":1440,"componentType":5123,"count":6,"type":"SCALAR"},{"bufferView":2,"byteOffset":1452,"componentType":5123,"count":6,"type":"SCALAR"}],"asset":{"generator":"Open CASCADE Technology 7.8 [dev.opencascade.org]","version":"2.0"},"bufferViews":[{"buffer":0,"byteLength":3120,"byteOffset":0,"byteStride":12,"target":34962},{"buffer":0,"byteLength":3120,"byteOffset":3120,"byteStride":12,"target":34962},{"buffer":0,"byteLength":1464,"byteOffset":6240,"target":34963}],"buffers":[{"byteLength":7704,"uri":"cut_and_cutThruAll_2.bin"}],"materials":[{"name":"mat_0","pbrMetallicRoughness":{"baseColorFactor":[0.0,0.5225215554237366,1.0,1.0]},"doubleSided":true}],"meshes":[{"name":"Gövde","primitives":[{"attributes":{"NORMAL":8,"POSITION":0},"indices":16,"material":0,"mode":4},{"attributes":{"NORMAL":9,"POSITION":1},"indices":17,"material":0,"mode":4},{"attributes":{"NORMAL":10,"POSITION":2},"indices":18,"material":0,"mode":4},{"attributes":{"NORMAL":11,"POSITION":3},"indices":19,"material":0,"mode":4},{"attributes":{"NORMAL":12,"POSITION":4},"indices":20,"material":0,"mode":4},{"attributes":{"NORMAL":13,"POSITION":5},"indices":21,"material":0,"mode":4},{"attributes":{"NORMAL":14,"POSITION":6},"indices":22,"material":0,"mode":4},{"attributes":{"NORMAL":15,"POSITION":7},"indices":23,"material":0,"mode":4}]}],"nodes":[{"mesh":0,"name":"Gövde"}],"scene":0,"scenes":[{"nodes":[0]}]}