{"accessors":[{"bufferView":0,"byteOffset":0,"componentType":5126,"count":4,"max":[-0.02,0.02,0.02],"min":[-0.02,0.0,-0.02],"type":"VEC3"},{"bufferView":0,"byteOffset":48,"componentType":5126,"count":4,"max":[0.02,0.02,0.02],"min":[-0.02,0.0,0.02],"type":"VEC3"},{"bufferView":0,"byteOffset":96,"componentType":5126,"count":234,"max":[0.02,0.02,0.02],"min":[-0.02,0.02,-0.02],"type":"VEC3"},{"bufferView":0,"byteOffset":2904,"componentType":5126,"count":4,"max":[0.02,0.02,-0.02],"min":[-0.02,0.0,-0.02],"type":"VEC3"},{"bufferView":0,"byteOffset":2952,"componentType":5126,"count":117,"max":[0.02,0.0,0.02],"min":[-0.02,0.0,-0.02],"type":"VEC3"},{"bufferView":0,"byteOffset":4356,"componentType":5126,"count":4,"max":[0.02,0.02,0.02],"min":[0.02,0.0,-0.02],"type":"VEC3"},{"bufferView":0,"byteOffset":4404,"componentType":5126,"count":228,"max":[-0.005,0.02,0.004999516923531905],"min":[-0.014998067787472771,0.01,-0.004999516923531905],"type":"VEC3"},{"bufferView":0,"byteOffset":7140,"componentType":5126,"count":4,"max":[0.004,0.02,0.0125],"min":[0.004,0.005,-0.0125],"type":"VEC3"},{"bufferView":0,"byteOffset":7188,"componentType":5126,"count":4,"max":[0.004,0.02,-0.0125],"min":[-0.004,0.005,-0.0125],"type":"VEC3"},{"bufferView":0,"byteOffset":7236,"componentType":5126,"count":4,"max":[-0.004,0.02,0.0125],"min":[-0.004,0.005,-0.0125],"type":"VEC3"},{"bufferView":0,"byteOffset":7284,"componentType":5126,"count":4,"max":[0.004,0.02,0.0125],"min":[-0.004,0.005,0.0125],"type":"VEC3"},{"bufferView":0,"byteOffset":7332,"componentType":5126,"count":228,"max":[0.015516213419077,0.02,0.004999516923531907],"min":[0.005518145631604229,0.0,-0.004999516923531905],"type":"VEC3"},{"bufferView":0,"byteOffset":10068,"componentType":5126,"count":113,"max":[-0.005,0.01,0.004999516923531905],"min":[-0.014998067787472771,0.01,-0.004999516923531905],"type":"VEC3"},{"bufferView":0,"byteOffset":11424,"componentType":5126,"count":4,"max":[0.004,0.005,0.0125],"min":[-0.004,0.005,-0.0125],"type":"VEC3"},{"bufferView":1,"byteOffset":0,"componentType":5126,"count":4,"type":"VEC3"},{"bufferView":1,"byteOffset":48,"componentType":5126,"count":4,"type":"VEC3"},{"bufferView":1,"byteOffset":96,"componentType":5126,"count":234,"type":"VEC3"},{"bufferView":1,"byteOffset":2904,"componentType":5126,"count":4,"type":"VEC3"},{"bufferView":1,"byteOffset":2952,"componentType":5126,"count":117,"type":"VEC3"},{"bufferView":1,"byteOffset":4356,"componentType":5126,"count":4,"type":"VEC3"},{"bufferView":1,"byteOffset":4404,"componentType":5126,"count":228,"type":"VEC3"},{"bufferView":1,"byteOffset":7140,"componentType":5126,"count":4,"type":"VEC3"},{"bufferView":1,"byteOffset":7188,"componentType":5126,"count":4,"type":"VEC3"},{"bufferView":1,"byteOffset":7236,"componentType":5126,"count":4,"type":"VEC3"},{"bufferView":1,"byteOffset":7284,"componentType":5126,"count":4,"type":"VEC3"},{"bufferView":1,"byteOffset":7332,"componentType":5126,"count":228,"type":"VEC3"},{"bufferView":1,"byteOffset":10068,"componentType":5126,"count":113,"type":"VEC3"},{"bufferView":1,"byteOffset":11424,"componentType":5126,"count":4,"type":"VEC3"},{"bufferView":2,"byteOffset":0,"componentType":5123,"count":6,"type":"SCALAR"},{"bufferView":2,"byteOffset":12,"componentType":5123,"count":6,"type":"SCALAR"},{"bufferView":2,"byteOffset":24,"componentType":5123,"count":714,"type":"SCALAR"},{"bufferView":2,"byteOffset":1452,"componentType":5123,"count":6,"type":"SCALAR"},{"bufferView":2,"byteOffset":1464,"componentType":5123,"count":351,"type":"SCALAR"},{"bufferView":2,"byteOffset":2168,"componentType":5123,"count":6,"type":"SCALAR"},{"bufferView":2,"byteOffset":2180,"componentType":5123,"count":678,"type":"SCALAR"},{"bufferView":2,"byteOffset":3536,"componentType":5123,"count":6,"type":"SCALAR"},{"bufferView":2,"byteOffset":3548,"componentType":5123,"count":6,"type":"SCALAR"},{"bufferView":2,"byteOffset":3560,"componentType":5123,"count":6,"type":"SCALAR"},{"bufferView":2,"byteOffset":3572,"componentType":5123,"count":6,"type":"SCALAR"},{"bufferView":2,"byteOffset":3584,"componentType":5123,"count":678,"type":"SCALAR"},{"bufferView":2,"byteOffset":4940,"componentType":5123,"count":333,"type":"SCALAR"},{"bufferView":2,"byteOffset":5608,"componentType":5123,"count":6,"type":"SCALAR"}],"asset":{"generator":"Open CASCADE Technology 7.8 [dev.opencascade.org]","version":"2.0"},"bufferViews":[{"buffer":0,"byteLength":11472,"byteOffset":0,"byteStride":12,"target":34962},{"buffer":0,"byteLength":11472,"byteOffset":11472,"byteStride":12,"target":34962},{"buffer":0,"byteLength":5620,"byteOffset":22944,"target":34963}],"buffers":[{"byteLength":28564,"uri":"cut_cesitleri.bin"}],"materials":[{"name":"mat_0","pbrMetallicRoughness":{"baseColorFactor":[0.0,0.5225215554237366,1.0,1.0]},"doubleSided":true}],"meshes":[{"name":"Gövde","primitives":[{"attributes":{"NORMAL":14,"POSITION":0},"indices":28,"material":0,"mode":4},{"attributes":{"NORMAL":15,"POSITION":1},"indices":29,"material":0,"mode":4},{"attributes":{"NORMAL":16,"POSITION":2},"indices":30,"material":0,"mode":4},{"attributes":{"NORMAL":17,"POSITION":3},"indices":31,"material":0,"mode":4},{"attributes":{"NORMAL":18,"POSITION":4},"indices":32,"material":0,"mode":4},{"attributes":{"NORMAL":19,"POSITION":5},"indices":33,"material":0,"mode":4},{"attributes":{"NORMAL":20,"POSITION":6},"indices":34,"material":0,"mode":4},{"attributes":{"NORMAL":21,"POSITION":7},"indices":35,"material":0,"mode":4},{"attributes":{"NORMAL":22,"POSITION":8},"indices":36,"material":0,"mode":4},{"attributes":{"NORMAL":23,"POSITION":9},"indices":37,"material":0,"mode":4},{"attributes":{"NORMAL":24,"POSITION":10},"indices":38,"material":0,"mode":4},{"attributes":{"NORMAL":25,"POSITION":11},"indices":39,"material":0,"mode":4},{"attributes":{"NORMAL":26,"POSITION":12},"indices":40,"material":0,"mode":4},{"attributes":{"NORMAL":27,"POSITION":13},"indices":41,"material":0,"mode":4}]}],"nodes":[{"mesh":0,"name":"Gövde"}],"scene":0,"scenes":[{"nodes":[0]}]}