{"accessors":[{"bufferView":0,"byteOffset":0,"componentType":5126,"count":4,"max":[0.01,0.011,0.02],"min":[0.001788854382,0.009000000000000001,0.003577708764],"type":"VEC3"},{"bufferView":0,"byteOffset":48,"componentType":5126,"count":76,"max":[0.01,0.009000000000000001,0.021178989345315438],"min":[-1.7763568394e-18,-1.7763568394e-18,0.003577708764],"type":"VEC3"},{"bufferView":0,"byteOffset":960,"componentType":5126,"count":83,"max":[0.001788854382,0.011,0.003577708764],"min":[-0.001788854382,0.008999999999999998,0.0024721359549999995],"type":"VEC3"},{"bufferView":0,"byteOffset":1956,"componentType":5126,"count":116,"max":[0.01,0.011,0.029996203070249514],"min":[-0.01,0.009000000000000001,0.02],"type":"VEC3"},{"bufferView":0,"byteOffset":3348,"componentType":5126,"count":81,"max":[0.01,0.02,0.02117898934531538],"min":[-1.7763568394e-18,0.011,0.003577708764],"type":"VEC3"},{"bufferView":0,"byteOffset":4320,"componentType":5126,"count":917,"max":[0.0018151085001005898,0.009000000000000001,0.02012461179749],"min":[-0.0018151085001029286,-1.7763568394e-18,0.0024722634207530857],"type":"VEC3"},{"bufferView":0,"byteOffset":15324,"componentType":5126,"count":1020,"max":[0.01,0.009000000000000001,0.029996203070249514],"min":[-0.01,-1.7763568394e-18,0.02],"type":"VEC3"},{"bufferView":0,"byteOffset":27564,"componentType":5126,"count":17,"max":[0.00039667389875,0.0,0.020999630301073005],"min":[-0.00039667389875,-1.7763568394e-18,0.02012461179749],"type":"VEC3"},{"bufferView":0,"byteOffset":27768,"componentType":5126,"count":4,"max":[-0.001788854382,0.011,0.02],"min":[-0.01,0.009000000000000001,0.003577708764],"type":"VEC3"},{"bufferView":0,"byteOffset":27816,"componentType":5126,"count":890,"max":[0.0018146328830673897,0.02,0.02012461179749],"min":[-0.0018146328830684613,0.011,0.0024721359549999995],"type":"VEC3"},{"bufferView":0,"byteOffset":38496,"componentType":5126,"count":1004,"max":[0.01,0.02,0.029996203070249514],"min":[-0.01,0.011,0.02],"type":"VEC3"},{"bufferView":0,"byteOffset":50544,"componentType":5126,"count":17,"max":[0.00039667389875,0.02,0.020999630301073005],"min":[-0.00039667389875,0.02,0.02012461179749],"type":"VEC3"},{"bufferView":0,"byteOffset":50748,"componentType":5126,"count":76,"max":[-1.7763568394e-18,0.009000000000000001,0.021178989345314984],"min":[-0.01,-1.7763568394e-18,0.003577708764],"type":"VEC3"},{"bufferView":0,"byteOffset":51660,"componentType":5126,"count":81,"max":[-1.7763568394e-18,0.02,0.021178989345314463],"min":[-0.01,0.011,0.003577708764],"type":"VEC3"},{"bufferView":1,"byteOffset":0,"componentType":5126,"count":4,"type":"VEC3"},{"bufferView":1,"byteOffset":48,"componentType":5126,"count":76,"type":"VEC3"},{"bufferView":1,"byteOffset":960,"componentType":5126,"count":83,"type":"VEC3"},{"bufferView":1,"byteOffset":1956,"componentType":5126,"count":116,"type":"VEC3"},{"bufferView":1,"byteOffset":3348,"componentType":5126,"count":81,"type":"VEC3"},{"bufferView":1,"byteOffset":4320,"componentType":5126,"count":917,"type":"VEC3"},{"bufferView":1,"byteOffset":15324,"componentType":5126,"count":1020,"type":"VEC3"},{"bufferView":1,"byteOffset":27564,"componentType":5126,"count":17,"type":"VEC3"},{"bufferView":1,"byteOffset":27768,"componentType":5126,"count":4,"type":"VEC3"},{"bufferView":1,"byteOffset":27816,"componentType":5126,"count":890,"type":"VEC3"},{"bufferView":1,"byteOffset":38496,"componentType":5126,"count":1004,"type":"VEC3"},{"bufferView":1,"byteOffset":50544,"componentType":5126,"count":17,"type":"VEC3"},{"bufferView":1,"byteOffset":50748,"componentType":5126,"count":76,"type":"VEC3"},{"bufferView":1,"byteOffset":51660,"componentType":5126,"count":81,"type":"VEC3"},{"bufferView":2,"byteOffset":0,"componentType":5123,"count":6,"type":"SCALAR"},{"bufferView":2,"byteOffset":12,"componentType":5123,"count":222,"type":"SCALAR"},{"bufferView":2,"byteOffset":456,"componentType":5123,"count":243,"type":"SCALAR"},{"bufferView":2,"byteOffset":944,"componentType":5123,"count":342,"type":"SCALAR"},{"bufferView":2,"byteOffset":1628,"componentType":5123,"count":237,"type":"SCALAR"},{"bufferView":2,"byteOffset":2104,"componentType":5123,"count":5154,"type":"SCALAR"},{"bufferView":2,"byteOffset":12412,"componentType":5123,"count":5670,"type":"SCALAR"},{"bufferView":2,"byteOffset":23752,"componentType":5123,"count":45,"type":"SCALAR"},{"bufferView":2,"byteOffset":23844,"componentType":5123,"count":6,"type":"SCALAR"},{"bufferView":2,"byteOffset":23856,"componentType":5123,"count":4965,"type":"SCALAR"},{"bufferView":2,"byteOffset":33788,"componentType":5123,"count":5574,"type":"SCALAR"},{"bufferView":2,"byteOffset":44936,"componentType":5123,"count":45,"type":"SCALAR"},{"bufferView":2,"byteOffset":45028,"componentType":5123,"count":222,"type":"SCALAR"},{"bufferView":2,"byteOffset":45472,"componentType":5123,"count":237,"type":"SCALAR"}],"asset":{"generator":"Open CASCADE Technology 7.8 [dev.opencascade.org]","version":"2.0"},"bufferViews":[{"buffer":0,"byteLength":52632,"byteOffset":0,"byteStride":12,"target":34962},{"buffer":0,"byteLength":52632,"byteOffset":52632,"byteStride":12,"target":34962},{"buffer":0,"byteLength":45948,"byteOffset":105264,"target":34963}],"buffers":[{"byteLength":151212,"uri":"damla.bin"}],"materials":[{"name":"mat_0","pbrMetallicRoughness":{"baseColorFactor":[0.0,0.5225215554237366,1.0,1.0]},"doubleSided":true}],"meshes":[{"name":"Gövde","primitives":[{"attributes":{"NORMAL":14,"POSITION":0},"indices":28,"material":0,"mode":4},{"attributes":{"NORMAL":15,"POSITION":1},"indices":29,"material":0,"mode":4},{"attributes":{"NORMAL":16,"POSITION":2},"indices":30,"material":0,"mode":4},{"attributes":{"NORMAL":17,"POSITION":3},"indices":31,"material":0,"mode":4},{"attributes":{"NORMAL":18,"POSITION":4},"indices":32,"material":0,"mode":4},{"attributes":{"NORMAL":19,"POSITION":5},"indices":33,"material":0,"mode":4},{"attributes":{"NORMAL":20,"POSITION":6},"indices":34,"material":0,"mode":4},{"attributes":{"NORMAL":21,"POSITION":7},"indices":35,"material":0,"mode":4},{"attributes":{"NORMAL":22,"POSITION":8},"indices":36,"material":0,"mode":4},{"attributes":{"NORMAL":23,"POSITION":9},"indices":37,"material":0,"mode":4},{"attributes":{"NORMAL":24,"POSITION":10},"indices":38,"material":0,"mode":4},{"attributes":{"NORMAL":25,"POSITION":11},"indices":39,"material":0,"mode":4},{"attributes":{"NORMAL":26,"POSITION":12},"indices":40,"material":0,"mode":4},{"attributes":{"NORMAL":27,"POSITION":13},"indices":41,"material":0,"mode":4}]}],"nodes":[{"mesh":0,"name":"Gövde"}],"scene":0,"scenes":[{"nodes":[0]}]}