{"accessors":[{"bufferView":0,"byteOffset":0,"componentType":5126,"count":4,"max":[-30.0,20.0,5.0],"min":[-30.0,-20.0,-5.0],"type":"VEC3"},{"bufferView":0,"byteOffset":48,"componentType":5126,"count":4,"max":[30.0,-20.0,5.0],"min":[-30.0,-20.0,-5.0],"type":"VEC3"},{"bufferView":0,"byteOffset":96,"componentType":5126,"count":130,"max":[30.0,20.0,5.0],"min":[-30.0,-20.0,5.0],"type":"VEC3"},{"bufferView":0,"byteOffset":1656,"componentType":5126,"count":4,"max":[30.0,20.0,5.0],"min":[-30.0,20.0,-5.0],"type":"VEC3"},{"bufferView":0,"byteOffset":1704,"componentType":5126,"count":130,"max":[30.0,20.0,-5.0],"min":[-30.0,-20.0,-5.0],"type":"VEC3"},{"bufferView":0,"byteOffset":3264,"componentType":5126,"count":4,"max":[30.0,20.0,5.0],"min":[30.0,-20.0,-5.0],"type":"VEC3"},{"bufferView":0,"byteOffset":3312,"componentType":5126,"count":254,"max":[4.0,3.998756728003265,5.0],"min":[-4.0,-3.998756728003266,-5.0],"type":"VEC3"},{"bufferView":0,"byteOffset":6360,"componentType":5126,"count":3065,"max":[3.3499616347997665,5.32555006453229,15.000000000000002],"min":[-3.349998063827374,-3.349999970381261,0.0],"type":"VEC3"},{"bufferView":0,"byteOffset":43140,"componentType":5126,"count":3297,"max":[3.3499999484533287,3.3499999119026906,13.463737575598559],"min":[-3.3499999935776534,-3.3499999752513396,0.0],"type":"VEC3"},{"bufferView":0,"byteOffset":82704,"componentType":5126,"count":1225,"max":[2.1973213723757468,5.32555006453229,15.000000000000007],"min":[-2.529479456341078,-2.335346439813475,13.463737575598559],"type":"VEC3"},{"bufferView":0,"byteOffset":97404,"componentType":5126,"count":151,"max":[6.0,5.9981350920048975,15.000000000000007],"min":[-6.0,-5.998135092004899,15.0],"type":"VEC3"},{"bufferView":0,"byteOffset":99216,"componentType":5126,"count":325,"max":[0.000034746028630933123,2.75,15.0],"min":[-2.770074096277807,-2.750002817158367,14.117417477534907],"type":"VEC3"},{"bufferView":0,"byteOffset":103116,"componentType":5126,"count":1795,"max":[2.7700676066640746,2.7500000000000004,14.382579949364992],"min":[-2.7699730670920815,-2.7500037767094287,0.6174174758054125],"type":"VEC3"},{"bufferView":0,"byteOffset":124656,"componentType":5126,"count":10,"max":[0.9415960726601955,-2.5837756934701055,8.362500000000002],"min":[0.8497967345055668,-2.61540541988498,7.979151315886666],"type":"VEC3"},{"bufferView":0,"byteOffset":124776,"componentType":5126,"count":240,"max":[2.769887057114536,2.75,0.8825780455301273],"min":[0.0,-2.7500028942986443,0.0],"type":"VEC3"},{"bufferView":0,"byteOffset":127656,"componentType":5126,"count":3161,"max":[3.349999894919068,3.513913997908943,15.000000000000007],"min":[-3.349986533787426,-3.3499998772640955,0.0],"type":"VEC3"},{"bufferView":0,"byteOffset":165588,"componentType":5126,"count":284,"max":[6.0,5.9981350920048975,19.0],"min":[-6.0,-5.998135092004899,15.0],"type":"VEC3"},{"bufferView":0,"byteOffset":168996,"componentType":5126,"count":4,"max":[0.0006770950176060366,-2.7499999152869683,14.382579949364992],"min":[-0.0006825845491819195,-2.7500000000000826,14.117417477534907],"type":"VEC3"},{"bufferView":0,"byteOffset":169044,"componentType":5126,"count":13,"max":[0.0006825875812933088,-2.749999915286215,0.8825780455301273],"min":[-0.00022708082520258953,-2.750000000000232,0.6174174758054125],"type":"VEC3"},{"bufferView":0,"byteOffset":169200,"componentType":5126,"count":23,"max":[0.8497967345549996,-2.6154054197334853,8.446812897518994],"min":[-0.17215663962207936,-2.7500000000000004,8.314468442316105],"type":"VEC3"},{"bufferView":0,"byteOffset":169476,"componentType":5126,"count":9,"max":[0.9415960726601955,-2.5837756934701055,8.333562023704584],"min":[0.8497967345055668,-2.61540541988498,8.310566931568026],"type":"VEC3"},{"bufferView":0,"byteOffset":169584,"componentType":5126,"count":71,"max":[0.9458597847414141,-2.582217895525854,8.315188384527904],"min":[0.941596072471274,-2.583775693987601,8.311073635897294],"type":"VEC3"},{"bufferView":0,"byteOffset":170436,"componentType":5126,"count":126,"max":[6.0,5.9981350920048975,19.0],"min":[-6.0,-5.998135092004899,19.0],"type":"VEC3"},{"bufferView":0,"byteOffset":171948,"componentType":5126,"count":229,"max":[3.653674714030307,15.68648701092063,15.997653534772237],"min":[0.30307002801053584,5.926278696829538,15.017644552832547],"type":"VEC3"},{"bufferView":0,"byteOffset":174696,"componentType":5126,"count":31,"max":[3.6353511920137196,15.68648701092063,15.997653534772237],"min":[0.30307002801053584,5.9274635825596915,15.201542762723548],"type":"VEC3"},{"bufferView":0,"byteOffset":175068,"componentType":5126,"count":31,"max":[3.653674714030307,15.639779309405164,15.283371242511851],"min":[0.3117714569626673,5.926278696829538,15.017644552832547],"type":"VEC3"},{"bufferView":1,"byteOffset":0,"componentType":5126,"count":4,"type":"VEC3"},{"bufferView":1,"byteOffset":48,"componentType":5126,"count":4,"type":"VEC3"},{"bufferView":1,"byteOffset":96,"componentType":5126,"count":130,"type":"VEC3"},{"bufferView":1,"byteOffset":1656,"componentType":5126,"count":4,"type":"VEC3"},{"bufferView":1,"byteOffset":1704,"componentType":5126,"count":130,"type":"VEC3"},{"bufferView":1,"byteOffset":3264,"componentType":5126,"count":4,"type":"VEC3"},{"bufferView":1,"byteOffset":3312,"componentType":5126,"count":254,"type":"VEC3"},{"bufferView":1,"byteOffset":6360,"componentType":5126,"count":3065,"type":"VEC3"},{"bufferView":1,"byteOffset":43140,"componentType":5126,"count":3297,"type":"VEC3"},{"bufferView":1,"byteOffset":82704,"componentType":5126,"count":1225,"type":"VEC3"},{"bufferView":1,"byteOffset":97404,"componentType":5126,"count":151,"type":"VEC3"},{"bufferView":1,"byteOffset":99216,"componentType":5126,"count":325,"type":"VEC3"},{"bufferView":1,"byteOffset":103116,"componentType":5126,"count":1795,"type":"VEC3"},{"bufferView":1,"byteOffset":124656,"componentType":5126,"count":10,"type":"VEC3"},{"bufferView":1,"byteOffset":124776,"componentType":5126,"count":240,"type":"VEC3"},{"bufferView":1,"byteOffset":127656,"componentType":5126,"count":3161,"type":"VEC3"},{"bufferView":1,"byteOffset":165588,"componentType":5126,"count":284,"type":"VEC3"},{"bufferView":1,"byteOffset":168996,"componentType":5126,"count":4,"type":"VEC3"},{"bufferView":1,"byteOffset":169044,"componentType":5126,"count":13,"type":"VEC3"},{"bufferView":1,"byteOffset":169200,"componentType":5126,"count":23,"type":"VEC3"},{"bufferView":1,"byteOffset":169476,"componentType":5126,"count":9,"type":"VEC3"},{"bufferView":1,"byteOffset":169584,"componentType":5126,"count":71,"type":"VEC3"},{"bufferView":1,"byteOffset":170436,"componentType":5126,"count":126,"type":"VEC3"},{"bufferView":1,"byteOffset":171948,"componentType":5126,"count":229,"type":"VEC3"},{"bufferView":1,"byteOffset":174696,"componentType":5126,"count":31,"type":"VEC3"},{"bufferView":1,"byteOffset":175068,"componentType":5126,"count":31,"type":"VEC3"},{"bufferView":2,"byteOffset":0,"componentType":5123,"count":6,"type":"SCALAR"},{"bufferView":2,"byteOffset":12,"componentType":5123,"count":6,"type":"SCALAR"},{"bufferView":2,"byteOffset":24,"componentType":5123,"count":390,"type":"SCALAR"},{"bufferView":2,"byteOffset":804,"componentType":5123,"count":6,"type":"SCALAR"},{"bufferView":2,"byteOffset":816,"componentType":5123,"count":390,"type":"SCALAR"},{"bufferView":2,"byteOffset":1596,"componentType":5123,"count":6,"type":"SCALAR"},{"bufferView":2,"byteOffset":1608,"componentType":5123,"count":756,"type":"SCALAR"},{"bufferView":2,"byteOffset":3120,"componentType":5123,"count":10392,"type":"SCALAR"},{"bufferView":2,"byteOffset":23904,"componentType":5123,"count":10920,"type":"SCALAR"},{"bufferView":2,"byteOffset":45744,"componentType":5123,"count":6099,"type":"SCALAR"},{"bufferView":2,"byteOffset":57944,"componentType":5123,"count":453,"type":"SCALAR"},{"bufferView":2,"byteOffset":58852,"componentType":5123,"count":1662,"type":"SCALAR"},{"bufferView":2,"byteOffset":62176,"componentType":5123,"count":5412,"type":"SCALAR"},{"bufferView":2,"byteOffset":73000,"componentType":5123,"count":27,"type":"SCALAR"},{"bufferView":2,"byteOffset":73056,"componentType":5123,"count":1212,"type":"SCALAR"},{"bufferView":2,"byteOffset":75480,"componentType":5123,"count":10710,"type":"SCALAR"},{"bufferView":2,"byteOffset":96900,"componentType":5123,"count":852,"type":"SCALAR"},{"bufferView":2,"byteOffset":98604,"componentType":5123,"count":6,"type":"SCALAR"},{"bufferView":2,"byteOffset":98616,"componentType":5123,"count":30,"type":"SCALAR"},{"bufferView":2,"byteOffset":98676,"componentType":5123,"count":63,"type":"SCALAR"},{"bufferView":2,"byteOffset":98804,"componentType":5123,"count":21,"type":"SCALAR"},{"bufferView":2,"byteOffset":98848,"componentType":5123,"count":207,"type":"SCALAR"},{"bufferView":2,"byteOffset":99264,"componentType":5123,"count":372,"type":"SCALAR"},{"bufferView":2,"byteOffset":100008,"componentType":5123,"count":1266,"type":"SCALAR"},{"bufferView":2,"byteOffset":102540,"componentType":5123,"count":90,"type":"SCALAR"},{"bufferView":2,"byteOffset":102720,"componentType":5123,"count":90,"type":"SCALAR"}],"asset":{"generator":"Open CASCADE Technology 7.8 [dev.opencascade.org]","version":"2.0"},"bufferViews":[{"buffer":0,"byteLength":175440,"byteOffset":0,"byteStride":12,"target":34962},{"buffer":0,"byteLength":175440,"byteOffset":175440,"byteStride":12,"target":34962},{"buffer":0,"byteLength":102900,"byteOffset":350880,"target":34963}],"buffers":[{"byteLength":453780,"uri":"delikli_plaka_ve_baslikli_yivli_vida.bin"}],"materials":[{"name":"mat_0","pbrMetallicRoughness":{"baseColorFactor":[0.699999988079071,0.699999988079071,0.699999988079071,1.0]},"doubleSided":true},{"name":"mat_1","pbrMetallicRoughness":{"baseColorFactor":[0.20000000298023224,0.5,0.800000011920929,1.0]},"doubleSided":true}],"meshes":[{"name":"plaka_part","primitives":[{"attributes":{"NORMAL":26,"POSITION":0},"indices":52,"material":0,"mode":4},{"attributes":{"NORMAL":27,"POSITION":1},"indices":53,"material":0,"mode":4},{"attributes":{"NORMAL":28,"POSITION":2},"indices":54,"material":0,"mode":4},{"attributes":{"NORMAL":29,"POSITION":3},"indices":55,"material":0,"mode":4},{"attributes":{"NORMAL":30,"POSITION":4},"indices":56,"material":0,"mode":4},{"attributes":{"NORMAL":31,"POSITION":5},"indices":57,"material":0,"mode":4},{"attributes":{"NORMAL":32,"POSITION":6},"indices":58,"material":0,"mode":4}]},{"name":"vida_part","primitives":[{"attributes":{"NORMAL":33,"POSITION":7},"indices":59,"material":1,"mode":4},{"attributes":{"NORMAL":34,"POSITION":8},"indices":60,"material":1,"mode":4},{"attributes":{"NORMAL":35,"POSITION":9},"indices":61,"material":1,"mode":4},{"attributes":{"NORMAL":36,"POSITION":10},"indices":62,"material":1,"mode":4},{"attributes":{"NORMAL":37,"POSITION":11},"indices":63,"material":1,"mode":4},{"attributes":{"NORMAL":38,"POSITION":12},"indices":64,"material":1,"mode":4},{"attributes":{"NORMAL":39,"POSITION":13},"indices":65,"material":1,"mode":4},{"attributes":{"NORMAL":40,"POSITION":14},"indices":66,"material":1,"mode":4},{"attributes":{"NORMAL":41,"POSITION":15},"indices":67,"material":1,"mode":4},{"attributes":{"NORMAL":42,"POSITION":16},"indices":68,"material":1,"mode":4},{"attributes":{"NORMAL":43,"POSITION":17},"indices":69,"material":1,"mode":4},{"attributes":{"NORMAL":44,"POSITION":18},"indices":70,"material":1,"mode":4},{"attributes":{"NORMAL":45,"POSITION":19},"indices":71,"material":1,"mode":4},{"attributes":{"NORMAL":46,"POSITION":20},"indices":72,"material":1,"mode":4},{"attributes":{"NORMAL":47,"POSITION":21},"indices":73,"material":1,"mode":4},{"attributes":{"NORMAL":48,"POSITION":22},"indices":74,"material":1,"mode":4},{"attributes":{"NORMAL":49,"POSITION":23},"indices":75,"material":1,"mode":4},{"attributes":{"NORMAL":50,"POSITION":24},"indices":76,"material":1,"mode":4},{"attributes":{"NORMAL":51,"POSITION":25},"indices":77,"material":1,"mode":4}]}],"nodes":[{"children":[1,3],"rotation":[-0.7071067811865475,0.0,0.0,0.7071067811865475],"name":"ea19e642-3679-11f0-8198-78af08feb68a"},{"children":[2],"name":"plaka"},{"mesh":0,"name":"plaka_part"},{"children":[4],"translation":[0.0,0.0,-5.0],"name":"vida"},{"mesh":1,"name":"vida_part"}],"scene":0,"scenes":[{"nodes":[0]}]}