{"accessors":[{"bufferView":0,"byteOffset":0,"componentType":5126,"count":4,"max":[-30.0,20.0,5.0],"min":[-30.0,-20.0,-5.0],"type":"VEC3"},{"bufferView":0,"byteOffset":48,"componentType":5126,"count":4,"max":[30.0,-20.0,5.0],"min":[-30.0,-20.0,-5.0],"type":"VEC3"},{"bufferView":0,"byteOffset":96,"componentType":5126,"count":130,"max":[30.0,20.0,5.0],"min":[-30.0,-20.0,5.0],"type":"VEC3"},{"bufferView":0,"byteOffset":1656,"componentType":5126,"count":4,"max":[30.0,20.0,5.0],"min":[-30.0,20.0,-5.0],"type":"VEC3"},{"bufferView":0,"byteOffset":1704,"componentType":5126,"count":130,"max":[30.0,20.0,-5.0],"min":[-30.0,-20.0,-5.0],"type":"VEC3"},{"bufferView":0,"byteOffset":3264,"componentType":5126,"count":4,"max":[30.0,20.0,5.0],"min":[30.0,-20.0,-5.0],"type":"VEC3"},{"bufferView":0,"byteOffset":3312,"componentType":5126,"count":254,"max":[4.0,3.998756728003265,5.0],"min":[-4.0,-3.998756728003266,-5.0],"type":"VEC3"},{"bufferView":0,"byteOffset":6360,"componentType":5126,"count":13,"max":[0.6599885650114377,2.55,20.0],"min":[6.245698675651501e-15,2.4631108570371216,19.89486562358995],"type":"VEC3"},{"bufferView":0,"byteOffset":6516,"componentType":5126,"count":298,"max":[3.298903805996779,3.75,20.0],"min":[-2.661454850175555,-2.9290223060748337,18.218255394946617],"type":"VEC3"},{"bufferView":0,"byteOffset":10092,"componentType":5126,"count":7,"max":[0.7176641768927564,2.4631108570371216,19.93846770974338],"min":[0.6599885650114374,2.4469283048763066,19.885328879005804],"type":"VEC3"},{"bufferView":0,"byteOffset":10176,"componentType":5126,"count":303,"max":[3.2988071551002696,3.75,20.0],"min":[-2.6615768978118695,-2.9305095608726206,17.666666666666693],"type":"VEC3"},{"bufferView":0,"byteOffset":13812,"componentType":5126,"count":81932,"max":[3.7684373064110477,3.75,20.0],"min":[-3.768435686840706,-3.7500002285108587,0.0],"type":"VEC3"},{"bufferView":0,"byteOffset":996996,"componentType":5126,"count":14,"max":[1.2749999999999961,2.446928911306671,19.932878596905862],"min":[0.7176621092210071,2.2083647796503207,19.78982460259332],"type":"VEC3"},{"bufferView":0,"byteOffset":997164,"componentType":5126,"count":7,"max":[1.377499051847479,2.2083647796503207,19.87684206407335],"min":[1.274999999999996,2.1459255257718746,19.77077443132632],"type":"VEC3"},{"bufferView":0,"byteOffset":997248,"componentType":5126,"count":12,"max":[1.8031222920256957,2.1459301814817695,19.86563372176881],"min":[1.3774917989612923,1.8031222920256962,19.684969892661293],"type":"VEC3"},{"bufferView":0,"byteOffset":997392,"componentType":5126,"count":7,"max":[1.9260409158208183,1.8031222920256966,19.815030107338707],"min":[1.8031222920256953,1.671187120158632,19.656457538399177],"type":"VEC3"},{"bufferView":0,"byteOffset":997476,"componentType":5126,"count":12,"max":[2.208364779650329,1.6712012505600726,19.798145036694443],"min":[1.9260286550636905,1.2749999999999815,19.58039365163249],"type":"VEC3"},{"bufferView":0,"byteOffset":997620,"componentType":5126,"count":7,"max":[2.318775500288666,1.2749999999999817,19.752939681700834],"min":[2.2083647796503287,1.061027888069415,19.542497892791964],"type":"VEC3"},{"bufferView":0,"byteOffset":997704,"componentType":5126,"count":10,"max":[2.463110857037126,1.0610567026787108,19.730293416317547],"min":[2.318762315050981,0.6599885650114212,19.476186844898947],"type":"VEC3"},{"bufferView":0,"byteOffset":997824,"componentType":5126,"count":7,"max":[2.5237719205983944,0.6599885650114212,19.69047982176772],"min":[2.463110857037126,0.3647948639976826,19.429013385206893],"type":"VEC3"},{"bufferView":0,"byteOffset":997908,"componentType":5126,"count":8,"max":[2.550000000000277,0.36484116776454933,19.66196156214412],"min":[2.523765227255539,-3.861980180097646e-12,19.37243885587861],"type":"VEC3"},{"bufferView":0,"byteOffset":998004,"componentType":5126,"count":7,"max":[2.560967913985066,9.808404088929024e-13,19.627561144120968],"min":[2.5242994837761015,-0.3611261776826829,19.316119500266332],"type":"VEC3"},{"bufferView":0,"byteOffset":998088,"componentType":5126,"count":8,"max":[2.524308433695226,-0.36106361153563105,19.59303460780942],"min":[2.4631108570371163,-0.6599885650114592,19.269237103260334],"type":"VEC3"},{"bufferView":0,"byteOffset":998184,"componentType":5126,"count":7,"max":[2.4631108570371207,-0.659988565011442,19.564096230072998],"min":[2.3202104188174673,-1.0578863891793264,19.203928724174276],"type":"VEC3"},{"bufferView":0,"byteOffset":998268,"componentType":5126,"count":8,"max":[2.320243663881471,-1.0578134713728524,19.52340071202034],"min":[2.2083647796503096,-1.2750000000000155,19.166666666666664],"type":"VEC3"},{"bufferView":0,"byteOffset":998364,"componentType":5126,"count":7,"max":[2.208364779650318,-1.2750000000000001,19.500000000000004],"min":[1.9279723359317025,-1.6689585590667173,19.09254996730362],"type":"VEC3"},{"bufferView":0,"byteOffset":998448,"componentType":5126,"count":8,"max":[1.9280356884824201,-1.6688853717191372,19.452951636007274],"min":[1.8031222920256813,-1.8031222920257113,19.064809922326802],"type":"VEC3"},{"bufferView":0,"byteOffset":998544,"componentType":5126,"count":7,"max":[1.8031222920257062,-1.803122292025686,19.435190077673198],"min":[1.3793449530655324,-2.144739494776147,18.982088004700714],"type":"VEC3"},{"bufferView":0,"byteOffset":998628,"componentType":5126,"count":4,"max":[1.3794394990622376,-2.1446786865232106,19.38158330238824],"min":[1.2749999999999777,-2.208364779650331,18.96374619033043],"type":"VEC3"},{"bufferView":0,"byteOffset":998676,"componentType":5126,"count":7,"max":[1.2749999999999926,-2.2083647796503225,19.36958714300291],"min":[0.7188071642827825,-2.4465927860139995,18.872642937426974],"type":"VEC3"},{"bufferView":0,"byteOffset":998760,"componentType":5126,"count":4,"max":[0.7189282968786337,-2.446557194088703,19.309196332442255],"min":[0.6599885650114182,-2.463110857037127,18.863551394966642],"type":"VEC3"},{"bufferView":0,"byteOffset":998808,"componentType":5126,"count":79,"max":[0.6599885650114528,-2.463110857037118,19.303115271700023],"min":[-0.000056534505299993265,-2.550003716760803,18.764297748385548],"type":"VEC3"},{"bufferView":0,"byteOffset":999756,"componentType":5126,"count":1958,"max":[2.5625112147713014,2.550000000000001,19.235696547880586],"min":[-2.562277546340801,-2.55000557336759,0.7642977285640555],"type":"VEC3"},{"bufferView":0,"byteOffset":1023252,"componentType":5126,"count":8,"max":[0.0013970576570757993,-2.5499996172999517,19.235696547880586],"min":[-0.0013847812994633852,-2.5499999999990477,18.764297748385548],"type":"VEC3"},{"bufferView":0,"byteOffset":1023348,"componentType":5126,"count":25915,"max":[3.768354196016546,3.7498559281186052,18.268235342323617],"min":[-3.768432394317808,-3.7500002252015316,0.0],"type":"VEC3"},{"bufferView":0,"byteOffset":1334328,"componentType":5126,"count":351,"max":[0.0,2.55,1.2356903224104525],"min":[-2.5624290197741786,-2.5500037418720387,0.0],"type":"VEC3"},{"bufferView":0,"byteOffset":1338540,"componentType":5126,"count":6,"max":[0.10034867407531775,-2.548024753363358,16.681462931115604],"min":[-0.00011091854872596896,-2.549999997591618,16.666652878778024],"type":"VEC3"},{"bufferView":0,"byteOffset":1338612,"componentType":5126,"count":12,"max":[-0.0001107572376038216,-2.4974581043124546,16.67331277216289],"min":[-0.5149786585831656,-2.549999997591618,16.610603558142618],"type":"VEC3"},{"bufferView":0,"byteOffset":1338756,"componentType":5126,"count":3,"max":[0.0013847834485220438,-2.5499996239950313,1.2356903224104525],"min":[-0.00008122327148737951,-2.5500000000012086,0.7642977285640555],"type":"VEC3"},{"bufferView":1,"byteOffset":0,"componentType":5126,"count":4,"type":"VEC3"},{"bufferView":1,"byteOffset":48,"componentType":5126,"count":4,"type":"VEC3"},{"bufferView":1,"byteOffset":96,"componentType":5126,"count":130,"type":"VEC3"},{"bufferView":1,"byteOffset":1656,"componentType":5126,"count":4,"type":"VEC3"},{"bufferView":1,"byteOffset":1704,"componentType":5126,"count":130,"type":"VEC3"},{"bufferView":1,"byteOffset":3264,"componentType":5126,"count":4,"type":"VEC3"},{"bufferView":1,"byteOffset":3312,"componentType":5126,"count":254,"type":"VEC3"},{"bufferView":1,"byteOffset":6360,"componentType":5126,"count":13,"type":"VEC3"},{"bufferView":1,"byteOffset":6516,"componentType":5126,"count":298,"type":"VEC3"},{"bufferView":1,"byteOffset":10092,"componentType":5126,"count":7,"type":"VEC3"},{"bufferView":1,"byteOffset":10176,"componentType":5126,"count":303,"type":"VEC3"},{"bufferView":1,"byteOffset":13812,"componentType":5126,"count":81932,"type":"VEC3"},{"bufferView":1,"byteOffset":996996,"componentType":5126,"count":14,"type":"VEC3"},{"bufferView":1,"byteOffset":997164,"componentType":5126,"count":7,"type":"VEC3"},{"bufferView":1,"byteOffset":997248,"componentType":5126,"count":12,"type":"VEC3"},{"bufferView":1,"byteOffset":997392,"componentType":5126,"count":7,"type":"VEC3"},{"bufferView":1,"byteOffset":997476,"componentType":5126,"count":12,"type":"VEC3"},{"bufferView":1,"byteOffset":997620,"componentType":5126,"count":7,"type":"VEC3"},{"bufferView":1,"byteOffset":997704,"componentType":5126,"count":10,"type":"VEC3"},{"bufferView":1,"byteOffset":997824,"componentType":5126,"count":7,"type":"VEC3"},{"bufferView":1,"byteOffset":997908,"componentType":5126,"count":8,"type":"VEC3"},{"bufferView":1,"byteOffset":998004,"componentType":5126,"count":7,"type":"VEC3"},{"bufferView":1,"byteOffset":998088,"componentType":5126,"count":8,"type":"VEC3"},{"bufferView":1,"byteOffset":998184,"componentType":5126,"count":7,"type":"VEC3"},{"bufferView":1,"byteOffset":998268,"componentType":5126,"count":8,"type":"VEC3"},{"bufferView":1,"byteOffset":998364,"componentType":5126,"count":7,"type":"VEC3"},{"bufferView":1,"byteOffset":998448,"componentType":5126,"count":8,"type":"VEC3"},{"bufferView":1,"byteOffset":998544,"componentType":5126,"count":7,"type":"VEC3"},{"bufferView":1,"byteOffset":998628,"componentType":5126,"count":4,"type":"VEC3"},{"bufferView":1,"byteOffset":998676,"componentType":5126,"count":7,"type":"VEC3"},{"bufferView":1,"byteOffset":998760,"componentType":5126,"count":4,"type":"VEC3"},{"bufferView":1,"byteOffset":998808,"componentType":5126,"count":79,"type":"VEC3"},{"bufferView":1,"byteOffset":999756,"componentType":5126,"count":1958,"type":"VEC3"},{"bufferView":1,"byteOffset":1023252,"componentType":5126,"count":8,"type":"VEC3"},{"bufferView":1,"byteOffset":1023348,"componentType":5126,"count":25915,"type":"VEC3"},{"bufferView":1,"byteOffset":1334328,"componentType":5126,"count":351,"type":"VEC3"},{"bufferView":1,"byteOffset":1338540,"componentType":5126,"count":6,"type":"VEC3"},{"bufferView":1,"byteOffset":1338612,"componentType":5126,"count":12,"type":"VEC3"},{"bufferView":1,"byteOffset":1338756,"componentType":5126,"count":3,"type":"VEC3"},{"bufferView":2,"byteOffset":0,"componentType":5123,"count":6,"type":"SCALAR"},{"bufferView":2,"byteOffset":12,"componentType":5123,"count":6,"type":"SCALAR"},{"bufferView":2,"byteOffset":24,"componentType":5123,"count":390,"type":"SCALAR"},{"bufferView":2,"byteOffset":804,"componentType":5123,"count":6,"type":"SCALAR"},{"bufferView":2,"byteOffset":816,"componentType":5123,"count":390,"type":"SCALAR"},{"bufferView":2,"byteOffset":1596,"componentType":5123,"count":6,"type":"SCALAR"},{"bufferView":2,"byteOffset":1608,"componentType":5123,"count":756,"type":"SCALAR"},{"bufferView":2,"byteOffset":3120,"componentType":5123,"count":33,"type":"SCALAR"},{"bufferView":2,"byteOffset":3188,"componentType":5123,"count":1092,"type":"SCALAR"},{"bufferView":2,"byteOffset":5372,"componentType":5123,"count":18,"type":"SCALAR"},{"bufferView":2,"byteOffset":5408,"componentType":5123,"count":1182,"type":"SCALAR"},{"bufferView":2,"byteOffset":7772,"componentType":5125,"count":375735,"type":"SCALAR"},{"bufferView":2,"byteOffset":1510712,"componentType":5123,"count":36,"type":"SCALAR"},{"bufferView":2,"byteOffset":1510784,"componentType":5123,"count":18,"type":"SCALAR"},{"bufferView":2,"byteOffset":1510820,"componentType":5123,"count":30,"type":"SCALAR"},{"bufferView":2,"byteOffset":1510880,"componentType":5123,"count":18,"type":"SCALAR"},{"bufferView":2,"byteOffset":1510916,"componentType":5123,"count":30,"type":"SCALAR"},{"bufferView":2,"byteOffset":1510976,"componentType":5123,"count":18,"type":"SCALAR"},{"bufferView":2,"byteOffset":1511012,"componentType":5123,"count":24,"type":"SCALAR"},{"bufferView":2,"byteOffset":1511060,"componentType":5123,"count":18,"type":"SCALAR"},{"bufferView":2,"byteOffset":1511096,"componentType":5123,"count":18,"type":"SCALAR"},{"bufferView":2,"byteOffset":1511132,"componentType":5123,"count":18,"type":"SCALAR"},{"bufferView":2,"byteOffset":1511168,"componentType":5123,"count":18,"type":"SCALAR"},{"bufferView":2,"byteOffset":1511204,"componentType":5123,"count":18,"type":"SCALAR"},{"bufferView":2,"byteOffset":1511240,"componentType":5123,"count":18,"type":"SCALAR"},{"bufferView":2,"byteOffset":1511276,"componentType":5123,"count":18,"type":"SCALAR"},{"bufferView":2,"byteOffset":1511312,"componentType":5123,"count":18,"type":"SCALAR"},{"bufferView":2,"byteOffset":1511348,"componentType":5123,"count":18,"type":"SCALAR"},{"bufferView":2,"byteOffset":1511384,"componentType":5123,"count":6,"type":"SCALAR"},{"bufferView":2,"byteOffset":1511396,"componentType":5123,"count":18,"type":"SCALAR"},{"bufferView":2,"byteOffset":1511432,"componentType":5123,"count":6,"type":"SCALAR"},{"bufferView":2,"byteOffset":1511444,"componentType":5123,"count":441,"type":"SCALAR"},{"bufferView":2,"byteOffset":1512328,"componentType":5123,"count":5946,"type":"SCALAR"},{"bufferView":2,"byteOffset":1524220,"componentType":5123,"count":18,"type":"SCALAR"},{"bufferView":2,"byteOffset":1524256,"componentType":5123,"count":149607,"type":"SCALAR"},{"bufferView":2,"byteOffset":1823472,"componentType":5123,"count":1827,"type":"SCALAR"},{"bufferView":2,"byteOffset":1827128,"componentType":5123,"count":12,"type":"SCALAR"},{"bufferView":2,"byteOffset":1827152,"componentType":5123,"count":30,"type":"SCALAR"},{"bufferView":2,"byteOffset":1827212,"componentType":5123,"count":3,"type":"SCALAR"}],"asset":{"generator":"Open CASCADE Technology 7.8 [dev.opencascade.org]","version":"2.0"},"bufferViews":[{"buffer":0,"byteLength":1338792,"byteOffset":0,"byteStride":12,"target":34962},{"buffer":0,"byteLength":1338792,"byteOffset":1338792,"byteStride":12,"target":34962},{"buffer":0,"byteLength":1827220,"byteOffset":2677584,"target":34963}],"buffers":[{"byteLength":4504804,"uri":"delikli_plaka_ve_gelismis_yivli_vida.bin"}],"materials":[{"name":"mat_0","pbrMetallicRoughness":{"baseColorFactor":[0.699999988079071,0.699999988079071,0.699999988079071,1.0]},"doubleSided":true},{"name":"mat_1","pbrMetallicRoughness":{"baseColorFactor":[0.20000000298023224,0.5,0.800000011920929,1.0]},"doubleSided":true}],"meshes":[{"name":"plaka_part","primitives":[{"attributes":{"NORMAL":39,"POSITION":0},"indices":78,"material":0,"mode":4},{"attributes":{"NORMAL":40,"POSITION":1},"indices":79,"material":0,"mode":4},{"attributes":{"NORMAL":41,"POSITION":2},"indices":80,"material":0,"mode":4},{"attributes":{"NORMAL":42,"POSITION":3},"indices":81,"material":0,"mode":4},{"attributes":{"NORMAL":43,"POSITION":4},"indices":82,"material":0,"mode":4},{"attributes":{"NORMAL":44,"POSITION":5},"indices":83,"material":0,"mode":4},{"attributes":{"NORMAL":45,"POSITION":6},"indices":84,"material":0,"mode":4}]},{"name":"vida_part","primitives":[{"attributes":{"NORMAL":46,"POSITION":7},"indices":85,"material":1,"mode":4},{"attributes":{"NORMAL":47,"POSITION":8},"indices":86,"material":1,"mode":4},{"attributes":{"NORMAL":48,"POSITION":9},"indices":87,"material":1,"mode":4},{"attributes":{"NORMAL":49,"POSITION":10},"indices":88,"material":1,"mode":4},{"attributes":{"NORMAL":50,"POSITION":11},"indices":89,"material":1,"mode":4},{"attributes":{"NORMAL":51,"POSITION":12},"indices":90,"material":1,"mode":4},{"attributes":{"NORMAL":52,"POSITION":13},"indices":91,"material":1,"mode":4},{"attributes":{"NORMAL":53,"POSITION":14},"indices":92,"material":1,"mode":4},{"attributes":{"NORMAL":54,"POSITION":15},"indices":93,"material":1,"mode":4},{"attributes":{"NORMAL":55,"POSITION":16},"indices":94,"material":1,"mode":4},{"attributes":{"NORMAL":56,"POSITION":17},"indices":95,"material":1,"mode":4},{"attributes":{"NORMAL":57,"POSITION":18},"indices":96,"material":1,"mode":4},{"attributes":{"NORMAL":58,"POSITION":19},"indices":97,"material":1,"mode":4},{"attributes":{"NORMAL":59,"POSITION":20},"indices":98,"material":1,"mode":4},{"attributes":{"NORMAL":60,"POSITION":21},"indices":99,"material":1,"mode":4},{"attributes":{"NORMAL":61,"POSITION":22},"indices":100,"material":1,"mode":4},{"attributes":{"NORMAL":62,"POSITION":23},"indices":101,"material":1,"mode":4},{"attributes":{"NORMAL":63,"POSITION":24},"indices":102,"material":1,"mode":4},{"attributes":{"NORMAL":64,"POSITION":25},"indices":103,"material":1,"mode":4},{"attributes":{"NORMAL":65,"POSITION":26},"indices":104,"material":1,"mode":4},{"attributes":{"NORMAL":66,"POSITION":27},"indices":105,"material":1,"mode":4},{"attributes":{"NORMAL":67,"POSITION":28},"indices":106,"material":1,"mode":4},{"attributes":{"NORMAL":68,"POSITION":29},"indices":107,"material":1,"mode":4},{"attributes":{"NORMAL":69,"POSITION":30},"indices":108,"material":1,"mode":4},{"attributes":{"NORMAL":70,"POSITION":31},"indices":109,"material":1,"mode":4},{"attributes":{"NORMAL":71,"POSITION":32},"indices":110,"material":1,"mode":4},{"attributes":{"NORMAL":72,"POSITION":33},"indices":111,"material":1,"mode":4},{"attributes":{"NORMAL":73,"POSITION":34},"indices":112,"material":1,"mode":4},{"attributes":{"NORMAL":74,"POSITION":35},"indices":113,"material":1,"mode":4},{"attributes":{"NORMAL":75,"POSITION":36},"indices":114,"material":1,"mode":4},{"attributes":{"NORMAL":76,"POSITION":37},"indices":115,"material":1,"mode":4},{"attributes":{"NORMAL":77,"POSITION":38},"indices":116,"material":1,"mode":4}]}],"nodes":[{"children":[1,3],"rotation":[-0.7071067811865475,0.0,0.0,0.7071067811865475],"name":"753a9859-35f9-11f0-8198-78af08feb68a"},{"children":[2],"name":"plaka"},{"mesh":0,"name":"plaka_part"},{"children":[4],"translation":[0.0,0.0,15.0],"name":"vida"},{"mesh":1,"name":"vida_part"}],"scene":0,"scenes":[{"nodes":[0]}]}