{"accessors":[{"bufferView":0,"byteOffset":0,"componentType":5126,"count":4,"max":[-30.0,20.0,5.0],"min":[-30.0,-20.0,-5.0],"type":"VEC3"},{"bufferView":0,"byteOffset":48,"componentType":5126,"count":4,"max":[30.0,-20.0,5.0],"min":[-30.0,-20.0,-5.0],"type":"VEC3"},{"bufferView":0,"byteOffset":96,"componentType":5126,"count":130,"max":[30.0,20.0,5.0],"min":[-30.0,-20.0,5.0],"type":"VEC3"},{"bufferView":0,"byteOffset":1656,"componentType":5126,"count":4,"max":[30.0,20.0,5.0],"min":[-30.0,20.0,-5.0],"type":"VEC3"},{"bufferView":0,"byteOffset":1704,"componentType":5126,"count":130,"max":[30.0,20.0,-5.0],"min":[-30.0,-20.0,-5.0],"type":"VEC3"},{"bufferView":0,"byteOffset":3264,"componentType":5126,"count":4,"max":[30.0,20.0,5.0],"min":[30.0,-20.0,-5.0],"type":"VEC3"},{"bufferView":0,"byteOffset":3312,"componentType":5126,"count":254,"max":[4.0,3.998756728003265,5.0],"min":[-4.0,-3.998756728003266,-5.0],"type":"VEC3"},{"bufferView":0,"byteOffset":6360,"componentType":5126,"count":254,"max":[3.2,3.1990053824026123,20.0],"min":[-3.2,-3.199005382402613,0.0],"type":"VEC3"},{"bufferView":0,"byteOffset":9408,"componentType":5126,"count":126,"max":[3.2,3.1990053824026123,0.0],"min":[-3.2,-3.199005382402613,0.0],"type":"VEC3"},{"bufferView":0,"byteOffset":10920,"componentType":5126,"count":126,"max":[3.2,3.1990053824026123,20.0],"min":[-3.2,-3.199005382402613,20.0],"type":"VEC3"},{"bufferView":0,"byteOffset":12432,"componentType":5126,"count":4522,"max":[3.215700910180896,3.215636181728189,20.0],"min":[-3.215739582998156,-3.2146875290319334,0.0],"type":"VEC3"},{"bufferView":0,"byteOffset":66696,"componentType":5126,"count":4491,"max":[3.366851620623401,3.3666474460087095,20.0],"min":[-3.3653337382144337,-3.3654824591044283,0.0],"type":"VEC3"},{"bufferView":0,"byteOffset":120588,"componentType":5126,"count":4528,"max":[3.366851620623401,3.3666474460087095,20.0],"min":[-3.3653337382144337,-3.3654824591044283,0.0],"type":"VEC3"},{"bufferView":0,"byteOffset":174924,"componentType":5126,"count":4488,"max":[3.366819387122633,3.366323213280473,20.0],"min":[-3.365179072563662,-3.3654012277158243,0.0],"type":"VEC3"},{"bufferView":1,"byteOffset":0,"componentType":5126,"count":4,"type":"VEC3"},{"bufferView":1,"byteOffset":48,"componentType":5126,"count":4,"type":"VEC3"},{"bufferView":1,"byteOffset":96,"componentType":5126,"count":130,"type":"VEC3"},{"bufferView":1,"byteOffset":1656,"componentType":5126,"count":4,"type":"VEC3"},{"bufferView":1,"byteOffset":1704,"componentType":5126,"count":130,"type":"VEC3"},{"bufferView":1,"byteOffset":3264,"componentType":5126,"count":4,"type":"VEC3"},{"bufferView":1,"byteOffset":3312,"componentType":5126,"count":254,"type":"VEC3"},{"bufferView":1,"byteOffset":6360,"componentType":5126,"count":254,"type":"VEC3"},{"bufferView":1,"byteOffset":9408,"componentType":5126,"count":126,"type":"VEC3"},{"bufferView":1,"byteOffset":10920,"componentType":5126,"count":126,"type":"VEC3"},{"bufferView":1,"byteOffset":12432,"componentType":5126,"count":4522,"type":"VEC3"},{"bufferView":1,"byteOffset":66696,"componentType":5126,"count":4491,"type":"VEC3"},{"bufferView":1,"byteOffset":120588,"componentType":5126,"count":4528,"type":"VEC3"},{"bufferView":1,"byteOffset":174924,"componentType":5126,"count":4488,"type":"VEC3"},{"bufferView":2,"byteOffset":0,"componentType":5123,"count":6,"type":"SCALAR"},{"bufferView":2,"byteOffset":12,"componentType":5123,"count":6,"type":"SCALAR"},{"bufferView":2,"byteOffset":24,"componentType":5123,"count":390,"type":"SCALAR"},{"bufferView":2,"byteOffset":804,"componentType":5123,"count":6,"type":"SCALAR"},{"bufferView":2,"byteOffset":816,"componentType":5123,"count":390,"type":"SCALAR"},{"bufferView":2,"byteOffset":1596,"componentType":5123,"count":6,"type":"SCALAR"},{"bufferView":2,"byteOffset":1608,"componentType":5123,"count":756,"type":"SCALAR"},{"bufferView":2,"byteOffset":3120,"componentType":5123,"count":756,"type":"SCALAR"},{"bufferView":2,"byteOffset":4632,"componentType":5123,"count":372,"type":"SCALAR"},{"bufferView":2,"byteOffset":5376,"componentType":5123,"count":372,"type":"SCALAR"},{"bufferView":2,"byteOffset":6120,"componentType":5123,"count":15765,"type":"SCALAR"},{"bufferView":2,"byteOffset":37652,"componentType":5123,"count":15327,"type":"SCALAR"},{"bufferView":2,"byteOffset":68308,"componentType":5123,"count":15306,"type":"SCALAR"},{"bufferView":2,"byteOffset":98920,"componentType":5123,"count":15318,"type":"SCALAR"}],"asset":{"generator":"Open CASCADE Technology 7.8 [dev.opencascade.org]","version":"2.0"},"bufferViews":[{"buffer":0,"byteLength":228780,"byteOffset":0,"byteStride":12,"target":34962},{"buffer":0,"byteLength":228780,"byteOffset":228780,"byteStride":12,"target":34962},{"buffer":0,"byteLength":129556,"byteOffset":457560,"target":34963}],"buffers":[{"byteLength":587116,"uri":"delikli_plaka_ve_yivli_vida.bin"}],"materials":[{"name":"mat_0","pbrMetallicRoughness":{"baseColorFactor":[0.699999988079071,0.699999988079071,0.699999988079071,1.0]},"doubleSided":true},{"name":"mat_1","pbrMetallicRoughness":{"baseColorFactor":[0.20000000298023224,0.5,0.800000011920929,1.0]},"doubleSided":true}],"meshes":[{"name":"plaka_part","primitives":[{"attributes":{"NORMAL":14,"POSITION":0},"indices":28,"material":0,"mode":4},{"attributes":{"NORMAL":15,"POSITION":1},"indices":29,"material":0,"mode":4},{"attributes":{"NORMAL":16,"POSITION":2},"indices":30,"material":0,"mode":4},{"attributes":{"NORMAL":17,"POSITION":3},"indices":31,"material":0,"mode":4},{"attributes":{"NORMAL":18,"POSITION":4},"indices":32,"material":0,"mode":4},{"attributes":{"NORMAL":19,"POSITION":5},"indices":33,"material":0,"mode":4},{"attributes":{"NORMAL":20,"POSITION":6},"indices":34,"material":0,"mode":4}]},{"name":"vida_part","primitives":[{"attributes":{"NORMAL":21,"POSITION":7},"indices":35,"material":1,"mode":4},{"attributes":{"NORMAL":22,"POSITION":8},"indices":36,"material":1,"mode":4},{"attributes":{"NORMAL":23,"POSITION":9},"indices":37,"material":1,"mode":4},{"attributes":{"NORMAL":24,"POSITION":10},"indices":38,"material":1,"mode":4},{"attributes":{"NORMAL":25,"POSITION":11},"indices":39,"material":1,"mode":4},{"attributes":{"NORMAL":26,"POSITION":12},"indices":40,"material":1,"mode":4},{"attributes":{"NORMAL":27,"POSITION":13},"indices":41,"material":1,"mode":4}]}],"nodes":[{"children":[1,3],"rotation":[-0.7071067811865475,0.0,0.0,0.7071067811865475],"name":"768e4e41-35c0-11f0-8198-78af08feb68a"},{"children":[2],"name":"plaka"},{"mesh":0,"name":"plaka_part"},{"children":[4],"translation":[0.0,0.0,10.0],"name":"vida"},{"mesh":1,"name":"vida_part"}],"scene":0,"scenes":[{"nodes":[0]}]}