{"accessors":[{"bufferView":0,"byteOffset":0,"componentType":5126,"count":4,"max":[-50.0,40.0,5.0],"min":[-50.0,-40.0,-5.0],"type":"VEC3"},{"bufferView":0,"byteOffset":48,"componentType":5126,"count":4,"max":[50.0,-40.0,5.0],"min":[-50.0,-40.0,-5.0],"type":"VEC3"},{"bufferView":0,"byteOffset":96,"componentType":5126,"count":760,"max":[50.0,40.0,5.0],"min":[-50.0,-40.0,5.0],"type":"VEC3"},{"bufferView":0,"byteOffset":9216,"componentType":5126,"count":4,"max":[50.0,40.0,5.0],"min":[-50.0,40.0,-5.0],"type":"VEC3"},{"bufferView":0,"byteOffset":9264,"componentType":5126,"count":4,"max":[50.0,40.0,-5.0],"min":[-50.0,-40.0,-5.0],"type":"VEC3"},{"bufferView":0,"byteOffset":9312,"componentType":5126,"count":4,"max":[50.0,40.0,5.0],"min":[50.0,-40.0,-5.0],"type":"VEC3"},{"bufferView":0,"byteOffset":9360,"componentType":5126,"count":254,"max":[-16.0,-11.001243271996735,25.0],"min":[-24.0,-18.998756728003265,5.0],"type":"VEC3"},{"bufferView":0,"byteOffset":12408,"componentType":5126,"count":254,"max":[6.0,-14.001864907995103,17.0],"min":[-6.0,-25.9981350920049,5.0],"type":"VEC3"},{"bufferView":0,"byteOffset":15456,"componentType":5126,"count":254,"max":[24.0,-11.001243271996735,25.0],"min":[16.0,-18.998756728003265,5.0],"type":"VEC3"},{"bufferView":0,"byteOffset":18504,"componentType":5126,"count":254,"max":[-25.0,24.99844591000408,20.0],"min":[-35.0,15.001554089995917,5.0],"type":"VEC3"},{"bufferView":0,"byteOffset":21552,"componentType":5126,"count":254,"max":[8.0,32.99751345600653,15.0],"min":[-8.0,17.00248654399347,5.0],"type":"VEC3"},{"bufferView":0,"byteOffset":24600,"componentType":5126,"count":254,"max":[35.0,24.99844591000408,20.0],"min":[25.0,15.001554089995917,5.0],"type":"VEC3"},{"bufferView":0,"byteOffset":27648,"componentType":5126,"count":126,"max":[-16.0,-11.001243271996735,25.0],"min":[-24.0,-18.998756728003265,25.0],"type":"VEC3"},{"bufferView":0,"byteOffset":29160,"componentType":5126,"count":126,"max":[6.0,-14.001864907995103,17.0],"min":[-6.0,-25.9981350920049,17.0],"type":"VEC3"},{"bufferView":0,"byteOffset":30672,"componentType":5126,"count":126,"max":[24.0,-11.001243271996735,25.0],"min":[16.0,-18.998756728003265,25.0],"type":"VEC3"},{"bufferView":0,"byteOffset":32184,"componentType":5126,"count":126,"max":[-25.0,24.99844591000408,20.0],"min":[-35.0,15.001554089995917,20.0],"type":"VEC3"},{"bufferView":0,"byteOffset":33696,"componentType":5126,"count":126,"max":[8.0,32.99751345600653,15.0],"min":[-8.0,17.00248654399347,15.0],"type":"VEC3"},{"bufferView":0,"byteOffset":35208,"componentType":5126,"count":126,"max":[35.0,24.99844591000408,20.0],"min":[25.0,15.001554089995917,20.0],"type":"VEC3"},{"bufferView":1,"byteOffset":0,"componentType":5126,"count":4,"type":"VEC3"},{"bufferView":1,"byteOffset":48,"componentType":5126,"count":4,"type":"VEC3"},{"bufferView":1,"byteOffset":96,"componentType":5126,"count":760,"type":"VEC3"},{"bufferView":1,"byteOffset":9216,"componentType":5126,"count":4,"type":"VEC3"},{"bufferView":1,"byteOffset":9264,"componentType":5126,"count":4,"type":"VEC3"},{"bufferView":1,"byteOffset":9312,"componentType":5126,"count":4,"type":"VEC3"},{"bufferView":1,"byteOffset":9360,"componentType":5126,"count":254,"type":"VEC3"},{"bufferView":1,"byteOffset":12408,"componentType":5126,"count":254,"type":"VEC3"},{"bufferView":1,"byteOffset":15456,"componentType":5126,"count":254,"type":"VEC3"},{"bufferView":1,"byteOffset":18504,"componentType":5126,"count":254,"type":"VEC3"},{"bufferView":1,"byteOffset":21552,"componentType":5126,"count":254,"type":"VEC3"},{"bufferView":1,"byteOffset":24600,"componentType":5126,"count":254,"type":"VEC3"},{"bufferView":1,"byteOffset":27648,"componentType":5126,"count":126,"type":"VEC3"},{"bufferView":1,"byteOffset":29160,"componentType":5126,"count":126,"type":"VEC3"},{"bufferView":1,"byteOffset":30672,"componentType":5126,"count":126,"type":"VEC3"},{"bufferView":1,"byteOffset":32184,"componentType":5126,"count":126,"type":"VEC3"},{"bufferView":1,"byteOffset":33696,"componentType":5126,"count":126,"type":"VEC3"},{"bufferView":1,"byteOffset":35208,"componentType":5126,"count":126,"type":"VEC3"},{"bufferView":2,"byteOffset":0,"componentType":5123,"count":6,"type":"SCALAR"},{"bufferView":2,"byteOffset":12,"componentType":5123,"count":6,"type":"SCALAR"},{"bufferView":2,"byteOffset":24,"componentType":5123,"count":2310,"type":"SCALAR"},{"bufferView":2,"byteOffset":4644,"componentType":5123,"count":6,"type":"SCALAR"},{"bufferView":2,"byteOffset":4656,"componentType":5123,"count":6,"type":"SCALAR"},{"bufferView":2,"byteOffset":4668,"componentType":5123,"count":6,"type":"SCALAR"},{"bufferView":2,"byteOffset":4680,"componentType":5123,"count":756,"type":"SCALAR"},{"bufferView":2,"byteOffset":6192,"componentType":5123,"count":756,"type":"SCALAR"},{"bufferView":2,"byteOffset":7704,"componentType":5123,"count":756,"type":"SCALAR"},{"bufferView":2,"byteOffset":9216,"componentType":5123,"count":756,"type":"SCALAR"},{"bufferView":2,"byteOffset":10728,"componentType":5123,"count":756,"type":"SCALAR"},{"bufferView":2,"byteOffset":12240,"componentType":5123,"count":756,"type":"SCALAR"},{"bufferView":2,"byteOffset":13752,"componentType":5123,"count":372,"type":"SCALAR"},{"bufferView":2,"byteOffset":14496,"componentType":5123,"count":372,"type":"SCALAR"},{"bufferView":2,"byteOffset":15240,"componentType":5123,"count":372,"type":"SCALAR"},{"bufferView":2,"byteOffset":15984,"componentType":5123,"count":372,"type":"SCALAR"},{"bufferView":2,"byteOffset":16728,"componentType":5123,"count":372,"type":"SCALAR"},{"bufferView":2,"byteOffset":17472,"componentType":5123,"count":372,"type":"SCALAR"}],"asset":{"generator":"Open CASCADE Technology 7.8 [dev.opencascade.org]","version":"2.0"},"bufferViews":[{"buffer":0,"byteLength":36720,"byteOffset":0,"byteStride":12,"target":34962},{"buffer":0,"byteLength":36720,"byteOffset":36720,"byteStride":12,"target":34962},{"buffer":0,"byteLength":18216,"byteOffset":73440,"target":34963}],"buffers":[{"byteLength":91656,"uri":"eachpoint_montaj.bin"}],"materials":[{"name":"mat_0","pbrMetallicRoughness":{"baseColorFactor":[0.527114987373352,0.527114987373352,0.527114987373352,1.0]},"doubleSided":true}],"meshes":[{"name":"plaka_ve_pimler_part","primitives":[{"attributes":{"NORMAL":18,"POSITION":0},"indices":36,"material":0,"mode":4},{"attributes":{"NORMAL":19,"POSITION":1},"indices":37,"material":0,"mode":4},{"attributes":{"NORMAL":20,"POSITION":2},"indices":38,"material":0,"mode":4},{"attributes":{"NORMAL":21,"POSITION":3},"indices":39,"material":0,"mode":4},{"attributes":{"NORMAL":22,"POSITION":4},"indices":40,"material":0,"mode":4},{"attributes":{"NORMAL":23,"POSITION":5},"indices":41,"material":0,"mode":4},{"attributes":{"NORMAL":24,"POSITION":6},"indices":42,"material":0,"mode":4},{"attributes":{"NORMAL":25,"POSITION":7},"indices":43,"material":0,"mode":4},{"attributes":{"NORMAL":26,"POSITION":8},"indices":44,"material":0,"mode":4},{"attributes":{"NORMAL":27,"POSITION":9},"indices":45,"material":0,"mode":4},{"attributes":{"NORMAL":28,"POSITION":10},"indices":46,"material":0,"mode":4},{"attributes":{"NORMAL":29,"POSITION":11},"indices":47,"material":0,"mode":4},{"attributes":{"NORMAL":30,"POSITION":12},"indices":48,"material":0,"mode":4},{"attributes":{"NORMAL":31,"POSITION":13},"indices":49,"material":0,"mode":4},{"attributes":{"NORMAL":32,"POSITION":14},"indices":50,"material":0,"mode":4},{"attributes":{"NORMAL":33,"POSITION":15},"indices":51,"material":0,"mode":4},{"attributes":{"NORMAL":34,"POSITION":16},"indices":52,"material":0,"mode":4},{"attributes":{"NORMAL":35,"POSITION":17},"indices":53,"material":0,"mode":4}]}],"nodes":[{"children":[1],"rotation":[-0.7071067811865475,0.0,0.0,0.7071067811865475],"name":"eachpoint_montaj"},{"children":[2],"name":"plaka_ve_pimler"},{"mesh":0,"name":"plaka_ve_pimler_part"}],"scene":0,"scenes":[{"nodes":[0]}]}