{"accessors":[{"bufferView":0,"byteOffset":0,"componentType":5126,"count":254,"max":[2.0,1.7315124550023842,13.990070238767396],"min":[-2.0,-9.231512455002385,-0.9996891820008164],"type":"VEC3"},{"bufferView":0,"byteOffset":3048,"componentType":5126,"count":126,"max":[2.0,1.7315124550023842,0.9996891820008161],"min":[-2.0,-1.7315124550023846,-0.9996891820008164],"type":"VEC3"},{"bufferView":0,"byteOffset":4560,"componentType":5126,"count":126,"max":[2.0,-5.768487544997615,13.990070238767396],"min":[-2.0,-9.231512455002385,11.990691874765764],"type":"VEC3"},{"bufferView":0,"byteOffset":6072,"componentType":5126,"count":4,"max":[-20.0,15.0,0.0],"min":[-20.0,-15.0,-2.0],"type":"VEC3"},{"bufferView":0,"byteOffset":6120,"componentType":5126,"count":4,"max":[20.0,15.0,0.0],"min":[20.0,-15.0,-2.0],"type":"VEC3"},{"bufferView":0,"byteOffset":6168,"componentType":5126,"count":4,"max":[20.0,-15.0,0.0],"min":[-20.0,-15.0,-2.0],"type":"VEC3"},{"bufferView":0,"byteOffset":6216,"componentType":5126,"count":4,"max":[20.0,15.0,0.0],"min":[-20.0,15.0,-2.0],"type":"VEC3"},{"bufferView":0,"byteOffset":6264,"componentType":5126,"count":4,"max":[20.0,15.0,-2.0],"min":[-20.0,-15.0,-2.0],"type":"VEC3"},{"bufferView":0,"byteOffset":6312,"componentType":5126,"count":4,"max":[20.0,15.0,0.0],"min":[-20.0,-15.0,0.0],"type":"VEC3"},{"bufferView":1,"byteOffset":0,"componentType":5126,"count":254,"type":"VEC3"},{"bufferView":1,"byteOffset":3048,"componentType":5126,"count":126,"type":"VEC3"},{"bufferView":1,"byteOffset":4560,"componentType":5126,"count":126,"type":"VEC3"},{"bufferView":1,"byteOffset":6072,"componentType":5126,"count":4,"type":"VEC3"},{"bufferView":1,"byteOffset":6120,"componentType":5126,"count":4,"type":"VEC3"},{"bufferView":1,"byteOffset":6168,"componentType":5126,"count":4,"type":"VEC3"},{"bufferView":1,"byteOffset":6216,"componentType":5126,"count":4,"type":"VEC3"},{"bufferView":1,"byteOffset":6264,"componentType":5126,"count":4,"type":"VEC3"},{"bufferView":1,"byteOffset":6312,"componentType":5126,"count":4,"type":"VEC3"},{"bufferView":2,"byteOffset":0,"componentType":5123,"count":756,"type":"SCALAR"},{"bufferView":2,"byteOffset":1512,"componentType":5123,"count":372,"type":"SCALAR"},{"bufferView":2,"byteOffset":2256,"componentType":5123,"count":372,"type":"SCALAR"},{"bufferView":2,"byteOffset":3000,"componentType":5123,"count":6,"type":"SCALAR"},{"bufferView":2,"byteOffset":3012,"componentType":5123,"count":6,"type":"SCALAR"},{"bufferView":2,"byteOffset":3024,"componentType":5123,"count":6,"type":"SCALAR"},{"bufferView":2,"byteOffset":3036,"componentType":5123,"count":6,"type":"SCALAR"},{"bufferView":2,"byteOffset":3048,"componentType":5123,"count":6,"type":"SCALAR"},{"bufferView":2,"byteOffset":3060,"componentType":5123,"count":6,"type":"SCALAR"}],"asset":{"generator":"Open CASCADE Technology 7.8 [dev.opencascade.org]","version":"2.0"},"bufferViews":[{"buffer":0,"byteLength":6360,"byteOffset":0,"byteStride":12,"target":34962},{"buffer":0,"byteLength":6360,"byteOffset":6360,"byteStride":12,"target":34962},{"buffer":0,"byteLength":3072,"byteOffset":12720,"target":34963}],"buffers":[{"byteLength":15792,"uri":"egik_duzleme_paralel_cizim.bin"}],"materials":[{"name":"mat_0","pbrMetallicRoughness":{"baseColorFactor":[0.20000000298023224,0.5,0.800000011920929,1.0]},"doubleSided":true},{"name":"mat_1","pbrMetallicRoughness":{"baseColorFactor":[0.699999988079071,0.699999988079071,0.699999988079071,1.0]},"doubleSided":true}],"meshes":[{"name":"inclined_cylinder_part","primitives":[{"attributes":{"NORMAL":9,"POSITION":0},"indices":18,"material":0,"mode":4},{"attributes":{"NORMAL":10,"POSITION":1},"indices":19,"material":0,"mode":4},{"attributes":{"NORMAL":11,"POSITION":2},"indices":20,"material":0,"mode":4}]},{"name":"base_plate_part","primitives":[{"attributes":{"NORMAL":12,"POSITION":3},"indices":21,"material":1,"mode":4},{"attributes":{"NORMAL":13,"POSITION":4},"indices":22,"material":1,"mode":4},{"attributes":{"NORMAL":14,"POSITION":5},"indices":23,"material":1,"mode":4},{"attributes":{"NORMAL":15,"POSITION":6},"indices":24,"material":1,"mode":4},{"attributes":{"NORMAL":16,"POSITION":7},"indices":25,"material":1,"mode":4},{"attributes":{"NORMAL":17,"POSITION":8},"indices":26,"material":1,"mode":4}]}],"nodes":[{"children":[1,3],"rotation":[-0.7071067811865475,0.0,0.0,0.7071067811865475],"name":"ceac342b-3433-11f0-8198-78af08feb68a"},{"children":[2],"name":"inclined_cylinder"},{"mesh":0,"name":"inclined_cylinder_part"},{"children":[4],"name":"base_plate"},{"mesh":1,"name":"base_plate_part"}],"scene":0,"scenes":[{"nodes":[0]}]}