{"accessors":[{"bufferView":0,"byteOffset":0,"componentType":5126,"count":4,"max":[-0.01,0.005,0.01],"min":[-0.01,-0.005,-0.01],"type":"VEC3"},{"bufferView":0,"byteOffset":48,"componentType":5126,"count":4,"max":[0.01,0.005,0.01],"min":[-0.01,-0.005,0.01],"type":"VEC3"},{"bufferView":0,"byteOffset":96,"componentType":5126,"count":8,"max":[0.01,0.005,0.01],"min":[-0.01,0.005,-0.01],"type":"VEC3"},{"bufferView":0,"byteOffset":192,"componentType":5126,"count":4,"max":[0.01,0.005,-0.01],"min":[-0.01,-0.005,-0.01],"type":"VEC3"},{"bufferView":0,"byteOffset":240,"componentType":5126,"count":117,"max":[0.01,-0.005,0.01],"min":[-0.01,-0.005,-0.01],"type":"VEC3"},{"bufferView":0,"byteOffset":1644,"componentType":5126,"count":4,"max":[0.01,0.005,0.01],"min":[0.01,-0.005,-0.01],"type":"VEC3"},{"bufferView":0,"byteOffset":1692,"componentType":5126,"count":4,"max":[0.0025,0.005,0.0025],"min":[-0.0025,0.003,0.0025],"type":"VEC3"},{"bufferView":0,"byteOffset":1740,"componentType":5126,"count":4,"max":[0.0025,0.005,0.0025],"min":[0.0025,0.003,-0.0025],"type":"VEC3"},{"bufferView":0,"byteOffset":1788,"componentType":5126,"count":4,"max":[0.0025,0.005,-0.0025],"min":[-0.0025,0.003,-0.0025],"type":"VEC3"},{"bufferView":0,"byteOffset":1836,"componentType":5126,"count":4,"max":[-0.0025,0.005,0.0025],"min":[-0.0025,0.003,-0.0025],"type":"VEC3"},{"bufferView":0,"byteOffset":1884,"componentType":5126,"count":228,"max":[0.003,-0.005,0.002999710154119143],"min":[-0.0029988406724836625,-0.008,-0.0029997101541191433],"type":"VEC3"},{"bufferView":0,"byteOffset":4620,"componentType":5126,"count":4,"max":[0.0025,0.003,0.0025],"min":[-0.0025,0.003,-0.0025],"type":"VEC3"},{"bufferView":0,"byteOffset":4668,"componentType":5126,"count":113,"max":[0.003,-0.008,0.002999710154119143],"min":[-0.0029988406724836625,-0.008,-0.0029997101541191433],"type":"VEC3"},{"bufferView":1,"byteOffset":0,"componentType":5126,"count":4,"type":"VEC3"},{"bufferView":1,"byteOffset":48,"componentType":5126,"count":4,"type":"VEC3"},{"bufferView":1,"byteOffset":96,"componentType":5126,"count":8,"type":"VEC3"},{"bufferView":1,"byteOffset":192,"componentType":5126,"count":4,"type":"VEC3"},{"bufferView":1,"byteOffset":240,"componentType":5126,"count":117,"type":"VEC3"},{"bufferView":1,"byteOffset":1644,"componentType":5126,"count":4,"type":"VEC3"},{"bufferView":1,"byteOffset":1692,"componentType":5126,"count":4,"type":"VEC3"},{"bufferView":1,"byteOffset":1740,"componentType":5126,"count":4,"type":"VEC3"},{"bufferView":1,"byteOffset":1788,"componentType":5126,"count":4,"type":"VEC3"},{"bufferView":1,"byteOffset":1836,"componentType":5126,"count":4,"type":"VEC3"},{"bufferView":1,"byteOffset":1884,"componentType":5126,"count":228,"type":"VEC3"},{"bufferView":1,"byteOffset":4620,"componentType":5126,"count":4,"type":"VEC3"},{"bufferView":1,"byteOffset":4668,"componentType":5126,"count":113,"type":"VEC3"},{"bufferView":2,"byteOffset":0,"componentType":5123,"count":6,"type":"SCALAR"},{"bufferView":2,"byteOffset":12,"componentType":5123,"count":6,"type":"SCALAR"},{"bufferView":2,"byteOffset":24,"componentType":5123,"count":24,"type":"SCALAR"},{"bufferView":2,"byteOffset":72,"componentType":5123,"count":6,"type":"SCALAR"},{"bufferView":2,"byteOffset":84,"componentType":5123,"count":351,"type":"SCALAR"},{"bufferView":2,"byteOffset":788,"componentType":5123,"count":6,"type":"SCALAR"},{"bufferView":2,"byteOffset":800,"componentType":5123,"count":6,"type":"SCALAR"},{"bufferView":2,"byteOffset":812,"componentType":5123,"count":6,"type":"SCALAR"},{"bufferView":2,"byteOffset":824,"componentType":5123,"count":6,"type":"SCALAR"},{"bufferView":2,"byteOffset":836,"componentType":5123,"count":6,"type":"SCALAR"},{"bufferView":2,"byteOffset":848,"componentType":5123,"count":678,"type":"SCALAR"},{"bufferView":2,"byteOffset":2204,"componentType":5123,"count":6,"type":"SCALAR"},{"bufferView":2,"byteOffset":2216,"componentType":5123,"count":333,"type":"SCALAR"}],"asset":{"generator":"Open CASCADE Technology 7.8 [dev.opencascade.org]","version":"2.0"},"bufferViews":[{"buffer":0,"byteLength":6024,"byteOffset":0,"byteStride":12,"target":34962},{"buffer":0,"byteLength":6024,"byteOffset":6024,"byteStride":12,"target":34962},{"buffer":0,"byteLength":2884,"byteOffset":12048,"target":34963}],"buffers":[{"byteLength":14932,"uri":"etiketli_secim_islemi.bin"}],"materials":[{"name":"mat_0","pbrMetallicRoughness":{"baseColorFactor":[0.0,0.5225215554237366,1.0,1.0]},"doubleSided":true}],"meshes":[{"name":"Gövde","primitives":[{"attributes":{"NORMAL":13,"POSITION":0},"indices":26,"material":0,"mode":4},{"attributes":{"NORMAL":14,"POSITION":1},"indices":27,"material":0,"mode":4},{"attributes":{"NORMAL":15,"POSITION":2},"indices":28,"material":0,"mode":4},{"attributes":{"NORMAL":16,"POSITION":3},"indices":29,"material":0,"mode":4},{"attributes":{"NORMAL":17,"POSITION":4},"indices":30,"material":0,"mode":4},{"attributes":{"NORMAL":18,"POSITION":5},"indices":31,"material":0,"mode":4},{"attributes":{"NORMAL":19,"POSITION":6},"indices":32,"material":0,"mode":4},{"attributes":{"NORMAL":20,"POSITION":7},"indices":33,"material":0,"mode":4},{"attributes":{"NORMAL":21,"POSITION":8},"indices":34,"material":0,"mode":4},{"attributes":{"NORMAL":22,"POSITION":9},"indices":35,"material":0,"mode":4},{"attributes":{"NORMAL":23,"POSITION":10},"indices":36,"material":0,"mode":4},{"attributes":{"NORMAL":24,"POSITION":11},"indices":37,"material":0,"mode":4},{"attributes":{"NORMAL":25,"POSITION":12},"indices":38,"material":0,"mode":4}]}],"nodes":[{"mesh":0,"name":"Gövde"}],"scene":0,"scenes":[{"nodes":[0]}]}