{"accessors":[{"bufferView":0,"byteOffset":0,"componentType":5126,"count":4,"max":[7.5,6.495190528383289,24.0],"min":[3.750000000000001,0.0,20.0],"type":"VEC3"},{"bufferView":0,"byteOffset":48,"componentType":5126,"count":4,"max":[7.5,0.0,24.0],"min":[3.749999999999995,-6.495190528383293,20.0],"type":"VEC3"},{"bufferView":0,"byteOffset":96,"componentType":5126,"count":4,"max":[3.750000000000001,6.49519052838329,24.0],"min":[-3.7499999999999982,6.495190528383289,20.0],"type":"VEC3"},{"bufferView":0,"byteOffset":144,"componentType":5126,"count":132,"max":[7.5,6.49519052838329,20.0],"min":[-7.5,-6.495190528383293,20.0],"type":"VEC3"},{"bufferView":0,"byteOffset":1728,"componentType":5126,"count":6,"max":[7.5,6.49519052838329,24.0],"min":[-7.5,-6.495190528383293,24.0],"type":"VEC3"},{"bufferView":0,"byteOffset":1800,"componentType":5126,"count":4,"max":[3.749999999999995,-6.495190528383288,24.0],"min":[-3.7500000000000036,-6.495190528383293,20.0],"type":"VEC3"},{"bufferView":0,"byteOffset":1848,"componentType":5126,"count":4,"max":[-3.7499999999999982,6.49519052838329,24.0],"min":[-7.5,9.18485099360515e-16,20.0],"type":"VEC3"},{"bufferView":0,"byteOffset":1896,"componentType":5126,"count":4,"max":[-3.7500000000000036,9.18485099360515e-16,24.0],"min":[-7.5,-6.495190528383288,20.0],"type":"VEC3"},{"bufferView":0,"byteOffset":1944,"componentType":5126,"count":254,"max":[4.9,4.898476991804,20.0],"min":[-4.9,-4.898476991804001,0.0],"type":"VEC3"},{"bufferView":0,"byteOffset":4992,"componentType":5126,"count":126,"max":[4.9,4.898476991804,0.0],"min":[-4.9,-4.898476991804001,0.0],"type":"VEC3"},{"bufferView":0,"byteOffset":6504,"componentType":5126,"count":4618,"max":[5.008955089137603,5.008772419783182,20.0],"min":[-5.008859946169817,-5.007114439683154,0.0],"type":"VEC3"},{"bufferView":0,"byteOffset":61920,"componentType":5126,"count":6393,"max":[6.010470558421828,6.010077808840602,20.0],"min":[-6.009803926956612,-6.008333319836069,0.0],"type":"VEC3"},{"bufferView":0,"byteOffset":138636,"componentType":5126,"count":5313,"max":[6.010470558421828,6.010397265267962,20.0],"min":[-6.00995615938322,-6.008333319836069,0.0],"type":"VEC3"},{"bufferView":0,"byteOffset":202392,"componentType":5126,"count":6380,"max":[6.010418482568982,6.010397265267962,20.0],"min":[-6.00995615938322,-6.0081346800214295,0.0],"type":"VEC3"},{"bufferView":0,"byteOffset":278952,"componentType":5126,"count":4,"max":[-30.0,30.0,-9.0],"min":[-30.0,-30.0,-19.0],"type":"VEC3"},{"bufferView":0,"byteOffset":279000,"componentType":5126,"count":4,"max":[30.0,-30.0,-9.0],"min":[-30.0,-30.0,-19.0],"type":"VEC3"},{"bufferView":0,"byteOffset":279048,"componentType":5126,"count":284,"max":[30.0,30.0,-9.0],"min":[-30.0,-30.0,-9.000000000000002],"type":"VEC3"},{"bufferView":0,"byteOffset":282456,"componentType":5126,"count":4,"max":[30.0,30.0,-9.0],"min":[-30.0,30.0,-19.0],"type":"VEC3"},{"bufferView":0,"byteOffset":282504,"componentType":5126,"count":293,"max":[30.0,30.0,-19.0],"min":[-30.0,-30.0,-19.0],"type":"VEC3"},{"bufferView":0,"byteOffset":286020,"componentType":5126,"count":4,"max":[30.0,30.0,-9.0],"min":[30.0,-30.0,-19.0],"type":"VEC3"},{"bufferView":0,"byteOffset":286068,"componentType":5126,"count":254,"max":[4.9,4.898476991804001,-9.0],"min":[-4.9,-4.898476991804,-19.0],"type":"VEC3"},{"bufferView":0,"byteOffset":289116,"componentType":5126,"count":2494,"max":[5.000760720817951,5.001258632965856,-9.0],"min":[-5.0020176989162675,-5.00252502479277,-19.0],"type":"VEC3"},{"bufferView":0,"byteOffset":319044,"componentType":5126,"count":2437,"max":[6.0018674474884826,6.002489578185303,-9.0],"min":[-6.000733447592235,-6.000722246843771,-19.0],"type":"VEC3"},{"bufferView":0,"byteOffset":348288,"componentType":5126,"count":2494,"max":[6.002112437394337,6.002638214262454,-9.0],"min":[-6.000947671328373,-6.000722246843771,-19.0],"type":"VEC3"},{"bufferView":0,"byteOffset":378216,"componentType":5126,"count":2453,"max":[6.002112437394337,6.002638214262454,-9.0],"min":[-6.000947671328373,-6.000507721123778,-19.0],"type":"VEC3"},{"bufferView":1,"byteOffset":0,"componentType":5126,"count":4,"type":"VEC3"},{"bufferView":1,"byteOffset":48,"componentType":5126,"count":4,"type":"VEC3"},{"bufferView":1,"byteOffset":96,"componentType":5126,"count":4,"type":"VEC3"},{"bufferView":1,"byteOffset":144,"componentType":5126,"count":132,"type":"VEC3"},{"bufferView":1,"byteOffset":1728,"componentType":5126,"count":6,"type":"VEC3"},{"bufferView":1,"byteOffset":1800,"componentType":5126,"count":4,"type":"VEC3"},{"bufferView":1,"byteOffset":1848,"componentType":5126,"count":4,"type":"VEC3"},{"bufferView":1,"byteOffset":1896,"componentType":5126,"count":4,"type":"VEC3"},{"bufferView":1,"byteOffset":1944,"componentType":5126,"count":254,"type":"VEC3"},{"bufferView":1,"byteOffset":4992,"componentType":5126,"count":126,"type":"VEC3"},{"bufferView":1,"byteOffset":6504,"componentType":5126,"count":4618,"type":"VEC3"},{"bufferView":1,"byteOffset":61920,"componentType":5126,"count":6393,"type":"VEC3"},{"bufferView":1,"byteOffset":138636,"componentType":5126,"count":5313,"type":"VEC3"},{"bufferView":1,"byteOffset":202392,"componentType":5126,"count":6380,"type":"VEC3"},{"bufferView":1,"byteOffset":278952,"componentType":5126,"count":4,"type":"VEC3"},{"bufferView":1,"byteOffset":279000,"componentType":5126,"count":4,"type":"VEC3"},{"bufferView":1,"byteOffset":279048,"componentType":5126,"count":284,"type":"VEC3"},{"bufferView":1,"byteOffset":282456,"componentType":5126,"count":4,"type":"VEC3"},{"bufferView":1,"byteOffset":282504,"componentType":5126,"count":293,"type":"VEC3"},{"bufferView":1,"byteOffset":286020,"componentType":5126,"count":4,"type":"VEC3"},{"bufferView":1,"byteOffset":286068,"componentType":5126,"count":254,"type":"VEC3"},{"bufferView":1,"byteOffset":289116,"componentType":5126,"count":2494,"type":"VEC3"},{"bufferView":1,"byteOffset":319044,"componentType":5126,"count":2437,"type":"VEC3"},{"bufferView":1,"byteOffset":348288,"componentType":5126,"count":2494,"type":"VEC3"},{"bufferView":1,"byteOffset":378216,"componentType":5126,"count":2453,"type":"VEC3"},{"bufferView":2,"byteOffset":0,"componentType":5123,"count":6,"type":"SCALAR"},{"bufferView":2,"byteOffset":12,"componentType":5123,"count":6,"type":"SCALAR"},{"bufferView":2,"byteOffset":24,"componentType":5123,"count":6,"type":"SCALAR"},{"bufferView":2,"byteOffset":36,"componentType":5123,"count":396,"type":"SCALAR"},{"bufferView":2,"byteOffset":828,"componentType":5123,"count":12,"type":"SCALAR"},{"bufferView":2,"byteOffset":852,"componentType":5123,"count":6,"type":"SCALAR"},{"bufferView":2,"byteOffset":864,"componentType":5123,"count":6,"type":"SCALAR"},{"bufferView":2,"byteOffset":876,"componentType":5123,"count":6,"type":"SCALAR"},{"bufferView":2,"byteOffset":888,"componentType":5123,"count":756,"type":"SCALAR"},{"bufferView":2,"byteOffset":2400,"componentType":5123,"count":372,"type":"SCALAR"},{"bufferView":2,"byteOffset":3144,"componentType":5123,"count":16053,"type":"SCALAR"},{"bufferView":2,"byteOffset":35252,"componentType":5123,"count":25611,"type":"SCALAR"},{"bufferView":2,"byteOffset":86476,"componentType":5123,"count":18045,"type":"SCALAR"},{"bufferView":2,"byteOffset":122568,"componentType":5123,"count":25539,"type":"SCALAR"},{"bufferView":2,"byteOffset":173648,"componentType":5123,"count":6,"type":"SCALAR"},{"bufferView":2,"byteOffset":173660,"componentType":5123,"count":6,"type":"SCALAR"},{"bufferView":2,"byteOffset":173672,"componentType":5123,"count":858,"type":"SCALAR"},{"bufferView":2,"byteOffset":175388,"componentType":5123,"count":6,"type":"SCALAR"},{"bufferView":2,"byteOffset":175400,"componentType":5123,"count":885,"type":"SCALAR"},{"bufferView":2,"byteOffset":177172,"componentType":5123,"count":6,"type":"SCALAR"},{"bufferView":2,"byteOffset":177184,"componentType":5123,"count":756,"type":"SCALAR"},{"bufferView":2,"byteOffset":178696,"componentType":5123,"count":8223,"type":"SCALAR"},{"bufferView":2,"byteOffset":195144,"componentType":5123,"count":8058,"type":"SCALAR"},{"bufferView":2,"byteOffset":211260,"componentType":5123,"count":8439,"type":"SCALAR"},{"bufferView":2,"byteOffset":228140,"componentType":5123,"count":8103,"type":"SCALAR"}],"asset":{"generator":"Open CASCADE Technology 7.8 [dev.opencascade.org]","version":"2.0"},"bufferViews":[{"buffer":0,"byteLength":407652,"byteOffset":0,"byteStride":12,"target":34962},{"buffer":0,"byteLength":407652,"byteOffset":407652,"byteStride":12,"target":34962},{"buffer":0,"byteLength":244348,"byteOffset":815304,"target":34963}],"buffers":[{"byteLength":1059652,"uri":"fonksiyonlarla_moduler_tasarim.bin"}],"materials":[{"name":"mat_0","pbrMetallicRoughness":{"baseColorFactor":[0.527114987373352,0.527114987373352,0.527114987373352,1.0]},"doubleSided":true},{"name":"mat_1","pbrMetallicRoughness":{"baseColorFactor":[0.06124600023031235,0.22322799265384674,0.4564110040664673,1.0]},"doubleSided":true}],"meshes":[{"name":"Vida_part","primitives":[{"attributes":{"NORMAL":25,"POSITION":0},"indices":50,"material":0,"mode":4},{"attributes":{"NORMAL":26,"POSITION":1},"indices":51,"material":0,"mode":4},{"attributes":{"NORMAL":27,"POSITION":2},"indices":52,"material":0,"mode":4},{"attributes":{"NORMAL":28,"POSITION":3},"indices":53,"material":0,"mode":4},{"attributes":{"NORMAL":29,"POSITION":4},"indices":54,"material":0,"mode":4},{"attributes":{"NORMAL":30,"POSITION":5},"indices":55,"material":0,"mode":4},{"attributes":{"NORMAL":31,"POSITION":6},"indices":56,"material":0,"mode":4},{"attributes":{"NORMAL":32,"POSITION":7},"indices":57,"material":0,"mode":4},{"attributes":{"NORMAL":33,"POSITION":8},"indices":58,"material":0,"mode":4},{"attributes":{"NORMAL":34,"POSITION":9},"indices":59,"material":0,"mode":4},{"attributes":{"NORMAL":35,"POSITION":10},"indices":60,"material":0,"mode":4},{"attributes":{"NORMAL":36,"POSITION":11},"indices":61,"material":0,"mode":4},{"attributes":{"NORMAL":37,"POSITION":12},"indices":62,"material":0,"mode":4},{"attributes":{"NORMAL":38,"POSITION":13},"indices":63,"material":0,"mode":4}]},{"name":"YivliPlaka_part","primitives":[{"attributes":{"NORMAL":39,"POSITION":14},"indices":64,"material":1,"mode":4},{"attributes":{"NORMAL":40,"POSITION":15},"indices":65,"material":1,"mode":4},{"attributes":{"NORMAL":41,"POSITION":16},"indices":66,"material":1,"mode":4},{"attributes":{"NORMAL":42,"POSITION":17},"indices":67,"material":1,"mode":4},{"attributes":{"NORMAL":43,"POSITION":18},"indices":68,"material":1,"mode":4},{"attributes":{"NORMAL":44,"POSITION":19},"indices":69,"material":1,"mode":4},{"attributes":{"NORMAL":45,"POSITION":20},"indices":70,"material":1,"mode":4},{"attributes":{"NORMAL":46,"POSITION":21},"indices":71,"material":1,"mode":4},{"attributes":{"NORMAL":47,"POSITION":22},"indices":72,"material":1,"mode":4},{"attributes":{"NORMAL":48,"POSITION":23},"indices":73,"material":1,"mode":4},{"attributes":{"NORMAL":49,"POSITION":24},"indices":74,"material":1,"mode":4}]}],"nodes":[{"children":[1,3],"rotation":[-0.7071067811865475,0.0,0.0,0.7071067811865475],"name":"Vida ve Plaka Montajı"},{"children":[2],"name":"Vida"},{"mesh":0,"name":"Vida_part"},{"children":[4],"name":"YivliPlaka"},{"mesh":1,"name":"YivliPlaka_part"}],"scene":0,"scenes":[{"nodes":[0]}]}