{"accessors":[{"bufferView":0,"byteOffset":0,"componentType":5126,"count":4,"max":[-0.005,0.005,0.005],"min":[-0.005,-0.005,-0.005],"type":"VEC3"},{"bufferView":0,"byteOffset":48,"componentType":5126,"count":4,"max":[0.005,0.005,0.005],"min":[-0.005,-0.005,0.005],"type":"VEC3"},{"bufferView":0,"byteOffset":96,"componentType":5126,"count":4,"max":[0.005,0.005,0.005],"min":[-0.005,0.005,-0.005],"type":"VEC3"},{"bufferView":0,"byteOffset":144,"componentType":5126,"count":9,"max":[0.005,0.005,-0.005],"min":[-0.005,-0.005,-0.005],"type":"VEC3"},{"bufferView":0,"byteOffset":252,"componentType":5126,"count":4,"max":[0.005,-0.005,0.005],"min":[-0.005,-0.005,-0.005],"type":"VEC3"},{"bufferView":0,"byteOffset":300,"componentType":5126,"count":4,"max":[0.005,0.005,0.005],"min":[0.005,-0.005,-0.005],"type":"VEC3"},{"bufferView":0,"byteOffset":348,"componentType":5126,"count":4,"max":[-0.000386271242969,0.001188820645369,-0.004],"min":[-0.00125,0.0,-0.005],"type":"VEC3"},{"bufferView":0,"byteOffset":396,"componentType":5126,"count":4,"max":[0.0010112712429690002,0.001188820645369,-0.004],"min":[-0.000386271242969,0.0007347315653660001,-0.005],"type":"VEC3"},{"bufferView":0,"byteOffset":444,"componentType":5126,"count":4,"max":[0.0010112712429690002,0.0007347315653660001,-0.004],"min":[0.0010112712429690002,-0.0007347315653660001,-0.005],"type":"VEC3"},{"bufferView":0,"byteOffset":492,"componentType":5126,"count":4,"max":[0.0010112712429690002,-0.0007347315653660001,-0.004],"min":[-0.000386271242969,-0.001188820645369,-0.005],"type":"VEC3"},{"bufferView":0,"byteOffset":540,"componentType":5126,"count":4,"max":[-0.000386271242969,0.0,-0.004],"min":[-0.00125,-0.001188820645369,-0.005],"type":"VEC3"},{"bufferView":0,"byteOffset":588,"componentType":5126,"count":5,"max":[0.0010112712429690002,0.001188820645369,-0.004],"min":[-0.00125,-0.001188820645369,-0.004],"type":"VEC3"},{"bufferView":1,"byteOffset":0,"componentType":5126,"count":4,"type":"VEC3"},{"bufferView":1,"byteOffset":48,"componentType":5126,"count":4,"type":"VEC3"},{"bufferView":1,"byteOffset":96,"componentType":5126,"count":4,"type":"VEC3"},{"bufferView":1,"byteOffset":144,"componentType":5126,"count":9,"type":"VEC3"},{"bufferView":1,"byteOffset":252,"componentType":5126,"count":4,"type":"VEC3"},{"bufferView":1,"byteOffset":300,"componentType":5126,"count":4,"type":"VEC3"},{"bufferView":1,"byteOffset":348,"componentType":5126,"count":4,"type":"VEC3"},{"bufferView":1,"byteOffset":396,"componentType":5126,"count":4,"type":"VEC3"},{"bufferView":1,"byteOffset":444,"componentType":5126,"count":4,"type":"VEC3"},{"bufferView":1,"byteOffset":492,"componentType":5126,"count":4,"type":"VEC3"},{"bufferView":1,"byteOffset":540,"componentType":5126,"count":4,"type":"VEC3"},{"bufferView":1,"byteOffset":588,"componentType":5126,"count":5,"type":"VEC3"},{"bufferView":2,"byteOffset":0,"componentType":5123,"count":6,"type":"SCALAR"},{"bufferView":2,"byteOffset":12,"componentType":5123,"count":6,"type":"SCALAR"},{"bufferView":2,"byteOffset":24,"componentType":5123,"count":6,"type":"SCALAR"},{"bufferView":2,"byteOffset":36,"componentType":5123,"count":27,"type":"SCALAR"},{"bufferView":2,"byteOffset":92,"componentType":5123,"count":6,"type":"SCALAR"},{"bufferView":2,"byteOffset":104,"componentType":5123,"count":6,"type":"SCALAR"},{"bufferView":2,"byteOffset":116,"componentType":5123,"count":6,"type":"SCALAR"},{"bufferView":2,"byteOffset":128,"componentType":5123,"count":6,"type":"SCALAR"},{"bufferView":2,"byteOffset":140,"componentType":5123,"count":6,"type":"SCALAR"},{"bufferView":2,"byteOffset":152,"componentType":5123,"count":6,"type":"SCALAR"},{"bufferView":2,"byteOffset":164,"componentType":5123,"count":6,"type":"SCALAR"},{"bufferView":2,"byteOffset":176,"componentType":5123,"count":9,"type":"SCALAR"}],"asset":{"generator":"Open CASCADE Technology 7.8 [dev.opencascade.org]","version":"2.0"},"bufferViews":[{"buffer":0,"byteLength":648,"byteOffset":0,"byteStride":12,"target":34962},{"buffer":0,"byteLength":648,"byteOffset":648,"byteStride":12,"target":34962},{"buffer":0,"byteLength":196,"byteOffset":1296,"target":34963}],"buffers":[{"byteLength":1492,"uri":"gt_Y_arka_yuzey_besgen_cep.bin"}],"materials":[{"name":"mat_0","pbrMetallicRoughness":{"baseColorFactor":[0.0,0.5225215554237366,1.0,1.0]},"doubleSided":true}],"meshes":[{"name":"Gövde","primitives":[{"attributes":{"NORMAL":12,"POSITION":0},"indices":24,"material":0,"mode":4},{"attributes":{"NORMAL":13,"POSITION":1},"indices":25,"material":0,"mode":4},{"attributes":{"NORMAL":14,"POSITION":2},"indices":26,"material":0,"mode":4},{"attributes":{"NORMAL":15,"POSITION":3},"indices":27,"material":0,"mode":4},{"attributes":{"NORMAL":16,"POSITION":4},"indices":28,"material":0,"mode":4},{"attributes":{"NORMAL":17,"POSITION":5},"indices":29,"material":0,"mode":4},{"attributes":{"NORMAL":18,"POSITION":6},"indices":30,"material":0,"mode":4},{"attributes":{"NORMAL":19,"POSITION":7},"indices":31,"material":0,"mode":4},{"attributes":{"NORMAL":20,"POSITION":8},"indices":32,"material":0,"mode":4},{"attributes":{"NORMAL":21,"POSITION":9},"indices":33,"material":0,"mode":4},{"attributes":{"NORMAL":22,"POSITION":10},"indices":34,"material":0,"mode":4},{"attributes":{"NORMAL":23,"POSITION":11},"indices":35,"material":0,"mode":4}]}],"nodes":[{"mesh":0,"name":"Gövde"}],"scene":0,"scenes":[{"nodes":[0]}]}