{"accessors":[{"bufferView":0,"byteOffset":0,"componentType":5126,"count":32252,"max":[0.03,0.08499957673207456,0.02999987093385308],"min":[-0.029999990749577158,-0.004999821215178278,-0.029999794860025075],"type":"VEC3"},{"bufferView":0,"byteOffset":387024,"componentType":5126,"count":269,"max":[0.03,0.004999576744524471,2.1354316241644796e-18],"min":[0.020000999118514603,-0.004999821215178278,-4.6427022200133524e-18],"type":"VEC3"},{"bufferView":0,"byteOffset":390252,"componentType":5126,"count":269,"max":[0.03,0.08499957673207456,1.2180904364959317e-10],"min":[0.020000999099387306,0.07500017877673025,-1.2183333859829998e-10],"type":"VEC3"},{"bufferView":0,"byteOffset":393480,"componentType":5126,"count":36468,"max":[0.029,0.08399935416504876,0.028999913640612007],"min":[-0.02899966340401946,-0.003999062018851593,-0.028999704764214707],"type":"VEC3"},{"bufferView":1,"byteOffset":0,"componentType":5126,"count":32252,"type":"VEC3"},{"bufferView":1,"byteOffset":387024,"componentType":5126,"count":269,"type":"VEC3"},{"bufferView":1,"byteOffset":390252,"componentType":5126,"count":269,"type":"VEC3"},{"bufferView":1,"byteOffset":393480,"componentType":5126,"count":36468,"type":"VEC3"},{"bufferView":2,"byteOffset":0,"componentType":5123,"count":189762,"type":"SCALAR"},{"bufferView":2,"byteOffset":379524,"componentType":5123,"count":807,"type":"SCALAR"},{"bufferView":2,"byteOffset":381140,"componentType":5123,"count":807,"type":"SCALAR"},{"bufferView":2,"byteOffset":382756,"componentType":5123,"count":215196,"type":"SCALAR"}],"asset":{"generator":"Open CASCADE Technology 7.8 [dev.opencascade.org]","version":"2.0"},"bufferViews":[{"buffer":0,"byteLength":831096,"byteOffset":0,"byteStride":12,"target":34962},{"buffer":0,"byteLength":831096,"byteOffset":831096,"byteStride":12,"target":34962},{"buffer":0,"byteLength":813148,"byteOffset":1662192,"target":34963}],"buffers":[{"byteLength":2475340,"uri":"heliks_boru_modeli.bin"}],"materials":[{"name":"mat_0","pbrMetallicRoughness":{"baseColorFactor":[0.0,0.5225215554237366,1.0,1.0]},"doubleSided":true}],"meshes":[{"name":"Gövde","primitives":[{"attributes":{"NORMAL":4,"POSITION":0},"indices":8,"material":0,"mode":4},{"attributes":{"NORMAL":5,"POSITION":1},"indices":9,"material":0,"mode":4},{"attributes":{"NORMAL":6,"POSITION":2},"indices":10,"material":0,"mode":4},{"attributes":{"NORMAL":7,"POSITION":3},"indices":11,"material":0,"mode":4}]}],"nodes":[{"mesh":0,"name":"Gövde"}],"scene":0,"scenes":[{"nodes":[0]}]}