{"accessors":[{"bufferView":0,"byteOffset":0,"componentType":5126,"count":254,"max":[4.0,3.998756728003265,19.0],"min":[-4.0,-3.998756728003266,15.0],"type":"VEC3"},{"bufferView":0,"byteOffset":3048,"componentType":5126,"count":328,"max":[4.0,3.998756728003265,15.0],"min":[-4.0,-3.998756728003266,15.0],"type":"VEC3"},{"bufferView":0,"byteOffset":6984,"componentType":5126,"count":254,"max":[4.0,3.998756728003265,19.0],"min":[-4.0,-3.998756728003266,19.0],"type":"VEC3"},{"bufferView":0,"byteOffset":10032,"componentType":5126,"count":255,"max":[2.5,2.5,15.0],"min":[-2.5,-2.5,0.0],"type":"VEC3"},{"bufferView":0,"byteOffset":13092,"componentType":5126,"count":130,"max":[-2.1999999999999997,0.6,19.0],"min":[-2.7998167117229884,-0.6,15.0],"type":"VEC3"},{"bufferView":0,"byteOffset":14652,"componentType":5126,"count":130,"max":[2.7998167117229875,0.6,19.0],"min":[2.1999999999999997,-0.6,15.0],"type":"VEC3"},{"bufferView":0,"byteOffset":16212,"componentType":5126,"count":4,"max":[2.1999999999999997,-0.6,19.0],"min":[-2.1999999999999997,-0.6,15.0],"type":"VEC3"},{"bufferView":0,"byteOffset":16260,"componentType":5126,"count":4,"max":[2.1999999999999997,0.6,19.0],"min":[-2.1999999999999997,0.6,15.0],"type":"VEC3"},{"bufferView":0,"byteOffset":16308,"componentType":5126,"count":126,"max":[2.5,2.4992229550020406,0.0],"min":[-2.5,-2.499222955002041,0.0],"type":"VEC3"},{"bufferView":0,"byteOffset":17820,"componentType":5126,"count":57,"max":[2.5,0.6,15.0],"min":[-2.499239343198299,-0.6,15.0],"type":"VEC3"},{"bufferView":0,"byteOffset":18504,"componentType":5126,"count":4,"max":[-7.5,6.0,7.5],"min":[-7.5,-6.0,-7.5],"type":"VEC3"},{"bufferView":0,"byteOffset":18552,"componentType":5126,"count":132,"max":[7.5,7.5,7.5],"min":[-7.5,-7.5,7.5],"type":"VEC3"},{"bufferView":0,"byteOffset":20136,"componentType":5126,"count":66,"max":[-6.0,-6.0,7.5],"min":[-7.5,-7.5,-7.5],"type":"VEC3"},{"bufferView":0,"byteOffset":20928,"componentType":5126,"count":66,"max":[-6.0,7.5,7.5],"min":[-7.5,6.0,-7.5],"type":"VEC3"},{"bufferView":0,"byteOffset":21720,"componentType":5126,"count":132,"max":[7.5,7.5,-7.5],"min":[-7.5,-7.5,-7.5],"type":"VEC3"},{"bufferView":0,"byteOffset":23304,"componentType":5126,"count":4,"max":[6.0,-7.5,7.5],"min":[-6.0,-7.5,-7.5],"type":"VEC3"},{"bufferView":0,"byteOffset":23352,"componentType":5126,"count":4,"max":[6.0,7.5,7.5],"min":[-6.0,7.5,-7.5],"type":"VEC3"},{"bufferView":0,"byteOffset":23400,"componentType":5126,"count":66,"max":[7.5,-6.0,7.5],"min":[6.0,-7.5,-7.5],"type":"VEC3"},{"bufferView":0,"byteOffset":24192,"componentType":5126,"count":66,"max":[7.5,7.5,7.5],"min":[6.0,6.0,-7.5],"type":"VEC3"},{"bufferView":0,"byteOffset":24984,"componentType":5126,"count":4,"max":[7.5,6.0,7.5],"min":[7.5,-6.0,-7.5],"type":"VEC3"},{"bufferView":0,"byteOffset":25032,"componentType":5126,"count":254,"max":[4.0,3.998756728003265,16.0],"min":[-4.0,-3.998756728003266,12.0],"type":"VEC3"},{"bufferView":0,"byteOffset":28080,"componentType":5126,"count":358,"max":[4.0,3.998756728003265,12.0],"min":[-4.0,-3.998756728003266,12.0],"type":"VEC3"},{"bufferView":0,"byteOffset":32376,"componentType":5126,"count":254,"max":[4.0,3.998756728003265,16.0],"min":[-4.0,-3.998756728003266,16.0],"type":"VEC3"},{"bufferView":0,"byteOffset":35424,"componentType":5126,"count":257,"max":[2.0,1.9993837231132578,12.0],"min":[-2.0,-1.999383723113258,0.0],"type":"VEC3"},{"bufferView":0,"byteOffset":38508,"componentType":5126,"count":6,"max":[2.1999999999999997,0.6000000000000592,16.0],"min":[-2.1999999999999997,0.6,12.0],"type":"VEC3"},{"bufferView":0,"byteOffset":38580,"componentType":5126,"count":128,"max":[-2.1999999999999997,0.6,16.0],"min":[-2.79981350920049,-0.6,12.0],"type":"VEC3"},{"bufferView":0,"byteOffset":40116,"componentType":5126,"count":6,"max":[2.1999999999999997,-0.6,16.0],"min":[-2.1999999999999997,-0.6000000000000587,12.0],"type":"VEC3"},{"bufferView":0,"byteOffset":40188,"componentType":5126,"count":128,"max":[2.79981350920049,0.6,16.0],"min":[2.1999999999999997,-0.6,12.0],"type":"VEC3"},{"bufferView":0,"byteOffset":41724,"componentType":5126,"count":126,"max":[2.0,1.9993783640016325,0.0],"min":[-2.0,-1.999378364001633,0.0],"type":"VEC3"},{"bufferView":0,"byteOffset":43236,"componentType":5126,"count":29,"max":[2.0,0.6000000000000592,12.0],"min":[-1.9994506901563531,-0.6000000000000587,12.0],"type":"VEC3"},{"bufferView":0,"byteOffset":43584,"componentType":5126,"count":4,"max":[-6.000000000000001,4.800000000000001,6.0],"min":[-6.000000000000001,-4.800000000000001,-6.0],"type":"VEC3"},{"bufferView":0,"byteOffset":43632,"componentType":5126,"count":132,"max":[6.000000000000001,6.000000000000001,6.0],"min":[-6.000000000000001,-6.000000000000001,6.0],"type":"VEC3"},{"bufferView":0,"byteOffset":45216,"componentType":5126,"count":66,"max":[-4.800000000000001,-4.800000000000001,6.0],"min":[-6.000000000000001,-6.000000000000001,-6.0],"type":"VEC3"},{"bufferView":0,"byteOffset":46008,"componentType":5126,"count":66,"max":[-4.800000000000001,6.000000000000001,6.0],"min":[-6.000000000000001,4.800000000000001,-6.0],"type":"VEC3"},{"bufferView":0,"byteOffset":46800,"componentType":5126,"count":132,"max":[6.000000000000001,6.000000000000001,-6.0],"min":[-6.000000000000001,-6.000000000000001,-6.0],"type":"VEC3"},{"bufferView":0,"byteOffset":48384,"componentType":5126,"count":4,"max":[4.800000000000001,-6.000000000000001,6.0],"min":[-4.800000000000001,-6.000000000000001,-6.0],"type":"VEC3"},{"bufferView":0,"byteOffset":48432,"componentType":5126,"count":4,"max":[4.800000000000001,6.000000000000001,6.0],"min":[-4.800000000000001,6.000000000000001,-6.0],"type":"VEC3"},{"bufferView":0,"byteOffset":48480,"componentType":5126,"count":66,"max":[6.000000000000001,-4.800000000000001,6.0],"min":[4.800000000000001,-6.000000000000001,-6.0],"type":"VEC3"},{"bufferView":0,"byteOffset":49272,"componentType":5126,"count":66,"max":[6.000000000000001,6.000000000000001,6.0],"min":[4.800000000000001,4.800000000000001,-6.0],"type":"VEC3"},{"bufferView":0,"byteOffset":50064,"componentType":5126,"count":4,"max":[6.000000000000001,4.800000000000001,6.0],"min":[6.000000000000001,-4.800000000000001,-6.0],"type":"VEC3"},{"bufferView":1,"byteOffset":0,"componentType":5126,"count":254,"type":"VEC3"},{"bufferView":1,"byteOffset":3048,"componentType":5126,"count":328,"type":"VEC3"},{"bufferView":1,"byteOffset":6984,"componentType":5126,"count":254,"type":"VEC3"},{"bufferView":1,"byteOffset":10032,"componentType":5126,"count":255,"type":"VEC3"},{"bufferView":1,"byteOffset":13092,"componentType":5126,"count":130,"type":"VEC3"},{"bufferView":1,"byteOffset":14652,"componentType":5126,"count":130,"type":"VEC3"},{"bufferView":1,"byteOffset":16212,"componentType":5126,"count":4,"type":"VEC3"},{"bufferView":1,"byteOffset":16260,"componentType":5126,"count":4,"type":"VEC3"},{"bufferView":1,"byteOffset":16308,"componentType":5126,"count":126,"type":"VEC3"},{"bufferView":1,"byteOffset":17820,"componentType":5126,"count":57,"type":"VEC3"},{"bufferView":1,"byteOffset":18504,"componentType":5126,"count":4,"type":"VEC3"},{"bufferView":1,"byteOffset":18552,"componentType":5126,"count":132,"type":"VEC3"},{"bufferView":1,"byteOffset":20136,"componentType":5126,"count":66,"type":"VEC3"},{"bufferView":1,"byteOffset":20928,"componentType":5126,"count":66,"type":"VEC3"},{"bufferView":1,"byteOffset":21720,"componentType":5126,"count":132,"type":"VEC3"},{"bufferView":1,"byteOffset":23304,"componentType":5126,"count":4,"type":"VEC3"},{"bufferView":1,"byteOffset":23352,"componentType":5126,"count":4,"type":"VEC3"},{"bufferView":1,"byteOffset":23400,"componentType":5126,"count":66,"type":"VEC3"},{"bufferView":1,"byteOffset":24192,"componentType":5126,"count":66,"type":"VEC3"},{"bufferView":1,"byteOffset":24984,"componentType":5126,"count":4,"type":"VEC3"},{"bufferView":1,"byteOffset":25032,"componentType":5126,"count":254,"type":"VEC3"},{"bufferView":1,"byteOffset":28080,"componentType":5126,"count":358,"type":"VEC3"},{"bufferView":1,"byteOffset":32376,"componentType":5126,"count":254,"type":"VEC3"},{"bufferView":1,"byteOffset":35424,"componentType":5126,"count":257,"type":"VEC3"},{"bufferView":1,"byteOffset":38508,"componentType":5126,"count":6,"type":"VEC3"},{"bufferView":1,"byteOffset":38580,"componentType":5126,"count":128,"type":"VEC3"},{"bufferView":1,"byteOffset":40116,"componentType":5126,"count":6,"type":"VEC3"},{"bufferView":1,"byteOffset":40188,"componentType":5126,"count":128,"type":"VEC3"},{"bufferView":1,"byteOffset":41724,"componentType":5126,"count":126,"type":"VEC3"},{"bufferView":1,"byteOffset":43236,"componentType":5126,"count":29,"type":"VEC3"},{"bufferView":1,"byteOffset":43584,"componentType":5126,"count":4,"type":"VEC3"},{"bufferView":1,"byteOffset":43632,"componentType":5126,"count":132,"type":"VEC3"},{"bufferView":1,"byteOffset":45216,"componentType":5126,"count":66,"type":"VEC3"},{"bufferView":1,"byteOffset":46008,"componentType":5126,"count":66,"type":"VEC3"},{"bufferView":1,"byteOffset":46800,"componentType":5126,"count":132,"type":"VEC3"},{"bufferView":1,"byteOffset":48384,"componentType":5126,"count":4,"type":"VEC3"},{"bufferView":1,"byteOffset":48432,"componentType":5126,"count":4,"type":"VEC3"},{"bufferView":1,"byteOffset":48480,"componentType":5126,"count":66,"type":"VEC3"},{"bufferView":1,"byteOffset":49272,"componentType":5126,"count":66,"type":"VEC3"},{"bufferView":1,"byteOffset":50064,"componentType":5126,"count":4,"type":"VEC3"},{"bufferView":2,"byteOffset":0,"componentType":5123,"count":756,"type":"SCALAR"},{"bufferView":2,"byteOffset":1512,"componentType":5123,"count":984,"type":"SCALAR"},{"bufferView":2,"byteOffset":3480,"componentType":5123,"count":762,"type":"SCALAR"},{"bufferView":2,"byteOffset":5004,"componentType":5123,"count":759,"type":"SCALAR"},{"bufferView":2,"byteOffset":6524,"componentType":5123,"count":384,"type":"SCALAR"},{"bufferView":2,"byteOffset":7292,"componentType":5123,"count":384,"type":"SCALAR"},{"bufferView":2,"byteOffset":8060,"componentType":5123,"count":6,"type":"SCALAR"},{"bufferView":2,"byteOffset":8072,"componentType":5123,"count":6,"type":"SCALAR"},{"bufferView":2,"byteOffset":8084,"componentType":5123,"count":372,"type":"SCALAR"},{"bufferView":2,"byteOffset":8828,"componentType":5123,"count":165,"type":"SCALAR"},{"bufferView":2,"byteOffset":9160,"componentType":5123,"count":6,"type":"SCALAR"},{"bufferView":2,"byteOffset":9172,"componentType":5123,"count":390,"type":"SCALAR"},{"bufferView":2,"byteOffset":9952,"componentType":5123,"count":192,"type":"SCALAR"},{"bufferView":2,"byteOffset":10336,"componentType":5123,"count":192,"type":"SCALAR"},{"bufferView":2,"byteOffset":10720,"componentType":5123,"count":390,"type":"SCALAR"},{"bufferView":2,"byteOffset":11500,"componentType":5123,"count":6,"type":"SCALAR"},{"bufferView":2,"byteOffset":11512,"componentType":5123,"count":6,"type":"SCALAR"},{"bufferView":2,"byteOffset":11524,"componentType":5123,"count":192,"type":"SCALAR"},{"bufferView":2,"byteOffset":11908,"componentType":5123,"count":192,"type":"SCALAR"},{"bufferView":2,"byteOffset":12292,"componentType":5123,"count":6,"type":"SCALAR"},{"bufferView":2,"byteOffset":12304,"componentType":5123,"count":756,"type":"SCALAR"},{"bufferView":2,"byteOffset":13816,"componentType":5123,"count":1074,"type":"SCALAR"},{"bufferView":2,"byteOffset":15964,"componentType":5123,"count":762,"type":"SCALAR"},{"bufferView":2,"byteOffset":17488,"componentType":5123,"count":765,"type":"SCALAR"},{"bufferView":2,"byteOffset":19020,"componentType":5123,"count":12,"type":"SCALAR"},{"bufferView":2,"byteOffset":19044,"componentType":5123,"count":378,"type":"SCALAR"},{"bufferView":2,"byteOffset":19800,"componentType":5123,"count":12,"type":"SCALAR"},{"bufferView":2,"byteOffset":19824,"componentType":5123,"count":378,"type":"SCALAR"},{"bufferView":2,"byteOffset":20580,"componentType":5123,"count":372,"type":"SCALAR"},{"bufferView":2,"byteOffset":21324,"componentType":5123,"count":81,"type":"SCALAR"},{"bufferView":2,"byteOffset":21488,"componentType":5123,"count":6,"type":"SCALAR"},{"bufferView":2,"byteOffset":21500,"componentType":5123,"count":390,"type":"SCALAR"},{"bufferView":2,"byteOffset":22280,"componentType":5123,"count":192,"type":"SCALAR"},{"bufferView":2,"byteOffset":22664,"componentType":5123,"count":192,"type":"SCALAR"},{"bufferView":2,"byteOffset":23048,"componentType":5123,"count":390,"type":"SCALAR"},{"bufferView":2,"byteOffset":23828,"componentType":5123,"count":6,"type":"SCALAR"},{"bufferView":2,"byteOffset":23840,"componentType":5123,"count":6,"type":"SCALAR"},{"bufferView":2,"byteOffset":23852,"componentType":5123,"count":192,"type":"SCALAR"},{"bufferView":2,"byteOffset":24236,"componentType":5123,"count":192,"type":"SCALAR"},{"bufferView":2,"byteOffset":24620,"componentType":5123,"count":6,"type":"SCALAR"}],"asset":{"generator":"Open CASCADE Technology 7.8 [dev.opencascade.org]","version":"2.0"},"bufferViews":[{"buffer":0,"byteLength":50112,"byteOffset":0,"byteStride":12,"target":34962},{"buffer":0,"byteLength":50112,"byteOffset":50112,"byteStride":12,"target":34962},{"buffer":0,"byteLength":24632,"byteOffset":100224,"target":34963}],"buffers":[{"byteLength":124856,"uri":"ic_ice_montaj_ornegi.bin"}],"materials":[{"name":"mat_0","pbrMetallicRoughness":{"baseColorFactor":[0.800000011920929,0.800000011920929,0.8999999761581421,1.0]},"doubleSided":true},{"name":"mat_1","pbrMetallicRoughness":{"baseColorFactor":[0.20000000298023224,0.6000000238418579,0.30000001192092896,1.0]},"doubleSided":true},{"name":"mat_2","pbrMetallicRoughness":{"baseColorFactor":[0.6000000238418579,0.30000001192092896,0.20000000298023224,1.0]},"doubleSided":true}],"meshes":[{"name":"vida_part","primitives":[{"attributes":{"NORMAL":40,"POSITION":0},"indices":80,"material":0,"mode":4},{"attributes":{"NORMAL":41,"POSITION":1},"indices":81,"material":0,"mode":4},{"attributes":{"NORMAL":42,"POSITION":2},"indices":82,"material":0,"mode":4},{"attributes":{"NORMAL":43,"POSITION":3},"indices":83,"material":0,"mode":4},{"attributes":{"NORMAL":44,"POSITION":4},"indices":84,"material":0,"mode":4},{"attributes":{"NORMAL":45,"POSITION":5},"indices":85,"material":0,"mode":4},{"attributes":{"NORMAL":46,"POSITION":6},"indices":86,"material":0,"mode":4},{"attributes":{"NORMAL":47,"POSITION":7},"indices":87,"material":0,"mode":4},{"attributes":{"NORMAL":48,"POSITION":8},"indices":88,"material":0,"mode":4},{"attributes":{"NORMAL":49,"POSITION":9},"indices":89,"material":0,"mode":4}]},{"name":"destek_part","primitives":[{"attributes":{"NORMAL":50,"POSITION":10},"indices":90,"material":1,"mode":4},{"attributes":{"NORMAL":51,"POSITION":11},"indices":91,"material":1,"mode":4},{"attributes":{"NORMAL":52,"POSITION":12},"indices":92,"material":1,"mode":4},{"attributes":{"NORMAL":53,"POSITION":13},"indices":93,"material":1,"mode":4},{"attributes":{"NORMAL":54,"POSITION":14},"indices":94,"material":1,"mode":4},{"attributes":{"NORMAL":55,"POSITION":15},"indices":95,"material":1,"mode":4},{"attributes":{"NORMAL":56,"POSITION":16},"indices":96,"material":1,"mode":4},{"attributes":{"NORMAL":57,"POSITION":17},"indices":97,"material":1,"mode":4},{"attributes":{"NORMAL":58,"POSITION":18},"indices":98,"material":1,"mode":4},{"attributes":{"NORMAL":59,"POSITION":19},"indices":99,"material":1,"mode":4}]},{"name":"vida2_part","primitives":[{"attributes":{"NORMAL":60,"POSITION":20},"indices":100,"material":0,"mode":4},{"attributes":{"NORMAL":61,"POSITION":21},"indices":101,"material":0,"mode":4},{"attributes":{"NORMAL":62,"POSITION":22},"indices":102,"material":0,"mode":4},{"attributes":{"NORMAL":63,"POSITION":23},"indices":103,"material":0,"mode":4},{"attributes":{"NORMAL":64,"POSITION":24},"indices":104,"material":0,"mode":4},{"attributes":{"NORMAL":65,"POSITION":25},"indices":105,"material":0,"mode":4},{"attributes":{"NORMAL":66,"POSITION":26},"indices":106,"material":0,"mode":4},{"attributes":{"NORMAL":67,"POSITION":27},"indices":107,"material":0,"mode":4},{"attributes":{"NORMAL":68,"POSITION":28},"indices":108,"material":0,"mode":4},{"attributes":{"NORMAL":69,"POSITION":29},"indices":109,"material":0,"mode":4}]},{"name":"destek2_part","primitives":[{"attributes":{"NORMAL":70,"POSITION":30},"indices":110,"material":2,"mode":4},{"attributes":{"NORMAL":71,"POSITION":31},"indices":111,"material":2,"mode":4},{"attributes":{"NORMAL":72,"POSITION":32},"indices":112,"material":2,"mode":4},{"attributes":{"NORMAL":73,"POSITION":33},"indices":113,"material":2,"mode":4},{"attributes":{"NORMAL":74,"POSITION":34},"indices":114,"material":2,"mode":4},{"attributes":{"NORMAL":75,"POSITION":35},"indices":115,"material":2,"mode":4},{"attributes":{"NORMAL":76,"POSITION":36},"indices":116,"material":2,"mode":4},{"attributes":{"NORMAL":77,"POSITION":37},"indices":117,"material":2,"mode":4},{"attributes":{"NORMAL":78,"POSITION":38},"indices":118,"material":2,"mode":4},{"attributes":{"NORMAL":79,"POSITION":39},"indices":119,"material":2,"mode":4}]}],"nodes":[{"children":[1,6],"rotation":[-0.7071067811865475,0.0,0.0,0.7071067811865475],"name":"6f82f710-35a8-11f0-8198-78af08feb68a"},{"children":[2,4],"translation":[-20.0,0.0,0.0],"name":"Birim1"},{"children":[3],"name":"vida"},{"mesh":0,"name":"vida_part"},{"children":[5],"translation":[0.0,0.0,-20.0],"name":"destek"},{"mesh":1,"name":"destek_part"},{"children":[7,9],"translation":[20.0,0.0,0.0],"name":"Birim2"},{"children":[8],"name":"vida2"},{"mesh":2,"name":"vida2_part"},{"children":[10],"translation":[0.0,0.0,-18.0],"name":"destek2"},{"mesh":3,"name":"destek2_part"}],"scene":0,"scenes":[{"nodes":[0]}]}