{"accessors":[{"bufferView":0,"byteOffset":0,"componentType":5126,"count":254,"max":[4.0,3.998756728003265,19.0],"min":[-4.0,-3.998756728003266,15.0],"type":"VEC3"},{"bufferView":0,"byteOffset":3048,"componentType":5126,"count":252,"max":[4.0,3.998756728003265,15.0],"min":[-4.0,-3.998756728003266,15.0],"type":"VEC3"},{"bufferView":0,"byteOffset":6072,"componentType":5126,"count":254,"max":[4.0,3.998756728003265,19.0],"min":[-4.0,-3.998756728003266,19.0],"type":"VEC3"},{"bufferView":0,"byteOffset":9120,"componentType":5126,"count":254,"max":[2.5,2.4992229550020406,15.0],"min":[-2.5,-2.499222955002041,0.0],"type":"VEC3"},{"bufferView":0,"byteOffset":12168,"componentType":5126,"count":4,"max":[2.1999999999999997,0.6,19.0],"min":[-2.1999999999999997,0.6,17.0],"type":"VEC3"},{"bufferView":0,"byteOffset":12216,"componentType":5126,"count":128,"max":[-2.1999999999999997,0.6,19.0],"min":[-2.79981350920049,-0.6,17.0],"type":"VEC3"},{"bufferView":0,"byteOffset":13752,"componentType":5126,"count":4,"max":[2.1999999999999997,-0.6,19.0],"min":[-2.1999999999999997,-0.6,17.0],"type":"VEC3"},{"bufferView":0,"byteOffset":13800,"componentType":5126,"count":128,"max":[2.79981350920049,0.6,19.0],"min":[2.1999999999999997,-0.6,17.0],"type":"VEC3"},{"bufferView":0,"byteOffset":15336,"componentType":5126,"count":126,"max":[2.5,2.4992229550020406,0.0],"min":[-2.5,-2.499222955002041,0.0],"type":"VEC3"},{"bufferView":0,"byteOffset":16848,"componentType":5126,"count":128,"max":[2.79981350920049,0.6,17.0],"min":[-2.79981350920049,-0.6,17.0],"type":"VEC3"},{"bufferView":0,"byteOffset":18384,"componentType":5126,"count":4,"max":[-7.5,6.0,7.5],"min":[-7.5,-6.0,-7.5],"type":"VEC3"},{"bufferView":0,"byteOffset":18432,"componentType":5126,"count":258,"max":[7.5,7.5,7.5],"min":[-7.5,-7.5,7.5],"type":"VEC3"},{"bufferView":0,"byteOffset":21528,"componentType":5126,"count":66,"max":[-6.0,-6.0,7.5],"min":[-7.5,-7.5,-7.5],"type":"VEC3"},{"bufferView":0,"byteOffset":22320,"componentType":5126,"count":66,"max":[-6.0,7.5,7.5],"min":[-7.5,6.0,-7.5],"type":"VEC3"},{"bufferView":0,"byteOffset":23112,"componentType":5126,"count":258,"max":[7.5,7.5,-7.5],"min":[-7.5,-7.5,-7.500000200000001],"type":"VEC3"},{"bufferView":0,"byteOffset":26208,"componentType":5126,"count":4,"max":[6.0,-7.5,7.5],"min":[-6.0,-7.5,-7.5],"type":"VEC3"},{"bufferView":0,"byteOffset":26256,"componentType":5126,"count":4,"max":[6.0,7.5,7.5],"min":[-6.0,7.5,-7.5],"type":"VEC3"},{"bufferView":0,"byteOffset":26304,"componentType":5126,"count":66,"max":[7.5,-6.0,7.5],"min":[6.0,-7.5,-7.5],"type":"VEC3"},{"bufferView":0,"byteOffset":27096,"componentType":5126,"count":66,"max":[7.5,7.5,7.5],"min":[6.0,6.0,-7.5],"type":"VEC3"},{"bufferView":0,"byteOffset":27888,"componentType":5126,"count":4,"max":[7.5,6.0,7.5],"min":[7.5,-6.0,-7.5],"type":"VEC3"},{"bufferView":0,"byteOffset":27936,"componentType":5126,"count":254,"max":[2.6,2.599191873202123,7.5],"min":[-2.6,-2.599191873202123,-7.500000200000001],"type":"VEC3"},{"bufferView":0,"byteOffset":30984,"componentType":5126,"count":254,"max":[4.0,3.998756728003265,16.0],"min":[-4.0,-3.998756728003266,12.0],"type":"VEC3"},{"bufferView":0,"byteOffset":34032,"componentType":5126,"count":252,"max":[4.0,3.998756728003265,12.0],"min":[-4.0,-3.998756728003266,12.0],"type":"VEC3"},{"bufferView":0,"byteOffset":37056,"componentType":5126,"count":254,"max":[4.0,3.998756728003265,16.0],"min":[-4.0,-3.998756728003266,16.0],"type":"VEC3"},{"bufferView":0,"byteOffset":40104,"componentType":5126,"count":254,"max":[2.0,1.9993783640016325,12.0],"min":[-2.0,-1.999378364001633,0.0],"type":"VEC3"},{"bufferView":0,"byteOffset":43152,"componentType":5126,"count":4,"max":[2.1999999999999997,0.6,16.0],"min":[-2.1999999999999997,0.6,14.0],"type":"VEC3"},{"bufferView":0,"byteOffset":43200,"componentType":5126,"count":128,"max":[-2.1999999999999997,0.6,16.0],"min":[-2.79981350920049,-0.6,14.0],"type":"VEC3"},{"bufferView":0,"byteOffset":44736,"componentType":5126,"count":4,"max":[2.1999999999999997,-0.6,16.0],"min":[-2.1999999999999997,-0.6,14.0],"type":"VEC3"},{"bufferView":0,"byteOffset":44784,"componentType":5126,"count":128,"max":[2.79981350920049,0.6,16.0],"min":[2.1999999999999997,-0.6,14.0],"type":"VEC3"},{"bufferView":0,"byteOffset":46320,"componentType":5126,"count":126,"max":[2.0,1.9993783640016325,0.0],"min":[-2.0,-1.999378364001633,0.0],"type":"VEC3"},{"bufferView":0,"byteOffset":47832,"componentType":5126,"count":128,"max":[2.79981350920049,0.6,14.0],"min":[-2.79981350920049,-0.6,14.0],"type":"VEC3"},{"bufferView":0,"byteOffset":49368,"componentType":5126,"count":4,"max":[-6.000000000000001,4.800000000000001,6.0],"min":[-6.000000000000001,-4.800000000000001,-6.0],"type":"VEC3"},{"bufferView":0,"byteOffset":49416,"componentType":5126,"count":258,"max":[6.000000000000001,6.000000000000001,6.0],"min":[-6.000000000000001,-6.000000000000001,5.999999999999999],"type":"VEC3"},{"bufferView":0,"byteOffset":52512,"componentType":5126,"count":66,"max":[-4.800000000000001,-4.800000000000001,6.0],"min":[-6.000000000000001,-6.000000000000001,-6.0],"type":"VEC3"},{"bufferView":0,"byteOffset":53304,"componentType":5126,"count":66,"max":[-4.800000000000001,6.000000000000001,6.0],"min":[-6.000000000000001,4.800000000000001,-6.0],"type":"VEC3"},{"bufferView":0,"byteOffset":54096,"componentType":5126,"count":258,"max":[6.000000000000001,6.000000000000001,-6.0],"min":[-6.000000000000001,-6.000000000000001,-6.000000200000002],"type":"VEC3"},{"bufferView":0,"byteOffset":57192,"componentType":5126,"count":4,"max":[4.800000000000001,-6.000000000000001,6.0],"min":[-4.800000000000001,-6.000000000000001,-6.0],"type":"VEC3"},{"bufferView":0,"byteOffset":57240,"componentType":5126,"count":4,"max":[4.800000000000001,6.000000000000001,6.0],"min":[-4.800000000000001,6.000000000000001,-6.0],"type":"VEC3"},{"bufferView":0,"byteOffset":57288,"componentType":5126,"count":66,"max":[6.000000000000001,-4.800000000000001,6.0],"min":[4.800000000000001,-6.000000000000001,-6.0],"type":"VEC3"},{"bufferView":0,"byteOffset":58080,"componentType":5126,"count":66,"max":[6.000000000000001,6.000000000000001,6.0],"min":[4.800000000000001,4.800000000000001,-6.0],"type":"VEC3"},{"bufferView":0,"byteOffset":58872,"componentType":5126,"count":4,"max":[6.000000000000001,4.800000000000001,6.0],"min":[6.000000000000001,-4.800000000000001,-6.0],"type":"VEC3"},{"bufferView":0,"byteOffset":58920,"componentType":5126,"count":254,"max":[2.1,2.0993472822017147,5.999999999999999],"min":[-2.1,-2.0993472822017147,-6.000000200000002],"type":"VEC3"},{"bufferView":1,"byteOffset":0,"componentType":5126,"count":254,"type":"VEC3"},{"bufferView":1,"byteOffset":3048,"componentType":5126,"count":252,"type":"VEC3"},{"bufferView":1,"byteOffset":6072,"componentType":5126,"count":254,"type":"VEC3"},{"bufferView":1,"byteOffset":9120,"componentType":5126,"count":254,"type":"VEC3"},{"bufferView":1,"byteOffset":12168,"componentType":5126,"count":4,"type":"VEC3"},{"bufferView":1,"byteOffset":12216,"componentType":5126,"count":128,"type":"VEC3"},{"bufferView":1,"byteOffset":13752,"componentType":5126,"count":4,"type":"VEC3"},{"bufferView":1,"byteOffset":13800,"componentType":5126,"count":128,"type":"VEC3"},{"bufferView":1,"byteOffset":15336,"componentType":5126,"count":126,"type":"VEC3"},{"bufferView":1,"byteOffset":16848,"componentType":5126,"count":128,"type":"VEC3"},{"bufferView":1,"byteOffset":18384,"componentType":5126,"count":4,"type":"VEC3"},{"bufferView":1,"byteOffset":18432,"componentType":5126,"count":258,"type":"VEC3"},{"bufferView":1,"byteOffset":21528,"componentType":5126,"count":66,"type":"VEC3"},{"bufferView":1,"byteOffset":22320,"componentType":5126,"count":66,"type":"VEC3"},{"bufferView":1,"byteOffset":23112,"componentType":5126,"count":258,"type":"VEC3"},{"bufferView":1,"byteOffset":26208,"componentType":5126,"count":4,"type":"VEC3"},{"bufferView":1,"byteOffset":26256,"componentType":5126,"count":4,"type":"VEC3"},{"bufferView":1,"byteOffset":26304,"componentType":5126,"count":66,"type":"VEC3"},{"bufferView":1,"byteOffset":27096,"componentType":5126,"count":66,"type":"VEC3"},{"bufferView":1,"byteOffset":27888,"componentType":5126,"count":4,"type":"VEC3"},{"bufferView":1,"byteOffset":27936,"componentType":5126,"count":254,"type":"VEC3"},{"bufferView":1,"byteOffset":30984,"componentType":5126,"count":254,"type":"VEC3"},{"bufferView":1,"byteOffset":34032,"componentType":5126,"count":252,"type":"VEC3"},{"bufferView":1,"byteOffset":37056,"componentType":5126,"count":254,"type":"VEC3"},{"bufferView":1,"byteOffset":40104,"componentType":5126,"count":254,"type":"VEC3"},{"bufferView":1,"byteOffset":43152,"componentType":5126,"count":4,"type":"VEC3"},{"bufferView":1,"byteOffset":43200,"componentType":5126,"count":128,"type":"VEC3"},{"bufferView":1,"byteOffset":44736,"componentType":5126,"count":4,"type":"VEC3"},{"bufferView":1,"byteOffset":44784,"componentType":5126,"count":128,"type":"VEC3"},{"bufferView":1,"byteOffset":46320,"componentType":5126,"count":126,"type":"VEC3"},{"bufferView":1,"byteOffset":47832,"componentType":5126,"count":128,"type":"VEC3"},{"bufferView":1,"byteOffset":49368,"componentType":5126,"count":4,"type":"VEC3"},{"bufferView":1,"byteOffset":49416,"componentType":5126,"count":258,"type":"VEC3"},{"bufferView":1,"byteOffset":52512,"componentType":5126,"count":66,"type":"VEC3"},{"bufferView":1,"byteOffset":53304,"componentType":5126,"count":66,"type":"VEC3"},{"bufferView":1,"byteOffset":54096,"componentType":5126,"count":258,"type":"VEC3"},{"bufferView":1,"byteOffset":57192,"componentType":5126,"count":4,"type":"VEC3"},{"bufferView":1,"byteOffset":57240,"componentType":5126,"count":4,"type":"VEC3"},{"bufferView":1,"byteOffset":57288,"componentType":5126,"count":66,"type":"VEC3"},{"bufferView":1,"byteOffset":58080,"componentType":5126,"count":66,"type":"VEC3"},{"bufferView":1,"byteOffset":58872,"componentType":5126,"count":4,"type":"VEC3"},{"bufferView":1,"byteOffset":58920,"componentType":5126,"count":254,"type":"VEC3"},{"bufferView":2,"byteOffset":0,"componentType":5123,"count":756,"type":"SCALAR"},{"bufferView":2,"byteOffset":1512,"componentType":5123,"count":756,"type":"SCALAR"},{"bufferView":2,"byteOffset":3024,"componentType":5123,"count":762,"type":"SCALAR"},{"bufferView":2,"byteOffset":4548,"componentType":5123,"count":756,"type":"SCALAR"},{"bufferView":2,"byteOffset":6060,"componentType":5123,"count":6,"type":"SCALAR"},{"bufferView":2,"byteOffset":6072,"componentType":5123,"count":378,"type":"SCALAR"},{"bufferView":2,"byteOffset":6828,"componentType":5123,"count":6,"type":"SCALAR"},{"bufferView":2,"byteOffset":6840,"componentType":5123,"count":378,"type":"SCALAR"},{"bufferView":2,"byteOffset":7596,"componentType":5123,"count":372,"type":"SCALAR"},{"bufferView":2,"byteOffset":8340,"componentType":5123,"count":378,"type":"SCALAR"},{"bufferView":2,"byteOffset":9096,"componentType":5123,"count":6,"type":"SCALAR"},{"bufferView":2,"byteOffset":9108,"componentType":5123,"count":774,"type":"SCALAR"},{"bufferView":2,"byteOffset":10656,"componentType":5123,"count":192,"type":"SCALAR"},{"bufferView":2,"byteOffset":11040,"componentType":5123,"count":192,"type":"SCALAR"},{"bufferView":2,"byteOffset":11424,"componentType":5123,"count":774,"type":"SCALAR"},{"bufferView":2,"byteOffset":12972,"componentType":5123,"count":6,"type":"SCALAR"},{"bufferView":2,"byteOffset":12984,"componentType":5123,"count":6,"type":"SCALAR"},{"bufferView":2,"byteOffset":12996,"componentType":5123,"count":192,"type":"SCALAR"},{"bufferView":2,"byteOffset":13380,"componentType":5123,"count":192,"type":"SCALAR"},{"bufferView":2,"byteOffset":13764,"componentType":5123,"count":6,"type":"SCALAR"},{"bufferView":2,"byteOffset":13776,"componentType":5123,"count":756,"type":"SCALAR"},{"bufferView":2,"byteOffset":15288,"componentType":5123,"count":756,"type":"SCALAR"},{"bufferView":2,"byteOffset":16800,"componentType":5123,"count":756,"type":"SCALAR"},{"bufferView":2,"byteOffset":18312,"componentType":5123,"count":762,"type":"SCALAR"},{"bufferView":2,"byteOffset":19836,"componentType":5123,"count":756,"type":"SCALAR"},{"bufferView":2,"byteOffset":21348,"componentType":5123,"count":6,"type":"SCALAR"},{"bufferView":2,"byteOffset":21360,"componentType":5123,"count":378,"type":"SCALAR"},{"bufferView":2,"byteOffset":22116,"componentType":5123,"count":6,"type":"SCALAR"},{"bufferView":2,"byteOffset":22128,"componentType":5123,"count":378,"type":"SCALAR"},{"bufferView":2,"byteOffset":22884,"componentType":5123,"count":372,"type":"SCALAR"},{"bufferView":2,"byteOffset":23628,"componentType":5123,"count":378,"type":"SCALAR"},{"bufferView":2,"byteOffset":24384,"componentType":5123,"count":6,"type":"SCALAR"},{"bufferView":2,"byteOffset":24396,"componentType":5123,"count":774,"type":"SCALAR"},{"bufferView":2,"byteOffset":25944,"componentType":5123,"count":192,"type":"SCALAR"},{"bufferView":2,"byteOffset":26328,"componentType":5123,"count":192,"type":"SCALAR"},{"bufferView":2,"byteOffset":26712,"componentType":5123,"count":774,"type":"SCALAR"},{"bufferView":2,"byteOffset":28260,"componentType":5123,"count":6,"type":"SCALAR"},{"bufferView":2,"byteOffset":28272,"componentType":5123,"count":6,"type":"SCALAR"},{"bufferView":2,"byteOffset":28284,"componentType":5123,"count":192,"type":"SCALAR"},{"bufferView":2,"byteOffset":28668,"componentType":5123,"count":192,"type":"SCALAR"},{"bufferView":2,"byteOffset":29052,"componentType":5123,"count":6,"type":"SCALAR"},{"bufferView":2,"byteOffset":29064,"componentType":5123,"count":756,"type":"SCALAR"}],"asset":{"generator":"Open CASCADE Technology 7.8 [dev.opencascade.org]","version":"2.0"},"bufferViews":[{"buffer":0,"byteLength":61968,"byteOffset":0,"byteStride":12,"target":34962},{"buffer":0,"byteLength":61968,"byteOffset":61968,"byteStride":12,"target":34962},{"buffer":0,"byteLength":30576,"byteOffset":123936,"target":34963}],"buffers":[{"byteLength":154512,"uri":"ic_ice_montaj_delikli_ornegi.bin"}],"materials":[{"name":"mat_0","pbrMetallicRoughness":{"baseColorFactor":[0.800000011920929,0.800000011920929,0.8999999761581421,1.0]},"doubleSided":true},{"name":"mat_1","pbrMetallicRoughness":{"baseColorFactor":[0.20000000298023224,0.6000000238418579,0.30000001192092896,1.0]},"doubleSided":true},{"name":"mat_2","pbrMetallicRoughness":{"baseColorFactor":[0.6000000238418579,0.30000001192092896,0.20000000298023224,1.0]},"doubleSided":true}],"meshes":[{"name":"vida1_part","primitives":[{"attributes":{"NORMAL":42,"POSITION":0},"indices":84,"material":0,"mode":4},{"attributes":{"NORMAL":43,"POSITION":1},"indices":85,"material":0,"mode":4},{"attributes":{"NORMAL":44,"POSITION":2},"indices":86,"material":0,"mode":4},{"attributes":{"NORMAL":45,"POSITION":3},"indices":87,"material":0,"mode":4},{"attributes":{"NORMAL":46,"POSITION":4},"indices":88,"material":0,"mode":4},{"attributes":{"NORMAL":47,"POSITION":5},"indices":89,"material":0,"mode":4},{"attributes":{"NORMAL":48,"POSITION":6},"indices":90,"material":0,"mode":4},{"attributes":{"NORMAL":49,"POSITION":7},"indices":91,"material":0,"mode":4},{"attributes":{"NORMAL":50,"POSITION":8},"indices":92,"material":0,"mode":4},{"attributes":{"NORMAL":51,"POSITION":9},"indices":93,"material":0,"mode":4}]},{"name":"destek1_part","primitives":[{"attributes":{"NORMAL":52,"POSITION":10},"indices":94,"material":1,"mode":4},{"attributes":{"NORMAL":53,"POSITION":11},"indices":95,"material":1,"mode":4},{"attributes":{"NORMAL":54,"POSITION":12},"indices":96,"material":1,"mode":4},{"attributes":{"NORMAL":55,"POSITION":13},"indices":97,"material":1,"mode":4},{"attributes":{"NORMAL":56,"POSITION":14},"indices":98,"material":1,"mode":4},{"attributes":{"NORMAL":57,"POSITION":15},"indices":99,"material":1,"mode":4},{"attributes":{"NORMAL":58,"POSITION":16},"indices":100,"material":1,"mode":4},{"attributes":{"NORMAL":59,"POSITION":17},"indices":101,"material":1,"mode":4},{"attributes":{"NORMAL":60,"POSITION":18},"indices":102,"material":1,"mode":4},{"attributes":{"NORMAL":61,"POSITION":19},"indices":103,"material":1,"mode":4},{"attributes":{"NORMAL":62,"POSITION":20},"indices":104,"material":1,"mode":4}]},{"name":"vida2_part","primitives":[{"attributes":{"NORMAL":63,"POSITION":21},"indices":105,"material":0,"mode":4},{"attributes":{"NORMAL":64,"POSITION":22},"indices":106,"material":0,"mode":4},{"attributes":{"NORMAL":65,"POSITION":23},"indices":107,"material":0,"mode":4},{"attributes":{"NORMAL":66,"POSITION":24},"indices":108,"material":0,"mode":4},{"attributes":{"NORMAL":67,"POSITION":25},"indices":109,"material":0,"mode":4},{"attributes":{"NORMAL":68,"POSITION":26},"indices":110,"material":0,"mode":4},{"attributes":{"NORMAL":69,"POSITION":27},"indices":111,"material":0,"mode":4},{"attributes":{"NORMAL":70,"POSITION":28},"indices":112,"material":0,"mode":4},{"attributes":{"NORMAL":71,"POSITION":29},"indices":113,"material":0,"mode":4},{"attributes":{"NORMAL":72,"POSITION":30},"indices":114,"material":0,"mode":4}]},{"name":"destek2_part","primitives":[{"attributes":{"NORMAL":73,"POSITION":31},"indices":115,"material":2,"mode":4},{"attributes":{"NORMAL":74,"POSITION":32},"indices":116,"material":2,"mode":4},{"attributes":{"NORMAL":75,"POSITION":33},"indices":117,"material":2,"mode":4},{"attributes":{"NORMAL":76,"POSITION":34},"indices":118,"material":2,"mode":4},{"attributes":{"NORMAL":77,"POSITION":35},"indices":119,"material":2,"mode":4},{"attributes":{"NORMAL":78,"POSITION":36},"indices":120,"material":2,"mode":4},{"attributes":{"NORMAL":79,"POSITION":37},"indices":121,"material":2,"mode":4},{"attributes":{"NORMAL":80,"POSITION":38},"indices":122,"material":2,"mode":4},{"attributes":{"NORMAL":81,"POSITION":39},"indices":123,"material":2,"mode":4},{"attributes":{"NORMAL":82,"POSITION":40},"indices":124,"material":2,"mode":4},{"attributes":{"NORMAL":83,"POSITION":41},"indices":125,"material":2,"mode":4}]}],"nodes":[{"children":[1,6],"rotation":[-0.7071067811865475,0.0,0.0,0.7071067811865475],"name":"28bd1a01-35aa-11f0-8198-78af08feb68a"},{"children":[2,4],"translation":[-20.0,0.0,0.0],"name":"Birim1"},{"children":[3],"name":"vida1"},{"mesh":0,"name":"vida1_part"},{"children":[5],"translation":[0.0,0.0,-20.0],"name":"destek1"},{"mesh":1,"name":"destek1_part"},{"children":[7,9],"translation":[20.0,0.0,0.0],"name":"Birim2"},{"children":[8],"name":"vida2"},{"mesh":2,"name":"vida2_part"},{"children":[10],"translation":[0.0,0.0,-18.0],"name":"destek2"},{"mesh":3,"name":"destek2_part"}],"scene":0,"scenes":[{"nodes":[0]}]}