{"accessors":[{"bufferView":0,"byteOffset":0,"componentType":5126,"count":4,"max":[-0.0025,0.0075,0.0025],"min":[-0.0025,-0.0025,-0.0025],"type":"VEC3"},{"bufferView":0,"byteOffset":48,"componentType":5126,"count":4,"max":[0.0025,0.0075,0.0025],"min":[-0.0025,-0.0025,0.0025],"type":"VEC3"},{"bufferView":0,"byteOffset":96,"componentType":5126,"count":108,"max":[0.0025,-0.0025,0.0025],"min":[-0.0025,-0.0025,-0.0025],"type":"VEC3"},{"bufferView":0,"byteOffset":1392,"componentType":5126,"count":4,"max":[0.0025,0.0075,-0.0025],"min":[-0.0025,-0.0025,-0.0025],"type":"VEC3"},{"bufferView":0,"byteOffset":1440,"componentType":5126,"count":4,"max":[0.0025,0.0075,0.0025],"min":[-0.0025,0.0075,-0.0025],"type":"VEC3"},{"bufferView":0,"byteOffset":1488,"componentType":5126,"count":4,"max":[0.0025,0.0075,0.0025],"min":[0.0025,-0.0025,-0.0025],"type":"VEC3"},{"bufferView":0,"byteOffset":1536,"componentType":5126,"count":4,"max":[-0.00096875,-0.002,-0.00066064453125],"min":[-0.001169921875,-0.0025,-0.00066064453125],"type":"VEC3"},{"bufferView":0,"byteOffset":1584,"componentType":5126,"count":4,"max":[-0.0006201171875,-0.002,0.00077099609375],"min":[-0.001169921875,-0.0025,-0.00066064453125],"type":"VEC3"},{"bufferView":0,"byteOffset":1632,"componentType":5126,"count":4,"max":[-0.000416015625,-0.002,0.00077099609375],"min":[-0.0006201171875,-0.0025,0.00077099609375],"type":"VEC3"},{"bufferView":0,"byteOffset":1680,"componentType":5126,"count":4,"max":[0.00016992187500000002,-0.002,0.00077099609375],"min":[-0.000416015625,-0.0025,-0.00066064453125],"type":"VEC3"},{"bufferView":0,"byteOffset":1728,"componentType":5126,"count":4,"max":[0.00016992187500000002,-0.002,-0.00066064453125],"min":[-0.0000458984375,-0.0025,-0.00066064453125],"type":"VEC3"},{"bufferView":0,"byteOffset":1776,"componentType":5126,"count":4,"max":[-0.0000458984375,-0.002,-0.00022705078125],"min":[-0.000212890625,-0.0025,-0.00066064453125],"type":"VEC3"},{"bufferView":0,"byteOffset":1824,"componentType":5126,"count":4,"max":[-0.000212890625,-0.002,-0.00022705078125],"min":[-0.0008115234375000001,-0.0025,-0.00022705078125],"type":"VEC3"},{"bufferView":0,"byteOffset":1872,"componentType":5126,"count":4,"max":[-0.0008115234375000001,-0.002,-0.00022705078125],"min":[-0.00096875,-0.0025,-0.00066064453125],"type":"VEC3"},{"bufferView":0,"byteOffset":1920,"componentType":5126,"count":4,"max":[0.000470703125,-0.002,-0.00066064453125],"min":[0.000294921875,-0.0025,-0.00066064453125],"type":"VEC3"},{"bufferView":0,"byteOffset":1968,"componentType":5126,"count":4,"max":[0.000294921875,-0.002,0.00077099609375],"min":[0.000294921875,-0.0025,-0.00066064453125],"type":"VEC3"},{"bufferView":0,"byteOffset":2016,"componentType":5126,"count":4,"max":[0.000470703125,-0.002,0.00077099609375],"min":[0.000294921875,-0.0025,0.00077099609375],"type":"VEC3"},{"bufferView":0,"byteOffset":2064,"componentType":5126,"count":4,"max":[0.000470703125,-0.002,0.00077099609375],"min":[0.000470703125,-0.0025,-0.00066064453125],"type":"VEC3"},{"bufferView":0,"byteOffset":2112,"componentType":5126,"count":4,"max":[0.00115234375,-0.002,-0.00050341796875],"min":[0.001126953125,-0.0025,-0.00065869140625],"type":"VEC3"},{"bufferView":0,"byteOffset":2160,"componentType":5126,"count":11,"max":[0.00115234375,-0.002,-0.00065869140625],"min":[0.00101953125,-0.0025,-0.00067431640625],"type":"VEC3"},{"bufferView":0,"byteOffset":2292,"componentType":5126,"count":39,"max":[0.00101953125,-0.002,-0.00064404296875],"min":[0.00087109375,-0.0025,-0.00067431640625],"type":"VEC3"},{"bufferView":0,"byteOffset":2760,"componentType":5126,"count":45,"max":[0.00087109375,-0.002,-0.000564453125],"min":[0.0007968750000000001,-0.0025,-0.00064404296875],"type":"VEC3"},{"bufferView":0,"byteOffset":3300,"componentType":5126,"count":31,"max":[0.0007968750000000001,-0.002,-0.00035693359375],"min":[0.000775390625,-0.0025,-0.000564453125],"type":"VEC3"},{"bufferView":0,"byteOffset":3672,"componentType":5126,"count":4,"max":[0.000775390625,-0.002,0.00023974609375],"min":[0.000775390625,-0.0025,-0.00035693359375],"type":"VEC3"},{"bufferView":0,"byteOffset":3720,"componentType":5126,"count":4,"max":[0.000775390625,-0.002,0.00023974609375],"min":[0.000646484375,-0.0025,0.00023974609375],"type":"VEC3"},{"bufferView":0,"byteOffset":3768,"componentType":5126,"count":4,"max":[0.000646484375,-0.002,0.00037646484375],"min":[0.000646484375,-0.0025,0.00023974609375],"type":"VEC3"},{"bufferView":0,"byteOffset":3816,"componentType":5126,"count":4,"max":[0.000775390625,-0.002,0.00037646484375],"min":[0.000646484375,-0.0025,0.00037646484375],"type":"VEC3"},{"bufferView":0,"byteOffset":3864,"componentType":5126,"count":4,"max":[0.000775390625,-0.002,0.00063330078125],"min":[0.000775390625,-0.0025,0.00037646484375],"type":"VEC3"},{"bufferView":0,"byteOffset":3912,"componentType":5126,"count":4,"max":[0.0009501953125,-0.002,0.0007387695312500001],"min":[0.000775390625,-0.0025,0.00063330078125],"type":"VEC3"},{"bufferView":0,"byteOffset":3960,"componentType":5126,"count":4,"max":[0.0009501953125,-0.002,0.0007387695312500001],"min":[0.0009501953125,-0.0025,0.00037646484375],"type":"VEC3"},{"bufferView":0,"byteOffset":4008,"componentType":5126,"count":4,"max":[0.001126953125,-0.002,0.00037646484375],"min":[0.0009501953125,-0.0025,0.00037646484375],"type":"VEC3"},{"bufferView":0,"byteOffset":4056,"componentType":5126,"count":4,"max":[0.001126953125,-0.002,0.00037646484375],"min":[0.001126953125,-0.0025,0.00023974609375],"type":"VEC3"},{"bufferView":0,"byteOffset":4104,"componentType":5126,"count":4,"max":[0.001126953125,-0.002,0.00023974609375],"min":[0.0009501953125,-0.0025,0.00023974609375],"type":"VEC3"},{"bufferView":0,"byteOffset":4152,"componentType":5126,"count":4,"max":[0.0009501953125,-0.002,0.00023974609375],"min":[0.0009501953125,-0.0025,-0.00036669921875],"type":"VEC3"},{"bufferView":0,"byteOffset":4200,"componentType":5126,"count":27,"max":[0.00095947265625,-0.002,-0.00036669921875],"min":[0.0009501953125,-0.0025,-0.00046337890625000003],"type":"VEC3"},{"bufferView":0,"byteOffset":4524,"componentType":5126,"count":37,"max":[0.00098974609375,-0.002,-0.00046337890625000003],"min":[0.00095947265625,-0.0025,-0.0004975585937500001],"type":"VEC3"},{"bufferView":0,"byteOffset":4968,"componentType":5126,"count":53,"max":[0.0010498046875,-0.002,-0.0004975585937500001],"min":[0.00098974609375,-0.0025,-0.00051025390625],"type":"VEC3"},{"bufferView":0,"byteOffset":5604,"componentType":5126,"count":11,"max":[0.001126953125,-0.002,-0.00050341796875],"min":[0.0010498046875,-0.0025,-0.00051025390625],"type":"VEC3"},{"bufferView":0,"byteOffset":5736,"componentType":5126,"count":16,"max":[0.00016992187500000002,-0.002,0.00077099609375],"min":[-0.001169921875,-0.002,-0.00066064453125],"type":"VEC3"},{"bufferView":0,"byteOffset":5928,"componentType":5126,"count":4,"max":[0.000470703125,-0.002,0.00077099609375],"min":[0.000294921875,-0.002,-0.00066064453125],"type":"VEC3"},{"bufferView":0,"byteOffset":5976,"componentType":5126,"count":92,"max":[0.00115234375,-0.002,0.0007387695312500001],"min":[0.000646484375,-0.002,-0.00067431640625],"type":"VEC3"},{"bufferView":0,"byteOffset":7080,"componentType":5126,"count":4,"max":[-0.000599609375,-0.002,0.00034716796875],"min":[-0.0007568359375,-0.0025,-0.00007275390625],"type":"VEC3"},{"bufferView":0,"byteOffset":7128,"componentType":5126,"count":4,"max":[-0.000271484375,-0.002,-0.00007275390625],"min":[-0.0007568359375,-0.0025,-0.00007275390625],"type":"VEC3"},{"bufferView":0,"byteOffset":7176,"componentType":5126,"count":4,"max":[-0.000271484375,-0.002,0.00032373046875],"min":[-0.0004208984375,-0.0025,-0.00007275390625],"type":"VEC3"},{"bufferView":0,"byteOffset":7224,"componentType":5126,"count":7,"max":[-0.0004208984375,-0.002,0.0006206054687500001],"min":[-0.0005224609375,-0.0025,0.00032373046875],"type":"VEC3"},{"bufferView":0,"byteOffset":7308,"componentType":5126,"count":9,"max":[-0.0005224609375,-0.002,0.0006206054687500001],"min":[-0.000599609375,-0.0025,0.00034716796875],"type":"VEC3"},{"bufferView":0,"byteOffset":7416,"componentType":5126,"count":8,"max":[-0.000271484375,-0.0025,0.0006206054687500001],"min":[-0.0007568359375,-0.0025,-0.00007275390625],"type":"VEC3"},{"bufferView":1,"byteOffset":0,"componentType":5126,"count":4,"type":"VEC3"},{"bufferView":1,"byteOffset":48,"componentType":5126,"count":4,"type":"VEC3"},{"bufferView":1,"byteOffset":96,"componentType":5126,"count":108,"type":"VEC3"},{"bufferView":1,"byteOffset":1392,"componentType":5126,"count":4,"type":"VEC3"},{"bufferView":1,"byteOffset":1440,"componentType":5126,"count":4,"type":"VEC3"},{"bufferView":1,"byteOffset":1488,"componentType":5126,"count":4,"type":"VEC3"},{"bufferView":1,"byteOffset":1536,"componentType":5126,"count":4,"type":"VEC3"},{"bufferView":1,"byteOffset":1584,"componentType":5126,"count":4,"type":"VEC3"},{"bufferView":1,"byteOffset":1632,"componentType":5126,"count":4,"type":"VEC3"},{"bufferView":1,"byteOffset":1680,"componentType":5126,"count":4,"type":"VEC3"},{"bufferView":1,"byteOffset":1728,"componentType":5126,"count":4,"type":"VEC3"},{"bufferView":1,"byteOffset":1776,"componentType":5126,"count":4,"type":"VEC3"},{"bufferView":1,"byteOffset":1824,"componentType":5126,"count":4,"type":"VEC3"},{"bufferView":1,"byteOffset":1872,"componentType":5126,"count":4,"type":"VEC3"},{"bufferView":1,"byteOffset":1920,"componentType":5126,"count":4,"type":"VEC3"},{"bufferView":1,"byteOffset":1968,"componentType":5126,"count":4,"type":"VEC3"},{"bufferView":1,"byteOffset":2016,"componentType":5126,"count":4,"type":"VEC3"},{"bufferView":1,"byteOffset":2064,"componentType":5126,"count":4,"type":"VEC3"},{"bufferView":1,"byteOffset":2112,"componentType":5126,"count":4,"type":"VEC3"},{"bufferView":1,"byteOffset":2160,"componentType":5126,"count":11,"type":"VEC3"},{"bufferView":1,"byteOffset":2292,"componentType":5126,"count":39,"type":"VEC3"},{"bufferView":1,"byteOffset":2760,"componentType":5126,"count":45,"type":"VEC3"},{"bufferView":1,"byteOffset":3300,"componentType":5126,"count":31,"type":"VEC3"},{"bufferView":1,"byteOffset":3672,"componentType":5126,"count":4,"type":"VEC3"},{"bufferView":1,"byteOffset":3720,"componentType":5126,"count":4,"type":"VEC3"},{"bufferView":1,"byteOffset":3768,"componentType":5126,"count":4,"type":"VEC3"},{"bufferView":1,"byteOffset":3816,"componentType":5126,"count":4,"type":"VEC3"},{"bufferView":1,"byteOffset":3864,"componentType":5126,"count":4,"type":"VEC3"},{"bufferView":1,"byteOffset":3912,"componentType":5126,"count":4,"type":"VEC3"},{"bufferView":1,"byteOffset":3960,"componentType":5126,"count":4,"type":"VEC3"},{"bufferView":1,"byteOffset":4008,"componentType":5126,"count":4,"type":"VEC3"},{"bufferView":1,"byteOffset":4056,"componentType":5126,"count":4,"type":"VEC3"},{"bufferView":1,"byteOffset":4104,"componentType":5126,"count":4,"type":"VEC3"},{"bufferView":1,"byteOffset":4152,"componentType":5126,"count":4,"type":"VEC3"},{"bufferView":1,"byteOffset":4200,"componentType":5126,"count":27,"type":"VEC3"},{"bufferView":1,"byteOffset":4524,"componentType":5126,"count":37,"type":"VEC3"},{"bufferView":1,"byteOffset":4968,"componentType":5126,"count":53,"type":"VEC3"},{"bufferView":1,"byteOffset":5604,"componentType":5126,"count":11,"type":"VEC3"},{"bufferView":1,"byteOffset":5736,"componentType":5126,"count":16,"type":"VEC3"},{"bufferView":1,"byteOffset":5928,"componentType":5126,"count":4,"type":"VEC3"},{"bufferView":1,"byteOffset":5976,"componentType":5126,"count":92,"type":"VEC3"},{"bufferView":1,"byteOffset":7080,"componentType":5126,"count":4,"type":"VEC3"},{"bufferView":1,"byteOffset":7128,"componentType":5126,"count":4,"type":"VEC3"},{"bufferView":1,"byteOffset":7176,"componentType":5126,"count":4,"type":"VEC3"},{"bufferView":1,"byteOffset":7224,"componentType":5126,"count":7,"type":"VEC3"},{"bufferView":1,"byteOffset":7308,"componentType":5126,"count":9,"type":"VEC3"},{"bufferView":1,"byteOffset":7416,"componentType":5126,"count":8,"type":"VEC3"},{"bufferView":2,"byteOffset":0,"componentType":5123,"count":6,"type":"SCALAR"},{"bufferView":2,"byteOffset":12,"componentType":5123,"count":6,"type":"SCALAR"},{"bufferView":2,"byteOffset":24,"componentType":5123,"count":336,"type":"SCALAR"},{"bufferView":2,"byteOffset":696,"componentType":5123,"count":6,"type":"SCALAR"},{"bufferView":2,"byteOffset":708,"componentType":5123,"count":6,"type":"SCALAR"},{"bufferView":2,"byteOffset":720,"componentType":5123,"count":6,"type":"SCALAR"},{"bufferView":2,"byteOffset":732,"componentType":5123,"count":6,"type":"SCALAR"},{"bufferView":2,"byteOffset":744,"componentType":5123,"count":6,"type":"SCALAR"},{"bufferView":2,"byteOffset":756,"componentType":5123,"count":6,"type":"SCALAR"},{"bufferView":2,"byteOffset":768,"componentType":5123,"count":6,"type":"SCALAR"},{"bufferView":2,"byteOffset":780,"componentType":5123,"count":6,"type":"SCALAR"},{"bufferView":2,"byteOffset":792,"componentType":5123,"count":6,"type":"SCALAR"},{"bufferView":2,"byteOffset":804,"componentType":5123,"count":6,"type":"SCALAR"},{"bufferView":2,"byteOffset":816,"componentType":5123,"count":6,"type":"SCALAR"},{"bufferView":2,"byteOffset":828,"componentType":5123,"count":6,"type":"SCALAR"},{"bufferView":2,"byteOffset":840,"componentType":5123,"count":6,"type":"SCALAR"},{"bufferView":2,"byteOffset":852,"componentType":5123,"count":6,"type":"SCALAR"},{"bufferView":2,"byteOffset":864,"componentType":5123,"count":6,"type":"SCALAR"},{"bufferView":2,"byteOffset":876,"componentType":5123,"count":6,"type":"SCALAR"},{"bufferView":2,"byteOffset":888,"componentType":5123,"count":30,"type":"SCALAR"},{"bufferView":2,"byteOffset":948,"componentType":5123,"count":156,"type":"SCALAR"},{"bufferView":2,"byteOffset":1260,"componentType":5123,"count":174,"type":"SCALAR"},{"bufferView":2,"byteOffset":1608,"componentType":5123,"count":102,"type":"SCALAR"},{"bufferView":2,"byteOffset":1812,"componentType":5123,"count":6,"type":"SCALAR"},{"bufferView":2,"byteOffset":1824,"componentType":5123,"count":6,"type":"SCALAR"},{"bufferView":2,"byteOffset":1836,"componentType":5123,"count":6,"type":"SCALAR"},{"bufferView":2,"byteOffset":1848,"componentType":5123,"count":6,"type":"SCALAR"},{"bufferView":2,"byteOffset":1860,"componentType":5123,"count":6,"type":"SCALAR"},{"bufferView":2,"byteOffset":1872,"componentType":5123,"count":6,"type":"SCALAR"},{"bufferView":2,"byteOffset":1884,"componentType":5123,"count":6,"type":"SCALAR"},{"bufferView":2,"byteOffset":1896,"componentType":5123,"count":6,"type":"SCALAR"},{"bufferView":2,"byteOffset":1908,"componentType":5123,"count":6,"type":"SCALAR"},{"bufferView":2,"byteOffset":1920,"componentType":5123,"count":6,"type":"SCALAR"},{"bufferView":2,"byteOffset":1932,"componentType":5123,"count":6,"type":"SCALAR"},{"bufferView":2,"byteOffset":1944,"componentType":5123,"count":96,"type":"SCALAR"},{"bufferView":2,"byteOffset":2136,"componentType":5123,"count":138,"type":"SCALAR"},{"bufferView":2,"byteOffset":2412,"componentType":5123,"count":222,"type":"SCALAR"},{"bufferView":2,"byteOffset":2856,"componentType":5123,"count":30,"type":"SCALAR"},{"bufferView":2,"byteOffset":2916,"componentType":5123,"count":48,"type":"SCALAR"},{"bufferView":2,"byteOffset":3012,"componentType":5123,"count":6,"type":"SCALAR"},{"bufferView":2,"byteOffset":3024,"componentType":5123,"count":270,"type":"SCALAR"},{"bufferView":2,"byteOffset":3564,"componentType":5123,"count":6,"type":"SCALAR"},{"bufferView":2,"byteOffset":3576,"componentType":5123,"count":6,"type":"SCALAR"},{"bufferView":2,"byteOffset":3588,"componentType":5123,"count":6,"type":"SCALAR"},{"bufferView":2,"byteOffset":3600,"componentType":5123,"count":18,"type":"SCALAR"},{"bufferView":2,"byteOffset":3636,"componentType":5123,"count":24,"type":"SCALAR"},{"bufferView":2,"byteOffset":3684,"componentType":5123,"count":18,"type":"SCALAR"}],"asset":{"generator":"Open CASCADE Technology 7.8 [dev.opencascade.org]","version":"2.0"},"bufferViews":[{"buffer":0,"byteLength":7512,"byteOffset":0,"byteStride":12,"target":34962},{"buffer":0,"byteLength":7512,"byteOffset":7512,"byteStride":12,"target":34962},{"buffer":0,"byteLength":3720,"byteOffset":15024,"target":34963}],"buffers":[{"byteLength":18744,"uri":"indexed_lt_Z_neg1_yazi.bin"}],"materials":[{"name":"mat_0","pbrMetallicRoughness":{"baseColorFactor":[0.0,0.5225215554237366,1.0,1.0]},"doubleSided":true}],"meshes":[{"name":"Gövde","primitives":[{"attributes":{"NORMAL":47,"POSITION":0},"indices":94,"material":0,"mode":4},{"attributes":{"NORMAL":48,"POSITION":1},"indices":95,"material":0,"mode":4},{"attributes":{"NORMAL":49,"POSITION":2},"indices":96,"material":0,"mode":4},{"attributes":{"NORMAL":50,"POSITION":3},"indices":97,"material":0,"mode":4},{"attributes":{"NORMAL":51,"POSITION":4},"indices":98,"material":0,"mode":4},{"attributes":{"NORMAL":52,"POSITION":5},"indices":99,"material":0,"mode":4},{"attributes":{"NORMAL":53,"POSITION":6},"indices":100,"material":0,"mode":4},{"attributes":{"NORMAL":54,"POSITION":7},"indices":101,"material":0,"mode":4},{"attributes":{"NORMAL":55,"POSITION":8},"indices":102,"material":0,"mode":4},{"attributes":{"NORMAL":56,"POSITION":9},"indices":103,"material":0,"mode":4},{"attributes":{"NORMAL":57,"POSITION":10},"indices":104,"material":0,"mode":4},{"attributes":{"NORMAL":58,"POSITION":11},"indices":105,"material":0,"mode":4},{"attributes":{"NORMAL":59,"POSITION":12},"indices":106,"material":0,"mode":4},{"attributes":{"NORMAL":60,"POSITION":13},"indices":107,"material":0,"mode":4},{"attributes":{"NORMAL":61,"POSITION":14},"indices":108,"material":0,"mode":4},{"attributes":{"NORMAL":62,"POSITION":15},"indices":109,"material":0,"mode":4},{"attributes":{"NORMAL":63,"POSITION":16},"indices":110,"material":0,"mode":4},{"attributes":{"NORMAL":64,"POSITION":17},"indices":111,"material":0,"mode":4},{"attributes":{"NORMAL":65,"POSITION":18},"indices":112,"material":0,"mode":4},{"attributes":{"NORMAL":66,"POSITION":19},"indices":113,"material":0,"mode":4},{"attributes":{"NORMAL":67,"POSITION":20},"indices":114,"material":0,"mode":4},{"attributes":{"NORMAL":68,"POSITION":21},"indices":115,"material":0,"mode":4},{"attributes":{"NORMAL":69,"POSITION":22},"indices":116,"material":0,"mode":4},{"attributes":{"NORMAL":70,"POSITION":23},"indices":117,"material":0,"mode":4},{"attributes":{"NORMAL":71,"POSITION":24},"indices":118,"material":0,"mode":4},{"attributes":{"NORMAL":72,"POSITION":25},"indices":119,"material":0,"mode":4},{"attributes":{"NORMAL":73,"POSITION":26},"indices":120,"material":0,"mode":4},{"attributes":{"NORMAL":74,"POSITION":27},"indices":121,"material":0,"mode":4},{"attributes":{"NORMAL":75,"POSITION":28},"indices":122,"material":0,"mode":4},{"attributes":{"NORMAL":76,"POSITION":29},"indices":123,"material":0,"mode":4},{"attributes":{"NORMAL":77,"POSITION":30},"indices":124,"material":0,"mode":4},{"attributes":{"NORMAL":78,"POSITION":31},"indices":125,"material":0,"mode":4},{"attributes":{"NORMAL":79,"POSITION":32},"indices":126,"material":0,"mode":4},{"attributes":{"NORMAL":80,"POSITION":33},"indices":127,"material":0,"mode":4},{"attributes":{"NORMAL":81,"POSITION":34},"indices":128,"material":0,"mode":4},{"attributes":{"NORMAL":82,"POSITION":35},"indices":129,"material":0,"mode":4},{"attributes":{"NORMAL":83,"POSITION":36},"indices":130,"material":0,"mode":4},{"attributes":{"NORMAL":84,"POSITION":37},"indices":131,"material":0,"mode":4},{"attributes":{"NORMAL":85,"POSITION":38},"indices":132,"material":0,"mode":4},{"attributes":{"NORMAL":86,"POSITION":39},"indices":133,"material":0,"mode":4},{"attributes":{"NORMAL":87,"POSITION":40},"indices":134,"material":0,"mode":4},{"attributes":{"NORMAL":88,"POSITION":41},"indices":135,"material":0,"mode":4},{"attributes":{"NORMAL":89,"POSITION":42},"indices":136,"material":0,"mode":4},{"attributes":{"NORMAL":90,"POSITION":43},"indices":137,"material":0,"mode":4},{"attributes":{"NORMAL":91,"POSITION":44},"indices":138,"material":0,"mode":4},{"attributes":{"NORMAL":92,"POSITION":45},"indices":139,"material":0,"mode":4},{"attributes":{"NORMAL":93,"POSITION":46},"indices":140,"material":0,"mode":4}]}],"nodes":[{"mesh":0,"name":"Gövde"}],"scene":0,"scenes":[{"nodes":[0]}]}