{"accessors":[{"bufferView":0,"byteOffset":0,"componentType":5126,"count":117,"max":[-0.0075,0.0025,0.0025],"min":[-0.0075,-0.0025,-0.0025],"type":"VEC3"},{"bufferView":0,"byteOffset":1404,"componentType":5126,"count":4,"max":[-0.0025,0.0025,0.0025],"min":[-0.0075,-0.0025,0.0025],"type":"VEC3"},{"bufferView":0,"byteOffset":1452,"componentType":5126,"count":4,"max":[-0.0025,0.0025,0.0025],"min":[-0.0075,0.0025,-0.0025],"type":"VEC3"},{"bufferView":0,"byteOffset":1500,"componentType":5126,"count":4,"max":[-0.0025,-0.0025,0.0025],"min":[-0.0075,-0.0025,-0.0025],"type":"VEC3"},{"bufferView":0,"byteOffset":1548,"componentType":5126,"count":4,"max":[-0.0025,0.0025,-0.0025],"min":[-0.0075,-0.0025,-0.0025],"type":"VEC3"},{"bufferView":0,"byteOffset":1596,"componentType":5126,"count":228,"max":[-0.006500000000000001,0.000999903384706381,0.001],"min":[-0.0075,-0.000999903384706381,-0.000999613557494554],"type":"VEC3"},{"bufferView":0,"byteOffset":4332,"componentType":5126,"count":4,"max":[-0.0025,0.0025,0.0025],"min":[-0.0025,-0.0025,-0.0025],"type":"VEC3"},{"bufferView":0,"byteOffset":4380,"componentType":5126,"count":113,"max":[-0.006500000000000001,0.000999903384706381,0.001],"min":[-0.006500000000000001,-0.000999903384706381,-0.000999613557494554],"type":"VEC3"},{"bufferView":0,"byteOffset":5736,"componentType":5126,"count":4,"max":[0.0025,0.0025,0.0025],"min":[0.0025,-0.0025,-0.0025],"type":"VEC3"},{"bufferView":0,"byteOffset":5784,"componentType":5126,"count":4,"max":[0.0075,0.0025,0.0025],"min":[0.0075,-0.0025,-0.0025],"type":"VEC3"},{"bufferView":0,"byteOffset":5832,"componentType":5126,"count":4,"max":[0.0075,0.0025,0.0025],"min":[0.0025,-0.0025,0.0025],"type":"VEC3"},{"bufferView":0,"byteOffset":5880,"componentType":5126,"count":4,"max":[0.0075,0.0025,-0.0025],"min":[0.0025,-0.0025,-0.0025],"type":"VEC3"},{"bufferView":0,"byteOffset":5928,"componentType":5126,"count":4,"max":[0.0075,-0.0025,0.0025],"min":[0.0025,-0.0025,-0.0025],"type":"VEC3"},{"bufferView":0,"byteOffset":5976,"componentType":5126,"count":4,"max":[0.0075,0.0025,0.0025],"min":[0.0025,0.0025,-0.0025],"type":"VEC3"},{"bufferView":1,"byteOffset":0,"componentType":5126,"count":117,"type":"VEC3"},{"bufferView":1,"byteOffset":1404,"componentType":5126,"count":4,"type":"VEC3"},{"bufferView":1,"byteOffset":1452,"componentType":5126,"count":4,"type":"VEC3"},{"bufferView":1,"byteOffset":1500,"componentType":5126,"count":4,"type":"VEC3"},{"bufferView":1,"byteOffset":1548,"componentType":5126,"count":4,"type":"VEC3"},{"bufferView":1,"byteOffset":1596,"componentType":5126,"count":228,"type":"VEC3"},{"bufferView":1,"byteOffset":4332,"componentType":5126,"count":4,"type":"VEC3"},{"bufferView":1,"byteOffset":4380,"componentType":5126,"count":113,"type":"VEC3"},{"bufferView":1,"byteOffset":5736,"componentType":5126,"count":4,"type":"VEC3"},{"bufferView":1,"byteOffset":5784,"componentType":5126,"count":4,"type":"VEC3"},{"bufferView":1,"byteOffset":5832,"componentType":5126,"count":4,"type":"VEC3"},{"bufferView":1,"byteOffset":5880,"componentType":5126,"count":4,"type":"VEC3"},{"bufferView":1,"byteOffset":5928,"componentType":5126,"count":4,"type":"VEC3"},{"bufferView":1,"byteOffset":5976,"componentType":5126,"count":4,"type":"VEC3"},{"bufferView":2,"byteOffset":0,"componentType":5123,"count":351,"type":"SCALAR"},{"bufferView":2,"byteOffset":704,"componentType":5123,"count":6,"type":"SCALAR"},{"bufferView":2,"byteOffset":716,"componentType":5123,"count":6,"type":"SCALAR"},{"bufferView":2,"byteOffset":728,"componentType":5123,"count":6,"type":"SCALAR"},{"bufferView":2,"byteOffset":740,"componentType":5123,"count":6,"type":"SCALAR"},{"bufferView":2,"byteOffset":752,"componentType":5123,"count":678,"type":"SCALAR"},{"bufferView":2,"byteOffset":2108,"componentType":5123,"count":6,"type":"SCALAR"},{"bufferView":2,"byteOffset":2120,"componentType":5123,"count":333,"type":"SCALAR"},{"bufferView":2,"byteOffset":2788,"componentType":5123,"count":6,"type":"SCALAR"},{"bufferView":2,"byteOffset":2800,"componentType":5123,"count":6,"type":"SCALAR"},{"bufferView":2,"byteOffset":2812,"componentType":5123,"count":6,"type":"SCALAR"},{"bufferView":2,"byteOffset":2824,"componentType":5123,"count":6,"type":"SCALAR"},{"bufferView":2,"byteOffset":2836,"componentType":5123,"count":6,"type":"SCALAR"},{"bufferView":2,"byteOffset":2848,"componentType":5123,"count":6,"type":"SCALAR"}],"asset":{"generator":"Open CASCADE Technology 7.8 [dev.opencascade.org]","version":"2.0"},"bufferViews":[{"buffer":0,"byteLength":6024,"byteOffset":0,"byteStride":12,"target":34962},{"buffer":0,"byteLength":6024,"byteOffset":6024,"byteStride":12,"target":34962},{"buffer":0,"byteLength":2860,"byteOffset":12048,"target":34963}],"buffers":[{"byteLength":14908,"uri":"indexed_gt_X_0_cep.bin"}],"materials":[{"name":"mat_0","pbrMetallicRoughness":{"baseColorFactor":[0.0,0.5225215554237366,1.0,1.0]},"doubleSided":true}],"meshes":[{"name":"Open CASCADE STEP translator 7.8 4.1","primitives":[{"attributes":{"NORMAL":14,"POSITION":0},"indices":28,"material":0,"mode":4},{"attributes":{"NORMAL":15,"POSITION":1},"indices":29,"material":0,"mode":4},{"attributes":{"NORMAL":16,"POSITION":2},"indices":30,"material":0,"mode":4},{"attributes":{"NORMAL":17,"POSITION":3},"indices":31,"material":0,"mode":4},{"attributes":{"NORMAL":18,"POSITION":4},"indices":32,"material":0,"mode":4},{"attributes":{"NORMAL":19,"POSITION":5},"indices":33,"material":0,"mode":4},{"attributes":{"NORMAL":20,"POSITION":6},"indices":34,"material":0,"mode":4},{"attributes":{"NORMAL":21,"POSITION":7},"indices":35,"material":0,"mode":4}]},{"name":"Open CASCADE STEP translator 7.8 4.2","primitives":[{"attributes":{"NORMAL":22,"POSITION":8},"indices":36,"material":0,"mode":4},{"attributes":{"NORMAL":23,"POSITION":9},"indices":37,"material":0,"mode":4},{"attributes":{"NORMAL":24,"POSITION":10},"indices":38,"material":0,"mode":4},{"attributes":{"NORMAL":25,"POSITION":11},"indices":39,"material":0,"mode":4},{"attributes":{"NORMAL":26,"POSITION":12},"indices":40,"material":0,"mode":4},{"attributes":{"NORMAL":27,"POSITION":13},"indices":41,"material":0,"mode":4}]}],"nodes":[{"children":[1,2],"name":"Unnamed2"},{"mesh":0,"name":"Open CASCADE STEP translator 7.8 4.1"},{"mesh":1,"name":"Open CASCADE STEP translator 7.8 4.2"}],"scene":0,"scenes":[{"nodes":[0]}]}