{"accessors":[{"bufferView":0,"byteOffset":0,"componentType":5126,"count":4,"max":[-0.005,0.005,0.005],"min":[-0.005,-0.005,-0.005],"type":"VEC3"},{"bufferView":0,"byteOffset":48,"componentType":5126,"count":4,"max":[0.005,0.005,0.005],"min":[-0.005,-0.005,0.005],"type":"VEC3"},{"bufferView":0,"byteOffset":96,"componentType":5126,"count":4,"max":[0.005,0.005,0.005],"min":[-0.005,0.005,-0.005],"type":"VEC3"},{"bufferView":0,"byteOffset":144,"componentType":5126,"count":4,"max":[0.005,0.005,-0.005],"min":[-0.005,-0.005,-0.005],"type":"VEC3"},{"bufferView":0,"byteOffset":192,"componentType":5126,"count":4,"max":[0.005,-0.005,0.005],"min":[-0.005,-0.005,-0.005],"type":"VEC3"},{"bufferView":0,"byteOffset":240,"componentType":5126,"count":117,"max":[0.005,0.005,0.005],"min":[0.005,-0.005,-0.005],"type":"VEC3"},{"bufferView":0,"byteOffset":1644,"componentType":5126,"count":228,"max":[0.008,0.001999806769412762,0.001999227114989108],"min":[0.005,-0.001999806769412762,-0.002],"type":"VEC3"},{"bufferView":0,"byteOffset":4380,"componentType":5126,"count":113,"max":[0.008,0.001999806769412762,0.001999227114989108],"min":[0.008,-0.001999806769412762,-0.002],"type":"VEC3"},{"bufferView":0,"byteOffset":5736,"componentType":5126,"count":4,"max":[-0.005,0.005,0.005],"min":[-0.005,-0.005,-0.005],"type":"VEC3"},{"bufferView":0,"byteOffset":5784,"componentType":5126,"count":4,"max":[0.005,0.005,0.005],"min":[0.005,-0.005,-0.005],"type":"VEC3"},{"bufferView":0,"byteOffset":5832,"componentType":5126,"count":4,"max":[0.005,0.005,0.005],"min":[-0.005,-0.005,0.005],"type":"VEC3"},{"bufferView":0,"byteOffset":5880,"componentType":5126,"count":4,"max":[0.005,0.005,-0.005],"min":[-0.005,-0.005,-0.005],"type":"VEC3"},{"bufferView":0,"byteOffset":5928,"componentType":5126,"count":4,"max":[0.005,-0.005,0.005],"min":[-0.005,-0.005,-0.005],"type":"VEC3"},{"bufferView":0,"byteOffset":5976,"componentType":5126,"count":4,"max":[0.005,0.005,0.005],"min":[-0.005,0.005,-0.005],"type":"VEC3"},{"bufferView":0,"byteOffset":6024,"componentType":5126,"count":4,"max":[-0.005,0.005,0.005],"min":[-0.005,-0.005,-0.005],"type":"VEC3"},{"bufferView":0,"byteOffset":6072,"componentType":5126,"count":4,"max":[0.005,0.005,0.005],"min":[0.005,-0.005,-0.005],"type":"VEC3"},{"bufferView":0,"byteOffset":6120,"componentType":5126,"count":4,"max":[0.005,0.005,0.005],"min":[-0.005,-0.005,0.005],"type":"VEC3"},{"bufferView":0,"byteOffset":6168,"componentType":5126,"count":4,"max":[0.005,0.005,-0.005],"min":[-0.005,-0.005,-0.005],"type":"VEC3"},{"bufferView":0,"byteOffset":6216,"componentType":5126,"count":4,"max":[0.005,-0.005,0.005],"min":[-0.005,-0.005,-0.005],"type":"VEC3"},{"bufferView":0,"byteOffset":6264,"componentType":5126,"count":4,"max":[0.005,0.005,0.005],"min":[-0.005,0.005,-0.005],"type":"VEC3"},{"bufferView":1,"byteOffset":0,"componentType":5126,"count":4,"type":"VEC3"},{"bufferView":1,"byteOffset":48,"componentType":5126,"count":4,"type":"VEC3"},{"bufferView":1,"byteOffset":96,"componentType":5126,"count":4,"type":"VEC3"},{"bufferView":1,"byteOffset":144,"componentType":5126,"count":4,"type":"VEC3"},{"bufferView":1,"byteOffset":192,"componentType":5126,"count":4,"type":"VEC3"},{"bufferView":1,"byteOffset":240,"componentType":5126,"count":117,"type":"VEC3"},{"bufferView":1,"byteOffset":1644,"componentType":5126,"count":228,"type":"VEC3"},{"bufferView":1,"byteOffset":4380,"componentType":5126,"count":113,"type":"VEC3"},{"bufferView":1,"byteOffset":5736,"componentType":5126,"count":4,"type":"VEC3"},{"bufferView":1,"byteOffset":5784,"componentType":5126,"count":4,"type":"VEC3"},{"bufferView":1,"byteOffset":5832,"componentType":5126,"count":4,"type":"VEC3"},{"bufferView":1,"byteOffset":5880,"componentType":5126,"count":4,"type":"VEC3"},{"bufferView":1,"byteOffset":5928,"componentType":5126,"count":4,"type":"VEC3"},{"bufferView":1,"byteOffset":5976,"componentType":5126,"count":4,"type":"VEC3"},{"bufferView":1,"byteOffset":6024,"componentType":5126,"count":4,"type":"VEC3"},{"bufferView":1,"byteOffset":6072,"componentType":5126,"count":4,"type":"VEC3"},{"bufferView":1,"byteOffset":6120,"componentType":5126,"count":4,"type":"VEC3"},{"bufferView":1,"byteOffset":6168,"componentType":5126,"count":4,"type":"VEC3"},{"bufferView":1,"byteOffset":6216,"componentType":5126,"count":4,"type":"VEC3"},{"bufferView":1,"byteOffset":6264,"componentType":5126,"count":4,"type":"VEC3"},{"bufferView":2,"byteOffset":0,"componentType":5123,"count":6,"type":"SCALAR"},{"bufferView":2,"byteOffset":12,"componentType":5123,"count":6,"type":"SCALAR"},{"bufferView":2,"byteOffset":24,"componentType":5123,"count":6,"type":"SCALAR"},{"bufferView":2,"byteOffset":36,"componentType":5123,"count":6,"type":"SCALAR"},{"bufferView":2,"byteOffset":48,"componentType":5123,"count":6,"type":"SCALAR"},{"bufferView":2,"byteOffset":60,"componentType":5123,"count":351,"type":"SCALAR"},{"bufferView":2,"byteOffset":764,"componentType":5123,"count":678,"type":"SCALAR"},{"bufferView":2,"byteOffset":2120,"componentType":5123,"count":333,"type":"SCALAR"},{"bufferView":2,"byteOffset":2788,"componentType":5123,"count":6,"type":"SCALAR"},{"bufferView":2,"byteOffset":2800,"componentType":5123,"count":6,"type":"SCALAR"},{"bufferView":2,"byteOffset":2812,"componentType":5123,"count":6,"type":"SCALAR"},{"bufferView":2,"byteOffset":2824,"componentType":5123,"count":6,"type":"SCALAR"},{"bufferView":2,"byteOffset":2836,"componentType":5123,"count":6,"type":"SCALAR"},{"bufferView":2,"byteOffset":2848,"componentType":5123,"count":6,"type":"SCALAR"},{"bufferView":2,"byteOffset":2860,"componentType":5123,"count":6,"type":"SCALAR"},{"bufferView":2,"byteOffset":2872,"componentType":5123,"count":6,"type":"SCALAR"},{"bufferView":2,"byteOffset":2884,"componentType":5123,"count":6,"type":"SCALAR"},{"bufferView":2,"byteOffset":2896,"componentType":5123,"count":6,"type":"SCALAR"},{"bufferView":2,"byteOffset":2908,"componentType":5123,"count":6,"type":"SCALAR"},{"bufferView":2,"byteOffset":2920,"componentType":5123,"count":6,"type":"SCALAR"}],"asset":{"generator":"Open CASCADE Technology 7.8 [dev.opencascade.org]","version":"2.0"},"bufferViews":[{"buffer":0,"byteLength":6312,"byteOffset":0,"byteStride":12,"target":34962},{"buffer":0,"byteLength":6312,"byteOffset":6312,"byteStride":12,"target":34962},{"buffer":0,"byteLength":2932,"byteOffset":12624,"target":34963}],"buffers":[{"byteLength":15556,"uri":"indexed_gt_X_1_silindir.bin"}],"materials":[{"name":"mat_0","pbrMetallicRoughness":{"baseColorFactor":[0.0,0.5225215554237366,1.0,1.0]},"doubleSided":true}],"meshes":[{"name":"Open CASCADE STEP translator 7.8 5.1","primitives":[{"attributes":{"NORMAL":20,"POSITION":0},"indices":40,"material":0,"mode":4},{"attributes":{"NORMAL":21,"POSITION":1},"indices":41,"material":0,"mode":4},{"attributes":{"NORMAL":22,"POSITION":2},"indices":42,"material":0,"mode":4},{"attributes":{"NORMAL":23,"POSITION":3},"indices":43,"material":0,"mode":4},{"attributes":{"NORMAL":24,"POSITION":4},"indices":44,"material":0,"mode":4},{"attributes":{"NORMAL":25,"POSITION":5},"indices":45,"material":0,"mode":4},{"attributes":{"NORMAL":26,"POSITION":6},"indices":46,"material":0,"mode":4},{"attributes":{"NORMAL":27,"POSITION":7},"indices":47,"material":0,"mode":4}]},{"name":"Open CASCADE STEP translator 7.8 5.2","primitives":[{"attributes":{"NORMAL":28,"POSITION":8},"indices":48,"material":0,"mode":4},{"attributes":{"NORMAL":29,"POSITION":9},"indices":49,"material":0,"mode":4},{"attributes":{"NORMAL":30,"POSITION":10},"indices":50,"material":0,"mode":4},{"attributes":{"NORMAL":31,"POSITION":11},"indices":51,"material":0,"mode":4},{"attributes":{"NORMAL":32,"POSITION":12},"indices":52,"material":0,"mode":4},{"attributes":{"NORMAL":33,"POSITION":13},"indices":53,"material":0,"mode":4}]},{"name":"Open CASCADE STEP translator 7.8 5.3","primitives":[{"attributes":{"NORMAL":34,"POSITION":14},"indices":54,"material":0,"mode":4},{"attributes":{"NORMAL":35,"POSITION":15},"indices":55,"material":0,"mode":4},{"attributes":{"NORMAL":36,"POSITION":16},"indices":56,"material":0,"mode":4},{"attributes":{"NORMAL":37,"POSITION":17},"indices":57,"material":0,"mode":4},{"attributes":{"NORMAL":38,"POSITION":18},"indices":58,"material":0,"mode":4},{"attributes":{"NORMAL":39,"POSITION":19},"indices":59,"material":0,"mode":4}]}],"nodes":[{"children":[1,2,3],"name":"Unnamed3"},{"mesh":0,"name":"Open CASCADE STEP translator 7.8 5.1"},{"translation":[0.015,0.0,0.0],"mesh":1,"name":"Open CASCADE STEP translator 7.8 5.2"},{"translation":[0.03,0.0,0.0],"mesh":2,"name":"Open CASCADE STEP translator 7.8 5.3"}],"scene":0,"scenes":[{"nodes":[0]}]}