{"accessors":[{"bufferView":0,"byteOffset":0,"componentType":5126,"count":113,"max":[-0.015,0.013228756555323,0.013227478455124194],"min":[-0.015,-0.01322364440149583,-0.013227478455124194],"type":"VEC3"},{"bufferView":0,"byteOffset":1356,"componentType":5126,"count":1251,"max":[0.015,0.015,0.015],"min":[-0.015,-0.015,-0.015],"type":"VEC3"},{"bufferView":0,"byteOffset":16368,"componentType":5126,"count":113,"max":[0.013228756555323,0.015,0.013227478455124194],"min":[-0.01322364440149583,0.015,-0.013227478455124194],"type":"VEC3"},{"bufferView":0,"byteOffset":17724,"componentType":5126,"count":114,"max":[0.015,0.013228756555323,0.013223733689390317],"min":[0.015,-0.013228756555320001,-0.013223733689390319],"type":"VEC3"},{"bufferView":0,"byteOffset":19092,"componentType":5126,"count":113,"max":[0.013228756555323,-0.015,0.013227478455124194],"min":[-0.01322364440149583,-0.015,-0.013227478455124194],"type":"VEC3"},{"bufferView":0,"byteOffset":20448,"componentType":5126,"count":113,"max":[0.013227478455124194,0.013228756555323,-0.015],"min":[-0.013227478455124194,-0.01322364440149583,-0.015],"type":"VEC3"},{"bufferView":0,"byteOffset":21804,"componentType":5126,"count":113,"max":[0.013227478455124194,0.013228756555323,0.015],"min":[-0.013227478455124194,-0.01322364440149583,0.015],"type":"VEC3"},{"bufferView":1,"byteOffset":0,"componentType":5126,"count":113,"type":"VEC3"},{"bufferView":1,"byteOffset":1356,"componentType":5126,"count":1251,"type":"VEC3"},{"bufferView":1,"byteOffset":16368,"componentType":5126,"count":113,"type":"VEC3"},{"bufferView":1,"byteOffset":17724,"componentType":5126,"count":114,"type":"VEC3"},{"bufferView":1,"byteOffset":19092,"componentType":5126,"count":113,"type":"VEC3"},{"bufferView":1,"byteOffset":20448,"componentType":5126,"count":113,"type":"VEC3"},{"bufferView":1,"byteOffset":21804,"componentType":5126,"count":113,"type":"VEC3"},{"bufferView":2,"byteOffset":0,"componentType":5123,"count":333,"type":"SCALAR"},{"bufferView":2,"byteOffset":668,"componentType":5123,"count":5445,"type":"SCALAR"},{"bufferView":2,"byteOffset":11560,"componentType":5123,"count":333,"type":"SCALAR"},{"bufferView":2,"byteOffset":12228,"componentType":5123,"count":336,"type":"SCALAR"},{"bufferView":2,"byteOffset":12900,"componentType":5123,"count":333,"type":"SCALAR"},{"bufferView":2,"byteOffset":13568,"componentType":5123,"count":333,"type":"SCALAR"},{"bufferView":2,"byteOffset":14236,"componentType":5123,"count":333,"type":"SCALAR"}],"asset":{"generator":"Open CASCADE Technology 7.8 [dev.opencascade.org]","version":"2.0"},"bufferViews":[{"buffer":0,"byteLength":23160,"byteOffset":0,"byteStride":12,"target":34962},{"buffer":0,"byteLength":23160,"byteOffset":23160,"byteStride":12,"target":34962},{"buffer":0,"byteLength":14904,"byteOffset":46320,"target":34963}],"buffers":[{"byteLength":61224,"uri":"intersect.bin"}],"materials":[{"name":"mat_0","pbrMetallicRoughness":{"baseColorFactor":[0.0,0.5225215554237366,1.0,1.0]},"doubleSided":true}],"meshes":[{"name":"Gövde","primitives":[{"attributes":{"NORMAL":7,"POSITION":0},"indices":14,"material":0,"mode":4},{"attributes":{"NORMAL":8,"POSITION":1},"indices":15,"material":0,"mode":4},{"attributes":{"NORMAL":9,"POSITION":2},"indices":16,"material":0,"mode":4},{"attributes":{"NORMAL":10,"POSITION":3},"indices":17,"material":0,"mode":4},{"attributes":{"NORMAL":11,"POSITION":4},"indices":18,"material":0,"mode":4},{"attributes":{"NORMAL":12,"POSITION":5},"indices":19,"material":0,"mode":4},{"attributes":{"NORMAL":13,"POSITION":6},"indices":20,"material":0,"mode":4}]}],"nodes":[{"mesh":0,"name":"Gövde"}],"scene":0,"scenes":[{"nodes":[0]}]}