{"accessors":[{"bufferView":0,"byteOffset":0,"componentType":5126,"count":4,"max":[0.01,0.075,0.0],"min":[0.0,0.0,0.0],"type":"VEC3"},{"bufferView":0,"byteOffset":48,"componentType":5126,"count":38,"max":[0.025,0.075,0.0],"min":[0.01,0.0,-0.008],"type":"VEC3"},{"bufferView":0,"byteOffset":504,"componentType":5126,"count":4,"max":[0.025,0.075,0.0],"min":[0.0,0.0,-0.008],"type":"VEC3"},{"bufferView":0,"byteOffset":552,"componentType":5126,"count":20,"max":[0.025,0.0,0.0],"min":[0.0,0.0,-0.008],"type":"VEC3"},{"bufferView":0,"byteOffset":792,"componentType":5126,"count":20,"max":[0.025,0.075,0.0],"min":[0.0,0.075,-0.008],"type":"VEC3"},{"bufferView":1,"byteOffset":0,"componentType":5126,"count":4,"type":"VEC3"},{"bufferView":1,"byteOffset":48,"componentType":5126,"count":38,"type":"VEC3"},{"bufferView":1,"byteOffset":504,"componentType":5126,"count":4,"type":"VEC3"},{"bufferView":1,"byteOffset":552,"componentType":5126,"count":20,"type":"VEC3"},{"bufferView":1,"byteOffset":792,"componentType":5126,"count":20,"type":"VEC3"},{"bufferView":2,"byteOffset":0,"componentType":5123,"count":6,"type":"SCALAR"},{"bufferView":2,"byteOffset":12,"componentType":5123,"count":108,"type":"SCALAR"},{"bufferView":2,"byteOffset":228,"componentType":5123,"count":6,"type":"SCALAR"},{"bufferView":2,"byteOffset":240,"componentType":5123,"count":54,"type":"SCALAR"},{"bufferView":2,"byteOffset":348,"componentType":5123,"count":54,"type":"SCALAR"}],"asset":{"generator":"Open CASCADE Technology 7.8 [dev.opencascade.org]","version":"2.0"},"bufferViews":[{"buffer":0,"byteLength":1032,"byteOffset":0,"byteStride":12,"target":34962},{"buffer":0,"byteLength":1032,"byteOffset":1032,"byteStride":12,"target":34962},{"buffer":0,"byteLength":456,"byteOffset":2064,"target":34963}],"buffers":[{"byteLength":2520,"uri":"kanat.bin"}],"materials":[{"name":"mat_0","pbrMetallicRoughness":{"baseColorFactor":[0.0,0.5225215554237366,1.0,1.0]},"doubleSided":true}],"meshes":[{"name":"Gövde","primitives":[{"attributes":{"NORMAL":5,"POSITION":0},"indices":10,"material":0,"mode":4},{"attributes":{"NORMAL":6,"POSITION":1},"indices":11,"material":0,"mode":4},{"attributes":{"NORMAL":7,"POSITION":2},"indices":12,"material":0,"mode":4},{"attributes":{"NORMAL":8,"POSITION":3},"indices":13,"material":0,"mode":4},{"attributes":{"NORMAL":9,"POSITION":4},"indices":14,"material":0,"mode":4}]}],"nodes":[{"mesh":0,"name":"Gövde"}],"scene":0,"scenes":[{"nodes":[0]}]}