{"accessors":[{"bufferView":0,"byteOffset":0,"componentType":5126,"count":4,"max":[-0.01,0.014,0.0135],"min":[-0.01,-0.015,-0.0135],"type":"VEC3"},{"bufferView":0,"byteOffset":48,"componentType":5126,"count":60,"max":[-0.0085,0.014,0.015],"min":[-0.01,-0.015,0.0135],"type":"VEC3"},{"bufferView":0,"byteOffset":768,"componentType":5126,"count":4,"max":[-0.009000000000000001,0.015,0.0135],"min":[-0.01,0.014,-0.0135],"type":"VEC3"},{"bufferView":0,"byteOffset":816,"componentType":5126,"count":120,"max":[0.01,-0.015,0.015],"min":[-0.01,-0.015,-0.015],"type":"VEC3"},{"bufferView":0,"byteOffset":2256,"componentType":5126,"count":60,"max":[-0.0085,0.014,-0.0135],"min":[-0.01,-0.015,-0.015],"type":"VEC3"},{"bufferView":0,"byteOffset":2976,"componentType":5126,"count":116,"max":[-0.0085,0.015,0.015],"min":[-0.01,0.014,0.0135],"type":"VEC3"},{"bufferView":0,"byteOffset":4368,"componentType":5126,"count":4,"max":[0.0085,0.014,0.015],"min":[-0.0085,-0.015,0.015],"type":"VEC3"},{"bufferView":0,"byteOffset":4416,"componentType":5126,"count":116,"max":[-0.0085,0.015,-0.0135],"min":[-0.01,0.014,-0.015],"type":"VEC3"},{"bufferView":0,"byteOffset":5808,"componentType":5126,"count":120,"max":[0.009000000000000001,0.015,0.014],"min":[-0.009000000000000001,0.015,-0.014],"type":"VEC3"},{"bufferView":0,"byteOffset":7248,"componentType":5126,"count":4,"max":[0.0085,0.014,-0.015],"min":[-0.0085,-0.015,-0.015],"type":"VEC3"},{"bufferView":0,"byteOffset":7296,"componentType":5126,"count":60,"max":[0.01,0.014,0.015],"min":[0.0085,-0.015,0.0135],"type":"VEC3"},{"bufferView":0,"byteOffset":8016,"componentType":5126,"count":60,"max":[0.01,0.014,-0.0135],"min":[0.0085,-0.015,-0.015],"type":"VEC3"},{"bufferView":0,"byteOffset":8736,"componentType":5126,"count":4,"max":[0.01,0.014,0.0135],"min":[0.01,-0.015,-0.0135],"type":"VEC3"},{"bufferView":0,"byteOffset":8784,"componentType":5126,"count":4,"max":[0.0085,0.015,0.015],"min":[-0.0085,0.014,0.014],"type":"VEC3"},{"bufferView":0,"byteOffset":8832,"componentType":5126,"count":4,"max":[0.0085,0.015,-0.014],"min":[-0.0085,0.014,-0.015],"type":"VEC3"},{"bufferView":0,"byteOffset":8880,"componentType":5126,"count":116,"max":[0.01,0.015,0.015],"min":[0.0085,0.014,0.0135],"type":"VEC3"},{"bufferView":0,"byteOffset":10272,"componentType":5126,"count":4,"max":[0.01,0.015,0.0135],"min":[0.009000000000000001,0.014,-0.0135],"type":"VEC3"},{"bufferView":0,"byteOffset":10320,"componentType":5126,"count":116,"max":[0.01,0.015,-0.0135],"min":[0.0085,0.014,-0.015],"type":"VEC3"},{"bufferView":1,"byteOffset":0,"componentType":5126,"count":4,"type":"VEC3"},{"bufferView":1,"byteOffset":48,"componentType":5126,"count":60,"type":"VEC3"},{"bufferView":1,"byteOffset":768,"componentType":5126,"count":4,"type":"VEC3"},{"bufferView":1,"byteOffset":816,"componentType":5126,"count":120,"type":"VEC3"},{"bufferView":1,"byteOffset":2256,"componentType":5126,"count":60,"type":"VEC3"},{"bufferView":1,"byteOffset":2976,"componentType":5126,"count":116,"type":"VEC3"},{"bufferView":1,"byteOffset":4368,"componentType":5126,"count":4,"type":"VEC3"},{"bufferView":1,"byteOffset":4416,"componentType":5126,"count":116,"type":"VEC3"},{"bufferView":1,"byteOffset":5808,"componentType":5126,"count":120,"type":"VEC3"},{"bufferView":1,"byteOffset":7248,"componentType":5126,"count":4,"type":"VEC3"},{"bufferView":1,"byteOffset":7296,"componentType":5126,"count":60,"type":"VEC3"},{"bufferView":1,"byteOffset":8016,"componentType":5126,"count":60,"type":"VEC3"},{"bufferView":1,"byteOffset":8736,"componentType":5126,"count":4,"type":"VEC3"},{"bufferView":1,"byteOffset":8784,"componentType":5126,"count":4,"type":"VEC3"},{"bufferView":1,"byteOffset":8832,"componentType":5126,"count":4,"type":"VEC3"},{"bufferView":1,"byteOffset":8880,"componentType":5126,"count":116,"type":"VEC3"},{"bufferView":1,"byteOffset":10272,"componentType":5126,"count":4,"type":"VEC3"},{"bufferView":1,"byteOffset":10320,"componentType":5126,"count":116,"type":"VEC3"},{"bufferView":2,"byteOffset":0,"componentType":5123,"count":6,"type":"SCALAR"},{"bufferView":2,"byteOffset":12,"componentType":5123,"count":174,"type":"SCALAR"},{"bufferView":2,"byteOffset":360,"componentType":5123,"count":6,"type":"SCALAR"},{"bufferView":2,"byteOffset":372,"componentType":5123,"count":354,"type":"SCALAR"},{"bufferView":2,"byteOffset":1080,"componentType":5123,"count":174,"type":"SCALAR"},{"bufferView":2,"byteOffset":1428,"componentType":5123,"count":510,"type":"SCALAR"},{"bufferView":2,"byteOffset":2448,"componentType":5123,"count":6,"type":"SCALAR"},{"bufferView":2,"byteOffset":2460,"componentType":5123,"count":510,"type":"SCALAR"},{"bufferView":2,"byteOffset":3480,"componentType":5123,"count":354,"type":"SCALAR"},{"bufferView":2,"byteOffset":4188,"componentType":5123,"count":6,"type":"SCALAR"},{"bufferView":2,"byteOffset":4200,"componentType":5123,"count":174,"type":"SCALAR"},{"bufferView":2,"byteOffset":4548,"componentType":5123,"count":174,"type":"SCALAR"},{"bufferView":2,"byteOffset":4896,"componentType":5123,"count":6,"type":"SCALAR"},{"bufferView":2,"byteOffset":4908,"componentType":5123,"count":6,"type":"SCALAR"},{"bufferView":2,"byteOffset":4920,"componentType":5123,"count":6,"type":"SCALAR"},{"bufferView":2,"byteOffset":4932,"componentType":5123,"count":510,"type":"SCALAR"},{"bufferView":2,"byteOffset":5952,"componentType":5123,"count":6,"type":"SCALAR"},{"bufferView":2,"byteOffset":5964,"componentType":5123,"count":510,"type":"SCALAR"}],"asset":{"generator":"Open CASCADE Technology 7.8 [dev.opencascade.org]","version":"2.0"},"bufferViews":[{"buffer":0,"byteLength":11712,"byteOffset":0,"byteStride":12,"target":34962},{"buffer":0,"byteLength":11712,"byteOffset":11712,"byteStride":12,"target":34962},{"buffer":0,"byteLength":6984,"byteOffset":23424,"target":34963}],"buffers":[{"byteLength":30408,"uri":"kosullu_secim_islemi.bin"}],"materials":[{"name":"mat_0","pbrMetallicRoughness":{"baseColorFactor":[0.0,0.5225215554237366,1.0,1.0]},"doubleSided":true}],"meshes":[{"name":"Gövde","primitives":[{"attributes":{"NORMAL":18,"POSITION":0},"indices":36,"material":0,"mode":4},{"attributes":{"NORMAL":19,"POSITION":1},"indices":37,"material":0,"mode":4},{"attributes":{"NORMAL":20,"POSITION":2},"indices":38,"material":0,"mode":4},{"attributes":{"NORMAL":21,"POSITION":3},"indices":39,"material":0,"mode":4},{"attributes":{"NORMAL":22,"POSITION":4},"indices":40,"material":0,"mode":4},{"attributes":{"NORMAL":23,"POSITION":5},"indices":41,"material":0,"mode":4},{"attributes":{"NORMAL":24,"POSITION":6},"indices":42,"material":0,"mode":4},{"attributes":{"NORMAL":25,"POSITION":7},"indices":43,"material":0,"mode":4},{"attributes":{"NORMAL":26,"POSITION":8},"indices":44,"material":0,"mode":4},{"attributes":{"NORMAL":27,"POSITION":9},"indices":45,"material":0,"mode":4},{"attributes":{"NORMAL":28,"POSITION":10},"indices":46,"material":0,"mode":4},{"attributes":{"NORMAL":29,"POSITION":11},"indices":47,"material":0,"mode":4},{"attributes":{"NORMAL":30,"POSITION":12},"indices":48,"material":0,"mode":4},{"attributes":{"NORMAL":31,"POSITION":13},"indices":49,"material":0,"mode":4},{"attributes":{"NORMAL":32,"POSITION":14},"indices":50,"material":0,"mode":4},{"attributes":{"NORMAL":33,"POSITION":15},"indices":51,"material":0,"mode":4},{"attributes":{"NORMAL":34,"POSITION":16},"indices":52,"material":0,"mode":4},{"attributes":{"NORMAL":35,"POSITION":17},"indices":53,"material":0,"mode":4}]}],"nodes":[{"mesh":0,"name":"Gövde"}],"scene":0,"scenes":[{"nodes":[0]}]}