{"accessors":[{"bufferView":0,"byteOffset":0,"componentType":5126,"count":4,"max":[25.0,20.0,30.0],"min":[25.0,-20.0,0.0],"type":"VEC3"},{"bufferView":0,"byteOffset":48,"componentType":5126,"count":4,"max":[25.0,-20.0,30.0],"min":[-25.0,-20.0,0.0],"type":"VEC3"},{"bufferView":0,"byteOffset":96,"componentType":5126,"count":4,"max":[-25.0,20.0,30.0],"min":[-25.0,-20.0,0.0],"type":"VEC3"},{"bufferView":0,"byteOffset":144,"componentType":5126,"count":4,"max":[25.0,20.0,30.0],"min":[-25.0,20.0,0.0],"type":"VEC3"},{"bufferView":0,"byteOffset":192,"componentType":5126,"count":4,"max":[25.0,20.0,0.0],"min":[-25.0,-20.0,0.0],"type":"VEC3"},{"bufferView":0,"byteOffset":240,"componentType":5126,"count":8,"max":[25.0,20.0,30.0],"min":[-25.0,-20.0,30.0],"type":"VEC3"},{"bufferView":0,"byteOffset":336,"componentType":5126,"count":4,"max":[-23.0,18.0,30.0],"min":[-23.0,-18.0,2.0],"type":"VEC3"},{"bufferView":0,"byteOffset":384,"componentType":5126,"count":4,"max":[23.0,18.0,30.0],"min":[-23.0,18.0,2.0],"type":"VEC3"},{"bufferView":0,"byteOffset":432,"componentType":5126,"count":4,"max":[23.0,18.0,30.0],"min":[23.0,-18.0,2.0],"type":"VEC3"},{"bufferView":0,"byteOffset":480,"componentType":5126,"count":4,"max":[23.0,-18.0,30.0],"min":[-23.0,-18.0,2.0],"type":"VEC3"},{"bufferView":0,"byteOffset":528,"componentType":5126,"count":4,"max":[23.0,18.0,2.0],"min":[-23.0,-18.0,2.0],"type":"VEC3"},{"bufferView":0,"byteOffset":576,"componentType":5126,"count":4,"max":[-25.0,20.0,5.0],"min":[-25.0,-20.0,0.0],"type":"VEC3"},{"bufferView":0,"byteOffset":624,"componentType":5126,"count":4,"max":[25.0,-20.0,5.0],"min":[-25.0,-20.0,0.0],"type":"VEC3"},{"bufferView":0,"byteOffset":672,"componentType":5126,"count":4,"max":[25.0,20.0,5.0],"min":[-25.0,-20.0,5.0],"type":"VEC3"},{"bufferView":0,"byteOffset":720,"componentType":5126,"count":4,"max":[25.0,20.0,5.0],"min":[-25.0,20.0,0.0],"type":"VEC3"},{"bufferView":0,"byteOffset":768,"componentType":5126,"count":8,"max":[25.0,20.0,0.0],"min":[-25.0,-20.0,0.0],"type":"VEC3"},{"bufferView":0,"byteOffset":864,"componentType":5126,"count":4,"max":[25.0,20.0,5.0],"min":[25.0,-20.0,0.0],"type":"VEC3"},{"bufferView":0,"byteOffset":912,"componentType":5126,"count":4,"max":[22.8,-17.8,0.0],"min":[-22.8,-17.8,-3.0],"type":"VEC3"},{"bufferView":0,"byteOffset":960,"componentType":5126,"count":4,"max":[22.8,17.8,0.0],"min":[22.8,-17.8,-3.0],"type":"VEC3"},{"bufferView":0,"byteOffset":1008,"componentType":5126,"count":4,"max":[22.8,17.8,0.0],"min":[-22.8,17.8,-3.0],"type":"VEC3"},{"bufferView":0,"byteOffset":1056,"componentType":5126,"count":4,"max":[-22.8,17.8,0.0],"min":[-22.8,-17.8,-3.0],"type":"VEC3"},{"bufferView":0,"byteOffset":1104,"componentType":5126,"count":8,"max":[22.8,17.8,-3.0],"min":[-22.8,-17.8,-3.0],"type":"VEC3"},{"bufferView":0,"byteOffset":1200,"componentType":5126,"count":4,"max":[-21.3,16.3,0.0],"min":[-21.3,-16.3,-3.0],"type":"VEC3"},{"bufferView":0,"byteOffset":1248,"componentType":5126,"count":4,"max":[21.3,16.3,0.0],"min":[-21.3,16.3,-3.0],"type":"VEC3"},{"bufferView":0,"byteOffset":1296,"componentType":5126,"count":4,"max":[21.3,16.3,0.0],"min":[21.3,-16.3,-3.0],"type":"VEC3"},{"bufferView":0,"byteOffset":1344,"componentType":5126,"count":4,"max":[21.3,-16.3,0.0],"min":[-21.3,-16.3,-3.0],"type":"VEC3"},{"bufferView":0,"byteOffset":1392,"componentType":5126,"count":4,"max":[21.3,16.3,0.0],"min":[-21.3,-16.3,0.0],"type":"VEC3"},{"bufferView":1,"byteOffset":0,"componentType":5126,"count":4,"type":"VEC3"},{"bufferView":1,"byteOffset":48,"componentType":5126,"count":4,"type":"VEC3"},{"bufferView":1,"byteOffset":96,"componentType":5126,"count":4,"type":"VEC3"},{"bufferView":1,"byteOffset":144,"componentType":5126,"count":4,"type":"VEC3"},{"bufferView":1,"byteOffset":192,"componentType":5126,"count":4,"type":"VEC3"},{"bufferView":1,"byteOffset":240,"componentType":5126,"count":8,"type":"VEC3"},{"bufferView":1,"byteOffset":336,"componentType":5126,"count":4,"type":"VEC3"},{"bufferView":1,"byteOffset":384,"componentType":5126,"count":4,"type":"VEC3"},{"bufferView":1,"byteOffset":432,"componentType":5126,"count":4,"type":"VEC3"},{"bufferView":1,"byteOffset":480,"componentType":5126,"count":4,"type":"VEC3"},{"bufferView":1,"byteOffset":528,"componentType":5126,"count":4,"type":"VEC3"},{"bufferView":1,"byteOffset":576,"componentType":5126,"count":4,"type":"VEC3"},{"bufferView":1,"byteOffset":624,"componentType":5126,"count":4,"type":"VEC3"},{"bufferView":1,"byteOffset":672,"componentType":5126,"count":4,"type":"VEC3"},{"bufferView":1,"byteOffset":720,"componentType":5126,"count":4,"type":"VEC3"},{"bufferView":1,"byteOffset":768,"componentType":5126,"count":8,"type":"VEC3"},{"bufferView":1,"byteOffset":864,"componentType":5126,"count":4,"type":"VEC3"},{"bufferView":1,"byteOffset":912,"componentType":5126,"count":4,"type":"VEC3"},{"bufferView":1,"byteOffset":960,"componentType":5126,"count":4,"type":"VEC3"},{"bufferView":1,"byteOffset":1008,"componentType":5126,"count":4,"type":"VEC3"},{"bufferView":1,"byteOffset":1056,"componentType":5126,"count":4,"type":"VEC3"},{"bufferView":1,"byteOffset":1104,"componentType":5126,"count":8,"type":"VEC3"},{"bufferView":1,"byteOffset":1200,"componentType":5126,"count":4,"type":"VEC3"},{"bufferView":1,"byteOffset":1248,"componentType":5126,"count":4,"type":"VEC3"},{"bufferView":1,"byteOffset":1296,"componentType":5126,"count":4,"type":"VEC3"},{"bufferView":1,"byteOffset":1344,"componentType":5126,"count":4,"type":"VEC3"},{"bufferView":1,"byteOffset":1392,"componentType":5126,"count":4,"type":"VEC3"},{"bufferView":2,"byteOffset":0,"componentType":5123,"count":6,"type":"SCALAR"},{"bufferView":2,"byteOffset":12,"componentType":5123,"count":6,"type":"SCALAR"},{"bufferView":2,"byteOffset":24,"componentType":5123,"count":6,"type":"SCALAR"},{"bufferView":2,"byteOffset":36,"componentType":5123,"count":6,"type":"SCALAR"},{"bufferView":2,"byteOffset":48,"componentType":5123,"count":6,"type":"SCALAR"},{"bufferView":2,"byteOffset":60,"componentType":5123,"count":24,"type":"SCALAR"},{"bufferView":2,"byteOffset":108,"componentType":5123,"count":6,"type":"SCALAR"},{"bufferView":2,"byteOffset":120,"componentType":5123,"count":6,"type":"SCALAR"},{"bufferView":2,"byteOffset":132,"componentType":5123,"count":6,"type":"SCALAR"},{"bufferView":2,"byteOffset":144,"componentType":5123,"count":6,"type":"SCALAR"},{"bufferView":2,"byteOffset":156,"componentType":5123,"count":6,"type":"SCALAR"},{"bufferView":2,"byteOffset":168,"componentType":5123,"count":6,"type":"SCALAR"},{"bufferView":2,"byteOffset":180,"componentType":5123,"count":6,"type":"SCALAR"},{"bufferView":2,"byteOffset":192,"componentType":5123,"count":6,"type":"SCALAR"},{"bufferView":2,"byteOffset":204,"componentType":5123,"count":6,"type":"SCALAR"},{"bufferView":2,"byteOffset":216,"componentType":5123,"count":24,"type":"SCALAR"},{"bufferView":2,"byteOffset":264,"componentType":5123,"count":6,"type":"SCALAR"},{"bufferView":2,"byteOffset":276,"componentType":5123,"count":6,"type":"SCALAR"},{"bufferView":2,"byteOffset":288,"componentType":5123,"count":6,"type":"SCALAR"},{"bufferView":2,"byteOffset":300,"componentType":5123,"count":6,"type":"SCALAR"},{"bufferView":2,"byteOffset":312,"componentType":5123,"count":6,"type":"SCALAR"},{"bufferView":2,"byteOffset":324,"componentType":5123,"count":24,"type":"SCALAR"},{"bufferView":2,"byteOffset":372,"componentType":5123,"count":6,"type":"SCALAR"},{"bufferView":2,"byteOffset":384,"componentType":5123,"count":6,"type":"SCALAR"},{"bufferView":2,"byteOffset":396,"componentType":5123,"count":6,"type":"SCALAR"},{"bufferView":2,"byteOffset":408,"componentType":5123,"count":6,"type":"SCALAR"},{"bufferView":2,"byteOffset":420,"componentType":5123,"count":6,"type":"SCALAR"}],"asset":{"generator":"Open CASCADE Technology 7.8 [dev.opencascade.org]","version":"2.0"},"bufferViews":[{"buffer":0,"byteLength":1440,"byteOffset":0,"byteStride":12,"target":34962},{"buffer":0,"byteLength":1440,"byteOffset":1440,"byteStride":12,"target":34962},{"buffer":0,"byteLength":432,"byteOffset":2880,"target":34963}],"buffers":[{"byteLength":3312,"uri":"kutu_ve_kapagi.bin"}],"materials":[{"name":"mat_0","pbrMetallicRoughness":{"baseColorFactor":[0.4178850054740906,0.6866859793663025,0.7912989854812622,1.0]},"doubleSided":true},{"name":"mat_1","pbrMetallicRoughness":{"baseColorFactor":[0.871366024017334,0.2158609926700592,0.2158609926700592,1.0]},"doubleSided":true}],"meshes":[{"name":"kutu_part","primitives":[{"attributes":{"NORMAL":27,"POSITION":0},"indices":54,"material":0,"mode":4},{"attributes":{"NORMAL":28,"POSITION":1},"indices":55,"material":0,"mode":4},{"attributes":{"NORMAL":29,"POSITION":2},"indices":56,"material":0,"mode":4},{"attributes":{"NORMAL":30,"POSITION":3},"indices":57,"material":0,"mode":4},{"attributes":{"NORMAL":31,"POSITION":4},"indices":58,"material":0,"mode":4},{"attributes":{"NORMAL":32,"POSITION":5},"indices":59,"material":0,"mode":4},{"attributes":{"NORMAL":33,"POSITION":6},"indices":60,"material":0,"mode":4},{"attributes":{"NORMAL":34,"POSITION":7},"indices":61,"material":0,"mode":4},{"attributes":{"NORMAL":35,"POSITION":8},"indices":62,"material":0,"mode":4},{"attributes":{"NORMAL":36,"POSITION":9},"indices":63,"material":0,"mode":4},{"attributes":{"NORMAL":37,"POSITION":10},"indices":64,"material":0,"mode":4}]},{"name":"kapak_acik_part","primitives":[{"attributes":{"NORMAL":38,"POSITION":11},"indices":65,"material":1,"mode":4},{"attributes":{"NORMAL":39,"POSITION":12},"indices":66,"material":1,"mode":4},{"attributes":{"NORMAL":40,"POSITION":13},"indices":67,"material":1,"mode":4},{"attributes":{"NORMAL":41,"POSITION":14},"indices":68,"material":1,"mode":4},{"attributes":{"NORMAL":42,"POSITION":15},"indices":69,"material":1,"mode":4},{"attributes":{"NORMAL":43,"POSITION":16},"indices":70,"material":1,"mode":4},{"attributes":{"NORMAL":44,"POSITION":17},"indices":71,"material":1,"mode":4},{"attributes":{"NORMAL":45,"POSITION":18},"indices":72,"material":1,"mode":4},{"attributes":{"NORMAL":46,"POSITION":19},"indices":73,"material":1,"mode":4},{"attributes":{"NORMAL":47,"POSITION":20},"indices":74,"material":1,"mode":4},{"attributes":{"NORMAL":48,"POSITION":21},"indices":75,"material":1,"mode":4},{"attributes":{"NORMAL":49,"POSITION":22},"indices":76,"material":1,"mode":4},{"attributes":{"NORMAL":50,"POSITION":23},"indices":77,"material":1,"mode":4},{"attributes":{"NORMAL":51,"POSITION":24},"indices":78,"material":1,"mode":4},{"attributes":{"NORMAL":52,"POSITION":25},"indices":79,"material":1,"mode":4},{"attributes":{"NORMAL":53,"POSITION":26},"indices":80,"material":1,"mode":4}]}],"nodes":[{"children":[1,3],"rotation":[-0.7071067811865475,0.0,0.0,0.7071067811865475],"name":"7cd9aea3-3827-11f0-b024-78af08feb68a"},{"children":[2],"name":"kutu"},{"mesh":0,"name":"kutu_part"},{"children":[4],"rotation":[0.0,0.2588190451025207,0.0,0.9659258262890683],"translation":[25.0,0.0,40.0],"name":"kapak_acik"},{"mesh":1,"name":"kapak_acik_part"}],"scene":0,"scenes":[{"nodes":[0]}]}