{"accessors":[{"bufferView":0,"byteOffset":0,"componentType":5126,"count":328,"max":[0.02,0.05,0.02],"min":[-0.02,0.0,0.01060660171779],"type":"VEC3"},{"bufferView":0,"byteOffset":3936,"componentType":5126,"count":140,"max":[0.02,0.05,0.02],"min":[0.010606601717798,0.0,0.0],"type":"VEC3"},{"bufferView":0,"byteOffset":5616,"componentType":5126,"count":134,"max":[0.02,0.05,0.0],"min":[0.010606601717798,0.0,-0.02],"type":"VEC3"},{"bufferView":0,"byteOffset":7224,"componentType":5126,"count":328,"max":[0.02,0.05,-0.010606601717798],"min":[-0.02,0.0,-0.02],"type":"VEC3"},{"bufferView":0,"byteOffset":11160,"componentType":5126,"count":328,"max":[-0.01060660171779,0.05,0.02],"min":[-0.02,0.0,-0.02],"type":"VEC3"},{"bufferView":0,"byteOffset":15096,"componentType":5126,"count":5,"max":[0.02,0.0,0.02],"min":[-0.02,0.0,-0.02],"type":"VEC3"},{"bufferView":0,"byteOffset":15156,"componentType":5126,"count":117,"max":[0.015,0.05,0.014994499293349332],"min":[-0.014994499293349332,0.05,-0.01499449929334934],"type":"VEC3"},{"bufferView":1,"byteOffset":0,"componentType":5126,"count":328,"type":"VEC3"},{"bufferView":1,"byteOffset":3936,"componentType":5126,"count":140,"type":"VEC3"},{"bufferView":1,"byteOffset":5616,"componentType":5126,"count":134,"type":"VEC3"},{"bufferView":1,"byteOffset":7224,"componentType":5126,"count":328,"type":"VEC3"},{"bufferView":1,"byteOffset":11160,"componentType":5126,"count":328,"type":"VEC3"},{"bufferView":1,"byteOffset":15096,"componentType":5126,"count":5,"type":"VEC3"},{"bufferView":1,"byteOffset":15156,"componentType":5126,"count":117,"type":"VEC3"},{"bufferView":2,"byteOffset":0,"componentType":5123,"count":1866,"type":"SCALAR"},{"bufferView":2,"byteOffset":3732,"componentType":5123,"count":780,"type":"SCALAR"},{"bufferView":2,"byteOffset":5292,"componentType":5123,"count":744,"type":"SCALAR"},{"bufferView":2,"byteOffset":6780,"componentType":5123,"count":1866,"type":"SCALAR"},{"bufferView":2,"byteOffset":10512,"componentType":5123,"count":1866,"type":"SCALAR"},{"bufferView":2,"byteOffset":14244,"componentType":5123,"count":9,"type":"SCALAR"},{"bufferView":2,"byteOffset":14264,"componentType":5123,"count":345,"type":"SCALAR"}],"asset":{"generator":"Open CASCADE Technology 7.8 [dev.opencascade.org]","version":"2.0"},"bufferViews":[{"buffer":0,"byteLength":16560,"byteOffset":0,"byteStride":12,"target":34962},{"buffer":0,"byteLength":16560,"byteOffset":16560,"byteStride":12,"target":34962},{"buffer":0,"byteLength":14956,"byteOffset":33120,"target":34963}],"buffers":[{"byteLength":48076,"uri":"loft-adapter.bin"}],"materials":[{"name":"mat_0","pbrMetallicRoughness":{"baseColorFactor":[0.0,0.5225215554237366,1.0,1.0]},"doubleSided":true}],"meshes":[{"name":"Gövde","primitives":[{"attributes":{"NORMAL":7,"POSITION":0},"indices":14,"material":0,"mode":4},{"attributes":{"NORMAL":8,"POSITION":1},"indices":15,"material":0,"mode":4},{"attributes":{"NORMAL":9,"POSITION":2},"indices":16,"material":0,"mode":4},{"attributes":{"NORMAL":10,"POSITION":3},"indices":17,"material":0,"mode":4},{"attributes":{"NORMAL":11,"POSITION":4},"indices":18,"material":0,"mode":4},{"attributes":{"NORMAL":12,"POSITION":5},"indices":19,"material":0,"mode":4},{"attributes":{"NORMAL":13,"POSITION":6},"indices":20,"material":0,"mode":4}]}],"nodes":[{"mesh":0,"name":"Gövde"}],"scene":0,"scenes":[{"nodes":[0]}]}