{"accessors":[{"bufferView":0,"byteOffset":0,"componentType":5126,"count":4,"max":[-0.005,0.004,0.005],"min":[-0.005,-0.005,-0.005],"type":"VEC3"},{"bufferView":0,"byteOffset":48,"componentType":5126,"count":33,"max":[0.005,0.005,0.005],"min":[-0.005,-0.005,0.005],"type":"VEC3"},{"bufferView":0,"byteOffset":444,"componentType":5126,"count":60,"max":[-0.004,0.005,0.005],"min":[-0.005,0.004,-0.005],"type":"VEC3"},{"bufferView":0,"byteOffset":1164,"componentType":5126,"count":4,"max":[0.005,-0.005,0.005],"min":[-0.005,-0.005,-0.005],"type":"VEC3"},{"bufferView":0,"byteOffset":1212,"componentType":5126,"count":33,"max":[0.005,0.005,-0.005],"min":[-0.005,-0.005,-0.005],"type":"VEC3"},{"bufferView":0,"byteOffset":1608,"componentType":5126,"count":4,"max":[0.005,0.005,0.005],"min":[-0.004,0.005,-0.005],"type":"VEC3"},{"bufferView":0,"byteOffset":1656,"componentType":5126,"count":4,"max":[0.005,0.005,0.005],"min":[0.005,-0.005,-0.005],"type":"VEC3"},{"bufferView":1,"byteOffset":0,"componentType":5126,"count":4,"type":"VEC3"},{"bufferView":1,"byteOffset":48,"componentType":5126,"count":33,"type":"VEC3"},{"bufferView":1,"byteOffset":444,"componentType":5126,"count":60,"type":"VEC3"},{"bufferView":1,"byteOffset":1164,"componentType":5126,"count":4,"type":"VEC3"},{"bufferView":1,"byteOffset":1212,"componentType":5126,"count":33,"type":"VEC3"},{"bufferView":1,"byteOffset":1608,"componentType":5126,"count":4,"type":"VEC3"},{"bufferView":1,"byteOffset":1656,"componentType":5126,"count":4,"type":"VEC3"},{"bufferView":2,"byteOffset":0,"componentType":5123,"count":6,"type":"SCALAR"},{"bufferView":2,"byteOffset":12,"componentType":5123,"count":93,"type":"SCALAR"},{"bufferView":2,"byteOffset":200,"componentType":5123,"count":174,"type":"SCALAR"},{"bufferView":2,"byteOffset":548,"componentType":5123,"count":6,"type":"SCALAR"},{"bufferView":2,"byteOffset":560,"componentType":5123,"count":93,"type":"SCALAR"},{"bufferView":2,"byteOffset":748,"componentType":5123,"count":6,"type":"SCALAR"},{"bufferView":2,"byteOffset":760,"componentType":5123,"count":6,"type":"SCALAR"}],"asset":{"generator":"Open CASCADE Technology 7.8 [dev.opencascade.org]","version":"2.0"},"bufferViews":[{"buffer":0,"byteLength":1704,"byteOffset":0,"byteStride":12,"target":34962},{"buffer":0,"byteLength":1704,"byteOffset":1704,"byteStride":12,"target":34962},{"buffer":0,"byteLength":772,"byteOffset":3408,"target":34963}],"buffers":[{"byteLength":4180,"uri":"lt_X_sol_ust_kenar_fillet.bin"}],"materials":[{"name":"mat_0","pbrMetallicRoughness":{"baseColorFactor":[0.0,0.5225215554237366,1.0,1.0]},"doubleSided":true}],"meshes":[{"name":"Gövde","primitives":[{"attributes":{"NORMAL":7,"POSITION":0},"indices":14,"material":0,"mode":4},{"attributes":{"NORMAL":8,"POSITION":1},"indices":15,"material":0,"mode":4},{"attributes":{"NORMAL":9,"POSITION":2},"indices":16,"material":0,"mode":4},{"attributes":{"NORMAL":10,"POSITION":3},"indices":17,"material":0,"mode":4},{"attributes":{"NORMAL":11,"POSITION":4},"indices":18,"material":0,"mode":4},{"attributes":{"NORMAL":12,"POSITION":5},"indices":19,"material":0,"mode":4},{"attributes":{"NORMAL":13,"POSITION":6},"indices":20,"material":0,"mode":4}]}],"nodes":[{"mesh":0,"name":"Gövde"}],"scene":0,"scenes":[{"nodes":[0]}]}