{"accessors":[{"bufferView":0,"byteOffset":0,"componentType":5126,"count":4,"max":[-0.03,0.012,0.017],"min":[-0.03,-0.012,-0.017],"type":"VEC3"},{"bufferView":0,"byteOffset":48,"componentType":5126,"count":4,"max":[-0.027,0.012,-0.017],"min":[-0.03,-0.012,-0.02],"type":"VEC3"},{"bufferView":0,"byteOffset":96,"componentType":5126,"count":4,"max":[-0.027,-0.012,0.017],"min":[-0.03,-0.015,-0.017],"type":"VEC3"},{"bufferView":0,"byteOffset":144,"componentType":5126,"count":4,"max":[-0.027,0.015,0.02],"min":[-0.03,0.012,-0.017],"type":"VEC3"},{"bufferView":0,"byteOffset":192,"componentType":5126,"count":4,"max":[-0.027,0.015,0.02],"min":[-0.03,-0.012,0.017],"type":"VEC3"},{"bufferView":0,"byteOffset":240,"componentType":5126,"count":3,"max":[-0.027,-0.012,-0.017],"min":[-0.03,-0.015,-0.02],"type":"VEC3"},{"bufferView":0,"byteOffset":276,"componentType":5126,"count":3,"max":[-0.027,0.015,-0.017],"min":[-0.03,0.012,-0.02],"type":"VEC3"},{"bufferView":0,"byteOffset":312,"componentType":5126,"count":4,"max":[0.027,0.012,-0.02],"min":[-0.027,-0.012,-0.02],"type":"VEC3"},{"bufferView":0,"byteOffset":360,"componentType":5126,"count":3,"max":[-0.027,-0.012,0.02],"min":[-0.03,-0.015,0.017],"type":"VEC3"},{"bufferView":0,"byteOffset":396,"componentType":5126,"count":4,"max":[0.027,-0.015,0.017],"min":[-0.027,-0.015,-0.017],"type":"VEC3"},{"bufferView":0,"byteOffset":444,"componentType":5126,"count":4,"max":[0.03,0.015,0.02],"min":[-0.027,0.015,-0.017],"type":"VEC3"},{"bufferView":0,"byteOffset":492,"componentType":5126,"count":4,"max":[0.03,0.015,0.02],"min":[-0.027,-0.012,0.02],"type":"VEC3"},{"bufferView":0,"byteOffset":540,"componentType":5126,"count":4,"max":[0.027,-0.012,-0.017],"min":[-0.027,-0.015,-0.02],"type":"VEC3"},{"bufferView":0,"byteOffset":588,"componentType":5126,"count":4,"max":[0.03,0.015,-0.017],"min":[-0.027,0.012,-0.02],"type":"VEC3"},{"bufferView":0,"byteOffset":636,"componentType":5126,"count":4,"max":[0.03,0.015,-0.017],"min":[0.027,-0.012,-0.02],"type":"VEC3"},{"bufferView":0,"byteOffset":684,"componentType":5126,"count":4,"max":[0.03,-0.012,0.02],"min":[-0.027,-0.015,0.017],"type":"VEC3"},{"bufferView":0,"byteOffset":732,"componentType":5126,"count":4,"max":[0.03,-0.012,0.02],"min":[0.027,-0.015,-0.017],"type":"VEC3"},{"bufferView":0,"byteOffset":780,"componentType":5126,"count":4,"max":[0.03,0.015,0.02],"min":[0.03,-0.012,-0.017],"type":"VEC3"},{"bufferView":0,"byteOffset":828,"componentType":5126,"count":3,"max":[0.03,-0.012,-0.017],"min":[0.027,-0.015,-0.02],"type":"VEC3"},{"bufferView":1,"byteOffset":0,"componentType":5126,"count":4,"type":"VEC3"},{"bufferView":1,"byteOffset":48,"componentType":5126,"count":4,"type":"VEC3"},{"bufferView":1,"byteOffset":96,"componentType":5126,"count":4,"type":"VEC3"},{"bufferView":1,"byteOffset":144,"componentType":5126,"count":4,"type":"VEC3"},{"bufferView":1,"byteOffset":192,"componentType":5126,"count":4,"type":"VEC3"},{"bufferView":1,"byteOffset":240,"componentType":5126,"count":3,"type":"VEC3"},{"bufferView":1,"byteOffset":276,"componentType":5126,"count":3,"type":"VEC3"},{"bufferView":1,"byteOffset":312,"componentType":5126,"count":4,"type":"VEC3"},{"bufferView":1,"byteOffset":360,"componentType":5126,"count":3,"type":"VEC3"},{"bufferView":1,"byteOffset":396,"componentType":5126,"count":4,"type":"VEC3"},{"bufferView":1,"byteOffset":444,"componentType":5126,"count":4,"type":"VEC3"},{"bufferView":1,"byteOffset":492,"componentType":5126,"count":4,"type":"VEC3"},{"bufferView":1,"byteOffset":540,"componentType":5126,"count":4,"type":"VEC3"},{"bufferView":1,"byteOffset":588,"componentType":5126,"count":4,"type":"VEC3"},{"bufferView":1,"byteOffset":636,"componentType":5126,"count":4,"type":"VEC3"},{"bufferView":1,"byteOffset":684,"componentType":5126,"count":4,"type":"VEC3"},{"bufferView":1,"byteOffset":732,"componentType":5126,"count":4,"type":"VEC3"},{"bufferView":1,"byteOffset":780,"componentType":5126,"count":4,"type":"VEC3"},{"bufferView":1,"byteOffset":828,"componentType":5126,"count":3,"type":"VEC3"},{"bufferView":2,"byteOffset":0,"componentType":5123,"count":6,"type":"SCALAR"},{"bufferView":2,"byteOffset":12,"componentType":5123,"count":6,"type":"SCALAR"},{"bufferView":2,"byteOffset":24,"componentType":5123,"count":6,"type":"SCALAR"},{"bufferView":2,"byteOffset":36,"componentType":5123,"count":6,"type":"SCALAR"},{"bufferView":2,"byteOffset":48,"componentType":5123,"count":6,"type":"SCALAR"},{"bufferView":2,"byteOffset":60,"componentType":5123,"count":3,"type":"SCALAR"},{"bufferView":2,"byteOffset":68,"componentType":5123,"count":3,"type":"SCALAR"},{"bufferView":2,"byteOffset":76,"componentType":5123,"count":6,"type":"SCALAR"},{"bufferView":2,"byteOffset":88,"componentType":5123,"count":3,"type":"SCALAR"},{"bufferView":2,"byteOffset":96,"componentType":5123,"count":6,"type":"SCALAR"},{"bufferView":2,"byteOffset":108,"componentType":5123,"count":6,"type":"SCALAR"},{"bufferView":2,"byteOffset":120,"componentType":5123,"count":6,"type":"SCALAR"},{"bufferView":2,"byteOffset":132,"componentType":5123,"count":6,"type":"SCALAR"},{"bufferView":2,"byteOffset":144,"componentType":5123,"count":6,"type":"SCALAR"},{"bufferView":2,"byteOffset":156,"componentType":5123,"count":6,"type":"SCALAR"},{"bufferView":2,"byteOffset":168,"componentType":5123,"count":6,"type":"SCALAR"},{"bufferView":2,"byteOffset":180,"componentType":5123,"count":6,"type":"SCALAR"},{"bufferView":2,"byteOffset":192,"componentType":5123,"count":6,"type":"SCALAR"},{"bufferView":2,"byteOffset":204,"componentType":5123,"count":3,"type":"SCALAR"}],"asset":{"generator":"Open CASCADE Technology 7.8 [dev.opencascade.org]","version":"2.0"},"bufferViews":[{"buffer":0,"byteLength":864,"byteOffset":0,"byteStride":12,"target":34962},{"buffer":0,"byteLength":864,"byteOffset":864,"byteStride":12,"target":34962},{"buffer":0,"byteLength":212,"byteOffset":1728,"target":34963}],"buffers":[{"byteLength":1940,"uri":"mantik_operatorlerle_secim_islemi.bin"}],"materials":[{"name":"mat_0","pbrMetallicRoughness":{"baseColorFactor":[0.0,0.5225215554237366,1.0,1.0]},"doubleSided":true}],"meshes":[{"name":"Gövde","primitives":[{"attributes":{"NORMAL":19,"POSITION":0},"indices":38,"material":0,"mode":4},{"attributes":{"NORMAL":20,"POSITION":1},"indices":39,"material":0,"mode":4},{"attributes":{"NORMAL":21,"POSITION":2},"indices":40,"material":0,"mode":4},{"attributes":{"NORMAL":22,"POSITION":3},"indices":41,"material":0,"mode":4},{"attributes":{"NORMAL":23,"POSITION":4},"indices":42,"material":0,"mode":4},{"attributes":{"NORMAL":24,"POSITION":5},"indices":43,"material":0,"mode":4},{"attributes":{"NORMAL":25,"POSITION":6},"indices":44,"material":0,"mode":4},{"attributes":{"NORMAL":26,"POSITION":7},"indices":45,"material":0,"mode":4},{"attributes":{"NORMAL":27,"POSITION":8},"indices":46,"material":0,"mode":4},{"attributes":{"NORMAL":28,"POSITION":9},"indices":47,"material":0,"mode":4},{"attributes":{"NORMAL":29,"POSITION":10},"indices":48,"material":0,"mode":4},{"attributes":{"NORMAL":30,"POSITION":11},"indices":49,"material":0,"mode":4},{"attributes":{"NORMAL":31,"POSITION":12},"indices":50,"material":0,"mode":4},{"attributes":{"NORMAL":32,"POSITION":13},"indices":51,"material":0,"mode":4},{"attributes":{"NORMAL":33,"POSITION":14},"indices":52,"material":0,"mode":4},{"attributes":{"NORMAL":34,"POSITION":15},"indices":53,"material":0,"mode":4},{"attributes":{"NORMAL":35,"POSITION":16},"indices":54,"material":0,"mode":4},{"attributes":{"NORMAL":36,"POSITION":17},"indices":55,"material":0,"mode":4},{"attributes":{"NORMAL":37,"POSITION":18},"indices":56,"material":0,"mode":4}]}],"nodes":[{"mesh":0,"name":"Gövde"}],"scene":0,"scenes":[{"nodes":[0]}]}