{"accessors":[{"bufferView":0,"byteOffset":0,"componentType":5126,"count":4,"max":[0.02,0.01,0.02],"min":[-0.02,0.0,0.02],"type":"VEC3"},{"bufferView":0,"byteOffset":48,"componentType":5126,"count":4,"max":[-0.02,0.01,0.02],"min":[-0.02,0.0,-0.02],"type":"VEC3"},{"bufferView":0,"byteOffset":96,"componentType":5126,"count":4,"max":[0.02,0.01,0.02],"min":[0.02,0.0,-0.0125],"type":"VEC3"},{"bufferView":0,"byteOffset":144,"componentType":5126,"count":121,"max":[0.0275,0.0,0.02],"min":[-0.02,0.0,-0.0275],"type":"VEC3"},{"bufferView":0,"byteOffset":1596,"componentType":5126,"count":121,"max":[0.0275,0.01,0.02],"min":[-0.02,0.01,-0.0275],"type":"VEC3"},{"bufferView":0,"byteOffset":3048,"componentType":5126,"count":4,"max":[0.0125,0.01,-0.02],"min":[-0.02,0.0,-0.02],"type":"VEC3"},{"bufferView":0,"byteOffset":3096,"componentType":5126,"count":4,"max":[0.0275,0.01,-0.0125],"min":[0.02,0.0,-0.0125],"type":"VEC3"},{"bufferView":0,"byteOffset":3144,"componentType":5126,"count":228,"max":[0.01,0.01,0.00999903384706381],"min":[-0.00999613557494554,0.0,-0.00999903384706381],"type":"VEC3"},{"bufferView":0,"byteOffset":5880,"componentType":5126,"count":4,"max":[0.0125,0.01,-0.02],"min":[0.0125,0.0,-0.0275],"type":"VEC3"},{"bufferView":0,"byteOffset":5928,"componentType":5126,"count":4,"max":[0.0275,0.01,-0.0125],"min":[0.0275,0.0,-0.0275],"type":"VEC3"},{"bufferView":0,"byteOffset":5976,"componentType":5126,"count":4,"max":[0.0275,0.01,-0.0275],"min":[0.0125,0.0,-0.0275],"type":"VEC3"},{"bufferView":1,"byteOffset":0,"componentType":5126,"count":4,"type":"VEC3"},{"bufferView":1,"byteOffset":48,"componentType":5126,"count":4,"type":"VEC3"},{"bufferView":1,"byteOffset":96,"componentType":5126,"count":4,"type":"VEC3"},{"bufferView":1,"byteOffset":144,"componentType":5126,"count":121,"type":"VEC3"},{"bufferView":1,"byteOffset":1596,"componentType":5126,"count":121,"type":"VEC3"},{"bufferView":1,"byteOffset":3048,"componentType":5126,"count":4,"type":"VEC3"},{"bufferView":1,"byteOffset":3096,"componentType":5126,"count":4,"type":"VEC3"},{"bufferView":1,"byteOffset":3144,"componentType":5126,"count":228,"type":"VEC3"},{"bufferView":1,"byteOffset":5880,"componentType":5126,"count":4,"type":"VEC3"},{"bufferView":1,"byteOffset":5928,"componentType":5126,"count":4,"type":"VEC3"},{"bufferView":1,"byteOffset":5976,"componentType":5126,"count":4,"type":"VEC3"},{"bufferView":2,"byteOffset":0,"componentType":5123,"count":6,"type":"SCALAR"},{"bufferView":2,"byteOffset":12,"componentType":5123,"count":6,"type":"SCALAR"},{"bufferView":2,"byteOffset":24,"componentType":5123,"count":6,"type":"SCALAR"},{"bufferView":2,"byteOffset":36,"componentType":5123,"count":363,"type":"SCALAR"},{"bufferView":2,"byteOffset":764,"componentType":5123,"count":363,"type":"SCALAR"},{"bufferView":2,"byteOffset":1492,"componentType":5123,"count":6,"type":"SCALAR"},{"bufferView":2,"byteOffset":1504,"componentType":5123,"count":6,"type":"SCALAR"},{"bufferView":2,"byteOffset":1516,"componentType":5123,"count":678,"type":"SCALAR"},{"bufferView":2,"byteOffset":2872,"componentType":5123,"count":6,"type":"SCALAR"},{"bufferView":2,"byteOffset":2884,"componentType":5123,"count":6,"type":"SCALAR"},{"bufferView":2,"byteOffset":2896,"componentType":5123,"count":6,"type":"SCALAR"}],"asset":{"generator":"Open CASCADE Technology 7.8 [dev.opencascade.org]","version":"2.0"},"bufferViews":[{"buffer":0,"byteLength":6024,"byteOffset":0,"byteStride":12,"target":34962},{"buffer":0,"byteLength":6024,"byteOffset":6024,"byteStride":12,"target":34962},{"buffer":0,"byteLength":2908,"byteOffset":12048,"target":34963}],"buffers":[{"byteLength":14956,"uri":"model_karma.bin"}],"materials":[{"name":"mat_0","pbrMetallicRoughness":{"baseColorFactor":[0.0,0.5225215554237366,1.0,1.0]},"doubleSided":true}],"meshes":[{"name":"Gövde","primitives":[{"attributes":{"NORMAL":11,"POSITION":0},"indices":22,"material":0,"mode":4},{"attributes":{"NORMAL":12,"POSITION":1},"indices":23,"material":0,"mode":4},{"attributes":{"NORMAL":13,"POSITION":2},"indices":24,"material":0,"mode":4},{"attributes":{"NORMAL":14,"POSITION":3},"indices":25,"material":0,"mode":4},{"attributes":{"NORMAL":15,"POSITION":4},"indices":26,"material":0,"mode":4},{"attributes":{"NORMAL":16,"POSITION":5},"indices":27,"material":0,"mode":4},{"attributes":{"NORMAL":17,"POSITION":6},"indices":28,"material":0,"mode":4},{"attributes":{"NORMAL":18,"POSITION":7},"indices":29,"material":0,"mode":4},{"attributes":{"NORMAL":19,"POSITION":8},"indices":30,"material":0,"mode":4},{"attributes":{"NORMAL":20,"POSITION":9},"indices":31,"material":0,"mode":4},{"attributes":{"NORMAL":21,"POSITION":10},"indices":32,"material":0,"mode":4}]}],"nodes":[{"mesh":0,"name":"Gövde"}],"scene":0,"scenes":[{"nodes":[0]}]}