{"accessors":[{"bufferView":0,"byteOffset":0,"componentType":5126,"count":60,"max":[-0.015,0.01,0.015],"min":[-0.02,0.0,0.01],"type":"VEC3"},{"bufferView":0,"byteOffset":720,"componentType":5126,"count":4,"max":[0.015,0.01,0.015],"min":[-0.015,0.0,0.015],"type":"VEC3"},{"bufferView":0,"byteOffset":768,"componentType":5126,"count":60,"max":[0.02,0.01,0.015],"min":[0.015,0.0,0.01],"type":"VEC3"},{"bufferView":0,"byteOffset":1488,"componentType":5126,"count":4,"max":[0.02,0.01,0.01],"min":[0.02,0.0,-0.01],"type":"VEC3"},{"bufferView":0,"byteOffset":1536,"componentType":5126,"count":60,"max":[0.02,0.01,-0.01],"min":[0.015,0.0,-0.015],"type":"VEC3"},{"bufferView":0,"byteOffset":2256,"componentType":5126,"count":4,"max":[0.015,0.01,-0.015],"min":[-0.015,0.0,-0.015],"type":"VEC3"},{"bufferView":0,"byteOffset":2304,"componentType":5126,"count":60,"max":[-0.015,0.01,-0.01],"min":[-0.02,0.0,-0.015],"type":"VEC3"},{"bufferView":0,"byteOffset":3024,"componentType":5126,"count":4,"max":[-0.02,0.01,0.01],"min":[-0.02,0.0,-0.01],"type":"VEC3"},{"bufferView":0,"byteOffset":3072,"componentType":5126,"count":60,"max":[-0.015,0.01,0.012],"min":[-0.017,0.0,0.01],"type":"VEC3"},{"bufferView":0,"byteOffset":3792,"componentType":5126,"count":4,"max":[-0.017,0.01,0.01],"min":[-0.017,0.0,-0.01],"type":"VEC3"},{"bufferView":0,"byteOffset":3840,"componentType":5126,"count":60,"max":[-0.015,0.01,-0.01],"min":[-0.017,0.0,-0.012],"type":"VEC3"},{"bufferView":0,"byteOffset":4560,"componentType":5126,"count":4,"max":[0.015,0.01,-0.012],"min":[-0.015,0.0,-0.012],"type":"VEC3"},{"bufferView":0,"byteOffset":4608,"componentType":5126,"count":60,"max":[0.017,0.01,-0.01],"min":[0.015,0.0,-0.012],"type":"VEC3"},{"bufferView":0,"byteOffset":5328,"componentType":5126,"count":4,"max":[0.017,0.01,0.01],"min":[0.017,0.0,-0.01],"type":"VEC3"},{"bufferView":0,"byteOffset":5376,"componentType":5126,"count":60,"max":[0.017,0.01,0.012],"min":[0.015,0.0,0.01],"type":"VEC3"},{"bufferView":0,"byteOffset":6096,"componentType":5126,"count":4,"max":[0.015,0.01,0.012],"min":[-0.015,0.0,0.012],"type":"VEC3"},{"bufferView":0,"byteOffset":6144,"componentType":5126,"count":240,"max":[0.02,0.0,0.015],"min":[-0.02,0.0,-0.015],"type":"VEC3"},{"bufferView":0,"byteOffset":9024,"componentType":5126,"count":240,"max":[0.02,0.01,0.015],"min":[-0.02,0.01,-0.015],"type":"VEC3"},{"bufferView":1,"byteOffset":0,"componentType":5126,"count":60,"type":"VEC3"},{"bufferView":1,"byteOffset":720,"componentType":5126,"count":4,"type":"VEC3"},{"bufferView":1,"byteOffset":768,"componentType":5126,"count":60,"type":"VEC3"},{"bufferView":1,"byteOffset":1488,"componentType":5126,"count":4,"type":"VEC3"},{"bufferView":1,"byteOffset":1536,"componentType":5126,"count":60,"type":"VEC3"},{"bufferView":1,"byteOffset":2256,"componentType":5126,"count":4,"type":"VEC3"},{"bufferView":1,"byteOffset":2304,"componentType":5126,"count":60,"type":"VEC3"},{"bufferView":1,"byteOffset":3024,"componentType":5126,"count":4,"type":"VEC3"},{"bufferView":1,"byteOffset":3072,"componentType":5126,"count":60,"type":"VEC3"},{"bufferView":1,"byteOffset":3792,"componentType":5126,"count":4,"type":"VEC3"},{"bufferView":1,"byteOffset":3840,"componentType":5126,"count":60,"type":"VEC3"},{"bufferView":1,"byteOffset":4560,"componentType":5126,"count":4,"type":"VEC3"},{"bufferView":1,"byteOffset":4608,"componentType":5126,"count":60,"type":"VEC3"},{"bufferView":1,"byteOffset":5328,"componentType":5126,"count":4,"type":"VEC3"},{"bufferView":1,"byteOffset":5376,"componentType":5126,"count":60,"type":"VEC3"},{"bufferView":1,"byteOffset":6096,"componentType":5126,"count":4,"type":"VEC3"},{"bufferView":1,"byteOffset":6144,"componentType":5126,"count":240,"type":"VEC3"},{"bufferView":1,"byteOffset":9024,"componentType":5126,"count":240,"type":"VEC3"},{"bufferView":2,"byteOffset":0,"componentType":5123,"count":174,"type":"SCALAR"},{"bufferView":2,"byteOffset":348,"componentType":5123,"count":6,"type":"SCALAR"},{"bufferView":2,"byteOffset":360,"componentType":5123,"count":174,"type":"SCALAR"},{"bufferView":2,"byteOffset":708,"componentType":5123,"count":6,"type":"SCALAR"},{"bufferView":2,"byteOffset":720,"componentType":5123,"count":174,"type":"SCALAR"},{"bufferView":2,"byteOffset":1068,"componentType":5123,"count":6,"type":"SCALAR"},{"bufferView":2,"byteOffset":1080,"componentType":5123,"count":174,"type":"SCALAR"},{"bufferView":2,"byteOffset":1428,"componentType":5123,"count":6,"type":"SCALAR"},{"bufferView":2,"byteOffset":1440,"componentType":5123,"count":174,"type":"SCALAR"},{"bufferView":2,"byteOffset":1788,"componentType":5123,"count":6,"type":"SCALAR"},{"bufferView":2,"byteOffset":1800,"componentType":5123,"count":174,"type":"SCALAR"},{"bufferView":2,"byteOffset":2148,"componentType":5123,"count":6,"type":"SCALAR"},{"bufferView":2,"byteOffset":2160,"componentType":5123,"count":174,"type":"SCALAR"},{"bufferView":2,"byteOffset":2508,"componentType":5123,"count":6,"type":"SCALAR"},{"bufferView":2,"byteOffset":2520,"componentType":5123,"count":174,"type":"SCALAR"},{"bufferView":2,"byteOffset":2868,"componentType":5123,"count":6,"type":"SCALAR"},{"bufferView":2,"byteOffset":2880,"componentType":5123,"count":720,"type":"SCALAR"},{"bufferView":2,"byteOffset":4320,"componentType":5123,"count":720,"type":"SCALAR"}],"asset":{"generator":"Open CASCADE Technology 7.8 [dev.opencascade.org]","version":"2.0"},"bufferViews":[{"buffer":0,"byteLength":11904,"byteOffset":0,"byteStride":12,"target":34962},{"buffer":0,"byteLength":11904,"byteOffset":11904,"byteStride":12,"target":34962},{"buffer":0,"byteLength":5760,"byteOffset":23808,"target":34963}],"buffers":[{"byteLength":29568,"uri":"otelenmis_cerceve.bin"}],"materials":[{"name":"mat_0","pbrMetallicRoughness":{"baseColorFactor":[0.0,0.5225215554237366,1.0,1.0]},"doubleSided":true}],"meshes":[{"name":"Gövde","primitives":[{"attributes":{"NORMAL":18,"POSITION":0},"indices":36,"material":0,"mode":4},{"attributes":{"NORMAL":19,"POSITION":1},"indices":37,"material":0,"mode":4},{"attributes":{"NORMAL":20,"POSITION":2},"indices":38,"material":0,"mode":4},{"attributes":{"NORMAL":21,"POSITION":3},"indices":39,"material":0,"mode":4},{"attributes":{"NORMAL":22,"POSITION":4},"indices":40,"material":0,"mode":4},{"attributes":{"NORMAL":23,"POSITION":5},"indices":41,"material":0,"mode":4},{"attributes":{"NORMAL":24,"POSITION":6},"indices":42,"material":0,"mode":4},{"attributes":{"NORMAL":25,"POSITION":7},"indices":43,"material":0,"mode":4},{"attributes":{"NORMAL":26,"POSITION":8},"indices":44,"material":0,"mode":4},{"attributes":{"NORMAL":27,"POSITION":9},"indices":45,"material":0,"mode":4},{"attributes":{"NORMAL":28,"POSITION":10},"indices":46,"material":0,"mode":4},{"attributes":{"NORMAL":29,"POSITION":11},"indices":47,"material":0,"mode":4},{"attributes":{"NORMAL":30,"POSITION":12},"indices":48,"material":0,"mode":4},{"attributes":{"NORMAL":31,"POSITION":13},"indices":49,"material":0,"mode":4},{"attributes":{"NORMAL":32,"POSITION":14},"indices":50,"material":0,"mode":4},{"attributes":{"NORMAL":33,"POSITION":15},"indices":51,"material":0,"mode":4},{"attributes":{"NORMAL":34,"POSITION":16},"indices":52,"material":0,"mode":4},{"attributes":{"NORMAL":35,"POSITION":17},"indices":53,"material":0,"mode":4}]}],"nodes":[{"mesh":0,"name":"Gövde"}],"scene":0,"scenes":[{"nodes":[0]}]}