{"accessors":[{"bufferView":0,"byteOffset":0,"componentType":5126,"count":254,"max":[15.0,14.995337730012244,8.5],"min":[-15.0,-14.995337730012247,-10.0],"type":"VEC3"},{"bufferView":0,"byteOffset":3048,"componentType":5126,"count":318,"max":[15.0,14.995337730012244,10.0],"min":[-15.0,-14.995337730012247,8.5],"type":"VEC3"},{"bufferView":0,"byteOffset":6864,"componentType":5126,"count":130,"max":[15.0,14.995337730012244,-10.0],"min":[-15.0,-14.995337730012247,-10.0],"type":"VEC3"},{"bufferView":0,"byteOffset":8424,"componentType":5126,"count":130,"max":[13.5,13.49580395701102,10.0],"min":[-13.5,-13.495803957011022,10.0],"type":"VEC3"},{"bufferView":0,"byteOffset":9984,"componentType":5126,"count":4,"max":[3.5,3.5,8.5],"min":[3.5,-3.5,-10.0],"type":"VEC3"},{"bufferView":0,"byteOffset":10032,"componentType":5126,"count":4,"max":[3.5,3.5,8.5],"min":[-3.5,3.5,-10.0],"type":"VEC3"},{"bufferView":0,"byteOffset":10080,"componentType":5126,"count":4,"max":[-3.5,3.5,8.5],"min":[-3.5,-3.5,-10.0],"type":"VEC3"},{"bufferView":0,"byteOffset":10128,"componentType":5126,"count":4,"max":[3.5,-3.5,8.5],"min":[-3.5,-3.5,-10.0],"type":"VEC3"},{"bufferView":0,"byteOffset":10176,"componentType":5126,"count":4,"max":[5.0,5.0,10.0],"min":[3.5,-5.0,8.5],"type":"VEC3"},{"bufferView":0,"byteOffset":10224,"componentType":5126,"count":4,"max":[5.0,5.0,10.0],"min":[-5.0,3.5,8.5],"type":"VEC3"},{"bufferView":0,"byteOffset":10272,"componentType":5126,"count":4,"max":[5.0,-3.5,10.0],"min":[-5.0,-5.0,8.5],"type":"VEC3"},{"bufferView":0,"byteOffset":10320,"componentType":5126,"count":4,"max":[-3.5,5.0,10.0],"min":[-5.0,-5.0,8.5],"type":"VEC3"},{"bufferView":1,"byteOffset":0,"componentType":5126,"count":254,"type":"VEC3"},{"bufferView":1,"byteOffset":3048,"componentType":5126,"count":318,"type":"VEC3"},{"bufferView":1,"byteOffset":6864,"componentType":5126,"count":130,"type":"VEC3"},{"bufferView":1,"byteOffset":8424,"componentType":5126,"count":130,"type":"VEC3"},{"bufferView":1,"byteOffset":9984,"componentType":5126,"count":4,"type":"VEC3"},{"bufferView":1,"byteOffset":10032,"componentType":5126,"count":4,"type":"VEC3"},{"bufferView":1,"byteOffset":10080,"componentType":5126,"count":4,"type":"VEC3"},{"bufferView":1,"byteOffset":10128,"componentType":5126,"count":4,"type":"VEC3"},{"bufferView":1,"byteOffset":10176,"componentType":5126,"count":4,"type":"VEC3"},{"bufferView":1,"byteOffset":10224,"componentType":5126,"count":4,"type":"VEC3"},{"bufferView":1,"byteOffset":10272,"componentType":5126,"count":4,"type":"VEC3"},{"bufferView":1,"byteOffset":10320,"componentType":5126,"count":4,"type":"VEC3"},{"bufferView":2,"byteOffset":0,"componentType":5123,"count":756,"type":"SCALAR"},{"bufferView":2,"byteOffset":1512,"componentType":5123,"count":1134,"type":"SCALAR"},{"bufferView":2,"byteOffset":3780,"componentType":5123,"count":390,"type":"SCALAR"},{"bufferView":2,"byteOffset":4560,"componentType":5123,"count":390,"type":"SCALAR"},{"bufferView":2,"byteOffset":5340,"componentType":5123,"count":6,"type":"SCALAR"},{"bufferView":2,"byteOffset":5352,"componentType":5123,"count":6,"type":"SCALAR"},{"bufferView":2,"byteOffset":5364,"componentType":5123,"count":6,"type":"SCALAR"},{"bufferView":2,"byteOffset":5376,"componentType":5123,"count":6,"type":"SCALAR"},{"bufferView":2,"byteOffset":5388,"componentType":5123,"count":6,"type":"SCALAR"},{"bufferView":2,"byteOffset":5400,"componentType":5123,"count":6,"type":"SCALAR"},{"bufferView":2,"byteOffset":5412,"componentType":5123,"count":6,"type":"SCALAR"},{"bufferView":2,"byteOffset":5424,"componentType":5123,"count":6,"type":"SCALAR"}],"asset":{"generator":"Open CASCADE Technology 7.8 [dev.opencascade.org]","version":"2.0"},"bufferViews":[{"buffer":0,"byteLength":10368,"byteOffset":0,"byteStride":12,"target":34962},{"buffer":0,"byteLength":10368,"byteOffset":10368,"byteStride":12,"target":34962},{"buffer":0,"byteLength":5436,"byteOffset":20736,"target":34963}],"buffers":[{"byteLength":26172,"uri":"parametrik_montaj_Cylinder_squareHole.bin"}],"materials":[{"name":"mat_0","pbrMetallicRoughness":{"baseColorFactor":[1.0,1.0,0.0,1.0]},"doubleSided":true}],"meshes":[{"name":"base_cylinder_part","primitives":[{"attributes":{"NORMAL":12,"POSITION":0},"indices":24,"material":0,"mode":4},{"attributes":{"NORMAL":13,"POSITION":1},"indices":25,"material":0,"mode":4},{"attributes":{"NORMAL":14,"POSITION":2},"indices":26,"material":0,"mode":4},{"attributes":{"NORMAL":15,"POSITION":3},"indices":27,"material":0,"mode":4},{"attributes":{"NORMAL":16,"POSITION":4},"indices":28,"material":0,"mode":4},{"attributes":{"NORMAL":17,"POSITION":5},"indices":29,"material":0,"mode":4},{"attributes":{"NORMAL":18,"POSITION":6},"indices":30,"material":0,"mode":4},{"attributes":{"NORMAL":19,"POSITION":7},"indices":31,"material":0,"mode":4},{"attributes":{"NORMAL":20,"POSITION":8},"indices":32,"material":0,"mode":4},{"attributes":{"NORMAL":21,"POSITION":9},"indices":33,"material":0,"mode":4},{"attributes":{"NORMAL":22,"POSITION":10},"indices":34,"material":0,"mode":4},{"attributes":{"NORMAL":23,"POSITION":11},"indices":35,"material":0,"mode":4}]}],"nodes":[{"children":[1],"rotation":[-0.7071067811865475,0.0,0.0,0.7071067811865475],"name":"b7cc84d2-3435-11f0-8198-78af08feb68a"},{"children":[2],"name":"base_cylinder"},{"mesh":0,"name":"base_cylinder_part"}],"scene":0,"scenes":[{"nodes":[0]}]}