{"accessors":[{"bufferView":0,"byteOffset":0,"componentType":5126,"count":254,"max":[15.0,14.995337730012244,8.5],"min":[-15.0,-14.995337730012247,-10.0],"type":"VEC3"},{"bufferView":0,"byteOffset":3048,"componentType":5126,"count":318,"max":[15.0,14.995337730012244,10.0],"min":[-15.0,-14.995337730012247,8.5],"type":"VEC3"},{"bufferView":0,"byteOffset":6864,"componentType":5126,"count":252,"max":[15.0,14.995337730012244,-10.0],"min":[-15.0,-14.995337730012247,-10.0],"type":"VEC3"},{"bufferView":0,"byteOffset":9888,"componentType":5126,"count":252,"max":[13.5,13.49580395701102,10.0],"min":[-13.5,-13.495803957011022,10.0],"type":"VEC3"},{"bufferView":0,"byteOffset":12912,"componentType":5126,"count":254,"max":[4.0,3.998756728003266,8.5],"min":[-4.000000000000002,-3.9987567280032676,-10.0],"type":"VEC3"},{"bufferView":0,"byteOffset":15960,"componentType":5126,"count":382,"max":[5.5,5.49829050100449,10.0],"min":[-5.5,-5.498290501004489,8.5],"type":"VEC3"},{"bufferView":1,"byteOffset":0,"componentType":5126,"count":254,"type":"VEC3"},{"bufferView":1,"byteOffset":3048,"componentType":5126,"count":318,"type":"VEC3"},{"bufferView":1,"byteOffset":6864,"componentType":5126,"count":252,"type":"VEC3"},{"bufferView":1,"byteOffset":9888,"componentType":5126,"count":252,"type":"VEC3"},{"bufferView":1,"byteOffset":12912,"componentType":5126,"count":254,"type":"VEC3"},{"bufferView":1,"byteOffset":15960,"componentType":5126,"count":382,"type":"VEC3"},{"bufferView":2,"byteOffset":0,"componentType":5123,"count":756,"type":"SCALAR"},{"bufferView":2,"byteOffset":1512,"componentType":5123,"count":1134,"type":"SCALAR"},{"bufferView":2,"byteOffset":3780,"componentType":5123,"count":756,"type":"SCALAR"},{"bufferView":2,"byteOffset":5292,"componentType":5123,"count":756,"type":"SCALAR"},{"bufferView":2,"byteOffset":6804,"componentType":5123,"count":756,"type":"SCALAR"},{"bufferView":2,"byteOffset":8316,"componentType":5123,"count":1512,"type":"SCALAR"}],"asset":{"generator":"Open CASCADE Technology 7.8 [dev.opencascade.org]","version":"2.0"},"bufferViews":[{"buffer":0,"byteLength":20544,"byteOffset":0,"byteStride":12,"target":34962},{"buffer":0,"byteLength":20544,"byteOffset":20544,"byteStride":12,"target":34962},{"buffer":0,"byteLength":11340,"byteOffset":41088,"target":34963}],"buffers":[{"byteLength":52428,"uri":"parametrik_montaj_Cylinder_roundHole.bin"}],"materials":[{"name":"mat_0","pbrMetallicRoughness":{"baseColorFactor":[0.06124600023031235,0.22322799265384674,0.4564110040664673,1.0]},"doubleSided":true}],"meshes":[{"name":"base_cylinder_part","primitives":[{"attributes":{"NORMAL":6,"POSITION":0},"indices":12,"material":0,"mode":4},{"attributes":{"NORMAL":7,"POSITION":1},"indices":13,"material":0,"mode":4},{"attributes":{"NORMAL":8,"POSITION":2},"indices":14,"material":0,"mode":4},{"attributes":{"NORMAL":9,"POSITION":3},"indices":15,"material":0,"mode":4},{"attributes":{"NORMAL":10,"POSITION":4},"indices":16,"material":0,"mode":4},{"attributes":{"NORMAL":11,"POSITION":5},"indices":17,"material":0,"mode":4}]}],"nodes":[{"children":[1],"rotation":[-0.7071067811865475,0.0,0.0,0.7071067811865475],"name":"343f7a52-3436-11f0-8198-78af08feb68a"},{"children":[2],"name":"base_cylinder"},{"mesh":0,"name":"base_cylinder_part"}],"scene":0,"scenes":[{"nodes":[0]}]}