{"accessors":[{"bufferView":0,"byteOffset":0,"componentType":5126,"count":4,"max":[-0.005,0.0022,0.005],"min":[-0.005,-0.0022,-0.005],"type":"VEC3"},{"bufferView":0,"byteOffset":48,"componentType":5126,"count":4,"max":[0.005,0.0022,0.005],"min":[-0.005,-0.0022,0.005],"type":"VEC3"},{"bufferView":0,"byteOffset":96,"componentType":5126,"count":4,"max":[-0.0047,-0.0022,0.005],"min":[-0.005,-0.0025,-0.005],"type":"VEC3"},{"bufferView":0,"byteOffset":144,"componentType":5126,"count":4,"max":[-0.0047,0.0025,0.005],"min":[-0.005,0.0022,-0.005],"type":"VEC3"},{"bufferView":0,"byteOffset":192,"componentType":5126,"count":4,"max":[0.005,0.0022,-0.005],"min":[-0.005,-0.0022,-0.005],"type":"VEC3"},{"bufferView":0,"byteOffset":240,"componentType":5126,"count":4,"max":[0.005,0.0022,0.005],"min":[0.005,-0.0022,-0.005],"type":"VEC3"},{"bufferView":0,"byteOffset":288,"componentType":5126,"count":4,"max":[0.005,-0.0022,0.005],"min":[-0.005,-0.0025,0.0047],"type":"VEC3"},{"bufferView":0,"byteOffset":336,"componentType":5126,"count":4,"max":[0.005,0.0025,0.005],"min":[-0.005,0.0022,0.0047],"type":"VEC3"},{"bufferView":0,"byteOffset":384,"componentType":5126,"count":4,"max":[0.0047,-0.0025,0.0047],"min":[-0.0047,-0.0025,-0.0047],"type":"VEC3"},{"bufferView":0,"byteOffset":432,"componentType":5126,"count":4,"max":[0.005,-0.0022,-0.0047],"min":[-0.005,-0.0025,-0.005],"type":"VEC3"},{"bufferView":0,"byteOffset":480,"componentType":5126,"count":117,"max":[0.0047,0.0025,0.0047],"min":[-0.0047,0.0025,-0.0047],"type":"VEC3"},{"bufferView":0,"byteOffset":1884,"componentType":5126,"count":4,"max":[0.005,0.0025,-0.0047],"min":[-0.005,0.0022,-0.005],"type":"VEC3"},{"bufferView":0,"byteOffset":1932,"componentType":5126,"count":4,"max":[0.005,-0.0022,0.005],"min":[0.0047,-0.0025,-0.005],"type":"VEC3"},{"bufferView":0,"byteOffset":1980,"componentType":5126,"count":4,"max":[0.005,0.0025,0.005],"min":[0.0047,0.0022,-0.005],"type":"VEC3"},{"bufferView":0,"byteOffset":2028,"componentType":5126,"count":286,"max":[0.0033,0.0028,0.003299681169531057],"min":[-0.0032987247397320285,0.0025,-0.0032996811695310568],"type":"VEC3"},{"bufferView":0,"byteOffset":5460,"componentType":5126,"count":228,"max":[0.003,0.012199999999999999,0.0029997101541191433],"min":[-0.0029988406724836625,0.0028,-0.002999710154119143],"type":"VEC3"},{"bufferView":0,"byteOffset":8196,"componentType":5126,"count":286,"max":[0.003,0.0125,0.0029997101541191433],"min":[-0.0029988406724836625,0.012199999999999999,-0.002999710154119143],"type":"VEC3"},{"bufferView":0,"byteOffset":11628,"componentType":5126,"count":113,"max":[0.0027,0.0125,0.002699739138707229],"min":[-0.0026989566052352965,0.0125,-0.002699739138707229],"type":"VEC3"},{"bufferView":1,"byteOffset":0,"componentType":5126,"count":4,"type":"VEC3"},{"bufferView":1,"byteOffset":48,"componentType":5126,"count":4,"type":"VEC3"},{"bufferView":1,"byteOffset":96,"componentType":5126,"count":4,"type":"VEC3"},{"bufferView":1,"byteOffset":144,"componentType":5126,"count":4,"type":"VEC3"},{"bufferView":1,"byteOffset":192,"componentType":5126,"count":4,"type":"VEC3"},{"bufferView":1,"byteOffset":240,"componentType":5126,"count":4,"type":"VEC3"},{"bufferView":1,"byteOffset":288,"componentType":5126,"count":4,"type":"VEC3"},{"bufferView":1,"byteOffset":336,"componentType":5126,"count":4,"type":"VEC3"},{"bufferView":1,"byteOffset":384,"componentType":5126,"count":4,"type":"VEC3"},{"bufferView":1,"byteOffset":432,"componentType":5126,"count":4,"type":"VEC3"},{"bufferView":1,"byteOffset":480,"componentType":5126,"count":117,"type":"VEC3"},{"bufferView":1,"byteOffset":1884,"componentType":5126,"count":4,"type":"VEC3"},{"bufferView":1,"byteOffset":1932,"componentType":5126,"count":4,"type":"VEC3"},{"bufferView":1,"byteOffset":1980,"componentType":5126,"count":4,"type":"VEC3"},{"bufferView":1,"byteOffset":2028,"componentType":5126,"count":286,"type":"VEC3"},{"bufferView":1,"byteOffset":5460,"componentType":5126,"count":228,"type":"VEC3"},{"bufferView":1,"byteOffset":8196,"componentType":5126,"count":286,"type":"VEC3"},{"bufferView":1,"byteOffset":11628,"componentType":5126,"count":113,"type":"VEC3"},{"bufferView":2,"byteOffset":0,"componentType":5123,"count":6,"type":"SCALAR"},{"bufferView":2,"byteOffset":12,"componentType":5123,"count":6,"type":"SCALAR"},{"bufferView":2,"byteOffset":24,"componentType":5123,"count":6,"type":"SCALAR"},{"bufferView":2,"byteOffset":36,"componentType":5123,"count":6,"type":"SCALAR"},{"bufferView":2,"byteOffset":48,"componentType":5123,"count":6,"type":"SCALAR"},{"bufferView":2,"byteOffset":60,"componentType":5123,"count":6,"type":"SCALAR"},{"bufferView":2,"byteOffset":72,"componentType":5123,"count":6,"type":"SCALAR"},{"bufferView":2,"byteOffset":84,"componentType":5123,"count":6,"type":"SCALAR"},{"bufferView":2,"byteOffset":96,"componentType":5123,"count":6,"type":"SCALAR"},{"bufferView":2,"byteOffset":108,"componentType":5123,"count":6,"type":"SCALAR"},{"bufferView":2,"byteOffset":120,"componentType":5123,"count":351,"type":"SCALAR"},{"bufferView":2,"byteOffset":824,"componentType":5123,"count":6,"type":"SCALAR"},{"bufferView":2,"byteOffset":836,"componentType":5123,"count":6,"type":"SCALAR"},{"bufferView":2,"byteOffset":848,"componentType":5123,"count":6,"type":"SCALAR"},{"bufferView":2,"byteOffset":860,"componentType":5123,"count":1020,"type":"SCALAR"},{"bufferView":2,"byteOffset":2900,"componentType":5123,"count":678,"type":"SCALAR"},{"bufferView":2,"byteOffset":4256,"componentType":5123,"count":1020,"type":"SCALAR"},{"bufferView":2,"byteOffset":6296,"componentType":5123,"count":333,"type":"SCALAR"}],"asset":{"generator":"Open CASCADE Technology 7.8 [dev.opencascade.org]","version":"2.0"},"bufferViews":[{"buffer":0,"byteLength":12984,"byteOffset":0,"byteStride":12,"target":34962},{"buffer":0,"byteLength":12984,"byteOffset":12984,"byteStride":12,"target":34962},{"buffer":0,"byteLength":6964,"byteOffset":25968,"target":34963}],"buffers":[{"byteLength":32932,"uri":"parallel_Z_yuzey_kenar_pah.bin"}],"materials":[{"name":"mat_0","pbrMetallicRoughness":{"baseColorFactor":[0.0,0.5225215554237366,1.0,1.0]},"doubleSided":true}],"meshes":[{"name":"Gövde","primitives":[{"attributes":{"NORMAL":18,"POSITION":0},"indices":36,"material":0,"mode":4},{"attributes":{"NORMAL":19,"POSITION":1},"indices":37,"material":0,"mode":4},{"attributes":{"NORMAL":20,"POSITION":2},"indices":38,"material":0,"mode":4},{"attributes":{"NORMAL":21,"POSITION":3},"indices":39,"material":0,"mode":4},{"attributes":{"NORMAL":22,"POSITION":4},"indices":40,"material":0,"mode":4},{"attributes":{"NORMAL":23,"POSITION":5},"indices":41,"material":0,"mode":4},{"attributes":{"NORMAL":24,"POSITION":6},"indices":42,"material":0,"mode":4},{"attributes":{"NORMAL":25,"POSITION":7},"indices":43,"material":0,"mode":4},{"attributes":{"NORMAL":26,"POSITION":8},"indices":44,"material":0,"mode":4},{"attributes":{"NORMAL":27,"POSITION":9},"indices":45,"material":0,"mode":4},{"attributes":{"NORMAL":28,"POSITION":10},"indices":46,"material":0,"mode":4},{"attributes":{"NORMAL":29,"POSITION":11},"indices":47,"material":0,"mode":4},{"attributes":{"NORMAL":30,"POSITION":12},"indices":48,"material":0,"mode":4},{"attributes":{"NORMAL":31,"POSITION":13},"indices":49,"material":0,"mode":4},{"attributes":{"NORMAL":32,"POSITION":14},"indices":50,"material":0,"mode":4},{"attributes":{"NORMAL":33,"POSITION":15},"indices":51,"material":0,"mode":4},{"attributes":{"NORMAL":34,"POSITION":16},"indices":52,"material":0,"mode":4},{"attributes":{"NORMAL":35,"POSITION":17},"indices":53,"material":0,"mode":4}]}],"nodes":[{"mesh":0,"name":"Gövde"}],"scene":0,"scenes":[{"nodes":[0]}]}