{"accessors":[{"bufferView":0,"byteOffset":0,"componentType":5126,"count":8,"max":[-0.005,0.005,0.005],"min":[-0.005,-0.005,-0.005],"type":"VEC3"},{"bufferView":0,"byteOffset":96,"componentType":5126,"count":8,"max":[0.005,0.005,0.005],"min":[-0.005,-0.005,0.005],"type":"VEC3"},{"bufferView":0,"byteOffset":192,"componentType":5126,"count":4,"max":[0.005,0.005,0.005],"min":[-0.005,0.005,-0.005],"type":"VEC3"},{"bufferView":0,"byteOffset":240,"componentType":5126,"count":4,"max":[0.005,-0.005,0.005],"min":[-0.005,-0.005,-0.005],"type":"VEC3"},{"bufferView":0,"byteOffset":288,"componentType":5126,"count":8,"max":[0.005,0.005,-0.005],"min":[-0.005,-0.005,-0.005],"type":"VEC3"},{"bufferView":0,"byteOffset":384,"componentType":5126,"count":4,"max":[-0.004,-6.938893903907e-21,0.001],"min":[-0.005,-0.0005,0.001],"type":"VEC3"},{"bufferView":0,"byteOffset":432,"componentType":5126,"count":4,"max":[-0.004,-0.0005,0.001],"min":[-0.005,-0.0005,-0.001],"type":"VEC3"},{"bufferView":0,"byteOffset":480,"componentType":5126,"count":4,"max":[-0.004,-6.938893903907e-21,-0.001],"min":[-0.005,-0.0005,-0.001],"type":"VEC3"},{"bufferView":0,"byteOffset":528,"componentType":5126,"count":4,"max":[-0.004,-6.938893903907e-21,0.001],"min":[-0.005,-6.938893903907e-21,-0.001],"type":"VEC3"},{"bufferView":0,"byteOffset":576,"componentType":5126,"count":8,"max":[0.005,0.005,0.005],"min":[0.005,-0.005,-0.005],"type":"VEC3"},{"bufferView":0,"byteOffset":672,"componentType":5126,"count":4,"max":[0.001,-6.938893903907e-21,0.005],"min":[0.001,-0.0005,0.004],"type":"VEC3"},{"bufferView":0,"byteOffset":720,"componentType":5126,"count":4,"max":[0.001,-0.0005,0.005],"min":[-0.001,-0.0005,0.004],"type":"VEC3"},{"bufferView":0,"byteOffset":768,"componentType":5126,"count":4,"max":[-0.001,-6.938893903907e-21,0.005],"min":[-0.001,-0.0005,0.004],"type":"VEC3"},{"bufferView":0,"byteOffset":816,"componentType":5126,"count":4,"max":[0.001,-6.938893903907e-21,0.005],"min":[-0.001,-6.938893903907e-21,0.004],"type":"VEC3"},{"bufferView":0,"byteOffset":864,"componentType":5126,"count":4,"max":[0.001,-6.938893903907e-21,-0.004],"min":[0.001,-0.0005,-0.005],"type":"VEC3"},{"bufferView":0,"byteOffset":912,"componentType":5126,"count":4,"max":[0.001,-0.0005,-0.004],"min":[-0.001,-0.0005,-0.005],"type":"VEC3"},{"bufferView":0,"byteOffset":960,"componentType":5126,"count":4,"max":[-0.001,-6.938893903907e-21,-0.004],"min":[-0.001,-0.0005,-0.005],"type":"VEC3"},{"bufferView":0,"byteOffset":1008,"componentType":5126,"count":4,"max":[0.001,-6.938893903907e-21,-0.004],"min":[-0.001,-6.938893903907e-21,-0.005],"type":"VEC3"},{"bufferView":0,"byteOffset":1056,"componentType":5126,"count":4,"max":[-0.004,-6.938893903907e-21,0.001],"min":[-0.004,-0.0005,-0.001],"type":"VEC3"},{"bufferView":0,"byteOffset":1104,"componentType":5126,"count":4,"max":[0.005,-6.938893903907e-21,0.001],"min":[0.004,-0.0005,0.001],"type":"VEC3"},{"bufferView":0,"byteOffset":1152,"componentType":5126,"count":4,"max":[0.005,-0.0005,0.001],"min":[0.004,-0.0005,-0.001],"type":"VEC3"},{"bufferView":0,"byteOffset":1200,"componentType":5126,"count":4,"max":[0.005,-6.938893903907e-21,-0.001],"min":[0.004,-0.0005,-0.001],"type":"VEC3"},{"bufferView":0,"byteOffset":1248,"componentType":5126,"count":4,"max":[0.005,-6.938893903907e-21,0.001],"min":[0.004,-6.938893903907e-21,-0.001],"type":"VEC3"},{"bufferView":0,"byteOffset":1296,"componentType":5126,"count":4,"max":[0.001,-6.938893903907e-21,0.004],"min":[-0.001,-0.0005,0.004],"type":"VEC3"},{"bufferView":0,"byteOffset":1344,"componentType":5126,"count":4,"max":[0.001,-6.938893903907e-21,-0.004],"min":[-0.001,-0.0005,-0.004],"type":"VEC3"},{"bufferView":0,"byteOffset":1392,"componentType":5126,"count":4,"max":[0.004,-6.938893903907e-21,0.001],"min":[0.004,-0.0005,-0.001],"type":"VEC3"},{"bufferView":1,"byteOffset":0,"componentType":5126,"count":8,"type":"VEC3"},{"bufferView":1,"byteOffset":96,"componentType":5126,"count":8,"type":"VEC3"},{"bufferView":1,"byteOffset":192,"componentType":5126,"count":4,"type":"VEC3"},{"bufferView":1,"byteOffset":240,"componentType":5126,"count":4,"type":"VEC3"},{"bufferView":1,"byteOffset":288,"componentType":5126,"count":8,"type":"VEC3"},{"bufferView":1,"byteOffset":384,"componentType":5126,"count":4,"type":"VEC3"},{"bufferView":1,"byteOffset":432,"componentType":5126,"count":4,"type":"VEC3"},{"bufferView":1,"byteOffset":480,"componentType":5126,"count":4,"type":"VEC3"},{"bufferView":1,"byteOffset":528,"componentType":5126,"count":4,"type":"VEC3"},{"bufferView":1,"byteOffset":576,"componentType":5126,"count":8,"type":"VEC3"},{"bufferView":1,"byteOffset":672,"componentType":5126,"count":4,"type":"VEC3"},{"bufferView":1,"byteOffset":720,"componentType":5126,"count":4,"type":"VEC3"},{"bufferView":1,"byteOffset":768,"componentType":5126,"count":4,"type":"VEC3"},{"bufferView":1,"byteOffset":816,"componentType":5126,"count":4,"type":"VEC3"},{"bufferView":1,"byteOffset":864,"componentType":5126,"count":4,"type":"VEC3"},{"bufferView":1,"byteOffset":912,"componentType":5126,"count":4,"type":"VEC3"},{"bufferView":1,"byteOffset":960,"componentType":5126,"count":4,"type":"VEC3"},{"bufferView":1,"byteOffset":1008,"componentType":5126,"count":4,"type":"VEC3"},{"bufferView":1,"byteOffset":1056,"componentType":5126,"count":4,"type":"VEC3"},{"bufferView":1,"byteOffset":1104,"componentType":5126,"count":4,"type":"VEC3"},{"bufferView":1,"byteOffset":1152,"componentType":5126,"count":4,"type":"VEC3"},{"bufferView":1,"byteOffset":1200,"componentType":5126,"count":4,"type":"VEC3"},{"bufferView":1,"byteOffset":1248,"componentType":5126,"count":4,"type":"VEC3"},{"bufferView":1,"byteOffset":1296,"componentType":5126,"count":4,"type":"VEC3"},{"bufferView":1,"byteOffset":1344,"componentType":5126,"count":4,"type":"VEC3"},{"bufferView":1,"byteOffset":1392,"componentType":5126,"count":4,"type":"VEC3"},{"bufferView":2,"byteOffset":0,"componentType":5123,"count":24,"type":"SCALAR"},{"bufferView":2,"byteOffset":48,"componentType":5123,"count":24,"type":"SCALAR"},{"bufferView":2,"byteOffset":96,"componentType":5123,"count":6,"type":"SCALAR"},{"bufferView":2,"byteOffset":108,"componentType":5123,"count":6,"type":"SCALAR"},{"bufferView":2,"byteOffset":120,"componentType":5123,"count":24,"type":"SCALAR"},{"bufferView":2,"byteOffset":168,"componentType":5123,"count":6,"type":"SCALAR"},{"bufferView":2,"byteOffset":180,"componentType":5123,"count":6,"type":"SCALAR"},{"bufferView":2,"byteOffset":192,"componentType":5123,"count":6,"type":"SCALAR"},{"bufferView":2,"byteOffset":204,"componentType":5123,"count":6,"type":"SCALAR"},{"bufferView":2,"byteOffset":216,"componentType":5123,"count":24,"type":"SCALAR"},{"bufferView":2,"byteOffset":264,"componentType":5123,"count":6,"type":"SCALAR"},{"bufferView":2,"byteOffset":276,"componentType":5123,"count":6,"type":"SCALAR"},{"bufferView":2,"byteOffset":288,"componentType":5123,"count":6,"type":"SCALAR"},{"bufferView":2,"byteOffset":300,"componentType":5123,"count":6,"type":"SCALAR"},{"bufferView":2,"byteOffset":312,"componentType":5123,"count":6,"type":"SCALAR"},{"bufferView":2,"byteOffset":324,"componentType":5123,"count":6,"type":"SCALAR"},{"bufferView":2,"byteOffset":336,"componentType":5123,"count":6,"type":"SCALAR"},{"bufferView":2,"byteOffset":348,"componentType":5123,"count":6,"type":"SCALAR"},{"bufferView":2,"byteOffset":360,"componentType":5123,"count":6,"type":"SCALAR"},{"bufferView":2,"byteOffset":372,"componentType":5123,"count":6,"type":"SCALAR"},{"bufferView":2,"byteOffset":384,"componentType":5123,"count":6,"type":"SCALAR"},{"bufferView":2,"byteOffset":396,"componentType":5123,"count":6,"type":"SCALAR"},{"bufferView":2,"byteOffset":408,"componentType":5123,"count":6,"type":"SCALAR"},{"bufferView":2,"byteOffset":420,"componentType":5123,"count":6,"type":"SCALAR"},{"bufferView":2,"byteOffset":432,"componentType":5123,"count":6,"type":"SCALAR"},{"bufferView":2,"byteOffset":444,"componentType":5123,"count":6,"type":"SCALAR"}],"asset":{"generator":"Open CASCADE Technology 7.8 [dev.opencascade.org]","version":"2.0"},"bufferViews":[{"buffer":0,"byteLength":1440,"byteOffset":0,"byteStride":12,"target":34962},{"buffer":0,"byteLength":1440,"byteOffset":1440,"byteStride":12,"target":34962},{"buffer":0,"byteLength":456,"byteOffset":2880,"target":34963}],"buffers":[{"byteLength":3336,"uri":"perp_Z_dik_yuzey_cep.bin"}],"materials":[{"name":"mat_0","pbrMetallicRoughness":{"baseColorFactor":[0.0,0.5225215554237366,1.0,1.0]},"doubleSided":true}],"meshes":[{"name":"Open CASCADE STEP translator 7.8 19","primitives":[{"attributes":{"NORMAL":26,"POSITION":0},"indices":52,"material":0,"mode":4},{"attributes":{"NORMAL":27,"POSITION":1},"indices":53,"material":0,"mode":4},{"attributes":{"NORMAL":28,"POSITION":2},"indices":54,"material":0,"mode":4},{"attributes":{"NORMAL":29,"POSITION":3},"indices":55,"material":0,"mode":4},{"attributes":{"NORMAL":30,"POSITION":4},"indices":56,"material":0,"mode":4},{"attributes":{"NORMAL":31,"POSITION":5},"indices":57,"material":0,"mode":4},{"attributes":{"NORMAL":32,"POSITION":6},"indices":58,"material":0,"mode":4},{"attributes":{"NORMAL":33,"POSITION":7},"indices":59,"material":0,"mode":4},{"attributes":{"NORMAL":34,"POSITION":8},"indices":60,"material":0,"mode":4},{"attributes":{"NORMAL":35,"POSITION":9},"indices":61,"material":0,"mode":4},{"attributes":{"NORMAL":36,"POSITION":10},"indices":62,"material":0,"mode":4},{"attributes":{"NORMAL":37,"POSITION":11},"indices":63,"material":0,"mode":4},{"attributes":{"NORMAL":38,"POSITION":12},"indices":64,"material":0,"mode":4},{"attributes":{"NORMAL":39,"POSITION":13},"indices":65,"material":0,"mode":4},{"attributes":{"NORMAL":40,"POSITION":14},"indices":66,"material":0,"mode":4},{"attributes":{"NORMAL":41,"POSITION":15},"indices":67,"material":0,"mode":4},{"attributes":{"NORMAL":42,"POSITION":16},"indices":68,"material":0,"mode":4},{"attributes":{"NORMAL":43,"POSITION":17},"indices":69,"material":0,"mode":4},{"attributes":{"NORMAL":44,"POSITION":18},"indices":70,"material":0,"mode":4},{"attributes":{"NORMAL":45,"POSITION":19},"indices":71,"material":0,"mode":4},{"attributes":{"NORMAL":46,"POSITION":20},"indices":72,"material":0,"mode":4},{"attributes":{"NORMAL":47,"POSITION":21},"indices":73,"material":0,"mode":4},{"attributes":{"NORMAL":48,"POSITION":22},"indices":74,"material":0,"mode":4},{"attributes":{"NORMAL":49,"POSITION":23},"indices":75,"material":0,"mode":4},{"attributes":{"NORMAL":50,"POSITION":24},"indices":76,"material":0,"mode":4},{"attributes":{"NORMAL":51,"POSITION":25},"indices":77,"material":0,"mode":4}]}],"nodes":[{"mesh":0,"name":"Open CASCADE STEP translator 7.8 19"}],"scene":0,"scenes":[{"nodes":[0]}]}