{"accessors":[{"bufferView":0,"byteOffset":0,"componentType":5126,"count":4,"max":[-30.0,20.0,5.0],"min":[-30.0,-20.0,-5.0],"type":"VEC3"},{"bufferView":0,"byteOffset":48,"componentType":5126,"count":4,"max":[30.0,-20.0,5.0],"min":[-30.0,-20.0,-5.0],"type":"VEC3"},{"bufferView":0,"byteOffset":96,"componentType":5126,"count":130,"max":[30.0,20.0,5.0],"min":[-30.0,-20.0,5.0],"type":"VEC3"},{"bufferView":0,"byteOffset":1656,"componentType":5126,"count":4,"max":[30.0,20.0,5.0],"min":[-30.0,20.0,-5.0],"type":"VEC3"},{"bufferView":0,"byteOffset":1704,"componentType":5126,"count":130,"max":[30.0,20.0,-5.0],"min":[-30.0,-20.0,-5.0],"type":"VEC3"},{"bufferView":0,"byteOffset":3264,"componentType":5126,"count":4,"max":[30.0,20.0,5.0],"min":[30.0,-20.0,-5.0],"type":"VEC3"},{"bufferView":0,"byteOffset":3312,"componentType":5126,"count":254,"max":[4.0,3.998756728003265,5.0],"min":[-4.0,-3.998756728003266,-5.0],"type":"VEC3"},{"bufferView":0,"byteOffset":6360,"componentType":5126,"count":3,"max":[-1.558951794258923,0.7781967390032273,1.7256161777279289e-15],"min":[-1.566413295513536,0.7739316903746424,-0.005689747415573265],"type":"VEC3"},{"bufferView":0,"byteOffset":6396,"componentType":5126,"count":3,"max":[-1.555597367442207,0.7781967390032273,1.7256161777279289e-15],"min":[-1.566413295513536,0.7612142849184819,-0.005689747415573265],"type":"VEC3"},{"bufferView":1,"byteOffset":0,"componentType":5126,"count":4,"type":"VEC3"},{"bufferView":1,"byteOffset":48,"componentType":5126,"count":4,"type":"VEC3"},{"bufferView":1,"byteOffset":96,"componentType":5126,"count":130,"type":"VEC3"},{"bufferView":1,"byteOffset":1656,"componentType":5126,"count":4,"type":"VEC3"},{"bufferView":1,"byteOffset":1704,"componentType":5126,"count":130,"type":"VEC3"},{"bufferView":1,"byteOffset":3264,"componentType":5126,"count":4,"type":"VEC3"},{"bufferView":1,"byteOffset":3312,"componentType":5126,"count":254,"type":"VEC3"},{"bufferView":1,"byteOffset":6360,"componentType":5126,"count":3,"type":"VEC3"},{"bufferView":1,"byteOffset":6396,"componentType":5126,"count":3,"type":"VEC3"},{"bufferView":2,"byteOffset":0,"componentType":5123,"count":6,"type":"SCALAR"},{"bufferView":2,"byteOffset":12,"componentType":5123,"count":6,"type":"SCALAR"},{"bufferView":2,"byteOffset":24,"componentType":5123,"count":390,"type":"SCALAR"},{"bufferView":2,"byteOffset":804,"componentType":5123,"count":6,"type":"SCALAR"},{"bufferView":2,"byteOffset":816,"componentType":5123,"count":390,"type":"SCALAR"},{"bufferView":2,"byteOffset":1596,"componentType":5123,"count":6,"type":"SCALAR"},{"bufferView":2,"byteOffset":1608,"componentType":5123,"count":756,"type":"SCALAR"},{"bufferView":2,"byteOffset":3120,"componentType":5123,"count":3,"type":"SCALAR"},{"bufferView":2,"byteOffset":3128,"componentType":5123,"count":3,"type":"SCALAR"}],"asset":{"generator":"Open CASCADE Technology 7.8 [dev.opencascade.org]","version":"2.0"},"bufferViews":[{"buffer":0,"byteLength":6432,"byteOffset":0,"byteStride":12,"target":34962},{"buffer":0,"byteLength":6432,"byteOffset":6432,"byteStride":12,"target":34962},{"buffer":0,"byteLength":3136,"byteOffset":12864,"target":34963}],"buffers":[{"byteLength":16000,"uri":"plaka_ve_yukaridaki_baslikli_vida.bin"}],"materials":[{"name":"mat_0","pbrMetallicRoughness":{"baseColorFactor":[0.699999988079071,0.699999988079071,0.699999988079071,1.0]},"doubleSided":true},{"name":"mat_1","pbrMetallicRoughness":{"baseColorFactor":[0.20000000298023224,0.5,0.800000011920929,1.0]},"doubleSided":true}],"meshes":[{"name":"plaka_part","primitives":[{"attributes":{"NORMAL":9,"POSITION":0},"indices":18,"material":0,"mode":4},{"attributes":{"NORMAL":10,"POSITION":1},"indices":19,"material":0,"mode":4},{"attributes":{"NORMAL":11,"POSITION":2},"indices":20,"material":0,"mode":4},{"attributes":{"NORMAL":12,"POSITION":3},"indices":21,"material":0,"mode":4},{"attributes":{"NORMAL":13,"POSITION":4},"indices":22,"material":0,"mode":4},{"attributes":{"NORMAL":14,"POSITION":5},"indices":23,"material":0,"mode":4},{"attributes":{"NORMAL":15,"POSITION":6},"indices":24,"material":0,"mode":4}]},{"name":"vida_part","primitives":[{"attributes":{"NORMAL":16,"POSITION":7},"indices":25,"material":1,"mode":4},{"attributes":{"NORMAL":17,"POSITION":8},"indices":26,"material":1,"mode":4}]}],"nodes":[{"children":[1,3],"rotation":[-0.7071067811865475,0.0,0.0,0.7071067811865475],"name":"f0e9e241-35fa-11f0-8198-78af08feb68a"},{"children":[2],"name":"plaka"},{"mesh":0,"name":"plaka_part"},{"children":[4],"translation":[40.0,0.0,12.0],"name":"vida"},{"mesh":1,"name":"vida_part"}],"scene":0,"scenes":[{"nodes":[0]}]}