{"accessors":[{"bufferView":0,"byteOffset":0,"componentType":5126,"count":4,"max":[-30.0,20.0,5.0],"min":[-30.0,-20.0,-5.0],"type":"VEC3"},{"bufferView":0,"byteOffset":48,"componentType":5126,"count":4,"max":[30.0,-20.0,5.0],"min":[-30.0,-20.0,-5.0],"type":"VEC3"},{"bufferView":0,"byteOffset":96,"componentType":5126,"count":130,"max":[30.0,20.0,5.0],"min":[-30.0,-20.0,5.0],"type":"VEC3"},{"bufferView":0,"byteOffset":1656,"componentType":5126,"count":4,"max":[30.0,20.0,5.0],"min":[-30.0,20.0,-5.0],"type":"VEC3"},{"bufferView":0,"byteOffset":1704,"componentType":5126,"count":130,"max":[30.0,20.0,-5.0],"min":[-30.0,-20.0,-5.0],"type":"VEC3"},{"bufferView":0,"byteOffset":3264,"componentType":5126,"count":4,"max":[30.0,20.0,5.0],"min":[30.0,-20.0,-5.0],"type":"VEC3"},{"bufferView":0,"byteOffset":3312,"componentType":5126,"count":254,"max":[4.0,3.998756728003265,5.0],"min":[-4.0,-3.998756728003266,-5.0],"type":"VEC3"},{"bufferView":0,"byteOffset":6360,"componentType":5126,"count":254,"max":[3.75,3.748834432503062,15.0],"min":[-3.75,-3.748834432503062,-11.26],"type":"VEC3"},{"bufferView":0,"byteOffset":9408,"componentType":5126,"count":519,"max":[3.75,3.748834432503061,-11.26],"min":[-3.75,-3.748834432503062,-15.0],"type":"VEC3"},{"bufferView":0,"byteOffset":15636,"componentType":5126,"count":126,"max":[3.75,3.748834432503062,15.0],"min":[-3.75,-3.748834432503061,15.0],"type":"VEC3"},{"bufferView":0,"byteOffset":17148,"componentType":5126,"count":7,"max":[0.009999999999999343,0.00974927912181803,-15.0],"min":[-0.009009688679023999,-0.00974927912181803,-15.0],"type":"VEC3"},{"bufferView":1,"byteOffset":0,"componentType":5126,"count":4,"type":"VEC3"},{"bufferView":1,"byteOffset":48,"componentType":5126,"count":4,"type":"VEC3"},{"bufferView":1,"byteOffset":96,"componentType":5126,"count":130,"type":"VEC3"},{"bufferView":1,"byteOffset":1656,"componentType":5126,"count":4,"type":"VEC3"},{"bufferView":1,"byteOffset":1704,"componentType":5126,"count":130,"type":"VEC3"},{"bufferView":1,"byteOffset":3264,"componentType":5126,"count":4,"type":"VEC3"},{"bufferView":1,"byteOffset":3312,"componentType":5126,"count":254,"type":"VEC3"},{"bufferView":1,"byteOffset":6360,"componentType":5126,"count":254,"type":"VEC3"},{"bufferView":1,"byteOffset":9408,"componentType":5126,"count":519,"type":"VEC3"},{"bufferView":1,"byteOffset":15636,"componentType":5126,"count":126,"type":"VEC3"},{"bufferView":1,"byteOffset":17148,"componentType":5126,"count":7,"type":"VEC3"},{"bufferView":2,"byteOffset":0,"componentType":5123,"count":6,"type":"SCALAR"},{"bufferView":2,"byteOffset":12,"componentType":5123,"count":6,"type":"SCALAR"},{"bufferView":2,"byteOffset":24,"componentType":5123,"count":390,"type":"SCALAR"},{"bufferView":2,"byteOffset":804,"componentType":5123,"count":6,"type":"SCALAR"},{"bufferView":2,"byteOffset":816,"componentType":5123,"count":390,"type":"SCALAR"},{"bufferView":2,"byteOffset":1596,"componentType":5123,"count":6,"type":"SCALAR"},{"bufferView":2,"byteOffset":1608,"componentType":5123,"count":756,"type":"SCALAR"},{"bufferView":2,"byteOffset":3120,"componentType":5123,"count":756,"type":"SCALAR"},{"bufferView":2,"byteOffset":4632,"componentType":5123,"count":2667,"type":"SCALAR"},{"bufferView":2,"byteOffset":9968,"componentType":5123,"count":372,"type":"SCALAR"},{"bufferView":2,"byteOffset":10712,"componentType":5123,"count":15,"type":"SCALAR"}],"asset":{"generator":"Open CASCADE Technology 7.8 [dev.opencascade.org]","version":"2.0"},"bufferViews":[{"buffer":0,"byteLength":17232,"byteOffset":0,"byteStride":12,"target":34962},{"buffer":0,"byteLength":17232,"byteOffset":17232,"byteStride":12,"target":34962},{"buffer":0,"byteLength":10744,"byteOffset":34464,"target":34963}],"buffers":[{"byteLength":45208,"uri":"plaka_ve_sivri_uclu_derin_yivli_pim.bin"}],"materials":[{"name":"mat_0","pbrMetallicRoughness":{"baseColorFactor":[0.699999988079071,0.699999988079071,0.699999988079071,1.0]},"doubleSided":true},{"name":"mat_1","pbrMetallicRoughness":{"baseColorFactor":[0.20000000298023224,0.5,0.800000011920929,1.0]},"doubleSided":true}],"meshes":[{"name":"plaka_part","primitives":[{"attributes":{"NORMAL":11,"POSITION":0},"indices":22,"material":0,"mode":4},{"attributes":{"NORMAL":12,"POSITION":1},"indices":23,"material":0,"mode":4},{"attributes":{"NORMAL":13,"POSITION":2},"indices":24,"material":0,"mode":4},{"attributes":{"NORMAL":14,"POSITION":3},"indices":25,"material":0,"mode":4},{"attributes":{"NORMAL":15,"POSITION":4},"indices":26,"material":0,"mode":4},{"attributes":{"NORMAL":16,"POSITION":5},"indices":27,"material":0,"mode":4},{"attributes":{"NORMAL":17,"POSITION":6},"indices":28,"material":0,"mode":4}]},{"name":"yivli_pim_part","primitives":[{"attributes":{"NORMAL":18,"POSITION":7},"indices":29,"material":1,"mode":4},{"attributes":{"NORMAL":19,"POSITION":8},"indices":30,"material":1,"mode":4},{"attributes":{"NORMAL":20,"POSITION":9},"indices":31,"material":1,"mode":4},{"attributes":{"NORMAL":21,"POSITION":10},"indices":32,"material":1,"mode":4}]}],"nodes":[{"children":[1,3],"rotation":[-0.7071067811865475,0.0,0.0,0.7071067811865475],"name":"AnaMontaj"},{"children":[2],"name":"plaka"},{"mesh":0,"name":"plaka_part"},{"children":[4],"name":"yivli_pim"},{"mesh":1,"name":"yivli_pim_part"}],"scene":0,"scenes":[{"nodes":[0]}]}