{"accessors":[{"bufferView":0,"byteOffset":0,"componentType":5126,"count":4,"max":[-30.0,20.0,5.0],"min":[-30.0,-20.0,-5.0],"type":"VEC3"},{"bufferView":0,"byteOffset":48,"componentType":5126,"count":4,"max":[30.0,-20.0,5.0],"min":[-30.0,-20.0,-5.0],"type":"VEC3"},{"bufferView":0,"byteOffset":96,"componentType":5126,"count":130,"max":[30.0,20.0,5.0],"min":[-30.0,-20.0,5.0],"type":"VEC3"},{"bufferView":0,"byteOffset":1656,"componentType":5126,"count":4,"max":[30.0,20.0,5.0],"min":[-30.0,20.0,-5.0],"type":"VEC3"},{"bufferView":0,"byteOffset":1704,"componentType":5126,"count":130,"max":[30.0,20.0,-5.0],"min":[-30.0,-20.0,-5.0],"type":"VEC3"},{"bufferView":0,"byteOffset":3264,"componentType":5126,"count":4,"max":[30.0,20.0,5.0],"min":[30.0,-20.0,-5.0],"type":"VEC3"},{"bufferView":0,"byteOffset":3312,"componentType":5126,"count":254,"max":[4.0,3.998756728003265,5.0],"min":[-4.0,-3.998756728003266,-5.0],"type":"VEC3"},{"bufferView":0,"byteOffset":6360,"componentType":5126,"count":335,"max":[3.7514199232108405,3.7555990315655503,15.0],"min":[-3.75003600667354,-3.7499798616688342,11.999924649215822],"type":"VEC3"},{"bufferView":0,"byteOffset":10380,"componentType":5126,"count":130,"max":[3.7514199232108405,3.7555990315655503,15.0],"min":[-3.75003600667354,-0.001042644543179402,14.001056887425316],"type":"VEC3"},{"bufferView":0,"byteOffset":11940,"componentType":5126,"count":359,"max":[3.75,3.749876679060053,14.001056887425316],"min":[-3.749936137817785,-3.7499798616688342,9.999924649215785],"type":"VEC3"},{"bufferView":0,"byteOffset":16248,"componentType":5126,"count":358,"max":[3.75,3.7492568634841414,15.000000000000009],"min":[-3.749806092490306,-3.749277449516399,15.0],"type":"VEC3"},{"bufferView":0,"byteOffset":20544,"componentType":5126,"count":308,"max":[3.75,3.7498739242979897,11.999924649215822],"min":[-3.7494915005471197,-3.749508620460486,7.999924649215758],"type":"VEC3"},{"bufferView":0,"byteOffset":24240,"componentType":5126,"count":2416,"max":[3.7514199232108405,3.7555990315655503,15.0],"min":[-3.75003600667354,-3.7499965866530287,-0.6928203230275511],"type":"VEC3"},{"bufferView":0,"byteOffset":53232,"componentType":5126,"count":2343,"max":[2.559631261018019,2.5596707589280716,15.000000000000009],"min":[-2.5596802158043905,-2.5596579227071845,-0.6928203230275511],"type":"VEC3"},{"bufferView":0,"byteOffset":81348,"componentType":5126,"count":2296,"max":[3.7514199232108405,3.7555990315655503,15.000000000000009],"min":[-3.75003600667354,-3.7499965866530287,0.0],"type":"VEC3"},{"bufferView":0,"byteOffset":108900,"componentType":5126,"count":308,"max":[3.75,3.7498714706800906,9.999924649215785],"min":[-3.7495074989584456,-3.749508620460486,5.999924649215732],"type":"VEC3"},{"bufferView":0,"byteOffset":112596,"componentType":5126,"count":3,"max":[3.7500000000000004,0.0,0.6928203230275508],"min":[2.5500000000000003,-1.1102230246251565e-16,-0.6928203230275511],"type":"VEC3"},{"bufferView":0,"byteOffset":112632,"componentType":5126,"count":308,"max":[3.75,3.7498859501026627,7.999924649215758],"min":[-3.749543922573399,-3.749462401313048,3.9999246492157297],"type":"VEC3"},{"bufferView":0,"byteOffset":116328,"componentType":5126,"count":308,"max":[3.75,3.7498859501026627,5.999924649215732],"min":[-3.749543922573399,-3.7494363717924806,2.003167484019194],"type":"VEC3"},{"bufferView":0,"byteOffset":120024,"componentType":5126,"count":309,"max":[3.7500000000000004,3.749884316683862,3.9999246492157297],"min":[-3.7496913015748867,-3.7499965866530287,1.3877787807814457e-17],"type":"VEC3"},{"bufferView":0,"byteOffset":123732,"componentType":5126,"count":283,"max":[3.7500000000000004,3.7496446785671735,2.003167484019194],"min":[-3.75,-3.7499965866530287,-15.0],"type":"VEC3"},{"bufferView":0,"byteOffset":127128,"componentType":5126,"count":126,"max":[3.75,3.748834432503061,-15.0],"min":[-3.75,-3.748834432503062,-15.0],"type":"VEC3"},{"bufferView":1,"byteOffset":0,"componentType":5126,"count":4,"type":"VEC3"},{"bufferView":1,"byteOffset":48,"componentType":5126,"count":4,"type":"VEC3"},{"bufferView":1,"byteOffset":96,"componentType":5126,"count":130,"type":"VEC3"},{"bufferView":1,"byteOffset":1656,"componentType":5126,"count":4,"type":"VEC3"},{"bufferView":1,"byteOffset":1704,"componentType":5126,"count":130,"type":"VEC3"},{"bufferView":1,"byteOffset":3264,"componentType":5126,"count":4,"type":"VEC3"},{"bufferView":1,"byteOffset":3312,"componentType":5126,"count":254,"type":"VEC3"},{"bufferView":1,"byteOffset":6360,"componentType":5126,"count":335,"type":"VEC3"},{"bufferView":1,"byteOffset":10380,"componentType":5126,"count":130,"type":"VEC3"},{"bufferView":1,"byteOffset":11940,"componentType":5126,"count":359,"type":"VEC3"},{"bufferView":1,"byteOffset":16248,"componentType":5126,"count":358,"type":"VEC3"},{"bufferView":1,"byteOffset":20544,"componentType":5126,"count":308,"type":"VEC3"},{"bufferView":1,"byteOffset":24240,"componentType":5126,"count":2416,"type":"VEC3"},{"bufferView":1,"byteOffset":53232,"componentType":5126,"count":2343,"type":"VEC3"},{"bufferView":1,"byteOffset":81348,"componentType":5126,"count":2296,"type":"VEC3"},{"bufferView":1,"byteOffset":108900,"componentType":5126,"count":308,"type":"VEC3"},{"bufferView":1,"byteOffset":112596,"componentType":5126,"count":3,"type":"VEC3"},{"bufferView":1,"byteOffset":112632,"componentType":5126,"count":308,"type":"VEC3"},{"bufferView":1,"byteOffset":116328,"componentType":5126,"count":308,"type":"VEC3"},{"bufferView":1,"byteOffset":120024,"componentType":5126,"count":309,"type":"VEC3"},{"bufferView":1,"byteOffset":123732,"componentType":5126,"count":283,"type":"VEC3"},{"bufferView":1,"byteOffset":127128,"componentType":5126,"count":126,"type":"VEC3"},{"bufferView":2,"byteOffset":0,"componentType":5123,"count":6,"type":"SCALAR"},{"bufferView":2,"byteOffset":12,"componentType":5123,"count":6,"type":"SCALAR"},{"bufferView":2,"byteOffset":24,"componentType":5123,"count":390,"type":"SCALAR"},{"bufferView":2,"byteOffset":804,"componentType":5123,"count":6,"type":"SCALAR"},{"bufferView":2,"byteOffset":816,"componentType":5123,"count":390,"type":"SCALAR"},{"bufferView":2,"byteOffset":1596,"componentType":5123,"count":6,"type":"SCALAR"},{"bufferView":2,"byteOffset":1608,"componentType":5123,"count":756,"type":"SCALAR"},{"bufferView":2,"byteOffset":3120,"componentType":5123,"count":999,"type":"SCALAR"},{"bufferView":2,"byteOffset":5120,"componentType":5123,"count":384,"type":"SCALAR"},{"bufferView":2,"byteOffset":5888,"componentType":5123,"count":1071,"type":"SCALAR"},{"bufferView":2,"byteOffset":8032,"componentType":5123,"count":1071,"type":"SCALAR"},{"bufferView":2,"byteOffset":10176,"componentType":5123,"count":918,"type":"SCALAR"},{"bufferView":2,"byteOffset":12012,"componentType":5123,"count":7242,"type":"SCALAR"},{"bufferView":2,"byteOffset":26496,"componentType":5123,"count":7023,"type":"SCALAR"},{"bufferView":2,"byteOffset":40544,"componentType":5123,"count":6885,"type":"SCALAR"},{"bufferView":2,"byteOffset":54316,"componentType":5123,"count":918,"type":"SCALAR"},{"bufferView":2,"byteOffset":56152,"componentType":5123,"count":3,"type":"SCALAR"},{"bufferView":2,"byteOffset":56160,"componentType":5123,"count":918,"type":"SCALAR"},{"bufferView":2,"byteOffset":57996,"componentType":5123,"count":918,"type":"SCALAR"},{"bufferView":2,"byteOffset":59832,"componentType":5123,"count":921,"type":"SCALAR"},{"bufferView":2,"byteOffset":61676,"componentType":5123,"count":843,"type":"SCALAR"},{"bufferView":2,"byteOffset":63364,"componentType":5123,"count":372,"type":"SCALAR"}],"asset":{"generator":"Open CASCADE Technology 7.8 [dev.opencascade.org]","version":"2.0"},"bufferViews":[{"buffer":0,"byteLength":128640,"byteOffset":0,"byteStride":12,"target":34962},{"buffer":0,"byteLength":128640,"byteOffset":128640,"byteStride":12,"target":34962},{"buffer":0,"byteLength":64108,"byteOffset":257280,"target":34963}],"buffers":[{"byteLength":321388,"uri":"plaka_ve_gercek_yivli_pim_v4.bin"}],"materials":[{"name":"mat_0","pbrMetallicRoughness":{"baseColorFactor":[0.699999988079071,0.699999988079071,0.699999988079071,1.0]},"doubleSided":true},{"name":"mat_1","pbrMetallicRoughness":{"baseColorFactor":[0.20000000298023224,0.5,0.800000011920929,1.0]},"doubleSided":true}],"meshes":[{"name":"plaka_part","primitives":[{"attributes":{"NORMAL":22,"POSITION":0},"indices":44,"material":0,"mode":4},{"attributes":{"NORMAL":23,"POSITION":1},"indices":45,"material":0,"mode":4},{"attributes":{"NORMAL":24,"POSITION":2},"indices":46,"material":0,"mode":4},{"attributes":{"NORMAL":25,"POSITION":3},"indices":47,"material":0,"mode":4},{"attributes":{"NORMAL":26,"POSITION":4},"indices":48,"material":0,"mode":4},{"attributes":{"NORMAL":27,"POSITION":5},"indices":49,"material":0,"mode":4},{"attributes":{"NORMAL":28,"POSITION":6},"indices":50,"material":0,"mode":4}]},{"name":"yivli_pim_part","primitives":[{"attributes":{"NORMAL":29,"POSITION":7},"indices":51,"material":1,"mode":4},{"attributes":{"NORMAL":30,"POSITION":8},"indices":52,"material":1,"mode":4},{"attributes":{"NORMAL":31,"POSITION":9},"indices":53,"material":1,"mode":4},{"attributes":{"NORMAL":32,"POSITION":10},"indices":54,"material":1,"mode":4},{"attributes":{"NORMAL":33,"POSITION":11},"indices":55,"material":1,"mode":4},{"attributes":{"NORMAL":34,"POSITION":12},"indices":56,"material":1,"mode":4},{"attributes":{"NORMAL":35,"POSITION":13},"indices":57,"material":1,"mode":4},{"attributes":{"NORMAL":36,"POSITION":14},"indices":58,"material":1,"mode":4},{"attributes":{"NORMAL":37,"POSITION":15},"indices":59,"material":1,"mode":4},{"attributes":{"NORMAL":38,"POSITION":16},"indices":60,"material":1,"mode":4},{"attributes":{"NORMAL":39,"POSITION":17},"indices":61,"material":1,"mode":4},{"attributes":{"NORMAL":40,"POSITION":18},"indices":62,"material":1,"mode":4},{"attributes":{"NORMAL":41,"POSITION":19},"indices":63,"material":1,"mode":4},{"attributes":{"NORMAL":42,"POSITION":20},"indices":64,"material":1,"mode":4},{"attributes":{"NORMAL":43,"POSITION":21},"indices":65,"material":1,"mode":4}]}],"nodes":[{"children":[1,3],"rotation":[-0.7071067811865475,0.0,0.0,0.7071067811865475],"name":"AnaMontaj"},{"children":[2],"name":"plaka"},{"mesh":0,"name":"plaka_part"},{"children":[4],"name":"yivli_pim"},{"mesh":1,"name":"yivli_pim_part"}],"scene":0,"scenes":[{"nodes":[0]}]}