{"accessors":[{"bufferView":0,"byteOffset":0,"componentType":5126,"count":4,"max":[-0.03,0.005,0.02],"min":[-0.03,-0.005,-0.02],"type":"VEC3"},{"bufferView":0,"byteOffset":48,"componentType":5126,"count":4,"max":[0.03,0.005,0.02],"min":[-0.03,-0.005,0.02],"type":"VEC3"},{"bufferView":0,"byteOffset":96,"componentType":5126,"count":117,"max":[0.03,0.005,0.02],"min":[-0.03,0.005,-0.02],"type":"VEC3"},{"bufferView":0,"byteOffset":1500,"componentType":5126,"count":4,"max":[0.03,0.005,-0.02],"min":[-0.03,-0.005,-0.02],"type":"VEC3"},{"bufferView":0,"byteOffset":1548,"componentType":5126,"count":117,"max":[0.03,-0.005,0.02],"min":[-0.03,-0.005,-0.02],"type":"VEC3"},{"bufferView":0,"byteOffset":2952,"componentType":5126,"count":4,"max":[0.03,0.005,0.02],"min":[0.03,-0.005,-0.02],"type":"VEC3"},{"bufferView":0,"byteOffset":3000,"componentType":5126,"count":228,"max":[0.00499806778747277,0.005,0.004999516923531905],"min":[-0.005,-0.005,-0.004999516923531905],"type":"VEC3"},{"bufferView":0,"byteOffset":5736,"componentType":5126,"count":228,"max":[0.005,0.0095,0.004999516923531905],"min":[-0.00499806778747277,-0.01,-0.004999516923531905],"type":"VEC3"},{"bufferView":0,"byteOffset":8472,"componentType":5126,"count":286,"max":[0.005,0.01,0.004999516923531905],"min":[-0.00499806778747277,0.0095,-0.004999516923531905],"type":"VEC3"},{"bufferView":0,"byteOffset":11904,"componentType":5126,"count":113,"max":[0.005,-0.01,0.004999516923531905],"min":[-0.00499806778747277,-0.01,-0.004999516923531905],"type":"VEC3"},{"bufferView":0,"byteOffset":13260,"componentType":5126,"count":113,"max":[0.0045000000000000005,0.01,0.004499565231178715],"min":[-0.004498261008725493,0.01,-0.004499565231178714],"type":"VEC3"},{"bufferView":1,"byteOffset":0,"componentType":5126,"count":4,"type":"VEC3"},{"bufferView":1,"byteOffset":48,"componentType":5126,"count":4,"type":"VEC3"},{"bufferView":1,"byteOffset":96,"componentType":5126,"count":117,"type":"VEC3"},{"bufferView":1,"byteOffset":1500,"componentType":5126,"count":4,"type":"VEC3"},{"bufferView":1,"byteOffset":1548,"componentType":5126,"count":117,"type":"VEC3"},{"bufferView":1,"byteOffset":2952,"componentType":5126,"count":4,"type":"VEC3"},{"bufferView":1,"byteOffset":3000,"componentType":5126,"count":228,"type":"VEC3"},{"bufferView":1,"byteOffset":5736,"componentType":5126,"count":228,"type":"VEC3"},{"bufferView":1,"byteOffset":8472,"componentType":5126,"count":286,"type":"VEC3"},{"bufferView":1,"byteOffset":11904,"componentType":5126,"count":113,"type":"VEC3"},{"bufferView":1,"byteOffset":13260,"componentType":5126,"count":113,"type":"VEC3"},{"bufferView":2,"byteOffset":0,"componentType":5123,"count":6,"type":"SCALAR"},{"bufferView":2,"byteOffset":12,"componentType":5123,"count":6,"type":"SCALAR"},{"bufferView":2,"byteOffset":24,"componentType":5123,"count":351,"type":"SCALAR"},{"bufferView":2,"byteOffset":728,"componentType":5123,"count":6,"type":"SCALAR"},{"bufferView":2,"byteOffset":740,"componentType":5123,"count":351,"type":"SCALAR"},{"bufferView":2,"byteOffset":1444,"componentType":5123,"count":6,"type":"SCALAR"},{"bufferView":2,"byteOffset":1456,"componentType":5123,"count":678,"type":"SCALAR"},{"bufferView":2,"byteOffset":2812,"componentType":5123,"count":678,"type":"SCALAR"},{"bufferView":2,"byteOffset":4168,"componentType":5123,"count":1020,"type":"SCALAR"},{"bufferView":2,"byteOffset":6208,"componentType":5123,"count":333,"type":"SCALAR"},{"bufferView":2,"byteOffset":6876,"componentType":5123,"count":333,"type":"SCALAR"}],"asset":{"generator":"Open CASCADE Technology 7.8 [dev.opencascade.org]","version":"2.0"},"bufferViews":[{"buffer":0,"byteLength":14616,"byteOffset":0,"byteStride":12,"target":34962},{"buffer":0,"byteLength":14616,"byteOffset":14616,"byteStride":12,"target":34962},{"buffer":0,"byteLength":7544,"byteOffset":29232,"target":34963}],"buffers":[{"byteLength":36776,"uri":"plaka_pim_montaji.bin"}],"materials":[{"name":"mat_0","pbrMetallicRoughness":{"baseColorFactor":[0.17064492404460907,0.1873166710138321,0.21404114365577698,1.0]},"doubleSided":true},{"name":"mat_1","pbrMetallicRoughness":{"baseColorFactor":[0.0,0.5225215554237366,1.0,1.0]},"doubleSided":true}],"meshes":[{"name":"Open CASCADE STEP translator 7.8 3.1","primitives":[{"attributes":{"NORMAL":11,"POSITION":0},"indices":22,"material":0,"mode":4},{"attributes":{"NORMAL":12,"POSITION":1},"indices":23,"material":0,"mode":4},{"attributes":{"NORMAL":13,"POSITION":2},"indices":24,"material":0,"mode":4},{"attributes":{"NORMAL":14,"POSITION":3},"indices":25,"material":0,"mode":4},{"attributes":{"NORMAL":15,"POSITION":4},"indices":26,"material":0,"mode":4},{"attributes":{"NORMAL":16,"POSITION":5},"indices":27,"material":0,"mode":4},{"attributes":{"NORMAL":17,"POSITION":6},"indices":28,"material":0,"mode":4}]},{"name":"Open CASCADE STEP translator 7.8 3.2","primitives":[{"attributes":{"NORMAL":18,"POSITION":7},"indices":29,"material":1,"mode":4},{"attributes":{"NORMAL":19,"POSITION":8},"indices":30,"material":1,"mode":4},{"attributes":{"NORMAL":20,"POSITION":9},"indices":31,"material":1,"mode":4},{"attributes":{"NORMAL":21,"POSITION":10},"indices":32,"material":1,"mode":4}]}],"nodes":[{"children":[1,2],"name":"Open CASCADE STEP translator 7.8 3"},{"mesh":0,"name":"Open CASCADE STEP translator 7.8 3.1"},{"mesh":1,"name":"Open CASCADE STEP translator 7.8 3.2"}],"scene":0,"scenes":[{"nodes":[0]}]}