{"accessors":[{"bufferView":0,"byteOffset":0,"componentType":5126,"count":4,"max":[-0.02,0.01,0.02],"min":[-0.02,-0.01,-0.02],"type":"VEC3"},{"bufferView":0,"byteOffset":48,"componentType":5126,"count":4,"max":[0.02,0.01,0.02],"min":[-0.02,-0.01,0.02],"type":"VEC3"},{"bufferView":0,"byteOffset":96,"componentType":5126,"count":45,"max":[0.02,0.01,0.02],"min":[-0.02,0.01,-0.02],"type":"VEC3"},{"bufferView":0,"byteOffset":636,"componentType":5126,"count":39,"max":[0.02,0.01,-0.02],"min":[-0.02,-0.01,-0.02],"type":"VEC3"},{"bufferView":0,"byteOffset":1104,"componentType":5126,"count":4,"max":[0.02,-0.01,0.02],"min":[-0.02,-0.01,-0.02],"type":"VEC3"},{"bufferView":0,"byteOffset":1152,"componentType":5126,"count":40,"max":[0.02,0.01,0.02],"min":[0.02,-0.01,-0.02],"type":"VEC3"},{"bufferView":0,"byteOffset":1632,"componentType":5126,"count":994,"max":[0.02,0.01,-8.268382602611979e-7],"min":[8.268382602594216e-7,-0.005,-0.02],"type":"VEC3"},{"bufferView":1,"byteOffset":0,"componentType":5126,"count":4,"type":"VEC3"},{"bufferView":1,"byteOffset":48,"componentType":5126,"count":4,"type":"VEC3"},{"bufferView":1,"byteOffset":96,"componentType":5126,"count":45,"type":"VEC3"},{"bufferView":1,"byteOffset":636,"componentType":5126,"count":39,"type":"VEC3"},{"bufferView":1,"byteOffset":1104,"componentType":5126,"count":4,"type":"VEC3"},{"bufferView":1,"byteOffset":1152,"componentType":5126,"count":40,"type":"VEC3"},{"bufferView":1,"byteOffset":1632,"componentType":5126,"count":994,"type":"VEC3"},{"bufferView":2,"byteOffset":0,"componentType":5123,"count":6,"type":"SCALAR"},{"bufferView":2,"byteOffset":12,"componentType":5123,"count":6,"type":"SCALAR"},{"bufferView":2,"byteOffset":24,"componentType":5123,"count":129,"type":"SCALAR"},{"bufferView":2,"byteOffset":284,"componentType":5123,"count":111,"type":"SCALAR"},{"bufferView":2,"byteOffset":508,"componentType":5123,"count":6,"type":"SCALAR"},{"bufferView":2,"byteOffset":520,"componentType":5123,"count":114,"type":"SCALAR"},{"bufferView":2,"byteOffset":748,"componentType":5123,"count":5577,"type":"SCALAR"}],"asset":{"generator":"Open CASCADE Technology 7.8 [dev.opencascade.org]","version":"2.0"},"bufferViews":[{"buffer":0,"byteLength":13560,"byteOffset":0,"byteStride":12,"target":34962},{"buffer":0,"byteLength":13560,"byteOffset":13560,"byteStride":12,"target":34962},{"buffer":0,"byteLength":11904,"byteOffset":27120,"target":34963}],"buffers":[{"byteLength":39024,"uri":"prizma_kure_oyuk.bin"}],"materials":[{"name":"mat_0","pbrMetallicRoughness":{"baseColorFactor":[0.0,0.5225215554237366,1.0,1.0]},"doubleSided":true}],"meshes":[{"name":"Gövde","primitives":[{"attributes":{"NORMAL":7,"POSITION":0},"indices":14,"material":0,"mode":4},{"attributes":{"NORMAL":8,"POSITION":1},"indices":15,"material":0,"mode":4},{"attributes":{"NORMAL":9,"POSITION":2},"indices":16,"material":0,"mode":4},{"attributes":{"NORMAL":10,"POSITION":3},"indices":17,"material":0,"mode":4},{"attributes":{"NORMAL":11,"POSITION":4},"indices":18,"material":0,"mode":4},{"attributes":{"NORMAL":12,"POSITION":5},"indices":19,"material":0,"mode":4},{"attributes":{"NORMAL":13,"POSITION":6},"indices":20,"material":0,"mode":4}]}],"nodes":[{"mesh":0,"name":"Gövde"}],"scene":0,"scenes":[{"nodes":[0]}]}