{"accessors":[{"bufferView":0,"byteOffset":0,"componentType":5126,"count":4,"max":[-25.0,25.0,10.0],"min":[-25.0,-25.0,-10.0],"type":"VEC3"},{"bufferView":0,"byteOffset":48,"componentType":5126,"count":4,"max":[25.0,-25.0,10.0],"min":[-25.0,-25.0,-10.0],"type":"VEC3"},{"bufferView":0,"byteOffset":96,"componentType":5126,"count":130,"max":[25.0,25.0,10.0],"min":[-25.0,-25.0,10.0],"type":"VEC3"},{"bufferView":0,"byteOffset":1656,"componentType":5126,"count":4,"max":[25.0,25.0,10.0],"min":[-25.0,25.0,-10.0],"type":"VEC3"},{"bufferView":0,"byteOffset":1704,"componentType":5126,"count":130,"max":[25.0,25.0,-10.0],"min":[-25.0,-25.0,-10.0],"type":"VEC3"},{"bufferView":0,"byteOffset":3264,"componentType":5126,"count":4,"max":[25.0,25.0,10.0],"min":[25.0,-25.0,-10.0],"type":"VEC3"},{"bufferView":0,"byteOffset":3312,"componentType":5126,"count":254,"max":[5.0,4.998445910004081,10.0],"min":[-5.0,-4.998445910004082,-10.0],"type":"VEC3"},{"bufferView":0,"byteOffset":6360,"componentType":5126,"count":254,"max":[8.82,8.817258585247199,29.0],"min":[-8.82,-8.8172585852472,24.0],"type":"VEC3"},{"bufferView":0,"byteOffset":9408,"componentType":5126,"count":252,"max":[8.82,8.817258585247199,24.0],"min":[-8.82,-8.8172585852472,24.0],"type":"VEC3"},{"bufferView":0,"byteOffset":12432,"componentType":5126,"count":126,"max":[8.82,8.817258585247199,29.0],"min":[-8.82,-8.8172585852472,29.0],"type":"VEC3"},{"bufferView":0,"byteOffset":13944,"componentType":5126,"count":254,"max":[4.9,4.898476991804,24.0],"min":[-4.9,-4.898476991804001,0.0],"type":"VEC3"},{"bufferView":0,"byteOffset":16992,"componentType":5126,"count":126,"max":[4.9,4.898476991804,0.0],"min":[-4.9,-4.898476991804001,0.0],"type":"VEC3"},{"bufferView":1,"byteOffset":0,"componentType":5126,"count":4,"type":"VEC3"},{"bufferView":1,"byteOffset":48,"componentType":5126,"count":4,"type":"VEC3"},{"bufferView":1,"byteOffset":96,"componentType":5126,"count":130,"type":"VEC3"},{"bufferView":1,"byteOffset":1656,"componentType":5126,"count":4,"type":"VEC3"},{"bufferView":1,"byteOffset":1704,"componentType":5126,"count":130,"type":"VEC3"},{"bufferView":1,"byteOffset":3264,"componentType":5126,"count":4,"type":"VEC3"},{"bufferView":1,"byteOffset":3312,"componentType":5126,"count":254,"type":"VEC3"},{"bufferView":1,"byteOffset":6360,"componentType":5126,"count":254,"type":"VEC3"},{"bufferView":1,"byteOffset":9408,"componentType":5126,"count":252,"type":"VEC3"},{"bufferView":1,"byteOffset":12432,"componentType":5126,"count":126,"type":"VEC3"},{"bufferView":1,"byteOffset":13944,"componentType":5126,"count":254,"type":"VEC3"},{"bufferView":1,"byteOffset":16992,"componentType":5126,"count":126,"type":"VEC3"},{"bufferView":2,"byteOffset":0,"componentType":5123,"count":6,"type":"SCALAR"},{"bufferView":2,"byteOffset":12,"componentType":5123,"count":6,"type":"SCALAR"},{"bufferView":2,"byteOffset":24,"componentType":5123,"count":390,"type":"SCALAR"},{"bufferView":2,"byteOffset":804,"componentType":5123,"count":6,"type":"SCALAR"},{"bufferView":2,"byteOffset":816,"componentType":5123,"count":390,"type":"SCALAR"},{"bufferView":2,"byteOffset":1596,"componentType":5123,"count":6,"type":"SCALAR"},{"bufferView":2,"byteOffset":1608,"componentType":5123,"count":756,"type":"SCALAR"},{"bufferView":2,"byteOffset":3120,"componentType":5123,"count":756,"type":"SCALAR"},{"bufferView":2,"byteOffset":4632,"componentType":5123,"count":756,"type":"SCALAR"},{"bufferView":2,"byteOffset":6144,"componentType":5123,"count":372,"type":"SCALAR"},{"bufferView":2,"byteOffset":6888,"componentType":5123,"count":756,"type":"SCALAR"},{"bufferView":2,"byteOffset":8400,"componentType":5123,"count":372,"type":"SCALAR"}],"asset":{"generator":"Open CASCADE Technology 7.8 [dev.opencascade.org]","version":"2.0"},"bufferViews":[{"buffer":0,"byteLength":18504,"byteOffset":0,"byteStride":12,"target":34962},{"buffer":0,"byteLength":18504,"byteOffset":18504,"byteStride":12,"target":34962},{"buffer":0,"byteLength":9144,"byteOffset":37008,"target":34963}],"buffers":[{"byteLength":46152,"uri":"rafine_montaj_ornegi.bin"}],"materials":[{"name":"mat_0","pbrMetallicRoughness":{"baseColorFactor":[0.6514059901237488,0.6514059901237488,0.6514059901237488,1.0]},"doubleSided":true},{"name":"mat_1","pbrMetallicRoughness":{"baseColorFactor":[0.06124600023031235,0.22322799265384674,0.4564110040664673,1.0]},"doubleSided":true}],"meshes":[{"name":"blok_parcasi_part","primitives":[{"attributes":{"NORMAL":12,"POSITION":0},"indices":24,"material":0,"mode":4},{"attributes":{"NORMAL":13,"POSITION":1},"indices":25,"material":0,"mode":4},{"attributes":{"NORMAL":14,"POSITION":2},"indices":26,"material":0,"mode":4},{"attributes":{"NORMAL":15,"POSITION":3},"indices":27,"material":0,"mode":4},{"attributes":{"NORMAL":16,"POSITION":4},"indices":28,"material":0,"mode":4},{"attributes":{"NORMAL":17,"POSITION":5},"indices":29,"material":0,"mode":4},{"attributes":{"NORMAL":18,"POSITION":6},"indices":30,"material":0,"mode":4}]},{"name":"pim_parcasi_part","primitives":[{"attributes":{"NORMAL":19,"POSITION":7},"indices":31,"material":1,"mode":4},{"attributes":{"NORMAL":20,"POSITION":8},"indices":32,"material":1,"mode":4},{"attributes":{"NORMAL":21,"POSITION":9},"indices":33,"material":1,"mode":4},{"attributes":{"NORMAL":22,"POSITION":10},"indices":34,"material":1,"mode":4},{"attributes":{"NORMAL":23,"POSITION":11},"indices":35,"material":1,"mode":4}]}],"nodes":[{"children":[1,3],"rotation":[-0.7071067811865475,0.0,0.0,0.7071067811865475],"name":"BlokPimMontaji"},{"children":[2],"name":"blok_parcasi"},{"mesh":0,"name":"blok_parcasi_part"},{"children":[4],"rotation":[-5.141909046174494e-14,0.9999904800107671,0.0043634719932047145,-2.199077586211758e-10],"translation":[-1.0461565216631628e-12,-0.20944466195655512,33.999086106496414],"name":"pim_parcasi"},{"mesh":1,"name":"pim_parcasi_part"}],"scene":0,"scenes":[{"nodes":[0]}]}