{"accessors":[{"bufferView":0,"byteOffset":0,"componentType":5126,"count":228,"max":[0.01,0.005,0.00999903384706381],"min":[-0.00999613557494554,0.0,-0.00999903384706381],"type":"VEC3"},{"bufferView":0,"byteOffset":2736,"componentType":5126,"count":518,"max":[0.015,0.02,0.014998550770595717],"min":[-0.014994203362418313,0.005,-0.014998550770595715],"type":"VEC3"},{"bufferView":0,"byteOffset":8952,"componentType":5126,"count":228,"max":[0.015,0.04,0.014998550770595717],"min":[-0.014994203362418313,0.02,-0.014998550770595715],"type":"VEC3"},{"bufferView":0,"byteOffset":11688,"componentType":5126,"count":402,"max":[0.015,0.05,0.014998550770595717],"min":[-0.014994203362418313,0.04,-0.014998550770595715],"type":"VEC3"},{"bufferView":0,"byteOffset":16512,"componentType":5126,"count":228,"max":[0.012,0.06,0.011998840616476573],"min":[-0.01199536268993465,0.05,-0.011998840616476571],"type":"VEC3"},{"bufferView":0,"byteOffset":19248,"componentType":5126,"count":226,"max":[0.012,0.06,0.011998840616476573],"min":[-0.01199536268993465,0.06,-0.011998840616476571],"type":"VEC3"},{"bufferView":0,"byteOffset":21960,"componentType":5126,"count":228,"max":[0.01,0.06,0.00999903384706381],"min":[-0.00999613557494554,0.01,-0.00999903384706381],"type":"VEC3"},{"bufferView":0,"byteOffset":24696,"componentType":5126,"count":518,"max":[0.01,0.01,0.00999903384706381],"min":[-0.00999613557494554,0.0,-0.00999903384706381],"type":"VEC3"},{"bufferView":0,"byteOffset":30912,"componentType":5126,"count":226,"max":[0.01,0.0,0.00999903384706381],"min":[-0.00999613557494554,0.0,-0.00999903384706381],"type":"VEC3"},{"bufferView":1,"byteOffset":0,"componentType":5126,"count":228,"type":"VEC3"},{"bufferView":1,"byteOffset":2736,"componentType":5126,"count":518,"type":"VEC3"},{"bufferView":1,"byteOffset":8952,"componentType":5126,"count":228,"type":"VEC3"},{"bufferView":1,"byteOffset":11688,"componentType":5126,"count":402,"type":"VEC3"},{"bufferView":1,"byteOffset":16512,"componentType":5126,"count":228,"type":"VEC3"},{"bufferView":1,"byteOffset":19248,"componentType":5126,"count":226,"type":"VEC3"},{"bufferView":1,"byteOffset":21960,"componentType":5126,"count":228,"type":"VEC3"},{"bufferView":1,"byteOffset":24696,"componentType":5126,"count":518,"type":"VEC3"},{"bufferView":1,"byteOffset":30912,"componentType":5126,"count":226,"type":"VEC3"},{"bufferView":2,"byteOffset":0,"componentType":5123,"count":678,"type":"SCALAR"},{"bufferView":2,"byteOffset":1356,"componentType":5123,"count":2388,"type":"SCALAR"},{"bufferView":2,"byteOffset":6132,"componentType":5123,"count":678,"type":"SCALAR"},{"bufferView":2,"byteOffset":7488,"componentType":5123,"count":1704,"type":"SCALAR"},{"bufferView":2,"byteOffset":10896,"componentType":5123,"count":678,"type":"SCALAR"},{"bufferView":2,"byteOffset":12252,"componentType":5123,"count":678,"type":"SCALAR"},{"bufferView":2,"byteOffset":13608,"componentType":5123,"count":678,"type":"SCALAR"},{"bufferView":2,"byteOffset":14964,"componentType":5123,"count":2388,"type":"SCALAR"},{"bufferView":2,"byteOffset":19740,"componentType":5123,"count":678,"type":"SCALAR"}],"asset":{"generator":"Open CASCADE Technology 7.8 [dev.opencascade.org]","version":"2.0"},"bufferViews":[{"buffer":0,"byteLength":33624,"byteOffset":0,"byteStride":12,"target":34962},{"buffer":0,"byteLength":33624,"byteOffset":33624,"byteStride":12,"target":34962},{"buffer":0,"byteLength":21096,"byteOffset":67248,"target":34963}],"buffers":[{"byteLength":88344,"uri":"revolve-vase.bin"}],"materials":[{"name":"mat_0","pbrMetallicRoughness":{"baseColorFactor":[0.0,0.5225215554237366,1.0,1.0]},"doubleSided":true}],"meshes":[{"name":"Gövde","primitives":[{"attributes":{"NORMAL":9,"POSITION":0},"indices":18,"material":0,"mode":4},{"attributes":{"NORMAL":10,"POSITION":1},"indices":19,"material":0,"mode":4},{"attributes":{"NORMAL":11,"POSITION":2},"indices":20,"material":0,"mode":4},{"attributes":{"NORMAL":12,"POSITION":3},"indices":21,"material":0,"mode":4},{"attributes":{"NORMAL":13,"POSITION":4},"indices":22,"material":0,"mode":4},{"attributes":{"NORMAL":14,"POSITION":5},"indices":23,"material":0,"mode":4},{"attributes":{"NORMAL":15,"POSITION":6},"indices":24,"material":0,"mode":4},{"attributes":{"NORMAL":16,"POSITION":7},"indices":25,"material":0,"mode":4},{"attributes":{"NORMAL":17,"POSITION":8},"indices":26,"material":0,"mode":4}]}],"nodes":[{"mesh":0,"name":"Gövde"}],"scene":0,"scenes":[{"nodes":[0]}]}