{"accessors":[{"bufferView":0,"byteOffset":0,"componentType":5126,"count":4,"max":[30.0,0.0,5.0],"min":[0.0,0.0,0.0],"type":"VEC3"},{"bufferView":0,"byteOffset":48,"componentType":5126,"count":4,"max":[30.0,10.0,5.0],"min":[30.0,0.0,0.0],"type":"VEC3"},{"bufferView":0,"byteOffset":96,"componentType":5126,"count":4,"max":[30.0,10.0,5.0],"min":[10.0,10.0,0.0],"type":"VEC3"},{"bufferView":0,"byteOffset":144,"componentType":5126,"count":4,"max":[10.0,40.0,5.0],"min":[10.0,10.0,0.0],"type":"VEC3"},{"bufferView":0,"byteOffset":192,"componentType":5126,"count":4,"max":[10.0,40.0,5.0],"min":[0.0,40.0,0.0],"type":"VEC3"},{"bufferView":0,"byteOffset":240,"componentType":5126,"count":4,"max":[0.0,40.0,5.0],"min":[0.0,0.0,0.0],"type":"VEC3"},{"bufferView":0,"byteOffset":288,"componentType":5126,"count":6,"max":[30.0,40.0,0.0],"min":[0.0,0.0,0.0],"type":"VEC3"},{"bufferView":0,"byteOffset":360,"componentType":5126,"count":6,"max":[30.0,40.0,5.0],"min":[0.0,0.0,5.0],"type":"VEC3"},{"bufferView":0,"byteOffset":432,"componentType":5126,"count":4,"max":[0.0,0.0,5.0],"min":[-30.0,0.0,0.0],"type":"VEC3"},{"bufferView":0,"byteOffset":480,"componentType":5126,"count":4,"max":[-30.0,10.0,5.0],"min":[-30.0,0.0,0.0],"type":"VEC3"},{"bufferView":0,"byteOffset":528,"componentType":5126,"count":4,"max":[-10.0,10.0,5.0],"min":[-30.0,10.0,0.0],"type":"VEC3"},{"bufferView":0,"byteOffset":576,"componentType":5126,"count":4,"max":[-10.0,40.0,5.0],"min":[-10.0,10.0,0.0],"type":"VEC3"},{"bufferView":0,"byteOffset":624,"componentType":5126,"count":4,"max":[0.0,40.0,5.0],"min":[-10.0,40.0,0.0],"type":"VEC3"},{"bufferView":0,"byteOffset":672,"componentType":5126,"count":4,"max":[0.0,40.0,5.0],"min":[0.0,0.0,0.0],"type":"VEC3"},{"bufferView":0,"byteOffset":720,"componentType":5126,"count":6,"max":[0.0,40.0,0.0],"min":[-30.0,0.0,0.0],"type":"VEC3"},{"bufferView":0,"byteOffset":792,"componentType":5126,"count":6,"max":[0.0,40.0,5.0],"min":[-30.0,0.0,5.0],"type":"VEC3"},{"bufferView":1,"byteOffset":0,"componentType":5126,"count":4,"type":"VEC3"},{"bufferView":1,"byteOffset":48,"componentType":5126,"count":4,"type":"VEC3"},{"bufferView":1,"byteOffset":96,"componentType":5126,"count":4,"type":"VEC3"},{"bufferView":1,"byteOffset":144,"componentType":5126,"count":4,"type":"VEC3"},{"bufferView":1,"byteOffset":192,"componentType":5126,"count":4,"type":"VEC3"},{"bufferView":1,"byteOffset":240,"componentType":5126,"count":4,"type":"VEC3"},{"bufferView":1,"byteOffset":288,"componentType":5126,"count":6,"type":"VEC3"},{"bufferView":1,"byteOffset":360,"componentType":5126,"count":6,"type":"VEC3"},{"bufferView":1,"byteOffset":432,"componentType":5126,"count":4,"type":"VEC3"},{"bufferView":1,"byteOffset":480,"componentType":5126,"count":4,"type":"VEC3"},{"bufferView":1,"byteOffset":528,"componentType":5126,"count":4,"type":"VEC3"},{"bufferView":1,"byteOffset":576,"componentType":5126,"count":4,"type":"VEC3"},{"bufferView":1,"byteOffset":624,"componentType":5126,"count":4,"type":"VEC3"},{"bufferView":1,"byteOffset":672,"componentType":5126,"count":4,"type":"VEC3"},{"bufferView":1,"byteOffset":720,"componentType":5126,"count":6,"type":"VEC3"},{"bufferView":1,"byteOffset":792,"componentType":5126,"count":6,"type":"VEC3"},{"bufferView":2,"byteOffset":0,"componentType":5123,"count":6,"type":"SCALAR"},{"bufferView":2,"byteOffset":12,"componentType":5123,"count":6,"type":"SCALAR"},{"bufferView":2,"byteOffset":24,"componentType":5123,"count":6,"type":"SCALAR"},{"bufferView":2,"byteOffset":36,"componentType":5123,"count":6,"type":"SCALAR"},{"bufferView":2,"byteOffset":48,"componentType":5123,"count":6,"type":"SCALAR"},{"bufferView":2,"byteOffset":60,"componentType":5123,"count":6,"type":"SCALAR"},{"bufferView":2,"byteOffset":72,"componentType":5123,"count":12,"type":"SCALAR"},{"bufferView":2,"byteOffset":96,"componentType":5123,"count":12,"type":"SCALAR"},{"bufferView":2,"byteOffset":120,"componentType":5123,"count":6,"type":"SCALAR"},{"bufferView":2,"byteOffset":132,"componentType":5123,"count":6,"type":"SCALAR"},{"bufferView":2,"byteOffset":144,"componentType":5123,"count":6,"type":"SCALAR"},{"bufferView":2,"byteOffset":156,"componentType":5123,"count":6,"type":"SCALAR"},{"bufferView":2,"byteOffset":168,"componentType":5123,"count":6,"type":"SCALAR"},{"bufferView":2,"byteOffset":180,"componentType":5123,"count":6,"type":"SCALAR"},{"bufferView":2,"byteOffset":192,"componentType":5123,"count":12,"type":"SCALAR"},{"bufferView":2,"byteOffset":216,"componentType":5123,"count":12,"type":"SCALAR"}],"asset":{"generator":"Open CASCADE Technology 7.8 [dev.opencascade.org]","version":"2.0"},"bufferViews":[{"buffer":0,"byteLength":864,"byteOffset":0,"byteStride":12,"target":34962},{"buffer":0,"byteLength":864,"byteOffset":864,"byteStride":12,"target":34962},{"buffer":0,"byteLength":240,"byteOffset":1728,"target":34963}],"buffers":[{"byteLength":1968,"uri":"simetrik_braket.bin"}],"materials":[{"name":"mat_0","pbrMetallicRoughness":{"baseColorFactor":[0.06124600023031235,0.22322799265384674,0.4564110040664673,1.0]},"doubleSided":true}],"meshes":[{"name":"braket_part","primitives":[{"attributes":{"NORMAL":16,"POSITION":0},"indices":32,"material":0,"mode":4},{"attributes":{"NORMAL":17,"POSITION":1},"indices":33,"material":0,"mode":4},{"attributes":{"NORMAL":18,"POSITION":2},"indices":34,"material":0,"mode":4},{"attributes":{"NORMAL":19,"POSITION":3},"indices":35,"material":0,"mode":4},{"attributes":{"NORMAL":20,"POSITION":4},"indices":36,"material":0,"mode":4},{"attributes":{"NORMAL":21,"POSITION":5},"indices":37,"material":0,"mode":4},{"attributes":{"NORMAL":22,"POSITION":6},"indices":38,"material":0,"mode":4},{"attributes":{"NORMAL":23,"POSITION":7},"indices":39,"material":0,"mode":4},{"attributes":{"NORMAL":24,"POSITION":8},"indices":40,"material":0,"mode":4},{"attributes":{"NORMAL":25,"POSITION":9},"indices":41,"material":0,"mode":4},{"attributes":{"NORMAL":26,"POSITION":10},"indices":42,"material":0,"mode":4},{"attributes":{"NORMAL":27,"POSITION":11},"indices":43,"material":0,"mode":4},{"attributes":{"NORMAL":28,"POSITION":12},"indices":44,"material":0,"mode":4},{"attributes":{"NORMAL":29,"POSITION":13},"indices":45,"material":0,"mode":4},{"attributes":{"NORMAL":30,"POSITION":14},"indices":46,"material":0,"mode":4},{"attributes":{"NORMAL":31,"POSITION":15},"indices":47,"material":0,"mode":4}]}],"nodes":[{"children":[1],"rotation":[-0.7071067811865475,0.0,0.0,0.7071067811865475],"name":"simetrik_braket"},{"children":[2],"name":"braket"},{"mesh":0,"name":"braket_part"}],"scene":0,"scenes":[{"nodes":[0]}]}