{"accessors":[{"bufferView":0,"byteOffset":0,"componentType":5126,"count":4,"max":[0.0,20.0,6.0],"min":[0.0,0.0,0.0],"type":"VEC3"},{"bufferView":0,"byteOffset":48,"componentType":5126,"count":4,"max":[30.0,0.0,6.0],"min":[0.0,0.0,0.0],"type":"VEC3"},{"bufferView":0,"byteOffset":96,"componentType":5126,"count":130,"max":[30.0,20.0,6.0],"min":[0.0,0.0,6.0],"type":"VEC3"},{"bufferView":0,"byteOffset":1656,"componentType":5126,"count":4,"max":[30.0,20.0,6.0],"min":[0.0,20.0,0.0],"type":"VEC3"},{"bufferView":0,"byteOffset":1704,"componentType":5126,"count":130,"max":[30.0,20.0,0.0],"min":[0.0,0.0,0.0],"type":"VEC3"},{"bufferView":0,"byteOffset":3264,"componentType":5126,"count":4,"max":[30.0,20.0,6.0],"min":[30.0,0.0,0.0],"type":"VEC3"},{"bufferView":0,"byteOffset":3312,"componentType":5126,"count":254,"max":[22.5,12.499222955002042,6.0],"min":[17.5,7.500777044997953,0.0],"type":"VEC3"},{"bufferView":0,"byteOffset":6360,"componentType":5126,"count":4,"max":[0.0,0.0,6.0],"min":[0.0,-20.0,0.0],"type":"VEC3"},{"bufferView":0,"byteOffset":6408,"componentType":5126,"count":4,"max":[30.0,0.0,6.0],"min":[0.0,0.0,0.0],"type":"VEC3"},{"bufferView":0,"byteOffset":6456,"componentType":5126,"count":130,"max":[30.0,0.0,6.0],"min":[0.0,-20.0,6.0],"type":"VEC3"},{"bufferView":0,"byteOffset":8016,"componentType":5126,"count":4,"max":[30.0,-20.0,6.0],"min":[0.0,-20.0,0.0],"type":"VEC3"},{"bufferView":0,"byteOffset":8064,"componentType":5126,"count":130,"max":[30.0,0.0,0.0],"min":[0.0,-20.0,0.0],"type":"VEC3"},{"bufferView":0,"byteOffset":9624,"componentType":5126,"count":4,"max":[30.0,0.0,6.0],"min":[30.0,-20.0,0.0],"type":"VEC3"},{"bufferView":0,"byteOffset":9672,"componentType":5126,"count":254,"max":[22.5,-7.500777044997953,6.0],"min":[17.5,-12.499222955002042,0.0],"type":"VEC3"},{"bufferView":1,"byteOffset":0,"componentType":5126,"count":4,"type":"VEC3"},{"bufferView":1,"byteOffset":48,"componentType":5126,"count":4,"type":"VEC3"},{"bufferView":1,"byteOffset":96,"componentType":5126,"count":130,"type":"VEC3"},{"bufferView":1,"byteOffset":1656,"componentType":5126,"count":4,"type":"VEC3"},{"bufferView":1,"byteOffset":1704,"componentType":5126,"count":130,"type":"VEC3"},{"bufferView":1,"byteOffset":3264,"componentType":5126,"count":4,"type":"VEC3"},{"bufferView":1,"byteOffset":3312,"componentType":5126,"count":254,"type":"VEC3"},{"bufferView":1,"byteOffset":6360,"componentType":5126,"count":4,"type":"VEC3"},{"bufferView":1,"byteOffset":6408,"componentType":5126,"count":4,"type":"VEC3"},{"bufferView":1,"byteOffset":6456,"componentType":5126,"count":130,"type":"VEC3"},{"bufferView":1,"byteOffset":8016,"componentType":5126,"count":4,"type":"VEC3"},{"bufferView":1,"byteOffset":8064,"componentType":5126,"count":130,"type":"VEC3"},{"bufferView":1,"byteOffset":9624,"componentType":5126,"count":4,"type":"VEC3"},{"bufferView":1,"byteOffset":9672,"componentType":5126,"count":254,"type":"VEC3"},{"bufferView":2,"byteOffset":0,"componentType":5123,"count":6,"type":"SCALAR"},{"bufferView":2,"byteOffset":12,"componentType":5123,"count":6,"type":"SCALAR"},{"bufferView":2,"byteOffset":24,"componentType":5123,"count":390,"type":"SCALAR"},{"bufferView":2,"byteOffset":804,"componentType":5123,"count":6,"type":"SCALAR"},{"bufferView":2,"byteOffset":816,"componentType":5123,"count":390,"type":"SCALAR"},{"bufferView":2,"byteOffset":1596,"componentType":5123,"count":6,"type":"SCALAR"},{"bufferView":2,"byteOffset":1608,"componentType":5123,"count":756,"type":"SCALAR"},{"bufferView":2,"byteOffset":3120,"componentType":5123,"count":6,"type":"SCALAR"},{"bufferView":2,"byteOffset":3132,"componentType":5123,"count":6,"type":"SCALAR"},{"bufferView":2,"byteOffset":3144,"componentType":5123,"count":390,"type":"SCALAR"},{"bufferView":2,"byteOffset":3924,"componentType":5123,"count":6,"type":"SCALAR"},{"bufferView":2,"byteOffset":3936,"componentType":5123,"count":390,"type":"SCALAR"},{"bufferView":2,"byteOffset":4716,"componentType":5123,"count":6,"type":"SCALAR"},{"bufferView":2,"byteOffset":4728,"componentType":5123,"count":756,"type":"SCALAR"}],"asset":{"generator":"Open CASCADE Technology 7.8 [dev.opencascade.org]","version":"2.0"},"bufferViews":[{"buffer":0,"byteLength":12720,"byteOffset":0,"byteStride":12,"target":34962},{"buffer":0,"byteLength":12720,"byteOffset":12720,"byteStride":12,"target":34962},{"buffer":0,"byteLength":6240,"byteOffset":25440,"target":34963}],"buffers":[{"byteLength":31680,"uri":"simetrik_plaka.bin"}],"materials":[{"name":"mat_0","pbrMetallicRoughness":{"baseColorFactor":[0.06124600023031235,0.22322799265384674,0.4564110040664673,1.0]},"doubleSided":true}],"meshes":[{"name":"plaka_part","primitives":[{"attributes":{"NORMAL":14,"POSITION":0},"indices":28,"material":0,"mode":4},{"attributes":{"NORMAL":15,"POSITION":1},"indices":29,"material":0,"mode":4},{"attributes":{"NORMAL":16,"POSITION":2},"indices":30,"material":0,"mode":4},{"attributes":{"NORMAL":17,"POSITION":3},"indices":31,"material":0,"mode":4},{"attributes":{"NORMAL":18,"POSITION":4},"indices":32,"material":0,"mode":4},{"attributes":{"NORMAL":19,"POSITION":5},"indices":33,"material":0,"mode":4},{"attributes":{"NORMAL":20,"POSITION":6},"indices":34,"material":0,"mode":4},{"attributes":{"NORMAL":21,"POSITION":7},"indices":35,"material":0,"mode":4},{"attributes":{"NORMAL":22,"POSITION":8},"indices":36,"material":0,"mode":4},{"attributes":{"NORMAL":23,"POSITION":9},"indices":37,"material":0,"mode":4},{"attributes":{"NORMAL":24,"POSITION":10},"indices":38,"material":0,"mode":4},{"attributes":{"NORMAL":25,"POSITION":11},"indices":39,"material":0,"mode":4},{"attributes":{"NORMAL":26,"POSITION":12},"indices":40,"material":0,"mode":4},{"attributes":{"NORMAL":27,"POSITION":13},"indices":41,"material":0,"mode":4}]}],"nodes":[{"children":[1],"rotation":[-0.7071067811865475,0.0,0.0,0.7071067811865475],"name":"simetrik_plaka"},{"children":[2],"name":"plaka"},{"mesh":0,"name":"plaka_part"}],"scene":0,"scenes":[{"nodes":[0]}]}