{"accessors":[{"bufferView":0,"byteOffset":0,"componentType":5126,"count":27987,"max":[0.029999998707314866,0.085,0.029999996276612102],"min":[-0.029999998367204107,-0.004999724389998218,-0.029999996276537724],"type":"VEC3"},{"bufferView":0,"byteOffset":335844,"componentType":5126,"count":137,"max":[0.02999991062445792,0.005,2.997602166488e-18],"min":[0.020000566988278696,-0.004999724389998218,-2.785405148773803e-18],"type":"VEC3"},{"bufferView":0,"byteOffset":337488,"componentType":5126,"count":137,"max":[0.029999910630179004,0.085,1.2181958175470363e-10],"min":[0.020000566973869052,0.07500027559995466,-1.2183115876995317e-10],"type":"VEC3"},{"bufferView":1,"byteOffset":0,"componentType":5126,"count":27987,"type":"VEC3"},{"bufferView":1,"byteOffset":335844,"componentType":5126,"count":137,"type":"VEC3"},{"bufferView":1,"byteOffset":337488,"componentType":5126,"count":137,"type":"VEC3"},{"bufferView":2,"byteOffset":0,"componentType":5123,"count":164262,"type":"SCALAR"},{"bufferView":2,"byteOffset":328524,"componentType":5123,"count":405,"type":"SCALAR"},{"bufferView":2,"byteOffset":329336,"componentType":5123,"count":405,"type":"SCALAR"}],"asset":{"generator":"Open CASCADE Technology 7.8 [dev.opencascade.org]","version":"2.0"},"bufferViews":[{"buffer":0,"byteLength":339132,"byteOffset":0,"byteStride":12,"target":34962},{"buffer":0,"byteLength":339132,"byteOffset":339132,"byteStride":12,"target":34962},{"buffer":0,"byteLength":330148,"byteOffset":678264,"target":34963}],"buffers":[{"byteLength":1008412,"uri":"solid_heliks_modeli.bin"}],"materials":[{"name":"mat_0","pbrMetallicRoughness":{"baseColorFactor":[0.0,0.5225215554237366,1.0,1.0]},"doubleSided":true}],"meshes":[{"name":"Gövde","primitives":[{"attributes":{"NORMAL":3,"POSITION":0},"indices":6,"material":0,"mode":4},{"attributes":{"NORMAL":4,"POSITION":1},"indices":7,"material":0,"mode":4},{"attributes":{"NORMAL":5,"POSITION":2},"indices":8,"material":0,"mode":4}]}],"nodes":[{"mesh":0,"name":"Gövde"}],"scene":0,"scenes":[{"nodes":[0]}]}