{"accessors":[{"bufferView":0,"byteOffset":0,"componentType":5126,"count":380,"max":[0.05,0.006,0.0],"min":[0.0,0.0,-0.021101017493739636],"type":"VEC3"},{"bufferView":0,"byteOffset":4560,"componentType":5126,"count":4,"max":[0.05,0.006,0.01],"min":[0.05,0.0,0.0],"type":"VEC3"},{"bufferView":0,"byteOffset":4608,"componentType":5126,"count":4,"max":[0.05,0.006,0.01],"min":[0.0,0.0,0.01],"type":"VEC3"},{"bufferView":0,"byteOffset":4656,"componentType":5126,"count":4,"max":[0.0,0.006,0.01],"min":[0.0,0.0,0.0],"type":"VEC3"},{"bufferView":0,"byteOffset":4704,"componentType":5126,"count":126,"max":[0.05,0.0,0.01],"min":[0.0,0.0,-0.021101017493739636],"type":"VEC3"},{"bufferView":0,"byteOffset":6216,"componentType":5126,"count":126,"max":[0.05,0.006,0.01],"min":[0.0,0.006,-0.021101017493739636],"type":"VEC3"},{"bufferView":1,"byteOffset":0,"componentType":5126,"count":380,"type":"VEC3"},{"bufferView":1,"byteOffset":4560,"componentType":5126,"count":4,"type":"VEC3"},{"bufferView":1,"byteOffset":4608,"componentType":5126,"count":4,"type":"VEC3"},{"bufferView":1,"byteOffset":4656,"componentType":5126,"count":4,"type":"VEC3"},{"bufferView":1,"byteOffset":4704,"componentType":5126,"count":126,"type":"VEC3"},{"bufferView":1,"byteOffset":6216,"componentType":5126,"count":126,"type":"VEC3"},{"bufferView":2,"byteOffset":0,"componentType":5123,"count":1530,"type":"SCALAR"},{"bufferView":2,"byteOffset":3060,"componentType":5123,"count":6,"type":"SCALAR"},{"bufferView":2,"byteOffset":3072,"componentType":5123,"count":6,"type":"SCALAR"},{"bufferView":2,"byteOffset":3084,"componentType":5123,"count":6,"type":"SCALAR"},{"bufferView":2,"byteOffset":3096,"componentType":5123,"count":372,"type":"SCALAR"},{"bufferView":2,"byteOffset":3840,"componentType":5123,"count":372,"type":"SCALAR"}],"asset":{"generator":"Open CASCADE Technology 7.8 [dev.opencascade.org]","version":"2.0"},"bufferViews":[{"buffer":0,"byteLength":7728,"byteOffset":0,"byteStride":12,"target":34962},{"buffer":0,"byteLength":7728,"byteOffset":7728,"byteStride":12,"target":34962},{"buffer":0,"byteLength":4584,"byteOffset":15456,"target":34963}],"buffers":[{"byteLength":20040,"uri":"spline.bin"}],"materials":[{"name":"mat_0","pbrMetallicRoughness":{"baseColorFactor":[0.0,0.5225215554237366,1.0,1.0]},"doubleSided":true}],"meshes":[{"name":"Gövde","primitives":[{"attributes":{"NORMAL":6,"POSITION":0},"indices":12,"material":0,"mode":4},{"attributes":{"NORMAL":7,"POSITION":1},"indices":13,"material":0,"mode":4},{"attributes":{"NORMAL":8,"POSITION":2},"indices":14,"material":0,"mode":4},{"attributes":{"NORMAL":9,"POSITION":3},"indices":15,"material":0,"mode":4},{"attributes":{"NORMAL":10,"POSITION":4},"indices":16,"material":0,"mode":4},{"attributes":{"NORMAL":11,"POSITION":5},"indices":17,"material":0,"mode":4}]}],"nodes":[{"mesh":0,"name":"Gövde"}],"scene":0,"scenes":[{"nodes":[0]}]}