{"accessors":[{"bufferView":0,"byteOffset":0,"componentType":5126,"count":4,"max":[0.045,0.01,0.05],"min":[-0.045,0.0,0.05],"type":"VEC3"},{"bufferView":0,"byteOffset":48,"componentType":5126,"count":240,"max":[0.06,0.01,0.06],"min":[-0.06,0.01,-0.06],"type":"VEC3"},{"bufferView":0,"byteOffset":2928,"componentType":5126,"count":4,"max":[0.045,0.025,0.06],"min":[-0.045,0.01,0.06],"type":"VEC3"},{"bufferView":0,"byteOffset":2976,"componentType":5126,"count":4,"max":[0.045,0.035,0.07],"min":[-0.045,0.025,0.06],"type":"VEC3"},{"bufferView":0,"byteOffset":3024,"componentType":5126,"count":4,"max":[0.045,0.035,0.07],"min":[-0.045,0.015,0.07],"type":"VEC3"},{"bufferView":0,"byteOffset":3072,"componentType":5126,"count":240,"max":[0.07,0.015,0.07],"min":[-0.07,0.015,-0.07],"type":"VEC3"},{"bufferView":0,"byteOffset":5952,"componentType":5126,"count":4,"max":[0.045,0.015,0.065],"min":[-0.045,0.01,0.065],"type":"VEC3"},{"bufferView":0,"byteOffset":6000,"componentType":5126,"count":240,"max":[0.07,0.01,0.07],"min":[-0.07,0.01,-0.07],"type":"VEC3"},{"bufferView":0,"byteOffset":8880,"componentType":5126,"count":4,"max":[0.045,0.01,0.07],"min":[-0.045,0.0,0.07],"type":"VEC3"},{"bufferView":0,"byteOffset":8928,"componentType":5126,"count":240,"max":[0.07,0.0,0.07],"min":[-0.07,0.0,-0.07],"type":"VEC3"},{"bufferView":0,"byteOffset":11808,"componentType":5126,"count":60,"max":[0.05,0.01,0.05],"min":[0.045,0.0,0.045],"type":"VEC3"},{"bufferView":0,"byteOffset":12528,"componentType":5126,"count":60,"max":[0.06,0.025,0.06],"min":[0.045,0.01,0.045],"type":"VEC3"},{"bufferView":0,"byteOffset":13248,"componentType":5126,"count":102,"max":[0.07,0.035,0.07],"min":[0.045,0.025,0.045],"type":"VEC3"},{"bufferView":0,"byteOffset":14472,"componentType":5126,"count":60,"max":[0.07,0.035,0.07],"min":[0.045,0.015,0.045],"type":"VEC3"},{"bufferView":0,"byteOffset":15192,"componentType":5126,"count":60,"max":[0.065,0.015,0.065],"min":[0.045,0.01,0.045],"type":"VEC3"},{"bufferView":0,"byteOffset":15912,"componentType":5126,"count":60,"max":[0.07,0.01,0.07],"min":[0.045,0.0,0.045],"type":"VEC3"},{"bufferView":0,"byteOffset":16632,"componentType":5126,"count":4,"max":[0.05,0.01,0.045],"min":[0.05,0.0,-0.045],"type":"VEC3"},{"bufferView":0,"byteOffset":16680,"componentType":5126,"count":4,"max":[0.06,0.025,0.045],"min":[0.06,0.01,-0.045],"type":"VEC3"},{"bufferView":0,"byteOffset":16728,"componentType":5126,"count":4,"max":[0.07,0.035,0.045],"min":[0.06,0.025,-0.045],"type":"VEC3"},{"bufferView":0,"byteOffset":16776,"componentType":5126,"count":4,"max":[0.07,0.035,0.045],"min":[0.07,0.015,-0.045],"type":"VEC3"},{"bufferView":0,"byteOffset":16824,"componentType":5126,"count":4,"max":[0.065,0.015,0.045],"min":[0.065,0.01,-0.045],"type":"VEC3"},{"bufferView":0,"byteOffset":16872,"componentType":5126,"count":4,"max":[0.07,0.01,0.045],"min":[0.07,0.0,-0.045],"type":"VEC3"},{"bufferView":0,"byteOffset":16920,"componentType":5126,"count":60,"max":[0.05,0.01,-0.045],"min":[0.045,0.0,-0.05],"type":"VEC3"},{"bufferView":0,"byteOffset":17640,"componentType":5126,"count":60,"max":[0.06,0.025,-0.045],"min":[0.045,0.01,-0.06],"type":"VEC3"},{"bufferView":0,"byteOffset":18360,"componentType":5126,"count":102,"max":[0.07,0.035,-0.045],"min":[0.045,0.025,-0.07],"type":"VEC3"},{"bufferView":0,"byteOffset":19584,"componentType":5126,"count":60,"max":[0.07,0.035,-0.045],"min":[0.045,0.015,-0.07],"type":"VEC3"},{"bufferView":0,"byteOffset":20304,"componentType":5126,"count":60,"max":[0.065,0.015,-0.045],"min":[0.045,0.01,-0.065],"type":"VEC3"},{"bufferView":0,"byteOffset":21024,"componentType":5126,"count":60,"max":[0.07,0.01,-0.045],"min":[0.045,0.0,-0.07],"type":"VEC3"},{"bufferView":0,"byteOffset":21744,"componentType":5126,"count":4,"max":[0.045,0.01,-0.05],"min":[-0.045,0.0,-0.05],"type":"VEC3"},{"bufferView":0,"byteOffset":21792,"componentType":5126,"count":4,"max":[0.045,0.025,-0.06],"min":[-0.045,0.01,-0.06],"type":"VEC3"},{"bufferView":0,"byteOffset":21840,"componentType":5126,"count":4,"max":[0.045,0.035,-0.06],"min":[-0.045,0.025,-0.07],"type":"VEC3"},{"bufferView":0,"byteOffset":21888,"componentType":5126,"count":4,"max":[0.045,0.035,-0.07],"min":[-0.045,0.015,-0.07],"type":"VEC3"},{"bufferView":0,"byteOffset":21936,"componentType":5126,"count":4,"max":[0.045,0.015,-0.065],"min":[-0.045,0.01,-0.065],"type":"VEC3"},{"bufferView":0,"byteOffset":21984,"componentType":5126,"count":4,"max":[0.045,0.01,-0.07],"min":[-0.045,0.0,-0.07],"type":"VEC3"},{"bufferView":0,"byteOffset":22032,"componentType":5126,"count":60,"max":[-0.045,0.01,-0.045],"min":[-0.05,0.0,-0.05],"type":"VEC3"},{"bufferView":0,"byteOffset":22752,"componentType":5126,"count":60,"max":[-0.045,0.025,-0.045],"min":[-0.06,0.01,-0.06],"type":"VEC3"},{"bufferView":0,"byteOffset":23472,"componentType":5126,"count":102,"max":[-0.045,0.035,-0.045],"min":[-0.07,0.025,-0.07],"type":"VEC3"},{"bufferView":0,"byteOffset":24696,"componentType":5126,"count":60,"max":[-0.045,0.035,-0.045],"min":[-0.07,0.015,-0.07],"type":"VEC3"},{"bufferView":0,"byteOffset":25416,"componentType":5126,"count":60,"max":[-0.045,0.015,-0.045],"min":[-0.065,0.01,-0.065],"type":"VEC3"},{"bufferView":0,"byteOffset":26136,"componentType":5126,"count":60,"max":[-0.045,0.01,-0.045],"min":[-0.07,0.0,-0.07],"type":"VEC3"},{"bufferView":0,"byteOffset":26856,"componentType":5126,"count":4,"max":[-0.05,0.01,0.045],"min":[-0.05,0.0,-0.045],"type":"VEC3"},{"bufferView":0,"byteOffset":26904,"componentType":5126,"count":4,"max":[-0.06,0.025,0.045],"min":[-0.06,0.01,-0.045],"type":"VEC3"},{"bufferView":0,"byteOffset":26952,"componentType":5126,"count":4,"max":[-0.06,0.035,0.045],"min":[-0.07,0.025,-0.045],"type":"VEC3"},{"bufferView":0,"byteOffset":27000,"componentType":5126,"count":4,"max":[-0.07,0.035,0.045],"min":[-0.07,0.015,-0.045],"type":"VEC3"},{"bufferView":0,"byteOffset":27048,"componentType":5126,"count":4,"max":[-0.065,0.015,0.045],"min":[-0.065,0.01,-0.045],"type":"VEC3"},{"bufferView":0,"byteOffset":27096,"componentType":5126,"count":4,"max":[-0.07,0.01,0.045],"min":[-0.07,0.0,-0.045],"type":"VEC3"},{"bufferView":0,"byteOffset":27144,"componentType":5126,"count":60,"max":[-0.045,0.01,0.05],"min":[-0.05,0.0,0.045],"type":"VEC3"},{"bufferView":0,"byteOffset":27864,"componentType":5126,"count":60,"max":[-0.045,0.025,0.06],"min":[-0.06,0.01,0.045],"type":"VEC3"},{"bufferView":0,"byteOffset":28584,"componentType":5126,"count":102,"max":[-0.045,0.035,0.07],"min":[-0.07,0.025,0.045],"type":"VEC3"},{"bufferView":0,"byteOffset":29808,"componentType":5126,"count":60,"max":[-0.045,0.035,0.07],"min":[-0.07,0.015,0.045],"type":"VEC3"},{"bufferView":0,"byteOffset":30528,"componentType":5126,"count":60,"max":[-0.045,0.015,0.065],"min":[-0.065,0.01,0.045],"type":"VEC3"},{"bufferView":0,"byteOffset":31248,"componentType":5126,"count":60,"max":[-0.045,0.01,0.07],"min":[-0.07,0.0,0.045],"type":"VEC3"},{"bufferView":1,"byteOffset":0,"componentType":5126,"count":4,"type":"VEC3"},{"bufferView":1,"byteOffset":48,"componentType":5126,"count":240,"type":"VEC3"},{"bufferView":1,"byteOffset":2928,"componentType":5126,"count":4,"type":"VEC3"},{"bufferView":1,"byteOffset":2976,"componentType":5126,"count":4,"type":"VEC3"},{"bufferView":1,"byteOffset":3024,"componentType":5126,"count":4,"type":"VEC3"},{"bufferView":1,"byteOffset":3072,"componentType":5126,"count":240,"type":"VEC3"},{"bufferView":1,"byteOffset":5952,"componentType":5126,"count":4,"type":"VEC3"},{"bufferView":1,"byteOffset":6000,"componentType":5126,"count":240,"type":"VEC3"},{"bufferView":1,"byteOffset":8880,"componentType":5126,"count":4,"type":"VEC3"},{"bufferView":1,"byteOffset":8928,"componentType":5126,"count":240,"type":"VEC3"},{"bufferView":1,"byteOffset":11808,"componentType":5126,"count":60,"type":"VEC3"},{"bufferView":1,"byteOffset":12528,"componentType":5126,"count":60,"type":"VEC3"},{"bufferView":1,"byteOffset":13248,"componentType":5126,"count":102,"type":"VEC3"},{"bufferView":1,"byteOffset":14472,"componentType":5126,"count":60,"type":"VEC3"},{"bufferView":1,"byteOffset":15192,"componentType":5126,"count":60,"type":"VEC3"},{"bufferView":1,"byteOffset":15912,"componentType":5126,"count":60,"type":"VEC3"},{"bufferView":1,"byteOffset":16632,"componentType":5126,"count":4,"type":"VEC3"},{"bufferView":1,"byteOffset":16680,"componentType":5126,"count":4,"type":"VEC3"},{"bufferView":1,"byteOffset":16728,"componentType":5126,"count":4,"type":"VEC3"},{"bufferView":1,"byteOffset":16776,"componentType":5126,"count":4,"type":"VEC3"},{"bufferView":1,"byteOffset":16824,"componentType":5126,"count":4,"type":"VEC3"},{"bufferView":1,"byteOffset":16872,"componentType":5126,"count":4,"type":"VEC3"},{"bufferView":1,"byteOffset":16920,"componentType":5126,"count":60,"type":"VEC3"},{"bufferView":1,"byteOffset":17640,"componentType":5126,"count":60,"type":"VEC3"},{"bufferView":1,"byteOffset":18360,"componentType":5126,"count":102,"type":"VEC3"},{"bufferView":1,"byteOffset":19584,"componentType":5126,"count":60,"type":"VEC3"},{"bufferView":1,"byteOffset":20304,"componentType":5126,"count":60,"type":"VEC3"},{"bufferView":1,"byteOffset":21024,"componentType":5126,"count":60,"type":"VEC3"},{"bufferView":1,"byteOffset":21744,"componentType":5126,"count":4,"type":"VEC3"},{"bufferView":1,"byteOffset":21792,"componentType":5126,"count":4,"type":"VEC3"},{"bufferView":1,"byteOffset":21840,"componentType":5126,"count":4,"type":"VEC3"},{"bufferView":1,"byteOffset":21888,"componentType":5126,"count":4,"type":"VEC3"},{"bufferView":1,"byteOffset":21936,"componentType":5126,"count":4,"type":"VEC3"},{"bufferView":1,"byteOffset":21984,"componentType":5126,"count":4,"type":"VEC3"},{"bufferView":1,"byteOffset":22032,"componentType":5126,"count":60,"type":"VEC3"},{"bufferView":1,"byteOffset":22752,"componentType":5126,"count":60,"type":"VEC3"},{"bufferView":1,"byteOffset":23472,"componentType":5126,"count":102,"type":"VEC3"},{"bufferView":1,"byteOffset":24696,"componentType":5126,"count":60,"type":"VEC3"},{"bufferView":1,"byteOffset":25416,"componentType":5126,"count":60,"type":"VEC3"},{"bufferView":1,"byteOffset":26136,"componentType":5126,"count":60,"type":"VEC3"},{"bufferView":1,"byteOffset":26856,"componentType":5126,"count":4,"type":"VEC3"},{"bufferView":1,"byteOffset":26904,"componentType":5126,"count":4,"type":"VEC3"},{"bufferView":1,"byteOffset":26952,"componentType":5126,"count":4,"type":"VEC3"},{"bufferView":1,"byteOffset":27000,"componentType":5126,"count":4,"type":"VEC3"},{"bufferView":1,"byteOffset":27048,"componentType":5126,"count":4,"type":"VEC3"},{"bufferView":1,"byteOffset":27096,"componentType":5126,"count":4,"type":"VEC3"},{"bufferView":1,"byteOffset":27144,"componentType":5126,"count":60,"type":"VEC3"},{"bufferView":1,"byteOffset":27864,"componentType":5126,"count":60,"type":"VEC3"},{"bufferView":1,"byteOffset":28584,"componentType":5126,"count":102,"type":"VEC3"},{"bufferView":1,"byteOffset":29808,"componentType":5126,"count":60,"type":"VEC3"},{"bufferView":1,"byteOffset":30528,"componentType":5126,"count":60,"type":"VEC3"},{"bufferView":1,"byteOffset":31248,"componentType":5126,"count":60,"type":"VEC3"},{"bufferView":2,"byteOffset":0,"componentType":5123,"count":6,"type":"SCALAR"},{"bufferView":2,"byteOffset":12,"componentType":5123,"count":720,"type":"SCALAR"},{"bufferView":2,"byteOffset":1452,"componentType":5123,"count":6,"type":"SCALAR"},{"bufferView":2,"byteOffset":1464,"componentType":5123,"count":6,"type":"SCALAR"},{"bufferView":2,"byteOffset":1476,"componentType":5123,"count":6,"type":"SCALAR"},{"bufferView":2,"byteOffset":1488,"componentType":5123,"count":720,"type":"SCALAR"},{"bufferView":2,"byteOffset":2928,"componentType":5123,"count":6,"type":"SCALAR"},{"bufferView":2,"byteOffset":2940,"componentType":5123,"count":720,"type":"SCALAR"},{"bufferView":2,"byteOffset":4380,"componentType":5123,"count":6,"type":"SCALAR"},{"bufferView":2,"byteOffset":4392,"componentType":5123,"count":720,"type":"SCALAR"},{"bufferView":2,"byteOffset":5832,"componentType":5123,"count":174,"type":"SCALAR"},{"bufferView":2,"byteOffset":6180,"componentType":5123,"count":174,"type":"SCALAR"},{"bufferView":2,"byteOffset":6528,"componentType":5123,"count":426,"type":"SCALAR"},{"bufferView":2,"byteOffset":7380,"componentType":5123,"count":174,"type":"SCALAR"},{"bufferView":2,"byteOffset":7728,"componentType":5123,"count":174,"type":"SCALAR"},{"bufferView":2,"byteOffset":8076,"componentType":5123,"count":174,"type":"SCALAR"},{"bufferView":2,"byteOffset":8424,"componentType":5123,"count":6,"type":"SCALAR"},{"bufferView":2,"byteOffset":8436,"componentType":5123,"count":6,"type":"SCALAR"},{"bufferView":2,"byteOffset":8448,"componentType":5123,"count":6,"type":"SCALAR"},{"bufferView":2,"byteOffset":8460,"componentType":5123,"count":6,"type":"SCALAR"},{"bufferView":2,"byteOffset":8472,"componentType":5123,"count":6,"type":"SCALAR"},{"bufferView":2,"byteOffset":8484,"componentType":5123,"count":6,"type":"SCALAR"},{"bufferView":2,"byteOffset":8496,"componentType":5123,"count":174,"type":"SCALAR"},{"bufferView":2,"byteOffset":8844,"componentType":5123,"count":174,"type":"SCALAR"},{"bufferView":2,"byteOffset":9192,"componentType":5123,"count":426,"type":"SCALAR"},{"bufferView":2,"byteOffset":10044,"componentType":5123,"count":174,"type":"SCALAR"},{"bufferView":2,"byteOffset":10392,"componentType":5123,"count":174,"type":"SCALAR"},{"bufferView":2,"byteOffset":10740,"componentType":5123,"count":174,"type":"SCALAR"},{"bufferView":2,"byteOffset":11088,"componentType":5123,"count":6,"type":"SCALAR"},{"bufferView":2,"byteOffset":11100,"componentType":5123,"count":6,"type":"SCALAR"},{"bufferView":2,"byteOffset":11112,"componentType":5123,"count":6,"type":"SCALAR"},{"bufferView":2,"byteOffset":11124,"componentType":5123,"count":6,"type":"SCALAR"},{"bufferView":2,"byteOffset":11136,"componentType":5123,"count":6,"type":"SCALAR"},{"bufferView":2,"byteOffset":11148,"componentType":5123,"count":6,"type":"SCALAR"},{"bufferView":2,"byteOffset":11160,"componentType":5123,"count":174,"type":"SCALAR"},{"bufferView":2,"byteOffset":11508,"componentType":5123,"count":174,"type":"SCALAR"},{"bufferView":2,"byteOffset":11856,"componentType":5123,"count":426,"type":"SCALAR"},{"bufferView":2,"byteOffset":12708,"componentType":5123,"count":174,"type":"SCALAR"},{"bufferView":2,"byteOffset":13056,"componentType":5123,"count":174,"type":"SCALAR"},{"bufferView":2,"byteOffset":13404,"componentType":5123,"count":174,"type":"SCALAR"},{"bufferView":2,"byteOffset":13752,"componentType":5123,"count":6,"type":"SCALAR"},{"bufferView":2,"byteOffset":13764,"componentType":5123,"count":6,"type":"SCALAR"},{"bufferView":2,"byteOffset":13776,"componentType":5123,"count":6,"type":"SCALAR"},{"bufferView":2,"byteOffset":13788,"componentType":5123,"count":6,"type":"SCALAR"},{"bufferView":2,"byteOffset":13800,"componentType":5123,"count":6,"type":"SCALAR"},{"bufferView":2,"byteOffset":13812,"componentType":5123,"count":6,"type":"SCALAR"},{"bufferView":2,"byteOffset":13824,"componentType":5123,"count":174,"type":"SCALAR"},{"bufferView":2,"byteOffset":14172,"componentType":5123,"count":174,"type":"SCALAR"},{"bufferView":2,"byteOffset":14520,"componentType":5123,"count":426,"type":"SCALAR"},{"bufferView":2,"byteOffset":15372,"componentType":5123,"count":174,"type":"SCALAR"},{"bufferView":2,"byteOffset":15720,"componentType":5123,"count":174,"type":"SCALAR"},{"bufferView":2,"byteOffset":16068,"componentType":5123,"count":174,"type":"SCALAR"}],"asset":{"generator":"Open CASCADE Technology 7.8 [dev.opencascade.org]","version":"2.0"},"bufferViews":[{"buffer":0,"byteLength":31968,"byteOffset":0,"byteStride":12,"target":34962},{"buffer":0,"byteLength":31968,"byteOffset":31968,"byteStride":12,"target":34962},{"buffer":0,"byteLength":16416,"byteOffset":63936,"target":34963}],"buffers":[{"byteLength":80352,"uri":"sweep-cerceve.bin"}],"materials":[{"name":"mat_0","pbrMetallicRoughness":{"baseColorFactor":[0.0,0.5225215554237366,1.0,1.0]},"doubleSided":true}],"meshes":[{"name":"Gövde","primitives":[{"attributes":{"NORMAL":52,"POSITION":0},"indices":104,"material":0,"mode":4},{"attributes":{"NORMAL":53,"POSITION":1},"indices":105,"material":0,"mode":4},{"attributes":{"NORMAL":54,"POSITION":2},"indices":106,"material":0,"mode":4},{"attributes":{"NORMAL":55,"POSITION":3},"indices":107,"material":0,"mode":4},{"attributes":{"NORMAL":56,"POSITION":4},"indices":108,"material":0,"mode":4},{"attributes":{"NORMAL":57,"POSITION":5},"indices":109,"material":0,"mode":4},{"attributes":{"NORMAL":58,"POSITION":6},"indices":110,"material":0,"mode":4},{"attributes":{"NORMAL":59,"POSITION":7},"indices":111,"material":0,"mode":4},{"attributes":{"NORMAL":60,"POSITION":8},"indices":112,"material":0,"mode":4},{"attributes":{"NORMAL":61,"POSITION":9},"indices":113,"material":0,"mode":4},{"attributes":{"NORMAL":62,"POSITION":10},"indices":114,"material":0,"mode":4},{"attributes":{"NORMAL":63,"POSITION":11},"indices":115,"material":0,"mode":4},{"attributes":{"NORMAL":64,"POSITION":12},"indices":116,"material":0,"mode":4},{"attributes":{"NORMAL":65,"POSITION":13},"indices":117,"material":0,"mode":4},{"attributes":{"NORMAL":66,"POSITION":14},"indices":118,"material":0,"mode":4},{"attributes":{"NORMAL":67,"POSITION":15},"indices":119,"material":0,"mode":4},{"attributes":{"NORMAL":68,"POSITION":16},"indices":120,"material":0,"mode":4},{"attributes":{"NORMAL":69,"POSITION":17},"indices":121,"material":0,"mode":4},{"attributes":{"NORMAL":70,"POSITION":18},"indices":122,"material":0,"mode":4},{"attributes":{"NORMAL":71,"POSITION":19},"indices":123,"material":0,"mode":4},{"attributes":{"NORMAL":72,"POSITION":20},"indices":124,"material":0,"mode":4},{"attributes":{"NORMAL":73,"POSITION":21},"indices":125,"material":0,"mode":4},{"attributes":{"NORMAL":74,"POSITION":22},"indices":126,"material":0,"mode":4},{"attributes":{"NORMAL":75,"POSITION":23},"indices":127,"material":0,"mode":4},{"attributes":{"NORMAL":76,"POSITION":24},"indices":128,"material":0,"mode":4},{"attributes":{"NORMAL":77,"POSITION":25},"indices":129,"material":0,"mode":4},{"attributes":{"NORMAL":78,"POSITION":26},"indices":130,"material":0,"mode":4},{"attributes":{"NORMAL":79,"POSITION":27},"indices":131,"material":0,"mode":4},{"attributes":{"NORMAL":80,"POSITION":28},"indices":132,"material":0,"mode":4},{"attributes":{"NORMAL":81,"POSITION":29},"indices":133,"material":0,"mode":4},{"attributes":{"NORMAL":82,"POSITION":30},"indices":134,"material":0,"mode":4},{"attributes":{"NORMAL":83,"POSITION":31},"indices":135,"material":0,"mode":4},{"attributes":{"NORMAL":84,"POSITION":32},"indices":136,"material":0,"mode":4},{"attributes":{"NORMAL":85,"POSITION":33},"indices":137,"material":0,"mode":4},{"attributes":{"NORMAL":86,"POSITION":34},"indices":138,"material":0,"mode":4},{"attributes":{"NORMAL":87,"POSITION":35},"indices":139,"material":0,"mode":4},{"attributes":{"NORMAL":88,"POSITION":36},"indices":140,"material":0,"mode":4},{"attributes":{"NORMAL":89,"POSITION":37},"indices":141,"material":0,"mode":4},{"attributes":{"NORMAL":90,"POSITION":38},"indices":142,"material":0,"mode":4},{"attributes":{"NORMAL":91,"POSITION":39},"indices":143,"material":0,"mode":4},{"attributes":{"NORMAL":92,"POSITION":40},"indices":144,"material":0,"mode":4},{"attributes":{"NORMAL":93,"POSITION":41},"indices":145,"material":0,"mode":4},{"attributes":{"NORMAL":94,"POSITION":42},"indices":146,"material":0,"mode":4},{"attributes":{"NORMAL":95,"POSITION":43},"indices":147,"material":0,"mode":4},{"attributes":{"NORMAL":96,"POSITION":44},"indices":148,"material":0,"mode":4},{"attributes":{"NORMAL":97,"POSITION":45},"indices":149,"material":0,"mode":4},{"attributes":{"NORMAL":98,"POSITION":46},"indices":150,"material":0,"mode":4},{"attributes":{"NORMAL":99,"POSITION":47},"indices":151,"material":0,"mode":4},{"attributes":{"NORMAL":100,"POSITION":48},"indices":152,"material":0,"mode":4},{"attributes":{"NORMAL":101,"POSITION":49},"indices":153,"material":0,"mode":4},{"attributes":{"NORMAL":102,"POSITION":50},"indices":154,"material":0,"mode":4},{"attributes":{"NORMAL":103,"POSITION":51},"indices":155,"material":0,"mode":4}]}],"nodes":[{"mesh":0,"name":"Gövde"}],"scene":0,"scenes":[{"nodes":[0]}]}