{"accessors":[{"bufferView":0,"byteOffset":0,"componentType":5126,"count":456,"max":[-0.005,0.0025,0.005],"min":[-0.005,-0.0025,-0.005],"type":"VEC3"},{"bufferView":0,"byteOffset":5472,"componentType":5126,"count":4,"max":[0.005,0.0025,0.005],"min":[-0.005,-0.0025,0.005],"type":"VEC3"},{"bufferView":0,"byteOffset":5520,"componentType":5126,"count":4,"max":[0.005,0.0025,0.005],"min":[-0.005,0.0025,-0.005],"type":"VEC3"},{"bufferView":0,"byteOffset":5568,"componentType":5126,"count":4,"max":[0.005,-0.0025,0.005],"min":[-0.005,-0.0025,-0.005],"type":"VEC3"},{"bufferView":0,"byteOffset":5616,"componentType":5126,"count":4,"max":[0.005,0.0025,-0.005],"min":[-0.005,-0.0025,-0.005],"type":"VEC3"},{"bufferView":0,"byteOffset":5664,"componentType":5126,"count":228,"max":[0.005,-0.0010000483076468094,-0.001],"min":[-0.005,-0.0019999516923531906,-0.001999806778747277],"type":"VEC3"},{"bufferView":0,"byteOffset":8400,"componentType":5126,"count":228,"max":[0.005,0.0019999516923531906,-0.001],"min":[-0.005,0.0010000483076468094,-0.001999806778747277],"type":"VEC3"},{"bufferView":0,"byteOffset":11136,"componentType":5126,"count":228,"max":[0.005,-0.0010000483076468094,0.002],"min":[-0.005,-0.0019999516923531906,0.0010001932212527229],"type":"VEC3"},{"bufferView":0,"byteOffset":13872,"componentType":5126,"count":228,"max":[0.005,0.0019999516923531906,0.002],"min":[-0.005,0.0010000483076468094,0.0010001932212527229],"type":"VEC3"},{"bufferView":0,"byteOffset":16608,"componentType":5126,"count":456,"max":[0.005,0.0025,0.005],"min":[0.005,-0.0025,-0.005],"type":"VEC3"},{"bufferView":1,"byteOffset":0,"componentType":5126,"count":456,"type":"VEC3"},{"bufferView":1,"byteOffset":5472,"componentType":5126,"count":4,"type":"VEC3"},{"bufferView":1,"byteOffset":5520,"componentType":5126,"count":4,"type":"VEC3"},{"bufferView":1,"byteOffset":5568,"componentType":5126,"count":4,"type":"VEC3"},{"bufferView":1,"byteOffset":5616,"componentType":5126,"count":4,"type":"VEC3"},{"bufferView":1,"byteOffset":5664,"componentType":5126,"count":228,"type":"VEC3"},{"bufferView":1,"byteOffset":8400,"componentType":5126,"count":228,"type":"VEC3"},{"bufferView":1,"byteOffset":11136,"componentType":5126,"count":228,"type":"VEC3"},{"bufferView":1,"byteOffset":13872,"componentType":5126,"count":228,"type":"VEC3"},{"bufferView":1,"byteOffset":16608,"componentType":5126,"count":456,"type":"VEC3"},{"bufferView":2,"byteOffset":0,"componentType":5123,"count":1386,"type":"SCALAR"},{"bufferView":2,"byteOffset":2772,"componentType":5123,"count":6,"type":"SCALAR"},{"bufferView":2,"byteOffset":2784,"componentType":5123,"count":6,"type":"SCALAR"},{"bufferView":2,"byteOffset":2796,"componentType":5123,"count":6,"type":"SCALAR"},{"bufferView":2,"byteOffset":2808,"componentType":5123,"count":6,"type":"SCALAR"},{"bufferView":2,"byteOffset":2820,"componentType":5123,"count":678,"type":"SCALAR"},{"bufferView":2,"byteOffset":4176,"componentType":5123,"count":678,"type":"SCALAR"},{"bufferView":2,"byteOffset":5532,"componentType":5123,"count":678,"type":"SCALAR"},{"bufferView":2,"byteOffset":6888,"componentType":5123,"count":678,"type":"SCALAR"},{"bufferView":2,"byteOffset":8244,"componentType":5123,"count":1386,"type":"SCALAR"}],"asset":{"generator":"Open CASCADE Technology 7.8 [dev.opencascade.org]","version":"2.0"},"bufferViews":[{"buffer":0,"byteLength":22080,"byteOffset":0,"byteStride":12,"target":34962},{"buffer":0,"byteLength":22080,"byteOffset":22080,"byteStride":12,"target":34962},{"buffer":0,"byteLength":11016,"byteOffset":44160,"target":34963}],"buffers":[{"byteLength":55176,"uri":"tag_etiketle_secim_islem.bin"}],"materials":[{"name":"mat_0","pbrMetallicRoughness":{"baseColorFactor":[0.0,0.5225215554237366,1.0,1.0]},"doubleSided":true}],"meshes":[{"name":"Gövde","primitives":[{"attributes":{"NORMAL":10,"POSITION":0},"indices":20,"material":0,"mode":4},{"attributes":{"NORMAL":11,"POSITION":1},"indices":21,"material":0,"mode":4},{"attributes":{"NORMAL":12,"POSITION":2},"indices":22,"material":0,"mode":4},{"attributes":{"NORMAL":13,"POSITION":3},"indices":23,"material":0,"mode":4},{"attributes":{"NORMAL":14,"POSITION":4},"indices":24,"material":0,"mode":4},{"attributes":{"NORMAL":15,"POSITION":5},"indices":25,"material":0,"mode":4},{"attributes":{"NORMAL":16,"POSITION":6},"indices":26,"material":0,"mode":4},{"attributes":{"NORMAL":17,"POSITION":7},"indices":27,"material":0,"mode":4},{"attributes":{"NORMAL":18,"POSITION":8},"indices":28,"material":0,"mode":4},{"attributes":{"NORMAL":19,"POSITION":9},"indices":29,"material":0,"mode":4}]}],"nodes":[{"mesh":0,"name":"Gövde"}],"scene":0,"scenes":[{"nodes":[0]}]}