{"accessors":[{"bufferView":0,"byteOffset":0,"componentType":5126,"count":4,"max":[-2.5,2.5,2.5],"min":[-2.5,-2.5,-2.5],"type":"VEC3"},{"bufferView":0,"byteOffset":48,"componentType":5126,"count":4,"max":[2.5,2.5,2.5],"min":[2.5,-2.5,-2.5],"type":"VEC3"},{"bufferView":0,"byteOffset":96,"componentType":5126,"count":4,"max":[2.5,-2.5,2.5],"min":[-2.5,-2.5,-2.5],"type":"VEC3"},{"bufferView":0,"byteOffset":144,"componentType":5126,"count":4,"max":[2.5,2.5,2.5],"min":[-2.5,2.5,-2.5],"type":"VEC3"},{"bufferView":0,"byteOffset":192,"componentType":5126,"count":4,"max":[2.5,2.5,-2.5],"min":[-2.5,-2.5,-2.5],"type":"VEC3"},{"bufferView":0,"byteOffset":240,"componentType":5126,"count":4,"max":[2.5,2.5,2.5],"min":[-2.5,-2.5,2.5],"type":"VEC3"},{"bufferView":0,"byteOffset":288,"componentType":5126,"count":254,"max":[24.99961146240488,14.999611462404875,25.0],"min":[15.000388537595128,5.000388537595127,15.0],"type":"VEC3"},{"bufferView":0,"byteOffset":3336,"componentType":5126,"count":126,"max":[24.99961146240488,14.999611462404875,15.0],"min":[15.000388537595128,5.000388537595127,15.0],"type":"VEC3"},{"bufferView":0,"byteOffset":4848,"componentType":5126,"count":126,"max":[24.99961146240488,14.999611462404875,25.0],"min":[15.000388537595128,5.000388537595127,25.0],"type":"VEC3"},{"bufferView":0,"byteOffset":6360,"componentType":5126,"count":4,"max":[20.000000000000004,10.0,15.1],"min":[9.393398282201787,-0.6066017177982133,15.0],"type":"VEC3"},{"bufferView":0,"byteOffset":6408,"componentType":5126,"count":4,"max":[30.606601717798217,20.606601717798217,15.1],"min":[20.000000000000004,10.0,15.0],"type":"VEC3"},{"bufferView":0,"byteOffset":6456,"componentType":5126,"count":4,"max":[30.606601717798217,10.0,15.1],"min":[20.000000000000004,-0.6066017177982133,15.0],"type":"VEC3"},{"bufferView":0,"byteOffset":6504,"componentType":5126,"count":4,"max":[20.000000000000004,20.606601717798217,15.1],"min":[9.393398282201787,10.0,15.0],"type":"VEC3"},{"bufferView":0,"byteOffset":6552,"componentType":5126,"count":4,"max":[30.606601717798217,20.606601717798217,15.0],"min":[9.393398282201787,-0.6066017177982133,15.0],"type":"VEC3"},{"bufferView":0,"byteOffset":6600,"componentType":5126,"count":4,"max":[30.606601717798217,20.606601717798217,15.1],"min":[9.393398282201787,-0.6066017177982133,15.1],"type":"VEC3"},{"bufferView":1,"byteOffset":0,"componentType":5126,"count":4,"type":"VEC3"},{"bufferView":1,"byteOffset":48,"componentType":5126,"count":4,"type":"VEC3"},{"bufferView":1,"byteOffset":96,"componentType":5126,"count":4,"type":"VEC3"},{"bufferView":1,"byteOffset":144,"componentType":5126,"count":4,"type":"VEC3"},{"bufferView":1,"byteOffset":192,"componentType":5126,"count":4,"type":"VEC3"},{"bufferView":1,"byteOffset":240,"componentType":5126,"count":4,"type":"VEC3"},{"bufferView":1,"byteOffset":288,"componentType":5126,"count":254,"type":"VEC3"},{"bufferView":1,"byteOffset":3336,"componentType":5126,"count":126,"type":"VEC3"},{"bufferView":1,"byteOffset":4848,"componentType":5126,"count":126,"type":"VEC3"},{"bufferView":1,"byteOffset":6360,"componentType":5126,"count":4,"type":"VEC3"},{"bufferView":1,"byteOffset":6408,"componentType":5126,"count":4,"type":"VEC3"},{"bufferView":1,"byteOffset":6456,"componentType":5126,"count":4,"type":"VEC3"},{"bufferView":1,"byteOffset":6504,"componentType":5126,"count":4,"type":"VEC3"},{"bufferView":1,"byteOffset":6552,"componentType":5126,"count":4,"type":"VEC3"},{"bufferView":1,"byteOffset":6600,"componentType":5126,"count":4,"type":"VEC3"},{"bufferView":2,"byteOffset":0,"componentType":5123,"count":6,"type":"SCALAR"},{"bufferView":2,"byteOffset":12,"componentType":5123,"count":6,"type":"SCALAR"},{"bufferView":2,"byteOffset":24,"componentType":5123,"count":6,"type":"SCALAR"},{"bufferView":2,"byteOffset":36,"componentType":5123,"count":6,"type":"SCALAR"},{"bufferView":2,"byteOffset":48,"componentType":5123,"count":6,"type":"SCALAR"},{"bufferView":2,"byteOffset":60,"componentType":5123,"count":6,"type":"SCALAR"},{"bufferView":2,"byteOffset":72,"componentType":5123,"count":756,"type":"SCALAR"},{"bufferView":2,"byteOffset":1584,"componentType":5123,"count":372,"type":"SCALAR"},{"bufferView":2,"byteOffset":2328,"componentType":5123,"count":372,"type":"SCALAR"},{"bufferView":2,"byteOffset":3072,"componentType":5123,"count":6,"type":"SCALAR"},{"bufferView":2,"byteOffset":3084,"componentType":5123,"count":6,"type":"SCALAR"},{"bufferView":2,"byteOffset":3096,"componentType":5123,"count":6,"type":"SCALAR"},{"bufferView":2,"byteOffset":3108,"componentType":5123,"count":6,"type":"SCALAR"},{"bufferView":2,"byteOffset":3120,"componentType":5123,"count":6,"type":"SCALAR"},{"bufferView":2,"byteOffset":3132,"componentType":5123,"count":6,"type":"SCALAR"}],"asset":{"generator":"Open CASCADE Technology 7.8 [dev.opencascade.org]","version":"2.0"},"bufferViews":[{"buffer":0,"byteLength":6648,"byteOffset":0,"byteStride":12,"target":34962},{"buffer":0,"byteLength":6648,"byteOffset":6648,"byteStride":12,"target":34962},{"buffer":0,"byteLength":3144,"byteOffset":13296,"target":34963}],"buffers":[{"byteLength":16440,"uri":"transformed_workplane_assembly.bin"}],"materials":[{"name":"mat_0","pbrMetallicRoughness":{"baseColorFactor":[0.527114987373352,0.527114987373352,0.527114987373352,1.0]},"doubleSided":true},{"name":"mat_1","pbrMetallicRoughness":{"baseColorFactor":[0.0,0.0,1.0,1.0]},"doubleSided":true},{"name":"mat_2","pbrMetallicRoughness":{"baseColorFactor":[0.800000011920929,0.800000011920929,0.20000000298023224,0.30000001192092896],"metallicFactor":0.0},"doubleSided":true,"alphaMode":"BLEND"}],"meshes":[{"name":"reference_origin_box_part","primitives":[{"attributes":{"NORMAL":15,"POSITION":0},"indices":30,"material":0,"mode":4},{"attributes":{"NORMAL":16,"POSITION":1},"indices":31,"material":0,"mode":4},{"attributes":{"NORMAL":17,"POSITION":2},"indices":32,"material":0,"mode":4},{"attributes":{"NORMAL":18,"POSITION":3},"indices":33,"material":0,"mode":4},{"attributes":{"NORMAL":19,"POSITION":4},"indices":34,"material":0,"mode":4},{"attributes":{"NORMAL":20,"POSITION":5},"indices":35,"material":0,"mode":4}]},{"name":"transformed_cylinder_part","primitives":[{"attributes":{"NORMAL":21,"POSITION":6},"indices":36,"material":1,"mode":4},{"attributes":{"NORMAL":22,"POSITION":7},"indices":37,"material":1,"mode":4},{"attributes":{"NORMAL":23,"POSITION":8},"indices":38,"material":1,"mode":4}]},{"name":"transformed_plane_visualization_part","primitives":[{"attributes":{"NORMAL":24,"POSITION":9},"indices":39,"material":2,"mode":4},{"attributes":{"NORMAL":25,"POSITION":10},"indices":40,"material":2,"mode":4},{"attributes":{"NORMAL":26,"POSITION":11},"indices":41,"material":2,"mode":4},{"attributes":{"NORMAL":27,"POSITION":12},"indices":42,"material":2,"mode":4},{"attributes":{"NORMAL":28,"POSITION":13},"indices":43,"material":2,"mode":4},{"attributes":{"NORMAL":29,"POSITION":14},"indices":44,"material":2,"mode":4}]}],"nodes":[{"children":[1,3,5],"rotation":[-0.7071067811865475,0.0,0.0,0.7071067811865475],"name":"73428648-3434-11f0-8198-78af08feb68a"},{"children":[2],"name":"reference_origin_box"},{"mesh":0,"name":"reference_origin_box_part"},{"children":[4],"name":"transformed_cylinder"},{"mesh":1,"name":"transformed_cylinder_part"},{"children":[6],"name":"transformed_plane_visualization"},{"mesh":2,"name":"transformed_plane_visualization_part"}],"scene":0,"scenes":[{"nodes":[0]}]}