{"accessors":[{"bufferView":0,"byteOffset":0,"componentType":5126,"count":228,"max":[-0.018000000000000002,0.01,0.016999806769412762],"min":[-0.021999227114989108,7.067899292141e-20,0.013000193230587239],"type":"VEC3"},{"bufferView":0,"byteOffset":2736,"componentType":5126,"count":113,"max":[-0.018000000000000002,7.067899292141e-20,0.016999806769412762],"min":[-0.021999227114989108,7.067899292141e-20,0.013000193230587239],"type":"VEC3"},{"bufferView":0,"byteOffset":4092,"componentType":5126,"count":113,"max":[-0.018000000000000002,0.01,0.016999806769412762],"min":[-0.021999227114989108,0.01,0.013000193230587239],"type":"VEC3"},{"bufferView":0,"byteOffset":5448,"componentType":5126,"count":228,"max":[0.022,0.01,0.016999806769412762],"min":[0.018000772885010893,7.067899292141e-20,0.013000193230587239],"type":"VEC3"},{"bufferView":0,"byteOffset":8184,"componentType":5126,"count":113,"max":[0.022,7.067899292141e-20,0.016999806769412762],"min":[0.018000772885010893,7.067899292141e-20,0.013000193230587239],"type":"VEC3"},{"bufferView":0,"byteOffset":9540,"componentType":5126,"count":113,"max":[0.022,0.01,0.016999806769412762],"min":[0.018000772885010893,0.01,0.013000193230587239],"type":"VEC3"},{"bufferView":0,"byteOffset":10896,"componentType":5126,"count":228,"max":[-0.018000000000000002,0.01,-0.013000193230587239],"min":[-0.021999227114989108,7.067899292141e-20,-0.016999806769412762],"type":"VEC3"},{"bufferView":0,"byteOffset":13632,"componentType":5126,"count":113,"max":[-0.018000000000000002,7.067899292141e-20,-0.013000193230587239],"min":[-0.021999227114989108,7.067899292141e-20,-0.016999806769412762],"type":"VEC3"},{"bufferView":0,"byteOffset":14988,"componentType":5126,"count":113,"max":[-0.018000000000000002,0.01,-0.013000193230587239],"min":[-0.021999227114989108,0.01,-0.016999806769412762],"type":"VEC3"},{"bufferView":0,"byteOffset":16344,"componentType":5126,"count":228,"max":[0.022,0.01,-0.013000193230587239],"min":[0.018000772885010893,7.067899292141e-20,-0.016999806769412762],"type":"VEC3"},{"bufferView":0,"byteOffset":19080,"componentType":5126,"count":113,"max":[0.022,7.067899292141e-20,-0.013000193230587239],"min":[0.018000772885010893,7.067899292141e-20,-0.016999806769412762],"type":"VEC3"},{"bufferView":0,"byteOffset":20436,"componentType":5126,"count":113,"max":[0.022,0.01,-0.013000193230587239],"min":[0.018000772885010893,0.01,-0.016999806769412762],"type":"VEC3"},{"bufferView":0,"byteOffset":21792,"componentType":5126,"count":4,"max":[-0.03,0.0025,0.02],"min":[-0.03,-0.0025,-0.02],"type":"VEC3"},{"bufferView":0,"byteOffset":21840,"componentType":5126,"count":4,"max":[0.03,0.0025,0.02],"min":[-0.03,-0.0025,0.02],"type":"VEC3"},{"bufferView":0,"byteOffset":21888,"componentType":5126,"count":456,"max":[0.03,0.0025,0.02],"min":[-0.03,0.0025,-0.02],"type":"VEC3"},{"bufferView":0,"byteOffset":27360,"componentType":5126,"count":4,"max":[0.03,0.0025,-0.02],"min":[-0.03,-0.0025,-0.02],"type":"VEC3"},{"bufferView":0,"byteOffset":27408,"componentType":5126,"count":456,"max":[0.03,-0.0025,0.02],"min":[-0.03,-0.0025,-0.02],"type":"VEC3"},{"bufferView":0,"byteOffset":32880,"componentType":5126,"count":4,"max":[0.03,0.0025,0.02],"min":[0.03,-0.0025,-0.02],"type":"VEC3"},{"bufferView":0,"byteOffset":32928,"componentType":5126,"count":228,"max":[-0.017500966106263616,0.0025,0.017499758461765953],"min":[-0.0225,-0.0025,0.012500241538234046],"type":"VEC3"},{"bufferView":0,"byteOffset":35664,"componentType":5126,"count":228,"max":[0.022499033893736385,0.0025,0.017499758461765953],"min":[0.0175,-0.0025,0.012500241538234046],"type":"VEC3"},{"bufferView":0,"byteOffset":38400,"componentType":5126,"count":228,"max":[-0.017500966106263616,0.0025,-0.012500241538234046],"min":[-0.0225,-0.0025,-0.017499758461765953],"type":"VEC3"},{"bufferView":0,"byteOffset":41136,"componentType":5126,"count":228,"max":[0.022499033893736385,0.0025,-0.012500241538234046],"min":[0.0175,-0.0025,-0.017499758461765953],"type":"VEC3"},{"bufferView":1,"byteOffset":0,"componentType":5126,"count":228,"type":"VEC3"},{"bufferView":1,"byteOffset":2736,"componentType":5126,"count":113,"type":"VEC3"},{"bufferView":1,"byteOffset":4092,"componentType":5126,"count":113,"type":"VEC3"},{"bufferView":1,"byteOffset":5448,"componentType":5126,"count":228,"type":"VEC3"},{"bufferView":1,"byteOffset":8184,"componentType":5126,"count":113,"type":"VEC3"},{"bufferView":1,"byteOffset":9540,"componentType":5126,"count":113,"type":"VEC3"},{"bufferView":1,"byteOffset":10896,"componentType":5126,"count":228,"type":"VEC3"},{"bufferView":1,"byteOffset":13632,"componentType":5126,"count":113,"type":"VEC3"},{"bufferView":1,"byteOffset":14988,"componentType":5126,"count":113,"type":"VEC3"},{"bufferView":1,"byteOffset":16344,"componentType":5126,"count":228,"type":"VEC3"},{"bufferView":1,"byteOffset":19080,"componentType":5126,"count":113,"type":"VEC3"},{"bufferView":1,"byteOffset":20436,"componentType":5126,"count":113,"type":"VEC3"},{"bufferView":1,"byteOffset":21792,"componentType":5126,"count":4,"type":"VEC3"},{"bufferView":1,"byteOffset":21840,"componentType":5126,"count":4,"type":"VEC3"},{"bufferView":1,"byteOffset":21888,"componentType":5126,"count":456,"type":"VEC3"},{"bufferView":1,"byteOffset":27360,"componentType":5126,"count":4,"type":"VEC3"},{"bufferView":1,"byteOffset":27408,"componentType":5126,"count":456,"type":"VEC3"},{"bufferView":1,"byteOffset":32880,"componentType":5126,"count":4,"type":"VEC3"},{"bufferView":1,"byteOffset":32928,"componentType":5126,"count":228,"type":"VEC3"},{"bufferView":1,"byteOffset":35664,"componentType":5126,"count":228,"type":"VEC3"},{"bufferView":1,"byteOffset":38400,"componentType":5126,"count":228,"type":"VEC3"},{"bufferView":1,"byteOffset":41136,"componentType":5126,"count":228,"type":"VEC3"},{"bufferView":2,"byteOffset":0,"componentType":5123,"count":678,"type":"SCALAR"},{"bufferView":2,"byteOffset":1356,"componentType":5123,"count":333,"type":"SCALAR"},{"bufferView":2,"byteOffset":2024,"componentType":5123,"count":333,"type":"SCALAR"},{"bufferView":2,"byteOffset":2692,"componentType":5123,"count":678,"type":"SCALAR"},{"bufferView":2,"byteOffset":4048,"componentType":5123,"count":333,"type":"SCALAR"},{"bufferView":2,"byteOffset":4716,"componentType":5123,"count":333,"type":"SCALAR"},{"bufferView":2,"byteOffset":5384,"componentType":5123,"count":678,"type":"SCALAR"},{"bufferView":2,"byteOffset":6740,"componentType":5123,"count":333,"type":"SCALAR"},{"bufferView":2,"byteOffset":7408,"componentType":5123,"count":333,"type":"SCALAR"},{"bufferView":2,"byteOffset":8076,"componentType":5123,"count":678,"type":"SCALAR"},{"bufferView":2,"byteOffset":9432,"componentType":5123,"count":333,"type":"SCALAR"},{"bufferView":2,"byteOffset":10100,"componentType":5123,"count":333,"type":"SCALAR"},{"bufferView":2,"byteOffset":10768,"componentType":5123,"count":6,"type":"SCALAR"},{"bufferView":2,"byteOffset":10780,"componentType":5123,"count":6,"type":"SCALAR"},{"bufferView":2,"byteOffset":10792,"componentType":5123,"count":1386,"type":"SCALAR"},{"bufferView":2,"byteOffset":13564,"componentType":5123,"count":6,"type":"SCALAR"},{"bufferView":2,"byteOffset":13576,"componentType":5123,"count":1386,"type":"SCALAR"},{"bufferView":2,"byteOffset":16348,"componentType":5123,"count":6,"type":"SCALAR"},{"bufferView":2,"byteOffset":16360,"componentType":5123,"count":678,"type":"SCALAR"},{"bufferView":2,"byteOffset":17716,"componentType":5123,"count":678,"type":"SCALAR"},{"bufferView":2,"byteOffset":19072,"componentType":5123,"count":678,"type":"SCALAR"},{"bufferView":2,"byteOffset":20428,"componentType":5123,"count":678,"type":"SCALAR"}],"asset":{"generator":"Open CASCADE Technology 7.8 [dev.opencascade.org]","version":"2.0"},"bufferViews":[{"buffer":0,"byteLength":43872,"byteOffset":0,"byteStride":12,"target":34962},{"buffer":0,"byteLength":43872,"byteOffset":43872,"byteStride":12,"target":34962},{"buffer":0,"byteLength":21784,"byteOffset":87744,"target":34963}],"buffers":[{"byteLength":109528,"uri":"type_cylinder_vida.bin"}],"materials":[{"name":"mat_0","pbrMetallicRoughness":{"baseColorFactor":[1.0,1.0,0.0,1.0]},"doubleSided":true},{"name":"mat_1","pbrMetallicRoughness":{"baseColorFactor":[0.0,0.5225215554237366,1.0,1.0]},"doubleSided":true}],"meshes":[{"name":"Open CASCADE STEP translator 7.8 2.2","primitives":[{"attributes":{"NORMAL":22,"POSITION":0},"indices":44,"material":0,"mode":4},{"attributes":{"NORMAL":23,"POSITION":1},"indices":45,"material":0,"mode":4},{"attributes":{"NORMAL":24,"POSITION":2},"indices":46,"material":0,"mode":4}]},{"name":"Open CASCADE STEP translator 7.8 2.3","primitives":[{"attributes":{"NORMAL":25,"POSITION":3},"indices":47,"material":0,"mode":4},{"attributes":{"NORMAL":26,"POSITION":4},"indices":48,"material":0,"mode":4},{"attributes":{"NORMAL":27,"POSITION":5},"indices":49,"material":0,"mode":4}]},{"name":"Open CASCADE STEP translator 7.8 2.4","primitives":[{"attributes":{"NORMAL":28,"POSITION":6},"indices":50,"material":0,"mode":4},{"attributes":{"NORMAL":29,"POSITION":7},"indices":51,"material":0,"mode":4},{"attributes":{"NORMAL":30,"POSITION":8},"indices":52,"material":0,"mode":4}]},{"name":"Open CASCADE STEP translator 7.8 2.5","primitives":[{"attributes":{"NORMAL":31,"POSITION":9},"indices":53,"material":0,"mode":4},{"attributes":{"NORMAL":32,"POSITION":10},"indices":54,"material":0,"mode":4},{"attributes":{"NORMAL":33,"POSITION":11},"indices":55,"material":0,"mode":4}]},{"name":"Open CASCADE STEP translator 7.8 2.1","primitives":[{"attributes":{"NORMAL":34,"POSITION":12},"indices":56,"material":1,"mode":4},{"attributes":{"NORMAL":35,"POSITION":13},"indices":57,"material":1,"mode":4},{"attributes":{"NORMAL":36,"POSITION":14},"indices":58,"material":1,"mode":4},{"attributes":{"NORMAL":37,"POSITION":15},"indices":59,"material":1,"mode":4},{"attributes":{"NORMAL":38,"POSITION":16},"indices":60,"material":1,"mode":4},{"attributes":{"NORMAL":39,"POSITION":17},"indices":61,"material":1,"mode":4},{"attributes":{"NORMAL":40,"POSITION":18},"indices":62,"material":1,"mode":4},{"attributes":{"NORMAL":41,"POSITION":19},"indices":63,"material":1,"mode":4},{"attributes":{"NORMAL":42,"POSITION":20},"indices":64,"material":1,"mode":4},{"attributes":{"NORMAL":43,"POSITION":21},"indices":65,"material":1,"mode":4}]}],"nodes":[{"children":[1,2,3,4,5],"name":"Unnamed"},{"mesh":0,"name":"Open CASCADE STEP translator 7.8 2.2"},{"mesh":1,"name":"Open CASCADE STEP translator 7.8 2.3"},{"mesh":2,"name":"Open CASCADE STEP translator 7.8 2.4"},{"mesh":3,"name":"Open CASCADE STEP translator 7.8 2.5"},{"mesh":4,"name":"Open CASCADE STEP translator 7.8 2.1"}],"scene":0,"scenes":[{"nodes":[0]}]}