{"accessors":[{"bufferView":0,"byteOffset":0,"componentType":5126,"count":228,"max":[0.001,0.007,0.0009999033847063812],"min":[-0.0009996135574945539,0.006500000000000001,-0.0009999033847063808],"type":"VEC3"},{"bufferView":0,"byteOffset":2736,"componentType":5126,"count":113,"max":[0.001,0.006500000000000001,0.0009999033847063812],"min":[-0.0009996135574945539,0.006500000000000001,-0.0009999033847063808],"type":"VEC3"},{"bufferView":0,"byteOffset":4092,"componentType":5126,"count":113,"max":[0.001,0.007,0.0009999033847063812],"min":[-0.0009996135574945539,0.007,-0.0009999033847063808],"type":"VEC3"},{"bufferView":0,"byteOffset":5448,"componentType":5126,"count":4,"max":[-0.005,0.001,0.005],"min":[-0.005,-0.001,-0.005],"type":"VEC3"},{"bufferView":0,"byteOffset":5496,"componentType":5126,"count":4,"max":[0.005,0.001,0.005],"min":[-0.005,-0.001,0.005],"type":"VEC3"},{"bufferView":0,"byteOffset":5544,"componentType":5126,"count":117,"max":[0.005,0.001,0.005],"min":[-0.005,0.001,-0.005],"type":"VEC3"},{"bufferView":0,"byteOffset":6948,"componentType":5126,"count":4,"max":[0.005,0.001,-0.005],"min":[-0.005,-0.001,-0.005],"type":"VEC3"},{"bufferView":0,"byteOffset":6996,"componentType":5126,"count":4,"max":[0.005,-0.001,0.005],"min":[-0.005,-0.001,-0.005],"type":"VEC3"},{"bufferView":0,"byteOffset":7044,"componentType":5126,"count":4,"max":[0.005,0.001,0.005],"min":[0.005,-0.001,-0.005],"type":"VEC3"},{"bufferView":0,"byteOffset":7092,"componentType":5126,"count":2782,"max":[0.0029996613001301623,0.006500000000000001,0.002998725714608931],"min":[-0.002999289669700339,0.001,-0.002998725714608931],"type":"VEC3"},{"bufferView":1,"byteOffset":0,"componentType":5126,"count":228,"type":"VEC3"},{"bufferView":1,"byteOffset":2736,"componentType":5126,"count":113,"type":"VEC3"},{"bufferView":1,"byteOffset":4092,"componentType":5126,"count":113,"type":"VEC3"},{"bufferView":1,"byteOffset":5448,"componentType":5126,"count":4,"type":"VEC3"},{"bufferView":1,"byteOffset":5496,"componentType":5126,"count":4,"type":"VEC3"},{"bufferView":1,"byteOffset":5544,"componentType":5126,"count":117,"type":"VEC3"},{"bufferView":1,"byteOffset":6948,"componentType":5126,"count":4,"type":"VEC3"},{"bufferView":1,"byteOffset":6996,"componentType":5126,"count":4,"type":"VEC3"},{"bufferView":1,"byteOffset":7044,"componentType":5126,"count":4,"type":"VEC3"},{"bufferView":1,"byteOffset":7092,"componentType":5126,"count":2782,"type":"VEC3"},{"bufferView":2,"byteOffset":0,"componentType":5123,"count":678,"type":"SCALAR"},{"bufferView":2,"byteOffset":1356,"componentType":5123,"count":333,"type":"SCALAR"},{"bufferView":2,"byteOffset":2024,"componentType":5123,"count":333,"type":"SCALAR"},{"bufferView":2,"byteOffset":2692,"componentType":5123,"count":6,"type":"SCALAR"},{"bufferView":2,"byteOffset":2704,"componentType":5123,"count":6,"type":"SCALAR"},{"bufferView":2,"byteOffset":2716,"componentType":5123,"count":351,"type":"SCALAR"},{"bufferView":2,"byteOffset":3420,"componentType":5123,"count":6,"type":"SCALAR"},{"bufferView":2,"byteOffset":3432,"componentType":5123,"count":6,"type":"SCALAR"},{"bufferView":2,"byteOffset":3444,"componentType":5123,"count":6,"type":"SCALAR"},{"bufferView":2,"byteOffset":3456,"componentType":5123,"count":16068,"type":"SCALAR"}],"asset":{"generator":"Open CASCADE Technology 7.8 [dev.opencascade.org]","version":"2.0"},"bufferViews":[{"buffer":0,"byteLength":40476,"byteOffset":0,"byteStride":12,"target":34962},{"buffer":0,"byteLength":40476,"byteOffset":40476,"byteStride":12,"target":34962},{"buffer":0,"byteLength":35592,"byteOffset":80952,"target":34963}],"buffers":[{"byteLength":116544,"uri":"type_sphere_yuzey_cikinti.bin"}],"materials":[{"name":"mat_0","pbrMetallicRoughness":{"baseColorFactor":[1.0,1.0,0.0,1.0]},"doubleSided":true},{"name":"mat_1","pbrMetallicRoughness":{"baseColorFactor":[0.0,0.5225215554237366,1.0,1.0]},"doubleSided":true}],"meshes":[{"name":"Open CASCADE STEP translator 7.8 4.1","primitives":[{"attributes":{"NORMAL":10,"POSITION":0},"indices":20,"material":0,"mode":4},{"attributes":{"NORMAL":11,"POSITION":1},"indices":21,"material":0,"mode":4},{"attributes":{"NORMAL":12,"POSITION":2},"indices":22,"material":0,"mode":4}]},{"name":"Open CASCADE STEP translator 7.8 4.2","primitives":[{"attributes":{"NORMAL":13,"POSITION":3},"indices":23,"material":1,"mode":4},{"attributes":{"NORMAL":14,"POSITION":4},"indices":24,"material":1,"mode":4},{"attributes":{"NORMAL":15,"POSITION":5},"indices":25,"material":1,"mode":4},{"attributes":{"NORMAL":16,"POSITION":6},"indices":26,"material":1,"mode":4},{"attributes":{"NORMAL":17,"POSITION":7},"indices":27,"material":1,"mode":4},{"attributes":{"NORMAL":18,"POSITION":8},"indices":28,"material":1,"mode":4},{"attributes":{"NORMAL":19,"POSITION":9},"indices":29,"material":1,"mode":4}]}],"nodes":[{"children":[1,2],"name":"Unnamed2"},{"mesh":0,"name":"Open CASCADE STEP translator 7.8 4.1"},{"mesh":1,"name":"Open CASCADE STEP translator 7.8 4.2"}],"scene":0,"scenes":[{"nodes":[0]}]}