{"accessors":[{"bufferView":0,"byteOffset":0,"componentType":5126,"count":4,"max":[-0.005,0.0008,0.0048],"min":[-0.005,-0.0008,-0.0048],"type":"VEC3"},{"bufferView":0,"byteOffset":48,"componentType":5126,"count":60,"max":[-0.0048,0.0008,0.005],"min":[-0.005,-0.0008,0.0048],"type":"VEC3"},{"bufferView":0,"byteOffset":768,"componentType":5126,"count":60,"max":[-0.0048,-0.0008,0.0048],"min":[-0.005,-0.001,-0.0048],"type":"VEC3"},{"bufferView":0,"byteOffset":1488,"componentType":5126,"count":60,"max":[-0.0048,0.001,0.0048],"min":[-0.005,0.0008,-0.0048],"type":"VEC3"},{"bufferView":0,"byteOffset":2208,"componentType":5126,"count":60,"max":[-0.0048,0.0008,-0.0048],"min":[-0.005,-0.0008,-0.005],"type":"VEC3"},{"bufferView":0,"byteOffset":2928,"componentType":5126,"count":498,"max":[-0.0048,-0.0008,0.005],"min":[-0.005,-0.001,0.0048],"type":"VEC3"},{"bufferView":0,"byteOffset":8904,"componentType":5126,"count":498,"max":[-0.0048,0.001,0.005],"min":[-0.005,0.0008,0.0048],"type":"VEC3"},{"bufferView":0,"byteOffset":14880,"componentType":5126,"count":4,"max":[0.0048,0.0008,0.005],"min":[-0.0048,-0.0008,0.005],"type":"VEC3"},{"bufferView":0,"byteOffset":14928,"componentType":5126,"count":4,"max":[0.0048,-0.001,0.0048],"min":[-0.0048,-0.001,-0.0048],"type":"VEC3"},{"bufferView":0,"byteOffset":14976,"componentType":5126,"count":498,"max":[-0.0048,-0.0008,-0.004799999999999999],"min":[-0.005,-0.001,-0.005],"type":"VEC3"},{"bufferView":0,"byteOffset":20952,"componentType":5126,"count":117,"max":[0.0048,0.001,0.0048],"min":[-0.0048,0.001,-0.0048],"type":"VEC3"},{"bufferView":0,"byteOffset":22356,"componentType":5126,"count":498,"max":[-0.0048,0.001,-0.0048],"min":[-0.005,0.0008,-0.005],"type":"VEC3"},{"bufferView":0,"byteOffset":28332,"componentType":5126,"count":4,"max":[0.0048,0.0008,-0.005],"min":[-0.0048,-0.0008,-0.005],"type":"VEC3"},{"bufferView":0,"byteOffset":28380,"componentType":5126,"count":60,"max":[0.0048,-0.0008,0.005],"min":[-0.0048,-0.001,0.0048],"type":"VEC3"},{"bufferView":0,"byteOffset":29100,"componentType":5126,"count":60,"max":[0.0048,0.001,0.005],"min":[-0.0048,0.0008,0.0048],"type":"VEC3"},{"bufferView":0,"byteOffset":29820,"componentType":5126,"count":60,"max":[0.005,0.0008,0.005],"min":[0.0048,-0.0008,0.0048],"type":"VEC3"},{"bufferView":0,"byteOffset":30540,"componentType":5126,"count":60,"max":[0.0048,-0.0008,-0.0048],"min":[-0.0048,-0.001,-0.005],"type":"VEC3"},{"bufferView":0,"byteOffset":31260,"componentType":5126,"count":60,"max":[0.005,-0.0008,0.0048],"min":[0.0048,-0.001,-0.0048],"type":"VEC3"},{"bufferView":0,"byteOffset":31980,"componentType":5126,"count":60,"max":[0.0048,0.001,-0.0048],"min":[-0.0048,0.0008,-0.005],"type":"VEC3"},{"bufferView":0,"byteOffset":32700,"componentType":5126,"count":60,"max":[0.005,0.001,0.0048],"min":[0.0048,0.0008,-0.0048],"type":"VEC3"},{"bufferView":0,"byteOffset":33420,"componentType":5126,"count":3420,"max":[0.0022,0.0012,0.0021997874463540383],"min":[-0.002199149826488019,0.001,-0.0021997874463540383],"type":"VEC3"},{"bufferView":0,"byteOffset":74460,"componentType":5126,"count":60,"max":[0.005,0.0008,-0.0048],"min":[0.0048,-0.0008,-0.005],"type":"VEC3"},{"bufferView":0,"byteOffset":75180,"componentType":5126,"count":498,"max":[0.005,-0.0008,0.005],"min":[0.0048,-0.001,0.0048],"type":"VEC3"},{"bufferView":0,"byteOffset":81156,"componentType":5126,"count":498,"max":[0.005,0.001,0.005],"min":[0.004799999999999999,0.0008,0.0048],"type":"VEC3"},{"bufferView":0,"byteOffset":87132,"componentType":5126,"count":4,"max":[0.005,0.0008,0.0048],"min":[0.005,-0.0008,-0.0048],"type":"VEC3"},{"bufferView":0,"byteOffset":87180,"componentType":5126,"count":498,"max":[0.005,-0.0008,-0.0048],"min":[0.0048,-0.001,-0.005],"type":"VEC3"},{"bufferView":0,"byteOffset":93156,"componentType":5126,"count":498,"max":[0.005,0.001,-0.004799999999999999],"min":[0.0048,0.0008,-0.005],"type":"VEC3"},{"bufferView":0,"byteOffset":99132,"componentType":5126,"count":228,"max":[0.002,0.0038,0.001999806769412762],"min":[-0.001999227114989108,0.0012,-0.001999806769412762],"type":"VEC3"},{"bufferView":0,"byteOffset":101868,"componentType":5126,"count":3420,"max":[0.002,0.004,0.001999806769412762],"min":[-0.001999227114989108,0.0038,-0.001999806769412762],"type":"VEC3"},{"bufferView":0,"byteOffset":142908,"componentType":5126,"count":113,"max":[0.0018000000000000002,0.004,0.001799826092471486],"min":[-0.0017993044034901975,0.004,-0.0017998260924714858],"type":"VEC3"},{"bufferView":1,"byteOffset":0,"componentType":5126,"count":4,"type":"VEC3"},{"bufferView":1,"byteOffset":48,"componentType":5126,"count":60,"type":"VEC3"},{"bufferView":1,"byteOffset":768,"componentType":5126,"count":60,"type":"VEC3"},{"bufferView":1,"byteOffset":1488,"componentType":5126,"count":60,"type":"VEC3"},{"bufferView":1,"byteOffset":2208,"componentType":5126,"count":60,"type":"VEC3"},{"bufferView":1,"byteOffset":2928,"componentType":5126,"count":498,"type":"VEC3"},{"bufferView":1,"byteOffset":8904,"componentType":5126,"count":498,"type":"VEC3"},{"bufferView":1,"byteOffset":14880,"componentType":5126,"count":4,"type":"VEC3"},{"bufferView":1,"byteOffset":14928,"componentType":5126,"count":4,"type":"VEC3"},{"bufferView":1,"byteOffset":14976,"componentType":5126,"count":498,"type":"VEC3"},{"bufferView":1,"byteOffset":20952,"componentType":5126,"count":117,"type":"VEC3"},{"bufferView":1,"byteOffset":22356,"componentType":5126,"count":498,"type":"VEC3"},{"bufferView":1,"byteOffset":28332,"componentType":5126,"count":4,"type":"VEC3"},{"bufferView":1,"byteOffset":28380,"componentType":5126,"count":60,"type":"VEC3"},{"bufferView":1,"byteOffset":29100,"componentType":5126,"count":60,"type":"VEC3"},{"bufferView":1,"byteOffset":29820,"componentType":5126,"count":60,"type":"VEC3"},{"bufferView":1,"byteOffset":30540,"componentType":5126,"count":60,"type":"VEC3"},{"bufferView":1,"byteOffset":31260,"componentType":5126,"count":60,"type":"VEC3"},{"bufferView":1,"byteOffset":31980,"componentType":5126,"count":60,"type":"VEC3"},{"bufferView":1,"byteOffset":32700,"componentType":5126,"count":60,"type":"VEC3"},{"bufferView":1,"byteOffset":33420,"componentType":5126,"count":3420,"type":"VEC3"},{"bufferView":1,"byteOffset":74460,"componentType":5126,"count":60,"type":"VEC3"},{"bufferView":1,"byteOffset":75180,"componentType":5126,"count":498,"type":"VEC3"},{"bufferView":1,"byteOffset":81156,"componentType":5126,"count":498,"type":"VEC3"},{"bufferView":1,"byteOffset":87132,"componentType":5126,"count":4,"type":"VEC3"},{"bufferView":1,"byteOffset":87180,"componentType":5126,"count":498,"type":"VEC3"},{"bufferView":1,"byteOffset":93156,"componentType":5126,"count":498,"type":"VEC3"},{"bufferView":1,"byteOffset":99132,"componentType":5126,"count":228,"type":"VEC3"},{"bufferView":1,"byteOffset":101868,"componentType":5126,"count":3420,"type":"VEC3"},{"bufferView":1,"byteOffset":142908,"componentType":5126,"count":113,"type":"VEC3"},{"bufferView":2,"byteOffset":0,"componentType":5123,"count":6,"type":"SCALAR"},{"bufferView":2,"byteOffset":12,"componentType":5123,"count":174,"type":"SCALAR"},{"bufferView":2,"byteOffset":360,"componentType":5123,"count":174,"type":"SCALAR"},{"bufferView":2,"byteOffset":708,"componentType":5123,"count":174,"type":"SCALAR"},{"bufferView":2,"byteOffset":1056,"componentType":5123,"count":174,"type":"SCALAR"},{"bufferView":2,"byteOffset":1404,"componentType":5123,"count":2718,"type":"SCALAR"},{"bufferView":2,"byteOffset":6840,"componentType":5123,"count":2718,"type":"SCALAR"},{"bufferView":2,"byteOffset":12276,"componentType":5123,"count":6,"type":"SCALAR"},{"bufferView":2,"byteOffset":12288,"componentType":5123,"count":6,"type":"SCALAR"},{"bufferView":2,"byteOffset":12300,"componentType":5123,"count":2718,"type":"SCALAR"},{"bufferView":2,"byteOffset":17736,"componentType":5123,"count":351,"type":"SCALAR"},{"bufferView":2,"byteOffset":18440,"componentType":5123,"count":2718,"type":"SCALAR"},{"bufferView":2,"byteOffset":23876,"componentType":5123,"count":6,"type":"SCALAR"},{"bufferView":2,"byteOffset":23888,"componentType":5123,"count":174,"type":"SCALAR"},{"bufferView":2,"byteOffset":24236,"componentType":5123,"count":174,"type":"SCALAR"},{"bufferView":2,"byteOffset":24584,"componentType":5123,"count":174,"type":"SCALAR"},{"bufferView":2,"byteOffset":24932,"componentType":5123,"count":174,"type":"SCALAR"},{"bufferView":2,"byteOffset":25280,"componentType":5123,"count":174,"type":"SCALAR"},{"bufferView":2,"byteOffset":25628,"componentType":5123,"count":174,"type":"SCALAR"},{"bufferView":2,"byteOffset":25976,"componentType":5123,"count":174,"type":"SCALAR"},{"bufferView":2,"byteOffset":26324,"componentType":5123,"count":19662,"type":"SCALAR"},{"bufferView":2,"byteOffset":65648,"componentType":5123,"count":174,"type":"SCALAR"},{"bufferView":2,"byteOffset":65996,"componentType":5123,"count":2718,"type":"SCALAR"},{"bufferView":2,"byteOffset":71432,"componentType":5123,"count":2718,"type":"SCALAR"},{"bufferView":2,"byteOffset":76868,"componentType":5123,"count":6,"type":"SCALAR"},{"bufferView":2,"byteOffset":76880,"componentType":5123,"count":2718,"type":"SCALAR"},{"bufferView":2,"byteOffset":82316,"componentType":5123,"count":2718,"type":"SCALAR"},{"bufferView":2,"byteOffset":87752,"componentType":5123,"count":678,"type":"SCALAR"},{"bufferView":2,"byteOffset":89108,"componentType":5123,"count":19662,"type":"SCALAR"},{"bufferView":2,"byteOffset":128432,"componentType":5123,"count":333,"type":"SCALAR"}],"asset":{"generator":"Open CASCADE Technology 7.8 [dev.opencascade.org]","version":"2.0"},"bufferViews":[{"buffer":0,"byteLength":144264,"byteOffset":0,"byteStride":12,"target":34962},{"buffer":0,"byteLength":144264,"byteOffset":144264,"byteStride":12,"target":34962},{"buffer":0,"byteLength":129100,"byteOffset":288528,"target":34963}],"buffers":[{"byteLength":417628,"uri":"type_plane_yuzey_kenar_fillet.bin"}],"materials":[{"name":"mat_0","pbrMetallicRoughness":{"baseColorFactor":[0.0,0.5225215554237366,1.0,1.0]},"doubleSided":true}],"meshes":[{"name":"Gövde","primitives":[{"attributes":{"NORMAL":30,"POSITION":0},"indices":60,"material":0,"mode":4},{"attributes":{"NORMAL":31,"POSITION":1},"indices":61,"material":0,"mode":4},{"attributes":{"NORMAL":32,"POSITION":2},"indices":62,"material":0,"mode":4},{"attributes":{"NORMAL":33,"POSITION":3},"indices":63,"material":0,"mode":4},{"attributes":{"NORMAL":34,"POSITION":4},"indices":64,"material":0,"mode":4},{"attributes":{"NORMAL":35,"POSITION":5},"indices":65,"material":0,"mode":4},{"attributes":{"NORMAL":36,"POSITION":6},"indices":66,"material":0,"mode":4},{"attributes":{"NORMAL":37,"POSITION":7},"indices":67,"material":0,"mode":4},{"attributes":{"NORMAL":38,"POSITION":8},"indices":68,"material":0,"mode":4},{"attributes":{"NORMAL":39,"POSITION":9},"indices":69,"material":0,"mode":4},{"attributes":{"NORMAL":40,"POSITION":10},"indices":70,"material":0,"mode":4},{"attributes":{"NORMAL":41,"POSITION":11},"indices":71,"material":0,"mode":4},{"attributes":{"NORMAL":42,"POSITION":12},"indices":72,"material":0,"mode":4},{"attributes":{"NORMAL":43,"POSITION":13},"indices":73,"material":0,"mode":4},{"attributes":{"NORMAL":44,"POSITION":14},"indices":74,"material":0,"mode":4},{"attributes":{"NORMAL":45,"POSITION":15},"indices":75,"material":0,"mode":4},{"attributes":{"NORMAL":46,"POSITION":16},"indices":76,"material":0,"mode":4},{"attributes":{"NORMAL":47,"POSITION":17},"indices":77,"material":0,"mode":4},{"attributes":{"NORMAL":48,"POSITION":18},"indices":78,"material":0,"mode":4},{"attributes":{"NORMAL":49,"POSITION":19},"indices":79,"material":0,"mode":4},{"attributes":{"NORMAL":50,"POSITION":20},"indices":80,"material":0,"mode":4},{"attributes":{"NORMAL":51,"POSITION":21},"indices":81,"material":0,"mode":4},{"attributes":{"NORMAL":52,"POSITION":22},"indices":82,"material":0,"mode":4},{"attributes":{"NORMAL":53,"POSITION":23},"indices":83,"material":0,"mode":4},{"attributes":{"NORMAL":54,"POSITION":24},"indices":84,"material":0,"mode":4},{"attributes":{"NORMAL":55,"POSITION":25},"indices":85,"material":0,"mode":4},{"attributes":{"NORMAL":56,"POSITION":26},"indices":86,"material":0,"mode":4},{"attributes":{"NORMAL":57,"POSITION":27},"indices":87,"material":0,"mode":4},{"attributes":{"NORMAL":58,"POSITION":28},"indices":88,"material":0,"mode":4},{"attributes":{"NORMAL":59,"POSITION":29},"indices":89,"material":0,"mode":4}]}],"nodes":[{"mesh":0,"name":"Gövde"}],"scene":0,"scenes":[{"nodes":[0]}]}