{"accessors":[{"bufferView":0,"byteOffset":0,"componentType":5126,"count":113,"max":[0.12,0.0,0.11998840616476573],"min":[-0.11995362689934651,0.0,-0.11998840616476572],"type":"VEC3"},{"bufferView":0,"byteOffset":1356,"componentType":5126,"count":228,"max":[0.12,0.01,0.11998840616476573],"min":[-0.11995362689934651,0.0,-0.11998840616476572],"type":"VEC3"},{"bufferView":0,"byteOffset":4092,"componentType":5126,"count":2835,"max":[0.2500518609328772,1.01,0.2499021885017672],"min":[-0.24995523026524682,0.01,-0.2500277020989132],"type":"VEC3"},{"bufferView":0,"byteOffset":38112,"componentType":5126,"count":226,"max":[0.1,1.01,0.09999033847063811],"min":[-0.09996135574945543,1.01,-0.0999903384706381],"type":"VEC3"},{"bufferView":0,"byteOffset":40824,"componentType":5126,"count":2802,"max":[0.24005543360152184,1.01,0.23984672325444803],"min":[-0.23996266597831492,0.01,-0.24003224057531958],"type":"VEC3"},{"bufferView":0,"byteOffset":74448,"componentType":5126,"count":406,"max":[0.11,0.01,0.10998937231770192],"min":[-0.10995749132440097,0.001,-0.10998937231770191],"type":"VEC3"},{"bufferView":1,"byteOffset":0,"componentType":5126,"count":113,"type":"VEC3"},{"bufferView":1,"byteOffset":1356,"componentType":5126,"count":228,"type":"VEC3"},{"bufferView":1,"byteOffset":4092,"componentType":5126,"count":2835,"type":"VEC3"},{"bufferView":1,"byteOffset":38112,"componentType":5126,"count":226,"type":"VEC3"},{"bufferView":1,"byteOffset":40824,"componentType":5126,"count":2802,"type":"VEC3"},{"bufferView":1,"byteOffset":74448,"componentType":5126,"count":406,"type":"VEC3"},{"bufferView":2,"byteOffset":0,"componentType":5123,"count":333,"type":"SCALAR"},{"bufferView":2,"byteOffset":668,"componentType":5123,"count":678,"type":"SCALAR"},{"bufferView":2,"byteOffset":2024,"componentType":5123,"count":16038,"type":"SCALAR"},{"bufferView":2,"byteOffset":34100,"componentType":5123,"count":678,"type":"SCALAR"},{"bufferView":2,"byteOffset":35456,"componentType":5123,"count":15834,"type":"SCALAR"},{"bufferView":2,"byteOffset":67124,"componentType":5123,"count":2052,"type":"SCALAR"}],"asset":{"generator":"Open CASCADE Technology 7.8 [dev.opencascade.org]","version":"2.0"},"bufferViews":[{"buffer":0,"byteLength":79320,"byteOffset":0,"byteStride":12,"target":34962},{"buffer":0,"byteLength":79320,"byteOffset":79320,"byteStride":12,"target":34962},{"buffer":0,"byteLength":71228,"byteOffset":158640,"target":34963}],"buffers":[{"byteLength":229868,"uri":"vazo.bin"}],"materials":[{"name":"mat_0","pbrMetallicRoughness":{"baseColorFactor":[0.0,0.5225215554237366,1.0,1.0]},"doubleSided":true}],"meshes":[{"name":"Gövde","primitives":[{"attributes":{"NORMAL":6,"POSITION":0},"indices":12,"material":0,"mode":4},{"attributes":{"NORMAL":7,"POSITION":1},"indices":13,"material":0,"mode":4},{"attributes":{"NORMAL":8,"POSITION":2},"indices":14,"material":0,"mode":4},{"attributes":{"NORMAL":9,"POSITION":3},"indices":15,"material":0,"mode":4},{"attributes":{"NORMAL":10,"POSITION":4},"indices":16,"material":0,"mode":4},{"attributes":{"NORMAL":11,"POSITION":5},"indices":17,"material":0,"mode":4}]}],"nodes":[{"mesh":0,"name":"Gövde"}],"scene":0,"scenes":[{"nodes":[0]}]}