{"accessors":[{"bufferView":0,"byteOffset":0,"componentType":5126,"count":4,"max":[-15.0,15.0,3.0],"min":[-15.0,-15.0,-3.0],"type":"VEC3"},{"bufferView":0,"byteOffset":48,"componentType":5126,"count":4,"max":[15.0,-15.0,3.0],"min":[-15.0,-15.0,-3.0],"type":"VEC3"},{"bufferView":0,"byteOffset":96,"componentType":5126,"count":130,"max":[15.0,15.0,3.0],"min":[-15.0,-15.0,3.0],"type":"VEC3"},{"bufferView":0,"byteOffset":1656,"componentType":5126,"count":4,"max":[15.0,15.0,3.0],"min":[-15.0,15.0,-3.0],"type":"VEC3"},{"bufferView":0,"byteOffset":1704,"componentType":5126,"count":130,"max":[15.0,15.0,-3.0],"min":[-15.0,-15.0,-3.0],"type":"VEC3"},{"bufferView":0,"byteOffset":3264,"componentType":5126,"count":4,"max":[15.0,15.0,3.0],"min":[15.0,-15.0,-3.0],"type":"VEC3"},{"bufferView":0,"byteOffset":3312,"componentType":5126,"count":254,"max":[4.0,3.998756728003265,3.0],"min":[-4.0,-3.998756728003266,-3.0],"type":"VEC3"},{"bufferView":0,"byteOffset":6360,"componentType":5126,"count":254,"max":[4.0,3.998756728003265,12.125],"min":[-4.0,-3.998756728003266,5.833333333333333],"type":"VEC3"},{"bufferView":0,"byteOffset":9408,"componentType":5126,"count":254,"max":[3.0000000000000187,2.9990675460024487,12.125],"min":[-2.9999999999999813,-2.9990675460024496,5.833333333333333],"type":"VEC3"},{"bufferView":0,"byteOffset":12456,"componentType":5126,"count":252,"max":[4.0,3.998756728003265,5.833333333333333],"min":[-4.0,-3.998756728003266,5.833333333333333],"type":"VEC3"},{"bufferView":0,"byteOffset":15480,"componentType":5126,"count":252,"max":[4.0,3.998756728003265,12.125],"min":[-4.0,-3.998756728003266,12.125],"type":"VEC3"},{"bufferView":0,"byteOffset":18504,"componentType":5126,"count":456,"max":[1.6570659747917498,1.683674305562656,12.00099566861629],"min":[-1.6570659747916976,-0.4244425303515036,5.9990043313840005],"type":"VEC3"},{"bufferView":0,"byteOffset":23976,"componentType":5126,"count":618,"max":[1.6570659747917498,1.683674305562656,12.00099566861629],"min":[-1.6567731839667816,-0.4244425303515036,6.00097307634878],"type":"VEC3"},{"bufferView":0,"byteOffset":31392,"componentType":5126,"count":400,"max":[1.6452310938085428,1.6206750841862416,11.998222180284944],"min":[-1.6452310938071324,-0.41429063561800317,6.001777819714943],"type":"VEC3"},{"bufferView":0,"byteOffset":36192,"componentType":5126,"count":637,"max":[1.6567731839677042,1.6836743055590193,11.99902692365187],"min":[-1.6570659747916976,-0.42442765707894337,5.9990043313840005],"type":"VEC3"},{"bufferView":0,"byteOffset":43836,"componentType":5126,"count":384,"max":[1.2436264325350397,1.2636647069273295,12.001005069781518],"min":[-1.2436264325350992,-0.31852776099404534,5.99899493021847],"type":"VEC3"},{"bufferView":0,"byteOffset":48444,"componentType":5126,"count":670,"max":[1.255616369967546,1.3296270225048277,12.00262460947993],"min":[-1.255577543311697,-0.32865364343311065,5.9978561488493884],"type":"VEC3"},{"bufferView":0,"byteOffset":56484,"componentType":5126,"count":449,"max":[1.255616369967546,1.3296270225048277,12.00262460947993],"min":[-1.2556163699676388,-0.32865364343311065,5.9973753905203555],"type":"VEC3"},{"bufferView":0,"byteOffset":61872,"componentType":5126,"count":657,"max":[1.2555775433123804,1.3296270225027895,12.002143851150985],"min":[-1.2556163699676388,-0.32864912397609203,5.9973753905203555],"type":"VEC3"},{"bufferView":1,"byteOffset":0,"componentType":5126,"count":4,"type":"VEC3"},{"bufferView":1,"byteOffset":48,"componentType":5126,"count":4,"type":"VEC3"},{"bufferView":1,"byteOffset":96,"componentType":5126,"count":130,"type":"VEC3"},{"bufferView":1,"byteOffset":1656,"componentType":5126,"count":4,"type":"VEC3"},{"bufferView":1,"byteOffset":1704,"componentType":5126,"count":130,"type":"VEC3"},{"bufferView":1,"byteOffset":3264,"componentType":5126,"count":4,"type":"VEC3"},{"bufferView":1,"byteOffset":3312,"componentType":5126,"count":254,"type":"VEC3"},{"bufferView":1,"byteOffset":6360,"componentType":5126,"count":254,"type":"VEC3"},{"bufferView":1,"byteOffset":9408,"componentType":5126,"count":254,"type":"VEC3"},{"bufferView":1,"byteOffset":12456,"componentType":5126,"count":252,"type":"VEC3"},{"bufferView":1,"byteOffset":15480,"componentType":5126,"count":252,"type":"VEC3"},{"bufferView":1,"byteOffset":18504,"componentType":5126,"count":456,"type":"VEC3"},{"bufferView":1,"byteOffset":23976,"componentType":5126,"count":618,"type":"VEC3"},{"bufferView":1,"byteOffset":31392,"componentType":5126,"count":400,"type":"VEC3"},{"bufferView":1,"byteOffset":36192,"componentType":5126,"count":637,"type":"VEC3"},{"bufferView":1,"byteOffset":43836,"componentType":5126,"count":384,"type":"VEC3"},{"bufferView":1,"byteOffset":48444,"componentType":5126,"count":670,"type":"VEC3"},{"bufferView":1,"byteOffset":56484,"componentType":5126,"count":449,"type":"VEC3"},{"bufferView":1,"byteOffset":61872,"componentType":5126,"count":657,"type":"VEC3"},{"bufferView":2,"byteOffset":0,"componentType":5123,"count":6,"type":"SCALAR"},{"bufferView":2,"byteOffset":12,"componentType":5123,"count":6,"type":"SCALAR"},{"bufferView":2,"byteOffset":24,"componentType":5123,"count":390,"type":"SCALAR"},{"bufferView":2,"byteOffset":804,"componentType":5123,"count":6,"type":"SCALAR"},{"bufferView":2,"byteOffset":816,"componentType":5123,"count":390,"type":"SCALAR"},{"bufferView":2,"byteOffset":1596,"componentType":5123,"count":6,"type":"SCALAR"},{"bufferView":2,"byteOffset":1608,"componentType":5123,"count":756,"type":"SCALAR"},{"bufferView":2,"byteOffset":3120,"componentType":5123,"count":756,"type":"SCALAR"},{"bufferView":2,"byteOffset":4632,"componentType":5123,"count":756,"type":"SCALAR"},{"bufferView":2,"byteOffset":6144,"componentType":5123,"count":756,"type":"SCALAR"},{"bufferView":2,"byteOffset":7656,"componentType":5123,"count":756,"type":"SCALAR"},{"bufferView":2,"byteOffset":9168,"componentType":5123,"count":1527,"type":"SCALAR"},{"bufferView":2,"byteOffset":12224,"componentType":5123,"count":2499,"type":"SCALAR"},{"bufferView":2,"byteOffset":17224,"componentType":5123,"count":1194,"type":"SCALAR"},{"bufferView":2,"byteOffset":19612,"componentType":5123,"count":2616,"type":"SCALAR"},{"bufferView":2,"byteOffset":24844,"componentType":5123,"count":1221,"type":"SCALAR"},{"bufferView":2,"byteOffset":27288,"componentType":5123,"count":2928,"type":"SCALAR"},{"bufferView":2,"byteOffset":33144,"componentType":5123,"count":1605,"type":"SCALAR"},{"bufferView":2,"byteOffset":36356,"componentType":5123,"count":2862,"type":"SCALAR"}],"asset":{"generator":"Open CASCADE Technology 7.8 [dev.opencascade.org]","version":"2.0"},"bufferViews":[{"buffer":0,"byteLength":69756,"byteOffset":0,"byteStride":12,"target":34962},{"buffer":0,"byteLength":69756,"byteOffset":69756,"byteStride":12,"target":34962},{"buffer":0,"byteLength":42080,"byteOffset":139512,"target":34963}],"buffers":[{"byteLength":181592,"uri":"vida_plaka_montaj.bin"}],"materials":[{"name":"mat_0","pbrMetallicRoughness":{"baseColorFactor":[0.800000011920929,0.800000011920929,0.800000011920929,1.0]},"doubleSided":true},{"name":"mat_1","pbrMetallicRoughness":{"baseColorFactor":[0.20000000298023224,0.4000000059604645,0.800000011920929,1.0]},"doubleSided":true}],"meshes":[{"name":"plaka_part","primitives":[{"attributes":{"NORMAL":19,"POSITION":0},"indices":38,"material":0,"mode":4},{"attributes":{"NORMAL":20,"POSITION":1},"indices":39,"material":0,"mode":4},{"attributes":{"NORMAL":21,"POSITION":2},"indices":40,"material":0,"mode":4},{"attributes":{"NORMAL":22,"POSITION":3},"indices":41,"material":0,"mode":4},{"attributes":{"NORMAL":23,"POSITION":4},"indices":42,"material":0,"mode":4},{"attributes":{"NORMAL":24,"POSITION":5},"indices":43,"material":0,"mode":4},{"attributes":{"NORMAL":25,"POSITION":6},"indices":44,"material":0,"mode":4}]},{"name":"vida_part","primitives":[{"attributes":{"NORMAL":26,"POSITION":7},"indices":45,"material":1,"mode":4},{"attributes":{"NORMAL":27,"POSITION":8},"indices":46,"material":1,"mode":4},{"attributes":{"NORMAL":28,"POSITION":9},"indices":47,"material":1,"mode":4},{"attributes":{"NORMAL":29,"POSITION":10},"indices":48,"material":1,"mode":4},{"attributes":{"NORMAL":30,"POSITION":11},"indices":49,"material":1,"mode":4},{"attributes":{"NORMAL":31,"POSITION":12},"indices":50,"material":1,"mode":4},{"attributes":{"NORMAL":32,"POSITION":13},"indices":51,"material":1,"mode":4},{"attributes":{"NORMAL":33,"POSITION":14},"indices":52,"material":1,"mode":4},{"attributes":{"NORMAL":34,"POSITION":15},"indices":53,"material":1,"mode":4},{"attributes":{"NORMAL":35,"POSITION":16},"indices":54,"material":1,"mode":4},{"attributes":{"NORMAL":36,"POSITION":17},"indices":55,"material":1,"mode":4},{"attributes":{"NORMAL":37,"POSITION":18},"indices":56,"material":1,"mode":4}]}],"nodes":[{"children":[1,3],"rotation":[-0.7071067811865475,0.0,0.0,0.7071067811865475],"name":"fbb48903-35bf-11f0-8198-78af08feb68a"},{"children":[2],"name":"plaka"},{"mesh":0,"name":"plaka_part"},{"children":[4],"name":"vida"},{"mesh":1,"name":"vida_part"}],"scene":0,"scenes":[{"nodes":[0]}]}