{"accessors":[{"bufferView":0,"byteOffset":0,"componentType":5126,"count":44,"max":[-0.0125,0.0075,0.015],"min":[-0.0125,-0.0075,0.0035355339059330005],"type":"VEC3"},{"bufferView":0,"byteOffset":528,"componentType":5126,"count":50,"max":[0.0125,0.0075,0.015],"min":[-0.0125,0.0075,0.0035355339059330005],"type":"VEC3"},{"bufferView":0,"byteOffset":1128,"componentType":5126,"count":2443,"max":[0.015,0.014051245496397,0.01298544919151337],"min":[-0.01498871928756351,-0.01405124549639,-0.012985449191513367],"type":"VEC3"},{"bufferView":0,"byteOffset":30444,"componentType":5126,"count":50,"max":[0.0125,-0.0075,0.015],"min":[-0.0125,-0.0075,0.0035355339059330005],"type":"VEC3"},{"bufferView":0,"byteOffset":31044,"componentType":5126,"count":4,"max":[0.0125,0.0075,0.015],"min":[-0.0125,-0.0075,0.015],"type":"VEC3"},{"bufferView":0,"byteOffset":31092,"componentType":5126,"count":44,"max":[0.0125,0.0075,0.015],"min":[0.0125,-0.0075,0.0035355339059330005],"type":"VEC3"},{"bufferView":0,"byteOffset":31620,"componentType":5126,"count":228,"max":[0.00525,0.02225,0.0052494927697085015],"min":[-0.00524797117684641,0.014051245496396,-0.0052494927697085],"type":"VEC3"},{"bufferView":0,"byteOffset":34356,"componentType":5126,"count":228,"max":[0.00525,-0.01405124549639,0.0052494927697085015],"min":[-0.00524797117684641,-0.02225,-0.0052494927697085],"type":"VEC3"},{"bufferView":0,"byteOffset":37092,"componentType":5126,"count":44,"max":[-0.0125,0.0075,-0.0035355339059330005],"min":[-0.0125,-0.0075,-0.015],"type":"VEC3"},{"bufferView":0,"byteOffset":37620,"componentType":5126,"count":50,"max":[0.0125,0.0075,-0.0035355339059330005],"min":[-0.0125,0.0075,-0.015],"type":"VEC3"},{"bufferView":0,"byteOffset":38220,"componentType":5126,"count":44,"max":[0.0125,0.0075,-0.0035355339059330005],"min":[0.0125,-0.0075,-0.015],"type":"VEC3"},{"bufferView":0,"byteOffset":38748,"componentType":5126,"count":50,"max":[0.0125,-0.0075,-0.0035355339059330005],"min":[-0.0125,-0.0075,-0.015],"type":"VEC3"},{"bufferView":0,"byteOffset":39348,"componentType":5126,"count":113,"max":[0.00525,0.02225,0.005249492769708501],"min":[-0.00524797117684641,0.02225,-0.0052494927697085],"type":"VEC3"},{"bufferView":0,"byteOffset":40704,"componentType":5126,"count":113,"max":[0.00525,-0.02225,0.005249492769708501],"min":[-0.00524797117684641,-0.02225,-0.0052494927697085],"type":"VEC3"},{"bufferView":0,"byteOffset":42060,"componentType":5126,"count":4,"max":[0.0125,0.0075,-0.015],"min":[-0.0125,-0.0075,-0.015],"type":"VEC3"},{"bufferView":1,"byteOffset":0,"componentType":5126,"count":44,"type":"VEC3"},{"bufferView":1,"byteOffset":528,"componentType":5126,"count":50,"type":"VEC3"},{"bufferView":1,"byteOffset":1128,"componentType":5126,"count":2443,"type":"VEC3"},{"bufferView":1,"byteOffset":30444,"componentType":5126,"count":50,"type":"VEC3"},{"bufferView":1,"byteOffset":31044,"componentType":5126,"count":4,"type":"VEC3"},{"bufferView":1,"byteOffset":31092,"componentType":5126,"count":44,"type":"VEC3"},{"bufferView":1,"byteOffset":31620,"componentType":5126,"count":228,"type":"VEC3"},{"bufferView":1,"byteOffset":34356,"componentType":5126,"count":228,"type":"VEC3"},{"bufferView":1,"byteOffset":37092,"componentType":5126,"count":44,"type":"VEC3"},{"bufferView":1,"byteOffset":37620,"componentType":5126,"count":50,"type":"VEC3"},{"bufferView":1,"byteOffset":38220,"componentType":5126,"count":44,"type":"VEC3"},{"bufferView":1,"byteOffset":38748,"componentType":5126,"count":50,"type":"VEC3"},{"bufferView":1,"byteOffset":39348,"componentType":5126,"count":113,"type":"VEC3"},{"bufferView":1,"byteOffset":40704,"componentType":5126,"count":113,"type":"VEC3"},{"bufferView":1,"byteOffset":42060,"componentType":5126,"count":4,"type":"VEC3"},{"bufferView":2,"byteOffset":0,"componentType":5123,"count":126,"type":"SCALAR"},{"bufferView":2,"byteOffset":252,"componentType":5123,"count":144,"type":"SCALAR"},{"bufferView":2,"byteOffset":540,"componentType":5123,"count":12666,"type":"SCALAR"},{"bufferView":2,"byteOffset":25872,"componentType":5123,"count":144,"type":"SCALAR"},{"bufferView":2,"byteOffset":26160,"componentType":5123,"count":6,"type":"SCALAR"},{"bufferView":2,"byteOffset":26172,"componentType":5123,"count":126,"type":"SCALAR"},{"bufferView":2,"byteOffset":26424,"componentType":5123,"count":678,"type":"SCALAR"},{"bufferView":2,"byteOffset":27780,"componentType":5123,"count":678,"type":"SCALAR"},{"bufferView":2,"byteOffset":29136,"componentType":5123,"count":126,"type":"SCALAR"},{"bufferView":2,"byteOffset":29388,"componentType":5123,"count":144,"type":"SCALAR"},{"bufferView":2,"byteOffset":29676,"componentType":5123,"count":126,"type":"SCALAR"},{"bufferView":2,"byteOffset":29928,"componentType":5123,"count":144,"type":"SCALAR"},{"bufferView":2,"byteOffset":30216,"componentType":5123,"count":333,"type":"SCALAR"},{"bufferView":2,"byteOffset":30884,"componentType":5123,"count":333,"type":"SCALAR"},{"bufferView":2,"byteOffset":31552,"componentType":5123,"count":6,"type":"SCALAR"}],"asset":{"generator":"Open CASCADE Technology 7.8 [dev.opencascade.org]","version":"2.0"},"bufferViews":[{"buffer":0,"byteLength":42108,"byteOffset":0,"byteStride":12,"target":34962},{"buffer":0,"byteLength":42108,"byteOffset":42108,"byteStride":12,"target":34962},{"buffer":0,"byteLength":31564,"byteOffset":84216,"target":34963}],"buffers":[{"byteLength":115780,"uri":"workplane-8.bin"}],"materials":[{"name":"mat_0","pbrMetallicRoughness":{"baseColorFactor":[0.0,0.5225215554237366,1.0,1.0]},"doubleSided":true}],"meshes":[{"name":"Gövde","primitives":[{"attributes":{"NORMAL":15,"POSITION":0},"indices":30,"material":0,"mode":4},{"attributes":{"NORMAL":16,"POSITION":1},"indices":31,"material":0,"mode":4},{"attributes":{"NORMAL":17,"POSITION":2},"indices":32,"material":0,"mode":4},{"attributes":{"NORMAL":18,"POSITION":3},"indices":33,"material":0,"mode":4},{"attributes":{"NORMAL":19,"POSITION":4},"indices":34,"material":0,"mode":4},{"attributes":{"NORMAL":20,"POSITION":5},"indices":35,"material":0,"mode":4},{"attributes":{"NORMAL":21,"POSITION":6},"indices":36,"material":0,"mode":4},{"attributes":{"NORMAL":22,"POSITION":7},"indices":37,"material":0,"mode":4},{"attributes":{"NORMAL":23,"POSITION":8},"indices":38,"material":0,"mode":4},{"attributes":{"NORMAL":24,"POSITION":9},"indices":39,"material":0,"mode":4},{"attributes":{"NORMAL":25,"POSITION":10},"indices":40,"material":0,"mode":4},{"attributes":{"NORMAL":26,"POSITION":11},"indices":41,"material":0,"mode":4},{"attributes":{"NORMAL":27,"POSITION":12},"indices":42,"material":0,"mode":4},{"attributes":{"NORMAL":28,"POSITION":13},"indices":43,"material":0,"mode":4},{"attributes":{"NORMAL":29,"POSITION":14},"indices":44,"material":0,"mode":4}]}],"nodes":[{"mesh":0,"name":"Gövde"}],"scene":0,"scenes":[{"nodes":[0]}]}