{"accessors":[{"bufferView":0,"byteOffset":0,"componentType":5126,"count":3336,"max":[0.014994304605374272,0.015,0.01498617434218439],"min":[-0.01498899271576215,-0.015,-0.01498617434218439],"type":"VEC3"},{"bufferView":1,"byteOffset":0,"componentType":5126,"count":3336,"type":"VEC3"},{"bufferView":2,"byteOffset":0,"componentType":5123,"count":19662,"type":"SCALAR"}],"asset":{"generator":"Open CASCADE Technology 7.8 [dev.opencascade.org]","version":"2.0"},"bufferViews":[{"buffer":0,"byteLength":40032,"byteOffset":0,"byteStride":12,"target":34962},{"buffer":0,"byteLength":40032,"byteOffset":40032,"byteStride":12,"target":34962},{"buffer":0,"byteLength":39324,"byteOffset":80064,"target":34963}],"buffers":[{"byteLength":119388,"uri":"workplane-7.bin"}],"materials":[{"name":"mat_0","pbrMetallicRoughness":{"baseColorFactor":[0.0,0.5225215554237366,1.0,1.0]},"doubleSided":true}],"meshes":[{"name":"Gövde","primitives":[{"attributes":{"NORMAL":1,"POSITION":0},"indices":2,"material":0,"mode":4}]}],"nodes":[{"mesh":0,"name":"Gövde"}],"scene":0,"scenes":[{"nodes":[0]}]}