{"accessors":[{"bufferView":0,"byteOffset":0,"componentType":5126,"count":4,"max":[0.013000000000000001,0.01,0.005],"min":[-0.013000000000000001,0.0,0.005],"type":"VEC3"},{"bufferView":0,"byteOffset":48,"componentType":5126,"count":120,"max":[0.015,0.0,0.005],"min":[-0.015,0.0,-0.005],"type":"VEC3"},{"bufferView":0,"byteOffset":1488,"componentType":5126,"count":60,"max":[-0.013000000000000001,0.01,0.005],"min":[-0.015,0.0,0.003],"type":"VEC3"},{"bufferView":0,"byteOffset":2208,"componentType":5126,"count":60,"max":[0.015,0.01,0.005],"min":[0.013000000000000001,0.0,0.003],"type":"VEC3"},{"bufferView":0,"byteOffset":2928,"componentType":5126,"count":120,"max":[0.015,0.01,0.005],"min":[-0.015,0.01,-0.005],"type":"VEC3"},{"bufferView":0,"byteOffset":4368,"componentType":5126,"count":4,"max":[-0.015,0.01,0.003],"min":[-0.015,0.0,-0.003],"type":"VEC3"},{"bufferView":0,"byteOffset":4416,"componentType":5126,"count":4,"max":[0.015,0.01,0.003],"min":[0.015,0.0,-0.003],"type":"VEC3"},{"bufferView":0,"byteOffset":4464,"componentType":5126,"count":60,"max":[-0.013000000000000001,0.01,-0.003],"min":[-0.015,0.0,-0.005],"type":"VEC3"},{"bufferView":0,"byteOffset":5184,"componentType":5126,"count":60,"max":[0.015,0.01,-0.003],"min":[0.013000000000000001,0.0,-0.005],"type":"VEC3"},{"bufferView":0,"byteOffset":5904,"componentType":5126,"count":4,"max":[0.013000000000000001,0.01,-0.005],"min":[-0.013000000000000001,0.0,-0.005],"type":"VEC3"},{"bufferView":1,"byteOffset":0,"componentType":5126,"count":4,"type":"VEC3"},{"bufferView":1,"byteOffset":48,"componentType":5126,"count":120,"type":"VEC3"},{"bufferView":1,"byteOffset":1488,"componentType":5126,"count":60,"type":"VEC3"},{"bufferView":1,"byteOffset":2208,"componentType":5126,"count":60,"type":"VEC3"},{"bufferView":1,"byteOffset":2928,"componentType":5126,"count":120,"type":"VEC3"},{"bufferView":1,"byteOffset":4368,"componentType":5126,"count":4,"type":"VEC3"},{"bufferView":1,"byteOffset":4416,"componentType":5126,"count":4,"type":"VEC3"},{"bufferView":1,"byteOffset":4464,"componentType":5126,"count":60,"type":"VEC3"},{"bufferView":1,"byteOffset":5184,"componentType":5126,"count":60,"type":"VEC3"},{"bufferView":1,"byteOffset":5904,"componentType":5126,"count":4,"type":"VEC3"},{"bufferView":2,"byteOffset":0,"componentType":5123,"count":6,"type":"SCALAR"},{"bufferView":2,"byteOffset":12,"componentType":5123,"count":354,"type":"SCALAR"},{"bufferView":2,"byteOffset":720,"componentType":5123,"count":174,"type":"SCALAR"},{"bufferView":2,"byteOffset":1068,"componentType":5123,"count":174,"type":"SCALAR"},{"bufferView":2,"byteOffset":1416,"componentType":5123,"count":354,"type":"SCALAR"},{"bufferView":2,"byteOffset":2124,"componentType":5123,"count":6,"type":"SCALAR"},{"bufferView":2,"byteOffset":2136,"componentType":5123,"count":6,"type":"SCALAR"},{"bufferView":2,"byteOffset":2148,"componentType":5123,"count":174,"type":"SCALAR"},{"bufferView":2,"byteOffset":2496,"componentType":5123,"count":174,"type":"SCALAR"},{"bufferView":2,"byteOffset":2844,"componentType":5123,"count":6,"type":"SCALAR"}],"asset":{"generator":"Open CASCADE Technology 7.8 [dev.opencascade.org]","version":"2.0"},"bufferViews":[{"buffer":0,"byteLength":5952,"byteOffset":0,"byteStride":12,"target":34962},{"buffer":0,"byteLength":5952,"byteOffset":5952,"byteStride":12,"target":34962},{"buffer":0,"byteLength":2856,"byteOffset":11904,"target":34963}],"buffers":[{"byteLength":14760,"uri":"workplane-4.bin"}],"materials":[{"name":"mat_0","pbrMetallicRoughness":{"baseColorFactor":[0.0,0.5225215554237366,1.0,1.0]},"doubleSided":true}],"meshes":[{"name":"Gövde","primitives":[{"attributes":{"NORMAL":10,"POSITION":0},"indices":20,"material":0,"mode":4},{"attributes":{"NORMAL":11,"POSITION":1},"indices":21,"material":0,"mode":4},{"attributes":{"NORMAL":12,"POSITION":2},"indices":22,"material":0,"mode":4},{"attributes":{"NORMAL":13,"POSITION":3},"indices":23,"material":0,"mode":4},{"attributes":{"NORMAL":14,"POSITION":4},"indices":24,"material":0,"mode":4},{"attributes":{"NORMAL":15,"POSITION":5},"indices":25,"material":0,"mode":4},{"attributes":{"NORMAL":16,"POSITION":6},"indices":26,"material":0,"mode":4},{"attributes":{"NORMAL":17,"POSITION":7},"indices":27,"material":0,"mode":4},{"attributes":{"NORMAL":18,"POSITION":8},"indices":28,"material":0,"mode":4},{"attributes":{"NORMAL":19,"POSITION":9},"indices":29,"material":0,"mode":4}]}],"nodes":[{"mesh":0,"name":"Gövde"}],"scene":0,"scenes":[{"nodes":[0]}]}