{"accessors":[{"bufferView":0,"byteOffset":0,"componentType":5126,"count":4,"max":[-0.0125,0.0075,0.015],"min":[-0.0125,-0.0075,-0.015],"type":"VEC3"},{"bufferView":0,"byteOffset":48,"componentType":5126,"count":4,"max":[0.0125,0.0075,0.015],"min":[-0.0125,-0.0075,0.015],"type":"VEC3"},{"bufferView":0,"byteOffset":96,"componentType":5126,"count":117,"max":[0.0125,0.0075,0.015],"min":[-0.0125,0.0075,-0.015],"type":"VEC3"},{"bufferView":0,"byteOffset":1500,"componentType":5126,"count":4,"max":[0.0125,0.0075,-0.015],"min":[-0.0125,-0.0075,-0.015],"type":"VEC3"},{"bufferView":0,"byteOffset":1548,"componentType":5126,"count":4,"max":[0.0125,-0.0075,0.015],"min":[-0.0125,-0.0075,-0.015],"type":"VEC3"},{"bufferView":0,"byteOffset":1596,"componentType":5126,"count":4,"max":[0.0125,0.0075,0.015],"min":[0.0125,-0.0075,-0.015],"type":"VEC3"},{"bufferView":0,"byteOffset":1644,"componentType":5126,"count":228,"max":[0.00525,0.052000000000000005,0.005249492769708501],"min":[-0.00524797117684641,0.0075,-0.0052494927697085],"type":"VEC3"},{"bufferView":0,"byteOffset":4380,"componentType":5126,"count":113,"max":[0.00525,0.052000000000000005,0.005249492769708501],"min":[-0.00524797117684641,0.052000000000000005,-0.0052494927697085],"type":"VEC3"},{"bufferView":0,"byteOffset":5736,"componentType":5126,"count":3336,"max":[0.014994304605374272,0.082,0.01498617434218439],"min":[-0.01498899271576215,0.052000000000000005,-0.01498617434218439],"type":"VEC3"},{"bufferView":1,"byteOffset":0,"componentType":5126,"count":4,"type":"VEC3"},{"bufferView":1,"byteOffset":48,"componentType":5126,"count":4,"type":"VEC3"},{"bufferView":1,"byteOffset":96,"componentType":5126,"count":117,"type":"VEC3"},{"bufferView":1,"byteOffset":1500,"componentType":5126,"count":4,"type":"VEC3"},{"bufferView":1,"byteOffset":1548,"componentType":5126,"count":4,"type":"VEC3"},{"bufferView":1,"byteOffset":1596,"componentType":5126,"count":4,"type":"VEC3"},{"bufferView":1,"byteOffset":1644,"componentType":5126,"count":228,"type":"VEC3"},{"bufferView":1,"byteOffset":4380,"componentType":5126,"count":113,"type":"VEC3"},{"bufferView":1,"byteOffset":5736,"componentType":5126,"count":3336,"type":"VEC3"},{"bufferView":2,"byteOffset":0,"componentType":5123,"count":6,"type":"SCALAR"},{"bufferView":2,"byteOffset":12,"componentType":5123,"count":6,"type":"SCALAR"},{"bufferView":2,"byteOffset":24,"componentType":5123,"count":351,"type":"SCALAR"},{"bufferView":2,"byteOffset":728,"componentType":5123,"count":6,"type":"SCALAR"},{"bufferView":2,"byteOffset":740,"componentType":5123,"count":6,"type":"SCALAR"},{"bufferView":2,"byteOffset":752,"componentType":5123,"count":6,"type":"SCALAR"},{"bufferView":2,"byteOffset":764,"componentType":5123,"count":678,"type":"SCALAR"},{"bufferView":2,"byteOffset":2120,"componentType":5123,"count":333,"type":"SCALAR"},{"bufferView":2,"byteOffset":2788,"componentType":5123,"count":19662,"type":"SCALAR"}],"asset":{"generator":"Open CASCADE Technology 7.8 [dev.opencascade.org]","version":"2.0"},"bufferViews":[{"buffer":0,"byteLength":45768,"byteOffset":0,"byteStride":12,"target":34962},{"buffer":0,"byteLength":45768,"byteOffset":45768,"byteStride":12,"target":34962},{"buffer":0,"byteLength":42112,"byteOffset":91536,"target":34963}],"buffers":[{"byteLength":133648,"uri":"workplane-9.bin"}],"materials":[{"name":"mat_0","pbrMetallicRoughness":{"baseColorFactor":[0.0,0.5225215554237366,1.0,1.0]},"doubleSided":true}],"meshes":[{"name":"Open CASCADE STEP translator 7.8 86.1","primitives":[{"attributes":{"NORMAL":9,"POSITION":0},"indices":18,"material":0,"mode":4},{"attributes":{"NORMAL":10,"POSITION":1},"indices":19,"material":0,"mode":4},{"attributes":{"NORMAL":11,"POSITION":2},"indices":20,"material":0,"mode":4},{"attributes":{"NORMAL":12,"POSITION":3},"indices":21,"material":0,"mode":4},{"attributes":{"NORMAL":13,"POSITION":4},"indices":22,"material":0,"mode":4},{"attributes":{"NORMAL":14,"POSITION":5},"indices":23,"material":0,"mode":4},{"attributes":{"NORMAL":15,"POSITION":6},"indices":24,"material":0,"mode":4},{"attributes":{"NORMAL":16,"POSITION":7},"indices":25,"material":0,"mode":4}]},{"name":"Open CASCADE STEP translator 7.8 86.2","primitives":[{"attributes":{"NORMAL":17,"POSITION":8},"indices":26,"material":0,"mode":4}]}],"nodes":[{"children":[1,2],"name":"Open CASCADE STEP translator 7.8 86"},{"mesh":0,"name":"Open CASCADE STEP translator 7.8 86.1"},{"mesh":1,"name":"Open CASCADE STEP translator 7.8 86.2"}],"scene":0,"scenes":[{"nodes":[0]}]}