{"accessors":[{"bufferView":0,"byteOffset":0,"componentType":5126,"count":4,"max":[-40.0,30.0,10.0],"min":[-40.0,-30.0,0.0],"type":"VEC3"},{"bufferView":0,"byteOffset":48,"componentType":5126,"count":4,"max":[40.0,30.0,10.0],"min":[40.0,-30.0,0.0],"type":"VEC3"},{"bufferView":0,"byteOffset":96,"componentType":5126,"count":4,"max":[40.0,-30.0,10.0],"min":[-40.0,-30.0,0.0],"type":"VEC3"},{"bufferView":0,"byteOffset":144,"componentType":5126,"count":4,"max":[40.0,30.0,10.0],"min":[-40.0,30.0,0.0],"type":"VEC3"},{"bufferView":0,"byteOffset":192,"componentType":5126,"count":4,"max":[40.0,30.0,0.0],"min":[-40.0,-30.0,0.0],"type":"VEC3"},{"bufferView":0,"byteOffset":240,"componentType":5126,"count":4,"max":[40.0,30.0,10.0],"min":[-40.0,-30.0,10.0],"type":"VEC3"},{"bufferView":0,"byteOffset":288,"componentType":5126,"count":1406,"max":[4.0,3.998756728003265,25.0],"min":[-4.0,-3.998756728003266,0.0],"type":"VEC3"},{"bufferView":0,"byteOffset":17160,"componentType":5126,"count":126,"max":[4.0,3.998756728003265,0.0],"min":[-4.0,-3.998756728003266,0.0],"type":"VEC3"},{"bufferView":0,"byteOffset":18672,"componentType":5126,"count":126,"max":[3.0,2.9990675460024487,25.0],"min":[-3.0,-2.9990675460024496,25.0],"type":"VEC3"},{"bufferView":0,"byteOffset":20184,"componentType":5126,"count":254,"max":[2.0,1.9993783640016325,7.5],"min":[-2.0,-1.999378364001633,-7.5],"type":"VEC3"},{"bufferView":0,"byteOffset":23232,"componentType":5126,"count":126,"max":[2.0,1.9993783640016325,7.5],"min":[-2.0,-1.999378364001633,7.5],"type":"VEC3"},{"bufferView":0,"byteOffset":24744,"componentType":5126,"count":126,"max":[2.0,1.9993783640016325,-7.5],"min":[-2.0,-1.999378364001633,-7.5],"type":"VEC3"},{"bufferView":0,"byteOffset":26256,"componentType":5126,"count":254,"max":[2.0,1.9993783640016325,7.5],"min":[-2.0,-1.999378364001633,-7.5],"type":"VEC3"},{"bufferView":0,"byteOffset":29304,"componentType":5126,"count":126,"max":[2.0,1.9993783640016325,7.5],"min":[-2.0,-1.999378364001633,7.5],"type":"VEC3"},{"bufferView":0,"byteOffset":30816,"componentType":5126,"count":126,"max":[2.0,1.9993783640016325,-7.5],"min":[-2.0,-1.999378364001633,-7.5],"type":"VEC3"},{"bufferView":0,"byteOffset":32328,"componentType":5126,"count":254,"max":[2.0,1.9993783640016325,7.5],"min":[-2.0,-1.999378364001633,-7.5],"type":"VEC3"},{"bufferView":0,"byteOffset":35376,"componentType":5126,"count":126,"max":[2.0,1.9993783640016325,7.5],"min":[-2.0,-1.999378364001633,7.5],"type":"VEC3"},{"bufferView":0,"byteOffset":36888,"componentType":5126,"count":126,"max":[2.0,1.9993783640016325,-7.5],"min":[-2.0,-1.999378364001633,-7.5],"type":"VEC3"},{"bufferView":0,"byteOffset":38400,"componentType":5126,"count":254,"max":[2.0,1.9993783640016325,7.5],"min":[-2.0,-1.999378364001633,-7.5],"type":"VEC3"},{"bufferView":0,"byteOffset":41448,"componentType":5126,"count":126,"max":[2.0,1.9993783640016325,7.5],"min":[-2.0,-1.999378364001633,7.5],"type":"VEC3"},{"bufferView":0,"byteOffset":42960,"componentType":5126,"count":126,"max":[2.0,1.9993783640016325,-7.5],"min":[-2.0,-1.999378364001633,-7.5],"type":"VEC3"},{"bufferView":0,"byteOffset":44472,"componentType":5126,"count":4,"max":[-28.0,21.0,4.0],"min":[-28.0,-21.0,-4.0],"type":"VEC3"},{"bufferView":0,"byteOffset":44520,"componentType":5126,"count":4,"max":[28.0,21.0,4.0],"min":[28.0,-21.0,-4.0],"type":"VEC3"},{"bufferView":0,"byteOffset":44568,"componentType":5126,"count":4,"max":[28.0,-21.0,4.0],"min":[-28.0,-21.0,-4.0],"type":"VEC3"},{"bufferView":0,"byteOffset":44616,"componentType":5126,"count":4,"max":[28.0,21.0,4.0],"min":[-28.0,21.0,-4.0],"type":"VEC3"},{"bufferView":0,"byteOffset":44664,"componentType":5126,"count":4,"max":[28.0,21.0,-4.0],"min":[-28.0,-21.0,-4.0],"type":"VEC3"},{"bufferView":0,"byteOffset":44712,"componentType":5126,"count":4,"max":[28.0,21.0,4.0],"min":[-28.0,-21.0,4.0],"type":"VEC3"},{"bufferView":0,"byteOffset":44760,"componentType":5126,"count":4,"max":[-22.400000000000002,16.8,4.0],"min":[-22.400000000000002,-16.8,-4.0],"type":"VEC3"},{"bufferView":0,"byteOffset":44808,"componentType":5126,"count":4,"max":[22.400000000000002,16.8,4.0],"min":[22.400000000000002,-16.8,-4.0],"type":"VEC3"},{"bufferView":0,"byteOffset":44856,"componentType":5126,"count":4,"max":[22.400000000000002,-16.8,4.0],"min":[-22.400000000000002,-16.8,-4.0],"type":"VEC3"},{"bufferView":0,"byteOffset":44904,"componentType":5126,"count":4,"max":[22.400000000000002,16.8,4.0],"min":[-22.400000000000002,16.8,-4.0],"type":"VEC3"},{"bufferView":0,"byteOffset":44952,"componentType":5126,"count":4,"max":[22.400000000000002,16.8,-4.0],"min":[-22.400000000000002,-16.8,-4.0],"type":"VEC3"},{"bufferView":0,"byteOffset":45000,"componentType":5126,"count":4,"max":[22.400000000000002,16.8,4.0],"min":[-22.400000000000002,-16.8,4.0],"type":"VEC3"},{"bufferView":0,"byteOffset":45048,"componentType":5126,"count":4,"max":[-17.92,13.440000000000001,4.0],"min":[-17.92,-13.440000000000001,-4.0],"type":"VEC3"},{"bufferView":0,"byteOffset":45096,"componentType":5126,"count":4,"max":[17.92,13.440000000000001,4.0],"min":[17.92,-13.440000000000001,-4.0],"type":"VEC3"},{"bufferView":0,"byteOffset":45144,"componentType":5126,"count":4,"max":[17.92,-13.440000000000001,4.0],"min":[-17.92,-13.440000000000001,-4.0],"type":"VEC3"},{"bufferView":0,"byteOffset":45192,"componentType":5126,"count":4,"max":[17.92,13.440000000000001,4.0],"min":[-17.92,13.440000000000001,-4.0],"type":"VEC3"},{"bufferView":0,"byteOffset":45240,"componentType":5126,"count":4,"max":[17.92,13.440000000000001,-4.0],"min":[-17.92,-13.440000000000001,-4.0],"type":"VEC3"},{"bufferView":0,"byteOffset":45288,"componentType":5126,"count":4,"max":[17.92,13.440000000000001,4.0],"min":[-17.92,-13.440000000000001,4.0],"type":"VEC3"},{"bufferView":1,"byteOffset":0,"componentType":5126,"count":4,"type":"VEC3"},{"bufferView":1,"byteOffset":48,"componentType":5126,"count":4,"type":"VEC3"},{"bufferView":1,"byteOffset":96,"componentType":5126,"count":4,"type":"VEC3"},{"bufferView":1,"byteOffset":144,"componentType":5126,"count":4,"type":"VEC3"},{"bufferView":1,"byteOffset":192,"componentType":5126,"count":4,"type":"VEC3"},{"bufferView":1,"byteOffset":240,"componentType":5126,"count":4,"type":"VEC3"},{"bufferView":1,"byteOffset":288,"componentType":5126,"count":1406,"type":"VEC3"},{"bufferView":1,"byteOffset":17160,"componentType":5126,"count":126,"type":"VEC3"},{"bufferView":1,"byteOffset":18672,"componentType":5126,"count":126,"type":"VEC3"},{"bufferView":1,"byteOffset":20184,"componentType":5126,"count":254,"type":"VEC3"},{"bufferView":1,"byteOffset":23232,"componentType":5126,"count":126,"type":"VEC3"},{"bufferView":1,"byteOffset":24744,"componentType":5126,"count":126,"type":"VEC3"},{"bufferView":1,"byteOffset":26256,"componentType":5126,"count":254,"type":"VEC3"},{"bufferView":1,"byteOffset":29304,"componentType":5126,"count":126,"type":"VEC3"},{"bufferView":1,"byteOffset":30816,"componentType":5126,"count":126,"type":"VEC3"},{"bufferView":1,"byteOffset":32328,"componentType":5126,"count":254,"type":"VEC3"},{"bufferView":1,"byteOffset":35376,"componentType":5126,"count":126,"type":"VEC3"},{"bufferView":1,"byteOffset":36888,"componentType":5126,"count":126,"type":"VEC3"},{"bufferView":1,"byteOffset":38400,"componentType":5126,"count":254,"type":"VEC3"},{"bufferView":1,"byteOffset":41448,"componentType":5126,"count":126,"type":"VEC3"},{"bufferView":1,"byteOffset":42960,"componentType":5126,"count":126,"type":"VEC3"},{"bufferView":1,"byteOffset":44472,"componentType":5126,"count":4,"type":"VEC3"},{"bufferView":1,"byteOffset":44520,"componentType":5126,"count":4,"type":"VEC3"},{"bufferView":1,"byteOffset":44568,"componentType":5126,"count":4,"type":"VEC3"},{"bufferView":1,"byteOffset":44616,"componentType":5126,"count":4,"type":"VEC3"},{"bufferView":1,"byteOffset":44664,"componentType":5126,"count":4,"type":"VEC3"},{"bufferView":1,"byteOffset":44712,"componentType":5126,"count":4,"type":"VEC3"},{"bufferView":1,"byteOffset":44760,"componentType":5126,"count":4,"type":"VEC3"},{"bufferView":1,"byteOffset":44808,"componentType":5126,"count":4,"type":"VEC3"},{"bufferView":1,"byteOffset":44856,"componentType":5126,"count":4,"type":"VEC3"},{"bufferView":1,"byteOffset":44904,"componentType":5126,"count":4,"type":"VEC3"},{"bufferView":1,"byteOffset":44952,"componentType":5126,"count":4,"type":"VEC3"},{"bufferView":1,"byteOffset":45000,"componentType":5126,"count":4,"type":"VEC3"},{"bufferView":1,"byteOffset":45048,"componentType":5126,"count":4,"type":"VEC3"},{"bufferView":1,"byteOffset":45096,"componentType":5126,"count":4,"type":"VEC3"},{"bufferView":1,"byteOffset":45144,"componentType":5126,"count":4,"type":"VEC3"},{"bufferView":1,"byteOffset":45192,"componentType":5126,"count":4,"type":"VEC3"},{"bufferView":1,"byteOffset":45240,"componentType":5126,"count":4,"type":"VEC3"},{"bufferView":1,"byteOffset":45288,"componentType":5126,"count":4,"type":"VEC3"},{"bufferView":2,"byteOffset":0,"componentType":5123,"count":6,"type":"SCALAR"},{"bufferView":2,"byteOffset":12,"componentType":5123,"count":6,"type":"SCALAR"},{"bufferView":2,"byteOffset":24,"componentType":5123,"count":6,"type":"SCALAR"},{"bufferView":2,"byteOffset":36,"componentType":5123,"count":6,"type":"SCALAR"},{"bufferView":2,"byteOffset":48,"componentType":5123,"count":6,"type":"SCALAR"},{"bufferView":2,"byteOffset":60,"componentType":5123,"count":6,"type":"SCALAR"},{"bufferView":2,"byteOffset":72,"componentType":5123,"count":7560,"type":"SCALAR"},{"bufferView":2,"byteOffset":15192,"componentType":5123,"count":372,"type":"SCALAR"},{"bufferView":2,"byteOffset":15936,"componentType":5123,"count":372,"type":"SCALAR"},{"bufferView":2,"byteOffset":16680,"componentType":5123,"count":756,"type":"SCALAR"},{"bufferView":2,"byteOffset":18192,"componentType":5123,"count":372,"type":"SCALAR"},{"bufferView":2,"byteOffset":18936,"componentType":5123,"count":372,"type":"SCALAR"},{"bufferView":2,"byteOffset":19680,"componentType":5123,"count":756,"type":"SCALAR"},{"bufferView":2,"byteOffset":21192,"componentType":5123,"count":372,"type":"SCALAR"},{"bufferView":2,"byteOffset":21936,"componentType":5123,"count":372,"type":"SCALAR"},{"bufferView":2,"byteOffset":22680,"componentType":5123,"count":756,"type":"SCALAR"},{"bufferView":2,"byteOffset":24192,"componentType":5123,"count":372,"type":"SCALAR"},{"bufferView":2,"byteOffset":24936,"componentType":5123,"count":372,"type":"SCALAR"},{"bufferView":2,"byteOffset":25680,"componentType":5123,"count":756,"type":"SCALAR"},{"bufferView":2,"byteOffset":27192,"componentType":5123,"count":372,"type":"SCALAR"},{"bufferView":2,"byteOffset":27936,"componentType":5123,"count":372,"type":"SCALAR"},{"bufferView":2,"byteOffset":28680,"componentType":5123,"count":6,"type":"SCALAR"},{"bufferView":2,"byteOffset":28692,"componentType":5123,"count":6,"type":"SCALAR"},{"bufferView":2,"byteOffset":28704,"componentType":5123,"count":6,"type":"SCALAR"},{"bufferView":2,"byteOffset":28716,"componentType":5123,"count":6,"type":"SCALAR"},{"bufferView":2,"byteOffset":28728,"componentType":5123,"count":6,"type":"SCALAR"},{"bufferView":2,"byteOffset":28740,"componentType":5123,"count":6,"type":"SCALAR"},{"bufferView":2,"byteOffset":28752,"componentType":5123,"count":6,"type":"SCALAR"},{"bufferView":2,"byteOffset":28764,"componentType":5123,"count":6,"type":"SCALAR"},{"bufferView":2,"byteOffset":28776,"componentType":5123,"count":6,"type":"SCALAR"},{"bufferView":2,"byteOffset":28788,"componentType":5123,"count":6,"type":"SCALAR"},{"bufferView":2,"byteOffset":28800,"componentType":5123,"count":6,"type":"SCALAR"},{"bufferView":2,"byteOffset":28812,"componentType":5123,"count":6,"type":"SCALAR"},{"bufferView":2,"byteOffset":28824,"componentType":5123,"count":6,"type":"SCALAR"},{"bufferView":2,"byteOffset":28836,"componentType":5123,"count":6,"type":"SCALAR"},{"bufferView":2,"byteOffset":28848,"componentType":5123,"count":6,"type":"SCALAR"},{"bufferView":2,"byteOffset":28860,"componentType":5123,"count":6,"type":"SCALAR"},{"bufferView":2,"byteOffset":28872,"componentType":5123,"count":6,"type":"SCALAR"},{"bufferView":2,"byteOffset":28884,"componentType":5123,"count":6,"type":"SCALAR"}],"asset":{"generator":"Open CASCADE Technology 7.8 [dev.opencascade.org]","version":"2.0"},"bufferViews":[{"buffer":0,"byteLength":45336,"byteOffset":0,"byteStride":12,"target":34962},{"buffer":0,"byteLength":45336,"byteOffset":45336,"byteStride":12,"target":34962},{"buffer":0,"byteLength":28896,"byteOffset":90672,"target":34963}],"buffers":[{"byteLength":119568,"uri":"yaratici_plaka_montaji.bin"}],"materials":[{"name":"mat_0","pbrMetallicRoughness":{"baseColorFactor":[0.6514059901237488,0.6514059901237488,0.6514059901237488,1.0]},"doubleSided":true},{"name":"mat_1","pbrMetallicRoughness":{"baseColorFactor":[1.0,0.0,0.0,1.0]},"doubleSided":true},{"name":"mat_2","pbrMetallicRoughness":{"baseColorFactor":[0.06124600023031235,0.22322799265384674,0.4564110040664673,1.0]},"doubleSided":true},{"name":"mat_3","pbrMetallicRoughness":{"baseColorFactor":[0.20000000298023224,0.699999988079071,0.5,1.0]},"doubleSided":true},{"name":"mat_4","pbrMetallicRoughness":{"baseColorFactor":[0.4000000059604645,0.6000000238418579,0.6000000238418579,1.0]},"doubleSided":true},{"name":"mat_5","pbrMetallicRoughness":{"baseColorFactor":[0.6000000238418579,0.5,0.699999988079071,1.0]},"doubleSided":true}],"meshes":[{"name":"ana_plaka_part","primitives":[{"attributes":{"NORMAL":39,"POSITION":0},"indices":78,"material":0,"mode":4},{"attributes":{"NORMAL":40,"POSITION":1},"indices":79,"material":0,"mode":4},{"attributes":{"NORMAL":41,"POSITION":2},"indices":80,"material":0,"mode":4},{"attributes":{"NORMAL":42,"POSITION":3},"indices":81,"material":0,"mode":4},{"attributes":{"NORMAL":43,"POSITION":4},"indices":82,"material":0,"mode":4},{"attributes":{"NORMAL":44,"POSITION":5},"indices":83,"material":0,"mode":4}]},{"name":"ana_pim_part","primitives":[{"attributes":{"NORMAL":45,"POSITION":6},"indices":84,"material":1,"mode":4},{"attributes":{"NORMAL":46,"POSITION":7},"indices":85,"material":1,"mode":4},{"attributes":{"NORMAL":47,"POSITION":8},"indices":86,"material":1,"mode":4}]},{"name":"kose_pimi_1_part","primitives":[{"attributes":{"NORMAL":48,"POSITION":9},"indices":87,"material":2,"mode":4},{"attributes":{"NORMAL":49,"POSITION":10},"indices":88,"material":2,"mode":4},{"attributes":{"NORMAL":50,"POSITION":11},"indices":89,"material":2,"mode":4}]},{"name":"kose_pimi_2_part","primitives":[{"attributes":{"NORMAL":51,"POSITION":12},"indices":90,"material":2,"mode":4},{"attributes":{"NORMAL":52,"POSITION":13},"indices":91,"material":2,"mode":4},{"attributes":{"NORMAL":53,"POSITION":14},"indices":92,"material":2,"mode":4}]},{"name":"kose_pimi_3_part","primitives":[{"attributes":{"NORMAL":54,"POSITION":15},"indices":93,"material":2,"mode":4},{"attributes":{"NORMAL":55,"POSITION":16},"indices":94,"material":2,"mode":4},{"attributes":{"NORMAL":56,"POSITION":17},"indices":95,"material":2,"mode":4}]},{"name":"kose_pimi_4_part","primitives":[{"attributes":{"NORMAL":57,"POSITION":18},"indices":96,"material":2,"mode":4},{"attributes":{"NORMAL":58,"POSITION":19},"indices":97,"material":2,"mode":4},{"attributes":{"NORMAL":59,"POSITION":20},"indices":98,"material":2,"mode":4}]},{"name":"ust_yapi_katman_1_part","primitives":[{"attributes":{"NORMAL":60,"POSITION":21},"indices":99,"material":3,"mode":4},{"attributes":{"NORMAL":61,"POSITION":22},"indices":100,"material":3,"mode":4},{"attributes":{"NORMAL":62,"POSITION":23},"indices":101,"material":3,"mode":4},{"attributes":{"NORMAL":63,"POSITION":24},"indices":102,"material":3,"mode":4},{"attributes":{"NORMAL":64,"POSITION":25},"indices":103,"material":3,"mode":4},{"attributes":{"NORMAL":65,"POSITION":26},"indices":104,"material":3,"mode":4}]},{"name":"ust_yapi_katman_2_part","primitives":[{"attributes":{"NORMAL":66,"POSITION":27},"indices":105,"material":4,"mode":4},{"attributes":{"NORMAL":67,"POSITION":28},"indices":106,"material":4,"mode":4},{"attributes":{"NORMAL":68,"POSITION":29},"indices":107,"material":4,"mode":4},{"attributes":{"NORMAL":69,"POSITION":30},"indices":108,"material":4,"mode":4},{"attributes":{"NORMAL":70,"POSITION":31},"indices":109,"material":4,"mode":4},{"attributes":{"NORMAL":71,"POSITION":32},"indices":110,"material":4,"mode":4}]},{"name":"ust_yapi_katman_3_part","primitives":[{"attributes":{"NORMAL":72,"POSITION":33},"indices":111,"material":5,"mode":4},{"attributes":{"NORMAL":73,"POSITION":34},"indices":112,"material":5,"mode":4},{"attributes":{"NORMAL":74,"POSITION":35},"indices":113,"material":5,"mode":4},{"attributes":{"NORMAL":75,"POSITION":36},"indices":114,"material":5,"mode":4},{"attributes":{"NORMAL":76,"POSITION":37},"indices":115,"material":5,"mode":4},{"attributes":{"NORMAL":77,"POSITION":38},"indices":116,"material":5,"mode":4}]}],"nodes":[{"children":[1,3,5,7,9,11,13,15,17],"rotation":[-0.7071067811865475,0.0,0.0,0.7071067811865475],"name":"YaraticiPlakaMontaji"},{"children":[2],"name":"ana_plaka"},{"mesh":0,"name":"ana_plaka_part"},{"children":[4],"translation":[0.0,0.0,10.0],"name":"ana_pim"},{"mesh":1,"name":"ana_pim_part"},{"children":[6],"translation":[30.0,20.0,10.0],"name":"kose_pimi_1"},{"mesh":2,"name":"kose_pimi_1_part"},{"children":[8],"translation":[-30.0,20.0,10.0],"name":"kose_pimi_2"},{"mesh":3,"name":"kose_pimi_2_part"},{"children":[10],"translation":[-30.0,-20.0,10.0],"name":"kose_pimi_3"},{"mesh":4,"name":"kose_pimi_3_part"},{"children":[12],"translation":[30.0,-20.0,10.0],"name":"kose_pimi_4"},{"mesh":5,"name":"kose_pimi_4_part"},{"children":[14],"translation":[0.0,0.0,14.0],"name":"ust_yapi_katman_1"},{"mesh":6,"name":"ust_yapi_katman_1_part"},{"children":[16],"translation":[0.0,0.0,22.0],"name":"ust_yapi_katman_2"},{"mesh":7,"name":"ust_yapi_katman_2_part"},{"children":[18],"translation":[0.0,0.0,30.0],"name":"ust_yapi_katman_3"},{"mesh":8,"name":"ust_yapi_katman_3_part"}],"scene":0,"scenes":[{"nodes":[0]}]}