{"accessors":[{"bufferView":0,"byteOffset":0,"componentType":5126,"count":254,"max":[140.0,139.95648548011428,20.0],"min":[-140.0,-139.9564854801143,0.0],"type":"VEC3"},{"bufferView":0,"byteOffset":3048,"componentType":5126,"count":126,"max":[140.0,139.95648548011428,0.0],"min":[-140.0,-139.9564854801143,0.0],"type":"VEC3"},{"bufferView":0,"byteOffset":4560,"componentType":5126,"count":126,"max":[140.0,139.95648548011428,20.0],"min":[-140.0,-139.9564854801143,20.0],"type":"VEC3"},{"bufferView":0,"byteOffset":6072,"componentType":5126,"count":4,"max":[-15.0,15.0,350.0],"min":[-15.0,-15.0,0.0],"type":"VEC3"},{"bufferView":0,"byteOffset":6120,"componentType":5126,"count":4,"max":[15.0,-15.0,350.0],"min":[-15.0,-15.0,0.0],"type":"VEC3"},{"bufferView":0,"byteOffset":6168,"componentType":5126,"count":130,"max":[15.0,15.0,350.0],"min":[-15.0,-15.0,350.0],"type":"VEC3"},{"bufferView":0,"byteOffset":7728,"componentType":5126,"count":4,"max":[15.0,15.0,350.0],"min":[-15.0,15.0,0.0],"type":"VEC3"},{"bufferView":0,"byteOffset":7776,"componentType":5126,"count":4,"max":[15.0,15.0,0.0],"min":[-15.0,-15.0,0.0],"type":"VEC3"},{"bufferView":0,"byteOffset":7824,"componentType":5126,"count":4,"max":[15.0,15.0,350.0],"min":[15.0,-15.0,0.0],"type":"VEC3"},{"bufferView":0,"byteOffset":7872,"componentType":5126,"count":254,"max":[3.0,2.9990675460024487,350.0],"min":[-3.0,-2.9990675460024496,262.5],"type":"VEC3"},{"bufferView":0,"byteOffset":10920,"componentType":5126,"count":126,"max":[3.0,2.9990675460024487,262.5],"min":[-3.0,-2.9990675460024496,262.5],"type":"VEC3"},{"bufferView":0,"byteOffset":12432,"componentType":5126,"count":4,"max":[-15.0,15.0,350.0],"min":[-15.0,-15.0,0.0],"type":"VEC3"},{"bufferView":0,"byteOffset":12480,"componentType":5126,"count":4,"max":[15.0,-15.0,350.0],"min":[-15.0,-15.0,0.0],"type":"VEC3"},{"bufferView":0,"byteOffset":12528,"componentType":5126,"count":130,"max":[15.0,15.0,350.0],"min":[-15.0,-15.0,350.0],"type":"VEC3"},{"bufferView":0,"byteOffset":14088,"componentType":5126,"count":4,"max":[15.0,15.0,350.0],"min":[-15.0,15.0,0.0],"type":"VEC3"},{"bufferView":0,"byteOffset":14136,"componentType":5126,"count":4,"max":[15.0,15.0,0.0],"min":[-15.0,-15.0,0.0],"type":"VEC3"},{"bufferView":0,"byteOffset":14184,"componentType":5126,"count":4,"max":[15.0,15.0,350.0],"min":[15.0,-15.0,0.0],"type":"VEC3"},{"bufferView":0,"byteOffset":14232,"componentType":5126,"count":254,"max":[3.0,2.9990675460024487,350.0],"min":[-3.0,-2.9990675460024496,262.5],"type":"VEC3"},{"bufferView":0,"byteOffset":17280,"componentType":5126,"count":126,"max":[3.0,2.9990675460024487,262.5],"min":[-3.0,-2.9990675460024496,262.5],"type":"VEC3"},{"bufferView":0,"byteOffset":18792,"componentType":5126,"count":4,"max":[-15.0,15.0,350.0],"min":[-15.0,-15.0,0.0],"type":"VEC3"},{"bufferView":0,"byteOffset":18840,"componentType":5126,"count":4,"max":[15.0,-15.0,350.0],"min":[-15.0,-15.0,0.0],"type":"VEC3"},{"bufferView":0,"byteOffset":18888,"componentType":5126,"count":130,"max":[15.0,15.0,350.0],"min":[-15.0,-15.0,350.0],"type":"VEC3"},{"bufferView":0,"byteOffset":20448,"componentType":5126,"count":4,"max":[15.0,15.0,350.0],"min":[-15.0,15.0,0.0],"type":"VEC3"},{"bufferView":0,"byteOffset":20496,"componentType":5126,"count":4,"max":[15.0,15.0,0.0],"min":[-15.0,-15.0,0.0],"type":"VEC3"},{"bufferView":0,"byteOffset":20544,"componentType":5126,"count":4,"max":[15.0,15.0,350.0],"min":[15.0,-15.0,0.0],"type":"VEC3"},{"bufferView":0,"byteOffset":20592,"componentType":5126,"count":254,"max":[3.0,2.9990675460024487,350.0],"min":[-3.0,-2.9990675460024496,262.5],"type":"VEC3"},{"bufferView":0,"byteOffset":23640,"componentType":5126,"count":126,"max":[3.0,2.9990675460024487,262.5],"min":[-3.0,-2.9990675460024496,262.5],"type":"VEC3"},{"bufferView":0,"byteOffset":25152,"componentType":5126,"count":4,"max":[-15.0,15.0,350.0],"min":[-15.0,-15.0,0.0],"type":"VEC3"},{"bufferView":0,"byteOffset":25200,"componentType":5126,"count":4,"max":[15.0,-15.0,350.0],"min":[-15.0,-15.0,0.0],"type":"VEC3"},{"bufferView":0,"byteOffset":25248,"componentType":5126,"count":130,"max":[15.0,15.0,350.0],"min":[-15.0,-15.0,350.0],"type":"VEC3"},{"bufferView":0,"byteOffset":26808,"componentType":5126,"count":4,"max":[15.0,15.0,350.0],"min":[-15.0,15.0,0.0],"type":"VEC3"},{"bufferView":0,"byteOffset":26856,"componentType":5126,"count":4,"max":[15.0,15.0,0.0],"min":[-15.0,-15.0,0.0],"type":"VEC3"},{"bufferView":0,"byteOffset":26904,"componentType":5126,"count":4,"max":[15.0,15.0,350.0],"min":[15.0,-15.0,0.0],"type":"VEC3"},{"bufferView":0,"byteOffset":26952,"componentType":5126,"count":254,"max":[3.0,2.9990675460024487,350.0],"min":[-3.0,-2.9990675460024496,262.5],"type":"VEC3"},{"bufferView":0,"byteOffset":30000,"componentType":5126,"count":126,"max":[3.0,2.9990675460024487,262.5],"min":[-3.0,-2.9990675460024496,262.5],"type":"VEC3"},{"bufferView":1,"byteOffset":0,"componentType":5126,"count":254,"type":"VEC3"},{"bufferView":1,"byteOffset":3048,"componentType":5126,"count":126,"type":"VEC3"},{"bufferView":1,"byteOffset":4560,"componentType":5126,"count":126,"type":"VEC3"},{"bufferView":1,"byteOffset":6072,"componentType":5126,"count":4,"type":"VEC3"},{"bufferView":1,"byteOffset":6120,"componentType":5126,"count":4,"type":"VEC3"},{"bufferView":1,"byteOffset":6168,"componentType":5126,"count":130,"type":"VEC3"},{"bufferView":1,"byteOffset":7728,"componentType":5126,"count":4,"type":"VEC3"},{"bufferView":1,"byteOffset":7776,"componentType":5126,"count":4,"type":"VEC3"},{"bufferView":1,"byteOffset":7824,"componentType":5126,"count":4,"type":"VEC3"},{"bufferView":1,"byteOffset":7872,"componentType":5126,"count":254,"type":"VEC3"},{"bufferView":1,"byteOffset":10920,"componentType":5126,"count":126,"type":"VEC3"},{"bufferView":1,"byteOffset":12432,"componentType":5126,"count":4,"type":"VEC3"},{"bufferView":1,"byteOffset":12480,"componentType":5126,"count":4,"type":"VEC3"},{"bufferView":1,"byteOffset":12528,"componentType":5126,"count":130,"type":"VEC3"},{"bufferView":1,"byteOffset":14088,"componentType":5126,"count":4,"type":"VEC3"},{"bufferView":1,"byteOffset":14136,"componentType":5126,"count":4,"type":"VEC3"},{"bufferView":1,"byteOffset":14184,"componentType":5126,"count":4,"type":"VEC3"},{"bufferView":1,"byteOffset":14232,"componentType":5126,"count":254,"type":"VEC3"},{"bufferView":1,"byteOffset":17280,"componentType":5126,"count":126,"type":"VEC3"},{"bufferView":1,"byteOffset":18792,"componentType":5126,"count":4,"type":"VEC3"},{"bufferView":1,"byteOffset":18840,"componentType":5126,"count":4,"type":"VEC3"},{"bufferView":1,"byteOffset":18888,"componentType":5126,"count":130,"type":"VEC3"},{"bufferView":1,"byteOffset":20448,"componentType":5126,"count":4,"type":"VEC3"},{"bufferView":1,"byteOffset":20496,"componentType":5126,"count":4,"type":"VEC3"},{"bufferView":1,"byteOffset":20544,"componentType":5126,"count":4,"type":"VEC3"},{"bufferView":1,"byteOffset":20592,"componentType":5126,"count":254,"type":"VEC3"},{"bufferView":1,"byteOffset":23640,"componentType":5126,"count":126,"type":"VEC3"},{"bufferView":1,"byteOffset":25152,"componentType":5126,"count":4,"type":"VEC3"},{"bufferView":1,"byteOffset":25200,"componentType":5126,"count":4,"type":"VEC3"},{"bufferView":1,"byteOffset":25248,"componentType":5126,"count":130,"type":"VEC3"},{"bufferView":1,"byteOffset":26808,"componentType":5126,"count":4,"type":"VEC3"},{"bufferView":1,"byteOffset":26856,"componentType":5126,"count":4,"type":"VEC3"},{"bufferView":1,"byteOffset":26904,"componentType":5126,"count":4,"type":"VEC3"},{"bufferView":1,"byteOffset":26952,"componentType":5126,"count":254,"type":"VEC3"},{"bufferView":1,"byteOffset":30000,"componentType":5126,"count":126,"type":"VEC3"},{"bufferView":2,"byteOffset":0,"componentType":5123,"count":756,"type":"SCALAR"},{"bufferView":2,"byteOffset":1512,"componentType":5123,"count":372,"type":"SCALAR"},{"bufferView":2,"byteOffset":2256,"componentType":5123,"count":372,"type":"SCALAR"},{"bufferView":2,"byteOffset":3000,"componentType":5123,"count":6,"type":"SCALAR"},{"bufferView":2,"byteOffset":3012,"componentType":5123,"count":6,"type":"SCALAR"},{"bufferView":2,"byteOffset":3024,"componentType":5123,"count":390,"type":"SCALAR"},{"bufferView":2,"byteOffset":3804,"componentType":5123,"count":6,"type":"SCALAR"},{"bufferView":2,"byteOffset":3816,"componentType":5123,"count":6,"type":"SCALAR"},{"bufferView":2,"byteOffset":3828,"componentType":5123,"count":6,"type":"SCALAR"},{"bufferView":2,"byteOffset":3840,"componentType":5123,"count":756,"type":"SCALAR"},{"bufferView":2,"byteOffset":5352,"componentType":5123,"count":372,"type":"SCALAR"},{"bufferView":2,"byteOffset":6096,"componentType":5123,"count":6,"type":"SCALAR"},{"bufferView":2,"byteOffset":6108,"componentType":5123,"count":6,"type":"SCALAR"},{"bufferView":2,"byteOffset":6120,"componentType":5123,"count":390,"type":"SCALAR"},{"bufferView":2,"byteOffset":6900,"componentType":5123,"count":6,"type":"SCALAR"},{"bufferView":2,"byteOffset":6912,"componentType":5123,"count":6,"type":"SCALAR"},{"bufferView":2,"byteOffset":6924,"componentType":5123,"count":6,"type":"SCALAR"},{"bufferView":2,"byteOffset":6936,"componentType":5123,"count":756,"type":"SCALAR"},{"bufferView":2,"byteOffset":8448,"componentType":5123,"count":372,"type":"SCALAR"},{"bufferView":2,"byteOffset":9192,"componentType":5123,"count":6,"type":"SCALAR"},{"bufferView":2,"byteOffset":9204,"componentType":5123,"count":6,"type":"SCALAR"},{"bufferView":2,"byteOffset":9216,"componentType":5123,"count":390,"type":"SCALAR"},{"bufferView":2,"byteOffset":9996,"componentType":5123,"count":6,"type":"SCALAR"},{"bufferView":2,"byteOffset":10008,"componentType":5123,"count":6,"type":"SCALAR"},{"bufferView":2,"byteOffset":10020,"componentType":5123,"count":6,"type":"SCALAR"},{"bufferView":2,"byteOffset":10032,"componentType":5123,"count":756,"type":"SCALAR"},{"bufferView":2,"byteOffset":11544,"componentType":5123,"count":372,"type":"SCALAR"},{"bufferView":2,"byteOffset":12288,"componentType":5123,"count":6,"type":"SCALAR"},{"bufferView":2,"byteOffset":12300,"componentType":5123,"count":6,"type":"SCALAR"},{"bufferView":2,"byteOffset":12312,"componentType":5123,"count":390,"type":"SCALAR"},{"bufferView":2,"byteOffset":13092,"componentType":5123,"count":6,"type":"SCALAR"},{"bufferView":2,"byteOffset":13104,"componentType":5123,"count":6,"type":"SCALAR"},{"bufferView":2,"byteOffset":13116,"componentType":5123,"count":6,"type":"SCALAR"},{"bufferView":2,"byteOffset":13128,"componentType":5123,"count":756,"type":"SCALAR"},{"bufferView":2,"byteOffset":14640,"componentType":5123,"count":372,"type":"SCALAR"}],"asset":{"generator":"Open CASCADE Technology 7.8 [dev.opencascade.org]","version":"2.0"},"bufferViews":[{"buffer":0,"byteLength":31512,"byteOffset":0,"byteStride":12,"target":34962},{"buffer":0,"byteLength":31512,"byteOffset":31512,"byteStride":12,"target":34962},{"buffer":0,"byteLength":15384,"byteOffset":63024,"target":34963}],"buffers":[{"byteLength":78408,"uri":"parametrik_tabure.bin"}],"materials":[{"name":"mat_0","pbrMetallicRoughness":{"baseColorFactor":[0.2422810047864914,0.6172059774398804,0.9559730291366577,1.0]},"doubleSided":true},{"name":"mat_1","pbrMetallicRoughness":{"baseColorFactor":[0.25818300247192383,0.05951099842786789,0.006512000225484371,1.0]},"doubleSided":true}],"meshes":[{"name":"TabureUstu_part","primitives":[{"attributes":{"NORMAL":35,"POSITION":0},"indices":70,"material":0,"mode":4},{"attributes":{"NORMAL":36,"POSITION":1},"indices":71,"material":0,"mode":4},{"attributes":{"NORMAL":37,"POSITION":2},"indices":72,"material":0,"mode":4}]},{"name":"Ayak_1_part","primitives":[{"attributes":{"NORMAL":38,"POSITION":3},"indices":73,"material":1,"mode":4},{"attributes":{"NORMAL":39,"POSITION":4},"indices":74,"material":1,"mode":4},{"attributes":{"NORMAL":40,"POSITION":5},"indices":75,"material":1,"mode":4},{"attributes":{"NORMAL":41,"POSITION":6},"indices":76,"material":1,"mode":4},{"attributes":{"NORMAL":42,"POSITION":7},"indices":77,"material":1,"mode":4},{"attributes":{"NORMAL":43,"POSITION":8},"indices":78,"material":1,"mode":4},{"attributes":{"NORMAL":44,"POSITION":9},"indices":79,"material":1,"mode":4},{"attributes":{"NORMAL":45,"POSITION":10},"indices":80,"material":1,"mode":4}]},{"name":"Ayak_2_part","primitives":[{"attributes":{"NORMAL":46,"POSITION":11},"indices":81,"material":1,"mode":4},{"attributes":{"NORMAL":47,"POSITION":12},"indices":82,"material":1,"mode":4},{"attributes":{"NORMAL":48,"POSITION":13},"indices":83,"material":1,"mode":4},{"attributes":{"NORMAL":49,"POSITION":14},"indices":84,"material":1,"mode":4},{"attributes":{"NORMAL":50,"POSITION":15},"indices":85,"material":1,"mode":4},{"attributes":{"NORMAL":51,"POSITION":16},"indices":86,"material":1,"mode":4},{"attributes":{"NORMAL":52,"POSITION":17},"indices":87,"material":1,"mode":4},{"attributes":{"NORMAL":53,"POSITION":18},"indices":88,"material":1,"mode":4}]},{"name":"Ayak_3_part","primitives":[{"attributes":{"NORMAL":54,"POSITION":19},"indices":89,"material":1,"mode":4},{"attributes":{"NORMAL":55,"POSITION":20},"indices":90,"material":1,"mode":4},{"attributes":{"NORMAL":56,"POSITION":21},"indices":91,"material":1,"mode":4},{"attributes":{"NORMAL":57,"POSITION":22},"indices":92,"material":1,"mode":4},{"attributes":{"NORMAL":58,"POSITION":23},"indices":93,"material":1,"mode":4},{"attributes":{"NORMAL":59,"POSITION":24},"indices":94,"material":1,"mode":4},{"attributes":{"NORMAL":60,"POSITION":25},"indices":95,"material":1,"mode":4},{"attributes":{"NORMAL":61,"POSITION":26},"indices":96,"material":1,"mode":4}]},{"name":"Ayak_4_part","primitives":[{"attributes":{"NORMAL":62,"POSITION":27},"indices":97,"material":1,"mode":4},{"attributes":{"NORMAL":63,"POSITION":28},"indices":98,"material":1,"mode":4},{"attributes":{"NORMAL":64,"POSITION":29},"indices":99,"material":1,"mode":4},{"attributes":{"NORMAL":65,"POSITION":30},"indices":100,"material":1,"mode":4},{"attributes":{"NORMAL":66,"POSITION":31},"indices":101,"material":1,"mode":4},{"attributes":{"NORMAL":67,"POSITION":32},"indices":102,"material":1,"mode":4},{"attributes":{"NORMAL":68,"POSITION":33},"indices":103,"material":1,"mode":4},{"attributes":{"NORMAL":69,"POSITION":34},"indices":104,"material":1,"mode":4}]}],"nodes":[{"children":[1,3,5,7,9],"rotation":[-0.7071067811865475,0.0,0.0,0.7071067811865475],"name":"13f74f03-35bc-11f0-8198-78af08feb68a"},{"children":[2],"translation":[0.0,0.0,350.0],"name":"TabureUstu"},{"mesh":0,"name":"TabureUstu_part"},{"children":[4],"translation":[119.0,0.0,0.0],"name":"Ayak_1"},{"mesh":1,"name":"Ayak_1_part"},{"children":[6],"rotation":[0.0,0.0,0.7071067811865475,0.7071067811865475],"translation":[7.286648454926752e-15,119.0,0.0],"name":"Ayak_2"},{"mesh":2,"name":"Ayak_2_part"},{"children":[8],"rotation":[0.0,0.0,1.0,6.123233995736766e-17],"translation":[-119.0,1.4573296909853505e-14,0.0],"name":"Ayak_3"},{"mesh":3,"name":"Ayak_3_part"},{"children":[10],"rotation":[0.0,0.0,-0.7071067811865476,0.7071067811865475],"translation":[-2.1859945364780252e-14,-119.0,0.0],"name":"Ayak_4"},{"mesh":4,"name":"Ayak_4_part"}],"scene":0,"scenes":[{"nodes":[0]}]}