{"accessors":[{"bufferView":0,"byteOffset":0,"componentType":5126,"count":4,"max":[-0.02,0.005,0.02],"min":[-0.02,-0.005,-0.02],"type":"VEC3"},{"bufferView":0,"byteOffset":48,"componentType":5126,"count":4,"max":[0.02,0.005,0.02],"min":[-0.02,-0.005,0.02],"type":"VEC3"},{"bufferView":0,"byteOffset":96,"componentType":5126,"count":117,"max":[0.02,0.005,0.02],"min":[-0.02,0.005,-0.02],"type":"VEC3"},{"bufferView":0,"byteOffset":1500,"componentType":5126,"count":4,"max":[0.02,0.005,-0.02],"min":[-0.02,-0.005,-0.02],"type":"VEC3"},{"bufferView":0,"byteOffset":1548,"componentType":5126,"count":4,"max":[0.02,-0.005,0.02],"min":[-0.02,-0.005,-0.02],"type":"VEC3"},{"bufferView":0,"byteOffset":1596,"componentType":5126,"count":4,"max":[0.02,0.005,0.02],"min":[0.02,-0.005,-0.02],"type":"VEC3"},{"bufferView":0,"byteOffset":1644,"componentType":5126,"count":228,"max":[0.01,0.025,0.00999903384706381],"min":[-0.00999613557494554,0.005,-0.00999903384706381],"type":"VEC3"},{"bufferView":0,"byteOffset":4380,"componentType":5126,"count":113,"max":[0.01,0.025,0.00999903384706381],"min":[-0.00999613557494554,0.025,-0.00999903384706381],"type":"VEC3"},{"bufferView":1,"byteOffset":0,"componentType":5126,"count":4,"type":"VEC3"},{"bufferView":1,"byteOffset":48,"componentType":5126,"count":4,"type":"VEC3"},{"bufferView":1,"byteOffset":96,"componentType":5126,"count":117,"type":"VEC3"},{"bufferView":1,"byteOffset":1500,"componentType":5126,"count":4,"type":"VEC3"},{"bufferView":1,"byteOffset":1548,"componentType":5126,"count":4,"type":"VEC3"},{"bufferView":1,"byteOffset":1596,"componentType":5126,"count":4,"type":"VEC3"},{"bufferView":1,"byteOffset":1644,"componentType":5126,"count":228,"type":"VEC3"},{"bufferView":1,"byteOffset":4380,"componentType":5126,"count":113,"type":"VEC3"},{"bufferView":2,"byteOffset":0,"componentType":5123,"count":6,"type":"SCALAR"},{"bufferView":2,"byteOffset":12,"componentType":5123,"count":6,"type":"SCALAR"},{"bufferView":2,"byteOffset":24,"componentType":5123,"count":351,"type":"SCALAR"},{"bufferView":2,"byteOffset":728,"componentType":5123,"count":6,"type":"SCALAR"},{"bufferView":2,"byteOffset":740,"componentType":5123,"count":6,"type":"SCALAR"},{"bufferView":2,"byteOffset":752,"componentType":5123,"count":6,"type":"SCALAR"},{"bufferView":2,"byteOffset":764,"componentType":5123,"count":678,"type":"SCALAR"},{"bufferView":2,"byteOffset":2120,"componentType":5123,"count":333,"type":"SCALAR"}],"asset":{"generator":"Open CASCADE Technology 7.8 [dev.opencascade.org]","version":"2.0"},"bufferViews":[{"buffer":0,"byteLength":5736,"byteOffset":0,"byteStride":12,"target":34962},{"buffer":0,"byteLength":5736,"byteOffset":5736,"byteStride":12,"target":34962},{"buffer":0,"byteLength":2788,"byteOffset":11472,"target":34963}],"buffers":[{"byteLength":14260,"uri":"workplane-2.bin"}],"materials":[{"name":"mat_0","pbrMetallicRoughness":{"baseColorFactor":[0.168269544839859,0.19120186567306519,0.21586069464683533,1.0]},"doubleSided":true}],"meshes":[{"name":"Gövde","primitives":[{"attributes":{"NORMAL":8,"POSITION":0},"indices":16,"material":0,"mode":4},{"attributes":{"NORMAL":9,"POSITION":1},"indices":17,"material":0,"mode":4},{"attributes":{"NORMAL":10,"POSITION":2},"indices":18,"material":0,"mode":4},{"attributes":{"NORMAL":11,"POSITION":3},"indices":19,"material":0,"mode":4},{"attributes":{"NORMAL":12,"POSITION":4},"indices":20,"material":0,"mode":4},{"attributes":{"NORMAL":13,"POSITION":5},"indices":21,"material":0,"mode":4},{"attributes":{"NORMAL":14,"POSITION":6},"indices":22,"material":0,"mode":4},{"attributes":{"NORMAL":15,"POSITION":7},"indices":23,"material":0,"mode":4}]}],"nodes":[{"mesh":0,"name":"Gövde"}],"scene":0,"scenes":[{"nodes":[0]}]}