<?xml version="1.0" encoding="UTF-8" standalone="no"?>
<!-- Created with Inkscape (http://www.inkscape.org/) -->

<svg
   version="1.1"
   id="svg1"
   width="504.23416"
   height="88.685562"
   viewBox="0 0 504.23416 88.685565"
   sodipodi:docname="7_bit_adres (2).pdf"
   xmlns:inkscape="http://www.inkscape.org/namespaces/inkscape"
   xmlns:sodipodi="http://sodipodi.sourceforge.net/DTD/sodipodi-0.dtd"
   xmlns="http://www.w3.org/2000/svg"
   xmlns:svg="http://www.w3.org/2000/svg">
  <defs
     id="defs1" />
  <sodipodi:namedview
     id="namedview1"
     pagecolor="#ffffff"
     bordercolor="#000000"
     borderopacity="0.25"
     inkscape:showpageshadow="2"
     inkscape:pageopacity="0.0"
     inkscape:pagecheckerboard="0"
     inkscape:deskcolor="#d1d1d1"
     showgrid="false">
    <inkscape:page
       x="0"
       y="0"
       width="504.23416"
       height="88.685562"
       id="page2"
       margin="0"
       bleed="0" />
  </sodipodi:namedview>
  <g
     id="g1"
     inkscape:groupmode="layer"
     inkscape:label="1"
     transform="translate(-13.283042,-13.283441)">
    <path
       id="path1"
       d="M -49.13072,-7.96275 V 58.55142 H 329.04492 V -7.96275 Z"
       style="fill:#ffffff;fill-opacity:1;fill-rule:nonzero;stroke:none"
       transform="matrix(1.3333333,0,0,-1.3333333,78.790667,91.352)" />
    <path
       id="path2"
       d="m 13.10265,53.85896 h -54.55208 c -1.65071,0 -2.98883,-1.33812 -2.98883,-2.98883 V 34.17027 c 0,-1.65071 1.33812,-2.98883 2.98883,-2.98883 h 54.55208 c 1.65069,0 2.98883,1.33812 2.98883,2.98883 v 16.69986 c 0,1.65071 -1.33814,2.98883 -2.98883,2.98883 z"
       style="fill:#4cff4c;fill-opacity:1;fill-rule:nonzero;stroke:#00cc00;stroke-width:0.79701;stroke-linecap:butt;stroke-linejoin:miter;stroke-miterlimit:10;stroke-dasharray:none;stroke-opacity:1"
       transform="matrix(1.3333333,0,0,-1.3333333,78.790667,91.352)" />
    <path
       id="path3"
       d="m 6.9361328,-1.6627344 c 0,-0.7851562 -0.6679687,-1.4179687 -1.8515625,-1.5585937 0.984375,-0.1640625 1.5585938,-0.7265625 1.5585938,-1.3828125 0,-0.8320313 -0.8085938,-1.546875 -2.2851563,-1.546875 H 0.37363281 v 0.4453125 H 1.3462891 v 5.27343747 H 0.37363281 V 0.00132812 H 4.6392578 c 1.5234375,0 2.296875,-0.796875 2.296875,-1.66406252 z m -1.59375,-2.9414062 c 0,0.65625 -0.4453125,1.2304687 -1.3359375,1.2304687 H 2.5298828 v -2.3320312 h 1.7109375 c 1.0664063,0 1.1015625,0.9140625 1.1015625,1.1015625 z m 0.2460938,2.9179687 c 0,0.6210938 -0.3632813,1.25390627 -1.3359375,1.25390627 H 2.5298828 V -3.0221094 h 1.8164063 c 0.140625,0 0.6210937,0 0.9257812,0.3632813 0.2578125,0.3164062 0.3164063,0.6914062 0.3164063,0.9726562 z M 15.145117,0.00132812 V -0.43226563 H 14.27793 L 11.93418,-6.0338281 c -0.105469,-0.234375 -0.234375,-0.234375 -0.398438,-0.234375 -0.164062,0 -0.292969,0 -0.386719,0.234375 l -2.2734371,5.39062497 c -0.058594,0.140625 -0.058594,0.15234375 -0.28125,0.17578125 -0.1640625,0.0234375 -0.328125,0.0351563 -0.4804687,0.0351563 h -0.1875 v 0.43359375 c 0.5039062,-0.0234375 0.6210937,-0.0234375 1.0898437,-0.0234375 0.3515625,0 0.6445313,0 1.1953121,0.0234375 v -0.43359375 c -0.2460933,0 -0.5507808,0 -0.7968746,-0.10546875 L 9.9068359,-1.7213281 h 2.4843751 l 0.539062,1.28906247 h -0.84375 v 0.43359375 c 0.316407,-0.0234375 1.21875,-0.0234375 1.582032,-0.0234375 0.375,0 1.136718,0 1.476562,0.0234375 z M 12.203711,-2.1549219 h -2.109375 l 1.054687,-2.5195312 z m 8.62793,0.3398438 c 0,-0.9726563 -0.726563,-1.7109375 -1.570313,-1.8984375 l -1.300781,-0.2695313 c -0.902344,-0.1992187 -0.9375,-0.8085937 -0.9375,-0.9257812 0,-0.421875 0.28125,-0.9492188 1.183594,-0.9492188 1.417968,0 1.769531,0.9726563 1.863281,1.5703125 0.03516,0.140625 0.03516,0.1875 0.234375,0.1875 0.222656,0 0.234375,-0.046875 0.234375,-0.2695312 v -1.6289063 c 0,-0.1640625 0,-0.2578125 -0.175781,-0.2578125 -0.08203,0 -0.09375,0.011719 -0.199219,0.1054688 l -0.398438,0.3867187 c -0.503906,-0.3984375 -1.078125,-0.4921875 -1.570312,-0.4921875 -1.429688,0 -2.0625,0.9023438 -2.0625,1.8046875 0,0.6445313 0.375,1.0546875 0.457031,1.1484375 0.492188,0.4921875 0.785156,0.5507813 1.722656,0.75 0.140625,0.023437 0.28125,0.058594 0.421875,0.09375 0.527344,0.1054688 0.679688,0.1289063 0.972657,0.4335938 0.01172,0.023437 0.246093,0.2578125 0.246093,0.65625 0,0.1757812 -0.05859,1.04296872 -1.21875,1.04296872 -0.539062,0 -2.0625,-0.10546875 -2.132812,-1.50000002 -0.01172,-0.1640625 -0.01172,-0.2109375 -0.234375,-0.2109375 -0.234375,0 -0.234375,0.046875 -0.234375,0.2695313 v 1.61718747 c 0,0.1640625 0,0.2578125 0.1875,0.2578125 0.07031,0 0.08203,0 0.164062,-0.08203125 0.05859,-0.03515625 0.257813,-0.2578125 0.421875,-0.3984375 0.328125,0.234375 0.738282,0.3515625 1.125,0.421875 v 0.73828125 c 0.316407,0 0.703125,0 0.703125,0.26953123 0,0.2695313 -0.808593,0.2695313 -1.417968,0.2695313 h -0.234375 v 0.46875 h 0.46875 c 1.066406,0 2.367187,0 2.367187,-0.7382813 0,-0.44531248 -0.46875,-0.72656248 -0.960937,-0.72656248 v -0.234375 c 1.359375,-0.08203125 1.875,-1.03125 1.875,-1.91015622 z m 6.536132,-0.65625 h -0.457031 c -0.07031,0.6210937 -0.222656,2.03906247 -1.863281,2.03906247 H 24.086523 V -5.7057031 h 1.207032 v -0.4453125 c -0.363282,0.035156 -1.382813,0.035156 -1.804688,0.035156 -0.375,0 -1.359375,0 -1.675781,-0.035156 v 0.4453125 h 0.972656 v 5.27343747 h -0.972656 v 0.43359375 h 5.273437 z m 8.050782,2.47265622 v -0.43359375 h -0.867188 l -2.34375,-5.60156247 c -0.105469,-0.234375 -0.234375,-0.234375 -0.398437,-0.234375 -0.164063,0 -0.292969,0 -0.386719,0.234375 l -2.273438,5.39062497 c -0.05859,0.140625 -0.05859,0.15234375 -0.28125,0.17578125 -0.164062,0.0234375 -0.328125,0.0351563 -0.480468,0.0351563 h -0.1875 v 0.43359375 c 0.503906,-0.0234375 0.621093,-0.0234375 1.089843,-0.0234375 0.351563,0 0.644532,0 1.195313,0.0234375 v -0.43359375 c -0.246094,0 -0.550781,0 -0.796875,-0.10546875 L 30.180273,-1.721328 h 2.484375 l 0.539063,1.28906242 h -0.84375 v 0.43359375 c 0.316406,-0.0234375 1.21875,-0.0234375 1.582031,-0.0234375 0.375,0 1.136719,0 1.476563,0.02343745 z M 32.477148,-2.1549219 h -2.109375 l 1.054688,-2.5195312 z M 45.464453,0.00132812 V -0.43226563 H 44.503516 V -5.7057031 h 0.960937 v -0.4453125 h -1.992187 c -0.199219,0 -0.304688,0 -0.421875,0.2226562 l -2.203125,4.7578125 -2.191407,-4.7460937 c -0.105468,-0.234375 -0.234375,-0.234375 -0.421875,-0.234375 h -2.015625 v 0.4453125 h 0.972657 v 5.00390622 c 0,0.19921875 -0.01172,0.2109375 -0.257813,0.234375 -0.222656,0.0351563 -0.234375,0.0351563 -0.480469,0.0351563 h -0.234375 v 0.43359375 c 0.585938,-0.0234375 0.84375,-0.0234375 1.21875,-0.0234375 0.398438,0 0.644532,0 1.230469,0.0234375 v -0.43359375 h -0.234375 c -0.234375,0 -0.257812,0 -0.46875,-0.0351563 -0.257812,-0.0234375 -0.257812,-0.0351562 -0.257812,-0.234375 V -5.5885156 l 2.484375,5.35546872 c 0.03516,0.0820313 0.105468,0.234375 0.304687,0.234375 0.210938,0 0.269531,-0.140625 0.316406,-0.234375 l 2.542969,-5.47265622 v 5.27343747 h -0.960937 v 0.43359375 c 0.316406,-0.0234375 1.171875,-0.0234375 1.535156,-0.0234375 0.351562,0 1.21875,0 1.535156,0.0234375 z m 8.021484,0 V -0.43226563 H 52.61875 L 50.275,-6.0338281 c -0.105469,-0.234375 -0.234375,-0.234375 -0.398438,-0.234375 -0.164062,0 -0.292968,0 -0.386718,0.234375 l -2.273438,5.39062497 c -0.05859,0.140625 -0.05859,0.15234375 -0.28125,0.17578125 -0.164062,0.0234375 -0.328125,0.0351563 -0.480469,0.0351563 h -0.1875 v 0.43359375 c 0.503907,-0.0234375 0.621094,-0.0234375 1.089844,-0.0234375 0.351563,0 0.644531,0 1.195313,0.0234375 v -0.43359375 c -0.246094,0 -0.550782,0 -0.796875,-0.10546875 L 48.247656,-1.721328 h 2.484375 l 0.539063,1.28906242 h -0.84375 v 0.43359375 c 0.316406,-0.0234375 1.21875,-0.0234375 1.582031,-0.0234375 0.375,0 1.136719,0 1.476562,0.02343745 z M 50.544531,-2.1549219 h -2.109375 l 1.054688,-2.5195312 z m 0,0"
       style="fill:#ffffff;fill-opacity:1;fill-rule:nonzero;stroke:none"
       aria-label="BAŞLAMA"
       transform="matrix(1.3333333,0,0,1.3333333,23.966667,37.646667)" />
    <path
       id="path4"
       d="M 31.18144,31.18144 H 53.85896 V 53.85896 H 31.18144 Z"
       style="fill:#4c4cff;fill-opacity:1;fill-rule:nonzero;stroke:#0000cc;stroke-width:0.79701;stroke-linecap:butt;stroke-linejoin:miter;stroke-miterlimit:10;stroke-dasharray:none;stroke-opacity:1"
       transform="matrix(1.3333333,0,0,-1.3333333,78.790667,91.352)" />
    <path
       id="path5"
       d="M 7.6065,-8.515625e-4 V -0.43444531 H 6.7393125 l -2.34375,-5.60156249 c -0.1054687,-0.234375 -0.234375,-0.234375 -0.3984375,-0.234375 -0.1640625,0 -0.2929687,0 -0.3867187,0.234375 l -2.2734375,5.39062499 c -0.058594,0.140625 -0.058594,0.15234375 -0.28125,0.17578125 -0.16406255,0.0234375 -0.32812505,0.0351563 -0.4804688,0.0351563 H 0.38775 V -8.515625e-4 C 0.89165625,-0.02428906 1.0088438,-0.02428906 1.4775938,-0.02428906 c 0.3515625,0 0.6445312,0 1.1953125,0.0234374975 V -0.43444531 c -0.2460938,0 -0.5507813,0 -0.796875,-0.10546875 L 2.3682188,-1.7235078 h 2.484375 l 0.5390625,1.28906249 h -0.84375 V -8.515625e-4 C 4.8643125,-0.02428906 5.7666563,-0.02428906 6.1299375,-0.02428906 c 0.375,0 1.1367188,0 1.4765625,0.0234374975 z M 4.6650938,-2.1571016 h -2.109375 l 1.0546875,-2.5195312 z m 8.2060542,0.3164063 c 0,-0.4804688 -0.09375,-0.9726563 -0.621093,-1.4414063 -0.457032,-0.3984375 -0.925782,-0.4804687 -1.476563,-0.4804687 -0.574219,0 -0.9140623,0.4101562 -1.0664061,0.6796875 v -0.1523438 c 0,-1.125 0.2226563,-1.4765625 0.3164061,-1.6289062 0.257813,-0.421875 0.738281,-0.65625 1.21875,-0.65625 0.164063,0 0.445313,0.011719 0.667969,0.2226562 -0.363281,0.082031 -0.480469,0.3515625 -0.480469,0.5742188 0,0.375 0.292969,0.5859375 0.585938,0.5859375 0.246093,0 0.585937,-0.1523438 0.585937,-0.609375 0,-0.5507813 -0.375,-1.1367188 -1.371094,-1.1367188 -1.3007808,0 -2.7890621,0.8203125 -2.7890621,3.0351563 0,0.4453125 0.035156,1.3125 0.421875,1.95703124 0.3867188,0.6796875 1.0195313,0.99609375 1.8281251,0.99609375 1.277344,0 2.179687,-0.73828125 2.179687,-1.94531249 z m -1.265625,-0.011719 c 0,0.90234379 0,1.55859379 -0.925781,1.55859379 -0.527344,0 -0.7734373,-0.41015625 -0.8320311,-0.5625 C 9.7305234,-1.1375703 9.7305234,-1.8524141 9.7305234,-1.8875703 c 0,-0.9257813 0.3867186,-1.5117188 1.0078126,-1.5117188 0.867187,0 0.867187,0.6445313 0.867187,1.5468748 z m 0,0"
       style="fill:#ffffff;fill-opacity:1;fill-rule:nonzero;stroke:none"
       aria-label="A6"
       transform="matrix(1.3333333,0,0,1.3333333,126.608,38.770667)" />
    <path
       id="path6"
       d="M 56.6934,31.18144 H 79.37092 V 53.85896 H 56.6934 Z"
       style="fill:#4c4cff;fill-opacity:1;fill-rule:nonzero;stroke:#0000cc;stroke-width:0.79701;stroke-linecap:butt;stroke-linejoin:miter;stroke-miterlimit:10;stroke-dasharray:none;stroke-opacity:1"
       transform="matrix(1.3333333,0,0,-1.3333333,78.790667,91.352)" />
    <path
       id="path7"
       d="M 7.6062188,-8.515625e-4 V -0.43444531 H 6.7390313 l -2.34375,-5.60156249 c -0.1054688,-0.234375 -0.234375,-0.234375 -0.3984375,-0.234375 -0.1640625,0 -0.2929688,0 -0.3867188,0.234375 l -2.2734375,5.39062499 c -0.058594,0.140625 -0.058594,0.15234375 -0.28125,0.17578125 -0.1640625,0.0234375 -0.328125,0.0351563 -0.48046875,0.0351563 h -0.1875 V -8.515625e-4 C 0.891375,-0.02428906 1.0085625,-0.02428906 1.4773125,-0.02428906 c 0.3515625,0 0.6445313,0 1.1953125,0.0234374975 V -0.43444531 c -0.2460937,0 -0.5507812,0 -0.796875,-0.10546875 L 2.3679375,-1.7235078 h 2.484375 L 5.391375,-0.43444531 H 4.547625 V -8.515625e-4 C 4.8640313,-0.02428906 5.766375,-0.02428906 6.1296563,-0.02428906 c 0.375,0 1.1367187,0 1.4765625,0.0234374975 z M 4.6648125,-2.1571016 H 2.5554375 L 3.610125,-4.6766328 Z m 8.1123045,0.3515625 c 0,-1.0195312 -0.726562,-1.875 -2.085937,-1.875 -0.410157,0 -0.7968753,0.070312 -1.1718753,0.3046875 v -1.1367187 c 0.3046875,0.058594 0.4453125,0.058594 0.6328123,0.058594 0.246094,0 0.820313,0 1.5,-0.4453125 0.1875,-0.1289062 0.714844,-0.5742187 0.714844,-0.8085937 0,-0.035156 0,-0.1757813 -0.140625,-0.1757813 0,0 -0.04687,0 -0.140625,0.046875 -0.457031,0.1640625 -0.949219,0.2460938 -1.417969,0.2460938 -0.550781,0 -1.0078123,-0.1171875 -1.3945311,-0.2460938 -0.1171875,-0.046875 -0.1523437,-0.046875 -0.1523437,-0.046875 -0.140625,0 -0.140625,0.1171875 -0.140625,0.2578125 v 2.6367188 c 0,0.1640625 0,0.2929687 0.2226562,0.2929687 0.1171875,0 0.1289063,-0.011719 0.234375,-0.1289062 0.3632813,-0.421875 0.8554686,-0.4921875 1.2070316,-0.4921875 0.832031,0 0.832031,0.7851562 0.832031,1.4882812 0,0.6445313 0,1.53515629 -1.125,1.53515629 -0.4921876,0 -0.9140626,-0.234375 -1.1367188,-0.52734375 0.375,-0.0351563 0.5625,-0.29296874 0.5625,-0.60937504 0,-0.4453125 -0.328125,-0.6328125 -0.609375,-0.6328125 -0.28125,0 -0.6328125,0.1757813 -0.6328125,0.6445313 0,0.78515624 0.7265625,1.52343749 1.8515623,1.52343749 1.535156,0 2.390625,-0.84375 2.390625,-1.91015659 z m 0,0"
       style="fill:#ffffff;fill-opacity:1;fill-rule:nonzero;stroke:none"
       aria-label="A5"
       transform="matrix(1.3333333,0,0,1.3333333,160.624,38.770667)" />
    <path
       id="path8"
       d="M 82.20578,31.18144 H 104.8833 V 53.85896 H 82.20578 Z"
       style="fill:#4c4cff;fill-opacity:1;fill-rule:nonzero;stroke:#0000cc;stroke-width:0.79701;stroke-linecap:butt;stroke-linejoin:miter;stroke-miterlimit:10;stroke-dasharray:none;stroke-opacity:1"
       transform="matrix(1.3333333,0,0,-1.3333333,78.790667,91.352)" />
    <path
       id="path9"
       d="M 7.6059375,8.125e-4 V -0.43278125 H 6.73875 L 4.395,-6.0343438 c -0.1054687,-0.234375 -0.234375,-0.234375 -0.3984375,-0.234375 -0.1640625,0 -0.2929687,0 -0.3867187,0.234375 l -2.2734375,5.39062505 c -0.058594,0.140625 -0.058594,0.15234375 -0.28125,0.17578125 C 0.89109375,-0.4445 0.72703125,-0.4327812 0.5746875,-0.4327812 h -0.1875 V 8.125e-4 C 0.89109375,-0.022625 1.0082813,-0.022625 1.4770313,-0.022625 c 0.3515625,0 0.6445312,0 1.1953125,0.0234375 v -0.43359375 c -0.2460938,0 -0.5507813,0 -0.796875,-0.10546875 l 0.4921875,-1.1835938 h 2.484375 l 0.5390625,1.28906255 h -0.84375 V 8.125e-4 C 4.86375,-0.022625 5.7660938,-0.022625 6.129375,-0.022625 c 0.375,0 1.1367188,0 1.4765625,0.0234375 z m -2.9414062,-2.15625 h -2.109375 l 1.0546875,-2.5195313 z m 8.3466797,2.15625 V -0.43278125 H 12.108867 V -1.3937188 h 0.902344 v -0.4335937 h -0.902344 v -3.7617188 c 0,-0.2695312 -0.02344,-0.3046875 -0.292969,-0.3046875 -0.210937,0 -0.234375,0.011719 -0.316406,0.1289063 l -3.1992186,3.9375 v 0.4335937 H 10.96043 v 0.96093755 H 9.9291797 V 8.125e-4 C 10.245586,-0.022625 11.14793,-0.022625 11.511211,-0.022625 c 0.363281,0 1.171875,0 1.5,0.0234375 z m -1.933594,-1.828125 H 8.8158984 L 11.077617,-4.616375 Z m 0,0"
       style="fill:#ffffff;fill-opacity:1;fill-rule:nonzero;stroke:none"
       aria-label="A4"
       transform="matrix(1.3333333,0,0,1.3333333,194.64,38.842667)" />
    <path
       id="path10"
       d="m 107.71774,31.18144 h 22.67752 v 22.67752 h -22.67752 z"
       style="fill:#4c4cff;fill-opacity:1;fill-rule:nonzero;stroke:#0000cc;stroke-width:0.79701;stroke-linecap:butt;stroke-linejoin:miter;stroke-miterlimit:10;stroke-dasharray:none;stroke-opacity:1"
       transform="matrix(1.3333333,0,0,-1.3333333,78.790667,91.352)" />
    <path
       id="path11"
       d="M 7.6056562,-8.515625e-4 V -0.43444531 H 6.7384687 l -2.34375,-5.60156249 c -0.1054687,-0.234375 -0.234375,-0.234375 -0.3984375,-0.234375 -0.1640625,0 -0.2929687,0 -0.3867187,0.234375 L 1.336125,-0.64538281 c -0.058594,0.140625 -0.058594,0.15234375 -0.28125,0.17578125 -0.1640625,0.0234375 -0.328125,0.0351563 -0.48046875,0.0351563 h -0.1875 V -8.515625e-4 C 0.8908125,-0.02428906 1.008,-0.02428906 1.47675,-0.02428906 c 0.3515625,0 0.6445312,0 1.1953125,0.0234374975 V -0.43444531 c -0.2460938,0 -0.5507813,0 -0.796875,-0.10546875 L 2.367375,-1.7235078 H 4.85175 l 0.5390625,1.28906249 h -0.84375 V -8.515625e-4 C 4.8634687,-0.02428906 5.7658125,-0.02428906 6.1290937,-0.02428906 c 0.375,0 1.1367188,0 1.4765625,0.0234374975 z M 4.66425,-2.1571016 H 2.554875 l 1.0546875,-2.5195312 z m 8.206055,0.5390625 c 0,-0.703125 -0.539063,-1.3242187 -1.558594,-1.5351562 0.914062,-0.3164063 1.253906,-0.9375 1.253906,-1.4882813 0,-0.6679687 -0.667969,-1.2421875 -2.003906,-1.2421875 -1.1015626,0 -1.8164063,0.5976563 -1.8164063,1.3242188 0,0.3984375 0.28125,0.6445312 0.6445312,0.6445312 0.3867188,0 0.6445311,-0.2695312 0.6445311,-0.6445312 0,-0.2929688 -0.1757811,-0.5507813 -0.5273436,-0.6328125 0.070312,-0.058594 0.4335938,-0.328125 1.0078126,-0.328125 0.785156,0 0.785156,0.5742187 0.785156,0.8671875 0,0.5039062 -0.1875,1.2773437 -0.960937,1.3242187 l -0.4218753,0.023437 c -0.140625,0.023437 -0.140625,0.1171875 -0.140625,0.1875 0,0.1757813 0.09375,0.1757813 0.2578123,0.1757813 h 0.421875 c 1.007813,0 1.007813,0.8789062 1.007813,1.3242187 0,0.4101563 0,1.32421879 -0.960938,1.32421879 -0.117187,0 -0.7265623,-0.0234375 -1.1367186,-0.31640625 0.4101563,-0.1171875 0.4921875,-0.46875004 0.4921875,-0.66796874 0,-0.421875 -0.2929687,-0.7148438 -0.703125,-0.7148438 -0.3867187,0 -0.7148437,0.2578125 -0.7148437,0.7148438 0,0.84374999 0.9023437,1.38281249 2.0976558,1.38281249 1.640625,0 2.332032,-0.890625 2.332032,-1.72265579 z m 0,0"
       style="fill:#ffffff;fill-opacity:1;fill-rule:nonzero;stroke:none"
       aria-label="A3"
       transform="matrix(1.3333333,0,0,1.3333333,228.656,38.770667)" />
    <path
       id="path12"
       d="m 133.23013,31.18144 h 22.67752 v 22.67752 h -22.67752 z"
       style="fill:#4c4cff;fill-opacity:1;fill-rule:nonzero;stroke:#0000cc;stroke-width:0.79701;stroke-linecap:butt;stroke-linejoin:miter;stroke-miterlimit:10;stroke-dasharray:none;stroke-opacity:1"
       transform="matrix(1.3333333,0,0,-1.3333333,78.790667,91.352)" />
    <path
       id="path13"
       d="M 7.605375,8.125e-4 V -0.43278125 H 6.7381875 L 4.3944375,-6.0343438 C 4.2889688,-6.2687188 4.1600625,-6.2687188 3.996,-6.2687188 c -0.1640625,0 -0.2929687,0 -0.3867187,0.234375 L 1.3358438,-0.64371875 C 1.27725,-0.50309375 1.27725,-0.491375 1.0545938,-0.4679375 0.89053125,-0.4445 0.72646875,-0.43278125 0.574125,-0.43278125 h -0.1875 V 8.125e-4 C 0.89053125,-0.022625 1.0077188,-0.022625 1.4764688,-0.022625 c 0.3515625,0 0.6445312,0 1.1953125,0.0234375 v -0.43359375 c -0.2460938,0 -0.5507813,0 -0.796875,-0.10546875 l 0.4921875,-1.1835938 h 2.484375 l 0.5390625,1.28906255 h -0.84375 V 8.125e-4 c 0.3164062,-0.0234375 1.21875,-0.0234375 1.5820312,-0.0234375 0.375,0 1.1367188,0 1.4765625,0.0234375 z m -2.9414062,-2.15625 h -2.109375 l 1.0546875,-2.5195313 z m 8.1123042,0.140625 h -0.457031 c -0.02344,0.1289062 -0.09375,0.7617187 -0.234375,0.8203125 -0.117187,0.046875 -0.773437,0.046875 -0.925781,0.046875 H 9.8700234 c 0.4804686,-0.3867188 1.0195316,-0.8085938 1.4648436,-1.125 0.75,-0.5273438 1.441406,-1.0078125 1.441406,-1.8867188 0,-1.0429687 -0.960937,-1.7226562 -2.261718,-1.7226562 -1.1132816,0 -1.9804691,0.5273437 -1.9804691,1.359375 0,0.4570312 0.3632813,0.6796875 0.6796875,0.6796875 0.28125,0 0.65625,-0.2109375 0.65625,-0.6796875 0,-0.1875 -0.082031,-0.5273438 -0.46875,-0.6328125 0.3046875,-0.2460938 0.7148436,-0.28125 0.8906246,-0.28125 0.738282,0 1.207032,0.5390625 1.207032,1.2890625 0,0.6445312 -0.386719,1.2304687 -0.867188,1.7226562 l -1.9921873,1.96875005 c -0.1054688,0.09375 -0.1054688,0.10546875 -0.1054688,0.28125 V 8.125e-4 h 3.9609371 z m 0,0"
       style="fill:#ffffff;fill-opacity:1;fill-rule:nonzero;stroke:none"
       aria-label="A2"
       transform="matrix(1.3333333,0,0,1.3333333,262.672,38.842667)" />
    <path
       id="path14"
       d="m 158.7421,31.18144 h 22.67752 V 53.85896 H 158.7421 Z"
       style="fill:#4c4cff;fill-opacity:1;fill-rule:nonzero;stroke:#0000cc;stroke-width:0.79701;stroke-linecap:butt;stroke-linejoin:miter;stroke-miterlimit:10;stroke-dasharray:none;stroke-opacity:1"
       transform="matrix(1.3333333,0,0,-1.3333333,78.790667,91.352)" />
    <path
       id="path15"
       d="M 7.6050938,8.125e-4 V -0.43278125 H 6.7379063 l -2.34375,-5.60156255 c -0.1054688,-0.234375 -0.234375,-0.234375 -0.3984375,-0.234375 -0.1640625,0 -0.2929688,0 -0.3867188,0.234375 l -2.2734375,5.39062505 c -0.058594,0.140625 -0.058594,0.15234375 -0.28125,0.17578125 C 0.89025,-0.4445 0.7261875,-0.4327812 0.57384375,-0.4327812 h -0.1875 V 8.125e-4 C 0.89025,-0.022625 1.0074375,-0.022625 1.4761875,-0.022625 c 0.3515625,0 0.6445313,0 1.1953125,0.0234375 v -0.43359375 c -0.2460937,0 -0.5507812,0 -0.796875,-0.10546875 l 0.4921875,-1.1835938 h 2.484375 L 5.39025,-0.43278125 H 4.5465 V 8.125e-4 C 4.8629063,-0.022625 5.76525,-0.022625 6.1285313,-0.022625 c 0.375,0 1.1367187,0 1.4765625,0.0234375 z m -2.9414063,-2.15625 H 2.5543125 L 3.609,-4.6749688 Z m 7.9013675,2.15625 V -0.43278125 H 11.264273 V -5.5890313 c 0,-0.1875 0,-0.2929687 -0.257812,-0.2929687 -0.105469,0 -0.117188,0 -0.199219,0.070312 -0.691406,0.5039062 -1.6523436,0.5039062 -1.8281248,0.5039062 h -0.1875 v 0.4453125 h 0.1875 c 0.2109375,0 0.6914062,-0.035156 1.1953128,-0.1875 v 4.61718755 H 8.8970859 V 8.125e-4 C 9.2369297,-0.022625 10.315055,-0.022625 10.725211,-0.022625 c 0.421875,0 1.476562,0 1.839844,0.0234375 z m 0,0"
       style="fill:#ffffff;fill-opacity:1;fill-rule:nonzero;stroke:none"
       aria-label="A1"
       transform="matrix(1.3333333,0,0,1.3333333,296.688,38.842667)" />
    <path
       id="path16"
       d="m 184.25404,31.18144 h 22.67752 v 22.67752 h -22.67752 z"
       style="fill:#4c4cff;fill-opacity:1;fill-rule:nonzero;stroke:#0000cc;stroke-width:0.79701;stroke-linecap:butt;stroke-linejoin:miter;stroke-miterlimit:10;stroke-dasharray:none;stroke-opacity:1"
       transform="matrix(1.3333333,0,0,-1.3333333,78.790667,91.352)" />
    <path
       id="path17"
       d="M 7.6048125,-8.515625e-4 V -0.43444531 H 6.737625 L 4.393875,-6.0360078 c -0.1054687,-0.234375 -0.234375,-0.234375 -0.3984375,-0.234375 -0.1640625,0 -0.2929687,0 -0.3867187,0.234375 l -2.2734375,5.39062499 c -0.058594,0.140625 -0.058594,0.15234375 -0.28125,0.17578125 -0.16406255,0.0234375 -0.32812505,0.0351563 -0.4804688,0.0351563 h -0.1875 V -8.515625e-4 C 0.88996875,-0.02428906 1.0071563,-0.02428906 1.4759063,-0.02428906 c 0.3515625,0 0.6445312,0 1.1953125,0.0234374975 V -0.43444531 c -0.2460938,0 -0.5507813,0 -0.796875,-0.10546875 L 2.3665313,-1.7235078 h 2.484375 l 0.5390625,1.28906249 h -0.84375 V -8.515625e-4 C 4.862625,-0.02428906 5.7649688,-0.02428906 6.12825,-0.02428906 c 0.375,0 1.1367188,0 1.4765625,0.0234374975 z M 4.6634063,-2.1571016 h -2.109375 l 1.0546875,-2.5195312 z m 8.2294917,-0.703125 c 0,-0.9140625 -0.02344,-3.0234375 -2.238281,-3.0234375 -2.1796873,0 -2.2382811,2.0390625 -2.2382811,3.0234375 0,0.9375 0.023437,2.96484379 2.2382811,2.96484379 2.179688,0 2.238281,-1.96874999 2.238281,-2.96484379 z m -1.195312,-0.1054687 c 0,0.6914062 0,1.7578125 -0.140625,2.10937499 -0.199219,0.4453125 -0.597656,0.609375 -0.902344,0.609375 -0.234375,0 -0.8554686,-0.1171875 -0.9726561,-0.93749999 -0.070312,-0.4804688 -0.070312,-1.2890625 -0.070312,-1.78125 0,-0.5625 0,-1.3242188 0.070312,-1.7460938 0.140625,-0.7148437 0.7382811,-0.8085937 0.9726561,-0.8085937 0.292969,0 0.855469,0.140625 0.972656,0.84375 0.07031,0.421875 0.07031,1.1953125 0.07031,1.7109375 z m 0,0"
       style="fill:#ffffff;fill-opacity:1;fill-rule:nonzero;stroke:none"
       aria-label="A0"
       transform="matrix(1.3333333,0,0,1.3333333,330.704,38.770667)" />
    <path
       id="path18"
       d="m 215.4357,31.18144 h 34.0161 v 22.67752 h -34.0161 z"
       style="fill:#ffa64c;fill-opacity:1;fill-rule:nonzero;stroke:#cc6600;stroke-width:0.79701;stroke-linecap:butt;stroke-linejoin:miter;stroke-miterlimit:10;stroke-dasharray:none;stroke-opacity:1"
       transform="matrix(1.3333333,0,0,-1.3333333,78.790667,91.352)" />
    <path
       id="path19"
       d="m 7.9108906,-0.86585938 c 0,-0.19921872 -0.1289062,-0.22265622 -0.2226562,-0.22265622 -0.2109375,0 -0.2226563,0.12890622 -0.234375,0.22265622 -0.035156,0.43359375 -0.3164063,0.62109375 -0.5625,0.62109375 -0.5390625,0 -0.6210938,-0.5390625 -0.7265625,-1.31249997 -0.09375,-0.6679688 -0.1523438,-1.1484375 -1.0429688,-1.4765625 0.7617188,-0.2226563 1.5,-0.6914063 1.5,-1.4414063 0,-0.9492187 -1.0664062,-1.6757812 -2.7539062,-1.6757812 H 0.37573438 v 0.4453125 H 1.3483906 v 5.27343747 H 0.37573438 v 0.43359375 c 0.328125,-0.0234375 1.21875002,-0.0234375 1.59375002,-0.0234375 0.3632812,0 1.265625,0 1.59375,0.0234375 V -0.43226563 H 2.5905781 V -2.8932031 h 1.1015625 c 0.375,0 0.609375,0.082031 0.8671875,0.3515625 0.2578125,0.2460937 0.2578125,0.46875 0.2578125,1.0664062 0,0.56250002 0,0.98437502 0.5390625,1.30078127 0.3867188,0.22265625 0.9609375,0.28125 1.453125,0.28125 0.9492188,0 1.1015625,-0.7734375 1.1015625,-0.97265625 z M 5.2038594,-4.4752344 c 0,0.5039063 -0.011719,1.21875 -1.5,1.21875 H 2.5905781 v -2.4492187 h 1.125 c 1.4648438,0 1.4882813,0.6914062 1.4882813,1.2304687 z m 7.4589846,-1.9570312 c 0,-0.1757813 -0.140625,-0.2929688 -0.292969,-0.2929688 -0.1875,0 -0.246094,0.1289063 -0.292969,0.2578125 L 8.5964375,1.7591406 c -0.058594,0.1289063 -0.058594,0.1992188 -0.058594,0.1992188 0,0.1640625 0.140625,0.28125 0.2929687,0.28125 0.1875,0 0.2460938,-0.1171875 0.2929688,-0.2578125 l 3.480469,-8.2148438 c 0.05859,-0.1289062 0.05859,-0.1992187 0.05859,-0.1992187 z m 11.308594,0.7265625 v -0.4453125 c -0.433594,0.035156 -0.761719,0.035156 -0.996094,0.035156 -0.386719,0 -0.808594,0 -1.207031,-0.035156 v 0.4453125 c 0.234375,0 0.644531,0 0.902343,0.09375 l -1.570312,3.9960937 -1.617188,-4.0898437 h 0.855469 v -0.4453125 c -0.316406,0.035156 -1.195312,0.035156 -1.570312,0.035156 -0.410157,0 -0.984375,0 -1.394532,-0.035156 v 0.4453125 H 18.1355 l 0.351563,0.8789062 -1.277344,3.2109375 -1.605469,-4.0898437 H 16.448 v -0.4453125 c -0.304687,0.035156 -1.183594,0.035156 -1.558594,0.035156 -0.421875,0 -0.996093,0 -1.394531,-0.035156 v 0.4453125 h 0.761719 L 16.448,-0.17445313 c 0.07031,0.15234375 0.105469,0.2578125 0.339844,0.2578125 0.246094,0 0.292969,-0.10546875 0.339844,-0.2578125 l 1.605468,-4.04296877 1.605469,4.04296877 c 0.04687,0.15234375 0.09375,0.2578125 0.339844,0.2578125 0.117187,0 0.234375,-0.0234375 0.292969,-0.12890625 l 2.15625,-5.46093752 c 0.07031,-0.1523437 0.07031,-0.1523437 0.351562,-0.1875 0.175781,-0.011719 0.316406,-0.011719 0.492188,-0.011719 z m 0,0"
       style="fill:#ffffff;fill-opacity:1;fill-rule:nonzero;stroke:none"
       aria-label="R/W"
       transform="matrix(1.3333333,0,0,1.3333333,372.56933,37.646667)" />
    <path
       id="path20"
       d="m 256.75711,31.18144 h 67.59535 v 22.67752 h -67.59535 z"
       style="fill:#d24c79;fill-opacity:1;fill-rule:nonzero;stroke:#990033;stroke-width:0.79701;stroke-linecap:butt;stroke-linejoin:miter;stroke-miterlimit:10;stroke-dasharray:none;stroke-opacity:1"
       transform="matrix(1.3333333,0,0,-1.3333333,78.790667,91.352)" />
    <path
       id="path21"
       d="M 7.6063438,0.00132812 V -0.43226563 H 6.7391563 l -2.34375,-5.60156247 c -0.1054688,-0.234375 -0.234375,-0.234375 -0.3984375,-0.234375 -0.1640625,0 -0.2929688,0 -0.3867188,0.234375 l -2.2734375,5.39062497 c -0.058594,0.140625 -0.058594,0.15234375 -0.28125,0.17578125 -0.1640625,0.0234375 -0.328125,0.0351563 -0.48046875,0.0351563 h -0.1875 v 0.4335937 C 0.8915,-0.02210938 1.0086875,-0.02210938 1.4774375,-0.02210938 c 0.3515625,0 0.6445313,0 1.1953125,0.0234375 v -0.43359375 c -0.2460937,0 -0.5507812,0 -0.796875,-0.10546875 L 2.3680625,-1.7213281 h 2.484375 L 5.3915,-0.43226563 H 4.54775 v 0.43359375 c 0.3164063,-0.0234375 1.21875,-0.0234375 1.5820313,-0.0234375 0.375,0 1.1367187,0 1.4765625,0.0234375 z M 4.6649375,-2.1549219 H 2.5555625 L 3.61025,-4.6744531 Z m 10.1132815,0.1171875 c 0,-0.1992187 -0.09375,-0.1992187 -0.234375,-0.1992187 -0.09375,0 -0.210938,0 -0.222656,0.140625 -0.07031,1.30078122 -1.265625,1.76953122 -2.121094,1.76953122 -0.480469,0 -1.347656,-0.10546875 -1.957031,-0.76171872 -0.4687505,-0.5390625 -0.5273442,-1.3710938 -0.5273442,-1.9804688 0,-1.078125 0.2109375,-1.6171875 0.5742192,-2.0273437 0.421875,-0.4804688 1.148437,-0.7148438 1.898437,-0.7148438 0.785156,0 1.828125,0.46875 2.0625,1.8984375 0.01172,0.1171875 0.117188,0.1171875 0.257813,0.1171875 0.246093,0 0.269531,-0.023437 0.269531,-0.2695312 v -1.9335938 c 0,-0.1640625 0,-0.2578125 -0.175781,-0.2578125 -0.09375,0 -0.117188,0.023437 -0.199219,0.09375 l -0.585938,0.515625 c -0.515625,-0.4101562 -1.160156,-0.609375 -1.816406,-0.609375 -2.3203125,0 -3.703125,1.359375 -3.703125,3.1875 0,1.7695313 1.3359375,3.17578127 3.703125,3.17578127 1.6875,0 2.777344,-1.078125 2.777344,-2.14453127 z m 8.452148,2.03906252 v -0.43359375 h -0.257812 c -0.480469,0 -0.515625,-0.046875 -0.609375,-0.17578125 L 19.855367,-3.7603906 22.08193,-5.5533594 c 0.199218,-0.1523437 0.550781,-0.1523437 0.84375,-0.1523437 h 0.152343 v -0.4453125 c -0.351562,0.035156 -0.855468,0.035156 -0.960937,0.035156 -0.363281,0 -0.960938,0 -1.300781,-0.035156 v 0.4453125 c 0.246093,0 0.457031,0.035156 0.527343,0.058594 0.08203,0.023437 0.04687,0.023437 0.08203,0.035156 l -3.398438,2.7421875 v -2.8359375 h 0.960938 v -0.4453125 c -0.304688,0.035156 -1.242188,0.035156 -1.605469,0.035156 -0.375,0 -1.3125,0 -1.628906,-0.035156 v 0.4453125 h 0.972656 v 5.27343747 h -0.972656 v 0.43359375 c 0.316406,-0.0234375 1.242187,-0.0234375 1.617187,-0.0234375 0.363281,0 1.3125,0 1.617188,0.0234375 V -0.43226563 H 18.027242 V -2.2721094 l 0.9375,-0.7617187 1.921875,2.41406247 0.05859,0.0820313 c 0,0.10546875 -0.398438,0.10546875 -0.621094,0.10546875 v 0.43359375 c 0.328125,-0.0234375 1.171875,-0.0234375 1.558594,-0.0234375 0.128906,0 0.785156,0 1.347656,0.0234375 z m 5.16211,-6.43359372 c 0,-0.1757813 -0.140625,-0.2929688 -0.292969,-0.2929688 -0.1875,0 -0.246094,0.1289063 -0.292969,0.2578125 L 24.32607,1.7591406 c -0.05859,0.1289063 -0.05859,0.1992188 -0.05859,0.1992188 0,0.1640625 0.140625,0.28125 0.292968,0.28125 0.1875,0 0.246094,-0.1171875 0.292969,-0.2578125 l 3.480469,-8.2148438 c 0.05859,-0.1289062 0.05859,-0.1992187 0.05859,-0.1992187 z m 8.493164,0.7265625 v -0.4453125 c -0.585938,0.035156 -0.832032,0.035156 -1.21875,0.035156 -0.398438,0 -0.632813,0 -1.230469,-0.035156 v 0.4453125 h 0.234375 c 0.246094,0 0.257812,0 0.480469,0.023437 0.246093,0.023437 0.257812,0.035156 0.257812,0.234375 v 3.5976562 l -3.667969,-4.1835937 c -0.105468,-0.1171875 -0.117187,-0.1171875 -0.304687,-0.1171875 h -2.074219 v 0.4453125 h 0.972656 v 5.00390622 c 0,0.19921875 -0.01172,0.2109375 -0.257812,0.234375 -0.222656,0.0351563 -0.234375,0.0351563 -0.480469,0.0351563 h -0.234375 v 0.43359375 c 0.585938,-0.0234375 0.832031,-0.0234375 1.21875,-0.0234375 0.398438,0 0.632813,0 1.230469,0.0234375 v -0.43359375 h -0.234375 c -0.246094,0 -0.257813,0 -0.46875,-0.0351563 -0.257813,-0.0234375 -0.269531,-0.0351562 -0.269531,-0.234375 V -5.3189844 l 4.558593,5.20312502 c 0.09375,0.1171875 0.128907,0.1171875 0.257813,0.1171875 0.257812,0 0.257812,-0.09375 0.257812,-0.29296875 V -5.4478906 c 0,-0.1992188 0.01172,-0.2109375 0.269532,-0.234375 0.210937,-0.023437 0.222656,-0.023437 0.46875,-0.023437 z m 7.992187,5.70703122 v -0.43359375 h -0.867187 l -2.34375,-5.60156247 c -0.105469,-0.234375 -0.234375,-0.234375 -0.398438,-0.234375 -0.164062,0 -0.292969,0 -0.386719,0.234375 l -2.273437,5.39062497 c -0.05859,0.140625 -0.05859,0.15234375 -0.28125,0.17578125 -0.164063,0.0234375 -0.328125,0.0351563 -0.480469,0.0351563 h -0.1875 v 0.43359375 c 0.503906,-0.0234375 0.621094,-0.0234375 1.089844,-0.0234375 0.351562,0 0.644531,0 1.195312,0.0234375 v -0.43359375 c -0.246093,0 -0.550781,0 -0.796875,-0.10546875 l 0.492188,-1.18359377 h 2.484375 l 0.539062,1.28906252 h -0.84375 v 0.43359375 c 0.316407,-0.0234375 1.21875,-0.0234375 1.582032,-0.0234375 0.375,0 1.136718,0 1.476562,0.02343745 z M 41.936422,-2.1549219 h -2.109375 l 1.054687,-2.5195312 z m 10.113281,0.1171875 c 0,-0.1992187 -0.09375,-0.1992187 -0.234375,-0.1992187 -0.09375,0 -0.210937,0 -0.222656,0.140625 -0.07031,1.30078122 -1.265625,1.76953122 -2.121094,1.76953122 -0.480469,0 -1.347656,-0.10546875 -1.957031,-0.76171872 -0.46875,-0.5390625 -0.527344,-1.3710938 -0.527344,-1.9804688 0,-1.078125 0.210938,-1.6171875 0.574219,-2.0273437 0.421875,-0.4804688 1.148437,-0.7148438 1.898437,-0.7148438 0.785157,0 1.828125,0.46875 2.0625,1.8984375 0.01172,0.1171875 0.117188,0.1171875 0.257813,0.1171875 0.246094,0 0.269531,-0.023437 0.269531,-0.2695312 v -1.9335938 c 0,-0.1640625 0,-0.2578125 -0.175781,-0.2578125 -0.09375,0 -0.117188,0.023437 -0.199219,0.09375 l -0.585937,0.515625 c -0.515625,-0.4101562 -1.160157,-0.609375 -1.816407,-0.609375 -2.320312,0 -3.703125,1.359375 -3.703125,3.1875 0,1.7695313 1.335938,3.17578127 3.703125,3.17578127 1.6875,0 2.777344,-1.078125 2.777344,-2.14453127 z m 8.452149,2.03906252 v -0.43359375 h -0.257813 c -0.480469,0 -0.515625,-0.046875 -0.609375,-0.17578125 l -2.507812,-3.15234372 2.226562,-1.7929688 c 0.199219,-0.1523437 0.550781,-0.1523437 0.84375,-0.1523437 h 0.152344 v -0.4453125 c -0.351563,0.035156 -0.855469,0.035156 -0.960938,0.035156 -0.363281,0 -0.960937,0 -1.300781,-0.035156 v 0.4453125 c 0.246094,0 0.457031,0.035156 0.527344,0.058594 0.08203,0.023437 0.04687,0.023437 0.08203,0.035156 l -3.398437,2.7421875 v -2.8359375 h 0.960937 v -0.4453125 c -0.304687,0.035156 -1.242187,0.035156 -1.605469,0.035156 -0.375,0 -1.3125,0 -1.628906,-0.035156 v 0.4453125 h 0.972656 v 5.27343747 h -0.972656 v 0.43359375 c 0.316406,-0.0234375 1.242188,-0.0234375 1.617188,-0.0234375 0.363281,0 1.3125,0 1.617187,0.0234375 V -0.43226563 H 55.298727 V -2.2721094 l 0.9375,-0.7617187 1.921875,2.41406247 0.05859,0.0820313 c 0,0.10546875 -0.398437,0.10546875 -0.621093,0.10546875 v 0.43359375 c 0.328125,-0.0234375 1.171875,-0.0234375 1.558593,-0.0234375 0.128907,0 0.785157,0 1.347657,0.0234375 z m 0,0"
       style="fill:#ffffff;fill-opacity:1;fill-rule:nonzero;stroke:none"
       aria-label="ACK/NACK"
       transform="matrix(1.3333333,0,0,1.3333333,425.56133,37.646667)" />
    <path
       id="path22"
       d="m 4.1704922,-0.92440625 c 0,-0.35156255 -0.3632813,-0.75000005 -1.171875,-0.85546875 0.5039062,-0.082031 0.9960937,-0.375 0.9960937,-0.7734375 0,-0.4570313 -0.6210937,-0.84375 -1.359375,-0.84375 H 0.43221094 v 0.2109375 h 0.15234375 c 0.3984375,0 0.3984375,0.058594 0.3984375,0.2109375 V -0.4205 c 0,0.15234375 0,0.19921875 -0.3984375,0.19921875 H 0.43221094 V 0.001375 H 2.7993984 c 0.7617188,0 1.3710938,-0.43359375 1.3710938,-0.92578125 z M 3.4556484,-2.5415938 c 0,0.3632813 -0.4453125,0.6914063 -0.9960937,0.6914063 h -0.984375 v -1.1367188 c 0,-0.1640625 0,-0.1992187 0.2460937,-0.1992187 h 0.8789063 c 0.5273437,0 0.8554687,0.328125 0.8554687,0.6445312 z m 0.1523438,1.61718755 c 0,0.375 -0.421875,0.703125 -0.9960938,0.703125 h -0.890625 c -0.2460937,0 -0.2460937,-0.0351562 -0.2460937,-0.1875 V -1.686125 h 1.171875 c 0.6679687,0 0.9609375,0.4335937 0.9609375,0.76171875 z M 6.2857266,0.001375 v -0.22265625 c -0.3398438,0 -0.375,0 -0.375,-0.19921875 V -2.20175 L 5.0904141,-2.143156 V -1.9205 c 0.3515625,0 0.3984375,0.023437 0.3984375,0.2695312 V -0.4205 c 0,0.15234375 0,0.19921875 -0.328125,0.19921875 h -0.09375 V 0.001375 c 0.2109375,-0.01171875 0.421875,-0.0234375 0.6210937,-0.0234375 0.1875,0 0.4101563,0.01171875 0.5976563,0.0234375 z m -0.328125,-2.9882813 c 0,-0.1640625 -0.1289063,-0.3046875 -0.3046875,-0.3046875 -0.1640625,0 -0.2929688,0.140625 -0.2929688,0.3046875 0,0.1640625 0.1289063,0.3046875 0.2929688,0.3046875 0.1640625,0 0.3046875,-0.140625 0.3046875,-0.3046875 z M 8.8785,-0.6314375 V -0.90096875 H 8.6675625 v 0.2578125 c 0,0.375 -0.2226562,0.515625 -0.3984375,0.515625 -0.375,0 -0.375,-0.3984375 -0.375,-0.50390625 V -1.9205 H 8.7730313 V -2.1431563 H 7.894125 V -3.0572188 H 7.6831875 C 7.6714688,-2.5884688 7.425375,-2.108 6.9214688,-2.0962813 V -1.9205 h 0.5273437 v 1.2890625 c 0,0.57421875 0.46875,0.69140625 0.7734375,0.69140625 0.375,0 0.65625,-0.28125 0.65625,-0.69140625 z m 5.99707,-2.4375 v -0.140625 h -1.207031 c -0.128906,0 -0.855469,-0.011719 -0.949219,-0.035156 -0.105468,-0.023437 -0.117187,-0.070312 -0.128906,-0.1171875 h -0.210937 l -0.1875,1.1132813 h 0.210937 c 0.01172,-0.070312 0.07031,-0.3984375 0.152344,-0.4453125 0.02344,-0.023437 0.492187,-0.035156 0.574219,-0.035156 h 1.183593 c -0.210937,0.2460938 -0.480468,0.515625 -0.679687,0.7617188 -0.585938,0.75 -0.65625,1.46484375 -0.65625,1.76953125 0,0.28125 0.164062,0.3046875 0.257812,0.3046875 0.269532,0 0.269532,-0.24609375 0.269532,-0.3046875 V -0.3033125 c 0,-0.890625 0.1875,-1.4296875 0.480468,-1.7578125 l 0.84375,-0.9257813 c 0.03516,-0.046875 0.03516,-0.058594 0.04687,-0.082031 z m 0,0"
       style="fill:#000000;fill-opacity:1;fill-rule:nonzero;stroke:none"
       aria-label="Bit7"
       transform="matrix(1.3333333,0,0,1.3333333,125.412,63.310667)" />
    <path
       id="path23"
       d="m 4.1731406,-0.92440625 c 0,-0.35156255 -0.3632812,-0.75000005 -1.171875,-0.85546875 0.5039063,-0.082031 0.9960938,-0.375 0.9960938,-0.7734375 0,-0.4570313 -0.6210938,-0.84375 -1.359375,-0.84375 H 0.43485938 v 0.2109375 h 0.15234375 c 0.3984375,0 0.3984375,0.058594 0.3984375,0.2109375 V -0.4205 c 0,0.15234375 0,0.19921875 -0.3984375,0.19921875 H 0.43485938 V 0.001375 H 2.8020469 c 0.7617187,0 1.3710937,-0.43359375 1.3710937,-0.92578125 z M 3.4582969,-2.5415938 c 0,0.3632813 -0.4453125,0.6914063 -0.9960938,0.6914063 h -0.984375 v -1.1367188 c 0,-0.1640625 0,-0.1992187 0.2460938,-0.1992187 h 0.8789062 c 0.5273438,0 0.8554688,0.328125 0.8554688,0.6445312 z m 0.1523437,1.61718755 c 0,0.375 -0.421875,0.703125 -0.9960937,0.703125 h -0.890625 c -0.2460938,0 -0.2460938,-0.0351562 -0.2460938,-0.1875 V -1.686125 h 1.171875 c 0.6679688,0 0.9609375,0.4335937 0.9609375,0.76171875 z M 6.2854453,0.001375 v -0.22265625 c -0.3398437,0 -0.375,0 -0.375,-0.19921875 V -2.20175 L 5.0901328,-2.143156 V -1.9205 c 0.3515625,0 0.3984375,0.023437 0.3984375,0.2695312 V -0.4205 c 0,0.15234375 0,0.19921875 -0.328125,0.19921875 h -0.09375 V 0.001375 c 0.2109375,-0.01171875 0.421875,-0.0234375 0.6210938,-0.0234375 0.1875,0 0.4101562,0.01171875 0.5976562,0.0234375 z m -0.328125,-2.9882813 c 0,-0.1640625 -0.1289062,-0.3046875 -0.3046875,-0.3046875 -0.1640625,0 -0.2929687,0.140625 -0.2929687,0.3046875 0,0.1640625 0.1289062,0.3046875 0.2929687,0.3046875 0.1640625,0 0.3046875,-0.140625 0.3046875,-0.3046875 z m 2.9238281,2.3554688 V -0.90096875 H 8.6702109 v 0.2578125 c 0,0.375 -0.2226562,0.515625 -0.3984375,0.515625 -0.375,0 -0.375,-0.3984375 -0.375,-0.50390625 V -1.9205 H 8.7756797 V -2.1431563 H 7.8967734 V -3.0572188 H 7.6858359 C 7.6741172,-2.5884688 7.4280234,-2.108 6.9241172,-2.0962813 V -1.9205 h 0.5273437 v 1.2890625 c 0,0.57421875 0.46875,0.69140625 0.7734375,0.69140625 0.375,0 0.65625,-0.28125 0.65625,-0.69140625 z m 5.8183596,-0.3867188 c 0,-0.3046875 -0.09375,-0.5507812 -0.363281,-0.7734375 -0.210938,-0.1992187 -0.445313,-0.3398437 -0.878907,-0.3398437 -0.28125,0 -0.609375,0.140625 -0.820312,0.5039062 0,-0.234375 0.01172,-0.6328125 0.1875,-0.9492187 0.152344,-0.2695313 0.46875,-0.5507813 0.9375,-0.5507813 0.09375,0 0.316406,0.011719 0.46875,0.1289063 -0.08203,0.023437 -0.210938,0.09375 -0.210938,0.2695312 0,0.1523438 0.117188,0.2578125 0.257813,0.2578125 0.09375,0 0.269531,-0.046875 0.269531,-0.28125 0,-0.2695312 -0.1875,-0.5625 -0.796875,-0.5625 -0.855469,0 -1.640625,0.703125 -1.640625,1.734375 0,1.1835938 0.585938,1.68750005 1.3125,1.68750005 0.492188,0 0.726563,-0.17578125 0.890625,-0.31640625 0.316406,-0.26953125 0.386719,-0.5625 0.386719,-0.8085938 z m -0.527344,-0.011719 c 0,0.29296875 0,0.48046875 -0.164062,0.6796875 -0.140625,0.1640625 -0.304688,0.2578125 -0.585938,0.2578125 -0.773437,0 -0.773437,-0.83203125 -0.773437,-1.03125 0,-0.3867188 0.28125,-0.8320313 0.796875,-0.8320313 0.257812,0 0.421875,0.058594 0.574218,0.2578125 0.152344,0.1875 0.152344,0.3984375 0.152344,0.6679688 z m 0,0"
       style="fill:#000000;fill-opacity:1;fill-rule:nonzero;stroke:none"
       aria-label="Bit6"
       transform="matrix(1.3333333,0,0,1.3333333,159.428,63.310667)" />
    <path
       id="path24"
       d="m 4.1728594,-0.92440625 c 0,-0.35156255 -0.3632813,-0.75000005 -1.171875,-0.85546875 0.5039062,-0.082031 0.9960937,-0.375 0.9960937,-0.7734375 0,-0.4570313 -0.6210937,-0.84375 -1.359375,-0.84375 H 0.43457812 v 0.2109375 h 0.15234375 c 0.3984375,0 0.3984375,0.058594 0.3984375,0.2109375 V -0.4205 c 0,0.15234375 0,0.19921875 -0.3984375,0.19921875 H 0.43457812 V 0.001375 H 2.8017656 c 0.7617188,0 1.3710938,-0.43359375 1.3710938,-0.92578125 z M 3.4580156,-2.5415938 c 0,0.3632813 -0.4453125,0.6914063 -0.9960937,0.6914063 h -0.984375 v -1.1367188 c 0,-0.1640625 0,-0.1992187 0.2460937,-0.1992187 h 0.8789063 c 0.5273437,0 0.8554687,0.328125 0.8554687,0.6445312 z m 0.1523438,1.61718755 c 0,0.375 -0.421875,0.703125 -0.9960938,0.703125 h -0.890625 c -0.2460937,0 -0.2460937,-0.0351562 -0.2460937,-0.1875 V -1.686125 h 1.171875 c 0.6679687,0 0.9609375,0.4335937 0.9609375,0.76171875 z M 6.2851641,0.001375 v -0.22265625 c -0.3398438,0 -0.375,0 -0.375,-0.19921875 V -2.20175 L 5.0898516,-2.143156 V -1.9205 c 0.3515625,0 0.3984375,0.023437 0.3984375,0.2695312 V -0.4205 c 0,0.15234375 0,0.19921875 -0.328125,0.19921875 h -0.09375 V 0.001375 c 0.2109375,-0.01171875 0.421875,-0.0234375 0.6210937,-0.0234375 0.1875,0 0.4101563,0.01171875 0.5976563,0.0234375 z m -0.328125,-2.9882813 c 0,-0.1640625 -0.1289063,-0.3046875 -0.3046875,-0.3046875 -0.1640625,0 -0.2929688,0.140625 -0.2929688,0.3046875 0,0.1640625 0.1289063,0.3046875 0.2929688,0.3046875 0.1640625,0 0.3046875,-0.140625 0.3046875,-0.3046875 z m 2.9238281,2.3554688 V -0.90096875 H 8.6699297 v 0.2578125 c 0,0.375 -0.2226563,0.515625 -0.3984375,0.515625 -0.375,0 -0.375,-0.3984375 -0.375,-0.50390625 V -1.9205 H 8.7753984 V -2.1431563 H 7.8964922 V -3.0572188 H 7.6855547 C 7.6738359,-2.5884688 7.4277422,-2.108 6.9238359,-2.0962813 V -1.9205 h 0.5273438 v 1.2890625 c 0,0.57421875 0.46875,0.69140625 0.7734375,0.69140625 0.375,0 0.65625,-0.28125 0.65625,-0.69140625 z m 5.7597658,-0.375 c 0,-0.5625 -0.480469,-1.0898438 -1.171875,-1.0898438 -0.316406,0 -0.5625,0.082031 -0.785156,0.2460938 v -0.890625 c 0.269531,0.058594 0.492187,0.058594 0.550781,0.058594 0.339844,0 0.585937,-0.09375 0.714844,-0.1640625 0.117187,-0.058594 0.457031,-0.2695312 0.457031,-0.3867187 0,-0.070312 -0.05859,-0.082031 -0.07031,-0.082031 0,0 -0.02344,0 -0.07031,0.023437 -0.199219,0.070312 -0.503906,0.140625 -0.832031,0.140625 -0.28125,0 -0.5625,-0.058594 -0.820313,-0.140625 -0.05859,-0.023437 -0.07031,-0.023437 -0.07031,-0.023437 -0.07031,0 -0.07031,0.058594 -0.07031,0.140625 v 1.4882813 c 0,0.09375 0,0.1523437 0.09375,0.1523437 0.04687,0 0.05859,-0.011719 0.105469,-0.058594 0.1875,-0.2226563 0.445312,-0.328125 0.785156,-0.328125 0.292969,0 0.445313,0.1640625 0.515625,0.2695312 0.117188,0.1640625 0.140625,0.3867188 0.140625,0.6328125 0,0.21093755 -0.01172,0.49218755 -0.210937,0.67968755 -0.222657,0.234375 -0.503907,0.24609375 -0.621094,0.24609375 -0.316406,0 -0.679688,-0.140625 -0.84375,-0.43359375 0.210937,-0.0117188 0.28125,-0.1640625 0.28125,-0.28125 0,-0.15234375 -0.117188,-0.28125005 -0.28125,-0.28125005 -0.105469,0 -0.269531,0.070312 -0.269531,0.2929688 0,0.4921875 0.46875,0.90234375 1.125,0.90234375 0.738281,0 1.347656,-0.4921875 1.347656,-1.11328125 z m 0,0"
       style="fill:#000000;fill-opacity:1;fill-rule:nonzero;stroke:none"
       aria-label="Bit5"
       transform="matrix(1.3333333,0,0,1.3333333,193.444,63.310667)" />
    <path
       id="path25"
       d="m 4.1725781,-0.92503906 c 0,-0.35156254 -0.3632812,-0.75000004 -1.171875,-0.85546874 0.5039063,-0.082031 0.9960938,-0.375 0.9960938,-0.7734375 0,-0.4570313 -0.6210938,-0.84375 -1.359375,-0.84375 H 0.43429688 v 0.2109375 h 0.15234375 c 0.3984375,0 0.3984375,0.058594 0.3984375,0.2109375 v 2.55468749 c 0,0.15234375 0,0.19921875 -0.3984375,0.19921875 H 0.43429688 V 7.421875e-4 H 2.8014844 c 0.7617187,0 1.3710937,-0.4335937475 1.3710937,-0.9257812475 z M 3.4577344,-2.5422266 c 0,0.3632813 -0.4453125,0.6914063 -0.9960938,0.6914063 h -0.984375 v -1.1367188 c 0,-0.1640625 0,-0.1992187 0.2460938,-0.1992187 h 0.8789062 c 0.5273438,0 0.8554688,0.328125 0.8554688,0.6445312 z m 0.1523437,1.61718754 c 0,0.375 -0.421875,0.703125 -0.9960937,0.703125 h -0.890625 c -0.2460938,0 -0.2460938,-0.0351563 -0.2460938,-0.1875 V -1.6867578 h 1.171875 c 0.6679688,0 0.9609375,0.4335937 0.9609375,0.76171874 z M 6.2878125,7.421875e-4 V -0.22191406 c -0.3398437,0 -0.375,0 -0.375,-0.19921875 V -2.2023828 L 5.0925,-2.1437891 v 0.2226563 c 0.3515625,0 0.3984375,0.023437 0.3984375,0.2695312 v 1.23046879 c 0,0.15234375 0,0.19921875 -0.328125,0.19921875 h -0.09375 V 7.421875e-4 C 5.28,-0.01097656 5.4909375,-0.02269531 5.6901563,-0.02269531 c 0.1875,0 0.4101562,0.01171875 0.5976562,0.0234374975 z M 5.9596875,-2.9875391 c 0,-0.1640625 -0.1289062,-0.3046875 -0.3046875,-0.3046875 -0.1640625,0 -0.2929687,0.140625 -0.2929687,0.3046875 0,0.1640625 0.1289062,0.3046875 0.2929687,0.3046875 0.1640625,0 0.3046875,-0.140625 0.3046875,-0.3046875 z m 2.9208984,2.35546879 V -0.90160156 H 8.6696484 v 0.2578125 c 0,0.375 -0.2226562,0.515625 -0.3984375,0.515625 -0.375,0 -0.375,-0.3984375 -0.375,-0.50390625 V -1.9211328 H 8.7751172 V -2.1437891 H 7.8962109 V -3.0578516 H 7.6852734 c -0.011719,0.46875 -0.2578125,0.9492188 -0.7617187,0.9609375 v 0.1757813 h 0.5273437 v 1.28906249 c 0,0.57421875 0.46875,0.69140625 0.7734375,0.69140625 0.375,0 0.65625,-0.28125 0.65625,-0.69140625 z M 14.780977,-0.80785156 V -1.0305078 h -0.621094 v -2.1914063 c 0,-0.1171875 0,-0.1523437 -0.128906,-0.1523437 -0.105469,0 -0.105469,0.011719 -0.164063,0.082031 L 12.02707,-1.030508 v 0.22265624 h 1.652344 v 0.38671875 c 0,0.15234375 0,0.19921875 -0.433594,0.19921875 H 13.070039 V 7.421875e-4 L 13.925508,-0.02269531 14.769258,7.421875e-4 V -0.22191406 h -0.175781 c -0.433594,0 -0.433594,-0.046875 -0.433594,-0.19921875 V -0.80785156 Z M 13.726289,-1.0305078 h -1.464844 l 1.464844,-1.8046875 z m 0,0"
       style="fill:#000000;fill-opacity:1;fill-rule:nonzero;stroke:none"
       aria-label="Bit4"
       transform="matrix(1.3333333,0,0,1.3333333,227.46,63.346667)" />
    <path
       id="path26"
       d="m 4.1712969,-0.92440625 c 0,-0.35156255 -0.3632813,-0.75000005 -1.171875,-0.85546875 0.5039062,-0.082031 0.9960937,-0.375 0.9960937,-0.7734375 0,-0.4570313 -0.6210937,-0.84375 -1.359375,-0.84375 H 0.43301563 v 0.2109375 h 0.15234375 c 0.3984375,0 0.3984375,0.058594 0.3984375,0.2109375 V -0.4205 c 0,0.15234375 0,0.19921875 -0.3984375,0.19921875 H 0.43301563 V 0.001375 H 2.8002031 c 0.7617188,0 1.3710938,-0.43359375 1.3710938,-0.92578125 z M 3.4564531,-2.5415938 c 0,0.3632813 -0.4453125,0.6914063 -0.9960937,0.6914063 h -0.984375 v -1.1367188 c 0,-0.1640625 0,-0.1992187 0.2460937,-0.1992187 h 0.8789063 c 0.5273437,0 0.8554687,0.328125 0.8554687,0.6445312 z m 0.1523438,1.61718755 c 0,0.375 -0.421875,0.703125 -0.9960938,0.703125 h -0.890625 c -0.2460937,0 -0.2460937,-0.0351562 -0.2460937,-0.1875 V -1.686125 h 1.171875 c 0.6679687,0 0.9609375,0.4335937 0.9609375,0.76171875 z M 6.2865313,0.001375 v -0.22265625 c -0.3398438,0 -0.375,0 -0.375,-0.19921875 V -2.20175 L 5.0912188,-2.143156 V -1.9205 c 0.3515625,0 0.3984375,0.023437 0.3984375,0.2695312 V -0.4205 c 0,0.15234375 0,0.19921875 -0.328125,0.19921875 h -0.09375 V 0.001375 c 0.2109375,-0.01171875 0.421875,-0.0234375 0.6210937,-0.0234375 0.1875,0 0.4101563,0.01171875 0.5976563,0.0234375 z m -0.328125,-2.9882813 c 0,-0.1640625 -0.1289063,-0.3046875 -0.3046875,-0.3046875 -0.1640625,0 -0.2929688,0.140625 -0.2929688,0.3046875 0,0.1640625 0.1289063,0.3046875 0.2929688,0.3046875 0.1640625,0 0.3046875,-0.140625 0.3046875,-0.3046875 z m 2.9208984,2.3554688 V -0.90096875 H 8.6683672 v 0.2578125 c 0,0.375 -0.2226563,0.515625 -0.3984375,0.515625 -0.375,0 -0.375,-0.3984375 -0.375,-0.50390625 V -1.9205 H 8.7738359 V -2.1431563 H 7.8949297 V -3.0572188 H 7.6839922 C 7.6722734,-2.5884688 7.4261797,-2.108 6.9222734,-2.0962813 V -1.9205 h 0.5273438 v 1.2890625 c 0,0.57421875 0.46875,0.69140625 0.7734375,0.69140625 0.375,0 0.65625,-0.28125 0.65625,-0.69140625 z m 5.8212893,-0.234375 c 0,-0.4101563 -0.363281,-0.7617188 -0.925781,-0.890625 0.597656,-0.1875 0.75,-0.5625 0.75,-0.84375 0,-0.4101563 -0.503907,-0.7148438 -1.136719,-0.7148438 -0.609375,0 -1.101563,0.2578125 -1.101563,0.703125 0,0.234375 0.1875,0.2929688 0.28125,0.2929688 0.140625,0 0.28125,-0.1054688 0.28125,-0.28125 0,-0.1171875 -0.05859,-0.2578125 -0.234375,-0.28125 0.210938,-0.234375 0.65625,-0.2460938 0.761719,-0.2460938 0.363281,0 0.621094,0.1875 0.621094,0.5273438 0,0.28125 -0.1875,0.7382812 -0.714844,0.7734375 -0.140625,0 -0.152344,0 -0.28125,0.011719 -0.05859,0 -0.117187,0.011719 -0.117187,0.082031 0,0.082031 0.05859,0.082031 0.140625,0.082031 h 0.328125 c 0.457031,0 0.761718,0.2929688 0.761718,0.7851563 0,0.50390625 -0.304687,0.7734375 -0.75,0.7734375 -0.05859,0 -0.65625,0 -0.902343,-0.2578125 0.199218,-0.0351563 0.257812,-0.1875 0.257812,-0.3046875 0,-0.1875 -0.140625,-0.3046875 -0.304687,-0.3046875 -0.152344,0 -0.304688,0.10546875 -0.304688,0.31640625 0,0.515625 0.585938,0.75 1.265625,0.75 0.820313,0 1.324219,-0.4921875 1.324219,-0.97265605 z m 0,0"
       style="fill:#000000;fill-opacity:1;fill-rule:nonzero;stroke:none"
       aria-label="Bit3"
       transform="matrix(1.3333333,0,0,1.3333333,261.47733,63.310667)" />
    <path
       id="path27"
       d="m 4.1710156,-0.92503906 c 0,-0.35156254 -0.3632812,-0.75000004 -1.171875,-0.85546874 0.5039063,-0.082031 0.9960938,-0.375 0.9960938,-0.7734375 0,-0.4570313 -0.6210938,-0.84375 -1.359375,-0.84375 H 0.43273437 v 0.2109375 h 0.15234375 c 0.3984375,0 0.3984375,0.058594 0.3984375,0.2109375 v 2.55468749 c 0,0.15234375 0,0.19921875 -0.3984375,0.19921875 H 0.43273437 V 7.421875e-4 H 2.7999219 c 0.7617187,0 1.3710937,-0.4335937475 1.3710937,-0.9257812475 z M 3.4561719,-2.5422266 c 0,0.3632813 -0.4453125,0.6914063 -0.9960938,0.6914063 h -0.984375 v -1.1367188 c 0,-0.1640625 0,-0.1992187 0.2460938,-0.1992187 h 0.8789062 c 0.5273438,0 0.8554688,0.328125 0.8554688,0.6445312 z m 0.1523437,1.61718754 c 0,0.375 -0.421875,0.703125 -0.9960937,0.703125 h -0.890625 c -0.2460938,0 -0.2460938,-0.0351563 -0.2460938,-0.1875 V -1.6867578 h 1.171875 c 0.6679688,0 0.9609375,0.4335937 0.9609375,0.76171874 z M 6.28625,7.421875e-4 V -0.22191406 c -0.3398438,0 -0.375,0 -0.375,-0.19921875 V -2.2023828 l -0.8203125,0.058594 v 0.2226563 c 0.3515625,0 0.3984375,0.023437 0.3984375,0.2695312 v 1.23046879 c 0,0.15234375 0,0.19921875 -0.328125,0.19921875 H 5.0675 V 7.421875e-4 C 5.2784375,-0.01097656 5.489375,-0.02269531 5.6885937,-0.02269531 c 0.1875,0 0.4101563,0.01171875 0.5976563,0.0234374975 z M 5.958125,-2.9875391 c 0,-0.1640625 -0.1289063,-0.3046875 -0.3046875,-0.3046875 -0.1640625,0 -0.2929688,0.140625 -0.2929688,0.3046875 0,0.1640625 0.1289063,0.3046875 0.2929688,0.3046875 0.1640625,0 0.3046875,-0.140625 0.3046875,-0.3046875 z m 2.9208984,2.35546879 V -0.90160156 H 8.6680859 v 0.2578125 c 0,0.375 -0.2226562,0.515625 -0.3984375,0.515625 -0.375,0 -0.375,-0.3984375 -0.375,-0.50390625 V -1.9211328 H 8.7735547 V -2.1437891 H 7.8946484 V -3.0578516 H 7.6837109 c -0.011719,0.46875 -0.2578125,0.9492188 -0.7617187,0.9609375 v 0.1757813 h 0.5273437 v 1.28906249 c 0,0.57421875 0.46875,0.69140625 0.7734375,0.69140625 0.375,0 0.65625,-0.28125 0.65625,-0.69140625 z m 5.7626956,-0.328125 h -0.210938 c -0.01172,0.09375 -0.05859,0.3984375 -0.140625,0.45703125 -0.03516,0.0234375 -0.457031,0.0234375 -0.527344,0.0234375 h -0.984375 c 0.328125,-0.24609375 0.703125,-0.515625 0.996094,-0.71484374 0.457031,-0.3164063 0.867188,-0.5976563 0.867188,-1.125 0,-0.6445313 -0.597657,-0.9960938 -1.3125,-0.9960938 -0.667969,0 -1.160157,0.3867188 -1.160157,0.8789063 0,0.2578125 0.210938,0.3046875 0.28125,0.3046875 0.140625,0 0.292969,-0.09375 0.292969,-0.2929688 0,-0.1875 -0.128906,-0.28125 -0.28125,-0.2929687 0.140625,-0.234375 0.433594,-0.375 0.761719,-0.375 0.480469,0 0.890625,0.28125 0.890625,0.7734375 0,0.421875 -0.292969,0.7382812 -0.679688,1.0546875 l -1.207031,1.03124999 c -0.04687,0.046875 -0.05859,0.046875 -0.05859,0.0820313 V 7.421875e-4 h 2.308594 z m 0,0"
       style="fill:#000000;fill-opacity:1;fill-rule:nonzero;stroke:none"
       aria-label="Bit2"
       transform="matrix(1.3333333,0,0,1.3333333,295.49333,63.346667)" />
    <path
       id="path28"
       d="m 4.1707344,-0.92503906 c 0,-0.35156254 -0.3632813,-0.75000004 -1.171875,-0.85546874 0.5039062,-0.082031 0.9960937,-0.375 0.9960937,-0.7734375 0,-0.4570313 -0.6210937,-0.84375 -1.359375,-0.84375 H 0.43245313 v 0.2109375 h 0.15234375 c 0.3984375,0 0.3984375,0.058594 0.3984375,0.2109375 v 2.55468749 c 0,0.15234375 0,0.19921875 -0.3984375,0.19921875 H 0.43245313 V 7.421875e-4 H 2.7996406 c 0.7617188,0 1.3710938,-0.4335937475 1.3710938,-0.9257812475 z M 3.4558906,-2.5422266 c 0,0.3632813 -0.4453125,0.6914063 -0.9960937,0.6914063 h -0.984375 v -1.1367188 c 0,-0.1640625 0,-0.1992187 0.2460937,-0.1992187 h 0.8789063 c 0.5273437,0 0.8554687,0.328125 0.8554687,0.6445312 z m 0.1523438,1.61718754 c 0,0.375 -0.421875,0.703125 -0.9960938,0.703125 h -0.890625 c -0.2460937,0 -0.2460937,-0.0351563 -0.2460937,-0.1875 V -1.6867578 h 1.171875 c 0.6679687,0 0.9609375,0.4335937 0.9609375,0.76171874 z M 6.2859688,7.421875e-4 V -0.22191406 c -0.3398438,0 -0.375,0 -0.375,-0.19921875 V -2.2023828 l -0.8203125,0.058594 v 0.2226563 c 0.3515625,0 0.3984375,0.023437 0.3984375,0.2695312 v 1.23046879 c 0,0.15234375 0,0.19921875 -0.328125,0.19921875 h -0.09375 V 7.421875e-4 C 5.2781563,-0.01097656 5.4890938,-0.02269531 5.6883125,-0.02269531 c 0.1875,0 0.4101563,0.01171875 0.5976563,0.0234374975 z M 5.9578438,-2.9875391 c 0,-0.1640625 -0.1289063,-0.3046875 -0.3046875,-0.3046875 -0.1640625,0 -0.2929688,0.140625 -0.2929688,0.3046875 0,0.1640625 0.1289063,0.3046875 0.2929688,0.3046875 0.1640625,0 0.3046875,-0.140625 0.3046875,-0.3046875 z m 2.9208984,2.35546879 V -0.90160156 H 8.6678047 v 0.2578125 c 0,0.375 -0.2226563,0.515625 -0.3984375,0.515625 -0.375,0 -0.375,-0.3984375 -0.375,-0.50390625 V -1.9211328 H 8.7732734 V -2.1437891 H 7.8943672 V -3.0578516 H 7.6834297 c -0.011719,0.46875 -0.2578125,0.9492188 -0.7617188,0.9609375 v 0.1757813 h 0.5273438 v 1.28906249 c 0,0.57421875 0.46875,0.69140625 0.7734375,0.69140625 0.375,0 0.65625,-0.28125 0.65625,-0.69140625 z M 14.465656,7.421875e-4 V -0.22191406 h -0.246093 c -0.527344,0 -0.527344,-0.046875 -0.527344,-0.2109375 V -3.1633203 c 0,-0.1523438 -0.01172,-0.1523438 -0.175781,-0.1523438 -0.351563,0.3164063 -0.902344,0.3164063 -1.007813,0.3164063 h -0.08203 v 0.2226562 h 0.08203 c 0.117188,0 0.433594,-0.011719 0.726563,-0.140625 v 2.48437504 c 0,0.1640625 0,0.2109375 -0.527344,0.2109375 H 12.46175 V 7.421875e-4 C 12.731281,-0.02269531 13.176594,-0.02269531 13.469563,-0.02269531 c 0.28125,0 0.726562,0 0.996093,0.0234374975 z m 0,0"
       style="fill:#000000;fill-opacity:1;fill-rule:nonzero;stroke:none"
       aria-label="Bit1"
       transform="matrix(1.3333333,0,0,1.3333333,329.50933,63.346667)" />
    <path
       id="path29"
       d="m 4.1732734,-0.92440625 c 0,-0.35156255 -0.3632812,-0.75000005 -1.171875,-0.85546875 0.5039063,-0.082031 0.9960938,-0.375 0.9960938,-0.7734375 0,-0.4570313 -0.6210938,-0.84375 -1.359375,-0.84375 H 0.43499219 v 0.2109375 h 0.15234375 c 0.3984375,0 0.3984375,0.058594 0.3984375,0.2109375 V -0.4205 c 0,0.15234375 0,0.19921875 -0.3984375,0.19921875 H 0.43499219 V 0.001375 H 2.8021797 c 0.7617187,0 1.3710937,-0.43359375 1.3710937,-0.92578125 z M 3.4584297,-2.5415938 c 0,0.3632813 -0.4453125,0.6914063 -0.9960938,0.6914063 h -0.984375 v -1.1367188 c 0,-0.1640625 0,-0.1992187 0.2460938,-0.1992187 h 0.8789062 c 0.5273438,0 0.8554688,0.328125 0.8554688,0.6445312 z m 0.1523437,1.61718755 c 0,0.375 -0.421875,0.703125 -0.9960937,0.703125 h -0.890625 c -0.2460938,0 -0.2460938,-0.0351562 -0.2460938,-0.1875 V -1.686125 h 1.171875 c 0.6679688,0 0.9609375,0.4335937 0.9609375,0.76171875 z M 6.2855781,0.001375 v -0.22265625 c -0.3398437,0 -0.375,0 -0.375,-0.19921875 V -2.20175 L 5.0902656,-2.143156 V -1.9205 c 0.3515625,0 0.3984375,0.023437 0.3984375,0.2695312 V -0.4205 c 0,0.15234375 0,0.19921875 -0.328125,0.19921875 h -0.09375 V 0.001375 c 0.2109375,-0.01171875 0.421875,-0.0234375 0.6210938,-0.0234375 0.1875,0 0.4101562,0.01171875 0.5976562,0.0234375 z m -0.328125,-2.9882813 c 0,-0.1640625 -0.1289062,-0.3046875 -0.3046875,-0.3046875 -0.1640625,0 -0.2929687,0.140625 -0.2929687,0.3046875 0,0.1640625 0.1289062,0.3046875 0.2929687,0.3046875 0.1640625,0 0.3046875,-0.140625 0.3046875,-0.3046875 z m 2.9238282,2.3554688 V -0.90096875 H 8.6703438 v 0.2578125 c 0,0.375 -0.2226563,0.515625 -0.3984375,0.515625 -0.375,0 -0.375,-0.3984375 -0.375,-0.50390625 V -1.9205 H 8.7758125 V -2.1431563 H 7.8969063 V -3.0572188 H 7.6859688 C 7.67425,-2.5884688 7.4281563,-2.108 6.92425,-2.0962813 V -1.9205 h 0.5273438 v 1.2890625 c 0,0.57421875 0.46875,0.69140625 0.7734375,0.69140625 0.375,0 0.65625,-0.28125 0.65625,-0.69140625 z M 14.699641,-1.592375 c 0,-0.3632813 0,-1.7226563 -1.289063,-1.7226563 -1.300781,0 -1.300781,1.359375 -1.300781,1.7226563 0,0.3632812 0,1.69921875 1.300781,1.69921875 1.289063,0 1.289063,-1.33593755 1.289063,-1.69921875 z m -0.492188,-0.058594 c 0,0.3398438 0,0.7382813 -0.07031,1.0429688 -0.128907,0.48046875 -0.527344,0.55078125 -0.726563,0.55078125 -0.1875,0 -0.609375,-0.05859375 -0.738281,-0.5625 -0.05859,-0.26953125 -0.07031,-0.62109375 -0.07031,-1.03125005 0,-0.375 0,-0.7148437 0.08203,-0.9960937 0.128906,-0.421875 0.503906,-0.5039063 0.726562,-0.5039063 0.363281,0 0.621094,0.1875 0.726563,0.5390625 0.07031,0.2578125 0.07031,0.6679688 0.07031,0.9609375 z m 0,0"
       style="fill:#000000;fill-opacity:1;fill-rule:nonzero;stroke:none"
       aria-label="Bit0"
       transform="matrix(1.3333333,0,0,1.3333333,378.64267,63.310667)" />
    <path
       id="path30"
       d="M 4.5245078,0.00140625 V -0.22125 H 4.3956016 c -0.3046875,0 -0.375,-0.0234375 -0.4453125,-0.1640625 l -1.3359375,-3.046875 c -0.035156,-0.09375 -0.058594,-0.1289063 -0.1757813,-0.1289063 -0.082031,0 -0.1289062,0.011719 -0.1757812,0.1171875 L 0.98544531,-0.51421875 C 0.86825781,-0.268125 0.59872656,-0.22125 0.35263281,-0.22125 v 0.22265625 c 0.1875,-0.01171875 0.3984375,-0.0234375 0.57421875,-0.0234375 0.0703125,0 0.42187504,0.01171875 0.65625004,0.0234375 V -0.22125 c -0.28125,0 -0.3867188,-0.1171875 -0.3867188,-0.2109375 0,-0.0351563 0.011719,-0.046875 0.035156,-0.09375 L 1.4893516,-1.111875 h 1.59375 l 0.3046875,0.703125 c 0.035156,0.0585938 0.035156,0.0703125 0.035156,0.0703125 0,0.1171875 -0.2929687,0.1171875 -0.4335937,0.1171875 v 0.22265625 l 0.8085937,-0.0234375 z M 2.9893516,-1.3228125 h -1.40625 l 0.703125,-1.6054688 z M 9.0010703,-1.15875 c 0,-0.082031 -0.023437,-0.1054688 -0.1054687,-0.1054688 -0.058594,0 -0.1054688,0 -0.1054688,0.082031 -0.046875,0.75 -0.7617187,1.078125 -1.3476562,1.078125 -0.703125,0 -1.6640625,-0.3984375 -1.6640625,-1.59375 0,-1.1953125 0.9375,-1.59375 1.6523437,-1.59375 0.4570313,0 1.1835938,0.234375 1.3476563,1.171875 0.011719,0.058594 0.070312,0.058594 0.1054687,0.058594 0.1171875,0 0.1171875,-0.035156 0.1171875,-0.140625 v -1.171875 c 0,-0.082031 0,-0.140625 -0.082031,-0.140625 -0.058594,0 -0.070312,0.023437 -0.09375,0.058594 l -0.292969,0.3867185 C 8.2276328,-3.3267188 7.8409141,-3.5142188 7.3487266,-3.5142188 c -1.2070313,0 -2.15625,0.8320313 -2.15625,1.8164063 0,0.984375 0.9492187,1.8046875 2.15625,1.8046875 0.9609375,0 1.6523437,-0.609375 1.6523437,-1.265625 z M 14.136813,0.00140625 V -0.22125 c -0.363282,0 -0.445313,-0.0351563 -0.632813,-0.234375 l -1.394531,-1.6054688 1.125,-0.8554687 c 0.164062,-0.1171875 0.433594,-0.2695313 0.820312,-0.2695313 v -0.2109375 c -0.199218,0.011719 -0.28125,0.011719 -0.515625,0.011719 l -0.726562,-0.011719 v 0.2109375 c 0.03516,0 0.164062,0.011719 0.164062,0.1289063 0,0.046875 -0.02344,0.1054687 -0.105468,0.1640625 l -1.886719,1.4296875 v -1.5117188 c 0,-0.1523437 0,-0.2109375 0.398437,-0.2109375 h 0.152344 v -0.2109375 l -0.820312,0.011719 -0.820313,-0.011719 v 0.2109375 h 0.152344 c 0.398437,0 0.398437,0.058594 0.398437,0.2109375 v 2.55468755 c 0,0.15234375 0,0.19921875 -0.398437,0.19921875 H 9.894625 v 0.22265625 l 0.820313,-0.0234375 0.820312,0.0234375 V -0.22125 h -0.152344 c -0.398437,0 -0.398437,-0.046875 -0.398437,-0.19921875 V -1.1939063 l 0.75,-0.5859375 1.113281,1.28906255 c 0.03516,0.0234375 0.09375,0.09375 0.09375,0.15234375 0,0.1171875 -0.164062,0.1171875 -0.257812,0.1171875 v 0.22265625 l 0.796875,-0.0234375 c 0.234375,0 0.410156,0 0.65625,0.0234375 z m 0,0"
       style="fill:#000000;fill-opacity:1;fill-rule:nonzero;stroke:none"
       aria-label="ACK"
       transform="matrix(1.3333333,0,0,1.3333333,439.49467,63.42)" />
    <path
       id="path31"
       d="m 5.2840781,-1.8175 c 0,-0.9726563 -0.7265625,-1.7109375 -1.5703125,-1.8984375 L 2.4129844,-3.9854688 c -0.9023438,-0.1992187 -0.9375,-0.8085937 -0.9375,-0.9257812 0,-0.421875 0.28125,-0.9492188 1.1835937,-0.9492188 1.4179688,0 1.7695313,0.9726563 1.8632813,1.5703125 0.035156,0.140625 0.035156,0.1875 0.234375,0.1875 0.2226562,0 0.234375,-0.046875 0.234375,-0.2695312 v -1.6289063 c 0,-0.1640625 0,-0.2578125 -0.1757813,-0.2578125 -0.082031,0 -0.09375,0.011719 -0.1992187,0.1054688 l -0.3984375,0.3867187 c -0.5039063,-0.3984375 -1.078125,-0.4921875 -1.5703125,-0.4921875 -1.4296875,0 -2.06250002,0.9023438 -2.06250002,1.8046875 0,0.6445313 0.375,1.0546875 0.45703122,1.1484375 0.4921875,0.4921875 0.7851563,0.5507813 1.7226563,0.75 0.140625,0.023437 0.28125,0.058594 0.421875,0.09375 0.5273437,0.1054688 0.6796875,0.1289063 0.9726562,0.4335938 0.011719,0.023437 0.2460938,0.2578125 0.2460938,0.65625 0,0.1757812 -0.058594,1.04296875 -1.21875,1.04296875 -0.5390625,0 -2.0625,-0.10546875 -2.1328125,-1.50000005 -0.011719,-0.1640625 -0.011719,-0.2109375 -0.23437502,-0.2109375 -0.234375,0 -0.234375,0.046875 -0.234375,0.2695313 v 1.6171875 c 0,0.1640625 0,0.2578125 0.1875,0.2578125 0.0703125,0 0.0820313,0 0.1640625,-0.08203125 0.0585938,-0.03515625 0.25781252,-0.2578125 0.42187502,-0.3984375 0.5507812,0.3984375 1.3476562,0.48046875 1.8398437,0.48046875 1.5117188,0 2.0859375,-0.99609375 2.0859375,-1.921875 z m 3.2900391,1.81640625 V -0.4346875 H 7.9647422 V -6.22375 l -1.6054688,0.070312 v 0.4453125 c 0.5390625,0 0.609375,0 0.609375,0.3515625 v 4.921875 h -0.609375 v 0.43359375 l 1.1015625,-0.0234375 z M 13.938375,-0.22375 c 0,-0.2109375 -0.140625,-0.2109375 -0.234375,-0.2109375 -0.574219,-0.0117188 -0.574219,-0.10546875 -0.574219,-0.31640625 V -2.6729688 c 0,-0.7851562 -0.644531,-1.3945312 -2.015625,-1.3945312 -0.515625,0 -1.6640622,0.023437 -1.6640622,0.84375 0,0.4101562 0.3046875,0.5976562 0.5859372,0.5976562 0.304688,0 0.574219,-0.2226562 0.574219,-0.5859375 0,-0.2578125 -0.152344,-0.4101562 -0.175781,-0.4335937 0.09375,-0.023437 0.304687,-0.058594 0.632812,-0.058594 0.65625,0 1.019532,0.328125 1.019532,1.03125 V -2.38 c -1.488282,0 -3.0000005,0.375 -3.0000005,1.3710937 0,0.89062505 1.1250005,1.0664063 1.7695315,1.0664063 0.679687,0 1.148437,-0.3046875 1.394531,-0.7265625 0,0.234375 0,0.66796875 0.960938,0.66796875 h 0.433593 c 0.175782,0 0.292969,0 0.292969,-0.22265625 z m -1.851562,-1.0195313 c 0,0.93750005 -1.042969,0.93750005 -1.078125,0.93750005 -0.457032,0 -0.832032,-0.29296875 -0.832032,-0.70312505 0,-0.2929687 0.164063,-0.9960937 1.910157,-1.0664062 z m 6.958007,-2.296875 v -0.4453125 c -0.246093,0.035156 -0.480468,0.035156 -0.726562,0.035156 -0.257813,0 -0.550781,0 -0.808594,-0.035156 v 0.4453125 c 0.257813,0 0.328125,0.046875 0.410156,0.082031 0,0.035156 0,0.046875 -0.04687,0.1171875 l -1.078125,2.2382812 -1.171875,-2.4375 h 0.457032 v -0.4453125 l -1.101563,0.035156 c -0.316406,0 -0.492187,0 -1.03125,-0.035156 v 0.4453125 h 0.574219 l 1.605469,3.32812505 c 0.07031,0.17578125 0.152343,0.2578125 0.375,0.2578125 0.222656,0 0.292968,-0.08203125 0.375,-0.2578125 L 18.38857,-3.3526563 c 0.05859,-0.1289062 0.09375,-0.1875 0.65625,-0.1875 z m 4.523438,2.4960938 c 0,-0.1757813 -0.175781,-0.1757813 -0.234375,-0.1757813 -0.152344,0 -0.175781,0.058594 -0.222656,0.1757813 -0.210938,0.46875 -0.761719,0.71484375 -1.324219,0.71484375 -1.265625,0 -1.289063,-1.16015625 -1.289063,-1.59375005 h 2.777344 c 0.1875,0 0.292969,0 0.292969,-0.2578125 0,-0.1992187 -0.01172,-0.984375 -0.597656,-1.4648437 -0.398438,-0.3398438 -0.9375,-0.421875 -1.382813,-0.421875 -1.523437,0 -2.285156,0.9726562 -2.285156,2.0507812 0,1.17187505 0.890625,2.0742188 2.414062,2.0742188 1.476563,0 1.851563,-0.94921875 1.851563,-1.1015625 z m -0.878906,-1.2070313 h -2.191407 c 0.02344,-0.4101562 0.05859,-1.453125 1.089844,-1.453125 1.054688,0 1.089844,1.0898438 1.101563,1.453125 z m 0,0"
       style="fill:#000000;fill-opacity:1;fill-rule:nonzero;stroke:none"
       aria-label="Slave"
       transform="matrix(1.3333333,0,0,1.3333333,459.728,91.673333)" />
    <path
       id="path32"
       d="M 297.6415,9.53777 V 22.93465"
       style="fill:none;stroke:#000000;stroke-width:0.79701;stroke-linecap:butt;stroke-linejoin:miter;stroke-miterlimit:10;stroke-dasharray:none;stroke-opacity:1"
       transform="matrix(1.3333333,0,0,-1.3333333,78.790667,91.352)" />
    <path
       id="path33"
       d="M 7.36906,0 1.28693,2.29385 3.2911,0 1.28693,-2.29385 Z"
       style="fill:#000000;fill-opacity:1;fill-rule:nonzero;stroke:#000000;stroke-width:0.79701;stroke-linecap:butt;stroke-linejoin:miter;stroke-miterlimit:10;stroke-dasharray:none;stroke-opacity:1"
       transform="matrix(0,-1.3333333,-1.3333333,0,475.646,64.894973)" />
  </g>
</svg>
