<?xml version="1.0" encoding="UTF-8" standalone="no"?>
<!-- Created with Inkscape (http://www.inkscape.org/) -->

<svg
   version="1.1"
   id="svg1"
   width="604.73193"
   height="340.16162"
   viewBox="0 0 604.73193 340.16162"
   sodipodi:docname="i2c_png (2).pdf"
   xmlns:inkscape="http://www.inkscape.org/namespaces/inkscape"
   xmlns:sodipodi="http://sodipodi.sourceforge.net/DTD/sodipodi-0.dtd"
   xmlns="http://www.w3.org/2000/svg"
   xmlns:svg="http://www.w3.org/2000/svg">
  <defs
     id="defs1" />
  <sodipodi:namedview
     id="namedview1"
     pagecolor="#ffffff"
     bordercolor="#000000"
     borderopacity="0.25"
     inkscape:showpageshadow="2"
     inkscape:pageopacity="0.0"
     inkscape:pagecheckerboard="0"
     inkscape:deskcolor="#d1d1d1">
    <inkscape:page
       x="0"
       y="0"
       width="604.73193"
       height="340.16162"
       id="page2"
       margin="0"
       bleed="0" />
  </sodipodi:namedview>
  <g
     id="g1"
     inkscape:groupmode="layer"
     inkscape:label="1"
     transform="translate(-13.279365,-13.280508)">
    <path
       id="path1"
       d="M -226.77448,-127.56062 V 127.56062 H 226.77448 V -127.56062 Z"
       style="fill:#ffffff;fill-opacity:1;fill-rule:nonzero;stroke:none"
       transform="matrix(1.3333333,0,0,-1.3333333,315.64533,183.36133)" />
    <path
       id="path2"
       d="m -48.49785,42.52022 h -129.77876 c -3.30142,0 -5.97766,-2.67626 -5.97766,-5.97766 v -73.08512 c 0,-3.3014 2.67624,-5.97766 5.97766,-5.97766 h 129.77876 c 3.30142,0 5.97766,2.67626 5.97766,5.97766 v 73.08512 c 0,3.3014 -2.67624,5.97766 -5.97766,5.97766 z"
       style="fill:#e6ffe6;fill-opacity:1;fill-rule:nonzero;stroke:#000000;stroke-width:1.49442;stroke-linecap:butt;stroke-linejoin:miter;stroke-miterlimit:10;stroke-dasharray:none;stroke-opacity:1"
       transform="matrix(1.3333333,0,0,-1.3333333,315.64533,183.36133)" />
    <path
       id="path3"
       d="M 3.3040625,-9.5281562 C 3.1985938,-9.7976875 3.186875,-9.7976875 2.85875,-9.7976875 H 0.6321875 v 0.421875 h 0.28125 c 1.03125,0 1.078125,0.140625 1.078125,0.6679688 v 7.2304687 c 0,0.3867188 0,1.06640625 -1.359375,1.06640625 V -8.125e-4 c 0.375,-0.0234375 1.1367188,-0.0234375 1.5351563,-0.0234375 0.3984375,0 1.1601562,0 1.5351562,0.0234375 v -0.41015625 c -1.359375,0 -1.359375,-0.67968745 -1.359375,-1.06640625 V -9.3055 h 0.011719 l 3.457031,9.03515625 C 5.8704688,-0.118 5.905625,-8.125e-4 6.0579688,-8.125e-4 c 0.1289062,0 0.1523437,-0.0703125 0.234375,-0.28125 l 3.4921875,-9.09375 H 9.79625 v 8.2851563 c 0,0.5273437 -0.046875,0.67968745 -1.078125,0.67968745 H 8.436875 V -8.125e-4 C 8.765,-0.02425 9.9134375,-0.02425 10.323594,-0.02425 c 0.421875,0 1.570312,0 1.898437,0.0234375 v -0.41015625 h -0.292968 c -1.03125,0 -1.066407,-0.15234375 -1.066407,-0.67968745 v -7.6171875 c 0,-0.5273438 0.03516,-0.6679688 1.066407,-0.6679688 h 0.292968 v -0.421875 H 9.9954688 c -0.3164063,0 -0.328125,0.011719 -0.4453125,0.28125 L 6.42125,-1.3484687 Z M 15.368516,-8.83675 c 0,-0.375 -0.304688,-0.703125 -0.703125,-0.703125 -0.375,0 -0.691407,0.3046875 -0.691407,0.6914063 0,0.4335937 0.351563,0.703125 0.691407,0.703125 0.445312,0 0.703125,-0.375 0.703125,-0.6914063 z m -1.980469,2.671875 v 0.4101563 c 0.914062,0 1.042969,0.09375 1.042969,0.7851562 v 3.9023438 c 0,0.65624995 -0.152344,0.65624995 -1.089844,0.65624995 V -8.125e-4 C 13.751328,-0.02425 14.431016,-0.02425 14.852891,-0.02425 c 0.152343,0 0.984375,0 1.476562,0.0234375 v -0.41015625 c -0.9375,0 -0.984375,-0.0820313 -0.984375,-0.63281245 v -5.2851563 z m 7.40625,2.3671875 c 0,-0.023437 -0.105469,-0.1289062 -0.105469,-0.1523437 0,-0.035156 0.902344,-0.8085938 1.019531,-0.9257813 0.996094,-0.8671875 1.617188,-0.8789062 1.921875,-0.890625 v -0.421875 c -0.28125,0.035156 -0.65625,0.035156 -1.089843,0.035156 -0.375,0 -1.101563,0 -1.429688,-0.035156 v 0.421875 c 0.234375,0.011719 0.410156,0.140625 0.410156,0.375 0,0.28125 -0.28125,0.5390625 -0.304687,0.5390625 l -2.050781,1.8164063 v -6.9140625 l -1.992188,0.1523437 v 0.421875 c 0.984375,0 1.089844,0.09375 1.089844,0.796875 v 7.5117188 c 0,0.65624995 -0.152344,0.65624995 -1.089844,0.65624995 V -8.125e-4 C 17.583359,-0.02425 18.263047,-0.02425 18.696641,-0.02425 c 0.433593,0 1.113281,0 1.523437,0.0234375 v -0.41015625 c -0.925781,0 -1.089844,0 -1.089844,-0.65624995 v -1.5117188 l 0.914063,-0.8085937 1.382812,1.9804687 c 0.210938,0.3046875 0.316407,0.45703125 0.316407,0.65625 0,0.2578125 -0.210938,0.33984375 -0.503907,0.33984375 V -8.125e-4 C 21.591172,-0.02425 22.294297,-0.02425 22.681016,-0.02425 c 0.621093,0 0.644531,0 1.265625,0.0234375 v -0.41015625 c -0.386719,0 -0.832032,0 -1.230469,-0.59765625 z m 5.783203,0.4570313 c 0,-1.3945313 0.574219,-2.6953125 1.6875,-2.6953125 0.105469,0 0.140625,0 0.199219,0.011719 -0.117188,0.058594 -0.351563,0.140625 -0.351563,0.5273438 0,0.421875 0.339844,0.5742187 0.5625,0.5742187 0.292969,0 0.574219,-0.1875 0.574219,-0.5742187 0,-0.4335938 -0.386719,-0.8320313 -1.007812,-0.8320313 -1.21875,0 -1.628907,1.3242188 -1.710938,1.59375 h -0.02344 v -1.59375 l -1.921875,0.1640625 v 0.4101563 c 0.984375,0 1.089843,0.1054687 1.089843,0.8085937 v 3.8789063 c 0,0.65624995 -0.152343,0.65624995 -1.089843,0.65624995 V -8.125e-4 C 24.995469,-0.02425 25.780625,-0.02425 26.214219,-0.02425 c 0.386719,0 1.40625,0 1.734375,0.0234375 v -0.41015625 h -0.292969 c -1.042969,0 -1.078125,-0.1640625 -1.078125,-0.67968745 z m 9.65918,0.2695312 c 0,-1.8515625 -1.40625,-3.328125 -3.070313,-3.328125 -1.722656,0 -3.082031,1.5234375 -3.082031,3.328125 0,1.8398438 1.429687,3.2109375 3.070312,3.2109375 1.6875,0 3.082032,-1.40625 3.082032,-3.2109375 z m -3.070313,2.89453125 c -0.527344,0 -1.171875,-0.22265625 -1.59375,-0.92578125 -0.386719,-0.6445312 -0.398437,-1.5 -0.398437,-2.0976562 0,-0.5390625 0,-1.4179688 0.445312,-2.0625 0.398438,-0.6210938 1.03125,-0.84375 1.535156,-0.84375 0.550782,0 1.160157,0.2578125 1.546875,0.8085937 0.445313,0.6679688 0.445313,1.5703125 0.445313,2.0976563 0,0.5039062 0,1.3945312 -0.375,2.0625 -0.398438,0.6914062 -1.066406,0.96093745 -1.605469,0.96093745 z m 8.197266,-9.62109375 v 0.421875 c 0.972656,0 1.089844,0.09375 1.089844,0.796875 v 3.1757813 c -0.292969,-0.421875 -0.914063,-0.9257813 -1.792969,-0.9257813 -1.664063,0 -3.09375,1.40625 -3.09375,3.2460938 0,1.8164062 1.359375,3.2226562 2.941406,3.2226562 1.089844,0 1.722656,-0.71484375 1.921875,-0.984375 v 0.984375 l 2.015625,-0.140625 v -0.41015625 c -0.972656,0 -1.089844,-0.10546875 -1.089844,-0.80859375 v -8.7304687 z m 1.066406,8.1210938 c 0,0.2578125 0,0.2929687 -0.199219,0.609375 -0.351562,0.5039062 -0.9375,0.9257812 -1.652343,0.9257812 -0.375,0 -1.921875,-0.140625 -1.921875,-2.9296875 0,-1.03125 0.175781,-1.6054687 0.480468,-2.0742187 0.292969,-0.4453125 0.867188,-0.890625 1.582032,-0.890625 0.890625,0 1.394531,0.6445312 1.535156,0.8671875 0.175781,0.2460937 0.175781,0.28125 0.175781,0.5390625 z m 7.933594,-1.6523438 c 0.316406,0 0.339844,0 0.339844,-0.2695312 0,-1.453125 -0.773438,-2.8007813 -2.507813,-2.8007813 -1.640625,0 -2.894531,1.4765625 -2.894531,3.2578125 0,1.8984375 1.464844,3.28125 3.046875,3.28125 1.710937,0 2.355469,-1.546875 2.355469,-1.8515625 0,-0.082031 -0.07031,-0.140625 -0.152344,-0.140625 -0.117188,0 -0.152344,0.070312 -0.175781,0.140625 -0.375,1.20703125 -1.335938,1.53515625 -1.933594,1.53515625 -0.609375,0 -2.050781,-0.3984375 -2.050781,-2.88281245 v -0.2695313 z m -3.960938,-0.2695312 c 0.117188,-2.25 1.371094,-2.5078125 1.78125,-2.5078125 1.535157,0 1.617188,2.015625 1.628907,2.5078125 z m 11.094727,0.1171875 c 0,-1.3359375 0,-1.7460938 -0.328125,-2.203125 -0.421875,-0.5507813 -1.089844,-0.6445313 -1.582031,-0.6445313 -1.394532,0 -1.933594,1.1953125 -2.050782,1.4765625 h -0.01172 v -1.4765625 l -1.957032,0.1640625 v 0.4101563 c 0.972657,0 1.089844,0.1054687 1.089844,0.8085937 v 3.8789063 c 0,0.65624995 -0.152344,0.65624995 -1.089844,0.65624995 V -8.125e-4 c 0.375,-0.0234375 1.148438,-0.0234375 1.546875,-0.0234375 0.421875,0 1.195313,0 1.570313,0.0234375 v -0.41015625 c -0.925781,0 -1.089844,0 -1.089844,-0.65624995 V -3.727375 c 0,-1.5117187 0.984375,-2.3085937 1.875,-2.3085937 0.890625,0 1.089844,0.7265625 1.089844,1.6054687 v 3.3632813 c 0,0.65624995 -0.152344,0.65624995 -1.089844,0.65624995 V -8.125e-4 c 0.375,-0.0234375 1.148438,-0.0234375 1.546875,-0.0234375 0.421875,0 1.195313,0 1.570313,0.0234375 v -0.41015625 c -0.714844,0 -1.078125,0 -1.089844,-0.43359375 z m 6.914062,0.1523437 c 0.316407,0 0.339844,0 0.339844,-0.2695312 0,-1.453125 -0.773437,-2.8007813 -2.507812,-2.8007813 -1.640625,0 -2.894532,1.4765625 -2.894532,3.2578125 0,1.8984375 1.464844,3.28125 3.046875,3.28125 1.710938,0 2.355469,-1.546875 2.355469,-1.8515625 0,-0.082031 -0.07031,-0.140625 -0.152344,-0.140625 -0.117187,0 -0.152343,0.070312 -0.175781,0.140625 -0.375,1.20703125 -1.335937,1.53515625 -1.933594,1.53515625 -0.609375,0 -2.050781,-0.3984375 -2.050781,-2.88281245 v -0.2695313 z m -3.960937,-0.2695312 c 0.117187,-2.25 1.371094,-2.5078125 1.78125,-2.5078125 1.535156,0 1.617187,2.015625 1.628906,2.5078125 z m 7.12207,-2.1679688 h 2.015625 v -0.421875 h -2.015625 v -2.6367187 h -0.316406 c -0.02344,1.3476562 -0.539063,2.7304687 -1.839844,2.765625 v 0.2929687 h 1.21875 v 3.984375 c 0,1.59375 1.066406,1.921875 1.828125,1.921875 0.902344,0 1.371094,-0.890625 1.371094,-1.921875 V -2.602375 H 69.51793 V -1.8055 c 0,1.03125 -0.410157,1.62890625 -0.972657,1.62890625 -0.972656,0 -0.972656,-1.33593745 -0.972656,-1.57031245 z m 5.519531,-4.1835937 -2.003906,0.1523437 v 0.421875 c 0.984375,0 1.089844,0.09375 1.089844,0.796875 v 7.5117188 c 0,0.65624995 -0.152344,0.65624995 -1.089844,0.65624995 V -8.125e-4 C 71.498398,-0.02425 72.201523,-0.02425 72.623398,-0.02425 c 0.433594,0 1.148438,0 1.558594,0.0234375 v -0.41015625 c -0.925781,0 -1.089844,0 -1.089844,-0.65624995 z m 6.925782,6.6210937 c 0.316406,0 0.339843,0 0.339843,-0.2695312 0,-1.453125 -0.773437,-2.8007813 -2.507812,-2.8007813 -1.640625,0 -2.894531,1.4765625 -2.894531,3.2578125 0,1.8984375 1.464843,3.28125 3.046875,3.28125 1.710937,0 2.355468,-1.546875 2.355468,-1.8515625 0,-0.082031 -0.07031,-0.140625 -0.152343,-0.140625 -0.117188,0 -0.152344,0.070312 -0.175782,0.140625 -0.375,1.20703125 -1.335937,1.53515625 -1.933593,1.53515625 -0.609375,0 -2.050782,-0.3984375 -2.050782,-2.88281245 v -0.2695313 z m -3.960938,-0.2695312 c 0.117188,-2.25 1.371094,-2.5078125 1.78125,-2.5078125 1.535156,0 1.617188,2.015625 1.628906,2.5078125 z M 86.5775,-4.7937812 c 0.386719,-0.9609375 1.054688,-0.9726563 1.335938,-0.9726563 v -0.421875 c -0.421875,0.035156 -0.621094,0.035156 -1.078125,0.035156 -0.328125,0 -0.363282,0 -1.160157,-0.035156 v 0.421875 c 0.527344,0.023437 0.65625,0.3632813 0.65625,0.6210938 0,0.1289062 -0.03516,0.1992187 -0.08203,0.3398437 l -1.464844,3.609375 -1.59375,-3.9023437 c -0.08203,-0.1992188 -0.08203,-0.28125 -0.08203,-0.2929688 0,-0.375 0.492188,-0.375 0.785156,-0.375 v -0.421875 c -0.375,0.035156 -1.078125,0.035156 -1.476562,0.035156 -0.550781,0 -0.574219,0 -1.394531,-0.035156 v 0.421875 c 0.832031,0 0.949218,0.070312 1.136718,0.515625 l 2.132813,5.25 C 83.659533,1.522625 83.659533,1.5460625 83.60094,1.66325 c -0.234375,0.4335938 -0.632813,0.9726563 -1.277344,0.9726563 -0.445313,0 -0.714844,-0.2578125 -0.714844,-0.2578125 0,0 0.503906,-0.058594 0.503906,-0.5625 0,-0.3398438 -0.269531,-0.5273438 -0.527343,-0.5273438 -0.246094,0 -0.550782,0.140625 -0.550782,0.5625 0,0.5390625 0.539063,1.078125 1.289063,1.078125 0.808594,0 1.394531,-0.703125 1.769531,-1.6054687 z M 90.676133,-8.83675 c 0,-0.375 -0.304688,-0.703125 -0.703125,-0.703125 -0.375,0 -0.691406,0.3046875 -0.691406,0.6914063 0,0.4335937 0.351562,0.703125 0.691406,0.703125 0.445312,0 0.703125,-0.375 0.703125,-0.6914063 z m -1.980469,2.671875 v 0.4101563 c 0.914063,0 1.042969,0.09375 1.042969,0.7851562 v 3.9023438 c 0,0.65624995 -0.152344,0.65624995 -1.089844,0.65624995 V -8.125e-4 C 89.058945,-0.02425 89.738633,-0.02425 90.160508,-0.02425 c 0.152344,0 0.984375,0 1.476562,0.0234375 v -0.41015625 c -0.9375,0 -0.984375,-0.0820313 -0.984375,-0.63281245 v -5.2851563 z m 8.578125,0.8554688 c -0.175781,0 -0.703125,0 -0.703125,0.5859375 0,0.3515625 0.246094,0.5859375 0.585938,0.5859375 0.328125,0 0.609375,-0.1992188 0.609375,-0.609375 0,-0.9609375 -1.007813,-1.6523438 -2.167969,-1.6523438 -1.675781,0 -3.011719,1.4882813 -3.011719,3.3046875 0,1.828125 1.371094,3.234375 3,3.234375 1.886719,0 2.320313,-1.7226562 2.320313,-1.8515625 0,-0.1289062 -0.105469,-0.1289062 -0.140625,-0.1289062 -0.128907,0 -0.152344,0.046875 -0.1875,0.2226562 -0.316407,1.01953125 -1.089844,1.44140625 -1.863282,1.44140625 -0.878906,0 -2.039062,-0.76171875 -2.039062,-2.94140625 0,-2.3789062 1.21875,-2.9648437 1.933594,-2.9648437 0.550781,0 1.335937,0.2109375 1.664062,0.7734375 z M 100.82164,-8.83675 c 0,-0.375 -0.30469,-0.703125 -0.70312,-0.703125 -0.375004,0 -0.691411,0.3046875 -0.691411,0.6914063 0,0.4335937 0.351563,0.703125 0.691411,0.703125 0.44531,0 0.70312,-0.375 0.70312,-0.6914063 z m -1.980468,2.671875 v 0.4101563 c 0.914062,0 1.042969,0.09375 1.042969,0.7851562 v 3.9023438 c 0,0.65624995 -0.152344,0.65624995 -1.089844,0.65624995 V -8.125e-4 C 99.204453,-0.02425 99.884141,-0.02425 100.30602,-0.02425 c 0.15234,0 0.98437,0 1.47656,0.0234375 v -0.41015625 c -0.9375,0 -0.98438,-0.0820313 -0.98438,-0.63281245 V -6.3289375 Z M 29.01207,21.412273 c 0,-0.03516 0,-0.07031 -0.246093,-0.304687 -1.429688,-1.453125 -2.238282,-3.820313 -2.238282,-6.75 0,-2.777344 0.679688,-5.1796876 2.34375,-6.8671876 0.140625,-0.1289062 0.140625,-0.1640625 0.140625,-0.1992187 0,-0.09375 -0.07031,-0.1171875 -0.128906,-0.1171875 -0.1875,0 -1.359375,1.03125 -2.0625,2.4375 -0.738281,1.4531248 -1.066406,2.9882808 -1.066406,4.7460938 0,1.277344 0.199219,2.988281 0.949219,4.523437 0.84375,1.722657 2.015625,2.648438 2.179687,2.648438 0.05859,0 0.128906,-0.02344 0.128906,-0.117188 z M 33.116563,8.4044609 C 33.011094,8.1349297 32.999375,8.1349297 32.67125,8.1349297 h -2.226562 v 0.421875 h 0.28125 c 1.03125,0 1.078125,0.140625 1.078125,0.6679687 v 7.2304686 c 0,0.386719 0,1.066406 -1.359375,1.066406 v 0.410157 c 0.375,-0.02344 1.136718,-0.02344 1.535156,-0.02344 0.398437,0 1.160156,0 1.535156,0.02344 v -0.410157 c -1.359375,0 -1.359375,-0.679687 -1.359375,-1.066406 V 8.6271172 h 0.01172 l 3.457031,9.0351558 c 0.05859,0.152344 0.09375,0.269532 0.246094,0.269532 0.128906,0 0.152344,-0.07031 0.234375,-0.28125 l 3.492187,-9.0937503 h 0.01172 v 8.2851563 c 0,0.527344 -0.04687,0.679687 -1.078125,0.679687 h -0.28125 v 0.410157 c 0.328125,-0.02344 1.476563,-0.02344 1.886719,-0.02344 0.421875,0 1.570312,0 1.898437,0.02344 v -0.410157 h -0.292968 c -1.03125,0 -1.066407,-0.152343 -1.066407,-0.679687 V 9.2247734 c 0,-0.5273437 0.03516,-0.6679687 1.066407,-0.6679687 h 0.292968 v -0.421875 h -2.226562 c -0.316406,0 -0.328125,0.011719 -0.445313,0.28125 L 36.23375,16.584148 Z m 15.096679,5.6953121 c 0,-0.773437 0,-1.347656 -0.621094,-1.910156 -0.503906,-0.457031 -1.148437,-0.65625 -1.78125,-0.65625 -1.183593,0 -2.085937,0.773438 -2.085937,1.710938 0,0.410156 0.28125,0.609375 0.609375,0.609375 0.339844,0 0.585937,-0.234375 0.585937,-0.585938 0,-0.585937 -0.515625,-0.585937 -0.726562,-0.585937 0.328125,-0.597657 1.007812,-0.855469 1.582031,-0.855469 0.667969,0 1.511719,0.539062 1.511719,1.828125 v 0.574219 c -2.882813,0.04687 -3.972656,1.253906 -3.972656,2.355468 0,1.136719 1.3125,1.488282 2.191406,1.488282 0.949219,0 1.59375,-0.574219 1.863281,-1.253907 0.05859,0.667969 0.503906,1.183594 1.125,1.183594 0.292969,0 1.125,-0.199219 1.125,-1.347656 v -0.796875 h -0.316406 v 0.796875 c 0,0.820312 -0.339844,0.9375 -0.539063,0.9375 -0.550781,0 -0.550781,-0.761719 -0.550781,-0.984375 z m -0.925781,1.804688 c 0,1.40625 -1.042969,1.886719 -1.664063,1.886719 -0.703125,0 -1.289062,-0.515625 -1.289062,-1.207032 0,-1.898437 2.4375,-2.0625 2.953125,-2.097656 z m 7.119141,-4.042969 c 0,-0.257812 0,-0.328125 -0.140625,-0.328125 -0.117188,0 -0.386719,0.316406 -0.480469,0.445313 -0.445313,-0.363282 -0.890625,-0.445313 -1.347656,-0.445313 -1.746094,0 -2.261719,0.949219 -2.261719,1.734375 0,0.164063 0,0.667969 0.550781,1.160156 0.457031,0.410157 0.949219,0.503907 1.605469,0.632813 0.785156,0.164062 0.972656,0.199219 1.335937,0.492187 0.257813,0.210938 0.445313,0.527344 0.445313,0.925782 0,0.621093 -0.363281,1.3125 -1.628906,1.3125 -0.9375,0 -1.628907,-0.550782 -1.945313,-1.980469 -0.05859,-0.257813 -0.05859,-0.269531 -0.07031,-0.292969 -0.03516,-0.05859 -0.08203,-0.05859 -0.128907,-0.05859 -0.164062,0 -0.164062,0.08203 -0.164062,0.339844 v 1.945313 c 0,0.257812 0,0.328125 0.152344,0.328125 0.07031,0 0.08203,-0.01172 0.328125,-0.316407 0.07031,-0.09375 0.07031,-0.128906 0.28125,-0.351562 0.550781,0.667969 1.324218,0.667969 1.570312,0.667969 1.5,0 2.25,-0.832032 2.25,-1.957032 0,-0.785156 -0.480469,-1.242187 -0.609375,-1.371093 -0.515625,-0.445313 -0.902344,-0.527344 -1.839844,-0.703125 -0.433593,-0.08203 -1.488281,-0.28125 -1.488281,-1.148438 0,-0.445312 0.304688,-1.101562 1.59375,-1.101562 1.570313,0 1.652344,1.335937 1.6875,1.78125 0.01172,0.117187 0.105469,0.117187 0.152344,0.117187 0.152344,0 0.152344,-0.07031 0.152344,-0.328125 z m 3.254882,0.304688 h 2.015625 V 11.744305 H 57.661484 V 9.1075859 h -0.316406 c -0.02344,1.3476561 -0.539062,2.7304691 -1.839844,2.7656251 v 0.292969 h 1.21875 v 3.984375 c 0,1.59375 1.066407,1.921875 1.828125,1.921875 0.902344,0 1.371094,-0.890625 1.371094,-1.921875 v -0.820313 h -0.316406 v 0.796875 c 0,1.03125 -0.410156,1.628906 -0.972656,1.628906 -0.972657,0 -0.972657,-1.335937 -0.972657,-1.570312 z m 8.545899,2.4375 c 0.316406,0 0.339844,0 0.339844,-0.269532 0,-1.453125 -0.773438,-2.800781 -2.507813,-2.800781 -1.640625,0 -2.894531,1.476563 -2.894531,3.257813 0,1.898437 1.464844,3.28125 3.046875,3.28125 1.710937,0 2.355469,-1.546875 2.355469,-1.851563 0,-0.08203 -0.07031,-0.140625 -0.152344,-0.140625 -0.117188,0 -0.152344,0.07031 -0.175781,0.140625 -0.375,1.207031 -1.335938,1.535156 -1.933594,1.535156 -0.609375,0 -2.050781,-0.398437 -2.050781,-2.882812 V 14.60368 Z m -3.960938,-0.269532 c 0.117188,-2.25 1.371094,-2.507812 1.78125,-2.507812 1.535157,0 1.617188,2.015625 1.628907,2.507812 z m 7.098633,0.257813 c 0,-1.394531 0.574219,-2.695313 1.6875,-2.695313 0.105469,0 0.140625,0 0.199219,0.01172 -0.117188,0.05859 -0.351563,0.140625 -0.351563,0.527344 0,0.421875 0.339844,0.574219 0.5625,0.574219 0.292969,0 0.574219,-0.1875 0.574219,-0.574219 0,-0.433594 -0.386719,-0.832031 -1.007812,-0.832031 -1.21875,0 -1.628907,1.324218 -1.710938,1.59375 h -0.02344 v -1.59375 l -1.921875,0.164062 v 0.410156 c 0.984375,0 1.089843,0.105469 1.089843,0.808594 v 3.878906 c 0,0.65625 -0.152343,0.65625 -1.089843,0.65625 v 0.410157 c 0.410156,-0.02344 1.195312,-0.02344 1.628906,-0.02344 0.386719,0 1.40625,0 1.734375,0.02344 V 17.521649 H 70.4232 c -1.042969,0 -1.078125,-0.164062 -1.078125,-0.679687 z m 7.113281,-0.234375 c 0,-1.089844 -0.140625,-2.871094 -0.949218,-4.5351563 -0.84375,-1.7109375 -2.015625,-2.6484375 -2.179688,-2.6484375 -0.05859,0 -0.128906,0.023437 -0.128906,0.1171875 0,0.035156 0,0.070312 0.246094,0.3164062 1.441406,1.4414063 2.238281,3.8085941 2.238281,6.7382811 0,2.777344 -0.667969,5.179688 -2.332031,6.867188 -0.152344,0.128906 -0.152344,0.164062 -0.152344,0.199218 0,0.09375 0.07031,0.117188 0.128906,0.117188 0.1875,0 1.371094,-1.03125 2.074219,-2.4375 0.726562,-1.464844 1.054687,-3.011719 1.054687,-4.734375 z m 0,0"
       style="fill:#000000;fill-opacity:1;fill-rule:nonzero;stroke:none"
       aria-label="Mikrodenetleyici&#10;(Master)"
       transform="matrix(1.3333333,0,0,1.3333333,96.313333,175.65733)" />
    <path
       id="path4"
       d="M 178.27661,42.52022 H 48.49785 c -3.30142,0 -5.97766,-2.67626 -5.97766,-5.97766 v -73.08512 c 0,-3.3014 2.67624,-5.97766 5.97766,-5.97766 h 129.77876 c 3.30142,0 5.97766,2.67626 5.97766,5.97766 v 73.08512 c 0,3.3014 -2.67624,5.97766 -5.97766,5.97766 z"
       style="fill:#e6e6ff;fill-opacity:1;fill-rule:nonzero;stroke:#000000;stroke-width:1.49442;stroke-linecap:butt;stroke-linejoin:miter;stroke-miterlimit:10;stroke-dasharray:none;stroke-opacity:1"
       transform="matrix(1.3333333,0,0,-1.3333333,315.64533,183.36133)" />
    <path
       id="path5"
       d="m 2.9889219,-5.9764766 c -0.7382813,-0.1875 -1.3828125,-0.9140625 -1.3828125,-1.828125 0,-1.0078125 0.8085937,-1.9101562 1.921875,-1.9101562 2.3554687,0 2.671875,2.3320312 2.7539062,2.9414062 0.035156,0.1757813 0.035156,0.234375 0.1757813,0.234375 0.1523437,0 0.1523437,-0.070312 0.1523437,-0.328125 v -2.90625 c 0,-0.2578124 0,-0.3281254 -0.140625,-0.3281254 -0.046875,0 -0.1054687,0 -0.1992187,0.1875004 l -0.4804688,0.8789063 c -0.6796875,-0.890625 -1.6289062,-1.0664067 -2.2617187,-1.0664067 -1.59375,0 -2.75390627,1.2773442 -2.75390627,2.7421879 0,0.6914063 0.24609377,1.3242188 0.77343747,1.8984375 0.5039063,0.5507813 1.0078125,0.6796875 2.0273438,0.9375 0.5039062,0.1171875 1.2890625,0.3164063 1.4882812,0.4101563 0.6796875,0.328125 1.125,1.1015625 1.125,1.9101562 0,1.0664063 -0.7617187,2.08593754 -1.9570312,2.08593754 -0.6445313,0 -1.5351563,-0.15234375 -2.2382813,-0.7734375 C 1.1607969,-1.6405391 1.1022031,-2.6717891 1.0904844,-3.1405391 1.0787656,-3.2577266 0.96157813,-3.2577266 0.93814063,-3.2577266 c -0.1640625,0 -0.1640625,0.070312 -0.1640625,0.328125 v 2.90625004 c 0,0.2578125 0,0.328125 0.140625,0.328125 0.09375,0 0.10546877,-0.0351563 0.19921877,-0.19921875 0.058594,-0.1171875 0.3632812,-0.65625 0.4804687,-0.8671875 0.515625,0.57421875 1.4179688,1.06640625 2.6484375,1.06640625 1.6054688,0 2.7773438,-1.37109374 2.7773438,-2.94140624 0,-0.8789063 -0.3398438,-1.5234375 -0.7265625,-1.9921875 -0.5273438,-0.6445313 -1.171875,-0.8085938 -1.734375,-0.9492188 z m 10.3125001,2.6484375 c 0.316406,0 0.339844,0 0.339844,-0.2695312 0,-1.453125 -0.773438,-2.8007813 -2.507813,-2.8007813 -1.6406249,0 -2.8945311,1.4765625 -2.8945311,3.2578125 0,1.8984375 1.4648437,3.28125004 3.0468751,3.28125004 1.710937,0 2.355469,-1.54687504 2.355469,-1.85156254 0,-0.082031 -0.07031,-0.140625 -0.152344,-0.140625 -0.117188,0 -0.152344,0.070312 -0.175781,0.140625 -0.375,1.20703129 -1.335938,1.53515629 -1.933594,1.53515629 -0.609375,0 -2.0507814,-0.3984375 -2.0507814,-2.88281249 V -3.3280391 Z M 9.3404844,-3.5975703 c 0.1171875,-2.25 1.3710936,-2.5078125 1.7812496,-2.5078125 1.535157,0 1.617188,2.015625 1.628907,2.5078125 z m 11.0947266,0.1171875 c 0,-1.3359375 0,-1.7460938 -0.328125,-2.203125 -0.421875,-0.5507813 -1.089844,-0.6445313 -1.582031,-0.6445313 -1.394532,0 -1.933594,1.1953125 -2.050782,1.4765625 h -0.01172 v -1.4765625 l -1.957032,0.1640625 v 0.4101563 c 0.972657,0 1.089844,0.1054687 1.089844,0.8085937 v 3.8789063 c 0,0.65624999 -0.152344,0.65624999 -1.089844,0.65624999 V 8.59375e-5 c 0.375,-0.0234374975 1.148438,-0.0234374975 1.546875,-0.0234374975 0.421875,0 1.195313,0 1.570313,0.0234374975 V -0.41007031 c -0.925781,0 -1.089844,0 -1.089844,-0.65624999 v -2.6601563 c 0,-1.5117187 0.984375,-2.3085937 1.875,-2.3085937 0.890625,0 1.089844,0.7265625 1.089844,1.6054687 v 3.3632813 c 0,0.65624999 -0.152344,0.65624999 -1.089844,0.65624999 V 8.59375e-5 c 0.375,-0.0234374975 1.148438,-0.0234374975 1.546875,-0.0234374975 0.421875,0 1.195313,0 1.570313,0.0234374975 V -0.41007031 c -0.714844,0 -1.078125,0 -1.089844,-0.43359375 z m 6.117187,-2.5898438 c 0,-0.2578125 0,-0.328125 -0.140625,-0.328125 -0.117187,0 -0.386718,0.3164063 -0.480468,0.4453125 -0.445313,-0.3632812 -0.890625,-0.4453125 -1.347657,-0.4453125 -1.746093,0 -2.261718,0.9492188 -2.261718,1.734375 0,0.1640625 0,0.6679688 0.550781,1.1601563 0.457031,0.4101562 0.949219,0.5039062 1.605469,0.6328125 0.785156,0.1640625 0.972656,0.1992187 1.335937,0.4921875 0.257813,0.2109375 0.445313,0.5273437 0.445313,0.9257812 0,0.62109379 -0.363282,1.31250004 -1.628907,1.31250004 -0.9375,0 -1.628906,-0.55078125 -1.945312,-1.98046874 -0.05859,-0.2578125 -0.05859,-0.2695313 -0.07031,-0.2929688 -0.03516,-0.058594 -0.08203,-0.058594 -0.128906,-0.058594 -0.164062,0 -0.164062,0.082031 -0.164062,0.3398437 v 1.94531254 c 0,0.2578125 0,0.328125 0.152343,0.328125 0.07031,0 0.08203,-0.0117188 0.328125,-0.31640625 0.07031,-0.09375 0.07031,-0.12890625 0.28125,-0.3515625 0.550782,0.66796875 1.324219,0.66796875 1.570313,0.66796875 1.5,0 2.25,-0.83203125 2.25,-1.95703124 0,-0.7851563 -0.480469,-1.2421875 -0.609375,-1.3710938 -0.515625,-0.4453125 -0.902344,-0.5273437 -1.839844,-0.703125 -0.433594,-0.082031 -1.488281,-0.28125 -1.488281,-1.1484375 0,-0.4453125 0.304687,-1.1015625 1.59375,-1.1015625 1.570312,0 1.652344,1.3359375 1.6875,1.78125 0.01172,0.1171875 0.105469,0.1171875 0.152344,0.1171875 0.152343,0 0.152343,-0.070312 0.152343,-0.328125 z m 3.653321,-2.8125 c 0,-0.3515625 -0.304688,-0.65625 -0.65625,-0.65625 -0.351563,0 -0.667969,0.2578125 -0.667969,0.65625 0,0.4101563 0.316406,0.6679688 0.667969,0.6679688 0.351562,0 0.65625,-0.3046875 0.65625,-0.6679688 z m 2.707031,0 c 0,-0.3984375 -0.316406,-0.65625 -0.65625,-0.65625 -0.363281,0 -0.65625,0.3046875 -0.65625,0.65625 0,0.3632813 0.292969,0.6679688 0.65625,0.6679688 0.339844,0 0.65625,-0.2578125 0.65625,-0.6679688 z m 1.060547,5.8125 c 0,-1.8515625 -1.40625,-3.328125 -3.070313,-3.328125 -1.722656,0 -3.082031,1.5234375 -3.082031,3.328125 0,1.8398438 1.429688,3.21093754 3.070313,3.21093754 1.6875,0 3.082031,-1.40625004 3.082031,-3.21093754 z m -3.070313,2.89453129 c -0.527343,0 -1.171875,-0.22265625 -1.59375,-0.92578129 -0.386718,-0.6445312 -0.398437,-1.5 -0.398437,-2.0976562 0,-0.5390625 0,-1.4179688 0.445312,-2.0625 0.398438,-0.6210938 1.03125,-0.84375 1.535157,-0.84375 0.550781,0 1.160156,0.2578125 1.546875,0.8085937 0.445312,0.6679688 0.445312,1.5703125 0.445312,2.0976563 0,0.5039062 0,1.3945312 -0.375,2.0625 -0.398437,0.69140624 -1.066406,0.96093749 -1.605469,0.96093749 z m 5.897461,-3.16406249 c 0,-1.3945313 0.574219,-2.6953125 1.6875,-2.6953125 0.105469,0 0.140625,0 0.199219,0.011719 -0.117187,0.058594 -0.351562,0.140625 -0.351562,0.5273438 0,0.421875 0.339843,0.5742187 0.5625,0.5742187 0.292968,0 0.574218,-0.1875 0.574218,-0.5742187 0,-0.4335938 -0.386718,-0.8320313 -1.007812,-0.8320313 -1.21875,0 -1.628906,1.3242188 -1.710938,1.59375 h -0.02344 v -1.59375 l -1.921875,0.1640625 V -5.75382 c 0.984375,0 1.089844,0.1054687 1.089844,0.8085937 V -1.06632 c 0,0.65624999 -0.152344,0.65624999 -1.089844,0.65624999 V 8.59375e-5 C 35.218414,-0.02335156 36.00357,-0.02335156 36.437164,-0.02335156 c 0.386719,0 1.40625,0 1.734375,0.0234374975 V -0.41007031 H 37.87857 c -1.042968,0 -1.078125,-0.1640625 -1.078125,-0.67968749 z M 3.3375547,21.413172 c 0,-0.03516 0,-0.07031 -0.2460938,-0.304688 -1.4296875,-1.453125 -2.23828121,-3.820312 -2.23828121,-6.75 0,-2.777343 0.67968751,-5.1796871 2.34375001,-6.8671871 0.140625,-0.1289063 0.140625,-0.1640625 0.140625,-0.1992188 0,-0.09375 -0.070312,-0.1171875 -0.1289063,-0.1171875 -0.1875,0 -1.359375,1.03125 -2.0625,2.4375 -0.73828121,1.4531254 -1.06640621,2.9882814 -1.06640621,4.7460934 0,1.277344 0.19921875,2.988282 0.94921871,4.523438 0.84375,1.722656 2.015625,2.648437 2.1796875,2.648437 0.058594,0 0.1289063,-0.02344 0.1289063,-0.117187 z m 3.7880859,-9.457031 c -0.7382812,-0.1875 -1.3828125,-0.914063 -1.3828125,-1.828125 0,-1.0078129 0.8085938,-1.9101566 1.921875,-1.9101566 2.3554689,0 2.6718749,2.3320316 2.7539059,2.9414066 0.03516,0.175781 0.03516,0.234375 0.175782,0.234375 0.152343,0 0.152343,-0.07031 0.152343,-0.328125 V 8.1592656 c 0,-0.2578125 0,-0.328125 -0.140625,-0.328125 -0.04687,0 -0.105468,0 -0.199218,0.1875 L 9.9264219,8.8975469 C 9.2467344,8.0069219 8.2975156,7.8311406 7.6647031,7.8311406 c -1.59375,0 -2.7539062,1.2773438 -2.7539062,2.7421874 0,0.691406 0.2460937,1.324219 0.7734375,1.898438 0.5039062,0.550781 1.0078125,0.679687 2.0273437,0.9375 0.5039063,0.117187 1.2890625,0.316406 1.4882813,0.410156 0.6796875,0.328125 1.1249996,1.101562 1.1249996,1.910156 0,1.066406 -0.7617184,2.085938 -1.9570309,2.085938 -0.6445312,0 -1.5351562,-0.152344 -2.2382812,-0.773438 -0.8320313,-0.75 -0.890625,-1.78125 -0.9023438,-2.25 -0.011719,-0.117187 -0.1289062,-0.117187 -0.1523437,-0.117187 -0.1640625,0 -0.1640625,0.07031 -0.1640625,0.328125 v 2.90625 c 0,0.257812 0,0.328125 0.140625,0.328125 0.09375,0 0.1054687,-0.03516 0.1992187,-0.199219 0.058594,-0.117188 0.3632813,-0.65625 0.4804688,-0.867188 0.515625,0.574219 1.4179687,1.066407 2.6484375,1.066407 1.6054687,0 2.7773441,-1.371094 2.7773441,-2.941407 0,-0.878906 -0.339844,-1.523437 -0.726563,-1.992187 C 9.9029844,12.659266 9.2584531,12.495203 8.6959531,12.354578 Z M 14.411773,7.9834844 12.407867,8.1358281 v 0.421875 c 0.984375,0 1.089844,0.09375 1.089844,0.796875 v 7.5117189 c 0,0.65625 -0.152344,0.65625 -1.089844,0.65625 v 0.410156 c 0.410156,-0.02344 1.113281,-0.02344 1.535156,-0.02344 0.433594,0 1.148438,0 1.558594,0.02344 v -0.410156 c -0.925781,0 -1.089844,0 -1.089844,-0.65625 z m 6.960938,6.1171876 c 0,-0.773438 0,-1.347656 -0.621094,-1.910156 -0.503906,-0.457032 -1.148437,-0.65625 -1.78125,-0.65625 -1.183594,0 -2.085937,0.773437 -2.085937,1.710937 0,0.410156 0.28125,0.609375 0.609375,0.609375 0.339843,0 0.585937,-0.234375 0.585937,-0.585937 0,-0.585938 -0.515625,-0.585938 -0.726562,-0.585938 0.328125,-0.597656 1.007812,-0.855469 1.582031,-0.855469 0.667969,0 1.511719,0.539063 1.511719,1.828125 v 0.574219 c -2.882813,0.04687 -3.972657,1.253906 -3.972657,2.355469 0,1.136719 1.3125,1.488281 2.191407,1.488281 0.949218,0 1.59375,-0.574219 1.863281,-1.253906 0.05859,0.667969 0.503906,1.183594 1.125,1.183594 0.292969,0 1.125,-0.199219 1.125,-1.347657 v -0.796875 h -0.316406 v 0.796875 c 0,0.820313 -0.339844,0.9375 -0.539063,0.9375 -0.550781,0 -0.550781,-0.761718 -0.550781,-0.984375 z m -0.925781,1.804687 c 0,1.40625 -1.042969,1.886719 -1.664063,1.886719 -0.703125,0 -1.289062,-0.515625 -1.289062,-1.207031 0,-1.898438 2.4375,-2.0625 2.953125,-2.097656 z m 7.880859,-2.789062 c 0.128906,-0.316406 0.375,-0.9375 1.300781,-0.949219 v -0.421875 c -0.421875,0.03516 -0.621093,0.03516 -1.066406,0.03516 -0.304687,0 -0.515625,0 -1.171875,-0.03516 v 0.421875 c 0.597656,0.02344 0.667969,0.457031 0.667969,0.621094 0,0.128906 -0.02344,0.199219 -0.09375,0.363281 l -1.464844,3.703125 -1.605469,-4.042969 c -0.07031,-0.199218 -0.09375,-0.199218 -0.09375,-0.269531 0,-0.375 0.550782,-0.375 0.808594,-0.375 v -0.421875 c -0.363281,0.03516 -1.101562,0.03516 -1.488281,0.03516 -0.480469,0 -0.503906,0 -1.382813,-0.03516 v 0.421875 c 0.808594,0 0.949219,0.05859 1.125,0.503906 l 2.050782,5.132813 c 0.07031,0.199219 0.09375,0.269531 0.269531,0.269531 0.09375,0 0.1875,-0.02344 0.28125,-0.269531 z m 6.673828,1.488281 c 0.316406,0 0.339844,0 0.339844,-0.269531 0,-1.453125 -0.773438,-2.800781 -2.507813,-2.800781 -1.640625,0 -2.894531,1.476562 -2.894531,3.257812 0,1.898438 1.464844,3.28125 3.046875,3.28125 1.710938,0 2.355469,-1.546875 2.355469,-1.851562 0,-0.08203 -0.07031,-0.140625 -0.152344,-0.140625 -0.117187,0 -0.152344,0.07031 -0.175781,0.140625 -0.375,1.207031 -1.335938,1.535156 -1.933594,1.535156 -0.609375,0 -2.050781,-0.398438 -2.050781,-2.882813 V 14.604578 Z M 31.04068,14.335047 c 0.117187,-2.25 1.371093,-2.507813 1.78125,-2.507813 1.535156,0 1.617187,2.015625 1.628906,2.507813 z m 8.736328,0.02344 c 0,-1.089843 -0.140625,-2.871093 -0.949219,-4.5351559 -0.84375,-1.7109375 -2.015625,-2.6484375 -2.179687,-2.6484375 -0.05859,0 -0.128907,0.023437 -0.128907,0.1171875 0,0.035156 0,0.070312 0.246094,0.3164063 1.441406,1.4414062 2.238281,3.8085936 2.238281,6.7382816 0,2.777343 -0.667968,5.179687 -2.332031,6.867187 -0.152344,0.128906 -0.152344,0.164063 -0.152344,0.199219 0,0.09375 0.07031,0.117187 0.128907,0.117187 0.1875,0 1.371093,-1.03125 2.074218,-2.4375 0.726563,-1.464843 1.054688,-3.011718 1.054688,-4.734375 z m 0,0"
       style="fill:#000000;fill-opacity:1;fill-rule:nonzero;stroke:none"
       aria-label="Sens¨or&#10;(Slave)"
       transform="matrix(1.3333333,0,0,1.3333333,440.24133,175.55067)" />
    <path
       id="path6"
       d="M -41.77298,11.33855 H 31.03201"
       style="fill:none;stroke:#000000;stroke-width:1.19553;stroke-linecap:butt;stroke-linejoin:miter;stroke-miterlimit:10;stroke-dasharray:none;stroke-opacity:1"
       transform="matrix(1.3333333,0,0,-1.3333333,315.64533,183.36133)" />
    <path
       id="path7"
       d="M 8.27634,0 C 7.25996,0.25023 2.79231,1.6682 0,3.21127 V -3.21127 C 2.79231,-1.6682 7.25996,-0.25023 8.27634,0 Z"
       style="fill:#000000;fill-opacity:1;fill-rule:nonzero;stroke:#000000;stroke-width:1.19553;stroke-linecap:butt;stroke-linejoin:miter;stroke-miterlimit:10;stroke-dasharray:none;stroke-opacity:1"
       transform="matrix(1.3333333,0,0,-1.3333333,357.02135,168.24327)" />
    <path
       id="path8"
       d="m 3.0347422,-5.2630078 c -1.1835938,-0.2578125 -1.21875,-1.125 -1.21875,-1.2890625 0,-0.609375 0.3984375,-1.3125 1.5585937,-1.3125 1.1601563,0 2.1914063,0.5625 2.4492188,2.1210937 0.035156,0.2578125 0.035156,0.2695313 0.2578125,0.2695313 0.2578125,0 0.2578125,-0.035156 0.2578125,-0.3164063 v -2.2382812 c 0,-0.234375 0,-0.3164063 -0.1875,-0.3164063 -0.082031,0 -0.1171875,0.011719 -0.2226563,0.1289063 l -0.515625,0.5859375 c -0.2929687,-0.2460938 -0.890625,-0.7148438 -2.0507812,-0.7148438 -1.7109375,0 -2.62500001,1.078125 -2.62500001,2.3789063 0,0.796875 0.43359371,1.359375 0.59765621,1.5351562 0.6210938,0.6210938 0.9609375,0.6914063 2.203125,0.9609375 1.1953125,0.2695313 1.3359375,0.2929688 1.6054688,0.5390625 0.1523437,0.1523438 0.4921875,0.4921875 0.4921875,1.1015625 0,0.515625 -0.2460938,1.45312504 -1.5820313,1.45312504 -1.0546875,0 -2.71875,-0.3515625 -2.8125,-2.09765624 -0.011719,-0.2226563 -0.011719,-0.2578125 -0.24609371,-0.2578125 -0.2578125,0 -0.2578125,0.035156 -0.2578125,0.3164062 v 2.25000004 c 0,0.22265625 0,0.3046875 0.1875,0.3046875 0.0820312,0 0.09375,-0.0117188 0.21093751,-0.1171875 0.1289062,-0.12890625 0.234375,-0.28125 0.5390625,-0.5859375 0.6914062,0.55078125 1.6757812,0.703125 2.390625,0.703125 1.8632812,0 2.6484375,-1.26562504 2.6484375,-2.53125004 0,-1.125 -0.7382813,-2.203125 -2.0390625,-2.4960937 z m 13.3916018,-2.765625 c 0,-0.28125 0,-0.3164063 -0.257813,-0.3164063 l -0.902343,0.8554688 c -0.667969,-0.5625 -1.464844,-0.8554688 -2.355469,-0.8554688 -2.859375,0 -4.699219,1.734375 -4.699219,4.2421875 0,2.4609375 1.78125,4.24218754 4.710938,4.24218754 2.132812,0 3.503906,-1.45312504 3.503906,-2.87109374 0,-0.1992188 -0.07031,-0.2109375 -0.246094,-0.2109375 -0.128906,0 -0.246094,0 -0.257812,0.1289062 -0.105469,1.81640629 -1.652344,2.43750004 -2.71875,2.43750004 -0.785157,0 -1.828125,-0.2109375 -2.507813,-0.96093754 C 10.285719,-1.7942578 9.899,-2.4505078 9.899,-4.1028516 c 0,-1.171875 0.175781,-2.0390625 0.738281,-2.7070312 0.773438,-0.9023438 1.96875,-1.0195313 2.542969,-1.0195313 0.890625,0 2.332031,0.5039063 2.695313,2.6015625 0.02344,0.1054688 0.128906,0.1054688 0.28125,0.1054688 0.269531,0 0.269531,-0.023437 0.269531,-0.3046875 z m 8.270508,4.8046875 h -0.503907 c -0.08203,0.8203125 -0.28125,2.70703124 -2.425781,2.70703124 H 20.48982 V -7.6887891 h 1.582032 v -0.515625 c -0.585938,0.023437 -1.652344,0.023437 -2.285157,0.023437 -0.433593,0 -1.804687,0 -2.144531,-0.023437 v 0.515625 h 1.265625 v 7.17187504 h -1.265625 v 0.515625 h 6.703125 z m 0,0"
       style="fill:#000000;fill-opacity:1;fill-rule:nonzero;stroke:none"
       aria-label="SCL"
       transform="matrix(1.3333333,0,0,1.3333333,298.80133,159.24)" />
    <path
       id="path9"
       d="M -31.03201,-11.33855 H 31.03201"
       style="fill:none;stroke:#000000;stroke-width:1.19553;stroke-linecap:butt;stroke-linejoin:miter;stroke-miterlimit:10;stroke-dasharray:none;stroke-opacity:1"
       transform="matrix(1.3333333,0,0,-1.3333333,315.64533,183.36133)" />
    <path
       id="path10"
       d="M 8.27634,0 C 7.25996,0.25023 2.79231,1.6682 0,3.21127 V -3.21127 C 2.79231,-1.6682 7.25996,-0.25023 8.27634,0 Z"
       style="fill:#000000;fill-opacity:1;fill-rule:nonzero;stroke:#000000;stroke-width:1.19553;stroke-linecap:butt;stroke-linejoin:miter;stroke-miterlimit:10;stroke-dasharray:none;stroke-opacity:1"
       transform="matrix(-1.3333333,0,0,1.3333333,274.26932,198.4794)" />
    <path
       id="path11"
       d="M 8.27634,0 C 7.25996,0.25023 2.79231,1.6682 0,3.21127 V -3.21127 C 2.79231,-1.6682 7.25996,-0.25023 8.27634,0 Z"
       style="fill:#000000;fill-opacity:1;fill-rule:nonzero;stroke:#000000;stroke-width:1.19553;stroke-linecap:butt;stroke-linejoin:miter;stroke-miterlimit:10;stroke-dasharray:none;stroke-opacity:1"
       transform="matrix(1.3333333,0,0,-1.3333333,357.02135,198.4794)" />
    <path
       id="path12"
       d="m 3.0343047,-5.2603125 c -1.1835938,-0.2578125 -1.21875,-1.125 -1.21875,-1.2890625 0,-0.609375 0.3984375,-1.3125 1.5585937,-1.3125 1.1601563,0 2.1914063,0.5625 2.4492188,2.1210938 0.035156,0.2578125 0.035156,0.2695312 0.2578125,0.2695312 0.2578125,0 0.2578125,-0.035156 0.2578125,-0.3164062 v -2.2382813 c 0,-0.234375 0,-0.3164062 -0.1875,-0.3164062 -0.082031,0 -0.1171875,0.011719 -0.2226563,0.1289062 L 5.4132109,-7.6275 c -0.2929687,-0.2460937 -0.890625,-0.7148437 -2.0507812,-0.7148437 -1.7109375,0 -2.62500001,1.078125 -2.62500001,2.3789062 0,0.796875 0.43359371,1.359375 0.59765621,1.5351563 0.6210938,0.6210937 0.9609375,0.6914062 2.203125,0.9609375 1.1953125,0.2695312 1.3359375,0.2929687 1.6054688,0.5390625 0.1523437,0.1523437 0.4921875,0.4921875 0.4921875,1.1015625 0,0.515625 -0.2460938,1.45312495 -1.5820313,1.45312495 -1.0546875,0 -2.71875,-0.3515625 -2.8125,-2.09765625 -0.011719,-0.2226562 -0.011719,-0.2578125 -0.24609371,-0.2578125 -0.2578125,0 -0.2578125,0.035156 -0.2578125,0.3164063 v 2.24999995 c 0,0.22265625 0,0.3046875 0.1875,0.3046875 0.0820312,0 0.09375,-0.0117188 0.21093751,-0.1171875 0.1289062,-0.12890625 0.234375,-0.28125 0.5390625,-0.5859375 0.6914062,0.55078125 1.6757812,0.703125 2.390625,0.703125 1.8632812,0 2.6484375,-1.26562495 2.6484375,-2.53124995 0,-1.125 -0.7382813,-2.203125 -2.0390625,-2.4960938 z m 4.8955078,-2.9414062 v 0.515625 h 1.265625 v 7.17187495 h -1.265625 v 0.515625 h 5.0273435 c 2.296875,0 4.066407,-1.46484375 4.066407,-4.03124995 0,-2.6953125 -1.816407,-4.171875 -4.066407,-4.171875 z m 2.7773435,7.68749995 V -7.6860937 h 1.792969 c 1.042969,0 1.886719,0.4101562 2.320313,1.03125 0.351562,0.4921875 0.574218,1.078125 0.574218,2.6132812 0,1.40625 -0.175781,2.0273438 -0.597656,2.5898438 -0.410156,0.53906245 -1.21875,0.93749995 -2.296875,0.93749995 z M 22.882938,-8.09625 c -0.08203,-0.2109375 -0.105469,-0.2695312 -0.386719,-0.2695312 -0.304688,0 -0.328125,0.058594 -0.410156,0.2695312 l -2.964844,7.30078125 c -0.08203,0.1875 -0.08203,0.2109375 -0.421875,0.24609375 -0.292969,0.0351563 -0.339844,0.0351563 -0.609375,0.0351563 h -0.210938 v 0.515625 c 0.304688,-0.0234375 1.03125,-0.0234375 1.371094,-0.0234375 0.328125,0 1.195313,0 1.476563,0.0234375 v -0.515625 c -0.269532,0 -0.726563,0 -1.054688,-0.12890625 0.03516,-0.10546875 0.03516,-0.12890625 0.05859,-0.17578125 L 20.363406,-2.3775 h 3.199219 l 0.761719,1.86328125 h -1.125 v 0.515625 c 0.375,-0.0234375 1.535156,-0.0234375 1.992187,-0.0234375 0.386719,0 1.605469,0 1.898438,0.0234375 v -0.515625 H 25.95325 Z m -0.914063,1.7578125 1.382813,3.4453125 h -2.789063 z m 0,0"
       style="fill:#000000;fill-opacity:1;fill-rule:nonzero;stroke:none"
       aria-label="SDA"
       transform="matrix(1.3333333,0,0,1.3333333,297.27067,218.42)" />
  </g>
</svg>
