<?xml version="1.0" encoding="UTF-8" standalone="no"?>
<!-- Created with Inkscape (http://www.inkscape.org/) -->

<svg
   version="1.1"
   id="svg1"
   width="465.51898"
   height="315.99261"
   viewBox="0 0 465.51899 315.99261"
   sodipodi:docname="multi_master_şeması.pdf"
   xmlns:inkscape="http://www.inkscape.org/namespaces/inkscape"
   xmlns:sodipodi="http://sodipodi.sourceforge.net/DTD/sodipodi-0.dtd"
   xmlns="http://www.w3.org/2000/svg"
   xmlns:svg="http://www.w3.org/2000/svg">
  <defs
     id="defs1" />
  <sodipodi:namedview
     id="namedview1"
     pagecolor="#ffffff"
     bordercolor="#000000"
     borderopacity="0.25"
     inkscape:showpageshadow="2"
     inkscape:pageopacity="0.0"
     inkscape:pagecheckerboard="0"
     inkscape:deskcolor="#d1d1d1">
    <inkscape:page
       x="0"
       y="0"
       width="465.51898"
       height="315.99261"
       id="page2"
       margin="0"
       bleed="0" />
  </sodipodi:namedview>
  <g
     id="g1"
     inkscape:groupmode="layer"
     inkscape:label="1"
     transform="translate(-13.281588,-13.280245)">
    <path
       id="path1"
       d="M -146.22281,-4.78764 V 232.20682 H 202.91643 V -4.78764 Z"
       style="fill:#ffffff;fill-opacity:1;fill-rule:nonzero;stroke:none"
       transform="matrix(1.3333333,0,0,-1.3333333,208.24533,322.88933)" />
    <path
       id="path2"
       d="m -113.38724,0 h 85.04044 v 56.69362 h -85.04044 z"
       style="fill:#e6ffe6;fill-opacity:1;fill-rule:nonzero;stroke:#000000;stroke-width:0.99628;stroke-linecap:butt;stroke-linejoin:miter;stroke-miterlimit:10;stroke-dasharray:none;stroke-opacity:1"
       transform="matrix(1.3333333,0,0,-1.3333333,208.24533,322.88933)" />
    <path
       id="path3"
       d="M 2.4031016,-6.5872734 C 2.3093516,-6.8099297 2.2859141,-6.8099297 2.0515391,-6.8099297 H 0.36403906 v 0.3164063 h 0.24609375 c 0.76171879,0 0.78515629,0.1054687 0.78515629,0.46875 v 4.9804687 c 0,0.26953126 0,0.73828126 -1.03125004,0.73828126 v 0.3046875 c 0.3515625,-0.01171875 0.84375004,-0.03515625 1.17187504,-0.03515625 0.328125,0 0.8203125,0.0234375 1.1601562,0.03515625 v -0.3046875 c -1.0195312,0 -1.0195312,-0.46875 -1.0195312,-0.73828126 v -5.3671875 h 0.011719 l 2.4023438,6.18750001 c 0.046875,0.12890625 0.09375,0.22265625 0.1992187,0.22265625 0.1054688,0 0.1289063,-0.08203125 0.1757813,-0.1875 L 6.9148203,-6.4935234 h 0.011719 v 5.71874996 c 0,0.3515625 -0.023437,0.46875 -0.7851563,0.46875 H 5.8952891 v 0.3046875 c 0.375,-0.03515625 1.0429687,-0.03515625 1.4414062,-0.03515625 0.3867188,0 1.0546875,0 1.4179688,0.03515625 v -0.3046875 h -0.234375 c -0.7734375,0 -0.7851563,-0.1171875 -0.7851563,-0.46875 V -6.0247734 c 0,-0.3632813 0.011719,-0.46875 0.7851563,-0.46875 h 0.234375 V -6.8099297 H 7.0788828 c -0.2695312,0 -0.2695312,0.011719 -0.3398437,0.1992188 l -2.1796875,5.6015625 z m 8.4873044,2.1796875 -1.394531,0.1171875 v 0.3046875 c 0.65625,0 0.738281,0.058594 0.738281,0.5507812 v 2.67187501 c 0,0.45703125 -0.105468,0.45703125 -0.7734372,0.45703125 v 0.3046875 c 0.3164062,-0.01171875 0.8554692,-0.03515625 1.1015622,-0.03515625 0.339844,0 0.691407,0.0234375 1.03125,0.03515625 v -0.3046875 c -0.65625,0 -0.703125,-0.0585938 -0.703125,-0.4453125 z m 0.04687,-1.734375 c 0,-0.3164063 -0.246093,-0.5273438 -0.527343,-0.5273438 -0.316407,0 -0.5273442,0.2695313 -0.5273442,0.5273438 0,0.2695312 0.2109372,0.5273437 0.5273442,0.5273437 0.28125,0 0.527343,-0.1992187 0.527343,-0.5273437 z m 2.018555,5.37890621 c 0,0.45703125 -0.105469,0.45703125 -0.773438,0.45703125 v 0.3046875 c 0.328125,-0.01171875 0.796875,-0.03515625 1.078125,-0.03515625 0.304688,0 0.703125,0.01171875 1.101563,0.03515625 v -0.3046875 c -0.667969,0 -0.773438,0 -0.773438,-0.45703125 V -1.7825859 l 0.632813,-0.5507813 c 0.773437,1.0546875 1.183594,1.61718751 1.183594,1.79296876 0,0.1875 -0.164063,0.234375 -0.351563,0.234375 v 0.3046875 c 0.269531,-0.01171875 0.867188,-0.03515625 1.066406,-0.03515625 0.292969,0 0.585938,0.01171875 0.867188,0.03515625 v -0.3046875 c -0.363281,0 -0.585938,0 -0.960938,-0.52734375 l -1.26562,-1.79296871 c -0.01172,-0.011719 -0.05859,-0.070312 -0.05859,-0.1054688 0,-0.035156 0.703125,-0.6328125 0.808593,-0.7148437 0.621094,-0.5039063 1.042969,-0.5273438 1.253907,-0.5390625 v -0.3046875 c -0.292969,0.023437 -0.421875,0.023437 -0.703125,0.023437 -0.351563,0 -0.972657,-0.023437 -1.113282,-0.023437 v 0.3046875 c 0.1875,0.011719 0.292969,0.1171875 0.292969,0.2460937 0,0.1992188 -0.140625,0.3164063 -0.222656,0.3867188 l -1.40625,1.21875 v -4.78125 l -1.429688,0.1054687 v 0.3164063 c 0.691407,0 0.773438,0.070312 0.773438,0.5507812 z M 18.824,-3.3060234 v -1.1015625 l -1.382812,0.1171875 v 0.3046875 c 0.691406,0 0.773437,0.070312 0.773437,0.5625 v 2.66015621 c 0,0.45703125 -0.105469,0.45703125 -0.773437,0.45703125 v 0.3046875 c 0.386718,-0.01171875 0.855468,-0.03515625 1.136718,-0.03515625 0.398438,0 0.867188,0 1.265625,0.03515625 v -0.3046875 h -0.210937 c -0.738281,0 -0.761719,-0.1171875 -0.761719,-0.46875 V -2.3099297 c 0,-0.984375 0.421875,-1.875 1.183594,-1.875 0.05859,0 0.08203,0 0.105469,0.011719 -0.03516,0.011719 -0.234375,0.1289062 -0.234375,0.3867187 0,0.28125 0.210937,0.4335938 0.433593,0.4335938 0.175782,0 0.421875,-0.1289063 0.421875,-0.4453125 0,-0.3164063 -0.304687,-0.609375 -0.726562,-0.609375 -0.738281,0 -1.089844,0.6679687 -1.230469,1.1015623 z m 6.925781,1.171875 c 0,-1.2773438 -0.996093,-2.3320313 -2.191406,-2.3320313 -1.253906,0 -2.214844,1.0898438 -2.214844,2.3320313 0,1.28906246 1.03125,2.23828121 2.203125,2.23828121 1.207032,0 2.203125,-0.97265625 2.203125,-2.23828121 z m -2.191406,1.99218746 c -0.433594,0 -0.867187,-0.2109375 -1.136719,-0.66796875 -0.257812,-0.43359371 -0.257812,-1.04296871 -0.257812,-1.40625001 0,-0.3867187 0,-0.9257812 0.246094,-1.359375 0.269531,-0.4570312 0.738281,-0.6679687 1.136718,-0.6679687 0.433594,0 0.867188,0.2226562 1.125,0.6445312 0.257813,0.4335938 0.257813,1.0078125 0.257813,1.3828125 0,0.3632813 0,0.9023438 -0.222656,1.33593751 -0.222657,0.4453125 -0.65625,0.73828125 -1.148438,0.73828125 z m 6.547852,-0.41015625 v 0.65625 l 1.464843,-0.10546875 v -0.3046875 c -0.703125,0 -0.773437,-0.0703125 -0.773437,-0.5625 V -6.9153984 l -1.441406,0.1054687 v 0.3164063 c 0.703125,0 0.785156,0.070312 0.785156,0.5507812 v 2.15625 c -0.292969,-0.3632812 -0.726563,-0.6210937 -1.265625,-0.6210937 -1.171875,0 -2.214844,0.984375 -2.214844,2.2617187 0,1.26562501 0.972656,2.25000001 2.109375,2.25000001 0.644531,0 1.089844,-0.33984375 1.335938,-0.65625 z m 0,-2.67187501 v 2.0507813 c 0,0.17578121 0,0.19921871 -0.105469,0.36328121 -0.304688,0.48046875 -0.75,0.703125 -1.183594,0.703125 -0.445312,0 -0.796875,-0.2578125 -1.042969,-0.64453125 -0.257812,-0.41015626 -0.292968,-0.97265626 -0.292968,-1.38281246 0,-0.3632813 0.02344,-0.9609375 0.316406,-1.4179688 0.210937,-0.3046875 0.585937,-0.6328125 1.125,-0.6328125 0.351562,0 0.761719,0.1523438 1.078125,0.5976563 0.105469,0.1640625 0.105469,0.1875 0.105469,0.3632812 z m 2.862304,0.7148438 c 0.05859,-1.4882813 0.902344,-1.734375 1.242188,-1.734375 1.019531,0 1.125,1.3476562 1.125,1.734375 z m -0.01172,0.2109375 h 2.789062 c 0.210938,0 0.246094,0 0.246094,-0.2109375 0,-0.984375 -0.539063,-1.9570313 -1.78125,-1.9570313 -1.160156,0 -2.074219,1.03125 -2.074219,2.2734375 0,1.33593751 1.042969,2.29687501 2.191406,2.29687501 1.21875,0 1.664063,-1.1015625 1.664063,-1.28906251 0,-0.1054687 -0.08203,-0.1171875 -0.128906,-0.1171875 -0.09375,0 -0.117188,0.058594 -0.128907,0.140625 -0.351562,1.01953126 -1.253906,1.01953126 -1.347656,1.01953126 -0.503906,0 -0.902344,-0.29296875 -1.125,-0.66796875 C 32.956813,-1.2903984 32.956813,-1.9466484 32.956813,-2.2982109 Z m 4.429687,-1.125 v 2.66015621 c 0,0.45703125 -0.117187,0.45703125 -0.785156,0.45703125 v 0.3046875 c 0.351562,-0.01171875 0.855469,-0.03515625 1.125,-0.03515625 0.257812,0 0.785156,0.0234375 1.113281,0.03515625 v -0.3046875 c -0.65625,0 -0.773437,0 -0.773437,-0.45703125 V -2.5911797 c 0,-1.03125 0.714843,-1.59375 1.347656,-1.59375 0.621094,0 0.738281,0.5390625 0.738281,1.1015625 v 2.32031251 c 0,0.45703125 -0.117187,0.45703125 -0.773437,0.45703125 v 0.3046875 c 0.339843,-0.01171875 0.855468,-0.03515625 1.125,-0.03515625 0.257812,0 0.773437,0.0234375 1.113281,0.03515625 v -0.3046875 c -0.515625,0 -0.773438,0 -0.785156,-0.3046875 V -2.5091484 c 0,-0.8554688 0,-1.171875 -0.304688,-1.5234375 -0.140625,-0.1757813 -0.46875,-0.375 -1.042969,-0.375 -0.726562,0 -1.195312,0.4335937 -1.476562,1.0546875 v -1.0546875 l -1.40625,0.1171875 v 0.3046875 c 0.703125,0 0.785156,0.070312 0.785156,0.5625 z m 5.545898,0.9140625 c 0.05859,-1.4882813 0.902344,-1.734375 1.242188,-1.734375 1.019531,0 1.125,1.3476562 1.125,1.734375 z m -0.01172,0.2109375 h 2.789062 c 0.210938,0 0.246094,0 0.246094,-0.2109375 0,-0.984375 -0.539063,-1.9570313 -1.78125,-1.9570313 -1.160156,0 -2.074219,1.03125 -2.074219,2.2734375 0,1.33593751 1.042969,2.29687501 2.191406,2.29687501 1.21875,0 1.664063,-1.1015625 1.664063,-1.28906251 0,-0.1054687 -0.08203,-0.1171875 -0.128906,-0.1171875 -0.09375,0 -0.117188,0.058594 -0.128907,0.140625 -0.351562,1.01953126 -1.253906,1.01953126 -1.347656,1.01953126 -0.503906,0 -0.902344,-0.29296875 -1.125,-0.66796875 C 42.92068,-1.2903984 42.92068,-1.9466484 42.92068,-2.2982109 Z m 5.047851,-1.6875 h 1.429688 v -0.3046875 h -1.429688 v -1.8398438 h -0.246093 c -0.01172,0.8203125 -0.316407,1.8867188 -1.289063,1.921875 v 0.2226563 h 0.84375 v 2.7539062 c 0,1.21875001 0.925781,1.33593751 1.289063,1.33593751 0.703125,0 0.984375,-0.703125 0.984375,-1.33593751 v -0.5742187 h -0.246094 v 0.5507812 c 0,0.73828126 -0.304688,1.11328126 -0.667969,1.11328126 -0.667969,0 -0.667969,-0.90234376 -0.667969,-1.07812496 z m 3.911133,-2.9296875 -1.429687,0.1054687 v 0.3164063 c 0.703125,0 0.773437,0.070312 0.773437,0.5507812 v 5.17968751 c 0,0.45703125 -0.105469,0.45703125 -0.773437,0.45703125 v 0.3046875 c 0.328125,-0.01171875 0.855468,-0.03515625 1.101562,-0.03515625 0.257813,0 0.738281,0.0234375 1.113281,0.03515625 v -0.3046875 c -0.667968,0 -0.785156,0 -0.785156,-0.45703125 z m 2.121094,4.40625 c 0.05859,-1.4882813 0.902344,-1.734375 1.242187,-1.734375 1.019532,0 1.125,1.3476562 1.125,1.734375 z m -0.01172,0.2109375 h 2.789063 c 0.210937,0 0.246093,0 0.246093,-0.2109375 0,-0.984375 -0.539062,-1.9570313 -1.78125,-1.9570313 -1.160156,0 -2.074218,1.03125 -2.074218,2.2734375 0,1.33593751 1.042968,2.29687501 2.191406,2.29687501 1.21875,0 1.664062,-1.1015625 1.664062,-1.28906251 0,-0.1054687 -0.08203,-0.1171875 -0.128906,-0.1171875 -0.09375,0 -0.117187,0.058594 -0.128906,0.140625 -0.351563,1.01953126 -1.253906,1.01953126 -1.347656,1.01953126 -0.503907,0 -0.902344,-0.29296875 -1.125,-0.66796875 C 53.989039,-1.2903984 53.989039,-1.9466484 53.989039,-2.2982109 Z m 7.464844,-1.0546875 c 0.257812,-0.6210938 0.761719,-0.6328125 0.925781,-0.6328125 v -0.3046875 c -0.234375,0.011719 -0.515625,0.023437 -0.75,0.023437 -0.175781,0 -0.644531,-0.023437 -0.867187,-0.023437 v 0.3046875 c 0.304687,0.011719 0.46875,0.1757812 0.46875,0.4335937 0,0.09375 -0.01172,0.1171875 -0.05859,0.234375 L 60.16482,-0.86852344 59.063258,-3.5521172 c -0.04687,-0.09375 -0.05859,-0.140625 -0.05859,-0.1757812 0,-0.2578125 0.363281,-0.2578125 0.550781,-0.2578125 v -0.3046875 c -0.257812,0 -0.914062,0.023437 -1.078125,0.023437 -0.269531,0 -0.667968,-0.011719 -0.972656,-0.023437 v 0.3046875 c 0.480469,0 0.667969,0 0.808594,0.3515625 l 1.5,3.63281246 c -0.05859,0.12890625 -0.199219,0.45703125 -0.257813,0.5859375 -0.210937,0.55078124 -0.492187,1.24218754 -1.136718,1.24218754 -0.04687,0 -0.269532,0 -0.46875,-0.1875 0.316406,-0.035156 0.398437,-0.2578125 0.398437,-0.4101563 0,-0.26953124 -0.199219,-0.42187499 -0.421875,-0.42187499 -0.199219,0 -0.421875,0.12890625 -0.421875,0.42187499 0,0.4570313 0.421875,0.8085938 0.914063,0.8085938 0.632812,0 1.042968,-0.5625 1.277343,-1.13671879 z m 2.876953,-1.0546875 -1.394531,0.1171875 v 0.3046875 c 0.65625,0 0.738281,0.058594 0.738281,0.5507812 v 2.67187501 c 0,0.45703125 -0.105469,0.45703125 -0.773438,0.45703125 v 0.3046875 c 0.316407,-0.01171875 0.855469,-0.03515625 1.101563,-0.03515625 0.339844,0 0.691406,0.0234375 1.03125,0.03515625 v -0.3046875 c -0.65625,0 -0.703125,-0.0585938 -0.703125,-0.4453125 z m 0.04687,-1.734375 c 0,-0.3164063 -0.246094,-0.5273438 -0.527344,-0.5273438 -0.316406,0 -0.527344,0.2695313 -0.527344,0.5273438 0,0.2695312 0.210938,0.5273437 0.527344,0.5273437 0.28125,0 0.527344,-0.1992187 0.527344,-0.5273437 z m 2.124023,3.9726562 c 0,-1.6289062 0.820313,-2.0507812 1.347657,-2.0507812 0.09375,0 0.714843,0.011719 1.066406,0.375 -0.410156,0.023437 -0.46875,0.328125 -0.46875,0.4570312 0,0.2578125 0.1875,0.4570313 0.457031,0.4570313 0.257813,0 0.457031,-0.1640625 0.457031,-0.46875 0,-0.6796875 -0.75,-1.0664063 -1.523437,-1.0664063 -1.242188,0 -2.15625,1.078125 -2.15625,2.3085938 0,1.27734371 0.984375,2.26171871 2.144531,2.26171871 1.335938,0 1.652344,-1.19531251 1.652344,-1.28906251 0,-0.1054687 -0.105469,-0.1054687 -0.128906,-0.1054687 -0.09375,0 -0.117188,0.046875 -0.128907,0.1054687 -0.292968,0.92578126 -0.9375,1.04296876 -1.3125,1.04296876 -0.527343,0 -1.40625,-0.421875 -1.40625,-2.02734376 z m 5.024414,-2.2382812 -1.394531,0.1171875 v 0.3046875 c 0.65625,0 0.738281,0.058594 0.738281,0.5507812 v 2.67187501 c 0,0.45703125 -0.105468,0.45703125 -0.773437,0.45703125 v 0.3046875 c 0.316406,-0.01171875 0.855469,-0.03515625 1.101562,-0.03515625 0.339844,0 0.691407,0.0234375 1.03125,0.03515625 v -0.3046875 c -0.65625,0 -0.703125,-0.0585938 -0.703125,-0.4453125 z m 0.04687,-1.734375 c 0,-0.3164063 -0.246093,-0.5273438 -0.527343,-0.5273438 -0.316407,0 -0.527344,0.2695313 -0.527344,0.5273438 0,0.2695312 0.210937,0.5273437 0.527344,0.5273437 0.28125,0 0.527343,-0.1992187 0.527343,-0.5273437 z M 16.409938,14.345344 c 0,-0.03516 0,-0.04687 -0.164063,-0.222656 -1.242187,-1.253907 -1.570312,-3.128907 -1.570312,-4.664063 0,-1.7226562 0.386718,-3.4570312 1.605468,-4.7109375 0.128907,-0.1171875 0.128907,-0.1289062 0.128907,-0.1640625 0,-0.070312 -0.03516,-0.1054687 -0.09375,-0.1054687 -0.105469,0 -0.996094,0.6796875 -1.582032,1.9453125 -0.515625,1.1015625 -0.632812,2.203125 -0.632812,3.0351562 0,0.785156 0.117187,1.992188 0.65625,3.117188 0.597656,1.21875 1.453125,1.875 1.558594,1.875 0.05859,0 0.09375,-0.03516 0.09375,-0.105469 z M 19.392359,5.3687813 C 19.298609,5.146125 19.275172,5.146125 19.040797,5.146125 h -1.6875 v 0.3164063 h 0.246094 c 0.761718,0 0.785156,0.1054687 0.785156,0.46875 V 10.91175 c 0,0.269531 0,0.738281 -1.03125,0.738281 v 0.304688 c 0.351562,-0.01172 0.84375,-0.03516 1.171875,-0.03516 0.328125,0 0.820312,0.02344 1.160156,0.03516 v -0.304688 c -1.019531,0 -1.019531,-0.46875 -1.019531,-0.738281 V 5.5445625 h 0.01172 l 2.402343,6.1875005 c 0.04687,0.128906 0.09375,0.222656 0.199219,0.222656 0.105469,0 0.128906,-0.08203 0.175781,-0.1875 l 2.449219,-6.3046877 h 0.01172 v 5.7187497 c 0,0.351563 -0.02344,0.46875 -0.785156,0.46875 h -0.246094 v 0.304688 c 0.375,-0.03516 1.042969,-0.03516 1.441406,-0.03516 0.386719,0 1.054688,0 1.417969,0.03516 v -0.304688 h -0.234375 c -0.773438,0 -0.785156,-0.117187 -0.785156,-0.46875 V 5.9312813 c 0,-0.3632813 0.01172,-0.46875 0.785156,-0.46875 h 0.234375 V 5.146125 h -1.675781 c -0.269532,0 -0.269532,0.011719 -0.339844,0.1992188 l -2.17969,5.6015622 z M 29.441188,11.193 c 0.03516,0.398438 0.304687,0.820313 0.773437,0.820313 0.210938,0 0.820313,-0.140625 0.820313,-0.949219 v -0.550781 h -0.246094 v 0.550781 c 0,0.585937 -0.246094,0.644531 -0.363281,0.644531 -0.328125,0 -0.363282,-0.457031 -0.363282,-0.503906 V 9.2125313 c 0,-0.4101563 0,-0.8085938 -0.363281,-1.171875 C 29.312281,7.6539375 28.820094,7.489875 28.339625,7.489875 c -0.820312,0 -1.511719,0.46875 -1.511719,1.125 0,0.3046875 0.199219,0.46875 0.457032,0.46875 0.28125,0 0.46875,-0.1992187 0.46875,-0.4570312 0,-0.1171875 -0.05859,-0.4453125 -0.515625,-0.4570313 0.269531,-0.3515625 0.761718,-0.4570312 1.078125,-0.4570312 0.492187,0 1.054687,0.3867187 1.054687,1.2773437 v 0.3632813 c -0.503906,0.035156 -1.207031,0.058594 -1.828125,0.3632812 -0.75,0.3398435 -0.996094,0.8554685 -0.996094,1.2890625 0,0.808594 0.960938,1.054688 1.59375,1.054688 0.65625,0 1.113282,-0.398438 1.300782,-0.867188 z m -0.07031,-1.6289062 v 0.9960942 c 0,0.949218 -0.714844,1.289062 -1.160156,1.289062 -0.492188,0 -0.902344,-0.351562 -0.902344,-0.855469 0,-0.539062 0.421875,-1.3710935 2.0625,-1.4296872 z m 3.808594,0.4570312 c 0.222656,0.03516 1.03125,0.199219 1.03125,0.914063 0,0.515625 -0.351563,0.914062 -1.125,0.914062 -0.832031,0 -1.195313,-0.574219 -1.382813,-1.417969 -0.03516,-0.128906 -0.03516,-0.175781 -0.140625,-0.175781 -0.128906,0 -0.128906,0.07031 -0.128906,0.257813 v 1.3125 c 0,0.164062 0,0.234375 0.105469,0.234375 0.05859,0 0.07031,0 0.257812,-0.199219 0.01172,-0.01172 0.01172,-0.03516 0.199219,-0.222656 0.433594,0.421875 0.878906,0.421875 1.089844,0.421875 1.148437,0 1.605469,-0.667969 1.605469,-1.382813 0,-0.527344 -0.292969,-0.8203125 -0.421875,-0.9492187 -0.328125,-0.3164063 -0.714844,-0.3984375 -1.136719,-0.46875 -0.550781,-0.1171875 -1.21875,-0.2460938 -1.21875,-0.8203125 0,-0.3515625 0.257812,-0.7617188 1.113281,-0.7617188 1.101563,0 1.148438,0.9023438 1.171875,1.2070313 0,0.09375 0.09375,0.09375 0.117188,0.09375 0.128906,0 0.128906,-0.046875 0.128906,-0.2460938 V 7.7359688 c 0,-0.1757813 0,-0.2460938 -0.117188,-0.2460938 -0.04687,0 -0.07031,0 -0.199218,0.1171875 -0.02344,0.046875 -0.128907,0.1289063 -0.164063,0.1640625 -0.375,-0.28125 -0.785156,-0.28125 -0.9375,-0.28125 -1.21875,0 -1.59375,0.6679688 -1.59375,1.2304688 0,0.3398437 0.164063,0.6210937 0.433594,0.84375 0.316406,0.2578125 0.597656,0.3164062 1.3125,0.4570312 z M 36.75662,7.9703438 h 1.429688 V 7.6656563 H 36.756617 V 5.8258125 h -0.246094 c -0.01172,0.8203125 -0.316406,1.8867188 -1.289062,1.921875 v 0.2226563 h 0.84375 V 10.72425 c 0,1.21875 0.925781,1.335938 1.289062,1.335938 0.703125,0 0.984375,-0.703125 0.984375,-1.335938 v -0.574219 h -0.246093 v 0.550782 c 0,0.738281 -0.304688,1.113281 -0.667969,1.113281 -0.667969,0 -0.667969,-0.902344 -0.667969,-1.078125 z m 3.266602,1.4765625 c 0.05859,-1.4882813 0.902344,-1.734375 1.242187,-1.734375 1.019532,0 1.125,1.3476562 1.125,1.734375 z M 40.0115,9.6578438 h 2.789063 c 0.210937,0 0.246093,0 0.246093,-0.2109375 0,-0.984375 -0.539062,-1.9570313 -1.78125,-1.9570313 -1.160156,0 -2.074218,1.03125 -2.074218,2.2734375 0,1.3359375 1.042968,2.2968755 2.191406,2.2968755 1.21875,0 1.664062,-1.101563 1.664062,-1.289063 0,-0.105469 -0.08203,-0.117187 -0.128906,-0.117187 -0.09375,0 -0.117187,0.05859 -0.128906,0.140625 -0.351563,1.019531 -1.253906,1.019531 -1.347656,1.019531 -0.503907,0 -0.902344,-0.292969 -1.125,-0.667969 C 40.0115,10.665656 40.0115,10.009406 40.0115,9.6578438 Z M 45.000758,8.6500313 V 7.5484688 l -1.382813,0.1171875 v 0.3046875 c 0.691407,0 0.773438,0.070312 0.773438,0.5625 V 11.193 c 0,0.457031 -0.105469,0.457031 -0.773438,0.457031 v 0.304688 c 0.386719,-0.01172 0.855469,-0.03516 1.136719,-0.03516 0.398438,0 0.867188,0 1.265625,0.03516 v -0.304688 h -0.210937 c -0.738282,0 -0.761719,-0.117187 -0.761719,-0.46875 V 9.646125 c 0,-0.984375 0.421875,-1.875 1.183594,-1.875 0.05859,0 0.08203,0 0.105468,0.011719 -0.03516,0.011719 -0.234375,0.1289062 -0.234375,0.3867187 0,0.28125 0.210938,0.4335938 0.433594,0.4335938 0.175781,0 0.421875,-0.1289063 0.421875,-0.4453125 0,-0.3164063 -0.304687,-0.609375 -0.726562,-0.609375 -0.738282,0 -1.089844,0.6679687 -1.230469,1.1015623 z m 8.484375,-3.0703125 c 0,-0.234375 0,-0.2578125 -0.234375,-0.2578125 -0.609375,0.6328125 -1.488281,0.6328125 -1.804688,0.6328125 V 6.271125 c 0.199219,0 0.785157,0 1.300782,-0.2578125 v 5.1562505 c 0,0.351562 -0.03516,0.480468 -0.925782,0.480468 h -0.316406 v 0.304688 c 0.351563,-0.03516 1.207031,-0.03516 1.605469,-0.03516 0.398437,0 1.265625,0 1.617187,0.03516 v -0.304688 h -0.316406 c -0.902344,0 -0.925781,-0.117187 -0.925781,-0.480468 z m 4.936523,3.8789062 c 0,-0.7734375 -0.117187,-1.9804687 -0.65625,-3.1054687 -0.597656,-1.21875 -1.464843,-1.875 -1.558593,-1.875 -0.05859,0 -0.105469,0.046875 -0.105469,0.1054687 0,0.035156 0,0.046875 0.199219,0.234375 0.972656,0.984375 1.535156,2.5664063 1.535156,4.640625 0,1.710938 -0.363281,3.457031 -1.59375,4.722656 -0.140625,0.117188 -0.140625,0.128907 -0.140625,0.164063 0,0.05859 0.04687,0.105469 0.105469,0.105469 0.09375,0 0.996093,-0.679688 1.582031,-1.945313 0.503906,-1.101562 0.632812,-2.203125 0.632812,-3.046875 z m 0,0"
       style="fill:#000000;fill-opacity:1;fill-rule:nonzero;stroke:none"
       aria-label="Mikrodenetleyici&#10;(Master1)"
       transform="matrix(1.3333333,0,0,1.3333333,65.401333,280.076)" />
    <path
       id="path4"
       d="M -14.1734,0 H 70.86704 V 56.69362 H -14.1734 Z"
       style="fill:#e6ffe6;fill-opacity:1;fill-rule:nonzero;stroke:#000000;stroke-width:0.99628;stroke-linecap:butt;stroke-linejoin:miter;stroke-miterlimit:10;stroke-dasharray:none;stroke-opacity:1"
       transform="matrix(1.3333333,0,0,-1.3333333,208.24533,322.88933)" />
    <path
       id="path5"
       d="M 2.4020391,-6.5872734 C 2.3082891,-6.8099297 2.2848516,-6.8099297 2.0504766,-6.8099297 H 0.36297656 v 0.3164063 h 0.24609375 c 0.76171879,0 0.78515629,0.1054687 0.78515629,0.46875 v 4.9804687 c 0,0.26953126 0,0.73828126 -1.03125004,0.73828126 v 0.3046875 c 0.3515625,-0.01171875 0.84375004,-0.03515625 1.17187504,-0.03515625 0.328125,0 0.8203125,0.0234375 1.1601562,0.03515625 v -0.3046875 c -1.0195312,0 -1.0195312,-0.46875 -1.0195312,-0.73828126 v -5.3671875 h 0.011719 l 2.4023438,6.18750001 c 0.046875,0.12890625 0.09375,0.22265625 0.1992187,0.22265625 0.1054688,0 0.1289063,-0.08203125 0.1757813,-0.1875 L 6.9137578,-6.4935234 h 0.011719 v 5.71874996 c 0,0.3515625 -0.023437,0.46875 -0.7851563,0.46875 H 5.8942266 v 0.3046875 c 0.375,-0.03515625 1.0429687,-0.03515625 1.4414062,-0.03515625 0.3867188,0 1.0546875,0 1.4179688,0.03515625 v -0.3046875 h -0.234375 c -0.7734375,0 -0.7851563,-0.1171875 -0.7851563,-0.46875 V -6.0247734 c 0,-0.3632813 0.011719,-0.46875 0.7851563,-0.46875 h 0.234375 V -6.8099297 H 7.0778203 c -0.2695312,0 -0.2695312,0.011719 -0.3398437,0.1992188 l -2.1796875,5.6015625 z m 8.4873049,2.1796875 -1.3945315,0.1171875 v 0.3046875 c 0.6562495,0 0.7382815,0.058594 0.7382815,0.5507812 v 2.67187501 c 0,0.45703125 -0.105469,0.45703125 -0.7734378,0.45703125 v 0.3046875 c 0.3164063,-0.01171875 0.8554688,-0.03515625 1.1015628,-0.03515625 0.339843,0 0.691406,0.0234375 1.03125,0.03515625 v -0.3046875 c -0.65625,0 -0.703125,-0.0585938 -0.703125,-0.4453125 z m 0.04687,-1.734375 c 0,-0.3164063 -0.246094,-0.5273438 -0.527344,-0.5273438 -0.316406,0 -0.5273438,0.2695313 -0.5273438,0.5273438 0,0.2695312 0.2109378,0.5273437 0.5273438,0.5273437 0.28125,0 0.527344,-0.1992187 0.527344,-0.5273437 z m 2.018554,5.37890621 c 0,0.45703125 -0.105468,0.45703125 -0.773437,0.45703125 v 0.3046875 c 0.328125,-0.01171875 0.796875,-0.03515625 1.078125,-0.03515625 0.304687,0 0.703125,0.01171875 1.101562,0.03515625 v -0.3046875 c -0.667968,0 -0.773437,0 -0.773437,-0.45703125 V -1.7825859 l 0.632812,-0.5507813 c 0.773438,1.0546875 1.183594,1.61718751 1.183594,1.79296876 0,0.1875 -0.164062,0.234375 -0.351562,0.234375 v 0.3046875 c 0.269531,-0.01171875 0.867187,-0.03515625 1.066406,-0.03515625 0.292969,0 0.585937,0.01171875 0.867187,0.03515625 v -0.3046875 c -0.363281,0 -0.585937,0 -0.960937,-0.52734375 l -1.26562,-1.79296871 c -0.01172,-0.011719 -0.05859,-0.070312 -0.05859,-0.1054688 0,-0.035156 0.703125,-0.6328125 0.808594,-0.7148437 0.621094,-0.5039063 1.042969,-0.5273438 1.253906,-0.5390625 v -0.3046875 c -0.292969,0.023437 -0.421875,0.023437 -0.703125,0.023437 -0.351562,0 -0.972656,-0.023437 -1.113281,-0.023437 v 0.3046875 c 0.1875,0.011719 0.292969,0.1171875 0.292969,0.2460937 0,0.1992188 -0.140625,0.3164063 -0.222657,0.3867188 l -1.40625,1.21875 v -4.78125 l -1.429687,0.1054687 v 0.3164063 c 0.691406,0 0.773437,0.070312 0.773437,0.5507812 z m 5.868164,-2.54296871 v -1.1015625 l -1.382812,0.1171875 v 0.3046875 c 0.691406,0 0.773437,0.070312 0.773437,0.5625 v 2.66015621 c 0,0.45703125 -0.105468,0.45703125 -0.773437,0.45703125 v 0.3046875 c 0.386719,-0.01171875 0.855469,-0.03515625 1.136719,-0.03515625 0.398437,0 0.867187,0 1.265625,0.03515625 v -0.3046875 h -0.210938 c -0.738281,0 -0.761719,-0.1171875 -0.761719,-0.46875 V -2.3099297 c 0,-0.984375 0.421875,-1.875 1.183594,-1.875 0.05859,0 0.08203,0 0.105469,0.011719 -0.03516,0.011719 -0.234375,0.1289062 -0.234375,0.3867187 0,0.28125 0.210937,0.4335938 0.433594,0.4335938 0.175781,0 0.421875,-0.1289063 0.421875,-0.4453125 0,-0.3164063 -0.304688,-0.609375 -0.726563,-0.609375 -0.738281,0 -1.089844,0.6679687 -1.230469,1.1015623 z m 6.925782,1.171875 c 0,-1.2773438 -0.996094,-2.3320313 -2.191407,-2.3320313 -1.253906,0 -2.214843,1.0898438 -2.214843,2.3320313 0,1.28906246 1.03125,2.23828121 2.203125,2.23828121 1.207031,0 2.203125,-0.97265625 2.203125,-2.23828121 z m -2.191407,1.99218746 c -0.433593,0 -0.867187,-0.2109375 -1.136718,-0.66796875 -0.257813,-0.43359371 -0.257813,-1.04296871 -0.257813,-1.40625001 0,-0.3867187 0,-0.9257812 0.246094,-1.359375 0.269531,-0.4570312 0.738281,-0.6679687 1.136719,-0.6679687 0.433593,0 0.867187,0.2226562 1.125,0.6445312 0.257812,0.4335938 0.257812,1.0078125 0.257812,1.3828125 0,0.3632813 0,0.9023438 -0.222656,1.33593751 -0.222656,0.4453125 -0.65625,0.73828125 -1.148438,0.73828125 z m 6.547852,-0.41015625 v 0.65625 l 1.464844,-0.10546875 v -0.3046875 c -0.703125,0 -0.773438,-0.0703125 -0.773438,-0.5625 V -6.9153984 l -1.441406,0.1054687 v 0.3164063 c 0.703125,0 0.785156,0.070312 0.785156,0.5507812 v 2.15625 c -0.292968,-0.3632812 -0.726562,-0.6210937 -1.265625,-0.6210937 -1.171875,0 -2.214843,0.984375 -2.214843,2.2617187 0,1.26562501 0.972656,2.25000001 2.109375,2.25000001 0.644531,0 1.089843,-0.33984375 1.335937,-0.65625 z m 0,-2.67187501 v 2.0507813 c 0,0.17578121 0,0.19921871 -0.105469,0.36328121 -0.304687,0.48046875 -0.75,0.703125 -1.183593,0.703125 -0.445313,0 -0.796875,-0.2578125 -1.042969,-0.64453125 -0.257813,-0.41015626 -0.292969,-0.97265626 -0.292969,-1.38281246 0,-0.3632813 0.02344,-0.9609375 0.316406,-1.4179688 0.210938,-0.3046875 0.585938,-0.6328125 1.125,-0.6328125 0.351563,0 0.761719,0.1523438 1.078125,0.5976563 0.105469,0.1640625 0.105469,0.1875 0.105469,0.3632812 z m 2.865234,0.7148438 c 0.05859,-1.4882813 0.902344,-1.734375 1.242188,-1.734375 1.019531,0 1.125,1.3476562 1.125,1.734375 z m -0.01172,0.2109375 h 2.789062 c 0.210938,0 0.246094,0 0.246094,-0.2109375 0,-0.984375 -0.539063,-1.9570313 -1.78125,-1.9570313 -1.160156,0 -2.074219,1.03125 -2.074219,2.2734375 0,1.33593751 1.042969,2.29687501 2.191406,2.29687501 1.21875,0 1.664063,-1.1015625 1.664063,-1.28906251 0,-0.1054687 -0.08203,-0.1171875 -0.128906,-0.1171875 -0.09375,0 -0.117188,0.058594 -0.128907,0.140625 -0.351562,1.01953126 -1.253906,1.01953126 -1.347656,1.01953126 -0.503906,0 -0.902344,-0.29296875 -1.125,-0.66796875 C 32.95868,-1.2903984 32.95868,-1.9466484 32.95868,-2.2982109 Z m 4.426757,-1.125 v 2.66015621 c 0,0.45703125 -0.117187,0.45703125 -0.785156,0.45703125 v 0.3046875 c 0.351563,-0.01171875 0.855469,-0.03515625 1.125,-0.03515625 0.257813,0 0.785156,0.0234375 1.113281,0.03515625 v -0.3046875 c -0.65625,0 -0.773437,0 -0.773437,-0.45703125 V -2.5911797 c 0,-1.03125 0.714844,-1.59375 1.347656,-1.59375 0.621094,0 0.738281,0.5390625 0.738281,1.1015625 v 2.32031251 c 0,0.45703125 -0.117187,0.45703125 -0.773437,0.45703125 v 0.3046875 c 0.339844,-0.01171875 0.855469,-0.03515625 1.125,-0.03515625 0.257812,0 0.773437,0.0234375 1.113281,0.03515625 v -0.3046875 c -0.515625,0 -0.773437,0 -0.785156,-0.3046875 V -2.5091484 c 0,-0.8554688 0,-1.171875 -0.304688,-1.5234375 -0.140625,-0.1757813 -0.46875,-0.375 -1.042968,-0.375 -0.726563,0 -1.195313,0.4335937 -1.476563,1.0546875 v -1.0546875 l -1.40625,0.1171875 v 0.3046875 c 0.703125,0 0.785156,0.070312 0.785156,0.5625 z m 5.545899,0.9140625 c 0.05859,-1.4882813 0.902344,-1.734375 1.242187,-1.734375 1.019532,0 1.125,1.3476562 1.125,1.734375 z m -0.01172,0.2109375 h 2.789063 c 0.210937,0 0.246093,0 0.246093,-0.2109375 0,-0.984375 -0.539062,-1.9570313 -1.78125,-1.9570313 -1.160156,0 -2.074218,1.03125 -2.074218,2.2734375 0,1.33593751 1.042968,2.29687501 2.191406,2.29687501 1.21875,0 1.664062,-1.1015625 1.664062,-1.28906251 0,-0.1054687 -0.08203,-0.1171875 -0.128906,-0.1171875 -0.09375,0 -0.117187,0.058594 -0.128906,0.140625 -0.351563,1.01953126 -1.253906,1.01953126 -1.347656,1.01953126 -0.503907,0 -0.902344,-0.29296875 -1.125,-0.66796875 -0.30468,-0.48046871 -0.30468,-1.13671871 -0.30468,-1.48828121 z m 5.050781,-1.6875 h 1.429688 V -4.2903984 H 47.97039 v -1.8398438 h -0.246093 c -0.01172,0.8203125 -0.316407,1.8867188 -1.289063,1.921875 v 0.2226563 h 0.84375 v 2.7539062 c 0,1.21875001 0.925781,1.33593751 1.289063,1.33593751 0.703125,0 0.984375,-0.703125 0.984375,-1.33593751 v -0.5742187 h -0.246094 v 0.5507812 c 0,0.73828126 -0.304688,1.11328126 -0.667969,1.11328126 -0.667969,0 -0.667969,-0.90234376 -0.667969,-1.07812496 z m 3.908204,-2.9296875 -1.429688,0.1054687 v 0.3164063 c 0.703125,0 0.773438,0.070312 0.773438,0.5507812 v 5.17968751 c 0,0.45703125 -0.105469,0.45703125 -0.773438,0.45703125 v 0.3046875 c 0.328125,-0.01171875 0.855469,-0.03515625 1.101563,-0.03515625 0.257812,0 0.738281,0.0234375 1.113281,0.03515625 v -0.3046875 c -0.667969,0 -0.785156,0 -0.785156,-0.45703125 z m 2.124023,4.40625 c 0.05859,-1.4882813 0.902344,-1.734375 1.242187,-1.734375 1.019532,0 1.125,1.3476562 1.125,1.734375 z m -0.01172,0.2109375 h 2.789063 c 0.210937,0 0.246093,0 0.246093,-0.2109375 0,-0.984375 -0.539062,-1.9570313 -1.78125,-1.9570313 -1.160156,0 -2.074218,1.03125 -2.074218,2.2734375 0,1.33593751 1.042968,2.29687501 2.191406,2.29687501 1.21875,0 1.664062,-1.1015625 1.664062,-1.28906251 0,-0.1054687 -0.08203,-0.1171875 -0.128906,-0.1171875 -0.09375,0 -0.117187,0.058594 -0.128906,0.140625 -0.351563,1.01953126 -1.253906,1.01953126 -1.347656,1.01953126 -0.503907,0 -0.902344,-0.29296875 -1.125,-0.66796875 C 53.990906,-1.2903984 53.990906,-1.9466484 53.990906,-2.2982109 Z m 7.461914,-1.0546875 c 0.257813,-0.6210938 0.761719,-0.6328125 0.925782,-0.6328125 v -0.3046875 c -0.234375,0.011719 -0.515625,0.023437 -0.75,0.023437 -0.175782,0 -0.644532,-0.023437 -0.867188,-0.023437 v 0.3046875 c 0.304688,0.011719 0.46875,0.1757812 0.46875,0.4335937 0,0.09375 -0.01172,0.1171875 -0.05859,0.234375 L 60.163753,-0.86852344 59.06219,-3.5521172 c -0.04687,-0.09375 -0.05859,-0.140625 -0.05859,-0.1757812 0,-0.2578125 0.363281,-0.2578125 0.550781,-0.2578125 v -0.3046875 c -0.257813,0 -0.914063,0.023437 -1.078125,0.023437 -0.269531,0 -0.667969,-0.011719 -0.972656,-0.023437 v 0.3046875 c 0.480468,0 0.667968,0 0.808593,0.3515625 l 1.5,3.63281246 c -0.05859,0.12890625 -0.199218,0.45703125 -0.257812,0.5859375 -0.210938,0.55078124 -0.492188,1.24218754 -1.136719,1.24218754 -0.04687,0 -0.269531,0 -0.46875,-0.1875 0.316406,-0.035156 0.398438,-0.2578125 0.398438,-0.4101563 0,-0.26953124 -0.199219,-0.42187499 -0.421875,-0.42187499 -0.199219,0 -0.421875,0.12890625 -0.421875,0.42187499 0,0.4570313 0.421875,0.8085938 0.914062,0.8085938 0.632813,0 1.042969,-0.5625 1.277344,-1.13671879 z m 2.879883,-1.0546875 -1.394531,0.1171875 v 0.3046875 c 0.65625,0 0.738281,0.058594 0.738281,0.5507812 v 2.67187501 c 0,0.45703125 -0.105469,0.45703125 -0.773437,0.45703125 v 0.3046875 c 0.316406,-0.01171875 0.855468,-0.03515625 1.101562,-0.03515625 0.339844,0 0.691406,0.0234375 1.03125,0.03515625 v -0.3046875 c -0.65625,0 -0.703125,-0.0585938 -0.703125,-0.4453125 z m 0.04687,-1.734375 c 0,-0.3164063 -0.246094,-0.5273438 -0.527344,-0.5273438 -0.316406,0 -0.527343,0.2695313 -0.527343,0.5273438 0,0.2695312 0.210937,0.5273437 0.527343,0.5273437 0.28125,0 0.527344,-0.1992187 0.527344,-0.5273437 z m 2.121094,3.9726562 c 0,-1.6289062 0.820312,-2.0507812 1.347656,-2.0507812 0.09375,0 0.714844,0.011719 1.066406,0.375 -0.410156,0.023437 -0.46875,0.328125 -0.46875,0.4570312 0,0.2578125 0.1875,0.4570313 0.457032,0.4570313 0.257812,0 0.457031,-0.1640625 0.457031,-0.46875 0,-0.6796875 -0.75,-1.0664063 -1.523438,-1.0664063 -1.242187,0 -2.15625,1.078125 -2.15625,2.3085938 0,1.27734371 0.984375,2.26171871 2.144532,2.26171871 1.335937,0 1.652343,-1.19531251 1.652343,-1.28906251 0,-0.1054687 -0.105468,-0.1054687 -0.128906,-0.1054687 -0.09375,0 -0.117187,0.046875 -0.128906,0.1054687 -0.292969,0.92578126 -0.9375,1.04296876 -1.3125,1.04296876 -0.527344,0 -1.40625,-0.421875 -1.40625,-2.02734376 z m 5.027344,-2.2382812 -1.394532,0.1171875 v 0.3046875 c 0.65625,0 0.738282,0.058594 0.738282,0.5507812 v 2.67187501 c 0,0.45703125 -0.105469,0.45703125 -0.773438,0.45703125 v 0.3046875 c 0.316406,-0.01171875 0.855469,-0.03515625 1.101563,-0.03515625 0.339843,0 0.691406,0.0234375 1.03125,0.03515625 v -0.3046875 c -0.65625,0 -0.703125,-0.0585938 -0.703125,-0.4453125 z m 0.04687,-1.734375 c 0,-0.3164063 -0.246094,-0.5273438 -0.527344,-0.5273438 -0.316406,0 -0.527344,0.2695313 -0.527344,0.5273438 0,0.2695312 0.210938,0.5273437 0.527344,0.5273437 0.28125,0 0.527344,-0.1992187 0.527344,-0.5273437 z M 16.411805,14.345344 c 0,-0.03516 0,-0.04687 -0.164063,-0.222656 -1.242187,-1.253907 -1.570312,-3.128907 -1.570312,-4.664063 0,-1.7226562 0.386718,-3.4570312 1.605468,-4.7109375 0.128907,-0.1171875 0.128907,-0.1289062 0.128907,-0.1640625 0,-0.070312 -0.03516,-0.1054687 -0.09375,-0.1054687 -0.105469,0 -0.996094,0.6796875 -1.582032,1.9453125 -0.515625,1.1015625 -0.632812,2.203125 -0.632812,3.0351562 0,0.785156 0.117187,1.992188 0.65625,3.117188 0.597656,1.21875 1.453125,1.875 1.558594,1.875 0.05859,0 0.09375,-0.03516 0.09375,-0.105469 z M 19.394227,5.3687813 C 19.300477,5.146125 19.277039,5.146125 19.042664,5.146125 h -1.6875 v 0.3164063 h 0.246094 c 0.761719,0 0.785156,0.1054687 0.785156,0.46875 V 10.91175 c 0,0.269531 0,0.738281 -1.03125,0.738281 v 0.304688 c 0.351563,-0.01172 0.84375,-0.03516 1.171875,-0.03516 0.328125,0 0.820313,0.02344 1.160156,0.03516 v -0.304688 c -1.019531,0 -1.019531,-0.46875 -1.019531,-0.738281 V 5.5445625 h 0.01172 l 2.402344,6.1875005 c 0.04687,0.128906 0.09375,0.222656 0.199218,0.222656 0.105469,0 0.128907,-0.08203 0.175782,-0.1875 l 2.449218,-6.3046877 h 0.01172 v 5.7187497 c 0,0.351563 -0.02344,0.46875 -0.785156,0.46875 h -0.246094 v 0.304688 c 0.375,-0.03516 1.042969,-0.03516 1.441406,-0.03516 0.386719,0 1.054688,0 1.417969,0.03516 v -0.304688 h -0.234375 c -0.773437,0 -0.785156,-0.117187 -0.785156,-0.46875 V 5.9312813 c 0,-0.3632813 0.01172,-0.46875 0.785156,-0.46875 h 0.234375 V 5.146125 H 24.07001 c -0.269531,0 -0.269531,0.011719 -0.339844,0.1992188 L 21.550477,10.946906 Z M 29.440125,11.193 c 0.03516,0.398438 0.304687,0.820313 0.773437,0.820313 0.210938,0 0.820313,-0.140625 0.820313,-0.949219 v -0.550781 h -0.246094 v 0.550781 c 0,0.585937 -0.246094,0.644531 -0.363281,0.644531 -0.328125,0 -0.363281,-0.457031 -0.363281,-0.503906 V 9.2125313 c 0,-0.4101563 0,-0.8085938 -0.363282,-1.171875 C 29.311219,7.6539375 28.819031,7.489875 28.338562,7.489875 c -0.820312,0 -1.511718,0.46875 -1.511718,1.125 0,0.3046875 0.199218,0.46875 0.457031,0.46875 0.28125,0 0.46875,-0.1992187 0.46875,-0.4570312 0,-0.1171875 -0.05859,-0.4453125 -0.515625,-0.4570313 0.269531,-0.3515625 0.761719,-0.4570312 1.078125,-0.4570312 0.492187,0 1.054687,0.3867187 1.054687,1.2773437 v 0.3632813 c -0.503906,0.035156 -1.207031,0.058594 -1.828125,0.3632812 -0.75,0.3398435 -0.996093,0.8554685 -0.996093,1.2890625 0,0.808594 0.960937,1.054688 1.59375,1.054688 0.65625,0 1.113281,-0.398438 1.300781,-0.867188 z m -0.07031,-1.6289062 v 0.9960942 c 0,0.949218 -0.714843,1.289062 -1.160156,1.289062 -0.492187,0 -0.902344,-0.351562 -0.902344,-0.855469 0,-0.539062 0.421875,-1.3710935 2.0625,-1.4296872 z m 3.811524,0.4570312 c 0.222656,0.03516 1.03125,0.199219 1.03125,0.914063 0,0.515625 -0.351563,0.914062 -1.125,0.914062 -0.832031,0 -1.195313,-0.574219 -1.382813,-1.417969 -0.03516,-0.128906 -0.03516,-0.175781 -0.140625,-0.175781 -0.128906,0 -0.128906,0.07031 -0.128906,0.257813 v 1.3125 c 0,0.164062 0,0.234375 0.105469,0.234375 0.05859,0 0.07031,0 0.257812,-0.199219 0.01172,-0.01172 0.01172,-0.03516 0.199219,-0.222656 0.433594,0.421875 0.878906,0.421875 1.089844,0.421875 1.148437,0 1.605469,-0.667969 1.605469,-1.382813 0,-0.527344 -0.292969,-0.8203125 -0.421875,-0.9492187 C 33.943055,9.41175 33.556336,9.3297188 33.134461,9.2594063 32.58368,9.1422188 31.915711,9.0133125 31.915711,8.4390938 c 0,-0.3515625 0.257812,-0.7617188 1.113281,-0.7617188 1.101563,0 1.148438,0.9023438 1.171875,1.2070313 0,0.09375 0.09375,0.09375 0.117188,0.09375 0.128906,0 0.128906,-0.046875 0.128906,-0.2460938 V 7.7359688 c 0,-0.1757813 0,-0.2460938 -0.117188,-0.2460938 -0.04687,0 -0.07031,0 -0.199218,0.1171875 -0.02344,0.046875 -0.128907,0.1289063 -0.164063,0.1640625 -0.375,-0.28125 -0.785156,-0.28125 -0.9375,-0.28125 -1.21875,0 -1.59375,0.6679688 -1.59375,1.2304688 0,0.3398437 0.164063,0.6210937 0.433594,0.84375 0.316406,0.2578125 0.597656,0.3164062 1.3125,0.4570312 z m 3.577148,-2.0507812 h 1.429688 V 7.6656563 H 36.758484 V 5.8258125 h -0.246093 c -0.01172,0.8203125 -0.316407,1.8867188 -1.289063,1.921875 v 0.2226563 h 0.84375 V 10.72425 c 0,1.21875 0.925781,1.335938 1.289063,1.335938 0.703125,0 0.984375,-0.703125 0.984375,-1.335938 v -0.574219 h -0.246094 v 0.550782 c 0,0.738281 -0.304688,1.113281 -0.667969,1.113281 -0.667969,0 -0.667969,-0.902344 -0.667969,-1.078125 z m 3.263672,1.4765625 c 0.05859,-1.4882813 0.902344,-1.734375 1.242188,-1.734375 1.019531,0 1.125,1.3476562 1.125,1.734375 z m -0.01172,0.2109375 H 42.7995 c 0.210937,0 0.246094,0 0.246094,-0.2109375 0,-0.984375 -0.539063,-1.9570313 -1.78125,-1.9570313 -1.160157,0 -2.074219,1.03125 -2.074219,2.2734375 0,1.3359375 1.042969,2.2968755 2.191406,2.2968755 1.21875,0 1.664063,-1.101563 1.664063,-1.289063 0,-0.105469 -0.08203,-0.117187 -0.128907,-0.117187 -0.09375,0 -0.117187,0.05859 -0.128906,0.140625 -0.351562,1.019531 -1.253906,1.019531 -1.347656,1.019531 -0.503906,0 -0.902344,-0.292969 -1.125,-0.667969 -0.304688,-0.480469 -0.304688,-1.136719 -0.304688,-1.4882812 z M 45.002625,8.6500313 V 7.5484688 l -1.382813,0.1171875 v 0.3046875 c 0.691407,0 0.773438,0.070312 0.773438,0.5625 V 11.193 c 0,0.457031 -0.105469,0.457031 -0.773438,0.457031 v 0.304688 c 0.386719,-0.01172 0.855469,-0.03516 1.136719,-0.03516 0.398438,0 0.867188,0 1.265625,0.03516 v -0.304688 h -0.210937 c -0.738282,0 -0.761719,-0.117187 -0.761719,-0.46875 V 9.646125 c 0,-0.984375 0.421875,-1.875 1.183594,-1.875 0.05859,0 0.08203,0 0.105468,0.011719 -0.03516,0.011719 -0.234375,0.1289062 -0.234375,0.3867187 0,0.28125 0.210938,0.4335938 0.433594,0.4335938 0.175781,0 0.421875,-0.1289063 0.421875,-0.4453125 0,-0.3164063 -0.304687,-0.609375 -0.726562,-0.609375 -0.738282,0 -1.089844,0.6679687 -1.230469,1.1015623 z M 51.822937,11.193 52.877625,10.16175 c 1.558594,-1.3710937 2.15625,-1.9101562 2.15625,-2.90625 0,-1.1367187 -0.902344,-1.9335937 -2.121094,-1.9335937 -1.125,0 -1.851562,0.9140625 -1.851562,1.8046875 0,0.5507812 0.492187,0.5507812 0.527343,0.5507812 0.164063,0 0.515625,-0.1171875 0.515625,-0.5273437 0,-0.2578125 -0.1875,-0.515625 -0.527343,-0.515625 -0.08203,0 -0.105469,0 -0.128907,0.011719 0.222657,-0.6445312 0.761719,-1.0195312 1.335938,-1.0195312 0.914062,0 1.335937,0.8085937 1.335937,1.6289062 0,0.796875 -0.492187,1.5820313 -1.042968,2.203125 l -1.910157,2.1328127 c -0.105468,0.105468 -0.105468,0.128906 -0.105468,0.363281 h 3.691406 l 0.28125,-1.734375 h -0.257813 c -0.04687,0.304687 -0.117187,0.738281 -0.210937,0.890625 -0.07031,0.08203 -0.726563,0.08203 -0.949219,0.08203 z m 6.597657,-1.734375 c 0,-0.7734375 -0.117188,-1.9804687 -0.65625,-3.1054687 -0.597657,-1.21875 -1.464844,-1.875 -1.558594,-1.875 -0.05859,0 -0.105469,0.046875 -0.105469,0.1054687 0,0.035156 0,0.046875 0.199219,0.234375 0.972656,0.984375 1.535156,2.5664063 1.535156,4.640625 0,1.710938 -0.363281,3.457031 -1.59375,4.722656 -0.140625,0.117188 -0.140625,0.128907 -0.140625,0.164063 0,0.05859 0.04687,0.105469 0.105469,0.105469 0.09375,0 0.996094,-0.679688 1.582031,-1.945313 0.503906,-1.101562 0.632813,-2.203125 0.632813,-3.046875 z m 0,0"
       style="fill:#000000;fill-opacity:1;fill-rule:nonzero;stroke:none"
       aria-label="Mikrodenetleyici&#10;(Master2)"
       transform="matrix(1.3333333,0,0,1.3333333,197.684,280.076)" />
    <path
       id="path6"
       d="m 113.38724,0 h 56.69362 v 56.69362 h -56.69362 z"
       style="fill:#e6e6ff;fill-opacity:1;fill-rule:nonzero;stroke:#000000;stroke-width:0.99628;stroke-linecap:butt;stroke-linejoin:miter;stroke-miterlimit:10;stroke-dasharray:none;stroke-opacity:1"
       transform="matrix(1.3333333,0,0,-1.3333333,208.24533,322.88933)" />
    <path
       id="path7"
       d="M 3.4802109,-3.8681875 2.2028672,-4.172875 C 1.5817734,-4.3252187 1.1950547,-4.8642812 1.1950547,-5.4385 c 0,-0.703125 0.5390625,-1.3007812 1.3125,-1.3007812 1.6640625,0 1.8867187,1.6289062 1.9453125,2.0742187 0.011719,0.058594 0.011719,0.1171875 0.1171875,0.1171875 0.1289062,0 0.1289062,-0.046875 0.1289062,-0.234375 v -2.0039062 c 0,-0.1640625 0,-0.234375 -0.1054687,-0.234375 -0.070312,0 -0.082031,0.011719 -0.1523438,0.1289062 l -0.3515625,0.5625 c -0.2929687,-0.28125 -0.703125,-0.6914062 -1.59375,-0.6914062 -1.1015625,0 -1.93359371,0.8789062 -1.93359371,1.9335937 0,0.8203125 0.52734371,1.546875 1.30078121,1.8164063 0.1054688,0.046875 0.6210938,0.1640625 1.3125,0.328125 0.2695313,0.070312 0.5742188,0.140625 0.84375,0.515625 0.2109375,0.2578125 0.3164063,0.5859375 0.3164063,0.9140625 0,0.70312495 -0.5039063,1.4179687 -1.3359375,1.4179687 -0.2929688,0 -1.0429688,-0.046875 -1.5703125,-0.5390625 -0.58593751,-0.5273437 -0.60937501,-1.171875 -0.62109376,-1.5234375 -0.0117188,-0.1054687 -0.09375,-0.1054687 -0.1171875,-0.1054687 -0.12890625,0 -0.12890625,0.070312 -0.12890625,0.2460937 v 1.9921875 c 0,0.17578125 0,0.24609375 0.10546875,0.24609375 0.0703125,0 0.0820313,-0.0234375 0.15234375,-0.12890625 0,-0.01171875 0.0234375,-0.046875 0.35156251,-0.57421875 0.3164062,0.33984375 0.9492187,0.703125 1.8398437,0.703125 1.1601563,0 1.9570313,-0.984375 1.9570313,-2.07421875 0,-0.9960937 -0.65625,-1.8164062 -1.4882813,-2.015625 z m 3.1669922,1.359375 c 0.058594,-1.4882812 0.9023438,-1.734375 1.2421875,-1.734375 1.0195313,0 1.125,1.3476563 1.125,1.734375 z m -0.011719,0.2109375 h 2.7890625 c 0.2109375,0 0.2460937,0 0.2460937,-0.2109375 0,-0.984375 -0.5390625,-1.9570312 -1.78125,-1.9570312 -1.1601562,0 -2.0742187,1.03125 -2.0742187,2.2734375 0,1.33593745 1.0429687,2.29687495 2.1914062,2.29687495 1.21875,0 1.6640625,-1.1015625 1.6640625,-1.28906245 0,-0.1054688 -0.082031,-0.1171875 -0.1289062,-0.1171875 -0.09375,0 -0.1171875,0.058594 -0.1289063,0.140625 -0.3515625,1.0195312 -1.2539062,1.0195312 -1.3476562,1.0195312 -0.5039063,0 -0.9023438,-0.29296875 -1.125,-0.66796875 C 6.6354844,-1.2900625 6.6354844,-1.9463125 6.6354841,-2.297875 Z m 4.4296879,-1.125 v 2.66015625 c 0,0.45703125 -0.117188,0.45703125 -0.785156,0.45703125 V -0.001 c 0.351562,-0.01171875 0.855468,-0.03515625 1.125,-0.03515625 0.257812,0 0.785156,0.0234375 1.113281,0.03515625 v -0.3046875 c -0.65625,0 -0.773438,0 -0.773438,-0.45703125 V -2.5908437 c 0,-1.03125 0.714844,-1.59375 1.347657,-1.59375 0.621093,0 0.738281,0.5390625 0.738281,1.1015625 v 2.32031245 c 0,0.45703125 -0.117188,0.45703125 -0.773438,0.45703125 V -0.001 c 0.339844,-0.01171875 0.855469,-0.03515625 1.125,-0.03515625 0.257813,0 0.773438,0.0234375 1.113282,0.03515625 v -0.3046875 c -0.515625,0 -0.773438,0 -0.785157,-0.3046875 v -1.8984375 c 0,-0.8554687 0,-1.171875 -0.304687,-1.5234375 -0.140625,-0.1757812 -0.46875,-0.375 -1.042969,-0.375 -0.726562,0 -1.195312,0.4335938 -1.476562,1.0546875 V -4.40725 l -1.40625,0.1171875 v 0.3046875 c 0.703125,0 0.785156,0.070312 0.785156,0.5625 z m 6.506836,1.4882813 c 0.222656,0.035156 1.03125,0.1992187 1.03125,0.9140625 0,0.51562495 -0.351563,0.91406245 -1.125,0.91406245 -0.832031,0 -1.195313,-0.57421875 -1.382813,-1.41796875 -0.03516,-0.1289062 -0.03516,-0.1757812 -0.140625,-0.1757812 -0.128906,0 -0.128906,0.070312 -0.128906,0.2578125 v 1.31249995 c 0,0.1640625 0,0.234375 0.105469,0.234375 0.05859,0 0.07031,0 0.257812,-0.19921875 0.01172,-0.01171875 0.01172,-0.03515625 0.199219,-0.22265625 0.433594,0.421875 0.878906,0.421875 1.089844,0.421875 1.148437,0 1.605469,-0.66796875 1.605469,-1.38281245 0,-0.5273438 -0.292969,-0.8203125 -0.421875,-0.9492188 -0.328125,-0.3164062 -0.714844,-0.3984375 -1.136719,-0.46875 -0.550781,-0.1171875 -1.21875,-0.2460937 -1.21875,-0.8203125 0,-0.3515625 0.257812,-0.7617187 1.113281,-0.7617187 1.101563,0 1.148438,0.9023437 1.171875,1.2070312 0,0.09375 0.09375,0.09375 0.117188,0.09375 0.128906,0 0.128906,-0.046875 0.128906,-0.2460937 V -4.21975 c 0,-0.1757812 0,-0.2460937 -0.117188,-0.2460937 -0.04687,0 -0.07031,0 -0.199218,0.1171875 -0.02344,0.046875 -0.128907,0.1289062 -0.164063,0.1640625 -0.375,-0.28125 -0.785156,-0.28125 -0.9375,-0.28125 -1.21875,0 -1.59375,0.6679687 -1.59375,1.2304687 0,0.3398438 0.164063,0.6210938 0.433594,0.84375 0.316406,0.2578125 0.597656,0.3164063 1.3125,0.4570313 z m 3.881836,-4.2304688 c 0,-0.2460937 -0.199219,-0.5039062 -0.503906,-0.5039062 -0.28125,0 -0.492188,0.2226562 -0.492188,0.5039062 0,0.28125 0.210938,0.4921875 0.492188,0.4921875 0.304687,0 0.503906,-0.2578125 0.503906,-0.4921875 z m 1.921875,0 c 0,-0.28125 -0.222656,-0.5039062 -0.503906,-0.5039062 -0.292969,0 -0.492188,0.2578125 -0.492188,0.5039062 0,0.234375 0.199219,0.4921875 0.492188,0.4921875 0.28125,0 0.503906,-0.2109375 0.503906,-0.4921875 z m 0.738281,4.03125 c 0,-1.2773437 -0.996094,-2.3320312 -2.191406,-2.3320312 -1.253906,0 -2.214844,1.0898437 -2.214844,2.3320312 0,1.2890625 1.03125,2.23828125 2.203125,2.23828125 1.207031,0 2.203125,-0.97265625 2.203125,-2.23828125 z m -2.191406,1.9921875 c -0.433594,0 -0.867188,-0.2109375 -1.136719,-0.66796875 -0.257812,-0.43359375 -0.257812,-1.04296875 -0.257812,-1.40624995 0,-0.3867188 0,-0.9257813 0.246093,-1.359375 0.269532,-0.4570313 0.738282,-0.6679688 1.136719,-0.6679688 0.433594,0 0.867188,0.2226563 1.125,0.6445313 0.257813,0.4335937 0.257813,1.0078125 0.257813,1.3828125 0,0.3632812 0,0.9023437 -0.222657,1.33593745 -0.222656,0.4453125 -0.65625,0.73828125 -1.148437,0.73828125 z m 4.148437,-3.1640625 V -4.40725 l -1.382812,0.1171875 v 0.3046875 c 0.691406,0 0.773437,0.070312 0.773437,0.5625 v 2.66015625 c 0,0.45703125 -0.105468,0.45703125 -0.773437,0.45703125 V -0.001 c 0.386719,-0.01171875 0.855469,-0.03515625 1.136719,-0.03515625 0.398437,0 0.867187,0 1.265625,0.03515625 v -0.3046875 h -0.210938 c -0.738281,0 -0.761719,-0.1171875 -0.761719,-0.46875 v -1.5351562 c 0,-0.984375 0.421875,-1.875 1.183594,-1.875 0.05859,0 0.08203,0 0.105469,0.011719 -0.03516,0.011719 -0.234375,0.1289063 -0.234375,0.3867188 0,0.28125 0.210937,0.4335937 0.433594,0.4335937 0.175781,0 0.421875,-0.1289062 0.421875,-0.4453125 0,-0.3164062 -0.304688,-0.609375 -0.726563,-0.609375 -0.738281,0 -1.089844,0.6679688 -1.230469,1.1015622 z M -1.7873672,14.34568 c 0,-0.03516 0,-0.04687 -0.1640625,-0.222657 -1.2421875,-1.253906 -1.5703125,-3.128906 -1.5703125,-4.6640621 0,-1.7226562 0.3867188,-3.4570312 1.6054688,-4.7109375 0.1289062,-0.1171875 0.1289062,-0.1289062 0.1289062,-0.1640625 0,-0.070312 -0.035156,-0.1054687 -0.09375,-0.1054687 -0.1054687,0 -0.9960937,0.6796875 -1.5820312,1.9453125 -0.515625,1.1015625 -0.6328125,2.203125 -0.6328125,3.0351562 0,0.7851561 0.1171875,1.9921871 0.65625,3.1171871 0.5976562,1.21875 1.453125,1.875 1.5585937,1.875 0.058594,0 0.09375,-0.03516 0.09375,-0.105468 z M 2.2761094,8.0878672 0.99876563,7.7831797 c -0.62109375,-0.1523438 -1.0078125,-0.6914063 -1.0078125,-1.265625 0,-0.703125 0.5390625,-1.3007813 1.31249997,-1.3007813 1.6640625,0 1.8867188,1.6289063 1.9453125,2.0742188 0.011719,0.058594 0.011719,0.1171875 0.1171875,0.1171875 0.1289063,0 0.1289063,-0.046875 0.1289063,-0.234375 V 5.1698984 c 0,-0.1640625 0,-0.234375 -0.1054688,-0.234375 -0.070312,0 -0.082031,0.011719 -0.1523437,0.1289063 l -0.3515625,0.5625 c -0.2929688,-0.28125 -0.703125,-0.6914063 -1.59375,-0.6914063 -1.10156252,0 -1.93359377,0.8789063 -1.93359377,1.9335938 0,0.8203125 0.52734375,1.546875 1.30078125,1.8164062 0.10546875,0.046875 0.62109372,0.1640625 1.31250002,0.328125 0.2695312,0.070312 0.5742187,0.140625 0.84375,0.515625 0.2109375,0.2578125 0.3164062,0.5859376 0.3164062,0.9140626 0,0.703125 -0.5039062,1.417969 -1.3359375,1.417969 -0.2929687,0 -1.04296872,-0.04687 -1.57031247,-0.539063 -0.5859375,-0.527344 -0.609375,-1.171875 -0.62109375,-1.5234373 -0.0117188,-0.1054688 -0.09375,-0.1054688 -0.1171875,-0.1054688 -0.12890625,0 -0.12890625,0.070312 -0.12890625,0.2460938 v 1.9921873 c 0,0.175781 0,0.246094 0.10546875,0.246094 0.0703125,0 0.0820313,-0.02344 0.15234375,-0.128906 0,-0.01172 0.0234375,-0.04687 0.3515625,-0.574219 0.31640625,0.339844 0.94921875,0.703125 1.83984377,0.703125 1.1601562,0 1.9570312,-0.984375 1.9570312,-2.074219 0,-0.9960936 -0.65625,-1.8164061 -1.4882812,-2.0156248 z M 6.0876328,5.0409922 4.6579453,5.1464609 v 0.3164063 c 0.703125,0 0.7734375,0.070312 0.7734375,0.5507812 v 5.1796876 c 0,0.457031 -0.1054687,0.457031 -0.7734375,0.457031 v 0.304688 c 0.328125,-0.01172 0.8554688,-0.03516 1.1015625,-0.03516 0.2578125,0 0.7382813,0.02344 1.1132813,0.03516 v -0.304688 c -0.6679688,0 -0.7851563,0 -0.7851563,-0.457031 z m 4.3271482,6.1523438 c 0.03516,0.398437 0.304688,0.820312 0.773438,0.820312 0.210937,0 0.820312,-0.140625 0.820312,-0.949218 v -0.550782 h -0.246093 v 0.550782 c 0,0.585937 -0.246094,0.644531 -0.363282,0.644531 -0.328125,0 -0.363281,-0.457031 -0.363281,-0.503906 V 9.2128672 c 0,-0.4101563 0,-0.8085938 -0.363281,-1.171875 C 10.285875,7.6542734 9.7936875,7.4902109 9.3132188,7.4902109 c -0.8203125,0 -1.5117188,0.46875 -1.5117188,1.125 0,0.3046875 0.1992188,0.46875 0.4570313,0.46875 0.28125,0 0.46875,-0.1992187 0.46875,-0.4570312 0,-0.1171875 -0.058594,-0.4453125 -0.515625,-0.4570313 0.2695312,-0.3515625 0.7617187,-0.4570312 1.078125,-0.4570312 0.4921875,0 1.0546877,0.3867187 1.0546877,1.2773437 V 9.3534922 C 9.8405625,9.3886484 9.1374375,9.4120859 8.5163438,9.7167734 7.7663438,10.056617 7.52025,10.572242 7.52025,11.005836 c 0,0.808594 0.9609375,1.054687 1.59375,1.054687 0.65625,0 1.113281,-0.398437 1.300781,-0.867187 z m -0.07031,-1.6289063 v 0.9960933 c 0,0.949219 -0.714844,1.289063 -1.1601565,1.289063 -0.4921875,0 -0.9023437,-0.351563 -0.9023437,-0.855469 0,-0.539062 0.421875,-1.3710936 2.0625002,-1.4296873 z m 5.604492,-0.9257813 c 0.08203,-0.234375 0.257812,-0.65625 0.914062,-0.6679687 V 7.6659922 c -0.234375,0.011719 -0.515625,0.023437 -0.75,0.023437 -0.234375,0 -0.691406,-0.023437 -0.867187,-0.023437 v 0.3046875 c 0.375,0.011719 0.480469,0.234375 0.480469,0.4335937 0,0.082031 -0.02344,0.1289063 -0.05859,0.234375 L 14.64818,11.181617 13.534898,8.4042734 c -0.05859,-0.140625 -0.05859,-0.1523437 -0.05859,-0.1757812 0,-0.2578125 0.386718,-0.2578125 0.5625,-0.2578125 V 7.6659922 c -0.292969,0 -0.855469,0.023437 -1.078125,0.023437 -0.269532,0 -0.667969,-0.011719 -0.972657,-0.023437 v 0.3046875 c 0.632813,0 0.667969,0.058594 0.796875,0.3632812 l 1.441407,3.5390621 c 0.05859,0.140625 0.07031,0.1875 0.199218,0.1875 0.128907,0 0.175782,-0.08203 0.210938,-0.1875 z m 1.945312,0.8085938 c 0.05859,-1.4882813 0.902344,-1.734375 1.242188,-1.734375 1.019531,0 1.125,1.3476562 1.125,1.734375 z m -0.01172,0.2109375 h 2.789062 c 0.210938,0 0.246094,0 0.246094,-0.2109375 0,-0.984375 -0.539063,-1.9570313 -1.78125,-1.9570313 -1.160156,0 -2.074219,1.03125 -2.074219,2.2734375 0,1.3359376 1.042969,2.2968746 2.191406,2.2968746 1.21875,0 1.664063,-1.101562 1.664063,-1.289062 0,-0.105469 -0.08203,-0.117188 -0.128906,-0.117188 -0.09375,0 -0.117188,0.05859 -0.128907,0.140625 -0.351562,1.019532 -1.253906,1.019532 -1.347656,1.019532 -0.503906,0 -0.902344,-0.292969 -1.125,-0.667969 -0.304687,-0.480469 -0.304687,-1.136719 -0.304687,-1.4882813 z m 9.583008,-4.078125 c 0,-0.234375 0,-0.2578125 -0.234375,-0.2578125 -0.609375,0.6328125 -1.488282,0.6328125 -1.804688,0.6328125 v 0.3164062 c 0.199219,0 0.785156,0 1.300781,-0.2578125 v 5.1562496 c 0,0.351563 -0.03516,0.480469 -0.925781,0.480469 h -0.316406 v 0.304688 c 0.351562,-0.03516 1.207031,-0.03516 1.605469,-0.03516 0.398437,0 1.265625,0 1.617187,0.03516 v -0.304688 h -0.316406 c -0.902344,0 -0.925781,-0.117187 -0.925781,-0.480469 z m 4.933593,3.8789062 c 0,-0.7734375 -0.117187,-1.9804687 -0.65625,-3.1054687 -0.597656,-1.21875 -1.464843,-1.875 -1.558593,-1.875 -0.05859,0 -0.105469,0.046875 -0.105469,0.1054687 0,0.035156 0,0.046875 0.199219,0.234375 0.972656,0.984375 1.535156,2.5664063 1.535156,4.640625 0,1.7109371 -0.363281,3.4570311 -1.59375,4.7226561 -0.140625,0.117188 -0.140625,0.128906 -0.140625,0.164063 0,0.05859 0.04687,0.105468 0.105469,0.105468 0.09375,0 0.996093,-0.679687 1.582031,-1.945312 0.503906,-1.101563 0.632812,-2.203125 0.632812,-3.0468751 z m 0,0"
       style="fill:#000000;fill-opacity:1;fill-rule:nonzero;stroke:none"
       aria-label="Sens¨or&#10;(Slave1)"
       transform="matrix(1.3333333,0,0,1.3333333,378.348,280.00133)" />
    <path
       id="path8"
       d="m -141.73404,85.04042 h 340.1617"
       style="fill:none;stroke:#000000;stroke-width:0.3985;stroke-linecap:butt;stroke-linejoin:miter;stroke-miterlimit:10;stroke-dasharray:none;stroke-opacity:1"
       transform="matrix(1.3333333,0,0,-1.3333333,208.24533,322.88933)" />
    <path
       id="path9"
       d="m -141.73404,113.38724 h 340.1617"
       style="fill:none;stroke:#000000;stroke-width:0.3985;stroke-linecap:butt;stroke-linejoin:miter;stroke-miterlimit:10;stroke-dasharray:none;stroke-opacity:1"
       transform="matrix(1.3333333,0,0,-1.3333333,208.24533,322.88933)" />
    <path
       id="path10"
       d="M 3.4803984,-3.8664687 2.2030547,-4.1711562 C 1.5819609,-4.3235 1.1952422,-4.8625625 1.1952422,-5.4367812 c 0,-0.703125 0.5390625,-1.3007813 1.3125,-1.3007813 1.6640625,0 1.8867187,1.6289063 1.9453125,2.0742188 0.011719,0.058594 0.011719,0.1171875 0.1171875,0.1171875 0.1289062,0 0.1289062,-0.046875 0.1289062,-0.234375 v -2.0039063 c 0,-0.1640625 0,-0.234375 -0.1054687,-0.234375 -0.070312,0 -0.082031,0.011719 -0.1523438,0.1289063 l -0.3515625,0.5625 c -0.2929687,-0.28125 -0.703125,-0.6914063 -1.59375,-0.6914063 -1.1015625,0 -1.93359371,0.8789063 -1.93359371,1.9335938 0,0.8203125 0.52734371,1.546875 1.30078121,1.8164062 0.1054688,0.046875 0.6210938,0.1640625 1.3125,0.328125 0.2695313,0.070312 0.5742188,0.140625 0.84375,0.515625 0.2109375,0.2578125 0.3164063,0.5859375 0.3164063,0.9140625 0,0.703125 -0.5039063,1.41796875 -1.3359375,1.41796875 -0.2929688,0 -1.0429688,-0.046875 -1.5703125,-0.5390625 C 0.84367969,-1.1594375 0.82024219,-1.8039687 0.80852344,-2.1555312 0.79680469,-2.261 0.71477344,-2.261 0.69133594,-2.261 c -0.12890625,0 -0.12890625,0.070312 -0.12890625,0.2460938 v 1.99218745 c 0,0.17578125 0,0.24609375 0.10546875,0.24609375 0.0703125,0 0.0820313,-0.0234375 0.15234375,-0.12890625 0,-0.01171875 0.0234375,-0.046875 0.35156251,-0.57421875 0.3164062,0.33984375 0.9492187,0.703125 1.8398437,0.703125 1.1601563,0 1.9570313,-0.984375 1.9570313,-2.0742187 0,-0.9960938 -0.65625,-1.8164063 -1.4882813,-2.015625 z M 5.8856719,-6.807875 v 0.3164063 h 0.234375 c 0.7734375,0 0.7851562,0.1054687 0.7851562,0.46875 v 5.24999995 c 0,0.3515625 -0.011719,0.46875 -0.7851562,0.46875 h -0.234375 v 0.3046875 h 3.6445312 c 1.6757809,0 3.0468749,-1.47656245 3.0468749,-3.35156245 0,-1.8867188 -1.347656,-3.4570313 -3.0468749,-3.4570313 z m 2.3671875,6.50390625 c -0.46875,0 -0.4921875,-0.0703125 -0.4921875,-0.3984375 V -6.0930312 c 0,-0.328125 0.023437,-0.3984375 0.4921875,-0.3984375 h 0.9960937 c 0.6210938,0 1.3007809,0.2109375 1.8164059,0.9257812 0.421875,0.5859375 0.515625,1.4414063 0.515625,2.2148438 0,1.1132812 -0.1875,1.7109375 -0.550781,2.1914062 -0.199219,0.26953125 -0.761719,0.85546875 -1.7695311,0.85546875 z M 16.828055,-6.9367812 C 16.78118,-7.0656875 16.757742,-7.136 16.605398,-7.136 c -0.164062,0 -0.1875,0.058594 -0.246093,0.1992188 l -2.0625,5.9648437 c -0.175782,0.50390625 -0.574219,0.65625 -1.113282,0.66796875 V 7.1875e-4 C 13.417898,-0.011 13.839773,-0.0344375 14.203055,-0.0344375 c 0.304687,0 0.820312,0.0234375 1.148437,0.03515625 v -0.3046875 c -0.503906,0 -0.75,-0.2578125 -0.75,-0.515625 0,-0.0234375 0.01172,-0.12890625 0.02344,-0.140625 L 15.081963,-2.2727187 H 17.5429 l 0.527344,1.52343745 c 0.01172,0.046875 0.02344,0.10546875 0.02344,0.140625 0,0.3046875 -0.550782,0.3046875 -0.820313,0.3046875 v 0.3046875 c 0.351563,-0.03515625 1.054688,-0.03515625 1.429688,-0.03515625 0.433593,0 0.890625,0.01171875 1.300781,0.03515625 v -0.3046875 h -0.175781 c -0.597657,0 -0.738282,-0.0703125 -0.84375,-0.3984375 z m -0.527344,1.125 1.125,3.234375 H 15.18743 Z m 0,0"
       style="fill:#000000;fill-opacity:1;fill-rule:nonzero;stroke:none"
       aria-label="SDA"
       transform="matrix(1.3333333,0,0,1.3333333,43.504,167.01467)" />
    <path
       id="path11"
       d="M 3.4808047,-3.8658125 2.2034609,-4.1705 C 1.5823672,-4.3228437 1.1956484,-4.8619062 1.1956484,-5.436125 c 0,-0.703125 0.5390625,-1.3007812 1.3125,-1.3007812 1.6640625,0 1.8867188,1.6289062 1.9453125,2.0742187 0.011719,0.058594 0.011719,0.1171875 0.1171875,0.1171875 0.1289063,0 0.1289063,-0.046875 0.1289063,-0.234375 v -2.0039062 c 0,-0.1640625 0,-0.234375 -0.1054688,-0.234375 -0.070312,0 -0.082031,0.011719 -0.1523437,0.1289062 l -0.3515625,0.5625 c -0.2929688,-0.28125 -0.703125,-0.6914062 -1.59375,-0.6914062 -1.1015625,0 -1.93359376,0.8789062 -1.93359376,1.9335937 0,0.8203125 0.52734376,1.546875 1.30078126,1.8164063 0.1054687,0.046875 0.6210937,0.1640625 1.3125,0.328125 0.2695312,0.070312 0.5742187,0.140625 0.84375,0.515625 0.2109375,0.2578125 0.3164062,0.5859375 0.3164062,0.9140625 0,0.70312495 -0.5039062,1.4179687 -1.3359375,1.4179687 -0.2929687,0 -1.0429687,-0.046875 -1.5703125,-0.5390625 -0.58593746,-0.5273437 -0.60937496,-1.171875 -0.62109371,-1.5234375 -0.0117188,-0.1054687 -0.09375,-0.1054687 -0.1171875,-0.1054687 -0.12890625,0 -0.12890625,0.070312 -0.12890625,0.2460937 v 1.9921875 c 0,0.17578125 0,0.24609375 0.10546875,0.24609375 0.0703125,0 0.0820313,-0.0234375 0.15234375,-0.12890625 0,-0.01171875 0.0234375,-0.046875 0.35156246,-0.57421875 0.3164063,0.33984375 0.9492188,0.703125 1.8398438,0.703125 1.1601562,0 1.9570312,-0.984375 1.9570312,-2.07421875 0,-0.9960937 -0.65625,-1.8164062 -1.4882812,-2.015625 z m 2.6162109,0.4570313 c 0,2.0625 1.6054688,3.63281245 3.4570313,3.63281245 1.6289061,0 2.6015621,-1.38281245 2.6015621,-2.54296875 0,-0.1054687 0,-0.1757812 -0.128906,-0.1757812 -0.105469,0 -0.105469,0.070312 -0.117187,0.1640625 -0.08203,1.42968745 -1.148438,2.2382812 -2.2265629,2.2382812 -0.609375,0 -2.5664062,-0.33984375 -2.5664062,-3.3046875 0,-2.9765625 1.9453125,-3.3164062 2.5546875,-3.3164062 1.0781246,0 1.9687496,0.9023437 2.1679686,2.3671875 0.02344,0.1289062 0.02344,0.1640625 0.164063,0.1640625 0.152343,0 0.152343,-0.035156 0.152343,-0.234375 v -2.3671875 c 0,-0.1640625 0,-0.234375 -0.105468,-0.234375 -0.03516,0 -0.08203,0 -0.164063,0.1171875 l -0.492187,0.7382812 c -0.375,-0.3632812 -0.878907,-0.8554687 -1.8398441,-0.8554687 -1.8632813,0 -3.4570313,1.5820312 -3.4570313,3.609375 z m 12.4335934,0.84375 h -0.257812 c -0.105469,1.0078125 -0.246094,2.2617187 -1.992188,2.2617187 h -0.820312 c -0.46875,0 -0.492188,-0.0703125 -0.492188,-0.3984375 v -5.3085937 c 0,-0.3398438 0,-0.4804688 0.949219,-0.4804688 h 0.328125 v -0.3164062 c -0.363281,0.035156 -1.265625,0.035156 -1.675781,0.035156 -0.386719,0 -1.160156,0 -1.511719,-0.035156 v 0.3164062 h 0.234375 c 0.773438,0 0.796875,0.1054688 0.796875,0.46875 v 5.25 c 0,0.3515625 -0.02344,0.46875 -0.796875,0.46875 H 13.057953 V 0.001375 h 5.191406 z m 0,0"
       style="fill:#000000;fill-opacity:1;fill-rule:nonzero;stroke:none"
       aria-label="SCL"
       transform="matrix(1.3333333,0,0,1.3333333,44.425333,204.81067)" />
    <path
       id="path12"
       d="m 56.69362,170.08086 v -6.80335 m 0,-31.7484 v -6.80333"
       style="fill:none;stroke:#000000;stroke-width:0.3985;stroke-linecap:butt;stroke-linejoin:miter;stroke-miterlimit:10;stroke-dasharray:none;stroke-opacity:1"
       transform="matrix(1.3333333,0,0,-1.3333333,208.24533,322.88933)" />
    <path
       id="path13"
       d="m 56.69362,163.67601 5.95285,-3.07741 -11.90572,-5.35782 11.90572,-5.35781 -11.90572,-5.35781 11.90572,-5.35782 -11.90572,-5.35782 5.95287,-2.6789"
       style="fill:none;stroke:#000000;stroke-width:0.797;stroke-linecap:butt;stroke-linejoin:bevel;stroke-miterlimit:10;stroke-dasharray:none;stroke-opacity:1"
       transform="matrix(1.3333333,0,0,-1.3333333,208.24533,322.88933)" />
    <g
       id="g13"
       aria-label="R&#10;p"
       transform="matrix(1.3333333,0,0,1.3333333,294.71067,129.21333)">
      <path
         id="path14"
         d="m 3.7384844,-6.1160547 c 0.058594,-0.234375 0.082031,-0.3398437 0.28125,-0.3632812 0.082031,-0.011719 0.3984375,-0.011719 0.5976562,-0.011719 0.7148438,0 1.8164063,0 1.8164063,0.984375 0,0.3398438 -0.1523438,1.0195313 -0.5507813,1.4179688 -0.2578125,0.2578125 -0.7851562,0.5742187 -1.6757812,0.5742187 H 3.0939531 Z m 1.4296875,2.7304688 c 1.0078125,-0.2226563 2.1914062,-0.9140625 2.1914062,-1.921875 0,-0.8554688 -0.890625,-1.5 -2.203125,-1.5 H 2.3205156 c -0.1992187,0 -0.2929687,0 -0.2929687,0.1992187 0,0.1171875 0.09375,0.1171875 0.28125,0.1171875 0.023437,0 0.2109375,0 0.3867187,0.011719 0.1757813,0.023437 0.2578125,0.035156 0.2578125,0.1640625 0,0.035156 0,0.070312 -0.035156,0.1875 l -1.3359375,5.35546871 c -0.09375,0.38671875 -0.1171875,0.46875 -0.90234378,0.46875 -0.17578125,0 -0.26953125,0 -0.26953125,0.19921875 0,0.10546875 0.1171875,0.10546875 0.140625,0.10546875 0.28125,0 0.97265623,-0.03515625 1.25390623,-0.03515625 0.28125,0 0.984375,0.03515625 1.265625,0.03515625 0.082031,0 0.1992188,0 0.1992188,-0.19921875 0,-0.10546875 -0.09375,-0.10546875 -0.28125,-0.10546875 -0.3632813,0 -0.6445313,0 -0.6445313,-0.1875 0,-0.0585938 0.011719,-0.10546875 0.023437,-0.1640625 l 0.65625,-2.63671871 h 1.1953125 c 0.9023438,0 1.078125,0.5507812 1.078125,0.9023437 0,0.1523438 -0.082031,0.4570313 -0.140625,0.6914063 -0.070312,0.2695312 -0.1523437,0.6445312 -0.1523437,0.84374996 0,1.078125 1.1953125,1.078125 1.3242187,1.078125 0.84375,0 1.1953125,-1.0078125 1.1953125,-1.1484375 0,-0.11718746 -0.1171875,-0.11718746 -0.1171875,-0.11718746 -0.09375,0 -0.1171875,0.0703125 -0.1289062,0.14062496 -0.2578125,0.73828125 -0.6796875,0.90234375 -0.9140625,0.90234375 -0.328125,0 -0.3984375,-0.22265625 -0.3984375,-0.609375 0,-0.3046875 0.058594,-0.82031251 0.1054687,-1.13671871 0.011719,-0.140625 0.035156,-0.328125 0.035156,-0.46875 0,-0.7617188 -0.6679688,-1.078125 -0.9374994,-1.1718752 z m 0,0"
         style="fill:#000000;fill-opacity:1;fill-rule:nonzero;stroke:none" />
      <path
         id="path15"
         d="m 9.7677812,2.4562109 h -0.46875 v -1.21875 c 0.1757813,0.1171875 0.515625,0.3046875 1.0078128,0.3046875 1.195312,0 1.933593,-0.67968746 1.933593,-1.60546871 0,-0.84375 -0.609375,-1.58203129 -1.792968,-1.58203129 -0.363282,0 -0.7851565,0.070312 -1.1953128,0.328125 v -0.328125 l -1.3007812,0.058594 v 0.3867187 c 0.1171875,0 0.2578125,0 0.3398437,0.023437 0.1289063,0.011719 0.1289063,0.09375 0.1289063,0.22265629 V 2.4562109 h -0.46875 v 0.3867188 c 0,0 0.5742187,-0.023437 0.9023437,-0.023437 0.3398438,0 0.9023438,0.023437 0.9140625,0.023437 z m -0.46875,-3.18749996 c 0,-0.140625 0.011719,-0.140625 0.1054688,-0.234375 0.3398437,-0.29296874 0.75,-0.31640624 0.890625,-0.31640624 0.597656,0 0.972656,0.46874999 0.972656,1.21874999 0,0.9140625 -0.527344,1.27734371 -1.054687,1.27734371 -0.527344,0 -0.8320315,-0.37499996 -0.9140628,-0.49218746 z m 0,0"
         style="fill:#000000;fill-opacity:1;fill-rule:nonzero;stroke:none" />
    </g>
    <path
       id="path16"
       d="m 113.38724,170.08086 v -6.80335 m 0,-31.7484 v -6.80333"
       style="fill:none;stroke:#000000;stroke-width:0.3985;stroke-linecap:butt;stroke-linejoin:miter;stroke-miterlimit:10;stroke-dasharray:none;stroke-opacity:1"
       transform="matrix(1.3333333,0,0,-1.3333333,208.24533,322.88933)" />
    <path
       id="path17"
       d="m 113.38724,163.67601 5.95285,-3.07741 -11.9057,-5.35782 11.9057,-5.35781 -11.9057,-5.35781 11.9057,-5.35782 -11.9057,-5.35782 5.95285,-2.6789"
       style="fill:none;stroke:#000000;stroke-width:0.797;stroke-linecap:butt;stroke-linejoin:bevel;stroke-miterlimit:10;stroke-dasharray:none;stroke-opacity:1"
       transform="matrix(1.3333333,0,0,-1.3333333,208.24533,322.88933)" />
    <g
       id="g17"
       aria-label="R&#10;p"
       transform="matrix(1.3333333,0,0,1.3333333,370.30133,129.21333)">
      <path
         id="path18"
         d="m 3.7378672,-6.1160547 c 0.058594,-0.234375 0.082031,-0.3398437 0.28125,-0.3632812 0.082031,-0.011719 0.3984375,-0.011719 0.5976562,-0.011719 0.7148438,0 1.8164063,0 1.8164063,0.984375 0,0.3398438 -0.1523438,1.0195313 -0.5507813,1.4179688 -0.2578125,0.2578125 -0.7851562,0.5742187 -1.6757812,0.5742187 H 3.0933359 Z m 1.4296875,2.7304688 c 1.0078125,-0.2226563 2.1914062,-0.9140625 2.1914062,-1.921875 0,-0.8554688 -0.890625,-1.5 -2.203125,-1.5 H 2.3198984 c -0.1992187,0 -0.2929687,0 -0.2929687,0.1992187 0,0.1171875 0.09375,0.1171875 0.28125,0.1171875 0.023437,0 0.2109375,0 0.3867187,0.011719 0.1757813,0.023437 0.2578125,0.035156 0.2578125,0.1640625 0,0.035156 0,0.070312 -0.035156,0.1875 l -1.3359375,5.35546871 c -0.09375,0.38671875 -0.1171875,0.46875 -0.90234376,0.46875 -0.17578125,0 -0.26953125,0 -0.26953125,0.19921875 0,0.10546875 0.1171875,0.10546875 0.140625,0.10546875 0.28125,0 0.97265621,-0.03515625 1.25390621,-0.03515625 0.28125,0 0.984375,0.03515625 1.265625,0.03515625 0.082031,0 0.1992188,0 0.1992188,-0.19921875 0,-0.10546875 -0.09375,-0.10546875 -0.28125,-0.10546875 -0.3632813,0 -0.6445313,0 -0.6445313,-0.1875 0,-0.0585938 0.011719,-0.10546875 0.023437,-0.1640625 l 0.65625,-2.63671871 h 1.1953125 c 0.9023438,0 1.078125,0.5507812 1.078125,0.9023437 0,0.1523438 -0.082031,0.4570313 -0.140625,0.6914063 -0.070312,0.2695312 -0.1523437,0.6445312 -0.1523437,0.84374996 0,1.078125 1.1953125,1.078125 1.3242187,1.078125 0.84375,0 1.1953125,-1.0078125 1.1953125,-1.1484375 0,-0.11718746 -0.1171875,-0.11718746 -0.1171875,-0.11718746 -0.09375,0 -0.1171875,0.0703125 -0.1289062,0.14062496 -0.2578125,0.73828125 -0.6796875,0.90234375 -0.9140625,0.90234375 -0.328125,0 -0.3984375,-0.22265625 -0.3984375,-0.609375 0,-0.3046875 0.058594,-0.82031251 0.1054687,-1.13671871 0.011719,-0.140625 0.035156,-0.328125 0.035156,-0.46875 0,-0.7617188 -0.6679688,-1.078125 -0.9374994,-1.1718752 z m 0,0"
         style="fill:#000000;fill-opacity:1;fill-rule:nonzero;stroke:none" />
      <path
         id="path19"
         d="m 9.7671641,2.4562109 h -0.46875 v -1.21875 c 0.1757812,0.1171875 0.515625,0.3046875 1.0078129,0.3046875 1.195312,0 1.933593,-0.67968746 1.933593,-1.60546871 0,-0.84375 -0.609375,-1.58203129 -1.792968,-1.58203129 -0.363282,0 -0.7851567,0.070312 -1.1953129,0.328125 v -0.328125 l -1.3007813,0.058594 v 0.3867187 c 0.1171875,0 0.2578125,0 0.3398438,0.023437 0.1289062,0.011719 0.1289062,0.09375 0.1289062,0.22265629 V 2.4562109 h -0.46875 v 0.3867188 c 0,0 0.5742188,-0.023437 0.9023438,-0.023437 0.3398437,0 0.9023437,0.023437 0.9140625,0.023437 z m -0.46875,-3.18749996 c 0,-0.140625 0.011719,-0.140625 0.1054687,-0.234375 0.3398438,-0.29296874 0.7500002,-0.31640624 0.8906252,-0.31640624 0.597656,0 0.972656,0.46874999 0.972656,1.21874999 0,0.9140625 -0.527344,1.27734371 -1.054687,1.27734371 -0.5273442,0 -0.8320317,-0.37499996 -0.9140629,-0.49218746 z m 0,0"
         style="fill:#000000;fill-opacity:1;fill-rule:nonzero;stroke:none" />
    </g>
    <path
       id="path20"
       d="m 113.38724,117.35571 v -2.38111 c 0.87668,0 1.58736,-0.71068 1.58736,-1.58736 0,-0.8767 -0.71068,-1.58737 -1.58736,-1.58737 v -2.38111"
       style="fill:none;stroke:#000000;stroke-width:0.3985;stroke-linecap:butt;stroke-linejoin:bevel;stroke-miterlimit:10;stroke-dasharray:none;stroke-opacity:1"
       transform="matrix(1.3333333,0,0,-1.3333333,208.24533,322.88933)" />
    <path
       id="path21"
       d="m 117.35571,113.38724 h -1.98423 m -0.79371,0 h -5.15901"
       style="fill:none;stroke:#000000;stroke-width:0.3985;stroke-linecap:butt;stroke-linejoin:bevel;stroke-miterlimit:10;stroke-dasharray:none;stroke-opacity:1"
       transform="matrix(1.3333333,0,0,-1.3333333,208.24533,322.88933)" />
    <path
       id="path22"
       d="m 113.38724,124.72578 v 0 -7.37002"
       style="fill:none;stroke:#000000;stroke-width:0.3985;stroke-linecap:butt;stroke-linejoin:miter;stroke-miterlimit:10;stroke-dasharray:none;stroke-opacity:1"
       transform="matrix(1.3333333,0,0,-1.3333333,208.24533,322.88933)" />
    <path
       id="path23"
       d="m 113.38724,109.4187 v 0 -24.37828"
       style="fill:none;stroke:#000000;stroke-width:0.3985;stroke-linecap:butt;stroke-linejoin:miter;stroke-miterlimit:10;stroke-dasharray:none;stroke-opacity:1"
       transform="matrix(1.3333333,0,0,-1.3333333,208.24533,322.88933)" />
    <path
       id="path24"
       d="m 56.69362,124.72578 v 0 -11.33854"
       style="fill:none;stroke:#000000;stroke-width:0.3985;stroke-linecap:butt;stroke-linejoin:miter;stroke-miterlimit:10;stroke-dasharray:none;stroke-opacity:1"
       transform="matrix(1.3333333,0,0,-1.3333333,208.24533,322.88933)" />
    <path
       id="path25"
       d="m -85.04042,85.04042 v 0 -28.3468"
       style="fill:none;stroke:#000000;stroke-width:0.3985;stroke-linecap:butt;stroke-linejoin:miter;stroke-miterlimit:10;stroke-dasharray:none;stroke-opacity:1"
       transform="matrix(1.3333333,0,0,-1.3333333,208.24533,322.88933)" />
    <path
       id="path26"
       d="m -56.69362,89.0089 v -2.38112 c 0.87669,0 1.58737,-0.71068 1.58737,-1.58736 0,-0.87668 -0.71068,-1.58736 -1.58737,-1.58736 v -2.38111"
       style="fill:none;stroke:#000000;stroke-width:0.3985;stroke-linecap:butt;stroke-linejoin:bevel;stroke-miterlimit:10;stroke-dasharray:none;stroke-opacity:1"
       transform="matrix(1.3333333,0,0,-1.3333333,208.24533,322.88933)" />
    <path
       id="path27"
       d="m -52.72513,85.04042 h -1.98425 m -0.79369,0 h -5.15903"
       style="fill:none;stroke:#000000;stroke-width:0.3985;stroke-linecap:butt;stroke-linejoin:bevel;stroke-miterlimit:10;stroke-dasharray:none;stroke-opacity:1"
       transform="matrix(1.3333333,0,0,-1.3333333,208.24533,322.88933)" />
    <path
       id="path28"
       d="m -56.69362,89.00894 v 0 24.3783"
       style="fill:none;stroke:#000000;stroke-width:0.3985;stroke-linecap:butt;stroke-linejoin:miter;stroke-miterlimit:10;stroke-dasharray:none;stroke-opacity:1"
       transform="matrix(1.3333333,0,0,-1.3333333,208.24533,322.88933)" />
    <path
       id="path29"
       d="M -56.69362,81.07188 V 56.69362"
       style="fill:none;stroke:#000000;stroke-width:0.3985;stroke-linecap:butt;stroke-linejoin:miter;stroke-miterlimit:10;stroke-dasharray:none;stroke-opacity:1"
       transform="matrix(1.3333333,0,0,-1.3333333,208.24533,322.88933)" />
    <path
       id="path30"
       d="m 42.5202,56.69362 v 28.3468"
       style="fill:none;stroke:#000000;stroke-width:0.3985;stroke-linecap:butt;stroke-linejoin:miter;stroke-miterlimit:10;stroke-dasharray:none;stroke-opacity:1"
       transform="matrix(1.3333333,0,0,-1.3333333,208.24533,322.88933)" />
    <path
       id="path31"
       d="m 14.17339,89.0089 v -2.38112 c 0.87669,0 1.58737,-0.71068 1.58737,-1.58736 0,-0.87668 -0.71068,-1.58736 -1.58737,-1.58736 v -2.38111"
       style="fill:none;stroke:#000000;stroke-width:0.3985;stroke-linecap:butt;stroke-linejoin:bevel;stroke-miterlimit:10;stroke-dasharray:none;stroke-opacity:1"
       transform="matrix(1.3333333,0,0,-1.3333333,208.24533,322.88933)" />
    <path
       id="path32"
       d="m 18.14186,85.04042 h -1.98424 m -0.79368,0 h -5.15903"
       style="fill:none;stroke:#000000;stroke-width:0.3985;stroke-linecap:butt;stroke-linejoin:bevel;stroke-miterlimit:10;stroke-dasharray:none;stroke-opacity:1"
       transform="matrix(1.3333333,0,0,-1.3333333,208.24533,322.88933)" />
    <path
       id="path33"
       d="m 155.90744,89.0089 v -2.38112 c 0.87668,0 1.58736,-0.71068 1.58736,-1.58736 0,-0.87668 -0.71068,-1.58736 -1.58736,-1.58736 v -2.38111"
       style="fill:none;stroke:#000000;stroke-width:0.3985;stroke-linecap:butt;stroke-linejoin:bevel;stroke-miterlimit:10;stroke-dasharray:none;stroke-opacity:1"
       transform="matrix(1.3333333,0,0,-1.3333333,208.24533,322.88933)" />
    <path
       id="path34"
       d="m 159.87592,85.04042 h -1.98424 m -0.7937,0 h -5.15902"
       style="fill:none;stroke:#000000;stroke-width:0.3985;stroke-linecap:butt;stroke-linejoin:bevel;stroke-miterlimit:10;stroke-dasharray:none;stroke-opacity:1"
       transform="matrix(1.3333333,0,0,-1.3333333,208.24533,322.88933)" />
    <path
       id="path35"
       d="m 14.17339,89.00894 v 0 24.3783"
       style="fill:none;stroke:#000000;stroke-width:0.3985;stroke-linecap:butt;stroke-linejoin:miter;stroke-miterlimit:10;stroke-dasharray:none;stroke-opacity:1"
       transform="matrix(1.3333333,0,0,-1.3333333,208.24533,322.88933)" />
    <path
       id="path36"
       d="m 14.17339,81.07188 v 0 -24.37826"
       style="fill:none;stroke:#000000;stroke-width:0.3985;stroke-linecap:butt;stroke-linejoin:miter;stroke-miterlimit:10;stroke-dasharray:none;stroke-opacity:1"
       transform="matrix(1.3333333,0,0,-1.3333333,208.24533,322.88933)" />
    <path
       id="path37"
       d="m 127.56062,85.04042 v 0 -28.3468"
       style="fill:none;stroke:#000000;stroke-width:0.3985;stroke-linecap:butt;stroke-linejoin:miter;stroke-miterlimit:10;stroke-dasharray:none;stroke-opacity:1"
       transform="matrix(1.3333333,0,0,-1.3333333,208.24533,322.88933)" />
    <path
       id="path38"
       d="m 155.90744,81.07188 v 0 -24.37826"
       style="fill:none;stroke:#000000;stroke-width:0.3985;stroke-linecap:butt;stroke-linejoin:miter;stroke-miterlimit:10;stroke-dasharray:none;stroke-opacity:1"
       transform="matrix(1.3333333,0,0,-1.3333333,208.24533,322.88933)" />
    <path
       id="path39"
       d="m 155.90744,89.00894 v 0 24.3783"
       style="fill:none;stroke:#000000;stroke-width:0.3985;stroke-linecap:butt;stroke-linejoin:miter;stroke-miterlimit:10;stroke-dasharray:none;stroke-opacity:1"
       transform="matrix(1.3333333,0,0,-1.3333333,208.24533,322.88933)" />
    <path
       id="path40"
       d="M 0,184.25424 H 170.08086"
       style="fill:none;stroke:#000000;stroke-width:0.3985;stroke-linecap:butt;stroke-linejoin:miter;stroke-miterlimit:10;stroke-dasharray:none;stroke-opacity:1"
       transform="matrix(1.3333333,0,0,-1.3333333,208.24533,322.88933)" />
    <path
       id="path41"
       d="m 113.38724,170.08086 v 0 14.17338"
       style="fill:none;stroke:#000000;stroke-width:0.3985;stroke-linecap:butt;stroke-linejoin:miter;stroke-miterlimit:10;stroke-dasharray:none;stroke-opacity:1"
       transform="matrix(1.3333333,0,0,-1.3333333,208.24533,322.88933)" />
    <path
       id="path42"
       d="m 56.69362,170.08086 v 0 14.17338"
       style="fill:none;stroke:#000000;stroke-width:0.3985;stroke-linecap:butt;stroke-linejoin:miter;stroke-miterlimit:10;stroke-dasharray:none;stroke-opacity:1"
       transform="matrix(1.3333333,0,0,-1.3333333,208.24533,322.88933)" />
    <path
       id="path43"
       d="m 81.07195,204.77724 3.96847,5.55584 3.96848,-5.55584"
       style="fill:none;stroke:#000000;stroke-width:0.797;stroke-linecap:butt;stroke-linejoin:miter;stroke-miterlimit:10;stroke-dasharray:none;stroke-opacity:1"
       transform="matrix(1.3333333,0,0,-1.3333333,208.24533,322.88933)" />
    <path
       id="path44"
       d="m 85.04042,198.42766 v 11.90542"
       style="fill:none;stroke:#000000;stroke-width:0.3985;stroke-linecap:butt;stroke-linejoin:miter;stroke-miterlimit:10;stroke-dasharray:none;stroke-opacity:1"
       transform="matrix(1.3333333,0,0,-1.3333333,208.24533,322.88933)" />
    <g
       id="g44"
       aria-label="+V&#10;cc&#10;=+5V"
       transform="matrix(1.3333333,0,0,1.3333333,284.81867,32.618667)">
      <path
         id="path45"
         d="m 4.0793594,-2.2979844 h 2.7773437 c 0.140625,0 0.328125,0 0.328125,-0.1992187 0,-0.1992188 -0.1875,-0.1992188 -0.328125,-0.1992188 H 4.0793594 v -2.7890625 c 0,-0.1289062 0,-0.328125 -0.1992188,-0.328125 -0.1992187,0 -0.1992187,0.1992188 -0.1992187,0.328125 v 2.7890625 H 0.89185937 c -0.140625,0 -0.328125,0 -0.328125,0.1992188 0,0.1992187 0.1875,0.1992187 0.328125,0.1992187 H 3.6809219 v 2.80078128 c 0,0.12890625 0,0.328125 0.1992187,0.328125 0.1992188,0 0.1992188,-0.19921875 0.1992188,-0.328125 z m 0,0"
         style="fill:#000000;fill-opacity:1;fill-rule:nonzero;stroke:none" />
      <path
         id="path46"
         d="m 14.00807,-5.6729844 c 0.480469,-0.7734375 0.902344,-0.8085937 1.277344,-0.8203125 0.117188,-0.011719 0.128906,-0.1875 0.128906,-0.1875 0,-0.082031 -0.05859,-0.1289062 -0.128906,-0.1289062 -0.257812,0 -0.550781,0.035156 -0.820312,0.035156 -0.328125,0 -0.667969,-0.035156 -0.984375,-0.035156 -0.05859,0 -0.1875,0 -0.1875,0.1992187 0,0.1054688 0.08203,0.1171875 0.152343,0.1171875 0.269532,0.011719 0.457032,0.1171875 0.457032,0.328125 0,0.1523438 -0.140625,0.3632813 -0.140625,0.375 l -3.058594,4.86328128 -0.679688,-5.27343748 c 0,-0.1640625 0.222657,-0.2929688 0.679688,-0.2929688 0.140625,0 0.257812,0 0.257812,-0.1992187 0,-0.09375 -0.08203,-0.1171875 -0.140625,-0.1171875 -0.398437,0 -0.8320309,0.035156 -1.2421872,0.035156 -0.1757812,0 -0.3632812,-0.011719 -0.5390625,-0.011719 -0.1875,0 -0.375,-0.023437 -0.5390625,-0.023437 -0.070312,0 -0.1875,0 -0.1875,0.1992187 0,0.1171875 0.082031,0.1171875 0.2460938,0.1171875 0.5507812,0 0.5625,0.082031 0.5976562,0.3398438 l 0.7851563,6.14062498 c 0.035156,0.19921875 0.070313,0.234375 0.1992189,0.234375 0.164062,0 0.199219,-0.0585938 0.28125,-0.1875 z m 0,0"
         style="fill:#000000;fill-opacity:1;fill-rule:nonzero;stroke:none" />
      <path
         id="path47"
         d="m 16.618422,-1.1788437 c -0.257813,0.046875 -0.363281,0.23437495 -0.363281,0.3867187 0,0.1875 0.152343,0.2578125 0.269531,0.2578125 0.164062,0 0.398437,-0.10546875 0.398437,-0.4453125 0,-0.46875 -0.539062,-0.5976562 -0.914062,-0.5976562 -1.042969,0 -2.015625,0.96093745 -2.015625,1.92187495 0,0.609375 0.421875,1.21875005 1.289062,1.21875005 1.183594,0 1.734375,-0.6914063 1.734375,-0.7851563 0,-0.046875 -0.07031,-0.1171875 -0.128906,-0.1171875 -0.03516,0 -0.04687,0.0117188 -0.105469,0.0703125 -0.550781,0.6328125 -1.359375,0.6328125 -1.488281,0.6328125 -0.503906,0 -0.726562,-0.3398437 -0.726562,-0.7734375 0,-0.19921875 0.105468,-0.9609375 0.46875,-1.44140625 0.257812,-0.33984375 0.621093,-0.53906245 0.972656,-0.53906245 0.09375,0 0.433594,0.011719 0.609375,0.2109375 z m 3.55957,0 c -0.257812,0.046875 -0.363281,0.23437495 -0.363281,0.3867187 0,0.1875 0.152344,0.2578125 0.269531,0.2578125 0.164063,0 0.398438,-0.10546875 0.398438,-0.4453125 0,-0.46875 -0.539063,-0.5976562 -0.914063,-0.5976562 -1.042969,0 -2.015625,0.96093745 -2.015625,1.92187495 0,0.609375 0.421875,1.21875005 1.289063,1.21875005 1.183593,0 1.734375,-0.6914063 1.734375,-0.7851563 0,-0.046875 -0.07031,-0.1171875 -0.128907,-0.1171875 -0.03516,0 -0.04687,0.0117188 -0.105468,0.0703125 -0.550782,0.6328125 -1.359375,0.6328125 -1.488282,0.6328125 -0.503906,0 -0.726562,-0.3398437 -0.726562,-0.7734375 0,-0.19921875 0.105469,-0.9609375 0.46875,-1.44140625 0.257812,-0.33984375 0.621094,-0.53906245 0.972656,-0.53906245 0.09375,0 0.433594,0.011719 0.609375,0.2109375 z m 0,0"
         style="fill:#000000;fill-opacity:1;fill-rule:nonzero;stroke:none" />
      <path
         id="path48"
         d="m 30.78932,-3.2589219 c 0.152344,0 0.339844,0 0.339844,-0.1992187 0,-0.1992188 -0.1875,-0.1992188 -0.328125,-0.1992188 h -5.964844 c -0.140625,0 -0.328125,0 -0.328125,0.1992188 0,0.1992187 0.1875,0.1992187 0.339844,0.1992187 z m 0.01172,1.9335938 c 0.140625,0 0.328125,0 0.328125,-0.1992188 0,-0.1992187 -0.1875,-0.1992187 -0.339844,-0.1992187 h -5.941406 c -0.152344,0 -0.339844,0 -0.339844,0.1992187 0,0.1992188 0.1875,0.1992188 0.328125,0.1992188 z m 7.740234,-0.9726563 h 2.777344 c 0.140625,0 0.328125,0 0.328125,-0.1992187 0,-0.1992188 -0.1875,-0.1992188 -0.328125,-0.1992188 h -2.777344 v -2.7890625 c 0,-0.1289062 0,-0.328125 -0.199218,-0.328125 -0.199219,0 -0.199219,0.1992188 -0.199219,0.328125 v 2.7890625 h -2.789063 c -0.140625,0 -0.328125,0 -0.328125,0.1992188 0,0.1992187 0.1875,0.1992187 0.328125,0.1992187 h 2.789063 v 2.80078128 c 0,0.12890625 0,0.328125 0.199219,0.328125 0.199218,0 0.199218,-0.19921875 0.199218,-0.328125 z m 8.147461,0.2929688 c 0,-1.1835938 -0.820312,-2.1796875 -1.898437,-2.1796875 -0.480469,0 -0.902344,0.1640625 -1.265625,0.5039062 v -1.9335937 c 0.199219,0.058594 0.527344,0.1289062 0.84375,0.1289062 1.230469,0 1.933594,-0.9140625 1.933594,-1.0429687 0,-0.058594 -0.03516,-0.1054688 -0.105469,-0.1054688 -0.01172,0 -0.03516,0 -0.08203,0.023437 -0.199219,0.09375 -0.679688,0.2929688 -1.347657,0.2929688 -0.398437,0 -0.855468,-0.070312 -1.324218,-0.28125 -0.08203,-0.023437 -0.105469,-0.023437 -0.128907,-0.023437 -0.09375,0 -0.09375,0.082031 -0.09375,0.234375 v 2.953125 c 0,0.1757812 0,0.2578125 0.140625,0.2578125 0.07031,0 0.08203,-0.035156 0.128907,-0.09375 0.105468,-0.1523438 0.480468,-0.6914063 1.277343,-0.6914063 0.527344,0 0.773438,0.4570313 0.855469,0.6328125 0.152344,0.375 0.175781,0.7617188 0.175781,1.2539063 0,0.3515625 0,0.9492187 -0.234375,1.37109373 -0.246093,0.38671875 -0.609375,0.64453125 -1.066406,0.64453125 -0.726562,0 -1.300781,-0.52734375 -1.464844,-1.11328128 0.02344,0.011719 0.05859,0.011719 0.164063,0.011719 0.328125,0 0.503906,-0.2460938 0.503906,-0.4804688 0,-0.2460937 -0.175781,-0.4921875 -0.503906,-0.4921875 -0.140625,0 -0.480469,0.070312 -0.480469,0.5273438 0,0.85546873 0.679688,1.82812498 1.792969,1.82812498 1.160156,0 2.179687,-0.9609375 2.179687,-2.22656248 z m 0,0"
         style="fill:#000000;fill-opacity:1;fill-rule:nonzero;stroke:none" />
      <path
         id="path49"
         d="m 53.450453,-5.6729844 c 0.480469,-0.7734375 0.902344,-0.8085937 1.277344,-0.8203125 0.117187,-0.011719 0.128906,-0.1875 0.128906,-0.1875 0,-0.082031 -0.05859,-0.1289062 -0.128906,-0.1289062 -0.257813,0 -0.550781,0.035156 -0.820313,0.035156 -0.328125,0 -0.667968,-0.035156 -0.984375,-0.035156 -0.05859,0 -0.1875,0 -0.1875,0.1992187 0,0.1054688 0.08203,0.1171875 0.152344,0.1171875 0.269531,0.011719 0.457031,0.1171875 0.457031,0.328125 0,0.1523438 -0.140625,0.3632813 -0.140625,0.375 l -3.058593,4.86328128 -0.679688,-5.27343748 c 0,-0.1640625 0.222656,-0.2929688 0.679688,-0.2929688 0.140625,0 0.257812,0 0.257812,-0.1992187 0,-0.09375 -0.08203,-0.1171875 -0.140625,-0.1171875 -0.398437,0 -0.832031,0.035156 -1.242187,0.035156 -0.175782,0 -0.363282,-0.011719 -0.539063,-0.011719 -0.1875,0 -0.375,-0.023437 -0.539062,-0.023437 -0.07031,0 -0.1875,0 -0.1875,0.1992187 0,0.1171875 0.08203,0.1171875 0.246093,0.1171875 0.550782,0 0.5625,0.082031 0.597657,0.3398438 l 0.785156,6.14062498 c 0.03516,0.19921875 0.07031,0.234375 0.199219,0.234375 0.164062,0 0.199218,-0.0585938 0.28125,-0.1875 z m 0,0"
         style="fill:#000000;fill-opacity:1;fill-rule:nonzero;stroke:none" />
    </g>
    <path
       id="path50"
       d="M 85.04042,198.42766 V 184.25424"
       style="fill:none;stroke:#000000;stroke-width:0.3985;stroke-linecap:butt;stroke-linejoin:miter;stroke-miterlimit:10;stroke-dasharray:none;stroke-opacity:1"
       transform="matrix(1.3333333,0,0,-1.3333333,208.24533,322.88933)" />
  </g>
</svg>
