<?xml version="1.0" encoding="UTF-8" standalone="no"?>
<!-- Created with Inkscape (http://www.inkscape.org/) -->

<svg
   version="1.1"
   id="svg1"
   width="465.51898"
   height="315.33112"
   viewBox="0 0 465.51899 315.33111"
   sodipodi:docname="ŞEKİL_3_1__Temel_I_C_Donanım_Yapısı.pdf"
   xmlns:inkscape="http://www.inkscape.org/namespaces/inkscape"
   xmlns:sodipodi="http://sodipodi.sourceforge.net/DTD/sodipodi-0.dtd"
   xmlns="http://www.w3.org/2000/svg"
   xmlns:svg="http://www.w3.org/2000/svg">
  <defs
     id="defs1" />
  <sodipodi:namedview
     id="namedview1"
     pagecolor="#ffffff"
     bordercolor="#000000"
     borderopacity="0.25"
     inkscape:showpageshadow="2"
     inkscape:pageopacity="0.0"
     inkscape:pagecheckerboard="0"
     inkscape:deskcolor="#d1d1d1"
     showgrid="false">
    <inkscape:page
       x="0"
       y="0"
       width="465.51898"
       height="315.33112"
       id="page2"
       margin="0"
       bleed="0" />
  </sodipodi:namedview>
  <g
     id="g1"
     inkscape:groupmode="layer"
     inkscape:label="1"
     transform="translate(-13.281588,-13.280245)">
    <path
       id="path1"
       d="M -146.22281,-4.29152 V 232.20682 H 202.91643 V -4.29152 Z"
       style="fill:#ffffff;fill-opacity:1;fill-rule:nonzero;stroke:none"
       transform="matrix(1.3333333,0,0,-1.3333333,208.24533,322.88933)" />
    <path
       id="path2"
       d="m -112.89111,0.49611 h 84.0482 V 56.1975 h -84.0482 z"
       style="fill:#e6ffe6;fill-opacity:1;fill-rule:nonzero;stroke:#000000;stroke-width:0.99628;stroke-linecap:butt;stroke-linejoin:miter;stroke-miterlimit:10;stroke-dasharray:none;stroke-opacity:1"
       transform="matrix(1.3333333,0,0,-1.3333333,208.24533,322.88933)" />
    <path
       id="path3"
       d="M 2.4031016,-6.5872734 C 2.3093516,-6.8099297 2.2859141,-6.8099297 2.0515391,-6.8099297 H 0.36403906 v 0.3164063 h 0.24609375 c 0.76171879,0 0.78515629,0.1054687 0.78515629,0.46875 v 4.9804687 c 0,0.26953126 0,0.73828126 -1.03125004,0.73828126 v 0.3046875 c 0.3515625,-0.01171875 0.84375004,-0.03515625 1.17187504,-0.03515625 0.328125,0 0.8203125,0.0234375 1.1601562,0.03515625 v -0.3046875 c -1.0195312,0 -1.0195312,-0.46875 -1.0195312,-0.73828126 v -5.3671875 h 0.011719 l 2.4023438,6.18750001 c 0.046875,0.12890625 0.09375,0.22265625 0.1992187,0.22265625 0.1054688,0 0.1289063,-0.08203125 0.1757813,-0.1875 L 6.9148203,-6.4935234 h 0.011719 v 5.71874996 c 0,0.3515625 -0.023437,0.46875 -0.7851563,0.46875 H 5.8952891 v 0.3046875 c 0.375,-0.03515625 1.0429687,-0.03515625 1.4414062,-0.03515625 0.3867188,0 1.0546875,0 1.4179688,0.03515625 v -0.3046875 h -0.234375 c -0.7734375,0 -0.7851563,-0.1171875 -0.7851563,-0.46875 V -6.0247734 c 0,-0.3632813 0.011719,-0.46875 0.7851563,-0.46875 h 0.234375 V -6.8099297 H 7.0788828 c -0.2695312,0 -0.2695312,0.011719 -0.3398437,0.1992188 l -2.1796875,5.6015625 z m 8.4873044,2.1796875 -1.394531,0.1171875 v 0.3046875 c 0.65625,0 0.738281,0.058594 0.738281,0.5507812 v 2.67187501 c 0,0.45703125 -0.105468,0.45703125 -0.7734372,0.45703125 v 0.3046875 c 0.3164062,-0.01171875 0.8554692,-0.03515625 1.1015622,-0.03515625 0.339844,0 0.691407,0.0234375 1.03125,0.03515625 v -0.3046875 c -0.65625,0 -0.703125,-0.0585938 -0.703125,-0.4453125 z m 0.04687,-1.734375 c 0,-0.3164063 -0.246093,-0.5273438 -0.527343,-0.5273438 -0.316407,0 -0.5273442,0.2695313 -0.5273442,0.5273438 0,0.2695312 0.2109372,0.5273437 0.5273442,0.5273437 0.28125,0 0.527343,-0.1992187 0.527343,-0.5273437 z m 2.018555,5.37890621 c 0,0.45703125 -0.105469,0.45703125 -0.773438,0.45703125 v 0.3046875 c 0.328125,-0.01171875 0.796875,-0.03515625 1.078125,-0.03515625 0.304688,0 0.703125,0.01171875 1.101563,0.03515625 v -0.3046875 c -0.667969,0 -0.773438,0 -0.773438,-0.45703125 V -1.7825859 l 0.632813,-0.5507813 c 0.773437,1.0546875 1.183594,1.61718751 1.183594,1.79296876 0,0.1875 -0.164063,0.234375 -0.351563,0.234375 v 0.3046875 c 0.269531,-0.01171875 0.867188,-0.03515625 1.066406,-0.03515625 0.292969,0 0.585938,0.01171875 0.867188,0.03515625 v -0.3046875 c -0.363281,0 -0.585938,0 -0.960938,-0.52734375 l -1.26562,-1.79296871 c -0.01172,-0.011719 -0.05859,-0.070312 -0.05859,-0.1054688 0,-0.035156 0.703125,-0.6328125 0.808593,-0.7148437 0.621094,-0.5039063 1.042969,-0.5273438 1.253907,-0.5390625 v -0.3046875 c -0.292969,0.023437 -0.421875,0.023437 -0.703125,0.023437 -0.351563,0 -0.972657,-0.023437 -1.113282,-0.023437 v 0.3046875 c 0.1875,0.011719 0.292969,0.1171875 0.292969,0.2460937 0,0.1992188 -0.140625,0.3164063 -0.222656,0.3867188 l -1.40625,1.21875 v -4.78125 l -1.429688,0.1054687 v 0.3164063 c 0.691407,0 0.773438,0.070312 0.773438,0.5507812 z M 18.824,-3.3060234 v -1.1015625 l -1.382812,0.1171875 v 0.3046875 c 0.691406,0 0.773437,0.070312 0.773437,0.5625 v 2.66015621 c 0,0.45703125 -0.105469,0.45703125 -0.773437,0.45703125 v 0.3046875 c 0.386718,-0.01171875 0.855468,-0.03515625 1.136718,-0.03515625 0.398438,0 0.867188,0 1.265625,0.03515625 v -0.3046875 h -0.210937 c -0.738281,0 -0.761719,-0.1171875 -0.761719,-0.46875 V -2.3099297 c 0,-0.984375 0.421875,-1.875 1.183594,-1.875 0.05859,0 0.08203,0 0.105469,0.011719 -0.03516,0.011719 -0.234375,0.1289062 -0.234375,0.3867187 0,0.28125 0.210937,0.4335938 0.433593,0.4335938 0.175782,0 0.421875,-0.1289063 0.421875,-0.4453125 0,-0.3164063 -0.304687,-0.609375 -0.726562,-0.609375 -0.738281,0 -1.089844,0.6679687 -1.230469,1.1015623 z m 6.925781,1.171875 c 0,-1.2773438 -0.996093,-2.3320313 -2.191406,-2.3320313 -1.253906,0 -2.214844,1.0898438 -2.214844,2.3320313 0,1.28906246 1.03125,2.23828121 2.203125,2.23828121 1.207032,0 2.203125,-0.97265625 2.203125,-2.23828121 z m -2.191406,1.99218746 c -0.433594,0 -0.867187,-0.2109375 -1.136719,-0.66796875 -0.257812,-0.43359371 -0.257812,-1.04296871 -0.257812,-1.40625001 0,-0.3867187 0,-0.9257812 0.246094,-1.359375 0.269531,-0.4570312 0.738281,-0.6679687 1.136718,-0.6679687 0.433594,0 0.867188,0.2226562 1.125,0.6445312 0.257813,0.4335938 0.257813,1.0078125 0.257813,1.3828125 0,0.3632813 0,0.9023438 -0.222656,1.33593751 -0.222657,0.4453125 -0.65625,0.73828125 -1.148438,0.73828125 z m 6.547852,-0.41015625 v 0.65625 l 1.464843,-0.10546875 v -0.3046875 c -0.703125,0 -0.773437,-0.0703125 -0.773437,-0.5625 V -6.9153984 l -1.441406,0.1054687 v 0.3164063 c 0.703125,0 0.785156,0.070312 0.785156,0.5507812 v 2.15625 c -0.292969,-0.3632812 -0.726563,-0.6210937 -1.265625,-0.6210937 -1.171875,0 -2.214844,0.984375 -2.214844,2.2617187 0,1.26562501 0.972656,2.25000001 2.109375,2.25000001 0.644531,0 1.089844,-0.33984375 1.335938,-0.65625 z m 0,-2.67187501 v 2.0507813 c 0,0.17578121 0,0.19921871 -0.105469,0.36328121 -0.304688,0.48046875 -0.75,0.703125 -1.183594,0.703125 -0.445312,0 -0.796875,-0.2578125 -1.042969,-0.64453125 -0.257812,-0.41015626 -0.292968,-0.97265626 -0.292968,-1.38281246 0,-0.3632813 0.02344,-0.9609375 0.316406,-1.4179688 0.210937,-0.3046875 0.585937,-0.6328125 1.125,-0.6328125 0.351562,0 0.761719,0.1523438 1.078125,0.5976563 0.105469,0.1640625 0.105469,0.1875 0.105469,0.3632812 z m 2.862304,0.7148438 c 0.05859,-1.4882813 0.902344,-1.734375 1.242188,-1.734375 1.019531,0 1.125,1.3476562 1.125,1.734375 z m -0.01172,0.2109375 h 2.789062 c 0.210938,0 0.246094,0 0.246094,-0.2109375 0,-0.984375 -0.539063,-1.9570313 -1.78125,-1.9570313 -1.160156,0 -2.074219,1.03125 -2.074219,2.2734375 0,1.33593751 1.042969,2.29687501 2.191406,2.29687501 1.21875,0 1.664063,-1.1015625 1.664063,-1.28906251 0,-0.1054687 -0.08203,-0.1171875 -0.128906,-0.1171875 -0.09375,0 -0.117188,0.058594 -0.128907,0.140625 -0.351562,1.01953126 -1.253906,1.01953126 -1.347656,1.01953126 -0.503906,0 -0.902344,-0.29296875 -1.125,-0.66796875 C 32.956813,-1.2903984 32.956813,-1.9466484 32.956813,-2.2982109 Z m 4.429687,-1.125 v 2.66015621 c 0,0.45703125 -0.117187,0.45703125 -0.785156,0.45703125 v 0.3046875 c 0.351562,-0.01171875 0.855469,-0.03515625 1.125,-0.03515625 0.257812,0 0.785156,0.0234375 1.113281,0.03515625 v -0.3046875 c -0.65625,0 -0.773437,0 -0.773437,-0.45703125 V -2.5911797 c 0,-1.03125 0.714843,-1.59375 1.347656,-1.59375 0.621094,0 0.738281,0.5390625 0.738281,1.1015625 v 2.32031251 c 0,0.45703125 -0.117187,0.45703125 -0.773437,0.45703125 v 0.3046875 c 0.339843,-0.01171875 0.855468,-0.03515625 1.125,-0.03515625 0.257812,0 0.773437,0.0234375 1.113281,0.03515625 v -0.3046875 c -0.515625,0 -0.773438,0 -0.785156,-0.3046875 V -2.5091484 c 0,-0.8554688 0,-1.171875 -0.304688,-1.5234375 -0.140625,-0.1757813 -0.46875,-0.375 -1.042969,-0.375 -0.726562,0 -1.195312,0.4335937 -1.476562,1.0546875 v -1.0546875 l -1.40625,0.1171875 v 0.3046875 c 0.703125,0 0.785156,0.070312 0.785156,0.5625 z m 5.545898,0.9140625 c 0.05859,-1.4882813 0.902344,-1.734375 1.242188,-1.734375 1.019531,0 1.125,1.3476562 1.125,1.734375 z m -0.01172,0.2109375 h 2.789062 c 0.210938,0 0.246094,0 0.246094,-0.2109375 0,-0.984375 -0.539063,-1.9570313 -1.78125,-1.9570313 -1.160156,0 -2.074219,1.03125 -2.074219,2.2734375 0,1.33593751 1.042969,2.29687501 2.191406,2.29687501 1.21875,0 1.664063,-1.1015625 1.664063,-1.28906251 0,-0.1054687 -0.08203,-0.1171875 -0.128906,-0.1171875 -0.09375,0 -0.117188,0.058594 -0.128907,0.140625 -0.351562,1.01953126 -1.253906,1.01953126 -1.347656,1.01953126 -0.503906,0 -0.902344,-0.29296875 -1.125,-0.66796875 C 42.92068,-1.2903984 42.92068,-1.9466484 42.92068,-2.2982109 Z m 5.047851,-1.6875 h 1.429688 v -0.3046875 h -1.429688 v -1.8398438 h -0.246093 c -0.01172,0.8203125 -0.316407,1.8867188 -1.289063,1.921875 v 0.2226563 h 0.84375 v 2.7539062 c 0,1.21875001 0.925781,1.33593751 1.289063,1.33593751 0.703125,0 0.984375,-0.703125 0.984375,-1.33593751 v -0.5742187 h -0.246094 v 0.5507812 c 0,0.73828126 -0.304688,1.11328126 -0.667969,1.11328126 -0.667969,0 -0.667969,-0.90234376 -0.667969,-1.07812496 z m 3.911133,-2.9296875 -1.429687,0.1054687 v 0.3164063 c 0.703125,0 0.773437,0.070312 0.773437,0.5507812 v 5.17968751 c 0,0.45703125 -0.105469,0.45703125 -0.773437,0.45703125 v 0.3046875 c 0.328125,-0.01171875 0.855468,-0.03515625 1.101562,-0.03515625 0.257813,0 0.738281,0.0234375 1.113281,0.03515625 v -0.3046875 c -0.667968,0 -0.785156,0 -0.785156,-0.45703125 z m 2.121094,4.40625 c 0.05859,-1.4882813 0.902344,-1.734375 1.242187,-1.734375 1.019532,0 1.125,1.3476562 1.125,1.734375 z m -0.01172,0.2109375 h 2.789063 c 0.210937,0 0.246093,0 0.246093,-0.2109375 0,-0.984375 -0.539062,-1.9570313 -1.78125,-1.9570313 -1.160156,0 -2.074218,1.03125 -2.074218,2.2734375 0,1.33593751 1.042968,2.29687501 2.191406,2.29687501 1.21875,0 1.664062,-1.1015625 1.664062,-1.28906251 0,-0.1054687 -0.08203,-0.1171875 -0.128906,-0.1171875 -0.09375,0 -0.117187,0.058594 -0.128906,0.140625 -0.351563,1.01953126 -1.253906,1.01953126 -1.347656,1.01953126 -0.503907,0 -0.902344,-0.29296875 -1.125,-0.66796875 C 53.989039,-1.2903984 53.989039,-1.9466484 53.989039,-2.2982109 Z m 7.464844,-1.0546875 c 0.257812,-0.6210938 0.761719,-0.6328125 0.925781,-0.6328125 v -0.3046875 c -0.234375,0.011719 -0.515625,0.023437 -0.75,0.023437 -0.175781,0 -0.644531,-0.023437 -0.867187,-0.023437 v 0.3046875 c 0.304687,0.011719 0.46875,0.1757812 0.46875,0.4335937 0,0.09375 -0.01172,0.1171875 -0.05859,0.234375 L 60.16482,-0.86852344 59.063258,-3.5521172 c -0.04687,-0.09375 -0.05859,-0.140625 -0.05859,-0.1757812 0,-0.2578125 0.363281,-0.2578125 0.550781,-0.2578125 v -0.3046875 c -0.257812,0 -0.914062,0.023437 -1.078125,0.023437 -0.269531,0 -0.667968,-0.011719 -0.972656,-0.023437 v 0.3046875 c 0.480469,0 0.667969,0 0.808594,0.3515625 l 1.5,3.63281246 c -0.05859,0.12890625 -0.199219,0.45703125 -0.257813,0.5859375 -0.210937,0.55078124 -0.492187,1.24218754 -1.136718,1.24218754 -0.04687,0 -0.269532,0 -0.46875,-0.1875 0.316406,-0.035156 0.398437,-0.2578125 0.398437,-0.4101563 0,-0.26953124 -0.199219,-0.42187499 -0.421875,-0.42187499 -0.199219,0 -0.421875,0.12890625 -0.421875,0.42187499 0,0.4570313 0.421875,0.8085938 0.914063,0.8085938 0.632812,0 1.042968,-0.5625 1.277343,-1.13671879 z m 2.876953,-1.0546875 -1.394531,0.1171875 v 0.3046875 c 0.65625,0 0.738281,0.058594 0.738281,0.5507812 v 2.67187501 c 0,0.45703125 -0.105469,0.45703125 -0.773438,0.45703125 v 0.3046875 c 0.316407,-0.01171875 0.855469,-0.03515625 1.101563,-0.03515625 0.339844,0 0.691406,0.0234375 1.03125,0.03515625 v -0.3046875 c -0.65625,0 -0.703125,-0.0585938 -0.703125,-0.4453125 z m 0.04687,-1.734375 c 0,-0.3164063 -0.246094,-0.5273438 -0.527344,-0.5273438 -0.316406,0 -0.527344,0.2695313 -0.527344,0.5273438 0,0.2695312 0.210938,0.5273437 0.527344,0.5273437 0.28125,0 0.527344,-0.1992187 0.527344,-0.5273437 z m 2.124023,3.9726562 c 0,-1.6289062 0.820313,-2.0507812 1.347657,-2.0507812 0.09375,0 0.714843,0.011719 1.066406,0.375 -0.410156,0.023437 -0.46875,0.328125 -0.46875,0.4570312 0,0.2578125 0.1875,0.4570313 0.457031,0.4570313 0.257813,0 0.457031,-0.1640625 0.457031,-0.46875 0,-0.6796875 -0.75,-1.0664063 -1.523437,-1.0664063 -1.242188,0 -2.15625,1.078125 -2.15625,2.3085938 0,1.27734371 0.984375,2.26171871 2.144531,2.26171871 1.335938,0 1.652344,-1.19531251 1.652344,-1.28906251 0,-0.1054687 -0.105469,-0.1054687 -0.128906,-0.1054687 -0.09375,0 -0.117188,0.046875 -0.128907,0.1054687 -0.292968,0.92578126 -0.9375,1.04296876 -1.3125,1.04296876 -0.527343,0 -1.40625,-0.421875 -1.40625,-2.02734376 z m 5.024414,-2.2382812 -1.394531,0.1171875 v 0.3046875 c 0.65625,0 0.738281,0.058594 0.738281,0.5507812 v 2.67187501 c 0,0.45703125 -0.105468,0.45703125 -0.773437,0.45703125 v 0.3046875 c 0.316406,-0.01171875 0.855469,-0.03515625 1.101562,-0.03515625 0.339844,0 0.691407,0.0234375 1.03125,0.03515625 v -0.3046875 c -0.65625,0 -0.703125,-0.0585938 -0.703125,-0.4453125 z m 0.04687,-1.734375 c 0,-0.3164063 -0.246093,-0.5273438 -0.527343,-0.5273438 -0.316407,0 -0.527344,0.2695313 -0.527344,0.5273438 0,0.2695312 0.210937,0.5273437 0.527344,0.5273437 0.28125,0 0.527343,-0.1992187 0.527343,-0.5273437 z M 20.561305,14.345344 c 0,-0.03516 0,-0.04687 -0.164063,-0.222656 -1.242187,-1.253907 -1.570312,-3.128907 -1.570312,-4.664063 0,-1.7226562 0.386718,-3.4570312 1.605468,-4.7109375 0.128907,-0.1171875 0.128907,-0.1289062 0.128907,-0.1640625 0,-0.070312 -0.03516,-0.1054687 -0.09375,-0.1054687 -0.105469,0 -0.996094,0.6796875 -1.582032,1.9453125 -0.515625,1.1015625 -0.632812,2.203125 -0.632812,3.0351562 0,0.785156 0.117187,1.992188 0.65625,3.117188 0.597656,1.21875 1.453125,1.875 1.558594,1.875 0.05859,0 0.09375,-0.03516 0.09375,-0.105469 z M 23.543727,5.3687813 C 23.449977,5.146125 23.426539,5.146125 23.192164,5.146125 h -1.6875 v 0.3164063 h 0.246094 c 0.761719,0 0.785156,0.1054687 0.785156,0.46875 V 10.91175 c 0,0.269531 0,0.738281 -1.03125,0.738281 v 0.304688 c 0.351563,-0.01172 0.84375,-0.03516 1.171875,-0.03516 0.328125,0 0.820313,0.02344 1.160156,0.03516 v -0.304688 c -1.019531,0 -1.019531,-0.46875 -1.019531,-0.738281 V 5.5445625 h 0.01172 l 2.402344,6.1875005 c 0.04687,0.128906 0.09375,0.222656 0.199218,0.222656 0.105469,0 0.128907,-0.08203 0.175782,-0.1875 l 2.449218,-6.3046877 h 0.01172 v 5.7187497 c 0,0.351563 -0.02344,0.46875 -0.785156,0.46875 h -0.246094 v 0.304688 c 0.375,-0.03516 1.042969,-0.03516 1.441406,-0.03516 0.386719,0 1.054688,0 1.417969,0.03516 v -0.304688 h -0.234375 c -0.773437,0 -0.785156,-0.117187 -0.785156,-0.46875 V 5.9312813 c 0,-0.3632813 0.01172,-0.46875 0.785156,-0.46875 h 0.234375 V 5.146125 H 28.21951 c -0.269531,0 -0.269531,0.011719 -0.339844,0.1992188 L 25.699977,10.946906 Z M 33.592555,11.193 c 0.03516,0.398438 0.304687,0.820313 0.773437,0.820313 0.210938,0 0.820313,-0.140625 0.820313,-0.949219 v -0.550781 h -0.246094 v 0.550781 c 0,0.585937 -0.246094,0.644531 -0.363281,0.644531 -0.328125,0 -0.363282,-0.457031 -0.363282,-0.503906 V 9.2125313 c 0,-0.4101563 0,-0.8085938 -0.363281,-1.171875 C 33.463648,7.6539375 32.971461,7.489875 32.490992,7.489875 c -0.820312,0 -1.511719,0.46875 -1.511719,1.125 0,0.3046875 0.199219,0.46875 0.457032,0.46875 0.28125,0 0.46875,-0.1992187 0.46875,-0.4570312 0,-0.1171875 -0.05859,-0.4453125 -0.515625,-0.4570313 0.269531,-0.3515625 0.761718,-0.4570312 1.078125,-0.4570312 0.492187,0 1.054687,0.3867187 1.054687,1.2773437 v 0.3632813 c -0.503906,0.035156 -1.207031,0.058594 -1.828125,0.3632812 -0.75,0.3398435 -0.996094,0.8554685 -0.996094,1.2890625 0,0.808594 0.960938,1.054688 1.59375,1.054688 0.65625,0 1.113282,-0.398438 1.300782,-0.867188 z m -0.07031,-1.6289062 v 0.9960942 c 0,0.949218 -0.714844,1.289062 -1.160156,1.289062 -0.492188,0 -0.902344,-0.351562 -0.902344,-0.855469 0,-0.539062 0.421875,-1.3710935 2.0625,-1.4296872 z m 3.808594,0.4570312 c 0.222656,0.03516 1.03125,0.199219 1.03125,0.914063 0,0.515625 -0.351563,0.914062 -1.125,0.914062 -0.832031,0 -1.195313,-0.574219 -1.382813,-1.417969 -0.03516,-0.128906 -0.03516,-0.175781 -0.140625,-0.175781 -0.128906,0 -0.128906,0.07031 -0.128906,0.257813 v 1.3125 c 0,0.164062 0,0.234375 0.105469,0.234375 0.05859,0 0.07031,0 0.257812,-0.199219 0.01172,-0.01172 0.01172,-0.03516 0.199219,-0.222656 0.433594,0.421875 0.878906,0.421875 1.089844,0.421875 1.148437,0 1.605469,-0.667969 1.605469,-1.382813 0,-0.527344 -0.292969,-0.8203125 -0.421875,-0.9492187 C 38.092555,9.41175 37.705836,9.3297188 37.283961,9.2594063 36.73318,9.1422188 36.065211,9.0133125 36.065211,8.4390938 c 0,-0.3515625 0.257812,-0.7617188 1.113281,-0.7617188 1.101563,0 1.148438,0.9023438 1.171875,1.2070313 0,0.09375 0.09375,0.09375 0.117188,0.09375 0.128906,0 0.128906,-0.046875 0.128906,-0.2460938 V 7.7359688 c 0,-0.1757813 0,-0.2460938 -0.117188,-0.2460938 -0.04687,0 -0.07031,0 -0.199218,0.1171875 -0.02344,0.046875 -0.128907,0.1289063 -0.164063,0.1640625 -0.375,-0.28125 -0.785156,-0.28125 -0.9375,-0.28125 -1.21875,0 -1.59375,0.6679688 -1.59375,1.2304688 0,0.3398437 0.164063,0.6210937 0.433594,0.84375 0.316406,0.2578125 0.597656,0.3164062 1.3125,0.4570312 z m 3.577148,-2.0507812 h 1.429688 V 7.6656563 H 40.907984 V 5.8258125 h -0.246093 c -0.01172,0.8203125 -0.316407,1.8867188 -1.289063,1.921875 v 0.2226563 h 0.84375 V 10.72425 c 0,1.21875 0.925781,1.335938 1.289063,1.335938 0.703125,0 0.984375,-0.703125 0.984375,-1.335938 v -0.574219 h -0.246094 v 0.550782 c 0,0.738281 -0.304688,1.113281 -0.667969,1.113281 -0.667969,0 -0.667969,-0.902344 -0.667969,-1.078125 z m 3.266602,1.4765625 c 0.05859,-1.4882813 0.902344,-1.734375 1.242187,-1.734375 1.019532,0 1.125,1.3476562 1.125,1.734375 z m -0.01172,0.2109375 h 2.789063 c 0.210937,0 0.246093,0 0.246093,-0.2109375 0,-0.984375 -0.539062,-1.9570313 -1.78125,-1.9570313 -1.160156,0 -2.074218,1.03125 -2.074218,2.2734375 0,1.3359375 1.042968,2.2968755 2.191406,2.2968755 1.21875,0 1.664062,-1.101563 1.664062,-1.289063 0,-0.105469 -0.08203,-0.117187 -0.128906,-0.117187 -0.09375,0 -0.117187,0.05859 -0.128906,0.140625 -0.351563,1.019531 -1.253906,1.019531 -1.347656,1.019531 -0.503907,0 -0.902344,-0.292969 -1.125,-0.667969 -0.304688,-0.480469 -0.304688,-1.136719 -0.304688,-1.4882812 z M 49.152125,8.6500313 V 7.5484688 l -1.382812,0.1171875 v 0.3046875 c 0.691406,0 0.773437,0.070312 0.773437,0.5625 V 11.193 c 0,0.457031 -0.105469,0.457031 -0.773437,0.457031 v 0.304688 c 0.386718,-0.01172 0.855468,-0.03516 1.136718,-0.03516 0.398438,0 0.867188,0 1.265625,0.03516 v -0.304688 h -0.210937 c -0.738281,0 -0.761719,-0.117187 -0.761719,-0.46875 V 9.646125 c 0,-0.984375 0.421875,-1.875 1.183594,-1.875 0.05859,0 0.08203,0 0.105469,0.011719 -0.03516,0.011719 -0.234375,0.1289062 -0.234375,0.3867187 0,0.28125 0.210937,0.4335938 0.433593,0.4335938 0.175782,0 0.421875,-0.1289063 0.421875,-0.4453125 0,-0.3164063 -0.304687,-0.609375 -0.726562,-0.609375 -0.738281,0 -1.089844,0.6679687 -1.230469,1.1015623 z m 5.121094,0.8085937 c 0,-0.7734375 -0.117188,-1.9804687 -0.65625,-3.1054687 -0.597656,-1.21875 -1.464844,-1.875 -1.558594,-1.875 -0.05859,0 -0.105469,0.046875 -0.105469,0.1054687 0,0.035156 0,0.046875 0.199219,0.234375 0.972656,0.984375 1.535156,2.5664063 1.535156,4.640625 0,1.710938 -0.363281,3.457031 -1.59375,4.722656 -0.140625,0.117188 -0.140625,0.128907 -0.140625,0.164063 0,0.05859 0.04687,0.105469 0.105469,0.105469 0.09375,0 0.996094,-0.679688 1.582031,-1.945313 0.503907,-1.101562 0.632813,-2.203125 0.632813,-3.046875 z m 0,0"
       style="fill:#000000;fill-opacity:1;fill-rule:nonzero;stroke:none"
       aria-label="Mikrodenetleyici&#10;(Master)"
       transform="matrix(1.3333333,0,0,1.3333333,65.401333,280.076)" />
    <path
       id="path4"
       d="M 28.84293,0.49611 H 84.54432 V 56.1975 H 28.84293 Z"
       style="fill:#e6e6ff;fill-opacity:1;fill-rule:nonzero;stroke:#000000;stroke-width:0.99628;stroke-linecap:butt;stroke-linejoin:miter;stroke-miterlimit:10;stroke-dasharray:none;stroke-opacity:1"
       transform="matrix(1.3333333,0,0,-1.3333333,208.24533,322.88933)" />
    <path
       id="path5"
       d="m 1.3596797,-0.7744375 c 0,0.3515625 -0.023437,0.46875 -0.79687501,0.46875 h -0.234375 V -0.001 H 6.0823359 L 6.4924922,-2.5674062 H 6.2463984 C 6.0003047,-1.03225 5.7659297,-0.3056875 4.0549922,-0.3056875 H 2.7307734 c -0.46875,0 -0.4921875,-0.0703125 -0.4921875,-0.3984375 v -2.6601562 h 0.9023438 c 0.9609375,0 1.078125,0.3164062 1.078125,1.1601562 H 4.4651484 V -4.8408437 H 4.2190547 c 0,0.8554687 -0.1171875,1.1601562 -1.078125,1.1601562 H 2.2385859 v -2.390625 c 0,-0.328125 0.023437,-0.3984375 0.4921875,-0.3984375 h 1.2890625 c 1.5234375,0 1.7929688,0.5507813 1.9453125,1.9335938 H 6.2112422 L 5.9417109,-6.7744375 H 0.32842969 V -6.46975 h 0.234375 c 0.77343751,0 0.79687501,0.1171875 0.79687501,0.46875 z m 6.7792969,0 c 0,0.3515625 -0.023437,0.46875 -0.796875,0.46875 H 7.1077266 V -0.001 h 5.7539064 l 0.410156,-2.5664062 h -0.246094 c -0.246093,1.5351562 -0.480468,2.2617187 -2.191406,2.2617187 H 9.5100703 c -0.46875,0 -0.4921875,-0.0703125 -0.4921875,-0.3984375 v -2.6601562 h 0.9023438 c 0.9609374,0 1.0781254,0.3164062 1.0781254,1.1601562 h 0.246093 v -2.6367187 h -0.246093 c 0,0.8554687 -0.117188,1.1601562 -1.0781254,1.1601562 H 9.0178828 v -2.390625 c 0,-0.328125 0.023437,-0.3984375 0.4921875,-0.3984375 h 1.2890627 c 1.523437,0 1.792969,0.5507813 1.945312,1.9335938 h 0.246094 L 12.721008,-6.7744375 H 7.1077266 V -6.46975 h 0.234375 c 0.7734375,0 0.796875,0.1171875 0.796875,0.46875 z m 7.6845704,-2.3789062 h 1.6875 c 1.195312,0 2.261719,-0.796875 2.261719,-1.7929688 0,-0.984375 -0.984375,-1.8632812 -2.34375,-1.8632812 h -3.515625 v 0.3164062 h 0.234375 c 0.773437,0 0.785156,0.1054688 0.785156,0.46875 v 5.25 c 0,0.3515625 -0.01172,0.46875 -0.785156,0.46875 H 13.913391 V -0.001 c 0.351562,-0.03515625 1.078125,-0.03515625 1.464843,-0.03515625 0.375,0 1.125,0 1.476563,0.03515625 v -0.3046875 h -0.246094 c -0.761719,0 -0.785156,-0.1171875 -0.785156,-0.46875 z m -0.03516,-0.2578125 V -6.09475 c 0,-0.328125 0.02344,-0.3984375 0.492187,-0.3984375 h 0.890625 c 1.582031,0 1.582031,1.0546875 1.582031,1.546875 0,0.4570313 0,1.5351563 -1.582031,1.5351563 z M 22.567688,-3.516625 V -6.09475 c 0,-0.234375 0,-0.3515625 0.222656,-0.3867187 0.105469,-0.011719 0.386719,-0.011719 0.585937,-0.011719 0.902344,0 2.015625,0.035156 2.015625,1.4765625 0,0.6914063 -0.234375,1.5 -1.710937,1.5 z m 2.109375,0.1289063 c 0.960937,-0.234375 1.746093,-0.84375 1.746093,-1.6289063 0,-0.9492187 -1.136718,-1.7929687 -2.601562,-1.7929687 h -3.128906 v 0.3164062 h 0.234375 c 0.773437,0 0.785156,0.1054688 0.785156,0.46875 v 5.25 c 0,0.3515625 -0.01172,0.46875 -0.785156,0.46875 H 20.692688 V -0.001 c 0.351562,-0.03515625 1.066406,-0.03515625 1.453125,-0.03515625 0.386718,0 1.089843,0 1.453125,0.03515625 v -0.3046875 h -0.234375 c -0.773438,0 -0.796875,-0.1171875 -0.796875,-0.46875 v -2.5195312 h 1.148437 c 0.164063,0 0.574219,0 0.925781,0.3398437 0.386719,0.3515625 0.386719,0.65625 0.386719,1.3242188 0,0.65624995 0,1.05468745 0.398438,1.42968745 0.410156,0.36328125 0.960937,0.421875 1.253906,0.421875 0.785156,0 0.949219,-0.8203125 0.949219,-1.1015625 0,-0.0585938 0,-0.16406245 -0.128907,-0.16406245 -0.105468,0 -0.105468,0.0820312 -0.117187,0.1523437 -0.05859,0.71484375 -0.410156,0.890625 -0.65625,0.890625 -0.492188,0 -0.574219,-0.50390625 -0.703125,-1.4296875 l -0.140625,-0.796875 c -0.175781,-0.6445312 -0.65625,-0.9726562 -1.207031,-1.1601562 z M 34.579406,-3.376 c 0,-2.0390625 -1.5,-3.6445312 -3.316406,-3.6445312 -1.78125,0 -3.304687,1.59375 -3.304687,3.6445312 0,2.0390625 1.535156,3.59765625 3.304687,3.59765625 1.816406,0 3.316406,-1.58203125 3.316406,-3.59765625 z m -3.304687,3.33984375 c -0.960938,0 -2.296875,-0.87890625 -2.296875,-3.48046875 0,-2.578125 1.453125,-3.2578125 2.285156,-3.2578125 0.867188,0 2.285156,0.703125 2.285156,3.2578125 0,2.63671875 -1.359375,3.48046875 -2.273437,3.48046875 z M 37.54718,-6.5869375 c -0.09375,-0.2226562 -0.117188,-0.2226562 -0.351563,-0.2226562 h -1.6875 v 0.3164062 h 0.246094 c 0.761719,0 0.785156,0.1054688 0.785156,0.46875 v 4.9804688 c 0,0.2695312 0,0.7382812 -1.03125,0.7382812 V -0.001 c 0.351563,-0.01171875 0.84375,-0.03515625 1.171875,-0.03515625 0.328125,0 0.820313,0.0234375 1.160156,0.03515625 v -0.3046875 c -1.019531,0 -1.019531,-0.46875 -1.019531,-0.7382812 v -5.3671875 h 0.01172 l 2.402344,6.18749995 C 39.281555,-0.09475 39.32843,-0.001 39.433898,-0.001 c 0.105469,0 0.128907,-0.08203125 0.175782,-0.1875 l 2.449218,-6.3046875 h 0.01172 v 5.71875 c 0,0.3515625 -0.02344,0.46875 -0.785156,0.46875 H 41.039367 V -0.001 c 0.375,-0.03515625 1.042969,-0.03515625 1.441406,-0.03515625 0.386719,0 1.054688,0 1.417969,0.03515625 v -0.3046875 h -0.234375 c -0.773437,0 -0.785156,-0.1171875 -0.785156,-0.46875 v -5.25 c 0,-0.3632812 0.01172,-0.46875 0.785156,-0.46875 h 0.234375 v -0.3164062 h -1.675781 c -0.269531,0 -0.269531,0.011719 -0.339844,0.1992187 L 39.70343,-1.0088125 Z M 6.1995234,14.34568 c 0,-0.03516 0,-0.04687 -0.1640625,-0.222657 -1.2421875,-1.253906 -1.5703125,-3.128906 -1.5703125,-4.6640621 0,-1.7226562 0.3867188,-3.4570312 1.6054688,-4.7109375 0.1289062,-0.1171875 0.1289062,-0.1289062 0.1289062,-0.1640625 0,-0.070312 -0.035156,-0.1054687 -0.09375,-0.1054687 -0.1054687,0 -0.9960937,0.6796875 -1.5820312,1.9453125 -0.515625,1.1015625 -0.6328125,2.203125 -0.6328125,3.0351562 0,0.7851561 0.1171875,1.9921871 0.65625,3.1171871 0.5976562,1.21875 1.453125,1.875 1.5585937,1.875 0.058594,0 0.09375,-0.03516 0.09375,-0.105468 z M 10.26007,8.0878672 8.9827266,7.7831797 C 8.3616328,7.6308359 7.9749141,7.0917734 7.9749141,6.5175547 c 0,-0.703125 0.5390625,-1.3007813 1.3125,-1.3007813 1.6640629,0 1.8867189,1.6289063 1.9453129,2.0742188 0.01172,0.058594 0.01172,0.1171875 0.117187,0.1171875 0.128906,0 0.128906,-0.046875 0.128906,-0.234375 V 5.1698984 c 0,-0.1640625 0,-0.234375 -0.105468,-0.234375 -0.07031,0 -0.08203,0.011719 -0.152344,0.1289063 l -0.351563,0.5625 C 10.576477,5.3456797 10.16632,4.9355234 9.2756953,4.9355234 c -1.1015625,0 -1.9335937,0.8789063 -1.9335937,1.9335938 0,0.8203125 0.5273437,1.546875 1.3007812,1.8164062 0.1054688,0.046875 0.6210938,0.1640625 1.3125,0.328125 0.2695312,0.070312 0.5742192,0.140625 0.8437502,0.515625 0.210937,0.2578125 0.316406,0.5859376 0.316406,0.9140626 0,0.703125 -0.503906,1.417969 -1.3359374,1.417969 -0.2929688,0 -1.0429688,-0.04687 -1.5703125,-0.539063 C 7.6233516,10.794898 7.5999141,10.150367 7.5881953,9.7988047 7.5764766,9.6933359 7.4944453,9.6933359 7.4710078,9.6933359 c -0.1289062,0 -0.1289062,0.070312 -0.1289062,0.2460938 v 1.9921873 c 0,0.175781 0,0.246094 0.1054687,0.246094 0.070312,0 0.082031,-0.02344 0.1523438,-0.128906 0,-0.01172 0.023437,-0.04687 0.3515625,-0.574219 0.3164062,0.339844 0.9492187,0.703125 1.8398437,0.703125 1.1601567,0 1.9570317,-0.984375 1.9570317,-2.074219 0,-0.9960936 -0.65625,-1.8164061 -1.488282,-2.0156248 z m 3.814453,-3.046875 -1.429687,0.1054687 v 0.3164063 c 0.703125,0 0.773437,0.070312 0.773437,0.5507812 v 5.1796876 c 0,0.457031 -0.105468,0.457031 -0.773437,0.457031 v 0.304688 c 0.328125,-0.01172 0.855469,-0.03516 1.101562,-0.03516 0.257813,0 0.738282,0.02344 1.113282,0.03516 v -0.304688 c -0.667969,0 -0.785157,0 -0.785157,-0.457031 z m 4.324219,6.1523438 c 0.03516,0.398437 0.304688,0.820312 0.773438,0.820312 0.210937,0 0.820312,-0.140625 0.820312,-0.949218 v -0.550782 h -0.246094 v 0.550782 c 0,0.585937 -0.246093,0.644531 -0.363281,0.644531 -0.328125,0 -0.363281,-0.457031 -0.363281,-0.503906 V 9.2128672 c 0,-0.4101563 0,-0.8085938 -0.363281,-1.171875 -0.386719,-0.3867188 -0.878907,-0.5507813 -1.359375,-0.5507813 -0.820313,0 -1.511719,0.46875 -1.511719,1.125 0,0.3046875 0.199219,0.46875 0.457031,0.46875 0.28125,0 0.46875,-0.1992187 0.46875,-0.4570312 0,-0.1171875 -0.05859,-0.4453125 -0.515625,-0.4570313 0.269531,-0.3515625 0.761719,-0.4570312 1.078125,-0.4570312 0.492188,0 1.054688,0.3867187 1.054688,1.2773437 v 0.3632813 c -0.503907,0.035156 -1.207032,0.058594 -1.828125,0.3632812 -0.75,0.3398436 -0.996094,0.8554686 -0.996094,1.2890626 0,0.808594 0.960937,1.054687 1.59375,1.054687 0.65625,0 1.113281,-0.398437 1.300781,-0.867187 z M 18.32843,9.5644297 v 0.9960933 c 0,0.949219 -0.714844,1.289063 -1.160157,1.289063 -0.492187,0 -0.902343,-0.351563 -0.902343,-0.855469 0,-0.539062 0.421875,-1.3710936 2.0625,-1.4296873 z m 5.604492,-0.9257813 c 0.08203,-0.234375 0.257812,-0.65625 0.914062,-0.6679687 V 7.6659922 c -0.234375,0.011719 -0.515625,0.023437 -0.75,0.023437 -0.234375,0 -0.691406,-0.023437 -0.867187,-0.023437 v 0.3046875 c 0.375,0.011719 0.480469,0.234375 0.480469,0.4335937 0,0.082031 -0.02344,0.1289063 -0.05859,0.234375 L 22.632141,11.181617 21.518859,8.4042734 c -0.05859,-0.140625 -0.05859,-0.1523437 -0.05859,-0.1757812 0,-0.2578125 0.386718,-0.2578125 0.5625,-0.2578125 V 7.6659922 c -0.292969,0 -0.855469,0.023437 -1.078125,0.023437 -0.269532,0 -0.667969,-0.011719 -0.972657,-0.023437 v 0.3046875 c 0.632813,0 0.667969,0.058594 0.796875,0.3632812 l 1.441407,3.5390621 c 0.05859,0.140625 0.07031,0.1875 0.199218,0.1875 0.128907,0 0.175782,-0.08203 0.210938,-0.1875 z m 1.945312,0.8085938 c 0.05859,-1.4882813 0.902344,-1.734375 1.242188,-1.734375 1.019531,0 1.125,1.3476562 1.125,1.734375 z m -0.01172,0.2109375 h 2.789062 c 0.210938,0 0.246094,0 0.246094,-0.2109375 0,-0.984375 -0.539063,-1.9570313 -1.78125,-1.9570313 -1.160156,0 -2.074219,1.03125 -2.074219,2.2734375 0,1.3359376 1.042969,2.2968746 2.191406,2.2968746 1.21875,0 1.664063,-1.101562 1.664063,-1.289062 0,-0.105469 -0.08203,-0.117188 -0.128906,-0.117188 -0.09375,0 -0.117188,0.05859 -0.128907,0.140625 -0.351562,1.019532 -1.253906,1.019532 -1.347656,1.019532 -0.503906,0 -0.902344,-0.292969 -1.125,-0.667969 -0.304687,-0.480469 -0.304687,-1.136719 -0.304687,-1.4882813 z m 9.583007,-4.078125 c 0,-0.234375 0,-0.2578125 -0.234375,-0.2578125 -0.609375,0.6328125 -1.488281,0.6328125 -1.804687,0.6328125 v 0.3164062 c 0.199219,0 0.785156,0 1.300781,-0.2578125 v 5.1562496 c 0,0.351563 -0.03516,0.480469 -0.925781,0.480469 h -0.316406 v 0.304688 c 0.351562,-0.03516 1.207031,-0.03516 1.605468,-0.03516 0.398438,0 1.265625,0 1.617188,0.03516 v -0.304688 h -0.316406 c -0.902344,0 -0.925782,-0.117187 -0.925782,-0.480469 z m 4.933594,3.8789062 c 0,-0.7734375 -0.117187,-1.9804687 -0.65625,-3.1054687 -0.597656,-1.21875 -1.464844,-1.875 -1.558594,-1.875 -0.05859,0 -0.105468,0.046875 -0.105468,0.1054687 0,0.035156 0,0.046875 0.199218,0.234375 0.972657,0.984375 1.535157,2.5664063 1.535157,4.640625 0,1.7109371 -0.363282,3.4570311 -1.59375,4.7226561 -0.140625,0.117188 -0.140625,0.128906 -0.140625,0.164063 0,0.05859 0.04687,0.105468 0.105468,0.105468 0.09375,0 0.996094,-0.679687 1.582032,-1.945312 0.503906,-1.101563 0.632812,-2.203125 0.632812,-3.0468751 z m 0,0"
       style="fill:#000000;fill-opacity:1;fill-rule:nonzero;stroke:none"
       aria-label="EEPROM&#10;(Slave1)"
       transform="matrix(1.3333333,0,0,1.3333333,254.316,280.00133)" />
    <path
       id="path6"
       d="m 113.88335,0.49611 h 55.70139 V 56.1975 h -55.70139 z"
       style="fill:#e6e6ff;fill-opacity:1;fill-rule:nonzero;stroke:#000000;stroke-width:0.99628;stroke-linecap:butt;stroke-linejoin:miter;stroke-miterlimit:10;stroke-dasharray:none;stroke-opacity:1"
       transform="matrix(1.3333333,0,0,-1.3333333,208.24533,322.88933)" />
    <path
       id="path7"
       d="M 3.4802109,-3.8681875 2.2028672,-4.172875 C 1.5817734,-4.3252187 1.1950547,-4.8642812 1.1950547,-5.4385 c 0,-0.703125 0.5390625,-1.3007812 1.3125,-1.3007812 1.6640625,0 1.8867187,1.6289062 1.9453125,2.0742187 0.011719,0.058594 0.011719,0.1171875 0.1171875,0.1171875 0.1289062,0 0.1289062,-0.046875 0.1289062,-0.234375 v -2.0039062 c 0,-0.1640625 0,-0.234375 -0.1054687,-0.234375 -0.070312,0 -0.082031,0.011719 -0.1523438,0.1289062 l -0.3515625,0.5625 c -0.2929687,-0.28125 -0.703125,-0.6914062 -1.59375,-0.6914062 -1.1015625,0 -1.93359371,0.8789062 -1.93359371,1.9335937 0,0.8203125 0.52734371,1.546875 1.30078121,1.8164063 0.1054688,0.046875 0.6210938,0.1640625 1.3125,0.328125 0.2695313,0.070312 0.5742188,0.140625 0.84375,0.515625 0.2109375,0.2578125 0.3164063,0.5859375 0.3164063,0.9140625 0,0.70312495 -0.5039063,1.4179687 -1.3359375,1.4179687 -0.2929688,0 -1.0429688,-0.046875 -1.5703125,-0.5390625 -0.58593751,-0.5273437 -0.60937501,-1.171875 -0.62109376,-1.5234375 -0.0117188,-0.1054687 -0.09375,-0.1054687 -0.1171875,-0.1054687 -0.12890625,0 -0.12890625,0.070312 -0.12890625,0.2460937 v 1.9921875 c 0,0.17578125 0,0.24609375 0.10546875,0.24609375 0.0703125,0 0.0820313,-0.0234375 0.15234375,-0.12890625 0,-0.01171875 0.0234375,-0.046875 0.35156251,-0.57421875 0.3164062,0.33984375 0.9492187,0.703125 1.8398437,0.703125 1.1601563,0 1.9570313,-0.984375 1.9570313,-2.07421875 0,-0.9960937 -0.65625,-1.8164062 -1.4882813,-2.015625 z m 3.1669922,1.359375 c 0.058594,-1.4882812 0.9023438,-1.734375 1.2421875,-1.734375 1.0195313,0 1.125,1.3476563 1.125,1.734375 z m -0.011719,0.2109375 h 2.7890625 c 0.2109375,0 0.2460937,0 0.2460937,-0.2109375 0,-0.984375 -0.5390625,-1.9570312 -1.78125,-1.9570312 -1.1601562,0 -2.0742187,1.03125 -2.0742187,2.2734375 0,1.33593745 1.0429687,2.29687495 2.1914062,2.29687495 1.21875,0 1.6640625,-1.1015625 1.6640625,-1.28906245 0,-0.1054688 -0.082031,-0.1171875 -0.1289062,-0.1171875 -0.09375,0 -0.1171875,0.058594 -0.1289063,0.140625 -0.3515625,1.0195312 -1.2539062,1.0195312 -1.3476562,1.0195312 -0.5039063,0 -0.9023438,-0.29296875 -1.125,-0.66796875 C 6.6354844,-1.2900625 6.6354844,-1.9463125 6.6354841,-2.297875 Z m 4.4296879,-1.125 v 2.66015625 c 0,0.45703125 -0.117188,0.45703125 -0.785156,0.45703125 V -0.001 c 0.351562,-0.01171875 0.855468,-0.03515625 1.125,-0.03515625 0.257812,0 0.785156,0.0234375 1.113281,0.03515625 v -0.3046875 c -0.65625,0 -0.773438,0 -0.773438,-0.45703125 V -2.5908437 c 0,-1.03125 0.714844,-1.59375 1.347657,-1.59375 0.621093,0 0.738281,0.5390625 0.738281,1.1015625 v 2.32031245 c 0,0.45703125 -0.117188,0.45703125 -0.773438,0.45703125 V -0.001 c 0.339844,-0.01171875 0.855469,-0.03515625 1.125,-0.03515625 0.257813,0 0.773438,0.0234375 1.113282,0.03515625 v -0.3046875 c -0.515625,0 -0.773438,0 -0.785157,-0.3046875 v -1.8984375 c 0,-0.8554687 0,-1.171875 -0.304687,-1.5234375 -0.140625,-0.1757812 -0.46875,-0.375 -1.042969,-0.375 -0.726562,0 -1.195312,0.4335938 -1.476562,1.0546875 V -4.40725 l -1.40625,0.1171875 v 0.3046875 c 0.703125,0 0.785156,0.070312 0.785156,0.5625 z m 6.506836,1.4882813 c 0.222656,0.035156 1.03125,0.1992187 1.03125,0.9140625 0,0.51562495 -0.351563,0.91406245 -1.125,0.91406245 -0.832031,0 -1.195313,-0.57421875 -1.382813,-1.41796875 -0.03516,-0.1289062 -0.03516,-0.1757812 -0.140625,-0.1757812 -0.128906,0 -0.128906,0.070312 -0.128906,0.2578125 v 1.31249995 c 0,0.1640625 0,0.234375 0.105469,0.234375 0.05859,0 0.07031,0 0.257812,-0.19921875 0.01172,-0.01171875 0.01172,-0.03515625 0.199219,-0.22265625 0.433594,0.421875 0.878906,0.421875 1.089844,0.421875 1.148437,0 1.605469,-0.66796875 1.605469,-1.38281245 0,-0.5273438 -0.292969,-0.8203125 -0.421875,-0.9492188 -0.328125,-0.3164062 -0.714844,-0.3984375 -1.136719,-0.46875 -0.550781,-0.1171875 -1.21875,-0.2460937 -1.21875,-0.8203125 0,-0.3515625 0.257812,-0.7617187 1.113281,-0.7617187 1.101563,0 1.148438,0.9023437 1.171875,1.2070312 0,0.09375 0.09375,0.09375 0.117188,0.09375 0.128906,0 0.128906,-0.046875 0.128906,-0.2460937 V -4.21975 c 0,-0.1757812 0,-0.2460937 -0.117188,-0.2460937 -0.04687,0 -0.07031,0 -0.199218,0.1171875 -0.02344,0.046875 -0.128907,0.1289062 -0.164063,0.1640625 -0.375,-0.28125 -0.785156,-0.28125 -0.9375,-0.28125 -1.21875,0 -1.59375,0.6679687 -1.59375,1.2304687 0,0.3398438 0.164063,0.6210938 0.433594,0.84375 0.316406,0.2578125 0.597656,0.3164063 1.3125,0.4570313 z m 3.881836,-4.2304688 c 0,-0.2460937 -0.199219,-0.5039062 -0.503906,-0.5039062 -0.28125,0 -0.492188,0.2226562 -0.492188,0.5039062 0,0.28125 0.210938,0.4921875 0.492188,0.4921875 0.304687,0 0.503906,-0.2578125 0.503906,-0.4921875 z m 1.921875,0 c 0,-0.28125 -0.222656,-0.5039062 -0.503906,-0.5039062 -0.292969,0 -0.492188,0.2578125 -0.492188,0.5039062 0,0.234375 0.199219,0.4921875 0.492188,0.4921875 0.28125,0 0.503906,-0.2109375 0.503906,-0.4921875 z m 0.738281,4.03125 c 0,-1.2773437 -0.996094,-2.3320312 -2.191406,-2.3320312 -1.253906,0 -2.214844,1.0898437 -2.214844,2.3320312 0,1.2890625 1.03125,2.23828125 2.203125,2.23828125 1.207031,0 2.203125,-0.97265625 2.203125,-2.23828125 z m -2.191406,1.9921875 c -0.433594,0 -0.867188,-0.2109375 -1.136719,-0.66796875 -0.257812,-0.43359375 -0.257812,-1.04296875 -0.257812,-1.40624995 0,-0.3867188 0,-0.9257813 0.246093,-1.359375 0.269532,-0.4570313 0.738282,-0.6679688 1.136719,-0.6679688 0.433594,0 0.867188,0.2226563 1.125,0.6445313 0.257813,0.4335937 0.257813,1.0078125 0.257813,1.3828125 0,0.3632812 0,0.9023437 -0.222657,1.33593745 -0.222656,0.4453125 -0.65625,0.73828125 -1.148437,0.73828125 z m 4.148437,-3.1640625 V -4.40725 l -1.382812,0.1171875 v 0.3046875 c 0.691406,0 0.773437,0.070312 0.773437,0.5625 v 2.66015625 c 0,0.45703125 -0.105468,0.45703125 -0.773437,0.45703125 V -0.001 c 0.386719,-0.01171875 0.855469,-0.03515625 1.136719,-0.03515625 0.398437,0 0.867187,0 1.265625,0.03515625 v -0.3046875 h -0.210938 c -0.738281,0 -0.761719,-0.1171875 -0.761719,-0.46875 v -1.5351562 c 0,-0.984375 0.421875,-1.875 1.183594,-1.875 0.05859,0 0.08203,0 0.105469,0.011719 -0.03516,0.011719 -0.234375,0.1289063 -0.234375,0.3867188 0,0.28125 0.210937,0.4335937 0.433594,0.4335937 0.175781,0 0.421875,-0.1289062 0.421875,-0.4453125 0,-0.3164062 -0.304688,-0.609375 -0.726563,-0.609375 -0.738281,0 -1.089844,0.6679688 -1.230469,1.1015622 z M -1.7873672,14.34568 c 0,-0.03516 0,-0.04687 -0.1640625,-0.222657 -1.2421875,-1.253906 -1.5703125,-3.128906 -1.5703125,-4.6640621 0,-1.7226562 0.3867188,-3.4570312 1.6054688,-4.7109375 0.1289062,-0.1171875 0.1289062,-0.1289062 0.1289062,-0.1640625 0,-0.070312 -0.035156,-0.1054687 -0.09375,-0.1054687 -0.1054687,0 -0.9960937,0.6796875 -1.5820312,1.9453125 -0.515625,1.1015625 -0.6328125,2.203125 -0.6328125,3.0351562 0,0.7851561 0.1171875,1.9921871 0.65625,3.1171871 0.5976562,1.21875 1.453125,1.875 1.5585937,1.875 0.058594,0 0.09375,-0.03516 0.09375,-0.105468 z M 2.2761094,8.0878672 0.99876563,7.7831797 c -0.62109375,-0.1523438 -1.0078125,-0.6914063 -1.0078125,-1.265625 0,-0.703125 0.5390625,-1.3007813 1.31249997,-1.3007813 1.6640625,0 1.8867188,1.6289063 1.9453125,2.0742188 0.011719,0.058594 0.011719,0.1171875 0.1171875,0.1171875 0.1289063,0 0.1289063,-0.046875 0.1289063,-0.234375 V 5.1698984 c 0,-0.1640625 0,-0.234375 -0.1054688,-0.234375 -0.070312,0 -0.082031,0.011719 -0.1523437,0.1289063 l -0.3515625,0.5625 c -0.2929688,-0.28125 -0.703125,-0.6914063 -1.59375,-0.6914063 -1.10156252,0 -1.93359377,0.8789063 -1.93359377,1.9335938 0,0.8203125 0.52734375,1.546875 1.30078125,1.8164062 0.10546875,0.046875 0.62109372,0.1640625 1.31250002,0.328125 0.2695312,0.070312 0.5742187,0.140625 0.84375,0.515625 0.2109375,0.2578125 0.3164062,0.5859376 0.3164062,0.9140626 0,0.703125 -0.5039062,1.417969 -1.3359375,1.417969 -0.2929687,0 -1.04296872,-0.04687 -1.57031247,-0.539063 -0.5859375,-0.527344 -0.609375,-1.171875 -0.62109375,-1.5234373 -0.0117188,-0.1054688 -0.09375,-0.1054688 -0.1171875,-0.1054688 -0.12890625,0 -0.12890625,0.070312 -0.12890625,0.2460938 v 1.9921873 c 0,0.175781 0,0.246094 0.10546875,0.246094 0.0703125,0 0.0820313,-0.02344 0.15234375,-0.128906 0,-0.01172 0.0234375,-0.04687 0.3515625,-0.574219 0.31640625,0.339844 0.94921875,0.703125 1.83984377,0.703125 1.1601562,0 1.9570312,-0.984375 1.9570312,-2.074219 0,-0.9960936 -0.65625,-1.8164061 -1.4882812,-2.0156248 z M 6.0876328,5.0409922 4.6579453,5.1464609 v 0.3164063 c 0.703125,0 0.7734375,0.070312 0.7734375,0.5507812 v 5.1796876 c 0,0.457031 -0.1054687,0.457031 -0.7734375,0.457031 v 0.304688 c 0.328125,-0.01172 0.8554688,-0.03516 1.1015625,-0.03516 0.2578125,0 0.7382813,0.02344 1.1132813,0.03516 v -0.304688 c -0.6679688,0 -0.7851563,0 -0.7851563,-0.457031 z m 4.3271482,6.1523438 c 0.03516,0.398437 0.304688,0.820312 0.773438,0.820312 0.210937,0 0.820312,-0.140625 0.820312,-0.949218 v -0.550782 h -0.246093 v 0.550782 c 0,0.585937 -0.246094,0.644531 -0.363282,0.644531 -0.328125,0 -0.363281,-0.457031 -0.363281,-0.503906 V 9.2128672 c 0,-0.4101563 0,-0.8085938 -0.363281,-1.171875 C 10.285875,7.6542734 9.7936875,7.4902109 9.3132188,7.4902109 c -0.8203125,0 -1.5117188,0.46875 -1.5117188,1.125 0,0.3046875 0.1992188,0.46875 0.4570313,0.46875 0.28125,0 0.46875,-0.1992187 0.46875,-0.4570312 0,-0.1171875 -0.058594,-0.4453125 -0.515625,-0.4570313 0.2695312,-0.3515625 0.7617187,-0.4570312 1.078125,-0.4570312 0.4921875,0 1.0546877,0.3867187 1.0546877,1.2773437 V 9.3534922 C 9.8405625,9.3886484 9.1374375,9.4120859 8.5163438,9.7167734 7.7663438,10.056617 7.52025,10.572242 7.52025,11.005836 c 0,0.808594 0.9609375,1.054687 1.59375,1.054687 0.65625,0 1.113281,-0.398437 1.300781,-0.867187 z m -0.07031,-1.6289063 v 0.9960933 c 0,0.949219 -0.714844,1.289063 -1.1601565,1.289063 -0.4921875,0 -0.9023437,-0.351563 -0.9023437,-0.855469 0,-0.539062 0.421875,-1.3710936 2.0625002,-1.4296873 z m 5.604492,-0.9257813 c 0.08203,-0.234375 0.257812,-0.65625 0.914062,-0.6679687 V 7.6659922 c -0.234375,0.011719 -0.515625,0.023437 -0.75,0.023437 -0.234375,0 -0.691406,-0.023437 -0.867187,-0.023437 v 0.3046875 c 0.375,0.011719 0.480469,0.234375 0.480469,0.4335937 0,0.082031 -0.02344,0.1289063 -0.05859,0.234375 L 14.64818,11.181617 13.534898,8.4042734 c -0.05859,-0.140625 -0.05859,-0.1523437 -0.05859,-0.1757812 0,-0.2578125 0.386718,-0.2578125 0.5625,-0.2578125 V 7.6659922 c -0.292969,0 -0.855469,0.023437 -1.078125,0.023437 -0.269532,0 -0.667969,-0.011719 -0.972657,-0.023437 v 0.3046875 c 0.632813,0 0.667969,0.058594 0.796875,0.3632812 l 1.441407,3.5390621 c 0.05859,0.140625 0.07031,0.1875 0.199218,0.1875 0.128907,0 0.175782,-0.08203 0.210938,-0.1875 z m 1.945312,0.8085938 c 0.05859,-1.4882813 0.902344,-1.734375 1.242188,-1.734375 1.019531,0 1.125,1.3476562 1.125,1.734375 z m -0.01172,0.2109375 h 2.789062 c 0.210938,0 0.246094,0 0.246094,-0.2109375 0,-0.984375 -0.539063,-1.9570313 -1.78125,-1.9570313 -1.160156,0 -2.074219,1.03125 -2.074219,2.2734375 0,1.3359376 1.042969,2.2968746 2.191406,2.2968746 1.21875,0 1.664063,-1.101562 1.664063,-1.289062 0,-0.105469 -0.08203,-0.117188 -0.128906,-0.117188 -0.09375,0 -0.117188,0.05859 -0.128907,0.140625 -0.351562,1.019532 -1.253906,1.019532 -1.347656,1.019532 -0.503906,0 -0.902344,-0.292969 -1.125,-0.667969 -0.304687,-0.480469 -0.304687,-1.136719 -0.304687,-1.4882813 z m 7.918945,1.5351563 1.054688,-1.03125 c 1.558593,-1.3710938 2.15625,-1.9101563 2.15625,-2.9062501 0,-1.1367187 -0.902344,-1.9335937 -2.121094,-1.9335937 -1.125,0 -1.851563,0.9140625 -1.851563,1.8046875 0,0.5507812 0.492188,0.5507812 0.527344,0.5507812 0.164063,0 0.515625,-0.1171875 0.515625,-0.5273437 0,-0.2578125 -0.1875,-0.515625 -0.527344,-0.515625 -0.08203,0 -0.105468,0 -0.128906,0.011719 C 25.649156,6.00193 26.188219,5.62693 26.762438,5.62693 c 0.914062,0 1.335937,0.8085937 1.335937,1.6289062 0,0.796875 -0.492187,1.5820313 -1.042969,2.203125 L 25.14525,11.591773 c -0.105469,0.105469 -0.105469,0.128907 -0.105469,0.363282 h 3.691407 l 0.28125,-1.734375 h -0.257813 c -0.04687,0.304687 -0.117187,0.738281 -0.210937,0.890625 -0.07031,0.08203 -0.726563,0.08203 -0.949219,0.08203 z m 6.597656,-1.7343751 c 0,-0.7734375 -0.117187,-1.9804687 -0.65625,-3.1054687 -0.597656,-1.21875 -1.464843,-1.875 -1.558593,-1.875 -0.05859,0 -0.105469,0.046875 -0.105469,0.1054687 0,0.035156 0,0.046875 0.199219,0.234375 0.972656,0.984375 1.535156,2.5664063 1.535156,4.640625 0,1.7109371 -0.363281,3.4570311 -1.59375,4.7226561 -0.140625,0.117188 -0.140625,0.128906 -0.140625,0.164063 0,0.05859 0.04687,0.105468 0.105469,0.105468 0.09375,0 0.996093,-0.679687 1.582031,-1.945312 0.503906,-1.101563 0.632812,-2.203125 0.632812,-3.0468751 z m 0,0"
       style="fill:#000000;fill-opacity:1;fill-rule:nonzero;stroke:none"
       aria-label="Sens¨or&#10;(Slave2)"
       transform="matrix(1.3333333,0,0,1.3333333,378.348,280.00133)" />
    <path
       id="path8"
       d="m -141.73404,85.04042 h 340.1617"
       style="fill:none;stroke:#000000;stroke-width:0.3985;stroke-linecap:butt;stroke-linejoin:miter;stroke-miterlimit:10;stroke-dasharray:none;stroke-opacity:1"
       transform="matrix(1.3333333,0,0,-1.3333333,208.24533,322.88933)" />
    <path
       id="path9"
       d="m -141.73404,113.38724 h 340.1617"
       style="fill:none;stroke:#000000;stroke-width:0.3985;stroke-linecap:butt;stroke-linejoin:miter;stroke-miterlimit:10;stroke-dasharray:none;stroke-opacity:1"
       transform="matrix(1.3333333,0,0,-1.3333333,208.24533,322.88933)" />
    <path
       id="path10"
       d="M 3.4792266,-3.8667031 2.2018828,-4.1713906 c -0.6210937,-0.1523438 -1.0078125,-0.6914063 -1.0078125,-1.265625 0,-0.703125 0.5390625,-1.3007813 1.3125,-1.3007813 1.6640625,0 1.8867188,1.6289063 1.9453125,2.0742188 0.011719,0.058594 0.011719,0.1171875 0.1171875,0.1171875 0.1289063,0 0.1289063,-0.046875 0.1289063,-0.234375 v -2.0039063 c 0,-0.1640625 0,-0.234375 -0.1054688,-0.234375 -0.070312,0 -0.082031,0.011719 -0.1523437,0.1289063 l -0.3515625,0.5625 c -0.2929688,-0.28125 -0.703125,-0.6914063 -1.59375,-0.6914063 -1.1015625,0 -1.93359379,0.8789063 -1.93359379,1.9335938 0,0.8203125 0.52734379,1.546875 1.30078129,1.8164062 0.1054687,0.046875 0.6210937,0.1640625 1.3125,0.328125 0.2695312,0.070312 0.5742187,0.140625 0.84375,0.515625 0.2109375,0.2578125 0.3164062,0.5859375 0.3164062,0.9140625 0,0.70312503 -0.5039062,1.41796878 -1.3359375,1.41796878 -0.2929687,0 -1.0429687,-0.046875 -1.5703125,-0.5390625 C 0.84250781,-1.1596719 0.81907031,-1.8042031 0.80735156,-2.1557656 c -0.0117188,-0.1054688 -0.09375,-0.1054688 -0.1171875,-0.1054688 -0.12890625,0 -0.12890625,0.070312 -0.12890625,0.2460938 v 1.99218748 c 0,0.17578125 0,0.24609375 0.10546875,0.24609375 0.0703125,0 0.0820313,-0.0234375 0.15234375,-0.12890625 0,-0.01171875 0.0234375,-0.046875 0.35156249,-0.57421875 0.3164063,0.33984375 0.9492188,0.703125 1.8398438,0.703125 1.1601562,0 1.9570312,-0.984375 1.9570312,-2.07421873 0,-0.9960938 -0.65625,-1.8164063 -1.4882812,-2.015625 z m 2.4082031,-2.9414063 v 0.3164063 h 0.234375 c 0.7734375,0 0.7851562,0.1054687 0.7851562,0.46875 v 5.24999998 c 0,0.3515625 -0.011719,0.46875 -0.7851562,0.46875 H 5.8874297 V 4.84375e-4 h 3.6445312 c 1.6757811,0 3.0468751,-1.476562475 3.0468751,-3.351562475 0,-1.8867188 -1.347656,-3.4570313 -3.0468751,-3.4570313 z m 2.3671875,6.50390628 c -0.46875,0 -0.4921875,-0.0703125 -0.4921875,-0.3984375 V -6.0932656 c 0,-0.328125 0.023437,-0.3984375 0.4921875,-0.3984375 h 0.9960937 c 0.6210938,0 1.3007811,0.2109375 1.8164061,0.9257812 0.421875,0.5859375 0.515625,1.4414063 0.515625,2.2148438 0,1.1132812 -0.1875,1.7109375 -0.550781,2.1914062 -0.199219,0.26953128 -0.761719,0.85546878 -1.7695313,0.85546878 z M 16.826883,-6.9370156 c -0.04687,-0.1289063 -0.07031,-0.1992188 -0.222656,-0.1992188 -0.164063,0 -0.1875,0.058594 -0.246094,0.1992188 l -2.0625,5.96484373 c -0.175781,0.50390625 -0.574219,0.65625 -1.113281,0.66796875 V 4.84375e-4 c 0.234375,-0.011718745 0.65625,-0.035156245 1.019531,-0.035156245 0.304687,0 0.820312,0.0234375 1.148437,0.035156245 V -0.30420312 c -0.503906,0 -0.75,-0.2578125 -0.75,-0.515625 0,-0.0234375 0.01172,-0.12890625 0.02344,-0.140625 l 0.457031,-1.31249998 h 2.460938 l 0.527343,1.52343748 c 0.01172,0.046875 0.02344,0.10546875 0.02344,0.140625 0,0.3046875 -0.550781,0.3046875 -0.820313,0.3046875 V 4.84375e-4 c 0.351563,-0.035156245 1.054688,-0.035156245 1.429688,-0.035156245 0.433594,0 0.890625,0.01171875 1.300781,0.035156245 V -0.30420312 h -0.175781 c -0.597656,0 -0.738281,-0.0703125 -0.84375,-0.3984375 z m -0.527344,1.125 1.125,3.234375 h -2.238281 z m 10.658203,8.203125 c 0,-0.035156 0,-0.046875 -0.164062,-0.2226563 -1.242188,-1.25390622 -1.570313,-3.12890622 -1.570313,-4.6640625 0,-1.7226562 0.386719,-3.4570312 1.605469,-4.7109375 0.128906,-0.1171875 0.128906,-0.1289062 0.128906,-0.1640625 0,-0.070312 -0.03516,-0.1054687 -0.09375,-0.1054687 -0.105469,0 -0.996094,0.6796875 -1.582031,1.9453125 -0.515625,1.1015625 -0.632813,2.203125 -0.632813,3.0351562 0,0.7851563 0.117188,1.99218753 0.65625,3.11718753 0.597657,1.21874997 1.453125,1.87499997 1.558594,1.87499997 0.05859,0 0.09375,-0.035156 0.09375,-0.1054687 z m 4.731446,-5.7070313 c 0.08203,-0.234375 0.257812,-0.65625 0.914062,-0.6679687 v -0.3046875 c -0.234375,0.011719 -0.515625,0.023437 -0.75,0.023437 -0.234375,0 -0.691406,-0.023437 -0.867187,-0.023437 v 0.3046875 c 0.375,0.011719 0.480468,0.234375 0.480468,0.4335937 0,0.082031 -0.02344,0.1289063 -0.05859,0.234375 l -1.019532,2.54296878 -1.113281,-2.77734378 c -0.05859,-0.140625 -0.05859,-0.1523437 -0.05859,-0.1757812 0,-0.2578125 0.386719,-0.2578125 0.5625,-0.2578125 v -0.3046875 c -0.292968,0 -0.855468,0.023437 -1.078125,0.023437 -0.269531,0 -0.667968,-0.011719 -0.972656,-0.023437 v 0.3046875 c 0.632813,0 0.667969,0.058594 0.796875,0.3632812 l 1.441406,3.53906253 c 0.05859,0.140625 0.07031,0.1875 0.199219,0.1875 0.128906,0 0.175781,-0.08203125 0.210938,-0.1875 z m 1.945312,0.8085938 c 0.05859,-1.4882813 0.902344,-1.734375 1.242188,-1.734375 1.019531,0 1.125,1.3476562 1.125,1.734375 z m -0.01172,0.2109375 h 2.789063 c 0.210937,0 0.246094,0 0.246094,-0.2109375 0,-0.984375 -0.539063,-1.9570313 -1.78125,-1.9570313 -1.160157,0 -2.074219,1.03125 -2.074219,2.2734375 0,1.33593753 1.042969,2.29687503 2.191406,2.29687503 1.21875,0 1.664063,-1.1015625 1.664063,-1.28906253 0,-0.1054687 -0.08203,-0.1171875 -0.128907,-0.1171875 -0.09375,0 -0.117187,0.058594 -0.128906,0.140625 -0.351562,1.01953128 -1.253906,1.01953128 -1.347656,1.01953128 -0.503906,0 -0.902344,-0.29296875 -1.125,-0.66796875 C 33.622781,-1.2885781 33.622781,-1.9448281 33.62278,-2.2963906 Z m 4.989258,-1.0078125 v -1.1015625 l -1.382812,0.1171875 v 0.3046875 c 0.691406,0 0.773437,0.070312 0.773437,0.5625 v 2.66015623 c 0,0.45703125 -0.105469,0.45703125 -0.773437,0.45703125 V 4.84375e-4 c 0.386718,-0.011718745 0.855468,-0.035156245 1.136718,-0.035156245 0.398438,0 0.867188,0 1.265625,0.035156245 V -0.30420312 h -0.210937 c -0.738281,0 -0.761719,-0.1171875 -0.761719,-0.46875 V -2.3081094 c 0,-0.984375 0.421875,-1.875 1.183594,-1.875 0.05859,0 0.08203,0 0.105469,0.011719 -0.03516,0.011719 -0.234375,0.1289062 -0.234375,0.3867187 0,0.28125 0.210937,0.4335938 0.433593,0.4335938 0.175782,0 0.421875,-0.1289063 0.421875,-0.4453125 0,-0.3164063 -0.304687,-0.609375 -0.726562,-0.609375 -0.738281,0 -1.089844,0.6679687 -1.230469,1.1015623 z m 3.996094,-1.1015625 -1.394531,0.1171875 v 0.3046875 c 0.65625,0 0.738281,0.058594 0.738281,0.5507812 v 2.67187503 c 0,0.45703125 -0.105469,0.45703125 -0.773438,0.45703125 V 4.84375e-4 c 0.316407,-0.011718745 0.855469,-0.035156245 1.101563,-0.035156245 0.339844,0 0.691406,0.0234375 1.03125,0.035156245 V -0.30420312 c -0.65625,0 -0.703125,-0.0585938 -0.703125,-0.4453125 z m 0.04687,-1.734375 c 0,-0.3164063 -0.246094,-0.5273438 -0.527344,-0.5273438 -0.316406,0 -0.527344,0.2695313 -0.527344,0.5273438 0,0.2695312 0.210938,0.5273437 0.527344,0.5273437 0.28125,0 0.527344,-0.1992187 0.527344,-0.5273437 z m 3.84375,3.6445312 c 0,-0.7734375 -0.117188,-1.9804687 -0.65625,-3.1054687 -0.597656,-1.21875 -1.464844,-1.875 -1.558594,-1.875 -0.05859,0 -0.105469,0.046875 -0.105469,0.1054687 0,0.035156 0,0.046875 0.199219,0.234375 0.972656,0.984375 1.535156,2.5664063 1.535156,4.640625 0,1.71093753 -0.363281,3.45703128 -1.59375,4.7226563 -0.140625,0.1171875 -0.140625,0.1289062 -0.140625,0.1640625 0,0.058594 0.04687,0.1054687 0.105469,0.1054687 0.09375,0 0.996094,-0.6796875 1.582031,-1.94531247 0.503907,-1.1015625 0.632813,-2.20312503 0.632813,-3.04687503 z m 0,0"
       style="fill:#000000;fill-opacity:1;fill-rule:nonzero;stroke:none"
       aria-label="SDA(veri)"
       transform="matrix(1.3333333,0,0,1.3333333,25.404,163.69467)" />
    <path
       id="path11"
       d="M 3.4818125,-3.8679766 2.2044687,-4.1726641 C 1.583375,-4.3250078 1.1966562,-4.8640703 1.1966562,-5.4382891 c 0,-0.703125 0.5390625,-1.3007812 1.3125,-1.3007812 1.6640625,0 1.8867188,1.6289062 1.9453125,2.0742187 0.011719,0.058594 0.011719,0.1171875 0.1171875,0.1171875 0.1289063,0 0.1289063,-0.046875 0.1289063,-0.234375 v -2.0039062 c 0,-0.1640625 0,-0.234375 -0.1054688,-0.234375 -0.070312,0 -0.082031,0.011719 -0.1523437,0.1289062 l -0.3515625,0.5625 c -0.2929688,-0.28125 -0.703125,-0.6914062 -1.59375,-0.6914062 -1.1015625,0 -1.93359375,0.8789062 -1.93359375,1.9335937 0,0.8203125 0.52734375,1.546875 1.30078125,1.8164063 0.1054687,0.046875 0.6210937,0.1640625 1.3125,0.328125 0.2695312,0.070312 0.5742187,0.140625 0.84375,0.515625 0.2109375,0.2578125 0.3164062,0.5859375 0.3164062,0.9140625 0,0.70312499 -0.5039062,1.41796874 -1.3359375,1.41796874 -0.2929687,0 -1.0429687,-0.046875 -1.5703125,-0.5390625 C 0.84509375,-1.1609453 0.82165625,-1.8054766 0.8099375,-2.1570391 0.79821875,-2.2625078 0.7161875,-2.2625078 0.69275,-2.2625078 c -0.12890625,0 -0.12890625,0.070312 -0.12890625,0.2460937 v 1.99218754 c 0,0.17578125 0,0.24609375 0.10546875,0.24609375 0.0703125,0 0.0820313,-0.0234375 0.15234375,-0.12890625 0,-0.01171875 0.0234375,-0.046875 0.35156245,-0.57421875 0.3164063,0.33984375 0.9492188,0.703125 1.8398438,0.703125 1.1601562,0 1.9570312,-0.984375 1.9570312,-2.07421879 0,-0.9960937 -0.65625,-1.8164062 -1.4882812,-2.015625 z m 2.6162109,0.4570313 c 0,2.0625 1.6054688,3.63281249 3.4570313,3.63281249 1.6289063,0 2.6015623,-1.38281249 2.6015623,-2.54296879 0,-0.1054687 0,-0.1757812 -0.128906,-0.1757812 -0.105469,0 -0.105469,0.070312 -0.117188,0.1640625 -0.08203,1.42968749 -1.148437,2.23828124 -2.2265621,2.23828124 -0.609375,0 -2.5664062,-0.33984375 -2.5664062,-3.30468754 0,-2.9765625 1.9453125,-3.3164062 2.5546875,-3.3164062 1.0781248,0 1.9687498,0.9023437 2.1679688,2.3671875 0.02344,0.1289062 0.02344,0.1640625 0.164062,0.1640625 0.152344,0 0.152344,-0.035156 0.152344,-0.234375 v -2.3671875 c 0,-0.1640625 0,-0.234375 -0.105469,-0.234375 -0.03516,0 -0.08203,0 -0.164062,0.1171875 l -0.492188,0.7382812 c -0.375,-0.3632812 -0.878906,-0.8554687 -1.8398433,-0.8554687 -1.8632813,0 -3.4570313,1.5820312 -3.4570313,3.609375 z m 12.4335936,0.84375 h -0.257812 c -0.105469,1.0078125 -0.246094,2.26171874 -1.992188,2.26171874 h -0.820312 c -0.46875,0 -0.492188,-0.0703125 -0.492188,-0.3984375 V -6.0125078 c 0,-0.3398438 0,-0.4804688 0.949219,-0.4804688 h 0.328125 v -0.3164062 c -0.363281,0.035156 -1.265625,0.035156 -1.675781,0.035156 -0.386719,0 -1.160157,0 -1.511719,-0.035156 v 0.3164062 h 0.234375 c 0.773437,0 0.796875,0.1054688 0.796875,0.46875 v 5.25000004 c 0,0.3515625 -0.02344,0.46875 -0.796875,0.46875 h -0.234375 v 0.3046874975 h 5.191406 z m 7.03711,4.9570312 c 0,-0.035156 0,-0.046875 -0.164063,-0.2226562 -1.242187,-1.25390626 -1.570312,-3.12890626 -1.570312,-4.6640625 0,-1.7226563 0.386718,-3.4570313 1.605468,-4.7109375 0.128907,-0.1171875 0.128907,-0.1289063 0.128907,-0.1640625 0,-0.070312 -0.03516,-0.1054688 -0.09375,-0.1054688 -0.105469,0 -0.996094,0.6796875 -1.582032,1.9453125 -0.515625,1.1015625 -0.632812,2.203125 -0.632812,3.0351563 0,0.7851562 0.117187,1.99218749 0.65625,3.11718749 0.597656,1.21875001 1.453125,1.87500001 1.558594,1.87500001 0.05859,0 0.09375,-0.035156 0.09375,-0.1054688 z m 2.654296,-4.3242187 c 0.222657,0.035156 1.03125,0.1992187 1.03125,0.9140625 0,0.51562499 -0.351562,0.91406249 -1.125,0.91406249 -0.832031,0 -1.195312,-0.57421875 -1.382812,-1.41796879 -0.03516,-0.1289062 -0.03516,-0.1757812 -0.140625,-0.1757812 -0.128906,0 -0.128906,0.070312 -0.128906,0.2578125 v 1.31249999 c 0,0.1640625 0,0.234375 0.105468,0.234375 0.05859,0 0.07031,0 0.257813,-0.19921875 0.01172,-0.01171875 0.01172,-0.03515625 0.199219,-0.22265625 0.433593,0.421875 0.878906,0.421875 1.089843,0.421875 1.148438,0 1.605469,-0.66796875 1.605469,-1.38281249 0,-0.5273438 -0.292969,-0.8203125 -0.421875,-0.9492188 -0.328125,-0.3164062 -0.714844,-0.3984375 -1.136719,-0.46875 -0.550781,-0.1171875 -1.21875,-0.2460937 -1.21875,-0.8203125 0,-0.3515625 0.257813,-0.7617187 1.113282,-0.7617187 1.101562,0 1.148437,0.9023437 1.171875,1.2070312 0,0.09375 0.09375,0.09375 0.117187,0.09375 0.128906,0 0.128906,-0.046875 0.128906,-0.2460937 v -0.9960938 c 0,-0.1757812 0,-0.2460937 -0.117187,-0.2460937 -0.04687,0 -0.07031,0 -0.199219,0.1171875 -0.02344,0.046875 -0.128906,0.1289062 -0.164062,0.1640625 -0.375,-0.28125 -0.785157,-0.28125 -0.9375,-0.28125 -1.21875,0 -1.59375,0.6679687 -1.59375,1.2304687 0,0.3398438 0.164062,0.6210938 0.433593,0.84375 0.316407,0.2578125 0.597657,0.3164063 1.3125,0.4570313 z m 5.170899,1.17187499 c 0.03516,0.3984375 0.304687,0.8203125 0.773437,0.8203125 0.210938,0 0.820313,-0.140625 0.820313,-0.94921875 V -1.4421953 h -0.246094 v 0.55078124 c 0,0.5859375 -0.246094,0.64453125 -0.363281,0.64453125 -0.328125,0 -0.363281,-0.45703125 -0.363281,-0.50390625 V -2.7429766 c 0,-0.4101562 0,-0.8085937 -0.363282,-1.171875 -0.386718,-0.3867187 -0.878906,-0.5507812 -1.359375,-0.5507812 -0.820312,0 -1.511718,0.46875 -1.511718,1.125 0,0.3046875 0.199218,0.46875 0.457031,0.46875 0.28125,0 0.46875,-0.1992188 0.46875,-0.4570313 0,-0.1171875 -0.05859,-0.4453125 -0.515625,-0.4570312 0.269531,-0.3515625 0.761719,-0.4570313 1.078125,-0.4570313 0.492187,0 1.054687,0.3867188 1.054687,1.2773438 v 0.3632812 c -0.503906,0.035156 -1.207031,0.058594 -1.828125,0.3632813 -0.75,0.3398437 -0.996093,0.8554687 -0.996093,1.28906249 0,0.80859375 0.960937,1.0546875 1.59375,1.0546875 0.65625,0 1.113281,-0.3984375 1.300781,-0.8671875 z m -0.07031,-1.62890629 v 0.9960938 c 0,0.94921874 -0.714843,1.28906249 -1.160156,1.28906249 -0.492187,0 -0.902344,-0.3515625 -0.902344,-0.85546875 0,-0.53906254 0.421875,-1.37109374 2.0625,-1.42968754 z m 5.050782,1.62890629 c 0.03516,0.3984375 0.304687,0.8203125 0.773437,0.8203125 0.210938,0 0.820313,-0.140625 0.820313,-0.94921875 V -1.4421953 H 39.72205 v 0.55078124 c 0,0.5859375 -0.246094,0.64453125 -0.363281,0.64453125 -0.328125,0 -0.363282,-0.45703125 -0.363282,-0.50390625 V -2.7429766 c 0,-0.4101562 0,-0.8085937 -0.363281,-1.171875 -0.386719,-0.3867187 -0.878906,-0.5507812 -1.359375,-0.5507812 -0.820312,0 -1.511719,0.46875 -1.511719,1.125 0,0.3046875 0.199219,0.46875 0.457032,0.46875 0.28125,0 0.46875,-0.1992188 0.46875,-0.4570313 0,-0.1171875 -0.05859,-0.4453125 -0.515625,-0.4570312 0.269531,-0.3515625 0.761718,-0.4570313 1.078125,-0.4570313 0.492187,0 1.054687,0.3867188 1.054687,1.2773438 v 0.3632812 c -0.503906,0.035156 -1.207031,0.058594 -1.828125,0.3632813 -0.75,0.3398437 -0.996094,0.8554687 -0.996094,1.28906249 0,0.80859375 0.960938,1.0546875 1.59375,1.0546875 0.65625,0 1.113282,-0.3984375 1.300782,-0.8671875 z m -0.07031,-1.62890629 v 0.9960938 c 0,0.94921874 -0.714844,1.28906249 -1.160156,1.28906249 -0.492188,0 -0.902344,-0.3515625 -0.902344,-0.85546875 0,-0.53906254 0.421875,-1.37109374 2.0625,-1.42968754 z m 3.459961,-1.59375 h 1.429688 v -0.3046875 h -1.429688 v -1.8398437 h -0.246094 c -0.01172,0.8203125 -0.316406,1.8867187 -1.289062,1.921875 v 0.2226562 h 0.84375 v 2.7539063 c 0,1.21874999 0.925781,1.33593749 1.289062,1.33593749 0.703125,0 0.984375,-0.703125 0.984375,-1.33593749 v -0.5742188 h -0.246093 v 0.5507813 c 0,0.73828124 -0.304688,1.11328124 -0.667969,1.11328124 -0.667969,0 -0.667969,-0.90234374 -0.667969,-1.07812504 z m 5.033203,1.4882813 c 0,-0.7734375 -0.117187,-1.9804688 -0.65625,-3.1054688 -0.597656,-1.21875 -1.464844,-1.875 -1.558594,-1.875 -0.05859,0 -0.105468,0.046875 -0.105468,0.1054688 0,0.035156 0,0.046875 0.199218,0.234375 0.972657,0.984375 1.535157,2.5664062 1.535157,4.640625 0,1.71093749 -0.363282,3.45703124 -1.59375,4.7226562 -0.140625,0.1171875 -0.140625,0.1289063 -0.140625,0.1640625 0,0.058594 0.04687,0.1054688 0.105468,0.1054688 0.09375,0 0.996094,-0.6796875 1.582032,-1.94531251 0.503906,-1.1015625 0.632812,-2.20312499 0.632812,-3.04687499 z m 0,0"
       style="fill:#000000;fill-opacity:1;fill-rule:nonzero;stroke:none"
       aria-label="SCL(saat)"
       transform="matrix(1.3333333,0,0,1.3333333,25.201333,201.48933)" />
    <path
       id="path12"
       d="m 0,170.08086 v -6.80335 m 0,-31.7484 v -6.80333"
       style="fill:none;stroke:#000000;stroke-width:0.3985;stroke-linecap:butt;stroke-linejoin:miter;stroke-miterlimit:10;stroke-dasharray:none;stroke-opacity:1"
       transform="matrix(1.3333333,0,0,-1.3333333,208.24533,322.88933)" />
    <path
       id="path13"
       d="m 0,163.67601 5.95285,-3.07741 -11.9057,-5.35782 11.9057,-5.35781 -11.9057,-5.35781 11.9057,-5.35782 -11.9057,-5.35782 L 0,131.13062"
       style="fill:none;stroke:#000000;stroke-width:0.797;stroke-linecap:butt;stroke-linejoin:bevel;stroke-miterlimit:10;stroke-dasharray:none;stroke-opacity:1"
       transform="matrix(1.3333333,0,0,-1.3333333,208.24533,322.88933)" />
    <g
       id="g13"
       aria-label="R&#10;p"
       transform="matrix(1.3333333,0,0,1.3333333,219.12,129.21333)">
      <path
         id="path14"
         d="m 3.7391016,-6.1160547 c 0.058594,-0.234375 0.082031,-0.3398437 0.28125,-0.3632812 0.082031,-0.011719 0.3984375,-0.011719 0.5976562,-0.011719 0.7148438,0 1.8164063,0 1.8164063,0.984375 0,0.3398438 -0.1523438,1.0195313 -0.5507813,1.4179688 -0.2578125,0.2578125 -0.7851562,0.5742187 -1.6757812,0.5742187 H 3.0945703 Z m 1.4296875,2.7304688 c 1.0078125,-0.2226563 2.1914062,-0.9140625 2.1914062,-1.921875 0,-0.8554688 -0.890625,-1.5 -2.203125,-1.5 H 2.3211328 c -0.1992187,0 -0.2929687,0 -0.2929687,0.1992187 0,0.1171875 0.09375,0.1171875 0.28125,0.1171875 0.023437,0 0.2109375,0 0.3867187,0.011719 0.1757813,0.023437 0.2578125,0.035156 0.2578125,0.1640625 0,0.035156 0,0.070312 -0.035156,0.1875 l -1.3359375,5.35546871 c -0.09375,0.38671875 -0.1171875,0.46875 -0.90234379,0.46875 -0.17578125,0 -0.26953125,0 -0.26953125,0.19921875 0,0.10546875 0.1171875,0.10546875 0.140625,0.10546875 0.28125,0 0.97265624,-0.03515625 1.25390624,-0.03515625 0.28125,0 0.984375,0.03515625 1.265625,0.03515625 0.082031,0 0.1992188,0 0.1992188,-0.19921875 0,-0.10546875 -0.09375,-0.10546875 -0.28125,-0.10546875 -0.3632813,0 -0.6445313,0 -0.6445313,-0.1875 0,-0.0585938 0.011719,-0.10546875 0.023437,-0.1640625 l 0.65625,-2.63671871 H 4.21957 c 0.9023438,0 1.078125,0.5507812 1.078125,0.9023437 0,0.1523438 -0.082031,0.4570313 -0.140625,0.6914063 -0.070312,0.2695312 -0.1523437,0.6445312 -0.1523437,0.84374996 0,1.078125 1.1953125,1.078125 1.3242187,1.078125 0.84375,0 1.1953125,-1.0078125 1.1953125,-1.1484375 0,-0.11718746 -0.1171875,-0.11718746 -0.1171875,-0.11718746 -0.09375,0 -0.1171875,0.0703125 -0.1289062,0.14062496 -0.2578125,0.73828125 -0.6796875,0.90234375 -0.9140625,0.90234375 -0.328125,0 -0.3984375,-0.22265625 -0.3984375,-0.609375 0,-0.3046875 0.058594,-0.82031251 0.1054687,-1.13671871 0.011719,-0.140625 0.035156,-0.328125 0.035156,-0.46875 0,-0.7617188 -0.6679688,-1.078125 -0.9374994,-1.1718752 z m 0,0"
         style="fill:#000000;fill-opacity:1;fill-rule:nonzero;stroke:none" />
      <path
         id="path15"
         d="m 9.7683984,2.4562109 h -0.46875 v -1.21875 c 0.1757813,0.1171875 0.515625,0.3046875 1.0078126,0.3046875 1.195312,0 1.933594,-0.67968746 1.933594,-1.60546871 0,-0.84375 -0.609375,-1.58203129 -1.792969,-1.58203129 -0.363281,0 -0.7851563,0.070312 -1.1953126,0.328125 v -0.328125 l -1.3007812,0.058594 v 0.3867187 c 0.1171875,0 0.2578125,0 0.3398437,0.023437 0.1289063,0.011719 0.1289063,0.09375 0.1289063,0.22265629 V 2.4562109 h -0.46875 v 0.3867188 c 0,0 0.5742187,-0.023437 0.9023437,-0.023437 0.3398438,0 0.9023438,0.023437 0.9140625,0.023437 z m -0.46875,-3.18749996 c 0,-0.140625 0.011719,-0.140625 0.1054688,-0.234375 0.3398437,-0.29296874 0.7499998,-0.31640624 0.8906248,-0.31640624 0.597656,0 0.972656,0.46874999 0.972656,1.21874999 0,0.9140625 -0.527343,1.27734371 -1.054687,1.27734371 -0.5273438,0 -0.8320313,-0.37499996 -0.9140626,-0.49218746 z m 0,0"
         style="fill:#000000;fill-opacity:1;fill-rule:nonzero;stroke:none" />
    </g>
    <path
       id="path16"
       d="m 56.69362,170.08086 v -6.80335 m 0,-31.7484 v -6.80333"
       style="fill:none;stroke:#000000;stroke-width:0.3985;stroke-linecap:butt;stroke-linejoin:miter;stroke-miterlimit:10;stroke-dasharray:none;stroke-opacity:1"
       transform="matrix(1.3333333,0,0,-1.3333333,208.24533,322.88933)" />
    <path
       id="path17"
       d="m 56.69362,163.67601 5.95285,-3.07741 -11.90572,-5.35782 11.90572,-5.35781 -11.90572,-5.35781 11.90572,-5.35782 -11.90572,-5.35782 5.95287,-2.6789"
       style="fill:none;stroke:#000000;stroke-width:0.797;stroke-linecap:butt;stroke-linejoin:bevel;stroke-miterlimit:10;stroke-dasharray:none;stroke-opacity:1"
       transform="matrix(1.3333333,0,0,-1.3333333,208.24533,322.88933)" />
    <g
       id="g17"
       aria-label="R&#10;p"
       transform="matrix(1.3333333,0,0,1.3333333,294.71067,129.21333)">
      <path
         id="path18"
         d="m 3.7384844,-6.1160547 c 0.058594,-0.234375 0.082031,-0.3398437 0.28125,-0.3632812 0.082031,-0.011719 0.3984375,-0.011719 0.5976562,-0.011719 0.7148438,0 1.8164063,0 1.8164063,0.984375 0,0.3398438 -0.1523438,1.0195313 -0.5507813,1.4179688 -0.2578125,0.2578125 -0.7851562,0.5742187 -1.6757812,0.5742187 H 3.0939531 Z m 1.4296875,2.7304688 c 1.0078125,-0.2226563 2.1914062,-0.9140625 2.1914062,-1.921875 0,-0.8554688 -0.890625,-1.5 -2.203125,-1.5 H 2.3205156 c -0.1992187,0 -0.2929687,0 -0.2929687,0.1992187 0,0.1171875 0.09375,0.1171875 0.28125,0.1171875 0.023437,0 0.2109375,0 0.3867187,0.011719 0.1757813,0.023437 0.2578125,0.035156 0.2578125,0.1640625 0,0.035156 0,0.070312 -0.035156,0.1875 l -1.3359375,5.35546871 c -0.09375,0.38671875 -0.1171875,0.46875 -0.90234378,0.46875 -0.17578125,0 -0.26953125,0 -0.26953125,0.19921875 0,0.10546875 0.1171875,0.10546875 0.140625,0.10546875 0.28125,0 0.97265623,-0.03515625 1.25390623,-0.03515625 0.28125,0 0.984375,0.03515625 1.265625,0.03515625 0.082031,0 0.1992188,0 0.1992188,-0.19921875 0,-0.10546875 -0.09375,-0.10546875 -0.28125,-0.10546875 -0.3632813,0 -0.6445313,0 -0.6445313,-0.1875 0,-0.0585938 0.011719,-0.10546875 0.023437,-0.1640625 l 0.65625,-2.63671871 h 1.1953125 c 0.9023438,0 1.078125,0.5507812 1.078125,0.9023437 0,0.1523438 -0.082031,0.4570313 -0.140625,0.6914063 -0.070312,0.2695312 -0.1523437,0.6445312 -0.1523437,0.84374996 0,1.078125 1.1953125,1.078125 1.3242187,1.078125 0.84375,0 1.1953125,-1.0078125 1.1953125,-1.1484375 0,-0.11718746 -0.1171875,-0.11718746 -0.1171875,-0.11718746 -0.09375,0 -0.1171875,0.0703125 -0.1289062,0.14062496 -0.2578125,0.73828125 -0.6796875,0.90234375 -0.9140625,0.90234375 -0.328125,0 -0.3984375,-0.22265625 -0.3984375,-0.609375 0,-0.3046875 0.058594,-0.82031251 0.1054687,-1.13671871 0.011719,-0.140625 0.035156,-0.328125 0.035156,-0.46875 0,-0.7617188 -0.6679688,-1.078125 -0.9374994,-1.1718752 z m 0,0"
         style="fill:#000000;fill-opacity:1;fill-rule:nonzero;stroke:none" />
      <path
         id="path19"
         d="m 9.7677812,2.4562109 h -0.46875 v -1.21875 c 0.1757813,0.1171875 0.515625,0.3046875 1.0078128,0.3046875 1.195312,0 1.933593,-0.67968746 1.933593,-1.60546871 0,-0.84375 -0.609375,-1.58203129 -1.792968,-1.58203129 -0.363282,0 -0.7851565,0.070312 -1.1953128,0.328125 v -0.328125 l -1.3007812,0.058594 v 0.3867187 c 0.1171875,0 0.2578125,0 0.3398437,0.023437 0.1289063,0.011719 0.1289063,0.09375 0.1289063,0.22265629 V 2.4562109 h -0.46875 v 0.3867188 c 0,0 0.5742187,-0.023437 0.9023437,-0.023437 0.3398438,0 0.9023438,0.023437 0.9140625,0.023437 z m -0.46875,-3.18749996 c 0,-0.140625 0.011719,-0.140625 0.1054688,-0.234375 0.3398437,-0.29296874 0.75,-0.31640624 0.890625,-0.31640624 0.597656,0 0.972656,0.46874999 0.972656,1.21874999 0,0.9140625 -0.527344,1.27734371 -1.054687,1.27734371 -0.527344,0 -0.8320315,-0.37499996 -0.9140628,-0.49218746 z m 0,0"
         style="fill:#000000;fill-opacity:1;fill-rule:nonzero;stroke:none" />
    </g>
    <path
       id="path20"
       d="m 56.69362,117.35571 v -2.38111 c 0.87668,0 1.58736,-0.71068 1.58736,-1.58736 0,-0.8767 -0.71068,-1.58737 -1.58736,-1.58737 v -2.38111"
       style="fill:none;stroke:#000000;stroke-width:0.3985;stroke-linecap:butt;stroke-linejoin:bevel;stroke-miterlimit:10;stroke-dasharray:none;stroke-opacity:1"
       transform="matrix(1.3333333,0,0,-1.3333333,208.24533,322.88933)" />
    <path
       id="path21"
       d="m 60.6621,113.38724 h -1.98424 m -0.7937,0 h -5.15903"
       style="fill:none;stroke:#000000;stroke-width:0.3985;stroke-linecap:butt;stroke-linejoin:bevel;stroke-miterlimit:10;stroke-dasharray:none;stroke-opacity:1"
       transform="matrix(1.3333333,0,0,-1.3333333,208.24533,322.88933)" />
    <path
       id="path22"
       d="m 56.69362,124.72578 v 0 -7.37002"
       style="fill:none;stroke:#000000;stroke-width:0.3985;stroke-linecap:butt;stroke-linejoin:miter;stroke-miterlimit:10;stroke-dasharray:none;stroke-opacity:1"
       transform="matrix(1.3333333,0,0,-1.3333333,208.24533,322.88933)" />
    <path
       id="path23"
       d="m 56.69362,109.4187 v 0 -24.37828"
       style="fill:none;stroke:#000000;stroke-width:0.3985;stroke-linecap:butt;stroke-linejoin:miter;stroke-miterlimit:10;stroke-dasharray:none;stroke-opacity:1"
       transform="matrix(1.3333333,0,0,-1.3333333,208.24533,322.88933)" />
    <path
       id="path24"
       d="m 0,124.72578 v 0 -11.33854"
       style="fill:none;stroke:#000000;stroke-width:0.3985;stroke-linecap:butt;stroke-linejoin:miter;stroke-miterlimit:10;stroke-dasharray:none;stroke-opacity:1"
       transform="matrix(1.3333333,0,0,-1.3333333,208.24533,322.88933)" />
    <path
       id="path25"
       d="m -85.04042,85.04042 v 0 -28.3468"
       style="fill:none;stroke:#000000;stroke-width:0.3985;stroke-linecap:butt;stroke-linejoin:miter;stroke-miterlimit:10;stroke-dasharray:none;stroke-opacity:1"
       transform="matrix(1.3333333,0,0,-1.3333333,208.24533,322.88933)" />
    <path
       id="path26"
       d="m -56.69362,89.0089 v -2.38112 c 0.87669,0 1.58737,-0.71068 1.58737,-1.58736 0,-0.87668 -0.71068,-1.58736 -1.58737,-1.58736 v -2.38111"
       style="fill:none;stroke:#000000;stroke-width:0.3985;stroke-linecap:butt;stroke-linejoin:bevel;stroke-miterlimit:10;stroke-dasharray:none;stroke-opacity:1"
       transform="matrix(1.3333333,0,0,-1.3333333,208.24533,322.88933)" />
    <path
       id="path27"
       d="m -52.72513,85.04042 h -1.98425 m -0.79369,0 h -5.15903"
       style="fill:none;stroke:#000000;stroke-width:0.3985;stroke-linecap:butt;stroke-linejoin:bevel;stroke-miterlimit:10;stroke-dasharray:none;stroke-opacity:1"
       transform="matrix(1.3333333,0,0,-1.3333333,208.24533,322.88933)" />
    <path
       id="path28"
       d="m -56.69362,89.00894 v 0 24.3783"
       style="fill:none;stroke:#000000;stroke-width:0.3985;stroke-linecap:butt;stroke-linejoin:miter;stroke-miterlimit:10;stroke-dasharray:none;stroke-opacity:1"
       transform="matrix(1.3333333,0,0,-1.3333333,208.24533,322.88933)" />
    <path
       id="path29"
       d="M -56.69362,81.07188 V 56.69362"
       style="fill:none;stroke:#000000;stroke-width:0.3985;stroke-linecap:butt;stroke-linejoin:miter;stroke-miterlimit:10;stroke-dasharray:none;stroke-opacity:1"
       transform="matrix(1.3333333,0,0,-1.3333333,208.24533,322.88933)" />
    <path
       id="path30"
       d="m 42.5202,56.69362 v 28.3468"
       style="fill:none;stroke:#000000;stroke-width:0.3985;stroke-linecap:butt;stroke-linejoin:miter;stroke-miterlimit:10;stroke-dasharray:none;stroke-opacity:1"
       transform="matrix(1.3333333,0,0,-1.3333333,208.24533,322.88933)" />
    <path
       id="path31"
       d="m 70.867,89.0089 v -2.38112 c 0.8767,0 1.58738,-0.71068 1.58738,-1.58736 0,-0.87668 -0.71068,-1.58736 -1.58738,-1.58736 v -2.38111"
       style="fill:none;stroke:#000000;stroke-width:0.3985;stroke-linecap:butt;stroke-linejoin:bevel;stroke-miterlimit:10;stroke-dasharray:none;stroke-opacity:1"
       transform="matrix(1.3333333,0,0,-1.3333333,208.24533,322.88933)" />
    <path
       id="path32"
       d="m 74.83548,85.04042 h -1.98424 m -0.79368,0 h -5.15903"
       style="fill:none;stroke:#000000;stroke-width:0.3985;stroke-linecap:butt;stroke-linejoin:bevel;stroke-miterlimit:10;stroke-dasharray:none;stroke-opacity:1"
       transform="matrix(1.3333333,0,0,-1.3333333,208.24533,322.88933)" />
    <path
       id="path33"
       d="m 155.90744,89.0089 v -2.38112 c 0.87668,0 1.58736,-0.71068 1.58736,-1.58736 0,-0.87668 -0.71068,-1.58736 -1.58736,-1.58736 v -2.38111"
       style="fill:none;stroke:#000000;stroke-width:0.3985;stroke-linecap:butt;stroke-linejoin:bevel;stroke-miterlimit:10;stroke-dasharray:none;stroke-opacity:1"
       transform="matrix(1.3333333,0,0,-1.3333333,208.24533,322.88933)" />
    <path
       id="path34"
       d="m 159.87592,85.04042 h -1.98424 m -0.7937,0 h -5.15902"
       style="fill:none;stroke:#000000;stroke-width:0.3985;stroke-linecap:butt;stroke-linejoin:bevel;stroke-miterlimit:10;stroke-dasharray:none;stroke-opacity:1"
       transform="matrix(1.3333333,0,0,-1.3333333,208.24533,322.88933)" />
    <path
       id="path35"
       d="m 70.867,89.00894 v 0 24.3783"
       style="fill:none;stroke:#000000;stroke-width:0.3985;stroke-linecap:butt;stroke-linejoin:miter;stroke-miterlimit:10;stroke-dasharray:none;stroke-opacity:1"
       transform="matrix(1.3333333,0,0,-1.3333333,208.24533,322.88933)" />
    <path
       id="path36"
       d="m 70.867,81.07188 v 0 -24.37826"
       style="fill:none;stroke:#000000;stroke-width:0.3985;stroke-linecap:butt;stroke-linejoin:miter;stroke-miterlimit:10;stroke-dasharray:none;stroke-opacity:1"
       transform="matrix(1.3333333,0,0,-1.3333333,208.24533,322.88933)" />
    <path
       id="path37"
       d="m 127.56062,85.04042 v 0 -28.3468"
       style="fill:none;stroke:#000000;stroke-width:0.3985;stroke-linecap:butt;stroke-linejoin:miter;stroke-miterlimit:10;stroke-dasharray:none;stroke-opacity:1"
       transform="matrix(1.3333333,0,0,-1.3333333,208.24533,322.88933)" />
    <path
       id="path38"
       d="m 155.90744,81.07188 v 0 -24.37826"
       style="fill:none;stroke:#000000;stroke-width:0.3985;stroke-linecap:butt;stroke-linejoin:miter;stroke-miterlimit:10;stroke-dasharray:none;stroke-opacity:1"
       transform="matrix(1.3333333,0,0,-1.3333333,208.24533,322.88933)" />
    <path
       id="path39"
       d="m 155.90744,89.00894 v 0 24.3783"
       style="fill:none;stroke:#000000;stroke-width:0.3985;stroke-linecap:butt;stroke-linejoin:miter;stroke-miterlimit:10;stroke-dasharray:none;stroke-opacity:1"
       transform="matrix(1.3333333,0,0,-1.3333333,208.24533,322.88933)" />
    <path
       id="path40"
       d="M -56.69362,184.25424 H 113.38724"
       style="fill:none;stroke:#000000;stroke-width:0.3985;stroke-linecap:butt;stroke-linejoin:miter;stroke-miterlimit:10;stroke-dasharray:none;stroke-opacity:1"
       transform="matrix(1.3333333,0,0,-1.3333333,208.24533,322.88933)" />
    <path
       id="path41"
       d="m 0,170.08086 v 0 14.17338"
       style="fill:none;stroke:#000000;stroke-width:0.3985;stroke-linecap:butt;stroke-linejoin:miter;stroke-miterlimit:10;stroke-dasharray:none;stroke-opacity:1"
       transform="matrix(1.3333333,0,0,-1.3333333,208.24533,322.88933)" />
    <path
       id="path42"
       d="m 56.69362,170.08086 v 0 14.17338"
       style="fill:none;stroke:#000000;stroke-width:0.3985;stroke-linecap:butt;stroke-linejoin:miter;stroke-miterlimit:10;stroke-dasharray:none;stroke-opacity:1"
       transform="matrix(1.3333333,0,0,-1.3333333,208.24533,322.88933)" />
    <path
       id="path43"
       d="m 24.37833,204.77724 3.96847,5.55584 3.96848,-5.55584"
       style="fill:none;stroke:#000000;stroke-width:0.797;stroke-linecap:butt;stroke-linejoin:miter;stroke-miterlimit:10;stroke-dasharray:none;stroke-opacity:1"
       transform="matrix(1.3333333,0,0,-1.3333333,208.24533,322.88933)" />
    <path
       id="path44"
       d="m 28.3468,198.42766 v 11.90542"
       style="fill:none;stroke:#000000;stroke-width:0.3985;stroke-linecap:butt;stroke-linejoin:miter;stroke-miterlimit:10;stroke-dasharray:none;stroke-opacity:1"
       transform="matrix(1.3333333,0,0,-1.3333333,208.24533,322.88933)" />
    <g
       id="g44"
       aria-label="+V&#10;cc&#10;=+5V"
       transform="matrix(1.3333333,0,0,1.3333333,209.228,32.618667)">
      <path
         id="path45"
         d="m 4.0770469,-2.2979844 h 2.7773437 c 0.140625,0 0.328125,0 0.328125,-0.1992187 0,-0.1992188 -0.1875,-0.1992188 -0.328125,-0.1992188 H 4.0770469 v -2.7890625 c 0,-0.1289062 0,-0.328125 -0.1992188,-0.328125 -0.1992187,0 -0.1992187,0.1992188 -0.1992187,0.328125 v 2.7890625 H 0.88954688 c -0.140625,0 -0.328125,0 -0.328125,0.1992188 0,0.1992187 0.1875,0.1992187 0.328125,0.1992187 H 3.6786094 v 2.80078128 c 0,0.12890625 0,0.328125 0.1992187,0.328125 0.1992188,0 0.1992188,-0.19921875 0.1992188,-0.328125 z m 0,0"
         style="fill:#000000;fill-opacity:1;fill-rule:nonzero;stroke:none" />
      <path
         id="path46"
         d="m 14.005758,-5.6729844 c 0.480469,-0.7734375 0.902344,-0.8085937 1.277344,-0.8203125 0.117187,-0.011719 0.128906,-0.1875 0.128906,-0.1875 0,-0.082031 -0.05859,-0.1289062 -0.128906,-0.1289062 -0.257813,0 -0.550782,0.035156 -0.820313,0.035156 -0.328125,0 -0.667969,-0.035156 -0.984375,-0.035156 -0.05859,0 -0.1875,0 -0.1875,0.1992187 0,0.1054688 0.08203,0.1171875 0.152344,0.1171875 0.269531,0.011719 0.457031,0.1171875 0.457031,0.328125 0,0.1523438 -0.140625,0.3632813 -0.140625,0.375 L 10.70107,-0.92689062 10.021383,-6.2003281 c 0,-0.1640625 0.222656,-0.2929688 0.679687,-0.2929688 0.140625,0 0.257813,0 0.257813,-0.1992187 0,-0.09375 -0.08203,-0.1171875 -0.140625,-0.1171875 -0.398438,0 -0.8320314,0.035156 -1.2421877,0.035156 -0.1757812,0 -0.3632812,-0.011719 -0.5390625,-0.011719 -0.1875,0 -0.375,-0.023437 -0.5390625,-0.023437 -0.070312,0 -0.1875,0 -0.1875,0.1992187 0,0.1171875 0.082031,0.1171875 0.2460938,0.1171875 0.5507812,0 0.5625,0.082031 0.5976562,0.3398438 l 0.7851563,6.14062498 c 0.035156,0.19921875 0.070312,0.234375 0.1992184,0.234375 0.164063,0 0.199219,-0.0585938 0.28125,-0.1875 z m 0,0"
         style="fill:#000000;fill-opacity:1;fill-rule:nonzero;stroke:none" />
      <path
         id="path47"
         d="m 16.619039,-1.1759141 c -0.257812,0.046875 -0.363281,0.23437504 -0.363281,0.38671879 0,0.1875 0.152344,0.2578125 0.269531,0.2578125 0.164063,0 0.398438,-0.10546875 0.398438,-0.4453125 0,-0.46874999 -0.539063,-0.59765629 -0.914063,-0.59765629 -1.042969,0 -2.015625,0.96093754 -2.015625,1.92187504 0,0.609375 0.421875,1.21874996 1.289063,1.21874996 1.183593,0 1.734375,-0.69140621 1.734375,-0.78515621 0,-0.046875 -0.07031,-0.1171875 -0.128907,-0.1171875 -0.03516,0 -0.04687,0.0117188 -0.105468,0.0703125 C 16.23232,1.3670547 15.423727,1.3670547 15.29482,1.3670547 c -0.503906,0 -0.726562,-0.3398438 -0.726562,-0.77343751 0,-0.19921875 0.105469,-0.9609375 0.46875,-1.44140625 0.257812,-0.33984374 0.621094,-0.53906254 0.972656,-0.53906254 0.09375,0 0.433594,0.011719 0.609375,0.2109375 z m 3.55957,0 c -0.257812,0.046875 -0.363281,0.23437504 -0.363281,0.38671879 0,0.1875 0.152344,0.2578125 0.269531,0.2578125 0.164063,0 0.398438,-0.10546875 0.398438,-0.4453125 0,-0.46874999 -0.539063,-0.59765629 -0.914063,-0.59765629 -1.042968,0 -2.015625,0.96093754 -2.015625,1.92187504 0,0.609375 0.421875,1.21874996 1.289063,1.21874996 1.183594,0 1.734375,-0.69140621 1.734375,-0.78515621 0,-0.046875 -0.07031,-0.1171875 -0.128906,-0.1171875 -0.03516,0 -0.04687,0.0117188 -0.105469,0.0703125 -0.550781,0.63281251 -1.359375,0.63281251 -1.488281,0.63281251 -0.503907,0 -0.726563,-0.3398438 -0.726563,-0.77343751 0,-0.19921875 0.105469,-0.9609375 0.46875,-1.44140625 0.257813,-0.33984374 0.621094,-0.53906254 0.972656,-0.53906254 0.09375,0 0.433594,0.011719 0.609375,0.2109375 z m 0,0"
         style="fill:#000000;fill-opacity:1;fill-rule:nonzero;stroke:none" />
      <path
         id="path48"
         d="m 30.789938,-3.2589219 c 0.152343,0 0.339843,0 0.339843,-0.1992187 0,-0.1992188 -0.1875,-0.1992188 -0.328125,-0.1992188 h -5.964843 c -0.140625,0 -0.328125,0 -0.328125,0.1992188 0,0.1992187 0.1875,0.1992187 0.339843,0.1992187 z m 0.01172,1.9335938 c 0.140625,0 0.328125,0 0.328125,-0.1992188 0,-0.1992187 -0.1875,-0.1992187 -0.339843,-0.1992187 h -5.941407 c -0.152343,0 -0.339843,0 -0.339843,0.1992187 0,0.1992188 0.1875,0.1992188 0.328125,0.1992188 z m 7.740235,-0.9726563 h 2.777343 c 0.140625,0 0.328125,0 0.328125,-0.1992187 0,-0.1992188 -0.1875,-0.1992188 -0.328125,-0.1992188 h -2.777343 v -2.7890625 c 0,-0.1289062 0,-0.328125 -0.199219,-0.328125 -0.199219,0 -0.199219,0.1992188 -0.199219,0.328125 v 2.7890625 h -2.789062 c -0.140625,0 -0.328125,0 -0.328125,0.1992188 0,0.1992187 0.1875,0.1992187 0.328125,0.1992187 h 2.789062 v 2.80078128 c 0,0.12890625 0,0.328125 0.199219,0.328125 0.199219,0 0.199219,-0.19921875 0.199219,-0.328125 z m 8.147461,0.2929688 c 0,-1.1835938 -0.820313,-2.1796875 -1.898438,-2.1796875 -0.480469,0 -0.902344,0.1640625 -1.265625,0.5039062 v -1.9335937 c 0.199219,0.058594 0.527344,0.1289062 0.84375,0.1289062 1.230469,0 1.933594,-0.9140625 1.933594,-1.0429687 0,-0.058594 -0.03516,-0.1054688 -0.105469,-0.1054688 -0.01172,0 -0.03516,0 -0.08203,0.023437 -0.199219,0.09375 -0.679688,0.2929688 -1.347656,0.2929688 -0.398438,0 -0.855469,-0.070312 -1.324219,-0.28125 -0.08203,-0.023437 -0.105469,-0.023437 -0.128906,-0.023437 -0.09375,0 -0.09375,0.082031 -0.09375,0.234375 v 2.953125 c 0,0.1757812 0,0.2578125 0.140625,0.2578125 0.07031,0 0.08203,-0.035156 0.128906,-0.09375 0.105469,-0.1523438 0.480469,-0.6914063 1.277344,-0.6914063 0.527343,0 0.773437,0.4570313 0.855468,0.6328125 0.152344,0.375 0.175782,0.7617188 0.175782,1.2539063 0,0.3515625 0,0.9492187 -0.234375,1.37109373 -0.246094,0.38671875 -0.609375,0.64453125 -1.066407,0.64453125 -0.726562,0 -1.300781,-0.52734375 -1.464843,-1.11328128 0.02344,0.011719 0.05859,0.011719 0.164062,0.011719 0.328125,0 0.503906,-0.2460938 0.503906,-0.4804688 0,-0.2460937 -0.175781,-0.4921875 -0.503906,-0.4921875 -0.140625,0 -0.480469,0.070312 -0.480469,0.5273438 0,0.85546873 0.679688,1.82812498 1.792969,1.82812498 1.160156,0 2.179688,-0.9609375 2.179688,-2.22656248 z m 0,0"
         style="fill:#000000;fill-opacity:1;fill-rule:nonzero;stroke:none" />
      <path
         id="path49"
         d="m 53.45107,-5.6729844 c 0.480469,-0.7734375 0.902344,-0.8085937 1.277344,-0.8203125 0.117188,-0.011719 0.128906,-0.1875 0.128906,-0.1875 0,-0.082031 -0.05859,-0.1289062 -0.128906,-0.1289062 -0.257812,0 -0.550781,0.035156 -0.820312,0.035156 -0.328125,0 -0.667969,-0.035156 -0.984375,-0.035156 -0.05859,0 -0.1875,0 -0.1875,0.1992187 0,0.1054688 0.08203,0.1171875 0.152343,0.1171875 0.269532,0.011719 0.457032,0.1171875 0.457032,0.328125 0,0.1523438 -0.140625,0.3632813 -0.140625,0.375 l -3.058594,4.86328128 -0.679688,-5.27343748 c 0,-0.1640625 0.222657,-0.2929688 0.679688,-0.2929688 0.140625,0 0.257812,0 0.257812,-0.1992187 0,-0.09375 -0.08203,-0.1171875 -0.140625,-0.1171875 -0.398437,0 -0.832031,0.035156 -1.242187,0.035156 -0.175781,0 -0.363281,-0.011719 -0.539063,-0.011719 -0.1875,0 -0.375,-0.023437 -0.539062,-0.023437 -0.07031,0 -0.1875,0 -0.1875,0.1992187 0,0.1171875 0.08203,0.1171875 0.246094,0.1171875 0.550781,0 0.5625,0.082031 0.597656,0.3398438 l 0.785156,6.14062498 c 0.03516,0.19921875 0.07031,0.234375 0.199219,0.234375 0.164062,0 0.199219,-0.0585938 0.28125,-0.1875 z m 0,0"
         style="fill:#000000;fill-opacity:1;fill-rule:nonzero;stroke:none" />
    </g>
    <path
       id="path50"
       d="M 28.3468,198.42766 V 184.25424"
       style="fill:none;stroke:#000000;stroke-width:0.3985;stroke-linecap:butt;stroke-linejoin:miter;stroke-miterlimit:10;stroke-dasharray:none;stroke-opacity:1"
       transform="matrix(1.3333333,0,0,-1.3333333,208.24533,322.88933)" />
  </g>
</svg>
