<?xml version="1.0" encoding="UTF-8" standalone="no"?>
<!-- Created with Inkscape (http://www.inkscape.org/) -->

<svg
   version="1.1"
   id="svg1"
   width="604.73193"
   height="340.16162"
   viewBox="0 0 604.73193 340.16162"
   sodipodi:docname="i2c_png (5).pdf"
   xmlns:inkscape="http://www.inkscape.org/namespaces/inkscape"
   xmlns:sodipodi="http://sodipodi.sourceforge.net/DTD/sodipodi-0.dtd"
   xmlns="http://www.w3.org/2000/svg"
   xmlns:svg="http://www.w3.org/2000/svg">
  <defs
     id="defs1" />
  <sodipodi:namedview
     id="namedview1"
     pagecolor="#ffffff"
     bordercolor="#000000"
     borderopacity="0.25"
     inkscape:showpageshadow="2"
     inkscape:pageopacity="0.0"
     inkscape:pagecheckerboard="0"
     inkscape:deskcolor="#d1d1d1">
    <inkscape:page
       x="0"
       y="0"
       width="604.73193"
       height="340.16162"
       id="page2"
       margin="0"
       bleed="0" />
  </sodipodi:namedview>
  <g
     id="g1"
     inkscape:groupmode="layer"
     inkscape:label="1"
     transform="translate(-13.279365,-13.280508)">
    <path
       id="path1"
       d="M -226.77448,-127.56062 V 127.56062 H 226.77448 V -127.56062 Z"
       style="fill:#ffffff;fill-opacity:1;fill-rule:nonzero;stroke:none"
       transform="matrix(1.3333333,0,0,-1.3333333,315.64533,183.36133)" />
    <path
       id="path2"
       d="m -74.58536,28.3468 h -111.62025 c -4.40187,0 -7.97022,-3.56833 -7.97022,-7.97021 v -40.75318 c 0,-4.40188 3.56835,-7.97021 7.97022,-7.97021 h 111.62025 c 4.40189,0 7.97022,3.56833 7.97022,7.97021 v 40.75318 c 0,4.40188 -3.56833,7.97021 -7.97022,7.97021 z"
       style="fill:#e6ffe6;fill-opacity:1;fill-rule:nonzero;stroke:#000000;stroke-width:1.19553;stroke-linecap:butt;stroke-linejoin:miter;stroke-miterlimit:10;stroke-dasharray:none;stroke-opacity:1"
       transform="matrix(1.3333333,0,0,-1.3333333,315.64533,183.36133)" />
    <path
       id="path3"
       d="M 3.3052266,-9.5281562 C 3.1997578,-9.7976875 3.1880391,-9.7976875 2.8599141,-9.7976875 H 0.63335156 v 0.421875 h 0.28125 c 1.03125004,0 1.07812504,0.140625 1.07812504,0.6679688 v 7.2304687 c 0,0.3867188 0,1.06640625 -1.35937504,1.06640625 V -8.125e-4 C 1.0083516,-0.02425 1.7700703,-0.02425 2.1685078,-0.02425 c 0.3984375,0 1.1601563,0 1.5351563,0.0234375 v -0.41015625 c -1.359375,0 -1.359375,-0.67968745 -1.359375,-1.06640625 V -9.3055 h 0.011719 l 3.4570313,9.03515625 C 5.8716328,-0.118 5.9067891,-8.125e-4 6.0591328,-8.125e-4 c 0.1289063,0 0.1523438,-0.0703125 0.234375,-0.28125 l 3.4921875,-9.09375 h 0.011719 v 8.2851563 c 0,0.5273437 -0.046875,0.67968745 -1.078125,0.67968745 h -0.28125 V -8.125e-4 C 8.7661641,-0.02425 9.9146016,-0.02425 10.324758,-0.02425 c 0.421875,0 1.570312,0 1.898437,0.0234375 v -0.41015625 h -0.292968 c -1.03125,0 -1.066407,-0.15234375 -1.066407,-0.67968745 v -7.6171875 c 0,-0.5273438 0.03516,-0.6679688 1.066407,-0.6679688 h 0.292968 v -0.421875 H 9.9966328 c -0.3164062,0 -0.328125,0.011719 -0.4453125,0.28125 L 6.4224141,-1.3484687 Z M 15.36675,-8.83675 c 0,-0.375 -0.304687,-0.703125 -0.703125,-0.703125 -0.375,0 -0.691406,0.3046875 -0.691406,0.6914063 0,0.4335937 0.351562,0.703125 0.691406,0.703125 0.445313,0 0.703125,-0.375 0.703125,-0.6914063 z m -1.980469,2.671875 v 0.4101563 c 0.914063,0 1.042969,0.09375 1.042969,0.7851562 v 3.9023438 c 0,0.65624995 -0.152344,0.65624995 -1.089844,0.65624995 V -8.125e-4 C 13.749563,-0.02425 14.42925,-0.02425 14.851125,-0.02425 c 0.152344,0 0.984375,0 1.476563,0.0234375 v -0.41015625 c -0.9375,0 -0.984375,-0.0820313 -0.984375,-0.63281245 v -5.2851563 z m 7.40625,2.3671875 c 0,-0.023437 -0.105468,-0.1289062 -0.105468,-0.1523437 0,-0.035156 0.902343,-0.8085938 1.019531,-0.9257813 0.996094,-0.8671875 1.617187,-0.8789062 1.921875,-0.890625 v -0.421875 c -0.28125,0.035156 -0.65625,0.035156 -1.089844,0.035156 -0.375,0 -1.101562,0 -1.429687,-0.035156 v 0.421875 c 0.234375,0.011719 0.410156,0.140625 0.410156,0.375 0,0.28125 -0.28125,0.5390625 -0.304688,0.5390625 l -2.050781,1.8164063 v -6.9140625 l -1.992187,0.1523437 v 0.421875 c 0.984375,0 1.089843,0.09375 1.089843,0.796875 v 7.5117188 c 0,0.65624995 -0.152343,0.65624995 -1.089843,0.65624995 V -8.125e-4 C 17.581594,-0.02425 18.261281,-0.02425 18.694875,-0.02425 c 0.433594,0 1.113281,0 1.523438,0.0234375 v -0.41015625 c -0.925782,0 -1.089844,0 -1.089844,-0.65624995 v -1.5117188 l 0.914062,-0.8085937 1.382813,1.9804687 c 0.210937,0.3046875 0.316406,0.45703125 0.316406,0.65625 0,0.2578125 -0.210937,0.33984375 -0.503906,0.33984375 V -8.125e-4 C 21.589406,-0.02425 22.292531,-0.02425 22.67925,-0.02425 c 0.621094,0 0.644531,0 1.265625,0.0234375 v -0.41015625 c -0.386719,0 -0.832031,0 -1.230469,-0.59765625 z m 5.786133,0.4570313 c 0,-1.3945313 0.574219,-2.6953125 1.6875,-2.6953125 0.105469,0 0.140625,0 0.199219,0.011719 -0.117188,0.058594 -0.351563,0.140625 -0.351563,0.5273438 0,0.421875 0.339844,0.5742187 0.5625,0.5742187 0.292969,0 0.574219,-0.1875 0.574219,-0.5742187 0,-0.4335938 -0.386719,-0.8320313 -1.007812,-0.8320313 -1.21875,0 -1.628907,1.3242188 -1.710938,1.59375 h -0.02344 v -1.59375 l -1.921875,0.1640625 v 0.4101563 c 0.984375,0 1.089843,0.1054687 1.089843,0.8085937 v 3.8789063 c 0,0.65624995 -0.152343,0.65624995 -1.089843,0.65624995 V -8.125e-4 C 24.996633,-0.02425 25.781789,-0.02425 26.215383,-0.02425 c 0.386719,0 1.40625,0 1.734375,0.0234375 v -0.41015625 h -0.292969 c -1.042969,0 -1.078125,-0.1640625 -1.078125,-0.67968745 z m 9.65918,0.2695312 c 0,-1.8515625 -1.40625,-3.328125 -3.070313,-3.328125 -1.722656,0 -3.082031,1.5234375 -3.082031,3.328125 0,1.8398438 1.429688,3.2109375 3.070313,3.2109375 1.6875,0 3.082031,-1.40625 3.082031,-3.2109375 z m -3.070313,2.89453125 c -0.527343,0 -1.171875,-0.22265625 -1.59375,-0.92578125 -0.386718,-0.6445312 -0.398437,-1.5 -0.398437,-2.0976562 0,-0.5390625 0,-1.4179688 0.445312,-2.0625 0.398438,-0.6210938 1.03125,-0.84375 1.535157,-0.84375 0.550781,0 1.160156,0.2578125 1.546875,0.8085937 0.445312,0.6679688 0.445312,1.5703125 0.445312,2.0976563 0,0.5039062 0,1.3945312 -0.375,2.0625 -0.398437,0.6914062 -1.066406,0.96093745 -1.605469,0.96093745 z m 8.194336,-9.62109375 v 0.421875 c 0.972656,0 1.089844,0.09375 1.089844,0.796875 v 3.1757813 c -0.292969,-0.421875 -0.914063,-0.9257813 -1.792969,-0.9257813 -1.664062,0 -3.09375,1.40625 -3.09375,3.2460938 0,1.8164062 1.359375,3.2226562 2.941406,3.2226562 1.089844,0 1.722657,-0.71484375 1.921875,-0.984375 v 0.984375 l 2.015625,-0.140625 v -0.41015625 c -0.972656,0 -1.089843,-0.10546875 -1.089843,-0.80859375 v -8.7304687 z m 1.066406,8.1210938 c 0,0.2578125 0,0.2929687 -0.199218,0.609375 -0.351563,0.5039062 -0.9375,0.9257812 -1.652344,0.9257812 -0.375,0 -1.921875,-0.140625 -1.921875,-2.9296875 0,-1.03125 0.175781,-1.6054687 0.480469,-2.0742187 0.292968,-0.4453125 0.867187,-0.890625 1.582031,-0.890625 0.890625,0 1.394531,0.6445312 1.535156,0.8671875 0.175781,0.2460937 0.175781,0.28125 0.175781,0.5390625 z m 7.933594,-1.6523438 c 0.316406,0 0.339844,0 0.339844,-0.2695312 0,-1.453125 -0.773438,-2.8007813 -2.507813,-2.8007813 -1.640625,0 -2.894531,1.4765625 -2.894531,3.2578125 0,1.8984375 1.464844,3.28125 3.046875,3.28125 1.710938,0 2.355469,-1.546875 2.355469,-1.8515625 0,-0.082031 -0.07031,-0.140625 -0.152344,-0.140625 -0.117187,0 -0.152344,0.070312 -0.175781,0.140625 -0.375,1.20703125 -1.335938,1.53515625 -1.933594,1.53515625 -0.609375,0 -2.050781,-0.3984375 -2.050781,-2.88281245 V -3.3289375 Z M 46.40093,-3.5984687 c 0.117187,-2.25 1.371093,-2.5078125 1.78125,-2.5078125 1.535156,0 1.617187,2.015625 1.628906,2.5078125 z m 11.094726,0.1171875 c 0,-1.3359375 0,-1.7460938 -0.328125,-2.203125 -0.421875,-0.5507813 -1.089843,-0.6445313 -1.582031,-0.6445313 -1.394531,0 -1.933594,1.1953125 -2.050781,1.4765625 H 53.523 v -1.4765625 l -1.957031,0.1640625 v 0.4101563 c 0.972656,0 1.089844,0.1054687 1.089844,0.8085937 v 3.8789063 c 0,0.65624995 -0.152344,0.65624995 -1.089844,0.65624995 V -8.125e-4 c 0.375,-0.0234375 1.148437,-0.0234375 1.546875,-0.0234375 0.421875,0 1.195312,0 1.570312,0.0234375 v -0.41015625 c -0.925781,0 -1.089843,0 -1.089843,-0.65624995 V -3.727375 c 0,-1.5117187 0.984375,-2.3085937 1.875,-2.3085937 0.890625,0 1.089843,0.7265625 1.089843,1.6054687 v 3.3632813 c 0,0.65624995 -0.152343,0.65624995 -1.089843,0.65624995 V -8.125e-4 c 0.375,-0.0234375 1.148437,-0.0234375 1.546875,-0.0234375 0.421875,0 1.195312,0 1.570312,0.0234375 v -0.41015625 c -0.714844,0 -1.078125,0 -1.089844,-0.43359375 z m 6.914063,0.1523437 c 0.316406,0 0.339844,0 0.339844,-0.2695312 0,-1.453125 -0.773438,-2.8007813 -2.507813,-2.8007813 -1.640625,0 -2.894531,1.4765625 -2.894531,3.2578125 0,1.8984375 1.464844,3.28125 3.046875,3.28125 1.710937,0 2.355469,-1.546875 2.355469,-1.8515625 0,-0.082031 -0.07031,-0.140625 -0.152344,-0.140625 -0.117188,0 -0.152344,0.070312 -0.175781,0.140625 -0.375,1.20703125 -1.335938,1.53515625 -1.933594,1.53515625 -0.609375,0 -2.050781,-0.3984375 -2.050781,-2.88281245 v -0.2695313 z m -3.960938,-0.2695312 c 0.117188,-2.25 1.371094,-2.5078125 1.78125,-2.5078125 1.535157,0 1.617188,2.015625 1.628907,2.5078125 z m 7.122071,-2.1679688 h 2.015625 v -0.421875 h -2.015625 v -2.6367187 h -0.316407 c -0.02344,1.3476562 -0.539062,2.7304687 -1.839843,2.765625 v 0.2929687 h 1.21875 v 3.984375 c 0,1.59375 1.066406,1.921875 1.828125,1.921875 0.902343,0 1.371093,-0.890625 1.371093,-1.921875 V -2.602375 H 69.516164 V -1.8055 c 0,1.03125 -0.410156,1.62890625 -0.972656,1.62890625 -0.972656,0 -0.972656,-1.33593745 -0.972656,-1.57031245 z m 5.522461,-4.1835937 -2.003907,0.1523437 v 0.421875 c 0.984375,0 1.089844,0.09375 1.089844,0.796875 v 7.5117188 c 0,0.65624995 -0.152344,0.65624995 -1.089844,0.65624995 V -8.125e-4 C 71.499563,-0.02425 72.202688,-0.02425 72.624563,-0.02425 c 0.433593,0 1.148437,0 1.558593,0.0234375 v -0.41015625 c -0.925781,0 -1.089843,0 -1.089843,-0.65624995 z m 6.925781,6.6210937 c 0.316406,0 0.339844,0 0.339844,-0.2695312 0,-1.453125 -0.773438,-2.8007813 -2.507813,-2.8007813 -1.640625,0 -2.894531,1.4765625 -2.894531,3.2578125 0,1.8984375 1.464844,3.28125 3.046875,3.28125 1.710937,0 2.355469,-1.546875 2.355469,-1.8515625 0,-0.082031 -0.07031,-0.140625 -0.152344,-0.140625 -0.117188,0 -0.152344,0.070312 -0.175781,0.140625 -0.375,1.20703125 -1.335938,1.53515625 -1.933594,1.53515625 -0.609375,0 -2.050781,-0.3984375 -2.050781,-2.88281245 v -0.2695313 z m -3.960938,-0.2695312 c 0.117188,-2.25 1.371094,-2.5078125 1.78125,-2.5078125 1.535157,0 1.617188,2.015625 1.628907,2.5078125 z m 10.520508,-1.1953125 c 0.386719,-0.9609375 1.054688,-0.9726563 1.335938,-0.9726563 v -0.421875 c -0.421875,0.035156 -0.621094,0.035156 -1.078125,0.035156 -0.328125,0 -0.363282,0 -1.160157,-0.035156 v 0.421875 c 0.527344,0.023437 0.65625,0.3632813 0.65625,0.6210938 0,0.1289062 -0.03516,0.1992187 -0.08203,0.3398437 l -1.464844,3.609375 -1.59375,-3.9023437 c -0.08203,-0.1992188 -0.08203,-0.28125 -0.08203,-0.2929688 0,-0.375 0.492188,-0.375 0.785156,-0.375 v -0.421875 c -0.375,0.035156 -1.078125,0.035156 -1.476562,0.035156 -0.550781,0 -0.574219,0 -1.394531,-0.035156 v 0.421875 c 0.832031,0 0.949218,0.070312 1.136718,0.515625 l 2.132813,5.25 C 83.660697,1.522625 83.660697,1.5460625 83.602104,1.66325 83.367729,2.0968438 82.969291,2.6359063 82.32476,2.6359063 c -0.445313,0 -0.714844,-0.2578125 -0.714844,-0.2578125 0,0 0.503906,-0.058594 0.503906,-0.5625 0,-0.3398438 -0.269531,-0.5273438 -0.527343,-0.5273438 -0.246094,0 -0.550782,0.140625 -0.550782,0.5625 0,0.5390625 0.539063,1.078125 1.289063,1.078125 0.808594,0 1.394531,-0.703125 1.769531,-1.6054687 z M 90.677297,-8.83675 c 0,-0.375 -0.304688,-0.703125 -0.703125,-0.703125 -0.375,0 -0.691406,0.3046875 -0.691406,0.6914063 0,0.4335937 0.351562,0.703125 0.691406,0.703125 0.445312,0 0.703125,-0.375 0.703125,-0.6914063 z m -1.980469,2.671875 v 0.4101563 c 0.914063,0 1.042969,0.09375 1.042969,0.7851562 v 3.9023438 c 0,0.65624995 -0.152344,0.65624995 -1.089844,0.65624995 V -8.125e-4 C 89.060109,-0.02425 89.739797,-0.02425 90.161672,-0.02425 c 0.152344,0 0.984375,0 1.476562,0.0234375 v -0.41015625 c -0.9375,0 -0.984375,-0.0820313 -0.984375,-0.63281245 v -5.2851563 z m 8.578125,0.8554688 c -0.175781,0 -0.703125,0 -0.703125,0.5859375 0,0.3515625 0.246094,0.5859375 0.585938,0.5859375 0.328125,0 0.609375,-0.1992188 0.609375,-0.609375 0,-0.9609375 -1.007813,-1.6523438 -2.167969,-1.6523438 -1.675781,0 -3.011719,1.4882813 -3.011719,3.3046875 0,1.828125 1.371094,3.234375 3,3.234375 1.886719,0 2.320313,-1.7226562 2.320313,-1.8515625 0,-0.1289062 -0.105469,-0.1289062 -0.140625,-0.1289062 -0.128907,0 -0.152344,0.046875 -0.1875,0.2226562 -0.316407,1.01953125 -1.089844,1.44140625 -1.863282,1.44140625 -0.878906,0 -2.039062,-0.76171875 -2.039062,-2.94140625 0,-2.3789062 1.21875,-2.9648437 1.933594,-2.9648437 0.550781,0 1.335937,0.2109375 1.664062,0.7734375 z M 100.8228,-8.83675 c 0,-0.375 -0.30468,-0.703125 -0.70312,-0.703125 -0.375,0 -0.691407,0.3046875 -0.691407,0.6914063 0,0.4335937 0.351563,0.703125 0.691407,0.703125 0.44531,0 0.70312,-0.375 0.70312,-0.6914063 z m -1.980464,2.671875 v 0.4101563 c 0.914062,0 1.042969,0.09375 1.042969,0.7851562 v 3.9023438 c 0,0.65624995 -0.152344,0.65624995 -1.089844,0.65624995 V -8.125e-4 C 99.205617,-0.02425 99.885305,-0.02425 100.30718,-0.02425 c 0.15234,0 0.98437,0 1.47656,0.0234375 v -0.41015625 c -0.9375,0 -0.98437,-0.0820313 -0.98437,-0.63281245 V -6.3289375 Z M 29.013234,21.412273 c 0,-0.03516 0,-0.07031 -0.246093,-0.304687 -1.429688,-1.453125 -2.238282,-3.820313 -2.238282,-6.75 0,-2.777344 0.679688,-5.1796876 2.34375,-6.8671876 0.140625,-0.1289062 0.140625,-0.1640625 0.140625,-0.1992187 0,-0.09375 -0.07031,-0.1171875 -0.128906,-0.1171875 -0.1875,0 -1.359375,1.03125 -2.0625,2.4375 -0.738281,1.4531248 -1.066406,2.9882808 -1.066406,4.7460938 0,1.277344 0.199219,2.988281 0.949219,4.523437 0.84375,1.722657 2.015625,2.648438 2.179687,2.648438 0.05859,0 0.128906,-0.02344 0.128906,-0.117188 z M 33.114797,8.4044609 C 33.009328,8.1349297 32.997609,8.1349297 32.669484,8.1349297 h -2.226562 v 0.421875 h 0.28125 c 1.03125,0 1.078125,0.140625 1.078125,0.6679687 v 7.2304686 c 0,0.386719 0,1.066406 -1.359375,1.066406 v 0.410157 c 0.375,-0.02344 1.136719,-0.02344 1.535156,-0.02344 0.398438,0 1.160156,0 1.535156,0.02344 v -0.410157 c -1.359375,0 -1.359375,-0.679687 -1.359375,-1.066406 V 8.6271172 h 0.01172 l 3.457031,9.0351558 c 0.05859,0.152344 0.09375,0.269532 0.246094,0.269532 0.128906,0 0.152344,-0.07031 0.234375,-0.28125 l 3.492188,-9.0937503 h 0.01172 v 8.2851563 c 0,0.527344 -0.04687,0.679687 -1.078125,0.679687 h -0.28125 v 0.410157 c 0.328125,-0.02344 1.476563,-0.02344 1.886719,-0.02344 0.421875,0 1.570313,0 1.898438,0.02344 V 17.521648 H 41.7398 c -1.03125,0 -1.066406,-0.152343 -1.066406,-0.679687 V 9.2247734 c 0,-0.5273437 0.03516,-0.6679687 1.066406,-0.6679687 h 0.292969 v -0.421875 h -2.226563 c -0.316406,0 -0.328125,0.011719 -0.445312,0.28125 l -3.128907,8.1679683 z m 15.099609,5.6953121 c 0,-0.773437 0,-1.347656 -0.621093,-1.910156 -0.503907,-0.457031 -1.148438,-0.65625 -1.78125,-0.65625 -1.183594,0 -2.085938,0.773438 -2.085938,1.710938 0,0.410156 0.28125,0.609375 0.609375,0.609375 0.339844,0 0.585938,-0.234375 0.585938,-0.585938 0,-0.585937 -0.515625,-0.585937 -0.726563,-0.585937 0.328125,-0.597657 1.007813,-0.855469 1.582031,-0.855469 0.667969,0 1.511719,0.539062 1.511719,1.828125 v 0.574219 c -2.882812,0.04687 -3.972656,1.253906 -3.972656,2.355468 0,1.136719 1.3125,1.488282 2.191406,1.488282 0.949219,0 1.59375,-0.574219 1.863281,-1.253907 0.05859,0.667969 0.503907,1.183594 1.125,1.183594 0.292969,0 1.125,-0.199219 1.125,-1.347656 V 15.857586 H 49.30425 v 0.796875 c 0,0.820312 -0.339844,0.9375 -0.539062,0.9375 -0.550782,0 -0.550782,-0.761719 -0.550782,-0.984375 z m -0.925781,1.804688 c 0,1.40625 -1.042969,1.886719 -1.664062,1.886719 -0.703125,0 -1.289063,-0.515625 -1.289063,-1.207032 0,-1.898437 2.4375,-2.0625 2.953125,-2.097656 z m 7.116211,-4.042969 c 0,-0.257812 0,-0.328125 -0.140625,-0.328125 -0.117188,0 -0.386719,0.316406 -0.480469,0.445313 -0.445312,-0.363282 -0.890625,-0.445313 -1.347656,-0.445313 -1.746094,0 -2.261719,0.949219 -2.261719,1.734375 0,0.164063 0,0.667969 0.550781,1.160156 0.457032,0.410157 0.949219,0.503907 1.605469,0.632813 0.785156,0.164062 0.972656,0.199219 1.335938,0.492187 0.257812,0.210938 0.445312,0.527344 0.445312,0.925782 0,0.621093 -0.363281,1.3125 -1.628906,1.3125 -0.9375,0 -1.628906,-0.550782 -1.945313,-1.980469 -0.05859,-0.257813 -0.05859,-0.269531 -0.07031,-0.292969 -0.03516,-0.05859 -0.08203,-0.05859 -0.128906,-0.05859 -0.164063,0 -0.164063,0.08203 -0.164063,0.339844 v 1.945313 c 0,0.257812 0,0.328125 0.152344,0.328125 0.07031,0 0.08203,-0.01172 0.328125,-0.316407 0.07031,-0.09375 0.07031,-0.128906 0.28125,-0.351562 0.550781,0.667969 1.324219,0.667969 1.570312,0.667969 1.5,0 2.25,-0.832032 2.25,-1.957032 0,-0.785156 -0.480468,-1.242187 -0.609375,-1.371093 -0.515625,-0.445313 -0.902343,-0.527344 -1.839843,-0.703125 -0.433594,-0.08203 -1.488282,-0.28125 -1.488282,-1.148438 0,-0.445312 0.304688,-1.101562 1.59375,-1.101562 1.570313,0 1.652344,1.335937 1.6875,1.78125 0.01172,0.117187 0.105469,0.117187 0.152344,0.117187 0.152344,0 0.152344,-0.07031 0.152344,-0.328125 z m 3.254883,0.304688 h 2.015625 V 11.744305 H 57.659719 V 9.1075859 h -0.316406 c -0.02344,1.3476561 -0.539063,2.7304691 -1.839844,2.7656251 v 0.292969 h 1.21875 v 3.984375 c 0,1.59375 1.066406,1.921875 1.828125,1.921875 0.902344,0 1.371094,-0.890625 1.371094,-1.921875 v -0.820313 h -0.316407 v 0.796875 c 0,1.03125 -0.410156,1.628906 -0.972656,1.628906 -0.972656,0 -0.972656,-1.335937 -0.972656,-1.570312 z m 8.545898,2.4375 c 0.316406,0 0.339844,0 0.339844,-0.269532 0,-1.453125 -0.773438,-2.800781 -2.507813,-2.800781 -1.640625,0 -2.894531,1.476563 -2.894531,3.257813 0,1.898437 1.464844,3.28125 3.046875,3.28125 1.710938,0 2.355469,-1.546875 2.355469,-1.851563 0,-0.08203 -0.07031,-0.140625 -0.152344,-0.140625 -0.117187,0 -0.152344,0.07031 -0.175781,0.140625 -0.375,1.207031 -1.335938,1.535156 -1.933594,1.535156 -0.609375,0 -2.050781,-0.398437 -2.050781,-2.882812 V 14.60368 Z M 62.24468,14.334148 c 0.117187,-2.25 1.371093,-2.507812 1.78125,-2.507812 1.535156,0 1.617187,2.015625 1.628906,2.507812 z m 7.098633,0.257813 c 0,-1.394531 0.574218,-2.695313 1.6875,-2.695313 0.105468,0 0.140625,0 0.199218,0.01172 -0.117187,0.05859 -0.351562,0.140625 -0.351562,0.527344 0,0.421875 0.339844,0.574219 0.5625,0.574219 0.292969,0 0.574219,-0.1875 0.574219,-0.574219 0,-0.433594 -0.386719,-0.832031 -1.007813,-0.832031 -1.21875,0 -1.628906,1.324218 -1.710937,1.59375 H 69.273 v -1.59375 l -1.921875,0.164062 v 0.410156 c 0.984375,0 1.089844,0.105469 1.089844,0.808594 v 3.878906 c 0,0.65625 -0.152344,0.65625 -1.089844,0.65625 v 0.410157 c 0.410156,-0.02344 1.195313,-0.02344 1.628906,-0.02344 0.386719,0 1.40625,0 1.734375,0.02344 v -0.410157 h -0.292968 c -1.042969,0 -1.078125,-0.164062 -1.078125,-0.679687 z m 7.11621,-0.234375 c 0,-1.089844 -0.140625,-2.871094 -0.949218,-4.5351563 -0.84375,-1.7109375 -2.015625,-2.6484375 -2.179688,-2.6484375 -0.05859,0 -0.128906,0.023437 -0.128906,0.1171875 0,0.035156 0,0.070312 0.246094,0.3164062 1.441406,1.4414063 2.238281,3.8085941 2.238281,6.7382811 0,2.777344 -0.667969,5.179688 -2.332031,6.867188 -0.152344,0.128906 -0.152344,0.164062 -0.152344,0.199218 0,0.09375 0.07031,0.117188 0.128906,0.117188 0.1875,0 1.371094,-1.03125 2.074219,-2.4375 0.726562,-1.464844 1.054687,-3.011719 1.054687,-4.734375 z m 0,0"
       style="fill:#000000;fill-opacity:1;fill-rule:nonzero;stroke:none"
       aria-label="Mikrodenetleyici&#10;(Master)"
       transform="matrix(1.3333333,0,0,1.3333333,73.636,175.65733)" />
    <path
       id="path4"
       d="M 183.37076,28.3468 H 71.7505 c -4.40188,0 -7.97021,-3.56833 -7.97021,-7.97021 v -40.75318 c 0,-4.40188 3.56833,-7.97021 7.97021,-7.97021 h 111.62026 c 4.40188,0 7.97021,3.56833 7.97021,7.97021 v 40.75318 c 0,4.40188 -3.56833,7.97021 -7.97021,7.97021 z"
       style="fill:#f9f2ec;fill-opacity:1;fill-rule:nonzero;stroke:#000000;stroke-width:1.19553;stroke-linecap:butt;stroke-linejoin:miter;stroke-miterlimit:10;stroke-dasharray:none;stroke-opacity:1"
       transform="matrix(1.3333333,0,0,-1.3333333,315.64533,183.36133)" />
    <path
       id="path5"
       d="M 7.6303438,-3.0596953 H 7.3608125 c -0.28125,1.8632812 -0.5742187,2.70703124 -2.5898437,2.70703124 H 3.1420625 c -0.5273437,0 -0.5507812,-0.0820313 -0.5507812,-0.46875 V -4.0557891 H 3.681125 c 1.1484375,0 1.2773438,0.375 1.2773438,1.40625 H 5.228 V -5.8018828 H 4.9584688 c 0,1.03125 -0.1289063,1.40625 -1.2773438,1.40625 H 2.5912813 v -2.9179688 c 0,-0.3984375 0.023437,-0.4804687 0.5507812,-0.4804687 h 1.59375 c 1.7578125,0 2.1210938,0.5976562 2.3085938,2.3203125 H 7.3022188 L 6.9975313,-8.1456328 H 0.493625 v 0.3515625 H 0.728 c 0.8671875,0 0.9023438,0.1171875 0.9023438,0.5625 v 6.31640624 c 0,0.4453125 -0.035156,0.5625 -0.9023438,0.5625 H 0.493625 v 0.3515625 h 6.65625 z m 7.9628902,0 h -0.269531 c -0.28125,1.8632812 -0.574219,2.70703124 -2.589844,2.70703124 h -1.628906 c -0.527344,0 -0.550781,-0.0820313 -0.550781,-0.46875 V -4.0557891 h 1.089844 c 1.148437,0 1.277343,0.375 1.277343,1.40625 h 0.269532 v -3.1523437 h -0.269532 c 0,1.03125 -0.128906,1.40625 -1.277343,1.40625 h -1.089844 v -2.9179688 c 0,-0.3984375 0.02344,-0.4804687 0.550781,-0.4804687 h 1.59375 c 1.757813,0 2.121094,0.5976562 2.308594,2.3203125 h 0.257812 l -0.304687,-2.671875 H 8.4565156 v 0.3515625 h 0.234375 c 0.8671875,0 0.9023438,0.1171875 0.9023438,0.5625 v 6.31640624 c 0,0.4453125 -0.035156,0.5625 -0.9023438,0.5625 h -0.234375 v 0.3515625 h 6.6562504 z m 2.938477,-0.7382813 h 2.027344 c 1.394531,0 2.671875,-0.9492187 2.671875,-2.15625 0,-1.1601562 -1.160157,-2.2148437 -2.765625,-2.2148437 h -4.03125 v 0.3515625 h 0.234375 c 0.867187,0 0.902343,0.1171875 0.902343,0.5625 v 6.33984374 c 0,0.4453125 -0.03516,0.5625 -0.902343,0.5625 h -0.234375 v 0.3515625 c 0.28125,-0.0234375 1.265625,-0.0234375 1.617187,-0.0234375 0.351563,0 1.335938,0 1.617188,0.0234375 v -0.3515625 h -0.234375 c -0.867188,0 -0.902344,-0.1171875 -0.902344,-0.5625 z m -0.02344,-0.2929687 v -3.2460938 c 0,-0.3984375 0.02344,-0.4804687 0.550782,-0.4804687 h 1.125 c 1.933593,0 1.933593,1.3476562 1.933593,1.8632812 0,0.5039063 0,1.8632813 -1.945312,1.8632813 z m 10.423829,0.023437 c 1.183593,-0.2695313 2.109375,-1.03125 2.109375,-1.9453125 0,-1.1601563 -1.347657,-2.15625 -3.070313,-2.15625 h -3.574219 v 0.3515625 h 0.234375 c 0.867188,0 0.902344,0.1171875 0.902344,0.5625 v 6.33984374 c 0,0.4453125 -0.03516,0.5625 -0.902344,0.5625 h -0.234375 v 0.3515625 c 0.269532,-0.0234375 1.253907,-0.0234375 1.605469,-0.0234375 0.339844,0 1.335938,0 1.605469,0.0234375 v -0.3515625 h -0.234375 c -0.867188,0 -0.902344,-0.1171875 -0.902344,-0.5625 V -3.9737578 h 1.394531 c 0.457032,0 0.902344,0.140625 1.230469,0.46875 0.398438,0.4570312 0.398438,0.703125 0.398438,1.5351562 0,0.9375 0,1.25390629 0.527343,1.76953129 0.1875,0.17578125 0.679688,0.4453125 1.359375,0.4453125 0.925782,0 1.078125,-1.03125 1.078125,-1.28906249 0,-0.070312 0,-0.1757813 -0.128906,-0.1757813 -0.117187,0 -0.117187,0.070312 -0.128906,0.1875 -0.05859,0.71484379 -0.410156,1.04296879 -0.785156,1.04296879 -0.550782,0 -0.679688,-0.5625 -0.773438,-1.19531249 -0.01172,-0.082031 -0.08203,-0.5976563 -0.117187,-0.890625 -0.08203,-0.5976563 -0.128907,-0.984375 -0.492188,-1.359375 -0.128906,-0.1289063 -0.433594,-0.4570313 -1.101562,-0.632813 z m -1.113282,-0.140625 h -1.347656 v -3.1289063 c 0,-0.28125 0,-0.421875 0.257813,-0.46875 0.105468,-0.011719 0.46875,-0.011719 0.703125,-0.011719 0.972656,0 2.496093,0 2.496093,1.8046875 0,1.0429687 -0.5625,1.8046875 -2.109375,1.8046878 z m 12.817383,0.1523437 c 0,-2.4726562 -1.816406,-4.359375 -3.890625,-4.359375 -2.132812,0 -3.914062,1.9101563 -3.914062,4.359375 0,2.4257813 1.804687,4.30078129 3.902343,4.30078129 2.132813,0 3.902344,-1.89843749 3.902344,-4.30078129 z m -3.890625,4.03125004 c -1.21875,0 -2.800781,-1.14843754 -2.800781,-4.20703124 0,-2.9296875 1.664062,-3.9257813 2.789062,-3.9257813 1.183594,0 2.789063,1.03125 2.789063,3.9257813 0,3.1054687 -1.617188,4.20703124 -2.777344,4.20703124 z M 44.04343,-7.9346953 c -0.09375,-0.234375 -0.105469,-0.234375 -0.375,-0.234375 h -1.851563 v 0.3515625 h 0.234375 c 0.867188,0 0.902344,0.1171875 0.902344,0.5625 v 6.0234375 c 0,0.31640624 0,0.87890624 -1.136719,0.87890624 v 0.3515625 c 0.304688,-0.0234375 0.9375,-0.0234375 1.277344,-0.0234375 0.339844,0 0.972656,0 1.277344,0.0234375 v -0.3515625 c -1.136719,0 -1.136719,-0.5625 -1.136719,-0.87890624 v -6.5273438 h 0.01172 l 2.882812,7.53515629 c 0.04687,0.12890625 0.08203,0.22265625 0.199219,0.22265625 0.117187,0 0.140625,-0.05859375 0.210937,-0.234375 l 2.90625,-7.58203124 h 0.01172 v 6.90234374 c 0,0.4453125 -0.03516,0.5625 -0.902344,0.5625 h -0.234375 v 0.3515625 c 0.269532,-0.0234375 1.230469,-0.0234375 1.570313,-0.0234375 0.351562,0 1.3125,0 1.582031,0.0234375 v -0.3515625 h -0.234375 c -0.867187,0 -0.902344,-0.1171875 -0.902344,-0.5625 V -7.2550078 c 0,-0.4453125 0.03516,-0.5625 0.902344,-0.5625 h 0.234375 v -0.3515625 h -1.851562 c -0.257813,0 -0.28125,0.011719 -0.375,0.2460937 l -2.601563,6.796875 z m 12.386718,-0.234375 v 0.3515625 h 0.234375 c 0.867188,0 0.902344,0.1171875 0.902344,0.5625 v 6.33984374 c 0,0.4453125 -0.03516,0.5625 -0.902344,0.5625 h -0.234375 v 0.3515625 h 4.488282 c 1.546875,0 2.625,-1.04296874 2.625,-2.19140624 0,-0.9609375 -0.878907,-1.921875 -2.296875,-2.0742188 1.136718,-0.2226562 1.957031,-0.984375 1.957031,-1.875 0,-1.03125 -1.042969,-2.0273437 -2.601563,-2.0273437 z m 2.039063,3.8085937 v -2.9765625 c 0,-0.3984375 0.02344,-0.4804687 0.550781,-0.4804687 h 1.511719 c 1.195312,0 1.617187,1.03125 1.617187,1.6757812 0,0.7851563 -0.621093,1.78125 -1.945312,1.78125 z m 0.550781,4.00781254 c -0.527344,0 -0.550781,-0.0820313 -0.550781,-0.46875 V -4.1261016 h 2.238281 c 1.148438,0 1.746094,1.0078125 1.746094,1.921875 0,0.9726563 -0.726563,1.85156254 -1.898438,1.85156254 z M 68.78757,-2.7784453 c 0.257813,0 0.28125,0 0.28125,-0.2226563 0,-1.2070312 -0.644531,-2.3320312 -2.085937,-2.3320312 -1.371094,0 -2.414063,1.2304687 -2.414063,2.71875 0,1.5703125 1.21875,2.73046874 2.542969,2.73046874 1.417969,0 1.957031,-1.28906254 1.957031,-1.53515624 0,-0.082031 -0.05859,-0.1289063 -0.128906,-0.1289063 -0.09375,0 -0.117187,0.070312 -0.140625,0.1289063 -0.316406,0.99609374 -1.113281,1.27734374 -1.617187,1.27734374 -0.503907,0 -1.710938,-0.33984375 -1.710938,-2.40234374 v -0.234375 z m -3.304687,-0.2226563 c 0.09375,-1.875 1.148437,-2.0976562 1.488281,-2.0976562 1.277344,0 1.347656,1.6875 1.359375,2.0976562 z m 5.973633,-5.296875 -1.652344,0.1289063 v 0.3515625 c 0.808594,0 0.902344,0.082031 0.902344,0.6679687 v 6.26953129 c 0,0.52734375 -0.128907,0.52734375 -0.902344,0.52734375 v 0.3515625 c 0.328125,-0.0234375 0.914062,-0.0234375 1.277344,-0.0234375 0.351562,0 0.949218,0 1.289062,0.0234375 v -0.3515625 c -0.761719,0 -0.914062,0 -0.914062,-0.52734375 z m 3.251953,0 -1.652344,0.1289063 v 0.3515625 c 0.808594,0 0.902344,0.082031 0.902344,0.6679687 v 6.26953129 c 0,0.52734375 -0.128906,0.52734375 -0.902344,0.52734375 v 0.3515625 c 0.328125,-0.0234375 0.914063,-0.0234375 1.277344,-0.0234375 0.351562,0 0.949219,0 1.289062,0.0234375 v -0.3515625 c -0.761718,0 -0.914062,0 -0.914062,-0.52734375 z m 5.783203,5.5195313 c 0.257812,0 0.28125,0 0.28125,-0.2226563 0,-1.2070312 -0.644531,-2.3320312 -2.085938,-2.3320312 -1.371093,0 -2.414062,1.2304687 -2.414062,2.71875 0,1.5703125 1.21875,2.73046874 2.542969,2.73046874 1.417968,0 1.957031,-1.28906254 1.957031,-1.53515624 0,-0.082031 -0.05859,-0.1289063 -0.128906,-0.1289063 -0.09375,0 -0.117188,0.070312 -0.140625,0.1289063 -0.316407,0.99609374 -1.113282,1.27734374 -1.617188,1.27734374 -0.503906,0 -1.710937,-0.33984375 -1.710937,-2.40234374 v -0.234375 z m -3.304688,-0.2226563 c 0.09375,-1.875 1.148438,-2.0976562 1.488282,-2.0976562 1.277343,0 1.347656,1.6875 1.359375,2.0976562 z m 7.277344,-0.1640625 c 0,-0.011719 -0.09375,-0.1054687 -0.09375,-0.1289062 0,-0.035156 0.761719,-0.6796875 0.855469,-0.7734375 0.820312,-0.7148438 1.347656,-0.7265625 1.605469,-0.7382813 v -0.3515625 c -0.246094,0.023437 -0.550782,0.023437 -0.914063,0.023437 -0.304687,0 -0.914062,0 -1.195312,-0.023437 v 0.3515625 c 0.199218,0.011719 0.351562,0.1171875 0.351562,0.3046875 0,0.2460938 -0.246094,0.4570313 -0.257812,0.4570313 l -1.710938,1.5117187 v -5.765625 l -1.652344,0.1289063 v 0.3515625 c 0.808594,0 0.902344,0.082031 0.902344,0.6679687 v 6.26953129 c 0,0.52734375 -0.128906,0.52734375 -0.902344,0.52734375 v 0.3515625 c 0.328125,-0.0234375 0.902344,-0.0234375 1.265625,-0.0234375 0.351563,0 0.925782,0 1.265625,0.0234375 v -0.3515625 c -0.761718,0 -0.914062,0 -0.914062,-0.52734375 V -2.1573516 l 0.773437,-0.6679687 1.136719,1.6523437 c 0.1875,0.24609379 0.269531,0.38671879 0.269531,0.55078129 0,0.2109375 -0.164062,0.26953125 -0.421875,0.26953125 v 0.3515625 c 0.304688,-0.0234375 0.890625,-0.0234375 1.207032,-0.0234375 0.515625,0 0.539062,0 1.054687,0.0234375 v -0.3515625 c -0.328125,0 -0.691406,0 -1.03125,-0.48046875 z m 0,0"
       style="fill:#000000;fill-opacity:1;fill-rule:nonzero;stroke:none"
       aria-label="EEPROMBellek"
       transform="matrix(1.3333333,0,0,1.3333333,427.52933,188.896)" />
    <path
       id="path6"
       d="M 183.37076,100.40933 H 71.7505 c -4.40188,0 -7.97021,-3.56833 -7.97021,-7.97021 V 51.68593 c 0,-4.40189 3.56833,-7.97022 7.97021,-7.97022 h 111.62026 c 4.40188,0 7.97021,3.56833 7.97021,7.97022 v 40.75319 c 0,4.40188 -3.56833,7.97021 -7.97021,7.97021 z"
       style="fill:#e6e6ff;fill-opacity:1;fill-rule:nonzero;stroke:#000000;stroke-width:1.19553;stroke-linecap:butt;stroke-linejoin:miter;stroke-miterlimit:10;stroke-dasharray:none;stroke-opacity:1"
       transform="matrix(1.3333333,0,0,-1.3333333,315.64533,183.36133)" />
    <path
       id="path7"
       d="m 2.4830703,-4.9791641 c -0.609375,-0.1640625 -1.1484375,-0.7617187 -1.1484375,-1.5234375 0,-0.8320312 0.6679688,-1.59375 1.6054688,-1.59375 1.9570312,0 2.2265625,1.9453125 2.296875,2.4609375 0.023437,0.140625 0.023437,0.1875 0.140625,0.1875 0.1289062,0 0.1289062,-0.058594 0.1289062,-0.28125 v -2.4140625 c 0,-0.2109375 0,-0.2695312 -0.1171875,-0.2695312 -0.035156,0 -0.082031,0 -0.1640625,0.1523437 l -0.3984375,0.7265625 c -0.5742187,-0.7382812 -1.359375,-0.8789062 -1.8867187,-0.8789062 -1.3242188,0 -2.29687504,1.0664062 -2.29687504,2.2851562 0,0.5742188 0.19921875,1.1015625 0.64453124,1.5703125 0.421875,0.46875 0.84375,0.5742188 1.6875,0.796875 0.421875,0.09375 1.078125,0.2578125 1.2421875,0.328125 0.5625,0.28125 0.9375,0.9257813 0.9375,1.59375 0,0.89062504 -0.6328125,1.74609379 -1.6289062,1.74609379 -0.5390625,0 -1.2773438,-0.12890625 -1.8632813,-0.64453125 C 0.97135156,-1.3580703 0.92447656,-2.2252578 0.91275781,-2.6119766 c -0.0117188,-0.1054687 -0.1171875,-0.1054687 -0.140625,-0.1054687 -0.12890625,0 -0.12890625,0.070312 -0.12890625,0.28125 v 2.41406249 c 0,0.2109375 0,0.26953125 0.1171875,0.26953125 0.0703125,0 0.0820313,-0.0234375 0.17578125,-0.1640625 0.046875,-0.09375 0.29296879,-0.5390625 0.38671879,-0.71484375 0.4335937,0.48046875 1.1835937,0.87890625 2.2148437,0.87890625 1.3359375,0 2.3085938,-1.125 2.3085938,-2.44921874 0,-0.7265625 -0.28125,-1.265625 -0.5976563,-1.6523438 -0.4453125,-0.5390625 -0.984375,-0.6796875 -1.453125,-0.796875 z m 6.0703125,-0.2929687 -1.6171875,0.1289062 v 0.3515625 c 0.7617188,0 0.8671875,0.070312 0.8671875,0.65625 v 3.25781254 c 0,0.52734375 -0.1289062,0.52734375 -0.9023437,0.52734375 v 0.3515625 c 0.328125,-0.0234375 0.9023437,-0.0234375 1.2539062,-0.0234375 0.1289063,0 0.8203125,0 1.2304688,0.0234375 v -0.3515625 c -0.7734375,0 -0.8320313,-0.0585938 -0.8320313,-0.515625 z m 5.5253902,0.8554687 c -0.140625,0 -0.585937,0 -0.585937,0.4804688 0,0.2929687 0.210937,0.4921875 0.492187,0.4921875 0.28125,0 0.503907,-0.1640625 0.503907,-0.515625 0,-0.796875 -0.832032,-1.3710938 -1.804688,-1.3710938 -1.394531,0 -2.507812,1.2421875 -2.507812,2.7539063 0,1.5234375 1.148437,2.69531249 2.496093,2.69531249 1.582032,0 1.933594,-1.42968749 1.933594,-1.53515629 0,-0.1171875 -0.08203,-0.1171875 -0.117187,-0.1171875 -0.105469,0 -0.117188,0.035156 -0.152344,0.1875 -0.269531,0.84375004 -0.914063,1.20703129 -1.558594,1.20703129 -0.726562,0 -1.699219,-0.6328125 -1.699219,-2.44921879 0,-1.9921875 1.019532,-2.4726562 1.617188,-2.4726562 0.457031,0 1.113281,0.1757812 1.382812,0.6445312 z m 5.496094,1.2304688 c 0,-0.6445313 0,-1.125 -0.527344,-1.59375 -0.421875,-0.3867188 -0.960937,-0.5507813 -1.488281,-0.5507813 -0.972656,0 -1.734375,0.6445313 -1.734375,1.4179688 0,0.3515625 0.234375,0.515625 0.503906,0.515625 0.292969,0 0.492188,-0.1992188 0.492188,-0.4921875 0,-0.4804688 -0.433594,-0.4804688 -0.609375,-0.4804688 0.28125,-0.5039062 0.855469,-0.7265625 1.324219,-0.7265625 0.550781,0 1.253906,0.4570313 1.253906,1.5351563 v 0.4804687 c -2.402344,0.035156 -3.304688,1.0429688 -3.304688,1.9570313 0,0.94921874 1.101563,1.24218749 1.828125,1.24218749 0.785157,0 1.324219,-0.48046875 1.558594,-1.0546875 0.04687,0.5625 0.410156,0.99609375 0.925781,0.99609375 0.257813,0 0.949219,-0.1640625 0.949219,-1.12500004 v -0.6679687 h -0.269531 v 0.6679687 c 0,0.67968754 -0.28125,0.78515629 -0.457031,0.78515629 -0.445313,0 -0.445313,-0.64453125 -0.445313,-0.82031249 z m -0.785156,1.5 c 0,1.17187499 -0.867188,1.57031249 -1.382813,1.57031249 -0.585937,0 -1.078125,-0.43359375 -1.078125,-1.00781249 0,-1.5820313 2.039063,-1.7226563 2.460938,-1.7460938 z m 5.373047,-1.4765625 c 0,-0.011719 -0.09375,-0.1054688 -0.09375,-0.1289063 0,-0.035156 0.761719,-0.6796875 0.855469,-0.7734375 0.820312,-0.7148437 1.347656,-0.7265625 1.605468,-0.7382812 v -0.3515625 c -0.246093,0.023437 -0.550781,0.023437 -0.914062,0.023437 -0.304688,0 -0.914063,0 -1.195313,-0.023437 v 0.3515625 c 0.199219,0.011719 0.351563,0.1171875 0.351563,0.3046875 0,0.2460937 -0.246094,0.4570312 -0.257813,0.4570312 l -1.710937,1.5117188 v -5.765625 l -1.652344,0.1289062 v 0.3515625 c 0.808594,0 0.902344,0.082031 0.902344,0.6679688 v 6.26953124 c 0,0.52734375 -0.128906,0.52734375 -0.902344,0.52734375 v 0.3515625 c 0.328125,-0.0234375 0.902344,-0.0234375 1.265625,-0.0234375 0.351563,0 0.925781,0 1.265625,0.0234375 v -0.3515625 c -0.761719,0 -0.914062,0 -0.914062,-0.52734375 V -2.1549453 l 0.773437,-0.6679688 1.136719,1.6523438 c 0.1875,0.24609374 0.269531,0.38671874 0.269531,0.55078124 0,0.2109375 -0.164062,0.26953125 -0.421875,0.26953125 v 0.3515625 c 0.304688,-0.0234375 0.890625,-0.0234375 1.207031,-0.0234375 0.515625,0 0.539063,0 1.054688,0.0234375 v -0.3515625 c -0.328125,0 -0.691406,0 -1.03125,-0.48046875 z m 4.87793,-5.1328125 -1.652344,0.1289062 v 0.3515625 c 0.808594,0 0.902344,0.082031 0.902344,0.6679688 v 6.26953124 c 0,0.52734375 -0.128907,0.52734375 -0.902344,0.52734375 v 0.3515625 c 0.328125,-0.0234375 0.914062,-0.0234375 1.277344,-0.0234375 0.351562,0 0.949218,0 1.289062,0.0234375 v -0.3515625 c -0.761719,0 -0.914062,0 -0.914062,-0.52734375 z m 3.251953,3.0234375 -1.617188,0.1289062 v 0.3515625 c 0.761719,0 0.867188,0.070312 0.867188,0.65625 v 3.25781254 c 0,0.52734375 -0.128907,0.52734375 -0.902344,0.52734375 v 0.3515625 c 0.328125,-0.0234375 0.902344,-0.0234375 1.253906,-0.0234375 0.128906,0 0.820313,0 1.230469,0.0234375 v -0.3515625 c -0.773438,0 -0.832031,-0.0585938 -0.832031,-0.515625 z m 4.552734,2.109375 c 0,-0.011719 -0.09375,-0.1054688 -0.09375,-0.1289063 0,-0.035156 0.761719,-0.6796875 0.855469,-0.7734375 0.820312,-0.7148437 1.347656,-0.7265625 1.605469,-0.7382812 v -0.3515625 c -0.246094,0.023437 -0.550782,0.023437 -0.914063,0.023437 -0.304687,0 -0.914062,0 -1.195312,-0.023437 v 0.3515625 c 0.199218,0.011719 0.351562,0.1171875 0.351562,0.3046875 0,0.2460937 -0.246094,0.4570312 -0.257812,0.4570312 L 35.486,-2.5299453 v -5.765625 l -1.652344,0.1289062 v 0.3515625 c 0.808594,0 0.902344,0.082031 0.902344,0.6679688 v 6.26953124 c 0,0.52734375 -0.128906,0.52734375 -0.902344,0.52734375 v 0.3515625 c 0.328125,-0.0234375 0.902344,-0.0234375 1.265625,-0.0234375 0.351563,0 0.925782,0 1.265625,0.0234375 v -0.3515625 c -0.761718,0 -0.914062,0 -0.914062,-0.52734375 V -2.1549453 l 0.773437,-0.6679688 1.136719,1.6523438 c 0.1875,0.24609374 0.269531,0.38671874 0.269531,0.55078124 0,0.2109375 -0.164062,0.26953125 -0.421875,0.26953125 v 0.3515625 c 0.304688,-0.0234375 0.890625,-0.0234375 1.207032,-0.0234375 0.515625,0 0.539062,0 1.054687,0.0234375 v -0.3515625 c -0.328125,0 -0.691406,0 -1.03125,-0.48046875 z m 9.208008,-1.8164063 c -0.609375,-0.1640625 -1.148438,-0.7617187 -1.148438,-1.5234375 0,-0.8320312 0.667969,-1.59375 1.605469,-1.59375 1.957031,0 2.226563,1.9453125 2.296875,2.4609375 0.02344,0.140625 0.02344,0.1875 0.140625,0.1875 0.128906,0 0.128906,-0.058594 0.128906,-0.28125 v -2.4140625 c 0,-0.2109375 0,-0.2695312 -0.117187,-0.2695312 -0.03516,0 -0.08203,0 -0.164063,0.1523437 l -0.398437,0.7265625 c -0.574219,-0.7382812 -1.359375,-0.8789062 -1.886719,-0.8789062 -1.324219,0 -2.296875,1.0664062 -2.296875,2.2851562 0,0.5742188 0.199219,1.1015625 0.644531,1.5703125 0.421875,0.46875 0.84375,0.5742188 1.6875,0.796875 0.421875,0.09375 1.078125,0.2578125 1.242188,0.328125 0.5625,0.28125 0.9375,0.9257813 0.9375,1.59375 0,0.89062504 -0.632813,1.74609379 -1.628906,1.74609379 -0.539063,0 -1.277344,-0.12890625 -1.863282,-0.64453125 -0.691406,-0.62109374 -0.738281,-1.48828124 -0.75,-1.87500004 -0.01172,-0.1054687 -0.117187,-0.1054687 -0.140625,-0.1054687 -0.128906,0 -0.128906,0.070312 -0.128906,0.28125 v 2.41406249 c 0,0.2109375 0,0.26953125 0.117188,0.26953125 0.07031,0 0.08203,-0.0234375 0.175781,-0.1640625 0.04687,-0.09375 0.292969,-0.5390625 0.386719,-0.71484375 0.433593,0.48046875 1.183593,0.87890625 2.214843,0.87890625 1.335938,0 2.308594,-1.125 2.308594,-2.44921874 0,-0.7265625 -0.28125,-1.265625 -0.597656,-1.6523438 -0.445313,-0.5390625 -0.984375,-0.6796875 -1.453125,-0.796875 z m 8.601562,2.203125 c 0.257813,0 0.28125,0 0.28125,-0.2226562 0,-1.2070313 -0.644531,-2.3320313 -2.085937,-2.3320313 -1.371094,0 -2.414063,1.2304688 -2.414063,2.71875 0,1.5703125 1.21875,2.73046879 2.542969,2.73046879 1.417969,0 1.957031,-1.28906249 1.957031,-1.53515629 0,-0.082031 -0.05859,-0.1289062 -0.128906,-0.1289062 -0.09375,0 -0.117187,0.070312 -0.140625,0.1289062 -0.316406,0.99609379 -1.113281,1.27734379 -1.617187,1.27734379 -0.503907,0 -1.710938,-0.33984375 -1.710938,-2.40234379 v -0.234375 z m -3.304687,-0.2226562 c 0.09375,-1.875 1.148437,-2.0976563 1.488281,-2.0976563 1.277344,0 1.347656,1.6875 1.359375,2.0976563 z m 9.246094,0.09375 c 0,-1.1132813 0,-1.4414063 -0.28125,-1.828125 -0.339844,-0.46875 -0.902344,-0.5390625 -1.3125,-0.5390625 -1.160157,0 -1.605469,0.9960937 -1.710938,1.2304687 h -0.01172 v -1.2304687 l -1.617187,0.1289062 v 0.3515625 c 0.808594,0 0.902344,0.082031 0.902344,0.6679688 v 3.24609374 c 0,0.52734375 -0.128907,0.52734375 -0.902344,0.52734375 v 0.3515625 c 0.304687,-0.0234375 0.949219,-0.0234375 1.289062,-0.0234375 0.339844,0 0.984375,0 1.300782,0.0234375 v -0.3515625 c -0.761719,0 -0.914063,0 -0.914063,-0.52734375 V -3.1041641 c 0,-1.2539062 0.832031,-1.921875 1.570313,-1.921875 0.738281,0 0.914062,0.609375 0.914062,1.3359375 v 2.81250004 c 0,0.52734375 -0.140625,0.52734375 -0.914062,0.52734375 v 0.3515625 c 0.316406,-0.0234375 0.960937,-0.0234375 1.289062,-0.0234375 0.351563,0 0.996094,0 1.300781,0.0234375 v -0.3515625 c -0.597656,0 -0.890625,0 -0.902343,-0.3515625 z m 5.109375,-2.1445313 c 0,-0.2226562 0,-0.28125 -0.128907,-0.28125 -0.09375,0 -0.316406,0.2695313 -0.398437,0.375 -0.375,-0.3046875 -0.75,-0.375 -1.125,-0.375 -1.453125,0 -1.875,0.7851563 -1.875,1.4414063 0,0.140625 0,0.5507812 0.445312,0.9726562 0.386719,0.3398438 0.796875,0.421875 1.347657,0.5273438 0.65625,0.1289062 0.808593,0.1640625 1.113281,0.4101562 0.210937,0.1757813 0.363281,0.4335938 0.363281,0.7734375 0,0.51562504 -0.292969,1.08984379 -1.347656,1.08984379 -0.785156,0 -1.359375,-0.45703125 -1.628906,-1.65234379 -0.04687,-0.2109375 -0.04687,-0.2226562 -0.05859,-0.234375 -0.02344,-0.046875 -0.07031,-0.046875 -0.105469,-0.046875 -0.128906,0 -0.128906,0.058594 -0.128906,0.2695313 v 1.62890624 c 0,0.2109375 0,0.26953125 0.117187,0.26953125 0.05859,0 0.07031,-0.0117188 0.269532,-0.2578125 0.05859,-0.0820313 0.05859,-0.10546875 0.246093,-0.3046875 0.445313,0.5625 1.101563,0.5625 1.300782,0.5625 1.253906,0 1.875,-0.69140625 1.875,-1.64062499 0,-0.6445313 -0.398438,-1.0195313 -0.503907,-1.125 -0.433593,-0.375 -0.75,-0.4453125 -1.535156,-0.5859375 -0.363281,-0.082031 -1.230469,-0.2460938 -1.230469,-0.9609375 0,-0.375 0.246094,-0.9257813 1.324219,-0.9257813 1.300781,0 1.371094,1.1132813 1.394531,1.4882813 0.01172,0.09375 0.09375,0.09375 0.128907,0.09375 0.140625,0 0.140625,-0.058594 0.140625,-0.2695313 z m 3.035156,-2.34375 c 0,-0.3046875 -0.246094,-0.5507812 -0.550781,-0.5507812 -0.28125,0 -0.550782,0.2109375 -0.550782,0.5507812 0,0.328125 0.269532,0.5507813 0.550782,0.5507813 0.304687,0 0.550781,-0.2578125 0.550781,-0.5507813 z m 2.261719,0 c 0,-0.3398437 -0.269532,-0.5507812 -0.550782,-0.5507812 -0.304687,0 -0.550781,0.2460937 -0.550781,0.5507812 0,0.2929688 0.246094,0.5507813 0.550781,0.5507813 0.28125,0 0.550782,-0.2226563 0.550782,-0.5507813 z m 0.884765,4.8398438 c 0,-1.546875 -1.171875,-2.7773438 -2.554687,-2.7773438 -1.429688,0 -2.566407,1.265625 -2.566407,2.7773438 0,1.5234375 1.195313,2.67187499 2.554688,2.67187499 1.40625,0 2.566406,-1.17187499 2.566406,-2.67187499 z m -2.554687,2.41406249 c -0.445313,0 -0.984375,-0.19921875 -1.324219,-0.78515625 -0.328125,-0.52734374 -0.339844,-1.24218754 -0.339844,-1.73437504 0,-0.4570312 0,-1.1835937 0.375,-1.7226562 0.328125,-0.515625 0.855469,-0.7148438 1.277344,-0.7148438 0.46875,0 0.972656,0.2226563 1.289062,0.6914063 0.375,0.5507812 0.375,1.3007812 0.375,1.7460937 0,0.4101563 0,1.1484375 -0.316406,1.71093754 -0.328125,0.57421875 -0.878906,0.80859375 -1.335937,0.80859375 z m 4.916015,-2.64843749 c 0,-1.1601563 0.480469,-2.2382813 1.40625,-2.2382813 0.09375,0 0.117188,0 0.164063,0.011719 -0.09375,0.046875 -0.292969,0.1171875 -0.292969,0.4335937 0,0.3515625 0.28125,0.4804688 0.46875,0.4804688 0.246094,0 0.480469,-0.1523438 0.480469,-0.4804688 0,-0.3515625 -0.316406,-0.6914062 -0.832031,-0.6914062 -1.019532,0 -1.371094,1.1015625 -1.441407,1.3242187 H 74.1901 v -1.3242187 l -1.59375,0.1289062 v 0.3515625 c 0.808593,0 0.902343,0.082031 0.902343,0.6679688 v 3.24609374 c 0,0.52734375 -0.128906,0.52734375 -0.902343,0.52734375 v 0.3515625 c 0.328125,-0.0234375 0.984375,-0.0234375 1.347656,-0.0234375 0.316406,0 1.171875,0 1.441406,0.0234375 v -0.3515625 h -0.234375 c -0.878906,0 -0.902344,-0.12890625 -0.902344,-0.5625 z m 5.226563,-4.6054688 c 0,-0.3046875 -0.246094,-0.5507812 -0.550781,-0.5507812 -0.28125,0 -0.550782,0.2109375 -0.550782,0.5507812 0,0.328125 0.269532,0.5507813 0.550782,0.5507813 0.304687,0 0.550781,-0.2578125 0.550781,-0.5507813 z m 2.261719,0 c 0,-0.3398437 -0.269532,-0.5507812 -0.550782,-0.5507812 -0.304687,0 -0.550781,0.2460937 -0.550781,0.5507812 0,0.2929688 0.246094,0.5507813 0.550781,0.5507813 0.28125,0 0.550782,-0.2226563 0.550782,-0.5507813 z m -1.297852,2.25 v 0.3515625 c 0.808594,0 0.914063,0.082031 0.914063,0.6679688 v 2.1445312 c 0,1.00781254 -0.539063,1.86328129 -1.441407,1.86328129 -0.972656,0 -1.042968,-0.5625 -1.042968,-1.19531249 v -3.9609375 l -1.675782,0.1289062 v 0.3515625 c 0.902344,0 0.902344,0.035156 0.902344,1.1015625 v 1.7929688 c 0,0.7382812 0,1.17187499 0.363281,1.55859374 0.28125,0.31640625 0.773438,0.45703125 1.382813,0.45703125 0.199219,0 0.585937,0 0.996094,-0.33984375 0.339843,-0.28125 0.539062,-0.73828125 0.539062,-0.73828125 v 1.078125 l 1.652344,-0.1171875 v -0.3515625 c -0.808594,0 -0.902344,-0.0820313 -0.902344,-0.66796879 v -4.2539062 z m 0,0"
       style="fill:#000000;fill-opacity:1;fill-rule:nonzero;stroke:none"
       aria-label="SıcaklıkSens¨or¨u"
       transform="matrix(1.3333333,0,0,1.3333333,430.18533,92.814667)" />
    <path
       id="path8"
       d="M 183.37076,-43.71571 H 71.7505 c -4.40188,0 -7.97021,-3.56833 -7.97021,-7.97022 v -40.75319 c 0,-4.40188 3.56833,-7.97021 7.97021,-7.97021 h 111.62026 c 4.40188,0 7.97021,3.56833 7.97021,7.97021 v 40.75319 c 0,4.40189 -3.56833,7.97022 -7.97021,7.97022 z"
       style="fill:#fff9f9;fill-opacity:1;fill-rule:nonzero;stroke:#000000;stroke-width:1.19553;stroke-linecap:butt;stroke-linejoin:miter;stroke-miterlimit:10;stroke-dasharray:none;stroke-opacity:1"
       transform="matrix(1.3333333,0,0,-1.3333333,315.64533,183.36133)" />
    <path
       id="path9"
       d="M 6.8100234,-3.058625 H 6.5522109 C 6.4350234,-1.8633125 6.2826797,-0.35159375 4.1850234,-0.35159375 H 3.1420547 c -0.5273438,0 -0.5507813,-0.0820313 -0.5507813,-0.46875 V -7.2422188 c 0,-0.4335937 0.023437,-0.5742187 1.0664063,-0.5742187 H 4.0209609 V -8.168 c -0.3515625,0.023437 -1.40625,0.023437 -1.8164062,0.023437 -0.3632813,0 -1.42968751,0 -1.71093751,-0.023437 v 0.3515625 h 0.234375 c 0.86718751,0 0.90234371,0.1171875 0.90234371,0.5625 v 6.33984375 c 0,0.4453125 -0.035156,0.5625 -0.90234371,0.5625 h -0.234375 V -3.125e-5 H 6.5053359 Z m 8.2968746,-5.0859375 c 0,-0.2109375 0,-0.2695313 -0.117187,-0.2695313 -0.07031,0 -0.08203,0.023437 -0.152344,0.140625 L 14.25143,-7.32425 c -0.539063,-0.6679688 -1.359375,-1.0898438 -2.214844,-1.0898438 -2.1914063,0 -4.0781251,1.8867188 -4.0781251,4.3242188 0,2.4726562 1.9101563,4.3359375 4.0781251,4.3359375 1.957031,0 3.070312,-1.6992188 3.070312,-3.0234375 0,-0.1289063 0,-0.1992188 -0.128906,-0.1992188 -0.117187,0 -0.128906,0.058594 -0.128906,0.140625 -0.117188,1.89843755 -1.5,2.74218755 -2.660156,2.74218755 -0.832032,0 -3.1171878,-0.50390625 -3.1171878,-3.99609375 0,-3.4570313 2.2499998,-3.984375 3.1054688,-3.984375 1.253906,0 2.355469,1.0664062 2.589844,2.859375 0.03516,0.1523437 0.03516,0.1875 0.175781,0.1875 0.164062,0 0.164062,-0.035156 0.164062,-0.28125 z M 16.272914,-8.168 v 0.3515625 h 0.234375 c 0.867188,0 0.902344,0.1171875 0.902344,0.5625 v 6.33984375 c 0,0.4453125 -0.03516,0.5625 -0.902344,0.5625 h -0.234375 v 0.3515625 h 4.183594 c 1.992187,0 3.597656,-1.79296875 3.597656,-4.00781255 0,-2.3085937 -1.617187,-4.1601562 -3.597656,-4.1601562 z m 2.625,7.81640625 c -0.527344,0 -0.550781,-0.0820313 -0.550781,-0.46875 V -7.3359688 c 0,-0.3984375 0.02344,-0.4804687 0.550781,-0.4804687 h 1.253906 c 0.996094,0 1.78125,0.4804687 2.273438,1.265625 0.539062,0.84375 0.539062,2.0507812 0.539062,2.53125 0,0.6679687 -0.01172,1.7929687 -0.691406,2.6835937 -0.398437,0.5039063 -1.113281,0.98437505 -2.121094,0.98437505 z m 0,0"
       style="fill:#000000;fill-opacity:1;fill-rule:nonzero;stroke:none"
       aria-label="LCD"
       transform="matrix(1.3333333,0,0,1.3333333,469.252,284.89067)" />
    <path
       id="path10"
       d="m 4.3936172,-6.0347656 c -0.1054688,-0.234375 -0.234375,-0.234375 -0.3984375,-0.234375 -0.1640625,0 -0.2929688,0 -0.3867188,0.234375 l -2.2734375,5.39062498 c -0.058594,0.140625 -0.058594,0.15234375 -0.28125,0.17578125 -0.16406246,0.0234375 -0.32812496,0.0351563 -0.48046871,0.0351563 h -0.1875 V 3.90625e-4 C 0.88971094,-0.02304687 1.0068984,-0.02304687 1.4756484,-0.02304687 c 0.3515625,0 0.6445313,0 1.1953125,0.023437495 V -0.43320312 c -0.2460937,0 -0.5507812,0 -0.796875,-0.10546875 L 2.3662734,-1.7222656 h 2.484375 l 0.5390625,1.28906248 h -0.84375 V 3.90625e-4 c 0.3164063,-0.023437495 1.21875,-0.023437495 1.5820313,-0.023437495 0.375,0 1.1367187,0 1.4765625,0.023437495 V -0.43320312 H 6.7373672 Z m -0.7851563,1.359375 1.0546875,2.5195312 h -2.109375 z m 7.7021481,-1.4765625 v 0.4453125 c 0.527344,0 0.609375,0 0.609375,0.3515625 v 1.7226562 c -0.398437,-0.28125 -0.820312,-0.3984375 -1.253906,-0.3984375 -1.4531249,0 -2.3085936,0.8789063 -2.3085936,2.0390625 0,1.19531253 0.84375,2.05078128 2.2031246,2.05078128 0.5625,0 1.007813,-0.22265625 1.300782,-0.45703125 V 0.05898438 L 13.513734,3.90625e-4 V -0.43320312 c -0.527343,0 -0.609375,0 -0.609375,-0.3515625 V -6.2222656 Z m 0.550782,5.17968748 c -0.199219,0.3046875 -0.632813,0.66796875 -1.207032,0.66796875 -1.1015621,0 -1.1015621,-1.07812503 -1.1015621,-1.66406253 0,-0.5273437 0,-0.9140625 0.234375,-1.2421875 0.2343751,-0.3515625 0.6679691,-0.46875 0.9843751,-0.46875 0.445312,0 0.808594,0.1992188 1.089844,0.5507813 z m 4.007812,-0.98437498 c 0,-0.65625 0.246094,-1.6875 1.113281,-1.7226563 -0.09375,0.1054688 -0.140625,0.2578125 -0.140625,0.3984375 0,0.3984375 0.316407,0.5742188 0.5625,0.5742188 0.292969,0 0.574219,-0.1992188 0.574219,-0.5742188 0,-0.4570312 -0.46875,-0.75 -0.996094,-0.75 -0.621093,0 -1.007812,0.4570313 -1.207031,0.9726563 h -0.01172 v -0.9726563 l -1.5,0.070312 v 0.4335938 c 0.539063,0 0.609375,0 0.609375,0.3515625 v 2.74218748 H 14.263734 V 3.90625e-4 c 0.667969,-0.023437495 0.726563,-0.023437495 1.148438,-0.023437495 0.222656,0 0.75,0 1.21875,0.023437495 V -0.43320312 h -0.761719 z m 6.673828,0.035156 c 0.1875,0 0.292969,0 0.292969,-0.2578125 0,-0.1992187 -0.01172,-0.984375 -0.597656,-1.4648437 -0.398438,-0.3398438 -0.9375,-0.421875 -1.382813,-0.421875 -1.523437,0 -2.285156,0.9726562 -2.285156,2.0507812 0,1.17187503 0.890625,2.07421878 2.414063,2.07421878 1.476562,0 1.851562,-0.94921875 1.851562,-1.10156248 0,-0.1757813 -0.175781,-0.1757813 -0.234375,-0.1757813 -0.152344,0 -0.175781,0.058594 -0.222656,0.1757813 -0.210938,0.46874998 -0.761719,0.71484373 -1.324219,0.71484373 -1.265625,0 -1.289062,-1.16015623 -1.289062,-1.59375003 z m -2.777343,-0.328125 c 0.02344,-0.4101562 0.05859,-1.453125 1.089843,-1.453125 1.054688,0 1.089844,1.0898438 1.101563,1.453125 z m 6.943359,-1.546875 c 0,-0.1640625 0,-0.2695312 -0.1875,-0.2695312 -0.08203,0 -0.222656,0.082031 -0.386719,0.1640625 -0.292969,-0.1171875 -0.644531,-0.1640625 -0.9375,-0.1640625 -0.28125,0 -1.699219,0 -1.699219,1.1835937 0,0.9492188 1.171875,1.1484375 1.488282,1.1953125 0.738281,0.1289063 1.324218,0.2226563 1.324218,0.73828128 0,0.64453125 -0.84375,0.64453125 -1.042968,0.64453125 -0.457032,0 -1.03125,-0.1171875 -1.300782,-0.93750003 -0.03516,-0.1523437 -0.04687,-0.1875 -0.234375,-0.1875 -0.234375,0 -0.234375,0.058594 -0.234375,0.2695313 v 0.94921873 c 0,0.1640625 0,0.26953125 0.175782,0.26953125 0.05859,0 0.08203,0 0.28125,-0.12890625 l 0.246093,-0.15234375 c 0.410157,0.28125 0.890625,0.28125 1.066407,0.28125 0.269531,0 1.710937,0 1.710937,-1.31249998 0,-0.4570313 -0.269531,-0.75 -0.421875,-0.8789063 -0.410156,-0.3398437 -0.691406,-0.3867187 -1.40625,-0.5039062 -0.421875,-0.070312 -0.996094,-0.1640625 -0.996094,-0.5625 0,-0.5390625 0.84375,-0.5390625 1.03125,-0.5390625 1.007813,0 1.042969,0.5273437 1.066407,0.7734375 0,0.1171875 0.128906,0.1171875 0.222656,0.1171875 0.222656,0 0.234375,-0.035156 0.234375,-0.2578125 z m 2.800781,0.5273438 c 0,-0.4101563 -0.328125,-0.7148438 -0.703125,-0.7148438 -0.410156,0 -0.703125,0.3398438 -0.703125,0.703125 0,0.3984375 0.316406,0.703125 0.703125,0.703125 0.386719,0 0.703125,-0.3046875 0.703125,-0.6914062 z m 0,2.56640623 c 0,-0.41015623 -0.328125,-0.70312503 -0.703125,-0.70312503 -0.410156,0 -0.703125,0.328125 -0.703125,0.70312503 0,0.41015625 0.328125,0.703124995 0.691406,0.703124995 0.421875,0 0.714844,-0.328124995 0.714844,-0.703124995 z M 39.880922,-2.8589844 c 0,-0.9140625 -0.02344,-3.0234375 -2.238281,-3.0234375 -2.179688,0 -2.238282,2.0390625 -2.238282,3.0234375 0,0.9375 0.02344,2.96484378 2.238282,2.96484378 2.179687,0 2.238281,-1.96874998 2.238281,-2.96484378 z m -2.238281,2.61328128 c -0.234375,0 -0.855469,-0.1171875 -0.972657,-0.93749998 -0.07031,-0.4804688 -0.07031,-1.2890625 -0.07031,-1.78125 0,-0.5625 0,-1.3242188 0.07031,-1.7460938 0.140625,-0.7148437 0.738282,-0.8085937 0.972657,-0.8085937 0.292968,0 0.855468,0.140625 0.972656,0.84375 0.07031,0.421875 0.07031,1.1953125 0.07031,1.7109375 0,0.6914062 0,1.7578125 -0.140625,2.10937498 -0.199218,0.4453125 -0.597656,0.609375 -0.902343,0.609375 z m 5.868164,-1.94531248 1.089843,-1.1835938 c 0.105469,-0.1054687 0.164063,-0.1640625 0.878907,-0.1640625 v -0.4453125 c -0.304688,0.035156 -0.539063,0.035156 -0.832032,0.035156 -0.164062,0 -0.515625,0 -0.914062,-0.035156 v 0.4453125 c 0.199219,0 0.246094,0.035156 0.304687,0.09375 l -0.832031,0.9140625 -0.890625,-1.0078125 h 0.328125 v -0.4453125 c -0.539062,0.023437 -0.773437,0.035156 -1.078125,0.035156 -0.175781,0 -0.527344,0 -0.984375,-0.035156 v 0.4453125 h 0.621094 l 1.429687,1.6171875 -1.207031,1.31250003 c -0.164062,0.17578125 -0.480469,0.17578125 -0.890625,0.17578125 V 3.90625e-4 c 0.304688,-0.023437495 0.539063,-0.023437495 0.832031,-0.023437495 0.164063,0 0.515625,0 0.914063,0.023437495 V -0.43320312 c -0.128906,0 -0.28125,-0.046875 -0.28125,-0.10546875 0,-0.0351563 0.04687,-0.09375 0.05859,-0.09375 l 0.878906,-0.94921873 0.996094,1.14843748 H 43.616273 V 3.90625e-4 c 0.5625,-0.023437495 0.773438,-0.023437495 1.066407,-0.023437495 0.210937,0 0.539062,0 0.996093,0.023437495 V -0.43320312 h -0.632812 z m 4.086914,-1.0429688 c 0,-1.125 0.222656,-1.4765625 0.316406,-1.6289062 0.257813,-0.421875 0.738281,-0.65625 1.21875,-0.65625 0.164063,0 0.445313,0.011719 0.667969,0.2226562 -0.363281,0.082031 -0.480469,0.3515625 -0.480469,0.5742188 0,0.375 0.292969,0.5859375 0.585938,0.5859375 0.246093,0 0.585937,-0.1523438 0.585937,-0.609375 0,-0.5507813 -0.375,-1.1367188 -1.371094,-1.1367188 -1.300781,0 -2.789062,0.8203125 -2.789062,3.0351563 0,0.4453125 0.03516,1.3125 0.421875,1.95703123 0.386719,0.6796875 1.019531,0.99609375 1.828125,0.99609375 1.277344,0 2.179687,-0.73828125 2.179687,-1.94531248 0,-0.4804688 -0.09375,-0.9726563 -0.621093,-1.4414063 -0.457032,-0.3984375 -0.925782,-0.4804687 -1.476563,-0.4804687 -0.574219,0 -0.914062,0.4101562 -1.066406,0.6796875 z m 0.972656,2.94140628 c -0.527344,0 -0.773437,-0.41015625 -0.832031,-0.5625 -0.117188,-0.28124998 -0.117188,-0.99609378 -0.117188,-1.03124998 0,-0.9257813 0.386719,-1.5117188 1.007813,-1.5117188 0.867187,0 0.867187,0.6445313 0.867187,1.546875 0,0.90234378 0,1.55859378 -0.925781,1.55859378 z m 6.27832,-3.02343748 c 0.644532,-0.3164063 0.914063,-0.75 0.914063,-1.2421875 0,-0.8671875 -0.75,-1.3242188 -1.886719,-1.3242188 -1.289062,0 -1.933594,0.7148438 -1.933594,1.59375 0,0.4804688 0.257813,0.9960938 0.84375,1.3359375 -0.46875,0.2460938 -1.148437,0.609375 -1.148437,1.5117188 0,1.11328123 1.007812,1.54687498 2.203125,1.54687498 1.453125,0 2.226562,-0.76171875 2.226562,-1.78124998 0,-0.9492188 -0.738281,-1.3710938 -1.21875,-1.640625 z m -1.828125,-0.984375 c -0.04687,-0.023437 -0.386718,-0.2226563 -0.386718,-0.5273438 0,-0.5976562 0.703125,-0.6914062 1.195312,-0.6914062 0.796875,0 1.242188,0.375 1.242188,0.9609375 0,0.46875 -0.292969,0.796875 -0.65625,0.9960937 z m 0.234375,1.6054687 c 0.316407,0.1640625 1.03125,0.5507813 1.195313,0.6445313 0.480469,0.2695312 0.808594,0.4335937 0.808594,0.8671875 0,0.83203123 -1.054688,0.89062498 -1.394532,0.89062498 -0.796875,0 -1.417968,-0.375 -1.417968,-1.16015628 0,-0.4101562 0.175781,-0.8789062 0.808593,-1.2421875 z m 0,0"
       style="fill:#666666;fill-opacity:1;fill-rule:nonzero;stroke:none"
       aria-label="Adres:0x68"
       transform="matrix(1.3333333,0,0,1.3333333,448.052,138.86667)" />
    <path
       id="path11"
       d="m 4.3936172,-6.0352422 c -0.1054688,-0.234375 -0.234375,-0.234375 -0.3984375,-0.234375 -0.1640625,0 -0.2929688,0 -0.3867188,0.234375 l -2.2734375,5.39062501 c -0.058594,0.140625 -0.058594,0.15234375 -0.28125,0.17578125 -0.16406246,0.0234375 -0.32812496,0.0351563 -0.48046871,0.0351563 h -0.1875 V -8.59375e-5 C 0.88971094,-0.02352344 1.0068984,-0.02352344 1.4756484,-0.02352344 c 0.3515625,0 0.6445313,0 1.1953125,0.0234375025 V -0.43367969 c -0.2460937,0 -0.5507812,0 -0.796875,-0.10546875 L 2.3662734,-1.7227422 h 2.484375 l 0.5390625,1.28906251 h -0.84375 V -8.59375e-5 C 4.8623672,-0.02352344 5.7647109,-0.02352344 6.1279922,-0.02352344 c 0.375,0 1.1367187,0 1.4765625,0.0234375025 V -0.43367969 H 6.7373672 Z m -0.7851563,1.359375 1.0546875,2.5195313 h -2.109375 z m 7.7021481,-1.4765625 v 0.4453125 c 0.527344,0 0.609375,0 0.609375,0.3515625 v 1.7226563 c -0.398437,-0.28125 -0.820312,-0.3984375 -1.253906,-0.3984375 -1.4531249,0 -2.3085936,0.8789062 -2.3085936,2.0390625 0,1.19531246 0.84375,2.05078121 2.2031246,2.05078121 0.5625,0 1.007813,-0.22265625 1.300782,-0.45703125 V 0.05850781 L 13.513734,-8.59375e-5 V -0.43367969 c -0.527343,0 -0.609375,0 -0.609375,-0.3515625 V -6.2227422 Z m 0.550782,5.17968751 c -0.199219,0.3046875 -0.632813,0.66796875 -1.207032,0.66796875 -1.1015621,0 -1.1015621,-1.07812496 -1.1015621,-1.66406246 0,-0.5273438 0,-0.9140625 0.234375,-1.2421875 0.2343751,-0.3515625 0.6679691,-0.46875 0.9843751,-0.46875 0.445312,0 0.808594,0.1992187 1.089844,0.5507812 z m 4.007812,-0.98437501 c 0,-0.65625 0.246094,-1.6875 1.113281,-1.7226562 -0.09375,0.1054687 -0.140625,0.2578125 -0.140625,0.3984375 0,0.3984375 0.316407,0.5742187 0.5625,0.5742187 0.292969,0 0.574219,-0.1992187 0.574219,-0.5742187 0,-0.4570313 -0.46875,-0.75 -0.996094,-0.75 -0.621093,0 -1.007812,0.4570312 -1.207031,0.9726562 h -0.01172 v -0.9726562 l -1.5,0.070312 v 0.4335937 c 0.539063,0 0.609375,0 0.609375,0.3515625 v 2.74218751 H 14.263734 V -8.59375e-5 C 14.931703,-0.02352344 14.990297,-0.02352344 15.412172,-0.02352344 c 0.222656,0 0.75,0 1.21875,0.0234375025 V -0.43367969 h -0.761719 z m 6.673828,0.035156 c 0.1875,0 0.292969,0 0.292969,-0.2578125 0,-0.1992188 -0.01172,-0.984375 -0.597656,-1.4648438 -0.398438,-0.3398437 -0.9375,-0.421875 -1.382813,-0.421875 -1.523437,0 -2.285156,0.9726563 -2.285156,2.0507813 0,1.17187496 0.890625,2.07421871 2.414063,2.07421871 1.476562,0 1.851562,-0.94921875 1.851562,-1.10156251 0,-0.1757812 -0.175781,-0.1757812 -0.234375,-0.1757812 -0.152344,0 -0.175781,0.058594 -0.222656,0.1757812 -0.210938,0.46875001 -0.761719,0.71484376 -1.324219,0.71484376 -1.265625,0 -1.289062,-1.16015626 -1.289062,-1.59374996 z m -2.777343,-0.328125 c 0.02344,-0.4101563 0.05859,-1.453125 1.089843,-1.453125 1.054688,0 1.089844,1.0898437 1.101563,1.453125 z m 6.943359,-1.546875 c 0,-0.1640625 0,-0.2695313 -0.1875,-0.2695313 -0.08203,0 -0.222656,0.082031 -0.386719,0.1640625 -0.292969,-0.1171875 -0.644531,-0.1640625 -0.9375,-0.1640625 -0.28125,0 -1.699219,0 -1.699219,1.1835938 0,0.9492187 1.171875,1.1484375 1.488282,1.1953125 0.738281,0.1289062 1.324218,0.2226562 1.324218,0.73828121 0,0.64453125 -0.84375,0.64453125 -1.042968,0.64453125 -0.457032,0 -1.03125,-0.1171875 -1.300782,-0.93749996 -0.03516,-0.1523438 -0.04687,-0.1875 -0.234375,-0.1875 -0.234375,0 -0.234375,0.058594 -0.234375,0.2695312 v 0.94921876 c 0,0.1640625 0,0.26953125 0.175782,0.26953125 0.05859,0 0.08203,0 0.28125,-0.12890625 l 0.246093,-0.15234375 c 0.410157,0.28125 0.890625,0.28125 1.066407,0.28125 0.269531,0 1.710937,0 1.710937,-1.31250001 0,-0.4570312 -0.269531,-0.75 -0.421875,-0.8789062 -0.410156,-0.3398438 -0.691406,-0.3867188 -1.40625,-0.5039063 -0.421875,-0.070312 -0.996094,-0.1640625 -0.996094,-0.5625 0,-0.5390625 0.84375,-0.5390625 1.03125,-0.5390625 1.007813,0 1.042969,0.5273438 1.066407,0.7734375 0,0.1171875 0.128906,0.1171875 0.222656,0.1171875 0.222656,0 0.234375,-0.035156 0.234375,-0.2578125 z m 2.800781,0.5273437 c 0,-0.4101562 -0.328125,-0.7148437 -0.703125,-0.7148437 -0.410156,0 -0.703125,0.3398437 -0.703125,0.703125 0,0.3984375 0.316406,0.703125 0.703125,0.703125 0.386719,0 0.703125,-0.3046875 0.703125,-0.6914063 z m 0,2.56640626 c 0,-0.41015626 -0.328125,-0.70312496 -0.703125,-0.70312496 -0.410156,0 -0.703125,0.328125 -0.703125,0.70312496 0,0.41015625 0.328125,0.7031250025 0.691406,0.7031250025 0.421875,0 0.714844,-0.3281250025 0.714844,-0.7031250025 z M 39.880922,-2.8594609 c 0,-0.9140625 -0.02344,-3.0234375 -2.238281,-3.0234375 -2.179688,0 -2.238282,2.0390625 -2.238282,3.0234375 0,0.9375 0.02344,2.96484371 2.238282,2.96484371 2.179687,0 2.238281,-1.96875001 2.238281,-2.96484371 z m -2.238281,2.61328121 c -0.234375,0 -0.855469,-0.1171875 -0.972657,-0.93750001 -0.07031,-0.4804687 -0.07031,-1.2890625 -0.07031,-1.78125 0,-0.5625 0,-1.3242187 0.07031,-1.7460937 0.140625,-0.7148438 0.738282,-0.8085938 0.972657,-0.8085938 0.292968,0 0.855468,0.140625 0.972656,0.84375 0.07031,0.421875 0.07031,1.1953125 0.07031,1.7109375 0,0.6914063 0,1.7578125 -0.140625,2.10937501 -0.199218,0.4453125 -0.597656,0.609375 -0.902343,0.609375 z m 5.868164,-1.94531251 1.089843,-1.1835937 c 0.105469,-0.1054688 0.164063,-0.1640625 0.878907,-0.1640625 v -0.4453125 c -0.304688,0.035156 -0.539063,0.035156 -0.832032,0.035156 -0.164062,0 -0.515625,0 -0.914062,-0.035156 v 0.4453125 c 0.199219,0 0.246094,0.035156 0.304687,0.09375 l -0.832031,0.9140625 -0.890625,-1.0078125 h 0.328125 v -0.4453125 c -0.539062,0.023437 -0.773437,0.035156 -1.078125,0.035156 -0.175781,0 -0.527344,0 -0.984375,-0.035156 v 0.4453125 h 0.621094 l 1.429687,1.6171875 -1.207031,1.31249996 c -0.164062,0.17578125 -0.480469,0.17578125 -0.890625,0.17578125 V -8.59375e-5 C 40.83893,-0.02352344 41.073305,-0.02352344 41.366273,-0.02352344 c 0.164063,0 0.515625,0 0.914063,0.0234375025 V -0.43367969 c -0.128906,0 -0.28125,-0.046875 -0.28125,-0.10546875 0,-0.0351563 0.04687,-0.09375 0.05859,-0.09375 l 0.878906,-0.94921876 0.996094,1.14843751 H 43.616273 V -8.59375e-5 c 0.5625,-0.0234375025 0.773438,-0.0234375025 1.066407,-0.0234375025 0.210937,0 0.539062,0 0.996093,0.0234375025 V -0.43367969 h -0.632812 z m 3.899414,-2.3203125 c 0.304687,0.058594 0.445312,0.058594 0.632812,0.058594 0.246094,0 0.820313,0 1.5,-0.4453125 0.1875,-0.1289063 0.714844,-0.5742188 0.714844,-0.8085938 0,-0.035156 0,-0.1757812 -0.140625,-0.1757812 -0.02344,0 -0.04687,0 -0.140625,0.046875 -0.457031,0.1640625 -0.949219,0.2460937 -1.417969,0.2460937 -0.550781,0 -1.007812,-0.1171875 -1.394531,-0.2460937 -0.117187,-0.046875 -0.140625,-0.046875 -0.152344,-0.046875 -0.140625,0 -0.140625,0.1171875 -0.140625,0.2578125 v 2.6367187 c 0,0.1640625 0,0.2929688 0.222657,0.2929688 0.117187,0 0.128906,-0.011719 0.234375,-0.1289063 0.363281,-0.421875 0.855468,-0.4921875 1.207031,-0.4921875 0.832031,0 0.832031,0.7851563 0.832031,1.4882813 0,0.6445312 0,1.53515621 -1.125,1.53515621 -0.492187,0 -0.914062,-0.234375 -1.136719,-0.52734375 0.375,-0.0351563 0.5625,-0.29296876 0.5625,-0.60937496 0,-0.4453125 -0.328125,-0.6328125 -0.609375,-0.6328125 -0.28125,0 -0.632812,0.1757812 -0.632812,0.6445312 0,0.78515626 0.726562,1.52343751 1.851562,1.52343751 1.535157,0 2.390625,-0.84375 2.390625,-1.91015621 0,-1.0195313 -0.726562,-1.875 -2.085937,-1.875 -0.410156,0 -0.796875,0.070312 -1.171875,0.3046875 z m 8.680664,1.6523438 c 0,-0.9140625 -0.02344,-3.0234375 -2.238281,-3.0234375 -2.179688,0 -2.238282,2.0390625 -2.238282,3.0234375 0,0.9375 0.02344,2.96484371 2.238282,2.96484371 2.179687,0 2.238281,-1.96875001 2.238281,-2.96484371 z m -2.238281,2.61328121 c -0.234375,0 -0.855469,-0.1171875 -0.972657,-0.93750001 -0.07031,-0.4804687 -0.07031,-1.2890625 -0.07031,-1.78125 0,-0.5625 0,-1.3242187 0.07031,-1.7460937 0.140625,-0.7148438 0.738282,-0.8085938 0.972657,-0.8085938 0.292968,0 0.855468,0.140625 0.972656,0.84375 0.07031,0.421875 0.07031,1.1953125 0.07031,1.7109375 0,0.6914063 0,1.7578125 -0.140625,2.10937501 -0.199218,0.4453125 -0.597656,0.609375 -0.902343,0.609375 z m 0,0"
       style="fill:#666666;fill-opacity:1;fill-rule:nonzero;stroke:none"
       aria-label="Adres:0x50"
       transform="matrix(1.3333333,0,0,1.3333333,448.052,234.94933)" />
    <path
       id="path12"
       d="m 4.3936172,-6.0357187 c -0.1054688,-0.234375 -0.234375,-0.234375 -0.3984375,-0.234375 -0.1640625,0 -0.2929688,0 -0.3867188,0.234375 l -2.2734375,5.39062495 c -0.058594,0.140625 -0.058594,0.15234375 -0.28125,0.17578125 -0.16406246,0.0234375 -0.32812496,0.0351563 -0.48046871,0.0351563 h -0.1875 V -5.625e-4 C 0.88971094,-0.024 1.0068984,-0.024 1.4756484,-0.024 c 0.3515625,0 0.6445313,0 1.1953125,0.0234375 v -0.43359375 c -0.2460937,0 -0.5507812,0 -0.796875,-0.10546875 l 0.4921875,-1.1835937 h 2.484375 l 0.5390625,1.28906245 h -0.84375 V -5.625e-4 C 4.8623672,-0.024 5.7647109,-0.024 6.1279922,-0.024 c 0.375,0 1.1367187,0 1.4765625,0.0234375 V -0.43415625 H 6.7373672 Z m -0.7851563,1.359375 1.0546875,2.5195312 h -2.109375 z m 7.7021481,-1.4765625 v 0.4453125 c 0.527344,0 0.609375,0 0.609375,0.3515625 v 1.7226562 c -0.398437,-0.28125 -0.820312,-0.3984375 -1.253906,-0.3984375 -1.4531249,0 -2.3085936,0.8789063 -2.3085936,2.0390625 0,1.1953125 0.84375,2.05078125 2.2031246,2.05078125 0.5625,0 1.007813,-0.22265625 1.300782,-0.45703125 V 0.05803125 L 13.513734,-5.625e-4 v -0.43359375 c -0.527343,0 -0.609375,0 -0.609375,-0.3515625 V -6.2232187 Z m 0.550782,5.17968745 c -0.199219,0.3046875 -0.632813,0.66796875 -1.207032,0.66796875 -1.1015621,0 -1.1015621,-1.078125 -1.1015621,-1.6640625 0,-0.5273437 0,-0.9140625 0.234375,-1.2421875 0.2343751,-0.3515625 0.6679691,-0.46875 0.9843751,-0.46875 0.445312,0 0.808594,0.1992188 1.089844,0.5507813 z m 4.007812,-0.98437495 c 0,-0.65625 0.246094,-1.6875 1.113281,-1.7226563 -0.09375,0.1054688 -0.140625,0.2578125 -0.140625,0.3984375 0,0.3984375 0.316407,0.5742188 0.5625,0.5742188 0.292969,0 0.574219,-0.1992188 0.574219,-0.5742188 0,-0.4570312 -0.46875,-0.75 -0.996094,-0.75 -0.621093,0 -1.007812,0.4570313 -1.207031,0.9726563 h -0.01172 v -0.9726563 l -1.5,0.070312 v 0.4335938 c 0.539063,0 0.609375,0 0.609375,0.3515625 v 2.74218745 H 14.263734 V -5.625e-4 C 14.931703,-0.024 14.990297,-0.024 15.412172,-0.024 c 0.222656,0 0.75,0 1.21875,0.0234375 v -0.43359375 h -0.761719 z m 6.673828,0.035156 c 0.1875,0 0.292969,0 0.292969,-0.2578125 0,-0.1992187 -0.01172,-0.984375 -0.597656,-1.4648437 -0.398438,-0.3398438 -0.9375,-0.421875 -1.382813,-0.421875 -1.523437,0 -2.285156,0.9726562 -2.285156,2.0507812 0,1.171875 0.890625,2.07421875 2.414063,2.07421875 1.476562,0 1.851562,-0.94921875 1.851562,-1.10156245 0,-0.1757813 -0.175781,-0.1757813 -0.234375,-0.1757813 -0.152344,0 -0.175781,0.058594 -0.222656,0.1757813 -0.210938,0.46874995 -0.761719,0.7148437 -1.324219,0.7148437 -1.265625,0 -1.289062,-1.1601562 -1.289062,-1.59375 z m -2.777343,-0.328125 c 0.02344,-0.4101562 0.05859,-1.453125 1.089843,-1.453125 1.054688,0 1.089844,1.0898438 1.101563,1.453125 z m 6.943359,-1.546875 c 0,-0.1640625 0,-0.2695312 -0.1875,-0.2695312 -0.08203,0 -0.222656,0.082031 -0.386719,0.1640625 -0.292969,-0.1171875 -0.644531,-0.1640625 -0.9375,-0.1640625 -0.28125,0 -1.699219,0 -1.699219,1.1835937 0,0.9492188 1.171875,1.1484375 1.488282,1.1953125 0.738281,0.1289063 1.324218,0.2226563 1.324218,0.73828125 0,0.64453125 -0.84375,0.64453125 -1.042968,0.64453125 -0.457032,0 -1.03125,-0.1171875 -1.300782,-0.9375 -0.03516,-0.1523437 -0.04687,-0.1875 -0.234375,-0.1875 -0.234375,0 -0.234375,0.058594 -0.234375,0.2695313 V -0.2115 c 0,0.1640625 0,0.26953125 0.175782,0.26953125 0.05859,0 0.08203,0 0.28125,-0.12890625 l 0.246093,-0.15234375 c 0.410157,0.28125 0.890625,0.28125 1.066407,0.28125 0.269531,0 1.710937,0 1.710937,-1.31249995 0,-0.4570313 -0.269531,-0.75 -0.421875,-0.8789063 -0.410156,-0.3398437 -0.691406,-0.3867187 -1.40625,-0.5039062 -0.421875,-0.070312 -0.996094,-0.1640625 -0.996094,-0.5625 0,-0.5390625 0.84375,-0.5390625 1.03125,-0.5390625 1.007813,0 1.042969,0.5273437 1.066407,0.7734375 0,0.1171875 0.128906,0.1171875 0.222656,0.1171875 0.222656,0 0.234375,-0.035156 0.234375,-0.2578125 z m 2.800781,0.5273438 c 0,-0.4101563 -0.328125,-0.7148438 -0.703125,-0.7148438 -0.410156,0 -0.703125,0.3398438 -0.703125,0.703125 0,0.3984375 0.316406,0.703125 0.703125,0.703125 0.386719,0 0.703125,-0.3046875 0.703125,-0.6914062 z m 0,2.5664062 c 0,-0.4101562 -0.328125,-0.703125 -0.703125,-0.703125 -0.410156,0 -0.703125,0.328125 -0.703125,0.703125 0,0.41015625 0.328125,0.703125 0.691406,0.703125 0.421875,0 0.714844,-0.328125 0.714844,-0.703125 z m 10.371094,-2.15625 c 0,-0.9140625 -0.02344,-3.0234375 -2.238281,-3.0234375 -2.179688,0 -2.238282,2.0390625 -2.238282,3.0234375 0,0.9375 0.02344,2.96484375 2.238282,2.96484375 2.179687,0 2.238281,-1.96874995 2.238281,-2.96484375 z m -2.238281,2.61328125 c -0.234375,0 -0.855469,-0.1171875 -0.972657,-0.93749995 -0.07031,-0.4804688 -0.07031,-1.2890625 -0.07031,-1.78125 0,-0.5625 0,-1.3242188 0.07031,-1.7460938 0.140625,-0.7148437 0.738282,-0.8085937 0.972657,-0.8085937 0.292968,0 0.855468,0.140625 0.972656,0.84375 0.07031,0.421875 0.07031,1.1953125 0.07031,1.7109375 0,0.6914062 0,1.7578125 -0.140625,2.10937495 -0.199218,0.4453125 -0.597656,0.609375 -0.902343,0.609375 z m 5.868164,-1.94531245 1.089843,-1.1835938 c 0.105469,-0.1054687 0.164063,-0.1640625 0.878907,-0.1640625 v -0.4453125 c -0.304688,0.035156 -0.539063,0.035156 -0.832032,0.035156 -0.164062,0 -0.515625,0 -0.914062,-0.035156 v 0.4453125 c 0.199219,0 0.246094,0.035156 0.304687,0.09375 l -0.832031,0.9140625 -0.890625,-1.0078125 h 0.328125 v -0.4453125 c -0.539062,0.023437 -0.773437,0.035156 -1.078125,0.035156 -0.175781,0 -0.527344,0 -0.984375,-0.035156 v 0.4453125 h 0.621094 l 1.429687,1.6171875 -1.207031,1.3125 c -0.164062,0.17578125 -0.480469,0.17578125 -0.890625,0.17578125 V -5.625e-4 C 40.83893,-0.024 41.073305,-0.024 41.366273,-0.024 c 0.164063,0 0.515625,0 0.914063,0.0234375 v -0.43359375 c -0.128906,0 -0.28125,-0.046875 -0.28125,-0.10546875 0,-0.0351563 0.04687,-0.09375 0.05859,-0.09375 l 0.878906,-0.9492187 0.996094,1.14843745 H 43.616273 V -5.625e-4 C 44.178773,-0.024 44.389711,-0.024 44.68268,-0.024 c 0.210937,0 0.539062,0 0.996093,0.0234375 v -0.43359375 h -0.632812 z m 7.157226,0.1757812 H 50.211 c -0.02344,0.1289063 -0.09375,0.7617188 -0.234375,0.8203125 C 49.859438,-1.149 49.203188,-1.149 49.050844,-1.149 h -1.289063 c 0.480469,-0.3867187 1.019532,-0.8085937 1.464844,-1.125 0.75,-0.5273437 1.441406,-1.0078125 1.441406,-1.8867187 0,-1.0429688 -0.960937,-1.7226563 -2.261718,-1.7226563 -1.113282,0 -1.980469,0.5273438 -1.980469,1.359375 0,0.4570313 0.363281,0.6796875 0.679687,0.6796875 0.28125,0 0.65625,-0.2109375 0.65625,-0.6796875 0,-0.1875 -0.08203,-0.5273437 -0.46875,-0.6328125 0.304688,-0.2460937 0.714844,-0.28125 0.890625,-0.28125 0.738282,0 1.207032,0.5390625 1.207032,1.2890625 0,0.6445313 -0.386719,1.2304688 -0.867188,1.7226563 l -1.992187,1.96874995 c -0.105469,0.09375 -0.105469,0.10546875 -0.105469,0.28125 V -5.625e-4 h 3.960937 z m 4.133789,-0.515625 c 0,0.5859375 -0.07031,1.1484375 -0.234375,1.5234375 -0.117187,0.234375 -0.480468,0.71484375 -1.171875,0.71484375 -0.07031,0 -0.457031,0 -0.738281,-0.1875 C 52.961977,-0.5865 53.079164,-0.820875 53.079164,-1.05525 c 0,-0.375 -0.292969,-0.5742187 -0.585937,-0.5742187 -0.234375,0 -0.585938,0.1523437 -0.585938,0.5976562 0,0.609375 0.457031,1.13671875 1.5,1.13671875 1.253906,0 2.660156,-0.796875 2.660156,-3.05859375 0,-0.4570312 -0.03516,-1.3945312 -0.492187,-2.0976562 -0.304688,-0.4335938 -0.820313,-0.8320313 -1.710938,-0.8320313 -1.289062,0 -2.226562,0.7148438 -2.226562,1.9335938 0,1.125 0.773437,1.9335937 2.097656,1.9335937 0.398438,0 0.785156,-0.1992187 1.066406,-0.6796875 z m -1.03125,0.1523438 c -0.867187,0 -0.867187,-0.65625 -0.867187,-1.546875 0,-0.8671875 0,-1.59375 0.984375,-1.59375 0.5625,0 0.773437,0.5039062 0.796875,0.5742187 0.105469,0.3046875 0.105469,0.796875 0.105469,1.1015625 0,0.4101563 -0.164063,1.4648438 -1.019532,1.4648438 z m 0,0"
       style="fill:#666666;fill-opacity:1;fill-rule:nonzero;stroke:none"
       aria-label="Adres:0x29"
       transform="matrix(1.3333333,0,0,1.3333333,448.052,331.032)" />
    <path
       id="path13"
       d="M -66.01738,14.17339 H 28.3468"
       style="fill:none;stroke:#0000ff;stroke-width:1.49442;stroke-linecap:butt;stroke-linejoin:miter;stroke-miterlimit:10;stroke-dasharray:none;stroke-opacity:1"
       transform="matrix(1.3333333,0,0,-1.3333333,315.64533,183.36133)" />
    <path
       id="path14"
       d="m 3.0347813,-5.2624219 c -1.1835938,-0.2578125 -1.21875,-1.125 -1.21875,-1.2890625 0,-0.609375 0.3984375,-1.3125 1.5585937,-1.3125 1.1601563,0 2.1914063,0.5625 2.4492188,2.1210938 0.035156,0.2578125 0.035156,0.2695312 0.2578125,0.2695312 0.2578125,0 0.2578125,-0.035156 0.2578125,-0.3164062 v -2.2382813 c 0,-0.234375 0,-0.3164062 -0.1875,-0.3164062 -0.082031,0 -0.1171875,0.011719 -0.2226563,0.1289062 l -0.515625,0.5859375 c -0.2929687,-0.2460937 -0.890625,-0.7148437 -2.0507812,-0.7148437 -1.7109375,0 -2.62500005,1.078125 -2.62500005,2.3789062 0,0.796875 0.43359375,1.359375 0.59765625,1.5351563 0.6210938,0.6210937 0.9609375,0.6914062 2.203125,0.9609375 1.1953125,0.2695312 1.3359375,0.2929687 1.6054688,0.5390625 0.1523437,0.1523437 0.4921875,0.4921875 0.4921875,1.1015625 0,0.515625 -0.2460938,1.45312498 -1.5820313,1.45312498 -1.0546875,0 -2.71875,-0.3515625 -2.8125,-2.09765628 -0.011719,-0.2226562 -0.011719,-0.2578125 -0.24609375,-0.2578125 -0.2578125,0 -0.2578125,0.035156 -0.2578125,0.3164063 v 2.24999998 c 0,0.22265625 0,0.3046875 0.1875,0.3046875 0.0820315,0 0.09375,-0.0117188 0.21093755,-0.1171875 0.1289062,-0.12890625 0.234375,-0.28125 0.5390625,-0.5859375 0.6914062,0.55078125 1.6757812,0.703125 2.390625,0.703125 1.8632812,0 2.6484375,-1.26562498 2.6484375,-2.53124998 0,-1.125 -0.7382813,-2.203125 -2.0390625,-2.4960938 z m 13.3916017,-2.765625 c 0,-0.28125 0,-0.3164062 -0.257813,-0.3164062 l -0.902343,0.8554687 c -0.667969,-0.5625 -1.464844,-0.8554687 -2.355469,-0.8554687 -2.859375,0 -4.6992189,1.734375 -4.6992189,4.2421875 0,2.4609375 1.78125,4.24218748 4.7109379,4.24218748 2.132812,0 3.503906,-1.45312498 3.503906,-2.87109378 0,-0.1992187 -0.07031,-0.2109375 -0.246094,-0.2109375 -0.128906,0 -0.246094,0 -0.257812,0.1289063 -0.105469,1.81640623 -1.652344,2.43749998 -2.71875,2.43749998 -0.785157,0 -1.828125,-0.2109375 -2.507813,-0.96093748 -0.410156,-0.4570313 -0.7968749,-1.1132813 -0.7968749,-2.765625 0,-1.171875 0.1757809,-2.0390625 0.7382809,-2.7070313 0.773438,-0.9023437 1.96875,-1.0195312 2.542969,-1.0195312 0.890625,0 2.332031,0.5039062 2.695313,2.6015625 0.02344,0.1054687 0.128906,0.1054687 0.28125,0.1054687 0.269531,0 0.269531,-0.023437 0.269531,-0.3046875 z m 8.270508,4.8046875 h -0.503907 c -0.08203,0.8203125 -0.28125,2.70703128 -2.425781,2.70703128 H 20.489859 V -7.6882031 h 1.582032 v -0.515625 c -0.585938,0.023437 -1.652344,0.023437 -2.285157,0.023437 -0.433593,0 -1.804687,0 -2.144531,-0.023437 v 0.515625 h 1.265625 v 7.17187498 h -1.265625 v 0.515624995 h 6.703125 z m 0,0"
       style="fill:#0000ff;fill-opacity:1;fill-rule:nonzero;stroke:none"
       aria-label="SCL"
       transform="matrix(1.3333333,0,0,1.3333333,273.688,159.04)" />
    <path
       id="path15"
       d="m 31.33563,14.17339 c 0,1.65071 -1.33812,2.98883 -2.98883,2.98883 -1.65071,0 -2.98883,-1.33812 -2.98883,-2.98883 0,-1.6507 1.33812,-2.98883 2.98883,-2.98883 1.65071,0 2.98883,1.33813 2.98883,2.98883 z"
       style="fill:#0000ff;fill-opacity:1;fill-rule:nonzero;stroke:none"
       transform="matrix(1.3333333,0,0,-1.3333333,315.64533,183.36133)" />
    <path
       id="path16"
       d="M 28.3468,14.17339 V 84.8185 h 27.0789"
       style="fill:none;stroke:#0000ff;stroke-width:1.49442;stroke-linecap:butt;stroke-linejoin:miter;stroke-miterlimit:10;stroke-dasharray:none;stroke-opacity:1"
       transform="matrix(1.3333333,0,0,-1.3333333,315.64533,183.36133)" />
    <path
       id="path17"
       d="M 4.676,0 C 4.10176,0.14711 1.5776,0.98082 0,1.88808 V -1.88808 C 1.5776,-0.98082 4.10176,-0.14711 4.676,0 Z"
       style="fill:#0000ff;fill-opacity:1;fill-rule:nonzero;stroke:#0000ff;stroke-width:1.49442;stroke-linecap:butt;stroke-linejoin:miter;stroke-miterlimit:10;stroke-dasharray:none;stroke-opacity:1"
       transform="matrix(1.3333333,0,0,-1.3333333,389.54627,70.27)" />
    <path
       id="path18"
       d="M 28.3468,14.17339 H 55.4257"
       style="fill:none;stroke:#0000ff;stroke-width:1.49442;stroke-linecap:butt;stroke-linejoin:miter;stroke-miterlimit:10;stroke-dasharray:none;stroke-opacity:1"
       transform="matrix(1.3333333,0,0,-1.3333333,315.64533,183.36133)" />
    <path
       id="path19"
       d="M 4.676,0 C 4.10176,0.14711 1.5776,0.98082 0,1.88808 V -1.88808 C 1.5776,-0.98082 4.10176,-0.14711 4.676,0 Z"
       style="fill:#0000ff;fill-opacity:1;fill-rule:nonzero;stroke:#0000ff;stroke-width:1.49442;stroke-linecap:butt;stroke-linejoin:miter;stroke-miterlimit:10;stroke-dasharray:none;stroke-opacity:1"
       transform="matrix(1.3333333,0,0,-1.3333333,389.54627,164.46348)" />
    <path
       id="path20"
       d="M 28.3468,14.17339 V -56.4717 h 27.0789"
       style="fill:none;stroke:#0000ff;stroke-width:1.49442;stroke-linecap:butt;stroke-linejoin:miter;stroke-miterlimit:10;stroke-dasharray:none;stroke-opacity:1"
       transform="matrix(1.3333333,0,0,-1.3333333,315.64533,183.36133)" />
    <path
       id="path21"
       d="M 4.676,0 C 4.10176,0.14711 1.5776,0.98082 0,1.88808 V -1.88808 C 1.5776,-0.98082 4.10176,-0.14711 4.676,0 Z"
       style="fill:#0000ff;fill-opacity:1;fill-rule:nonzero;stroke:#0000ff;stroke-width:1.49442;stroke-linecap:butt;stroke-linejoin:miter;stroke-miterlimit:10;stroke-dasharray:none;stroke-opacity:1"
       transform="matrix(1.3333333,0,0,-1.3333333,389.54627,258.65693)" />
    <path
       id="path22"
       d="M 0,-14.17339 H -58.26056"
       style="fill:none;stroke:#e67300;stroke-width:1.49442;stroke-linecap:butt;stroke-linejoin:miter;stroke-miterlimit:10;stroke-dasharray:none;stroke-opacity:1"
       transform="matrix(1.3333333,0,0,-1.3333333,315.64533,183.36133)" />
    <path
       id="path23"
       d="M 4.676,0 C 4.10176,0.14711 1.5776,0.98082 0,1.88808 V -1.88808 C 1.5776,-0.98082 4.10176,-0.14711 4.676,0 Z"
       style="fill:#e67300;fill-opacity:1;fill-rule:nonzero;stroke:#e67300;stroke-width:1.49442;stroke-linecap:butt;stroke-linejoin:miter;stroke-miterlimit:10;stroke-dasharray:none;stroke-opacity:1"
       transform="matrix(-1.3333333,0,0,1.3333333,237.96459,202.25919)" />
    <path
       id="path24"
       d="m 3.0348594,-5.2617656 c -1.1835938,-0.2578125 -1.21875,-1.125 -1.21875,-1.2890625 0,-0.609375 0.3984375,-1.3125 1.5585937,-1.3125 1.1601563,0 2.1914063,0.5625 2.4492188,2.1210937 0.035156,0.2578125 0.035156,0.2695313 0.2578125,0.2695313 0.2578125,0 0.2578125,-0.035156 0.2578125,-0.3164063 v -2.2382812 c 0,-0.234375 0,-0.3164063 -0.1875,-0.3164063 -0.082031,0 -0.1171875,0.011719 -0.2226563,0.1289063 l -0.515625,0.5859375 c -0.2929687,-0.2460938 -0.890625,-0.7148438 -2.0507812,-0.7148438 -1.7109375,0 -2.62500002,1.078125 -2.62500002,2.3789063 0,0.796875 0.43359372,1.359375 0.59765622,1.5351562 0.6210938,0.6210938 0.9609375,0.6914063 2.203125,0.9609375 1.1953125,0.2695313 1.3359375,0.2929688 1.6054688,0.5390625 0.1523437,0.1523438 0.4921875,0.4921875 0.4921875,1.1015625 0,0.515625 -0.2460938,1.45312503 -1.5820313,1.45312503 -1.0546875,0 -2.71875,-0.3515625 -2.8125,-2.09765623 -0.011719,-0.2226563 -0.011719,-0.2578125 -0.24609372,-0.2578125 -0.2578125,0 -0.2578125,0.035156 -0.2578125,0.3164062 v 2.25000003 c 0,0.22265625 0,0.3046875 0.1875,0.3046875 0.0820312,0 0.09375,-0.0117188 0.21093752,-0.1171875 0.1289062,-0.12890625 0.234375,-0.28125 0.5390625,-0.5859375 0.6914062,0.55078125 1.6757812,0.703125 2.390625,0.703125 1.8632812,0 2.6484375,-1.26562503 2.6484375,-2.53125003 0,-1.125 -0.7382813,-2.203125 -2.0390625,-2.4960937 z m 4.8955078,-2.9414063 v 0.515625 h 1.265625 v 7.17187503 H 7.9303672 V -4.6875e-5 h 5.0273438 c 2.296875,0 4.066406,-1.464843725 4.066406,-4.031250025 0,-2.6953125 -1.816406,-4.171875 -4.066406,-4.171875 z m 2.7773438,7.68750003 V -7.6875469 h 1.792969 c 1.042968,0 1.886718,0.4101563 2.320312,1.03125 0.351563,0.4921875 0.574219,1.078125 0.574219,2.6132813 0,1.40625 -0.175781,2.0273437 -0.597656,2.5898437 -0.410157,0.53906253 -1.21875,0.93750003 -2.296875,0.93750003 z M 22.883492,-8.0977031 c -0.08203,-0.2109375 -0.105469,-0.2695313 -0.386719,-0.2695313 -0.304687,0 -0.328125,0.058594 -0.410156,0.2695313 l -2.964844,7.30078123 c -0.08203,0.1875 -0.08203,0.2109375 -0.421875,0.24609375 -0.292968,0.0351563 -0.339843,0.0351563 -0.609375,0.0351563 H 17.879586 V -4.6875e-5 c 0.304687,-0.023437495 1.03125,-0.023437495 1.371094,-0.023437495 0.328125,0 1.195312,0 1.476562,0.023437495 V -0.51567187 c -0.269531,0 -0.726562,0 -1.054687,-0.12890625 0.03516,-0.10546875 0.03516,-0.12890625 0.05859,-0.17578125 l 0.632813,-1.55859373 h 3.199219 l 0.761718,1.86328123 h -1.125 V -4.6875e-5 c 0.375,-0.023437495 1.535157,-0.023437495 1.992188,-0.023437495 0.386719,0 1.605469,0 1.898437,0.023437495 V -0.51567187 h -1.136718 z m -0.914062,1.7578125 1.382812,3.4453125 H 20.56318 Z m 0,0"
       style="fill:#e67300;fill-opacity:1;fill-rule:nonzero;stroke:none"
       aria-label="SDA"
       transform="matrix(1.3333333,0,0,1.3333333,266.46133,196.836)" />
    <path
       id="path25"
       d="m 2.98883,-14.17339 c 0,1.6507 -1.33813,2.98883 -2.98883,2.98883 -1.6507,0 -2.98883,-1.33813 -2.98883,-2.98883 0,-1.65071 1.33813,-2.98883 2.98883,-2.98883 1.6507,0 2.98883,1.33812 2.98883,2.98883 z"
       style="fill:#e67300;fill-opacity:1;fill-rule:nonzero;stroke:none"
       transform="matrix(1.3333333,0,0,-1.3333333,315.64533,183.36133)" />
    <path
       id="path26"
       d="M 0,-14.17339 V 59.30655 H 55.4257"
       style="fill:none;stroke:#e67300;stroke-width:1.49442;stroke-linecap:butt;stroke-linejoin:miter;stroke-miterlimit:10;stroke-dasharray:none;stroke-opacity:1"
       transform="matrix(1.3333333,0,0,-1.3333333,315.64533,183.36133)" />
    <path
       id="path27"
       d="M 4.676,0 C 4.10176,0.14711 1.5776,0.98082 0,1.88808 V -1.88808 C 1.5776,-0.98082 4.10176,-0.14711 4.676,0 Z"
       style="fill:#e67300;fill-opacity:1;fill-rule:nonzero;stroke:#e67300;stroke-width:1.49442;stroke-linecap:butt;stroke-linejoin:miter;stroke-miterlimit:10;stroke-dasharray:none;stroke-opacity:1"
       transform="matrix(1.3333333,0,0,-1.3333333,389.54627,104.28593)" />
    <path
       id="path28"
       d="M 0,-14.17339 H 55.4257"
       style="fill:none;stroke:#e67300;stroke-width:1.49442;stroke-linecap:butt;stroke-linejoin:miter;stroke-miterlimit:10;stroke-dasharray:none;stroke-opacity:1"
       transform="matrix(1.3333333,0,0,-1.3333333,315.64533,183.36133)" />
    <path
       id="path29"
       d="M 4.676,0 C 4.10176,0.14711 1.5776,0.98082 0,1.88808 V -1.88808 C 1.5776,-0.98082 4.10176,-0.14711 4.676,0 Z"
       style="fill:#e67300;fill-opacity:1;fill-rule:nonzero;stroke:#e67300;stroke-width:1.49442;stroke-linecap:butt;stroke-linejoin:miter;stroke-miterlimit:10;stroke-dasharray:none;stroke-opacity:1"
       transform="matrix(1.3333333,0,0,-1.3333333,389.54627,202.25919)" />
    <path
       id="path30"
       d="M 0,-14.17339 V -87.65335 H 55.4257"
       style="fill:none;stroke:#e67300;stroke-width:1.49442;stroke-linecap:butt;stroke-linejoin:miter;stroke-miterlimit:10;stroke-dasharray:none;stroke-opacity:1"
       transform="matrix(1.3333333,0,0,-1.3333333,315.64533,183.36133)" />
    <path
       id="path31"
       d="M 4.676,0 C 4.10176,0.14711 1.5776,0.98082 0,1.88808 V -1.88808 C 1.5776,-0.98082 4.10176,-0.14711 4.676,0 Z"
       style="fill:#e67300;fill-opacity:1;fill-rule:nonzero;stroke:#e67300;stroke-width:1.49442;stroke-linecap:butt;stroke-linejoin:miter;stroke-miterlimit:10;stroke-dasharray:none;stroke-opacity:1"
       transform="matrix(1.3333333,0,0,-1.3333333,389.54627,300.23247)" />
  </g>
</svg>
