<?xml version="1.0" encoding="UTF-8" standalone="no"?>
<!-- Created with Inkscape (http://www.inkscape.org/) -->

<svg
   version="1.1"
   id="svg1"
   width="413.59332"
   height="376.13733"
   viewBox="0 0 413.59332 376.13733"
   sodipodi:docname="ŞEKİL_3_3__Bus_Kapasitansı.pdf"
   xmlns:inkscape="http://www.inkscape.org/namespaces/inkscape"
   xmlns:sodipodi="http://sodipodi.sourceforge.net/DTD/sodipodi-0.dtd"
   xmlns="http://www.w3.org/2000/svg"
   xmlns:svg="http://www.w3.org/2000/svg">
  <defs
     id="defs1" />
  <sodipodi:namedview
     id="namedview1"
     pagecolor="#ffffff"
     bordercolor="#000000"
     borderopacity="0.25"
     inkscape:showpageshadow="2"
     inkscape:pageopacity="0.0"
     inkscape:pagecheckerboard="0"
     inkscape:deskcolor="#d1d1d1">
    <inkscape:page
       x="0"
       y="0"
       width="413.59332"
       height="376.13733"
       id="page2"
       margin="0"
       bleed="0" />
  </sodipodi:namedview>
  <g
     id="g1"
     inkscape:groupmode="layer"
     inkscape:label="1">
    <path
       id="path1"
       d="M 0,0 H 310.195 V 282.103 H 0 Z"
       style="fill:#ffffff;fill-opacity:1;fill-rule:nonzero;stroke:none"
       transform="matrix(1.3333333,0,0,-1.3333333,0,376.13733)" />
    <path
       id="path2"
       d="m -170.08092,32.51448 v -14.3867 h -13.88981 m 0,-15.27921 h 13.88981 v -14.3867"
       style="fill:none;stroke:#000000;stroke-width:0.3985;stroke-linecap:butt;stroke-linejoin:miter;stroke-miterlimit:10;stroke-dasharray:none;stroke-opacity:1"
       transform="matrix(1.3333333,0,0,-1.3333333,448.36133,303.36133)" />
    <path
       id="path3"
       d="M -183.97073,21.4017 V -0.42534 m -3.33341,18.55312 V 2.84857"
       style="fill:none;stroke:#000000;stroke-width:0.797;stroke-linecap:butt;stroke-linejoin:miter;stroke-miterlimit:10;stroke-dasharray:none;stroke-opacity:1"
       transform="matrix(1.3333333,0,0,-1.3333333,448.36133,303.36133)" />
    <path
       id="path4"
       d="M -178.70633,2.84857 V 0.86432 l 4.21654,1.98425 -4.21654,1.98425 z"
       style="fill:#000000;fill-opacity:1;fill-rule:nonzero;stroke:#000000;stroke-width:0.3985;stroke-linecap:butt;stroke-linejoin:miter;stroke-miterlimit:10;stroke-dasharray:none;stroke-opacity:1"
       transform="matrix(1.3333333,0,0,-1.3333333,448.36133,303.36133)" />
    <path
       id="path5"
       d="M -187.30414,10.48817 H -198.0598"
       style="fill:none;stroke:#000000;stroke-width:0.3985;stroke-linecap:butt;stroke-linejoin:miter;stroke-miterlimit:10;stroke-dasharray:none;stroke-opacity:1"
       transform="matrix(1.3333333,0,0,-1.3333333,448.36133,303.36133)" />
    <g
       id="g5"
       aria-label="M&#10;1"
       transform="matrix(1.3333333,0,0,1.3333333,182.16,325.16667)">
      <path
         id="path6"
         d="m 9.2227734,-6.0341797 c 0.09375,-0.3632812 0.1054688,-0.4570312 0.8554686,-0.4570312 0.234375,0 0.316406,0 0.316406,-0.1992188 0,-0.1171875 -0.09375,-0.1171875 -0.269531,-0.1171875 H 8.8126172 c -0.2578125,0 -0.2695313,0 -0.3867188,0.1992188 L 4.7930859,-0.93652344 4.0196484,-6.5732422 c -0.035156,-0.234375 -0.058594,-0.234375 -0.3164062,-0.234375 h -1.359375 c -0.1875,0 -0.3046875,0 -0.3046875,0.1992188 0,0.1171875 0.09375,0.1171875 0.2929687,0.1171875 0.1289063,0 0.3046875,0.011719 0.421875,0.011719 0.1640625,0.023437 0.2226563,0.058594 0.2226563,0.1640625 0,0.035156 -0.011719,0.070312 -0.035156,0.1875 l -1.265625,5.0742188 c -0.1054687,0.39843746 -0.2695312,0.71484371 -1.07812496,0.74999996 -0.046875,0 -0.17578125,0 -0.17578125,0.1875 0,0.08203125 0.0585938,0.1171875025 0.140625,0.1171875025 0.31640625,0 0.66796871,-0.0351562525 0.99609371,-0.0351562525 0.3398438,0 0.6914063,0.0351562525 1.0195313,0.0351562525 0.046875,0 0.1757812,0 0.1757812,-0.1992187525 0,-0.10546875 -0.1054687,-0.10546875 -0.1757812,-0.10546875 -0.5625,-0.0117188 -0.6796875,-0.2109375 -0.6796875,-0.4453125 0,-0.0703125 0.011719,-0.1171875 0.046875,-0.22265625 L 3.2930859,-6.4091797 h 0.011719 l 0.8554687,6.17578126 c 0.023437,0.12890625 0.035156,0.2343750025 0.1523438,0.2343750025 0.1054687,0 0.1757812,-0.1054687525 0.2226562,-0.1757812525 L 8.5548047,-6.4794922 h 0.011719 l -1.4296875,5.70703126 c -0.09375,0.38671875 -0.1171875,0.46875 -0.9023437,0.46875 -0.1640625,0 -0.28125,0 -0.28125,0.1875 0,0.1171875025 0.1289062,0.1171875025 0.1523437,0.1171875025 0.28125,0 0.9609375,-0.0351562525 1.2304688,-0.0351562525 0.4101562,0 0.84375,0.0351562525 1.2539062,0.0351562525 0.058594,0 0.1875,0 0.1875,-0.1992187525 0,-0.10546875 -0.09375,-0.10546875 -0.28125,-0.10546875 -0.3632812,0 -0.6445312,0 -0.6445312,-0.1875 0,-0.0351563 0,-0.0585938 0.046875,-0.234375 z m 0,0"
         style="fill:#000000;fill-opacity:1;fill-rule:nonzero;stroke:none" />
      <path
         id="path7"
         d="m 11.997188,-2.9345703 c 0,-0.1875 -0.01172,-0.1992188 -0.210938,-0.1992188 -0.445312,0.4335938 -1.078125,0.4453125 -1.359375,0.4453125 v 0.2460938 c 0.164063,0 0.621094,0 1.007813,-0.1875 v 3.55078124 c 0,0.23437496 0,0.32812496 -0.691407,0.32812496 H 10.47375 v 0.2460938 c 0.128906,-0.011719 0.984375,-0.023437 1.242188,-0.023437 0.210937,0 1.089843,0.011719 1.242187,0.023437 V 1.2490234 h -0.257812 c -0.703125,0 -0.703125,-0.09375 -0.703125,-0.32812496 z m 0,0"
         style="fill:#000000;fill-opacity:1;fill-rule:nonzero;stroke:none" />
    </g>
    <path
       id="path8"
       d="M -212.31754,62.36288 -184.5379,42.5202 v 39.68537 z"
       style="fill:none;stroke:#000000;stroke-width:0.797;stroke-linecap:butt;stroke-linejoin:miter;stroke-miterlimit:10;stroke-dasharray:none;stroke-opacity:1"
       transform="matrix(1.3333333,0,0,-1.3333333,448.36133,303.36133)" />
    <path
       id="path9"
       d="m -178.58504,62.36288 h -5.95286 m -33.7325,0 h 5.95286"
       style="fill:none;stroke:#000000;stroke-width:0.3985;stroke-linecap:butt;stroke-linejoin:miter;stroke-miterlimit:10;stroke-dasharray:none;stroke-opacity:1"
       transform="matrix(1.3333333,0,0,-1.3333333,448.36133,303.36133)" />
    <path
       id="path10"
       d="m -170.08092,32.31532 v 0 30.04756 h -8.50412"
       style="fill:none;stroke:#000000;stroke-width:0.3985;stroke-linecap:butt;stroke-linejoin:miter;stroke-miterlimit:10;stroke-dasharray:none;stroke-opacity:1"
       transform="matrix(1.3333333,0,0,-1.3333333,448.36133,303.36133)" />
    <path
       id="path11"
       d="m -113.3873,2.83484 v 4.53541 m 0,7.93697 v 4.53545"
       style="fill:none;stroke:#000000;stroke-width:0.3985;stroke-linecap:butt;stroke-linejoin:miter;stroke-miterlimit:10;stroke-dasharray:none;stroke-opacity:1"
       transform="matrix(1.3333333,0,0,-1.3333333,448.36133,303.36133)" />
    <path
       id="path12"
       d="m -125.29301,7.37025 h 23.81144 m -23.81144,7.93697 h 23.81144"
       style="fill:none;stroke:#000000;stroke-width:0.797;stroke-linecap:butt;stroke-linejoin:miter;stroke-miterlimit:10;stroke-dasharray:none;stroke-opacity:1"
       transform="matrix(1.3333333,0,0,-1.3333333,448.36133,303.36133)" />
    <g
       id="g12"
       aria-label="C&#10;bus"
       transform="matrix(1.3333333,0,0,1.3333333,316.78667,291.104)">
      <path
         id="path13"
         d="m 7.5691797,-6.9246797 c 0,-0.023437 -0.023437,-0.09375 -0.1054688,-0.09375 -0.035156,0 -0.046875,0.011719 -0.1523437,0.1171875 l -0.703125,0.7617188 c -0.082031,-0.140625 -0.5390625,-0.8789063 -1.6523438,-0.8789063 -2.2148437,0 -4.45312496,2.203125 -4.45312496,4.5117188 0,1.64062496 1.17187496,2.73046871 2.69531246,2.73046871 0.8671875,0 1.6171875,-0.3984375 2.1445313,-0.85546875 0.9375,-0.82031246 1.1015625,-1.72265626 1.1015625,-1.75781246 0,-0.1054688 -0.1054688,-0.1054688 -0.1171875,-0.1054688 -0.058594,0 -0.1171875,0.023437 -0.1289063,0.1054688 -0.09375,0.2929687 -0.3164062,0.9960937 -1.0078125,1.57031246 -0.6914062,0.5625 -1.3125,0.7265625 -1.8398437,0.7265625 -0.890625,0 -1.9453125,-0.515625 -1.9453125,-2.06249996 0,-0.5742188 0.2109375,-2.1914063 1.2070312,-3.3515625 0.609375,-0.703125 1.5351563,-1.2070313 2.4257813,-1.2070313 1.0195312,0 1.6054687,0.7734375 1.6054687,1.921875 0,0.3984375 -0.035156,0.4101563 -0.035156,0.5039063 0,0.1054687 0.1171875,0.1054687 0.1523437,0.1054687 0.1289063,0 0.1289063,-0.023437 0.1757813,-0.1992187 z m 0,0"
         style="fill:#000000;fill-opacity:1;fill-rule:nonzero;stroke:none" />
      <path
         id="path14"
         d="m 8.9607813,-3.1336641 c 0.011719,-0.011719 0.023437,-0.1054687 0.023437,-0.1171875 0,-0.035156 -0.023437,-0.09375 -0.1054688,-0.09375 -0.140625,0 -0.7148437,0.058594 -0.890625,0.070312 -0.058594,0.011719 -0.1523437,0.011719 -0.1523437,0.1640625 0,0.09375 0.09375,0.09375 0.1757812,0.09375 0.3398438,0 0.3398438,0.046875 0.3398438,0.1054688 0,0.046875 -0.070312,0.328125 -0.1171875,0.4921875 l -0.1523433,0.632813 c -0.070312,0.2460937 -0.4570312,1.76953124 -0.46875,1.86328124 -0.035156,0.1640625 -0.035156,0.2578125 -0.035156,0.33984375 0,0.70312501 0.4453125,1.14843751 1.03125,1.14843751 0.8671875,0 1.792969,-0.94921876 1.792969,-1.98046876 0,-0.82031254 -0.5625003,-1.16015624 -1.042969,-1.16015624 -0.3632813,0 -0.6679688,0.1992187 -0.8789063,0.375 z m -0.3515625,4.5 c -0.3398438,0 -0.5273438,-0.2929687 -0.5273438,-0.70312496 0,-0.2578125 0.058594,-0.50390625 0.2578125,-1.2890625 0.035156,-0.12890625 0.035156,-0.140625 0.1640625,-0.29296875 0.2695313,-0.31640629 0.5859375,-0.46874999 0.8320313,-0.46874999 0.2695312,0 0.515625,0.2109375 0.515625,0.67968749 0,0.28125 -0.1523438,0.99609375 -0.3632813,1.40625 C 9.3123438,1.0382109 8.9725,1.3663359 8.6092188,1.3663359 Z M 13.577969,0.37024219 c -0.03516,0.140625 -0.105469,0.3984375 -0.117188,0.41015625 -0.128906,0.2109375 -0.410156,0.58593746 -0.84375,0.58593746 -0.480468,0 -0.480468,-0.44531246 -0.480468,-0.57421871 0,-0.41015625 0.199218,-0.90234375 0.386718,-1.41796875 0.05859,-0.140625 0.105469,-0.24609375 0.105469,-0.3515625 0,-0.36328124 -0.304687,-0.59765624 -0.667969,-0.59765624 -0.691406,0 -1.007812,0.94921874 -1.007812,1.06640624 0,0.0820313 0.09375,0.0820313 0.117187,0.0820313 0.09375,0 0.105469,-0.0351563 0.128907,-0.10546875 0.164062,-0.57421869 0.46875,-0.85546869 0.738281,-0.85546869 0.128906,0 0.175781,0.082031 0.175781,0.2460937 0,0.16406249 -0.04687,0.30468749 -0.117187,0.46874999 -0.386719,0.9609375 -0.386719,1.16015625 -0.386719,1.34765625 0,0.1171875 0,0.44531256 0.269531,0.66796876 0.199219,0.1640625 0.46875,0.2226563 0.714844,0.2226563 0.433594,0 0.679687,-0.234375 0.902344,-0.4570313 0.152343,0.4453125 0.621093,0.4570313 0.703125,0.4570313 0.234375,0 0.421875,-0.140625 0.550781,-0.375 0.152344,-0.26953131 0.257812,-0.66796881 0.257812,-0.69140631 0,-0.09375 -0.105468,-0.09375 -0.117187,-0.09375 -0.105469,0 -0.105469,0.0351563 -0.164063,0.22265625 -0.08203,0.328125 -0.210937,0.73828126 -0.503906,0.73828126 -0.175781,0 -0.234375,-0.1523437 -0.234375,-0.3398437 0,-0.11718756 0.05859,-0.36328131 0.105469,-0.55078131 0.04687,-0.1875 0.117187,-0.46875 0.152344,-0.62109375 L 14.41,-0.76647656 c 0.04687,-0.17578125 0.117188,-0.48046874 0.117188,-0.51562504 0,-0.140625 -0.105469,-0.2226562 -0.222657,-0.2226562 -0.257812,0 -0.316406,0.1992187 -0.363281,0.421875 z m 4.757812,-1.49999999 c -0.175781,0.046875 -0.292968,0.18749999 -0.292968,0.32812499 0,0.1640625 0.140625,0.22265625 0.234375,0.22265625 0.07031,0 0.339843,-0.0351563 0.339843,-0.3984375 0,-0.44531254 -0.503906,-0.59765624 -0.925781,-0.59765624 -1.089844,0 -1.289062,0.79687499 -1.289062,1.00781249 0,0.2578125 0.152343,0.43359375 0.246093,0.515625 0.175782,0.140625 0.304688,0.1640625 0.785157,0.24609375 0.152343,0.0351563 0.597656,0.1171875 0.597656,0.46875 0,0.1171875 -0.08203,0.37499996 -0.375,0.55078126 -0.269531,0.1523437 -0.609375,0.1523437 -0.691406,0.1523437 -0.28125,0 -0.679688,-0.058594 -0.84375,-0.2929687 0.234375,-0.023437 0.386718,-0.19921876 0.386718,-0.39843751 0,-0.1640625 -0.128906,-0.2578125 -0.269531,-0.2578125 -0.199219,0 -0.410156,0.1640625 -0.410156,0.46875 0,0.42187501 0.445312,0.67968751 1.125,0.67968751 1.289062,0 1.523437,-0.87890626 1.523437,-1.14843751 0,-0.64453125 -0.703125,-0.7734375 -0.960937,-0.8203125 -0.07031,-0.0117188 -0.246094,-0.0351563 -0.28125,-0.0585938 -0.257813,-0.046875 -0.386719,-0.1875 -0.386719,-0.33984375 0,-0.1640625 0.128906,-0.35156244 0.28125,-0.44531244 0.1875,-0.1289063 0.433594,-0.140625 0.550781,-0.140625 0.140625,0 0.503907,0.023437 0.65625,0.2578125 z m 0,0"
         style="fill:#000000;fill-opacity:1;fill-rule:nonzero;stroke:none" />
    </g>
    <path
       id="path15"
       d="m -170.08092,39.68535 h 56.69362 v 0 -19.84268"
       style="fill:none;stroke:#000000;stroke-width:0.3985;stroke-linecap:butt;stroke-linejoin:miter;stroke-miterlimit:10;stroke-dasharray:none;stroke-opacity:1"
       transform="matrix(1.3333333,0,0,-1.3333333,448.36133,303.36133)" />
    <path
       id="path16"
       d="M -170.08092,-28.3468 V -40.25238"
       style="fill:none;stroke:#000000;stroke-width:0.3985;stroke-linecap:butt;stroke-linejoin:miter;stroke-miterlimit:10;stroke-dasharray:none;stroke-opacity:1"
       transform="matrix(1.3333333,0,0,-1.3333333,448.36133,303.36133)" />
    <path
       id="path17"
       d="m -176.03377,-40.25238 h 11.9057 m -9.92133,-1.98424 h 7.93696 m -6.44879,-1.98438 h 4.96064"
       style="fill:none;stroke:#000000;stroke-width:0.797;stroke-linecap:butt;stroke-linejoin:miter;stroke-miterlimit:10;stroke-dasharray:none;stroke-opacity:1"
       transform="matrix(1.3333333,0,0,-1.3333333,448.36133,303.36133)" />
    <path
       id="path18"
       d="M -113.3873,-28.3468 V -40.25238"
       style="fill:none;stroke:#000000;stroke-width:0.3985;stroke-linecap:butt;stroke-linejoin:miter;stroke-miterlimit:10;stroke-dasharray:none;stroke-opacity:1"
       transform="matrix(1.3333333,0,0,-1.3333333,448.36133,303.36133)" />
    <path
       id="path19"
       d="m -119.34015,-40.25238 h 11.9057 m -9.92132,-1.98424 h 7.93695 m -6.44879,-1.98438 h 4.96064"
       style="fill:none;stroke:#000000;stroke-width:0.797;stroke-linecap:butt;stroke-linejoin:miter;stroke-miterlimit:10;stroke-dasharray:none;stroke-opacity:1"
       transform="matrix(1.3333333,0,0,-1.3333333,448.36133,303.36133)" />
    <path
       id="path20"
       d="m -113.3873,-28.3468 v 0 31.18164"
       style="fill:none;stroke:#000000;stroke-width:0.3985;stroke-linecap:butt;stroke-linejoin:miter;stroke-miterlimit:10;stroke-dasharray:none;stroke-opacity:1"
       transform="matrix(1.3333333,0,0,-1.3333333,448.36133,303.36133)" />
    <path
       id="path21"
       d="m -170.08092,-28.3468 v 0 17.00825"
       style="fill:none;stroke:#000000;stroke-width:0.3985;stroke-linecap:butt;stroke-linejoin:miter;stroke-miterlimit:10;stroke-dasharray:none;stroke-opacity:1"
       transform="matrix(1.3333333,0,0,-1.3333333,448.36133,303.36133)" />
    <path
       id="path22"
       d="M -311.31888,-22.18121 H -142.2302 V 98.71796 h -169.08868 z"
       style="fill:none;stroke:#000000;stroke-width:0.99628;stroke-linecap:butt;stroke-linejoin:miter;stroke-miterlimit:10;stroke-dasharray:none;stroke-opacity:1"
       transform="matrix(1.3333333,0,0,-1.3333333,448.36133,303.36133)" />
    <path
       id="path23"
       d="M 2.4014688,-6.5858203 C 2.3077188,-6.8084766 2.2842813,-6.8084766 2.0499063,-6.8084766 H 0.36240625 v 0.3164063 H 0.6085 c 0.7617188,0 0.7851563,0.1054687 0.7851563,0.46875 v 4.9804687 c 0,0.26953129 0,0.73828129 -1.03125005,0.73828129 V 1.171875e-4 C 0.71396875,-0.01160156 1.2061563,-0.03503906 1.5342813,-0.03503906 c 0.328125,0 0.8203125,0.0234375 1.1601562,0.0351562475 V -0.30457031 c -1.0195312,0 -1.0195312,-0.46875 -1.0195312,-0.73828129 v -5.3671875 h 0.011719 l 2.4023438,6.18750004 c 0.046875,0.12890625 0.09375,0.2226562475 0.1992187,0.2226562475 0.1054688,0 0.1289063,-0.0820312475 0.1757813,-0.1874999975 L 6.9131875,-6.4920703 h 0.011719 v 5.71874999 c 0,0.3515625 -0.023437,0.46875 -0.7851563,0.46875 H 5.8936563 V 1.171875e-4 C 6.2686563,-0.03503906 6.936625,-0.03503906 7.3350625,-0.03503906 c 0.3867188,0 1.0546875,0 1.4179688,0.0351562475 V -0.30457031 h -0.234375 c -0.7734375,0 -0.7851563,-0.1171875 -0.7851563,-0.46875 V -6.0233203 c 0,-0.3632813 0.011719,-0.46875 0.7851563,-0.46875 h 0.234375 V -6.8084766 H 7.07725 c -0.2695312,0 -0.2695312,0.011719 -0.3398437,0.1992188 l -2.1796875,5.6015625 z m 10.0488282,5.82421874 c 0.03516,0.3984375 0.304687,0.8203125 0.773437,0.8203125 0.210938,0 0.820313,-0.140625 0.820313,-0.94921875 V -1.4412891 h -0.246094 v 0.55078129 c 0,0.5859375 -0.246094,0.64453125 -0.363281,0.64453125 -0.328125,0 -0.363281,-0.45703125 -0.363281,-0.50390625 V -2.7420703 c 0,-0.4101563 0,-0.8085938 -0.363282,-1.171875 -0.386718,-0.3867188 -0.878906,-0.5507813 -1.359375,-0.5507813 -0.820312,0 -1.5117184,0.46875 -1.5117184,1.125 0,0.3046875 0.1992184,0.46875 0.4570314,0.46875 0.28125,0 0.46875,-0.1992187 0.46875,-0.4570312 0,-0.1171875 -0.05859,-0.4453125 -0.515625,-0.4570313 0.269531,-0.3515625 0.761719,-0.4570312 1.078125,-0.4570312 0.492187,0 1.054687,0.3867187 1.054687,1.2773437 v 0.3632813 c -0.503906,0.035156 -1.207031,0.058594 -1.828125,0.3632812 -0.7499996,0.3398438 -0.9960934,0.8554688 -0.9960934,1.28906254 0,0.80859375 0.9609374,1.0546875 1.5937504,1.0546875 0.65625,0 1.113281,-0.3984375 1.300781,-0.8671875 z m -0.07031,-1.62890624 v 0.9960937 c 0,0.94921879 -0.714843,1.28906254 -1.160156,1.28906254 -0.492187,0 -0.902344,-0.3515625 -0.902344,-0.85546875 0,-0.53906249 0.421875,-1.37109379 2.0625,-1.42968749 z m 3.808594,0.4570312 c 0.222656,0.035156 1.03125,0.1992188 1.03125,0.9140625 0,0.51562504 -0.351562,0.91406254 -1.125,0.91406254 -0.832031,0 -1.195312,-0.57421875 -1.382812,-1.41796874 -0.03516,-0.1289063 -0.03516,-0.1757813 -0.140625,-0.1757813 -0.128907,0 -0.128907,0.070312 -0.128907,0.2578125 v 1.31250004 c 0,0.1640625 0,0.234375 0.105469,0.234375 0.05859,0 0.07031,0 0.257813,-0.19921875 0.01172,-0.01171875 0.01172,-0.03515625 0.199218,-0.22265625 0.433594,0.421875 0.878907,0.421875 1.089844,0.421875 1.148438,0 1.605469,-0.66796875 1.605469,-1.38281254 0,-0.5273437 -0.292969,-0.8203125 -0.421875,-0.9492187 -0.328125,-0.3164063 -0.714844,-0.3984375 -1.136719,-0.46875 -0.550781,-0.1171875 -1.21875,-0.2460938 -1.21875,-0.8203125 0,-0.3515625 0.257813,-0.7617188 1.113281,-0.7617188 1.101563,0 1.148438,0.9023438 1.171875,1.2070313 0,0.09375 0.09375,0.09375 0.117188,0.09375 0.128906,0 0.128906,-0.046875 0.128906,-0.2460938 v -0.9960937 c 0,-0.1757813 0,-0.2460938 -0.117187,-0.2460938 -0.04687,0 -0.07031,0 -0.199219,0.1171875 -0.02344,0.046875 -0.128906,0.1289063 -0.164063,0.1640625 -0.375,-0.28125 -0.785156,-0.28125 -0.9375,-0.28125 -1.21875,0 -1.59375,0.6679688 -1.59375,1.2304688 0,0.3398437 0.164063,0.6210937 0.433594,0.84375 0.316406,0.2578125 0.597656,0.3164062 1.3125,0.4570312 z m 3.577149,-2.0507812 h 1.429687 V -4.2889453 H 19.76573 v -1.8398438 h -0.246094 c -0.01172,0.8203125 -0.316406,1.8867188 -1.289063,1.921875 v 0.2226563 h 0.84375 v 2.7539062 c 0,1.21875004 0.925782,1.33593754 1.289063,1.33593754 0.703125,0 0.984375,-0.703125 0.984375,-1.33593754 v -0.5742187 h -0.246094 v 0.5507812 c 0,0.73828129 -0.304687,1.11328129 -0.667969,1.11328129 -0.667968,0 -0.667968,-0.90234379 -0.667968,-1.07812499 z m 3.266601,1.4765625 c 0.05859,-1.4882813 0.902344,-1.734375 1.242188,-1.734375 1.019531,0 1.125,1.3476562 1.125,1.734375 z m -0.01172,0.2109375 h 2.789063 c 0.210937,0 0.246094,0 0.246094,-0.2109375 0,-0.984375 -0.539063,-1.9570313 -1.78125,-1.9570313 -1.160157,0 -2.074219,1.03125 -2.074219,2.2734375 0,1.33593754 1.042969,2.29687504 2.191406,2.29687504 1.21875,0 1.664063,-1.1015625 1.664063,-1.28906254 0,-0.1054687 -0.08203,-0.1171875 -0.128907,-0.1171875 -0.09375,0 -0.117187,0.058594 -0.128906,0.140625 -0.351562,1.01953129 -1.253906,1.01953129 -1.347656,1.01953129 -0.503906,0 -0.902344,-0.29296875 -1.125,-0.66796875 -0.30469,-0.48046874 -0.30469,-1.13671874 -0.30469,-1.48828124 z m 4.989258,-1.0078125 v -1.1015625 l -1.382812,0.1171875 v 0.3046875 c 0.691406,0 0.773437,0.070312 0.773437,0.5625 v 2.66015624 c 0,0.45703125 -0.105469,0.45703125 -0.773437,0.45703125 V 1.171875e-4 C 27.013773,-0.01160156 27.482523,-0.03503906 27.763773,-0.03503906 c 0.398438,0 0.867188,0 1.265625,0.0351562475 V -0.30457031 h -0.210937 c -0.738281,0 -0.761719,-0.1171875 -0.761719,-0.46875 V -2.3084766 c 0,-0.984375 0.421875,-1.875 1.183594,-1.875 0.05859,0 0.08203,0 0.105469,0.011719 -0.03516,0.011719 -0.234375,0.1289062 -0.234375,0.3867187 0,0.28125 0.210937,0.4335938 0.433593,0.4335938 0.175782,0 0.421875,-0.1289063 0.421875,-0.4453125 0,-0.3164063 -0.304687,-0.609375 -0.726562,-0.609375 -0.738281,0 -1.089844,0.6679687 -1.230469,1.1015625 z m 9.703125,-0.011719 c 0.08203,-0.234375 0.257813,-0.65625 0.914063,-0.6679687 v -0.3046875 c -0.234375,0.011719 -0.515625,0.023437 -0.75,0.023437 -0.234375,0 -0.691407,-0.023437 -0.867188,-0.023437 v 0.3046875 c 0.375,0.011719 0.480469,0.234375 0.480469,0.4335937 0,0.082031 -0.02344,0.1289063 -0.05859,0.234375 L 36.412211,-0.77332031 35.29893,-3.5506641 c -0.05859,-0.140625 -0.05859,-0.1523437 -0.05859,-0.1757812 0,-0.2578125 0.386719,-0.2578125 0.5625,-0.2578125 v -0.3046875 c -0.292969,0 -0.855469,0.023437 -1.078125,0.023437 -0.269531,0 -0.667969,-0.011719 -0.972656,-0.023437 v 0.3046875 c 0.632812,0 0.667968,0.058594 0.796875,0.3632812 l 1.441406,3.53906254 c 0.05859,0.140625 0.07031,0.1875 0.199219,0.1875 0.128906,0 0.175781,-0.08203125 0.210937,-0.1875 z m 1.954102,0.8085938 c 0.05859,-1.4882813 0.902344,-1.734375 1.242187,-1.734375 1.019532,0 1.125,1.3476562 1.125,1.734375 z m -0.01172,0.2109375 h 2.789063 c 0.210937,0 0.246093,0 0.246093,-0.2109375 0,-0.984375 -0.539062,-1.9570313 -1.78125,-1.9570313 -1.160156,0 -2.074218,1.03125 -2.074218,2.2734375 0,1.33593754 1.042968,2.29687504 2.191406,2.29687504 1.21875,0 1.664062,-1.1015625 1.664062,-1.28906254 0,-0.1054687 -0.08203,-0.1171875 -0.128906,-0.1171875 -0.09375,0 -0.117187,0.058594 -0.128906,0.140625 -0.351563,1.01953129 -1.253906,1.01953129 -1.347656,1.01953129 -0.503907,0 -0.902344,-0.29296875 -1.125,-0.66796875 C 39.655375,-1.2889453 39.655375,-1.9451953 39.655375,-2.2967578 Z m 7.461914,-1.0546875 c 0.257813,-0.6210938 0.761719,-0.6328125 0.925781,-0.6328125 v -0.3046875 c -0.234375,0.011719 -0.515625,0.023437 -0.75,0.023437 -0.175781,0 -0.644531,-0.023437 -0.867187,-0.023437 v 0.3046875 c 0.304687,0.011719 0.46875,0.1757812 0.46875,0.4335937 0,0.09375 -0.01172,0.1171875 -0.05859,0.234375 l -1.007812,2.44921879 -1.101563,-2.68359379 c -0.04687,-0.09375 -0.05859,-0.140625 -0.05859,-0.1757812 0,-0.2578125 0.363282,-0.2578125 0.550782,-0.2578125 v -0.3046875 c -0.257813,0 -0.914063,0.023437 -1.078125,0.023437 -0.269532,0 -0.667969,-0.011719 -0.972657,-0.023437 v 0.3046875 c 0.480469,0 0.667969,0 0.808594,0.3515625 l 1.5,3.6328124875 C 45.41807,0.12902344 45.277445,0.45714844 45.218852,0.58605469 45.007914,1.1368359 44.726664,1.8282422 44.082133,1.8282422 c -0.04687,0 -0.269531,0 -0.46875,-0.1875 0.316406,-0.035156 0.398437,-0.2578125 0.398437,-0.4101563 0,-0.26953121 -0.199218,-0.42187496 -0.421875,-0.42187496 -0.199218,0 -0.421875,0.12890625 -0.421875,0.42187496 0,0.4570313 0.421875,0.8085938 0.914063,0.8085938 0.632812,0 1.042969,-0.5625 1.277344,-1.13671876 z m 4.160156,2.58984374 c 0.03516,0.3984375 0.304688,0.8203125 0.773438,0.8203125 0.210937,0 0.820312,-0.140625 0.820312,-0.94921875 V -1.4412891 h -0.246093 v 0.55078129 c 0,0.5859375 -0.246094,0.64453125 -0.363282,0.64453125 -0.328125,0 -0.363281,-0.45703125 -0.363281,-0.50390625 V -2.7420703 c 0,-0.4101563 0,-0.8085938 -0.363281,-1.171875 -0.386719,-0.3867188 -0.878906,-0.5507813 -1.359375,-0.5507813 -0.820313,0 -1.511719,0.46875 -1.511719,1.125 0,0.3046875 0.199219,0.46875 0.457031,0.46875 0.28125,0 0.46875,-0.1992187 0.46875,-0.4570312 0,-0.1171875 -0.05859,-0.4453125 -0.515625,-0.4570313 0.269532,-0.3515625 0.761719,-0.4570312 1.078125,-0.4570312 0.492188,0 1.054688,0.3867187 1.054688,1.2773437 v 0.3632813 c -0.503906,0.035156 -1.207031,0.058594 -1.828125,0.3632812 -0.75,0.3398438 -0.996094,0.8554688 -0.996094,1.28906254 0,0.80859375 0.960938,1.0546875 1.59375,1.0546875 0.65625,0 1.113281,-0.3984375 1.300781,-0.8671877 z M 51.207136,-2.390508 v 0.9960937 c 0,0.94921879 -0.714844,1.28906254 -1.160156,1.28906254 -0.492188,0 -0.902344,-0.3515625 -0.902344,-0.85546875 0,-0.53906249 0.421875,-1.37109379 2.0625,-1.42968749 z m 8.53418,-1.4765625 -1.277344,-0.3046875 c -0.621094,-0.1523438 -1.007813,-0.6914063 -1.007813,-1.265625 0,-0.703125 0.539063,-1.3007813 1.3125,-1.3007813 1.664063,0 1.886719,1.6289063 1.945313,2.0742188 0.01172,0.058594 0.01172,0.1171875 0.117187,0.1171875 0.128907,0 0.128907,-0.046875 0.128907,-0.234375 v -2.0039063 c 0,-0.1640625 0,-0.234375 -0.105469,-0.234375 -0.07031,0 -0.08203,0.011719 -0.152344,0.1289063 l -0.351562,0.5625 c -0.292969,-0.28125 -0.703125,-0.6914063 -1.59375,-0.6914063 -1.101563,0 -1.933594,0.8789063 -1.933594,1.9335938 0,0.8203125 0.527344,1.546875 1.300781,1.8164062 0.105469,0.046875 0.621094,0.1640625 1.3125,0.328125 0.269531,0.070312 0.574219,0.140625 0.84375,0.515625 0.210938,0.2578125 0.316406,0.5859375 0.316406,0.9140625 0,0.70312504 -0.503906,1.41796879 -1.335937,1.41796879 -0.292969,0 -1.042969,-0.046875 -1.570313,-0.5390625 -0.585937,-0.52734379 -0.609375,-1.17187499 -0.621093,-1.52343749 -0.01172,-0.1054688 -0.09375,-0.1054688 -0.117188,-0.1054688 -0.128906,0 -0.128906,0.070312 -0.128906,0.2460938 v 1.99218749 c 0,0.17578125 0,0.24609375 0.105469,0.24609375 0.07031,0 0.08203,-0.0234375 0.152343,-0.12890625 0,-0.01171875 0.02344,-0.046875 0.351563,-0.57421875 0.316406,0.33984375 0.949219,0.703125 1.839844,0.703125 1.160156,0 1.957031,-0.984375 1.957031,-2.07421874 0,-0.9960938 -0.65625,-1.8164063 -1.488281,-2.015625 z m 3.811523,-3.046875 -1.429688,0.1054687 v 0.3164063 c 0.703125,0 0.773438,0.070312 0.773438,0.5507812 v 5.17968754 c 0,0.45703125 -0.105469,0.45703125 -0.773438,0.45703125 V 1.171875e-4 c 0.328122,-0.0117187475 0.855466,-0.0351562475 1.10156,-0.0351562475 0.257812,0 0.738281,0.0234375 1.113281,0.0351562475 V -0.30457031 c -0.667969,0 -0.785156,0 -0.785156,-0.45703125 z m 4.327148,6.15234374 c 0.03516,0.3984375 0.304688,0.8203125 0.773438,0.8203125 0.210937,0 0.820312,-0.140625 0.820312,-0.94921875 V -1.4412891 h -0.246093 v 0.55078129 c 0,0.5859375 -0.246094,0.64453125 -0.363282,0.64453125 -0.328125,0 -0.363281,-0.45703125 -0.363281,-0.50390625 V -2.7420703 c 0,-0.4101563 0,-0.8085938 -0.363281,-1.171875 -0.386719,-0.3867188 -0.878906,-0.5507813 -1.359375,-0.5507813 -0.820313,0 -1.511719,0.46875 -1.511719,1.125 0,0.3046875 0.199219,0.46875 0.457031,0.46875 0.28125,0 0.46875,-0.1992187 0.46875,-0.4570312 0,-0.1171875 -0.05859,-0.4453125 -0.515625,-0.4570313 0.269532,-0.3515625 0.761719,-0.4570312 1.078125,-0.4570312 0.492188,0 1.054688,0.3867187 1.054688,1.2773437 v 0.3632813 c -0.503906,0.035156 -1.207031,0.058594 -1.828125,0.3632812 -0.75,0.3398438 -0.996094,0.8554688 -0.996094,1.28906254 0,0.80859375 0.960938,1.0546875 1.59375,1.0546875 0.65625,0 1.113281,-0.3984375 1.300781,-0.8671877 z M 67.809677,-2.390508 v 0.9960937 c 0,0.94921879 -0.714844,1.28906254 -1.160156,1.28906254 -0.492188,0 -0.902344,-0.3515625 -0.902344,-0.85546875 0,-0.53906249 0.421875,-1.37109379 2.0625,-1.42968749 z m 5.604492,-0.9257813 c 0.08203,-0.234375 0.257813,-0.65625 0.914063,-0.6679687 v -0.3046875 c -0.234375,0.011719 -0.515625,0.023437 -0.75,0.023437 -0.234375,0 -0.691407,-0.023437 -0.867188,-0.023437 v 0.3046875 c 0.375,0.011719 0.480469,0.234375 0.480469,0.4335937 0,0.082031 -0.02344,0.1289063 -0.05859,0.234375 l -1.019531,2.54296879 -1.113281,-2.77734379 c -0.05859,-0.140625 -0.05859,-0.1523437 -0.05859,-0.1757812 0,-0.2578125 0.386719,-0.2578125 0.5625,-0.2578125 v -0.3046875 c -0.292969,0 -0.855469,0.023437 -1.078125,0.023437 -0.269531,0 -0.667969,-0.011719 -0.972656,-0.023437 v 0.3046875 c 0.632812,0 0.667968,0.058594 0.796875,0.3632812 l 1.441406,3.53906254 c 0.05859,0.140625 0.07031,0.1875 0.199219,0.1875 0.128906,0 0.175781,-0.08203125 0.210937,-0.1875 z m 1.942383,0.8085938 c 0.05859,-1.4882813 0.902344,-1.734375 1.242187,-1.734375 1.019532,0 1.125,1.3476562 1.125,1.734375 z m -0.01172,0.2109375 h 2.789063 c 0.210937,0 0.246093,0 0.246093,-0.2109375 0,-0.984375 -0.539062,-1.9570313 -1.78125,-1.9570313 -1.160156,0 -2.074218,1.03125 -2.074218,2.2734375 0,1.33593754 1.042968,2.29687504 2.191406,2.29687504 1.21875,0 1.664062,-1.1015625 1.664062,-1.28906254 0,-0.1054687 -0.08203,-0.1171875 -0.128906,-0.1171875 -0.09375,0 -0.117187,0.058594 -0.128906,0.140625 -0.351563,1.01953129 -1.253906,1.01953129 -1.347656,1.01953129 -0.503907,0 -0.902344,-0.29296875 -1.125,-0.66796875 C 75.344828,-1.2889453 75.344828,-1.9451953 75.344828,-2.2967578 Z m 0,0"
       style="fill:#000000;fill-opacity:1;fill-rule:nonzero;stroke:none"
       aria-label="MasterveyaSlave"
       transform="matrix(1.3333333,0,0,1.3333333,90.438667,354.16)" />
    <path
       id="path24"
       d="m -288.64153,-8.0078 h 61.37065 v 92.55234 h -61.37065 z"
       style="fill:none;stroke:#000000;stroke-width:0.99628;stroke-linecap:butt;stroke-linejoin:miter;stroke-miterlimit:10;stroke-dasharray:none;stroke-opacity:1"
       transform="matrix(1.3333333,0,0,-1.3333333,448.36133,303.36133)" />
    <g
       id="g24"
       aria-label="I²CLojik"
       transform="matrix(1.3333333,0,0,1.3333333,76.844,256.02667)">
      <path
         id="path25"
         d="m 2.2380938,-6.0229297 c 0,-0.3632812 0.035156,-0.46875 0.8203125,-0.46875 H 3.3162188 V -6.8080859 C 2.9646563,-6.7729297 2.1795,-6.7729297 1.8045,-6.7729297 c -0.3867187,0 -1.171875,0 -1.5234375,-0.035156 v 0.3164062 H 0.538875 c 0.7851563,0 0.8203125,0.1054688 0.8203125,0.46875 v 5.25000001 c 0,0.3515625 -0.035156,0.46875 -0.8203125,0.46875 H 0.2810625 V 5.078125e-4 C 0.632625,-0.03464844 1.4177813,-0.03464844 1.7927813,-0.03464844 c 0.3867187,0 1.171875,0 1.5234375,0.0351562525 V -0.30417969 H 3.0584063 c -0.7851563,0 -0.8203125,-0.1171875 -0.8203125,-0.46875 z m 0,0"
         style="fill:#000000;fill-opacity:1;fill-rule:nonzero;stroke:none" />
      <path
         id="path26"
         d="m 4.6990313,-7.1596484 c 0.2578125,-0.1289063 0.4921875,-0.234375 0.796875,-0.234375 0.6445312,0 1.1015625,0.4570312 1.1015625,1.0546875 0,0.421875 -0.28125,0.7265625 -0.5976563,0.984375 -0.5273437,0.4101562 -1.1367187,0.7382812 -1.6992187,1.1132812 -0.1054688,0.070312 -0.1992188,0.09375 -0.1992188,0.2695313 v 0.5039062 h 3.1289063 l 0.28125,-1.7460937 H 7.2654375 c -0.09375,0.5390625 -0.035156,0.9609375 -0.6210937,0.9609375 H 6.445125 c -0.234375,0.011719 -0.4804687,0.023437 -0.7148437,0.023437 -0.3164063,0 -0.6445313,-0.011719 -0.9726563,-0.011719 0.140625,-0.1054687 0.3046875,-0.1757812 0.46875,-0.2578125 0.3164063,-0.1875 0.6210938,-0.3515625 0.9492188,-0.5039062 0.5976562,-0.2578125 1.3359375,-0.5742188 1.3359375,-1.3476563 0,-0.9023437 -0.9375,-1.359375 -1.8164063,-1.359375 -0.5507812,0 -1.59375,0.2109375 -1.59375,1.0546875 0,0.2695313 0.1640625,0.5390625 0.5273438,0.5390625 0.328125,0 0.515625,-0.2460937 0.515625,-0.515625 0,-0.3398437 -0.234375,-0.4453125 -0.4453125,-0.527343 z m 0,0"
         style="fill:#000000;fill-opacity:1;fill-rule:nonzero;stroke:none" />
      <path
         id="path27"
         d="m 8.5867266,-3.4096484 c 0,2.0625 1.6054684,3.63281246 3.4570314,3.63281246 1.628906,0 2.601562,-1.38281246 2.601562,-2.54296876 0,-0.1054687 0,-0.1757812 -0.128906,-0.1757812 -0.105469,0 -0.105469,0.070312 -0.117187,0.1640625 -0.08203,1.42968746 -1.148438,2.23828121 -2.226563,2.23828121 -0.609375,0 -2.5664062,-0.33984375 -2.5664062,-3.30468751 0,-2.9765625 1.9453122,-3.3164062 2.5546872,-3.3164062 1.078125,0 1.96875,0.9023437 2.167969,2.3671875 0.02344,0.1289062 0.02344,0.1640625 0.164063,0.1640625 0.152343,0 0.152343,-0.035156 0.152343,-0.234375 v -2.3671875 c 0,-0.1640625 0,-0.234375 -0.105468,-0.234375 -0.03516,0 -0.08203,0 -0.164063,0.1171875 l -0.492187,0.7382812 c -0.375,-0.3632812 -0.878907,-0.8554687 -1.839844,-0.8554687 -1.863281,0 -3.4570314,1.5820312 -3.4570314,3.609375 z m 15.7500004,0.84375 h -0.257813 c -0.105469,1.0078125 -0.246094,2.26171871 -1.992187,2.26171871 h -0.820313 c -0.46875,0 -0.492187,-0.0703125 -0.492187,-0.3984375 V -6.0112109 c 0,-0.3398438 0,-0.4804688 0.949218,-0.4804688 h 0.328125 v -0.3164062 c -0.363281,0.035156 -1.265625,0.035156 -1.675781,0.035156 -0.386719,0 -1.160156,0 -1.511719,-0.035156 v 0.3164062 h 0.234375 c 0.773438,0 0.796875,0.1054688 0.796875,0.46875 v 5.25000001 c 0,0.3515625 -0.02344,0.46875 -0.796875,0.46875 H 18.86407 V 5.078125e-4 h 5.191407 z m 5.115234,0.4335937 c 0,-1.2773437 -0.996094,-2.3320312 -2.191406,-2.3320312 -1.253907,0 -2.214844,1.0898437 -2.214844,2.3320312 0,1.28906251 1.03125,2.23828126 2.203125,2.23828126 1.207031,0 2.203125,-0.97265625 2.203125,-2.23828126 z m -2.191406,1.99218751 c -0.433594,0 -0.867188,-0.2109375 -1.136719,-0.66796875 -0.257813,-0.43359376 -0.257813,-1.04296876 -0.257813,-1.40624996 0,-0.3867188 0,-0.9257813 0.246094,-1.359375 0.269531,-0.4570313 0.738281,-0.6679688 1.136719,-0.6679688 0.433594,0 0.867187,0.2226563 1.125,0.6445313 0.257812,0.4335937 0.257812,1.0078125 0.257812,1.3828125 0,0.3632812 0,0.9023437 -0.222656,1.33593746 -0.222656,0.4453125 -0.65625,0.73828125 -1.148437,0.73828125 z m 5.138672,-4.26562501 -1.523438,0.1171875 v 0.3046875 c 0.773438,0 0.855469,0.070312 0.855469,0.5625 v 3.93750001 c 0,0.4453125 -0.08203,1.31249999 -0.726563,1.31249999 -0.04687,0 -0.269531,0 -0.539062,-0.1289062 0.152344,-0.046875 0.351562,-0.1875 0.351562,-0.4570313 0,-0.25781249 -0.175781,-0.45703124 -0.457031,-0.45703124 -0.28125,0 -0.457031,0.19921875 -0.457031,0.45703124 0,0.515625 0.5625,0.796875 1.125,0.796875 0.75,0 1.371094,-0.6328125 1.371094,-1.53515624 z m 0,-1.734375 c 0,-0.28125 -0.246094,-0.5273437 -0.539063,-0.5273437 -0.28125,0 -0.527344,0.2460937 -0.527344,0.5273437 0,0.2929688 0.246094,0.5273438 0.527344,0.5273438 0.292969,0 0.539063,-0.234375 0.539063,-0.5273438 z m 2.704101,1.734375 -1.394531,0.1171875 v 0.3046875 c 0.65625,0 0.738281,0.058594 0.738281,0.5507813 v 2.67187496 c 0,0.45703125 -0.105469,0.45703125 -0.773437,0.45703125 V 5.078125e-4 C 33.990047,-0.01121094 34.529109,-0.03464844 34.775203,-0.03464844 c 0.339844,0 0.691406,0.0234375 1.03125,0.0351562525 V -0.30417969 c -0.65625,0 -0.703125,-0.0585938 -0.703125,-0.4453125 z m 0.04687,-1.734375 c 0,-0.3164062 -0.246094,-0.5273437 -0.527344,-0.5273437 -0.316406,0 -0.527343,0.2695312 -0.527343,0.5273437 0,0.2695313 0.210937,0.5273438 0.527343,0.5273438 0.28125,0 0.527344,-0.1992188 0.527344,-0.5273438 z m 2.018555,5.37890626 c 0,0.45703125 -0.105469,0.45703125 -0.773438,0.45703125 V 5.078125e-4 c 0.32813,-0.0117187525 0.79688,-0.0351562525 1.07813,-0.0351562525 0.304688,0 0.703125,0.01171875 1.101563,0.0351562525 V -0.30417969 c -0.667969,0 -0.773438,0 -0.773438,-0.45703125 V -1.7807422 l 0.632813,-0.5507812 c 0.773437,1.0546875 1.183594,1.61718746 1.183594,1.79296871 0,0.1875 -0.164063,0.234375 -0.351563,0.234375 V 5.078125e-4 C 39.535945,-0.01121094 40.133602,-0.03464844 40.33282,-0.03464844 c 0.292969,0 0.585938,0.01171875 0.867188,0.0351562525 V -0.30417969 c -0.363281,0 -0.585938,0 -0.960938,-0.52734375 L 38.973445,-2.6244922 c -0.01172,-0.011719 -0.05859,-0.070312 -0.05859,-0.1054687 0,-0.035156 0.703125,-0.6328125 0.808593,-0.7148438 0.621094,-0.5039062 1.042969,-0.5273437 1.253907,-0.5390625 v -0.3046875 c -0.292969,0.023437 -0.421875,0.023437 -0.703125,0.023437 -0.351563,0 -0.972657,-0.023437 -1.113282,-0.023437 v 0.3046875 c 0.1875,0.011719 0.292969,0.1171875 0.292969,0.2460938 0,0.1992187 -0.140625,0.3164062 -0.222656,0.3867187 l -1.40625,1.21875 v -4.78125 l -1.429688,0.1054688 v 0.3164062 c 0.691407,0 0.773438,0.070312 0.773438,0.5507813 z m 0,0"
         style="fill:#000000;fill-opacity:1;fill-rule:nonzero;stroke:none" />
    </g>
    <path
       id="path28"
       d="m -218.27039,62.36288 h -8.50415"
       style="fill:none;stroke:#000000;stroke-width:0.3985;stroke-linecap:butt;stroke-linejoin:miter;stroke-miterlimit:10;stroke-dasharray:none;stroke-opacity:1"
       transform="matrix(1.3333333,0,0,-1.3333333,448.36133,303.36133)" />
    <path
       id="path29"
       d="m -197.86066,10.48817 h -28.91388 v 0.85038"
       style="fill:none;stroke:#000000;stroke-width:0.3985;stroke-linecap:butt;stroke-linejoin:miter;stroke-miterlimit:10;stroke-dasharray:none;stroke-opacity:1"
       transform="matrix(1.3333333,0,0,-1.3333333,448.36133,303.36133)" />
    <path
       id="path30"
       d="M -255.12134,113.38724 H -56.69368"
       style="fill:none;stroke:#000000;stroke-width:0.3985;stroke-linecap:butt;stroke-linejoin:miter;stroke-miterlimit:10;stroke-dasharray:none;stroke-opacity:1"
       transform="matrix(1.3333333,0,0,-1.3333333,448.36133,303.36133)" />
    <path
       id="path31"
       d="M -255.12134,141.73404 H -56.69368"
       style="fill:none;stroke:#000000;stroke-width:0.3985;stroke-linecap:butt;stroke-linejoin:miter;stroke-miterlimit:10;stroke-dasharray:none;stroke-opacity:1"
       transform="matrix(1.3333333,0,0,-1.3333333,448.36133,303.36133)" />
    <path
       id="path32"
       d="m -255.12134,113.38724 h -56.69362"
       style="fill:none;stroke:#000000;stroke-width:0.3985;stroke-linecap:butt;stroke-linejoin:miter;stroke-miterlimit:10;stroke-dasharray:none;stroke-opacity:1"
       transform="matrix(1.3333333,0,0,-1.3333333,448.36133,303.36133)" />
    <path
       id="path33"
       d="m -255.12134,141.73404 h -56.69362"
       style="fill:none;stroke:#000000;stroke-width:0.3985;stroke-linecap:butt;stroke-linejoin:miter;stroke-miterlimit:10;stroke-dasharray:none;stroke-opacity:1"
       transform="matrix(1.3333333,0,0,-1.3333333,448.36133,303.36133)" />
    <path
       id="path34"
       d="m -255.12134,150.23816 2e-5,8.22055 m 0,31.74839 -2e-5,8.22056"
       style="fill:none;stroke:#000000;stroke-width:0.3985;stroke-linecap:butt;stroke-linejoin:miter;stroke-miterlimit:10;stroke-dasharray:none;stroke-opacity:1"
       transform="matrix(1.3333333,0,0,-1.3333333,448.36133,303.36133)" />
    <path
       id="path35"
       d="m -255.12132,158.06021 -5.95285,3.07741 11.9057,5.35782 -11.9057,5.35782 11.9057,5.3578 -11.9057,5.35782 11.9057,5.35782 -5.95285,2.6789"
       style="fill:none;stroke:#000000;stroke-width:0.797;stroke-linecap:butt;stroke-linejoin:bevel;stroke-miterlimit:10;stroke-dasharray:none;stroke-opacity:1"
       transform="matrix(1.3333333,0,0,-1.3333333,448.36133,303.36133)" />
    <g
       id="g35"
       aria-label="R&#10;p"
       transform="matrix(1.3333333,0,0,1.3333333,81.102667,73.78)">
      <path
         id="path36"
         d="m 3.7374531,-6.11625 c 0.058594,-0.234375 0.082031,-0.3398438 0.28125,-0.3632813 0.082031,-0.011719 0.3984375,-0.011719 0.5976563,-0.011719 0.7148437,0 1.8164062,0 1.8164062,0.984375 0,0.3398437 -0.1523437,1.0195312 -0.5507812,1.4179687 -0.2578125,0.2578125 -0.7851563,0.5742188 -1.6757813,0.5742188 H 3.0929219 Z m 1.4296875,2.7304687 c 1.0078125,-0.2226562 2.1914063,-0.9140625 2.1914063,-1.921875 0,-0.8554687 -0.890625,-1.5 -2.203125,-1.5 H 2.3194844 c -0.1992188,0 -0.2929688,0 -0.2929688,0.1992188 0,0.1171875 0.09375,0.1171875 0.28125,0.1171875 0.023437,0 0.2109375,0 0.3867188,0.011719 0.1757812,0.023437 0.2578125,0.035156 0.2578125,0.1640625 0,0.035156 0,0.070312 -0.035156,0.1875 L 1.5812031,-0.7725 c -0.09375,0.38671875 -0.1171875,0.46875 -0.90234372,0.46875 -0.17578125,0 -0.26953125,0 -0.26953125,0.19921875 0,0.10546875 0.1171875,0.10546875 0.140625,0.10546875 0.28125,0 0.97265627,-0.03515625 1.25390627,-0.03515625 0.28125,0 0.984375,0.03515625 1.265625,0.03515625 0.082031,0 0.1992187,0 0.1992187,-0.19921875 0,-0.10546875 -0.09375,-0.10546875 -0.28125,-0.10546875 -0.3632812,0 -0.6445312,0 -0.6445312,-0.1875 0,-0.0585937 0.011719,-0.10546875 0.023437,-0.1640625 l 0.65625,-2.6367188 h 1.1953125 c 0.9023437,0 1.078125,0.5507813 1.078125,0.9023438 0,0.1523437 -0.082031,0.4570312 -0.140625,0.6914062 -0.070312,0.2695313 -0.1523438,0.6445313 -0.1523438,0.84375005 0,1.078125 1.1953125,1.078125 1.3242188,1.078125 0.84375,0 1.1953125,-1.0078125 1.1953125,-1.1484375 0,-0.11718755 -0.1171875,-0.11718755 -0.1171875,-0.11718755 -0.09375,0 -0.1171875,0.0703126 -0.1289063,0.14062505 C 7.0187031,-0.163125 6.5968281,9.375e-4 6.3624531,9.375e-4 c -0.328125,0 -0.3984375,-0.22265625 -0.3984375,-0.609375 0,-0.3046875 0.058594,-0.8203125 0.1054688,-1.1367188 0.011719,-0.140625 0.035156,-0.328125 0.035156,-0.46875 0,-0.7617187 -0.6679687,-1.078125 -0.9374998,-1.171875 z m 0,0"
         style="fill:#000000;fill-opacity:1;fill-rule:nonzero;stroke:none" />
      <path
         id="path37"
         d="m 8.0909688,2.3505469 c -0.058594,0.1875 -0.070312,0.2460937 -0.3515625,0.2460937 -0.082031,0 -0.1875,0 -0.1875,0.1523438 0,0.070312 0.070312,0.09375 0.1054687,0.09375 0.1757813,0 0.4101563,-0.023437 0.5976563,-0.023437 0.234375,0 0.5039062,0.023437 0.7265625,0.023437 0.070312,0 0.140625,-0.011719 0.140625,-0.1523438 0,-0.09375 -0.09375,-0.09375 -0.1757813,-0.09375 -0.1523437,0 -0.3398437,0 -0.3398437,-0.082031 0,-0.035156 0.046875,-0.2226563 0.070312,-0.3164063 0.082031,-0.375 0.1875,-0.75 0.2578125,-1.0429687 0.082031,0.140625 0.3046875,0.4101562 0.7265625,0.4101562 0.8437502,0 1.7812502,-0.93749998 1.7812502,-1.98046873 0,-0.82031247 -0.5625,-1.16015627 -1.042968,-1.16015627 -0.4335947,0 -0.796876,0.2929688 -0.984376,0.4804688 -0.117187,-0.3984377 -0.5156245,-0.480469 -0.726562,-0.480469 -0.2695312,0 -0.4335937,0.1757813 -0.5507812,0.3632813 -0.140625,0.23437497 -0.2460938,0.65624997 -0.2460938,0.70312497 0,0.0820313 0.09375,0.0820313 0.1171875,0.0820313 0.09375,0 0.1054688,-0.0117188 0.1523438,-0.19921875 0.1054687,-0.41015632 0.234375,-0.76171882 0.515625,-0.76171882 0.1757812,0 0.2226562,0.1523438 0.2226562,0.3398438 0,0.0820312 -0.011719,0.17578127 -0.023437,0.21093752 z m 1.3125,-3.09375003 C 9.813625,-1.2822656 10.153469,-1.3877344 10.376125,-1.3877344 c 0.28125,0 0.515625,0.2109375 0.515625,0.67968752 0,0.28125 -0.152344,0.99609375 -0.363281,1.40625 -0.175781,0.33984378 -0.515625,0.66796878 -0.8671877,0.66796878 -0.5039063,0 -0.6210938,-0.53906253 -0.6210938,-0.59765628 0,-0.0351563 0.011719,-0.0820313 0.011719,-0.10546875 z m 0,0"
         style="fill:#000000;fill-opacity:1;fill-rule:nonzero;stroke:none" />
    </g>
    <path
       id="path38"
       d="m -226.77454,150.23816 v 8.22055 m 0,31.74839 v 8.22056"
       style="fill:none;stroke:#000000;stroke-width:0.3985;stroke-linecap:butt;stroke-linejoin:miter;stroke-miterlimit:10;stroke-dasharray:none;stroke-opacity:1"
       transform="matrix(1.3333333,0,0,-1.3333333,448.36133,303.36133)" />
    <path
       id="path39"
       d="m -226.77454,158.06021 -5.95285,3.07741 11.9057,5.35782 -11.9057,5.35782 11.9057,5.3578 -11.9057,5.35782 11.9057,5.35782 -5.95285,2.6789"
       style="fill:none;stroke:#000000;stroke-width:0.797;stroke-linecap:butt;stroke-linejoin:bevel;stroke-miterlimit:10;stroke-dasharray:none;stroke-opacity:1"
       transform="matrix(1.3333333,0,0,-1.3333333,448.36133,303.36133)" />
    <g
       id="g39"
       aria-label="R&#10;p"
       transform="matrix(1.3333333,0,0,1.3333333,156.87467,73.78)">
      <path
         id="path40"
         d="m 3.7385313,-6.11625 c 0.058594,-0.234375 0.082031,-0.3398438 0.28125,-0.3632813 0.082031,-0.011719 0.3984375,-0.011719 0.5976562,-0.011719 0.7148438,0 1.8164063,0 1.8164063,0.984375 0,0.3398437 -0.1523438,1.0195312 -0.5507813,1.4179687 C 5.62525,-3.8310938 5.0979063,-3.5146875 4.2072813,-3.5146875 H 3.094 Z m 1.4296875,2.7304687 c 1.0078125,-0.2226562 2.1914062,-0.9140625 2.1914062,-1.921875 0,-0.8554687 -0.890625,-1.5 -2.203125,-1.5 H 2.3205625 c -0.1992187,0 -0.2929687,0 -0.2929687,0.1992188 0,0.1171875 0.09375,0.1171875 0.28125,0.1171875 0.023437,0 0.2109375,0 0.3867187,0.011719 0.1757813,0.023437 0.2578125,0.035156 0.2578125,0.1640625 0,0.035156 0,0.070312 -0.035156,0.1875 L 1.5822813,-0.7725 c -0.09375,0.38671875 -0.1171875,0.46875 -0.9023438,0.46875 -0.17578125,0 -0.26953125,0 -0.26953125,0.19921875 0,0.10546875 0.1171875,0.10546875 0.140625,0.10546875 0.28125,0 0.97265625,-0.03515625 1.25390625,-0.03515625 0.28125,0 0.984375,0.03515625 1.265625,0.03515625 0.082031,0 0.1992188,0 0.1992188,-0.19921875 0,-0.10546875 -0.09375,-0.10546875 -0.28125,-0.10546875 -0.3632813,0 -0.6445313,0 -0.6445313,-0.1875 0,-0.0585937 0.011719,-0.10546875 0.023437,-0.1640625 l 0.65625,-2.6367188 H 4.219 c 0.9023438,0 1.078125,0.5507813 1.078125,0.9023438 0,0.1523437 -0.082031,0.4570312 -0.140625,0.6914062 -0.070312,0.2695313 -0.1523437,0.6445313 -0.1523437,0.84375005 0,1.078125 1.1953125,1.078125 1.3242187,1.078125 0.84375,0 1.1953125,-1.0078125 1.1953125,-1.1484375 0,-0.11718755 -0.1171875,-0.11718755 -0.1171875,-0.11718755 -0.09375,0 -0.1171875,0.0703126 -0.1289062,0.14062505 C 7.0197813,-0.163125 6.5979063,9.375e-4 6.3635313,9.375e-4 c -0.328125,0 -0.3984375,-0.22265625 -0.3984375,-0.609375 0,-0.3046875 0.058594,-0.8203125 0.1054687,-1.1367188 0.011719,-0.140625 0.035156,-0.328125 0.035156,-0.46875 0,-0.7617187 -0.6679688,-1.078125 -0.9374997,-1.171875 z m 0,0"
         style="fill:#000000;fill-opacity:1;fill-rule:nonzero;stroke:none" />
      <path
         id="path41"
         d="m 8.0920469,2.3505469 c -0.058594,0.1875 -0.070312,0.2460937 -0.3515625,0.2460937 -0.082031,0 -0.1875,0 -0.1875,0.1523438 0,0.070312 0.070312,0.09375 0.1054687,0.09375 0.1757813,0 0.4101563,-0.023437 0.5976563,-0.023437 0.234375,0 0.5039062,0.023437 0.7265625,0.023437 0.070312,0 0.140625,-0.011719 0.140625,-0.1523438 0,-0.09375 -0.09375,-0.09375 -0.1757813,-0.09375 -0.1523437,0 -0.3398437,0 -0.3398437,-0.082031 0,-0.035156 0.046875,-0.2226563 0.070312,-0.3164063 0.082031,-0.375 0.1875,-0.75 0.2578125,-1.0429687 0.082031,0.140625 0.3046875,0.4101562 0.7265625,0.4101562 0.8437501,0 1.7812501,-0.93749998 1.7812501,-1.98046873 0,-0.82031247 -0.5625,-1.16015627 -1.042968,-1.16015627 -0.4335946,0 -0.7968759,0.2929688 -0.9843759,0.4804688 -0.1171875,-0.3984375 -0.515625,-0.4804688 -0.7265625,-0.4804688 -0.2695312,0 -0.4335937,0.1757813 -0.5507812,0.3632813 -0.140625,0.23437497 -0.2460938,0.65624997 -0.2460938,0.70312497 0,0.0820313 0.09375,0.0820313 0.1171875,0.0820313 0.09375,0 0.1054688,-0.0117188 0.1523438,-0.19921875 0.1054687,-0.41015632 0.234375,-0.76171882 0.515625,-0.76171882 0.1757812,0 0.2226562,0.1523438 0.2226562,0.3398438 0,0.0820313 -0.011719,0.17578127 -0.023437,0.21093752 z m 1.3125,-3.09375003 C 9.8147031,-1.2822656 10.154547,-1.3877344 10.377203,-1.3877344 c 0.28125,0 0.515625,0.2109375 0.515625,0.67968752 0,0.28125 -0.152344,0.99609375 -0.363281,1.40625 -0.175781,0.33984378 -0.515625,0.66796878 -0.8671876,0.66796878 -0.5039063,0 -0.6210938,-0.53906253 -0.6210938,-0.59765628 0,-0.0351563 0.011719,-0.0820313 0.011719,-0.10546875 z m 0,0"
         style="fill:#000000;fill-opacity:1;fill-rule:nonzero;stroke:none" />
    </g>
    <path
       id="path42"
       d="m -226.77454,145.70251 v -2.38111 c 0.8767,0 1.58738,-0.71068 1.58738,-1.58736 0,-0.87668 -0.71068,-1.58736 -1.58738,-1.58736 v -2.38112"
       style="fill:none;stroke:#000000;stroke-width:0.3985;stroke-linecap:butt;stroke-linejoin:bevel;stroke-miterlimit:10;stroke-dasharray:none;stroke-opacity:1"
       transform="matrix(1.3333333,0,0,-1.3333333,448.36133,303.36133)" />
    <path
       id="path43"
       d="m -222.80606,141.73404 h -1.98424 m -0.79368,0 h -5.15903"
       style="fill:none;stroke:#000000;stroke-width:0.3985;stroke-linecap:butt;stroke-linejoin:bevel;stroke-miterlimit:10;stroke-dasharray:none;stroke-opacity:1"
       transform="matrix(1.3333333,0,0,-1.3333333,448.36133,303.36133)" />
    <path
       id="path44"
       d="m -255.12134,150.23816 v 0 -8.50412"
       style="fill:none;stroke:#000000;stroke-width:0.3985;stroke-linecap:butt;stroke-linejoin:miter;stroke-miterlimit:10;stroke-dasharray:none;stroke-opacity:1"
       transform="matrix(1.3333333,0,0,-1.3333333,448.36133,303.36133)" />
    <path
       id="path45"
       d="M -226.77454,137.7655 V 113.38724"
       style="fill:none;stroke:#000000;stroke-width:0.3985;stroke-linecap:butt;stroke-linejoin:miter;stroke-miterlimit:10;stroke-dasharray:none;stroke-opacity:1"
       transform="matrix(1.3333333,0,0,-1.3333333,448.36133,303.36133)" />
    <path
       id="path46"
       d="m -226.77454,145.70256 v 0 4.5356"
       style="fill:none;stroke:#000000;stroke-width:0.3985;stroke-linecap:butt;stroke-linejoin:miter;stroke-miterlimit:10;stroke-dasharray:none;stroke-opacity:1"
       transform="matrix(1.3333333,0,0,-1.3333333,448.36133,303.36133)" />
    <path
       id="path47"
       d="M -226.77454,206.93178 H -300.4764"
       style="fill:none;stroke:#000000;stroke-width:0.3985;stroke-linecap:butt;stroke-linejoin:miter;stroke-miterlimit:10;stroke-dasharray:none;stroke-opacity:1"
       transform="matrix(1.3333333,0,0,-1.3333333,448.36133,303.36133)" />
    <path
       id="path48"
       d="m -255.12134,198.42766 v 0 8.50412"
       style="fill:none;stroke:#000000;stroke-width:0.3985;stroke-linecap:butt;stroke-linejoin:miter;stroke-miterlimit:10;stroke-dasharray:none;stroke-opacity:1"
       transform="matrix(1.3333333,0,0,-1.3333333,448.36133,303.36133)" />
    <path
       id="path49"
       d="m -226.77454,198.42766 v 0 8.50412"
       style="fill:none;stroke:#000000;stroke-width:0.3985;stroke-linecap:butt;stroke-linejoin:miter;stroke-miterlimit:10;stroke-dasharray:none;stroke-opacity:1"
       transform="matrix(1.3333333,0,0,-1.3333333,448.36133,303.36133)" />
    <path
       id="path50"
       d="m -113.3873,117.35571 v -2.38111 c 0.8767,0 1.58737,-0.71068 1.58737,-1.58736 0,-0.8767 -0.71067,-1.58737 -1.58737,-1.58737 v -2.38111"
       style="fill:none;stroke:#000000;stroke-width:0.3985;stroke-linecap:butt;stroke-linejoin:bevel;stroke-miterlimit:10;stroke-dasharray:none;stroke-opacity:1"
       transform="matrix(1.3333333,0,0,-1.3333333,448.36133,303.36133)" />
    <path
       id="path51"
       d="m -109.41882,113.38724 h -1.98424 m -0.79369,0 h -5.15902"
       style="fill:none;stroke:#000000;stroke-width:0.3985;stroke-linecap:butt;stroke-linejoin:bevel;stroke-miterlimit:10;stroke-dasharray:none;stroke-opacity:1"
       transform="matrix(1.3333333,0,0,-1.3333333,448.36133,303.36133)" />
    <path
       id="path52"
       d="m -113.3873,141.73404 v 0 -24.37828"
       style="fill:none;stroke:#000000;stroke-width:0.3985;stroke-linecap:butt;stroke-linejoin:miter;stroke-miterlimit:10;stroke-dasharray:none;stroke-opacity:1"
       transform="matrix(1.3333333,0,0,-1.3333333,448.36133,303.36133)" />
    <path
       id="path53"
       d="M -113.3873,109.4187 V 39.68535"
       style="fill:none;stroke:#000000;stroke-width:0.3985;stroke-linecap:butt;stroke-linejoin:miter;stroke-miterlimit:10;stroke-dasharray:none;stroke-opacity:1"
       transform="matrix(1.3333333,0,0,-1.3333333,448.36133,303.36133)" />
    <path
       id="path54"
       d="m -143.32124,38.0982 h 3.17429 v 3.17429 h -3.17429 z"
       style="fill:#000000;fill-opacity:1;fill-rule:nonzero;stroke:#000000;stroke-width:0.3985;stroke-linecap:butt;stroke-linejoin:miter;stroke-miterlimit:10;stroke-dasharray:none;stroke-opacity:1"
       transform="matrix(1.3333333,0,0,-1.3333333,448.36133,303.36133)" />
    <path
       id="path55"
       d="m -171.66806,-24.26466 h 3.17429 v 3.17429 h -3.17429 z"
       style="fill:#000000;fill-opacity:1;fill-rule:nonzero;stroke:#000000;stroke-width:0.3985;stroke-linecap:butt;stroke-linejoin:miter;stroke-miterlimit:10;stroke-dasharray:none;stroke-opacity:1"
       transform="matrix(1.3333333,0,0,-1.3333333,448.36133,303.36133)" />
    <path
       id="path56"
       d="m -55.10652,39.68535 c 0,0.87655 -0.71059,1.58714 -1.58716,1.58714 -0.87656,0 -1.58714,-0.71059 -1.58714,-1.58714 0,-0.87656 0.71058,-1.58715 1.58714,-1.58715 0.87657,0 1.58716,0.71059 1.58716,1.58715 z"
       style="fill:#ffffff;fill-opacity:1;fill-rule:nonzero;stroke:#000000;stroke-width:0.3985;stroke-linecap:butt;stroke-linejoin:miter;stroke-miterlimit:10;stroke-dasharray:none;stroke-opacity:1"
       transform="matrix(1.3333333,0,0,-1.3333333,448.36133,303.36133)" />
    <g
       id="g56"
       aria-label="v&#10;SDA&#10;(t)"
       transform="matrix(1.3333333,0,0,1.3333333,349.66,242.43467)">
      <path
         id="path57"
         d="m 4.6641797,-3.7039297 c 0,-0.5390625 -0.2578125,-0.703125 -0.4453125,-0.703125 -0.2460938,0 -0.4804688,0.2578125 -0.4804688,0.4804688 0,0.1289062 0.046875,0.1875 0.1523438,0.3046875 0.2109375,0.1992187 0.3398437,0.4570312 0.3398437,0.8085937 0,0.421875 -0.609375,2.70703126 -1.7695312,2.70703126 -0.5039063,0 -0.7382813,-0.3515625 -0.7382813,-0.8671875 0,-0.56249996 0.2695313,-1.28906246 0.5742188,-2.12109376 0.070312,-0.1640625 0.1289062,-0.3046875 0.1289062,-0.4921875 0,-0.4453125 -0.328125,-0.8203125 -0.8203125,-0.8203125 -0.93749996,0 -1.31249996,1.453125 -1.31249996,1.5351563 0,0.1054687 0.09375,0.1054687 0.1171875,0.1054687 0.09375,0 0.10546875,-0.023437 0.15234375,-0.1875 0.29296875,-0.9960937 0.72656251,-1.2304687 1.00781251,-1.2304687 0.082031,0 0.2578125,0 0.2578125,0.3164062 0,0.2460938 -0.1054688,0.515625 -0.1757813,0.703125 -0.4335937,1.1484375 -0.5625,1.6054688 -0.5625,2.0390625 0,1.07812501 0.8671875,1.23046876 1.3359375,1.23046876 1.6640625,0 2.2382813,-3.29296876 2.2382813,-3.80859376 z m 0,0"
         style="fill:#000000;fill-opacity:1;fill-rule:nonzero;stroke:none" />
      <path
         id="path58"
         d="m 9.7735547,-3.3230703 c 0,-0.035156 -0.011719,-0.082031 -0.082031,-0.082031 -0.046875,0 -0.046875,0 -0.140625,0.09375 L 9.211055,-2.9129138 c -0.2695313,-0.375 -0.703125,-0.4921875 -1.1367188,-0.4921875 -0.984375,0 -1.8515625,0.796875 -1.8515625,1.59375 0,0.1054688 0.023437,0.3867188 0.234375,0.6445313 0.234375,0.28124999 0.4921875,0.33984374 0.9609375,0.44531249 0.140625,0.0351563 0.4921875,0.1171875 0.5976563,0.140625 0.2226562,0.0585938 0.6445312,0.2109375 0.6445312,0.73828125 0,0.5625 -0.5859375,1.21874996 -1.3828125,1.21874996 -0.6210937,0 -1.359375,-0.2109375 -1.359375,-0.98437496 0,-0.0703125 0.023437,-0.22265625 0.046875,-0.3515625 0.011719,-0.0234375 0.011719,-0.03515625 0.011719,-0.03515625 0,-0.09375 -0.09375,-0.09375 -0.1171875,-0.09375 -0.09375,0 -0.1054688,0.01171875 -0.1289063,0.140625 L 5.3673047,1.4464609 c 0,0.023437 -0.011719,0.070312 -0.011719,0.1054688 0,0.035156 0.023437,0.082031 0.09375,0.082031 0.046875,0 0.046875,-0.011719 0.140625,-0.09375 0.070312,-0.09375 0.2578125,-0.3164062 0.328125,-0.3984375 0.375,0.4101563 0.9140625,0.4921875 1.3359375,0.4921875 1.0546875,0 1.8984375,-0.90234371 1.8984375,-1.73437496 0,-0.3046875 -0.1171875,-0.5859375 -0.2695312,-0.73828125 C 8.6368359,-1.0965078 8.5313672,-1.1199453 7.6290234,-1.3308828 c -0.140625,-0.035156 -0.375,-0.09375 -0.4335937,-0.1054688 -0.1757813,-0.070312 -0.46875,-0.2460937 -0.46875,-0.6445312 0,-0.5507813 0.6210937,-1.1015625 1.3476562,-1.1015625 0.75,0 1.1132813,0.421875 1.1132813,1.0898437 0,0.082031 -0.035156,0.2460938 -0.035156,0.3046875 0,0.1054688 0.09375,0.1054688 0.1289063,0.1054688 0.1054687,0 0.1054687,-0.035156 0.140625,-0.1523438 z m 1.6435543,4.27734374 c -0.04687,0.23437496 -0.05859,0.29296876 -0.609375,0.29296876 -0.128906,0 -0.210937,0 -0.210937,0.1523437 0,0.09375 0.08203,0.09375 0.210937,0.09375 h 2.496094 c 1.546875,0 3.023438,-1.41796871 3.023438,-2.9414062 0,-1.0195313 -0.703125,-1.8164063 -1.839844,-1.8164063 h -2.53125 c -0.140625,0 -0.222656,0 -0.222656,0.1523438 0,0.09375 0.07031,0.09375 0.222656,0.09375 0.117187,0 0.140625,0 0.269531,0.011719 0.140625,0.011719 0.152344,0.035156 0.152344,0.1054688 0,0.011719 0,0.046875 -0.02344,0.1523437 z m 1.570313,-3.73828124 c 0.04687,-0.2109375 0.05859,-0.234375 0.351562,-0.234375 h 0.890625 c 0.785157,0 1.441407,0.3867187 1.441407,1.3359375 0,0.1640625 -0.07031,1.37109374 -0.773438,2.16796874 -0.269531,0.3046875 -0.867187,0.76171876 -1.722656,0.76171876 h -0.949219 c -0.222656,0 -0.222656,-0.011719 -0.222656,-0.070312 0,-0.011719 0,-0.046875 0.02344,-0.1523438 z m 5.282226,3.44531249 c -0.246093,0.37500001 -0.46875,0.55078121 -0.878906,0.58593751 -0.07031,0 -0.164062,0 -0.164062,0.140625 0,0.082031 0.05859,0.1054687 0.09375,0.1054687 0.1875,0 0.410156,-0.023437 0.597656,-0.023437 0.222656,0 0.515625,0.023437 0.726562,0.023437 0.03516,0 0.140625,0 0.140625,-0.1523437 0,-0.09375 -0.09375,-0.09375 -0.128906,-0.09375 -0.04687,-0.011719 -0.304687,-0.023437 -0.304687,-0.2109375 0,-0.0820313 0.07031,-0.21093751 0.105468,-0.26953126 l 0.5625,-0.8671875 h 1.992188 l 0.164062,1.16015626 c -0.02344,0.070312 -0.07031,0.1875 -0.480468,0.1875 -0.08203,0 -0.175782,0 -0.175782,0.1523437 0,0.023437 0.02344,0.09375 0.105469,0.09375 0.210938,0 0.703125,-0.023437 0.902344,-0.023437 0.128906,0 0.28125,0 0.410156,0 0.128906,0.011719 0.269531,0.023437 0.398438,0.023437 0.09375,0 0.140625,-0.058594 0.140625,-0.140625 0,-0.1054687 -0.08203,-0.1054687 -0.199219,-0.1054687 -0.398438,0 -0.410156,-0.058594 -0.433594,-0.2226563 l -0.621094,-4.3125 c -0.01172,-0.140625 -0.03516,-0.1875 -0.164062,-0.1875 -0.128906,0 -0.175781,0.058594 -0.234375,0.1523438 z m 0.914063,-1.0078125 1.464844,-2.28515629 0.328125,2.28515629 z m 0,0"
         style="fill:#000000;fill-opacity:1;fill-rule:nonzero;stroke:none" />
      <path
         id="path59"
         d="m 26.613398,2.3898203 c 0,-0.035156 0,-0.046875 -0.164062,-0.2226562 -1.242188,-1.25390629 -1.570313,-3.12890629 -1.570313,-4.6640625 0,-1.7226563 0.386719,-3.4570313 1.605469,-4.7109375 0.128906,-0.1171875 0.128906,-0.1289063 0.128906,-0.1640625 0,-0.070312 -0.03516,-0.1054688 -0.09375,-0.1054688 -0.105468,0 -0.996093,0.6796875 -1.582031,1.9453125 -0.515625,1.1015625 -0.632812,2.203125 -0.632812,3.0351563 0,0.7851562 0.117187,1.99218746 0.65625,3.11718746 0.597656,1.21875004 1.453125,1.87500004 1.558593,1.87500004 0.05859,0 0.09375,-0.035156 0.09375,-0.1054688 z m 0,0"
         style="fill:#000000;fill-opacity:1;fill-rule:nonzero;stroke:none" />
      <path
         id="path60"
         d="m 29.247187,-3.9851797 h 0.9375 c 0.199219,0 0.304688,0 0.304688,-0.1992187 0,-0.1054688 -0.105469,-0.1054688 -0.28125,-0.1054688 h -0.878906 c 0.363281,-1.4179687 0.410156,-1.6171875 0.410156,-1.6757812 0,-0.1757813 -0.117188,-0.2695313 -0.292969,-0.2695313 -0.02344,0 -0.304687,0.011719 -0.398437,0.3515625 l -0.386719,1.59375 h -0.9375 c -0.199219,0 -0.292969,0 -0.292969,0.1875 0,0.1171875 0.07031,0.1171875 0.269531,0.1171875 h 0.878907 c -0.714844,2.8242188 -0.75,3.00000001 -0.75,3.17578126 0,0.5390625 0.375,0.9140625 0.914062,0.9140625 1.007813,0 1.582031,-1.45312496 1.582031,-1.53515626 0,-0.09375 -0.08203,-0.09375 -0.117187,-0.09375 -0.09375,0 -0.105469,0.023437 -0.152344,0.140625 -0.433594,1.03125001 -0.960937,1.27734376 -1.300781,1.27734376 -0.199219,0 -0.304688,-0.12890625 -0.304688,-0.45703125 0,-0.24609375 0.02344,-0.31640625 0.05859,-0.48046871 z m 0,0"
         style="fill:#000000;fill-opacity:1;fill-rule:nonzero;stroke:none" />
      <path
         id="path61"
         d="m 33.676875,-2.4968984 c 0,-0.7734375 -0.117188,-1.9804688 -0.65625,-3.1054688 -0.597656,-1.21875 -1.464844,-1.875 -1.558594,-1.875 -0.05859,0 -0.105469,0.046875 -0.105469,0.1054688 0,0.035156 0,0.046875 0.199219,0.234375 0.972656,0.984375 1.535156,2.5664062 1.535156,4.640625 0,1.71093746 -0.363281,3.45703121 -1.59375,4.7226562 -0.140625,0.1171875 -0.140625,0.1289063 -0.140625,0.1640625 0,0.058594 0.04687,0.1054688 0.105469,0.1054688 0.09375,0 0.996094,-0.6796875 1.582031,-1.94531254 0.503907,-1.1015625 0.632813,-2.20312496 0.632813,-3.04687496 z m 0,0"
         style="fill:#000000;fill-opacity:1;fill-rule:nonzero;stroke:none" />
    </g>
    <path
       id="path62"
       d="m -111.80014,39.68535 c 0,0.87655 -0.71059,1.58714 -1.58716,1.58714 -0.87655,0 -1.58714,-0.71059 -1.58714,-1.58714 0,-0.87656 0.71059,-1.58715 1.58714,-1.58715 0.87657,0 1.58716,0.71059 1.58716,1.58715 z"
       style="fill:#000000;fill-opacity:1;fill-rule:nonzero;stroke:#000000;stroke-width:0.3985;stroke-linecap:butt;stroke-linejoin:miter;stroke-miterlimit:10;stroke-dasharray:none;stroke-opacity:1"
       transform="matrix(1.3333333,0,0,-1.3333333,448.36133,303.36133)" />
    <path
       id="path63"
       d="m -113.3873,39.68535 h 56.69362"
       style="fill:none;stroke:#000000;stroke-width:0.3985;stroke-linecap:butt;stroke-linejoin:miter;stroke-miterlimit:10;stroke-dasharray:none;stroke-opacity:1"
       transform="matrix(1.3333333,0,0,-1.3333333,448.36133,303.36133)" />
    <path
       id="path64"
       d="m -306.82597,202.9633 -5.55585,3.96848 5.55585,3.96849"
       style="fill:none;stroke:#000000;stroke-width:0.797;stroke-linecap:butt;stroke-linejoin:miter;stroke-miterlimit:10;stroke-dasharray:none;stroke-opacity:1"
       transform="matrix(1.3333333,0,0,-1.3333333,448.36133,303.36133)" />
    <path
       id="path65"
       d="m -300.4764,206.93178 h -11.90542"
       style="fill:none;stroke:#000000;stroke-width:0.3985;stroke-linecap:butt;stroke-linejoin:miter;stroke-miterlimit:10;stroke-dasharray:none;stroke-opacity:1"
       transform="matrix(1.3333333,0,0,-1.3333333,448.36133,303.36133)" />
    <path
       id="path66"
       d="M 3.4793828,-3.8676328 2.2020391,-4.1723203 c -0.6210938,-0.1523438 -1.0078125,-0.6914063 -1.0078125,-1.265625 0,-0.703125 0.5390625,-1.3007813 1.3125,-1.3007813 1.6640625,0 1.8867187,1.6289063 1.9453125,2.0742188 0.011719,0.058594 0.011719,0.1171875 0.1171875,0.1171875 0.1289062,0 0.1289062,-0.046875 0.1289062,-0.234375 v -2.0039063 c 0,-0.1640625 0,-0.234375 -0.1054687,-0.234375 -0.070312,0 -0.082031,0.011719 -0.1523438,0.1289063 l -0.3515625,0.5625 c -0.2929687,-0.28125 -0.703125,-0.6914063 -1.59375,-0.6914063 -1.1015625,0 -1.93359374,0.8789063 -1.93359374,1.9335938 0,0.8203125 0.52734374,1.546875 1.30078124,1.8164062 0.1054688,0.046875 0.6210938,0.1640625 1.3125,0.328125 0.2695313,0.070312 0.5742188,0.140625 0.84375,0.515625 0.2109375,0.2578125 0.3164063,0.5859375 0.3164063,0.9140625 0,0.70312504 -0.5039063,1.41796879 -1.3359375,1.41796879 -0.2929688,0 -1.0429688,-0.046875 -1.5703125,-0.5390625 C 0.84266406,-1.1606016 0.81922656,-1.8051328 0.80750781,-2.1566953 c -0.0117188,-0.1054688 -0.09375,-0.1054688 -0.1171875,-0.1054688 -0.12890625,0 -0.12890625,0.070312 -0.12890625,0.2460938 v 1.99218749 c 0,0.17578125 0,0.24609375 0.10546875,0.24609375 0.0703125,0 0.0820313,-0.0234375 0.15234375,-0.12890625 0,-0.01171875 0.0234375,-0.046875 0.35156254,-0.57421875 0.3164062,0.33984375 0.9492187,0.703125 1.8398437,0.703125 1.1601563,0 1.9570313,-0.984375 1.9570313,-2.07421874 0,-0.9960938 -0.65625,-1.8164063 -1.4882813,-2.015625 z m 2.4082031,-2.9414063 v 0.3164063 h 0.234375 c 0.7734375,0 0.7851563,0.1054687 0.7851563,0.46875 v 5.24999999 c 0,0.3515625 -0.011719,0.46875 -0.7851563,0.46875 h -0.234375 v 0.3046874975 h 3.6445313 c 1.6757808,0 3.0468748,-1.4765624875 3.0468748,-3.3515624875 0,-1.8867188 -1.347656,-3.4570313 -3.0468748,-3.4570313 z m 2.3671875,6.50390629 c -0.46875,0 -0.4921875,-0.0703125 -0.4921875,-0.3984375 V -6.0941953 c 0,-0.328125 0.023437,-0.3984375 0.4921875,-0.3984375 h 0.9960938 c 0.6210937,0 1.3007808,0.2109375 1.8164058,0.9257812 0.421875,0.5859375 0.515625,1.4414063 0.515625,2.2148438 0,1.1132812 -0.1875,1.7109375 -0.550781,2.1914062 -0.199219,0.26953129 -0.761719,0.85546879 -1.7695311,0.85546879 z M 16.827039,-6.9379453 c -0.04687,-0.1289063 -0.07031,-0.1992188 -0.222656,-0.1992188 -0.164063,0 -0.1875,0.058594 -0.246094,0.1992188 l -2.0625,5.96484374 c -0.175781,0.50390625 -0.574219,0.65625 -1.113281,0.66796875 v 0.3046874975 c 0.234375,-0.0117187475 0.65625,-0.0351562475 1.019531,-0.0351562475 0.304688,0 0.820313,0.0234375 1.148438,0.0351562475 V -0.30513281 c -0.503907,0 -0.75,-0.2578125 -0.75,-0.515625 0,-0.0234375 0.01172,-0.12890625 0.02344,-0.140625 l 0.457031,-1.31249999 h 2.460938 l 0.527344,1.52343749 c 0.01172,0.046875 0.02344,0.10546875 0.02344,0.140625 0,0.3046875 -0.550781,0.3046875 -0.820312,0.3046875 V -4.453125e-4 C 17.623914,-0.03560156 18.327039,-0.03560156 18.702039,-0.03560156 c 0.433594,0 0.890625,0.01171875 1.300781,0.0351562475 V -0.30513281 h -0.175781 c -0.597656,0 -0.738281,-0.0703125 -0.84375,-0.3984375 z m -0.527344,1.125 1.125,3.234375 h -2.238281 z m 0,0"
       style="fill:#000000;fill-opacity:1;fill-rule:nonzero;stroke:none"
       aria-label="SDA"
       transform="matrix(1.3333333,0,0,1.3333333,37.950667,109.692)" />
    <path
       id="path67"
       d="M 3.4817187,-3.8669766 2.204375,-4.1716641 c -0.6210938,-0.1523437 -1.0078125,-0.6914062 -1.0078125,-1.265625 0,-0.703125 0.5390625,-1.3007812 1.3125,-1.3007812 1.6640625,0 1.8867187,1.6289062 1.9453125,2.0742187 0.011719,0.058594 0.011719,0.1171875 0.1171875,0.1171875 0.1289062,0 0.1289062,-0.046875 0.1289062,-0.234375 v -2.0039062 c 0,-0.1640625 0,-0.234375 -0.1054687,-0.234375 -0.070312,0 -0.082031,0.011719 -0.1523438,0.1289062 l -0.3515625,0.5625 c -0.2929687,-0.28125 -0.703125,-0.6914062 -1.59375,-0.6914062 -1.1015625,0 -1.9335937,0.8789062 -1.9335937,1.9335937 0,0.8203125 0.5273437,1.546875 1.3007812,1.8164063 0.1054688,0.046875 0.6210938,0.1640625 1.3125,0.328125 0.2695313,0.070312 0.5742188,0.140625 0.84375,0.515625 0.2109375,0.2578125 0.3164063,0.5859375 0.3164063,0.9140625 0,0.70312499 -0.5039063,1.41796874 -1.3359375,1.41796874 -0.2929688,0 -1.0429688,-0.046875 -1.5703125,-0.5390625 C 0.845,-1.1599453 0.8215625,-1.8044766 0.80984375,-2.1560391 0.798125,-2.2615078 0.71609375,-2.2615078 0.69265625,-2.2615078 0.56375,-2.2615078 0.56375,-2.1911953 0.56375,-2.0154141 v 1.99218754 c 0,0.17578125 0,0.24609375 0.10546875,0.24609375 0.0703125,0 0.0820313,-0.0234375 0.15234375,-0.12890625 0,-0.01171875 0.0234375,-0.046875 0.3515625,-0.57421875 0.3164062,0.33984375 0.9492187,0.703125 1.8398437,0.703125 1.1601563,0 1.9570313,-0.984375 1.9570313,-2.07421879 0,-0.9960937 -0.65625,-1.8164062 -1.4882813,-2.015625 z m 2.616211,0.4570313 c 0,2.0625 1.6054687,3.63281249 3.4570312,3.63281249 1.6289061,0 2.6015621,-1.38281249 2.6015621,-2.54296879 0,-0.1054687 0,-0.1757812 -0.128906,-0.1757812 -0.105469,0 -0.105469,0.070312 -0.117187,0.1640625 -0.08203,1.42968749 -1.148438,2.23828124 -2.2265628,2.23828124 -0.609375,0 -2.5664063,-0.33984375 -2.5664063,-3.30468754 0,-2.9765625 1.9453125,-3.3164062 2.5546875,-3.3164062 1.0781246,0 1.9687496,0.9023437 2.1679686,2.3671875 0.02344,0.1289062 0.02344,0.1640625 0.164063,0.1640625 0.152343,0 0.152343,-0.035156 0.152343,-0.234375 v -2.3671875 c 0,-0.1640625 0,-0.234375 -0.105468,-0.234375 -0.03516,0 -0.08203,0 -0.164063,0.1171875 l -0.492187,0.7382812 c -0.375,-0.3632812 -0.878907,-0.8554687 -1.8398441,-0.8554687 -1.8632812,0 -3.4570312,1.5820312 -3.4570312,3.609375 z m 12.4335933,0.84375 h -0.257812 c -0.105469,1.0078125 -0.246094,2.26171874 -1.992188,2.26171874 h -0.820312 c -0.46875,0 -0.492188,-0.0703125 -0.492188,-0.3984375 V -6.0115078 c 0,-0.3398438 0,-0.4804688 0.949219,-0.4804688 h 0.328125 v -0.3164062 c -0.363281,0.035156 -1.265625,0.035156 -1.675781,0.035156 -0.386719,0 -1.160156,0 -1.511719,-0.035156 v 0.3164062 h 0.234375 c 0.773438,0 0.796875,0.1054688 0.796875,0.46875 v 5.25000004 c 0,0.3515625 -0.02344,0.46875 -0.796875,0.46875 H 13.058867 V 2.109375e-4 h 5.191406 z m 0,0"
       style="fill:#000000;fill-opacity:1;fill-rule:nonzero;stroke:none"
       aria-label="SCL"
       transform="matrix(1.3333333,0,0,1.3333333,38.873333,147.488)" />
    <g
       id="g67"
       aria-label="V&#10;cc"
       transform="matrix(1.3333333,0,0,1.3333333,42.557333,41.226667)">
      <path
         id="path68"
         d="m 6.2587578,-5.6719531 c 0.4804688,-0.7734375 0.9023438,-0.8085938 1.2773438,-0.8203125 0.1171875,-0.011719 0.1289062,-0.1875 0.1289062,-0.1875 0,-0.082031 -0.058594,-0.1289063 -0.1289062,-0.1289063 -0.2578125,0 -0.5507813,0.035156 -0.8203125,0.035156 -0.328125,0 -0.6679688,-0.035156 -0.984375,-0.035156 -0.058594,0 -0.1875,0 -0.1875,0.1992188 0,0.1054687 0.082031,0.1171875 0.1523437,0.1171875 0.2695313,0.011719 0.4570313,0.1171875 0.4570313,0.328125 0,0.1523437 -0.140625,0.3632812 -0.140625,0.375 L 2.9540703,-0.92585938 2.2743828,-6.1992969 c 0,-0.1640625 0.2226563,-0.2929687 0.6796875,-0.2929687 0.140625,0 0.2578125,0 0.2578125,-0.1992188 0,-0.09375 -0.082031,-0.1171875 -0.140625,-0.1171875 -0.3984375,0 -0.8320312,0.035156 -1.2421875,0.035156 -0.1757812,0 -0.3632812,-0.011719 -0.5390625,-0.011719 -0.1875,0 -0.37499999,-0.023437 -0.53906249,-0.023437 -0.0703125,0 -0.1875,0 -0.1875,0.1992188 0,0.1171875 0.0820313,0.1171875 0.24609375,0.1171875 0.55078124,0 0.56250004,0.082031 0.59765624,0.3398437 l 0.7851563,6.14062502 c 0.035156,0.19921875 0.070312,0.234375 0.1992187,0.234375 0.1640625,0 0.1992188,-0.0585938 0.28125,-0.1875 z m 0,0"
         style="fill:#000000;fill-opacity:1;fill-rule:nonzero;stroke:none" />
      <path
         id="path69"
         d="m 8.8720391,-1.1778125 c -0.2578125,0.046875 -0.3632813,0.234375 -0.3632813,0.38671875 0,0.1875 0.1523438,0.2578125 0.2695313,0.2578125 0.1640625,0 0.3984375,-0.10546875 0.3984375,-0.4453125 0,-0.46875005 -0.5390625,-0.59765625 -0.9140625,-0.59765625 -1.0429688,0 -2.015625,0.9609375 -2.015625,1.921875 0,0.609375 0.421875,1.21875 1.2890625,1.21875 1.1835937,0 1.734375,-0.69140625 1.734375,-0.78515625 0,-0.046875 -0.070312,-0.1171875 -0.1289063,-0.1171875 -0.035156,0 -0.046875,0.0117188 -0.1054687,0.0703125 C 8.4853203,1.3651562 7.6767266,1.3651562 7.5478203,1.3651562 c -0.5039062,0 -0.7265625,-0.3398437 -0.7265625,-0.77343745 0,-0.19921875 0.1054688,-0.9609375 0.46875,-1.44140625 0.2578125,-0.3398438 0.6210938,-0.5390625 0.9726563,-0.5390625 0.09375,0 0.4335937,0.011719 0.609375,0.2109375 z m 3.5595699,0 c -0.257812,0.046875 -0.363281,0.234375 -0.363281,0.38671875 0,0.1875 0.152344,0.2578125 0.269531,0.2578125 0.164063,0 0.398438,-0.10546875 0.398438,-0.4453125 0,-0.46875005 -0.539063,-0.59765625 -0.914063,-0.59765625 -1.042968,0 -2.0156246,0.9609375 -2.0156246,1.921875 0,0.609375 0.4218746,1.21875 1.2890626,1.21875 1.183594,0 1.734375,-0.69140625 1.734375,-0.78515625 0,-0.046875 -0.07031,-0.1171875 -0.128906,-0.1171875 -0.03516,0 -0.04687,0.0117188 -0.105469,0.0703125 -0.550781,0.63281245 -1.359375,0.63281245 -1.488281,0.63281245 -0.503907,0 -0.726563,-0.3398437 -0.726563,-0.77343745 0,-0.19921875 0.105469,-0.9609375 0.46875,-1.44140625 0.257813,-0.3398438 0.621094,-0.5390625 0.972656,-0.5390625 0.09375,0 0.433594,0.011719 0.609375,0.2109375 z m 0,0"
         style="fill:#000000;fill-opacity:1;fill-rule:nonzero;stroke:none" />
    </g>
    <path
       id="path70"
       d="m -311.81496,215.43591 h 57.22754 c 4.40189,0 7.97022,-3.56833 7.97022,-7.97021 v -49.25733 c 0,-4.40188 3.56833,-7.97021 7.97021,-7.97021 h 125.79361 c 4.40189,0 7.97022,-3.56833 7.97022,-7.97022 V 17.00824"
       style="fill:none;stroke:#008000;stroke-width:0.79701;stroke-linecap:butt;stroke-linejoin:miter;stroke-miterlimit:10;stroke-dasharray:2.98883, 2.98883;stroke-dashoffset:0;stroke-opacity:1"
       transform="matrix(1.3333333,0,0,-1.3333333,448.36133,303.36133)" />
    <path
       id="path71"
       d="M 5.69984,0 0.3985,1.69629 V 0 -1.69629 Z"
       style="fill:#008000;fill-opacity:1;fill-rule:nonzero;stroke:#008000;stroke-width:0.79701;stroke-linecap:butt;stroke-linejoin:miter;stroke-miterlimit:10;stroke-dasharray:none;stroke-opacity:1"
       transform="matrix(1.3333333,0,0,-1.3333333,75.840533,16.113453)" />
    <path
       id="path72"
       d="M 5.69984,0 0.3985,1.69629 V 0 -1.69629 Z"
       style="fill:#008000;fill-opacity:1;fill-rule:nonzero;stroke:#008000;stroke-width:0.79701;stroke-linecap:butt;stroke-linejoin:miter;stroke-miterlimit:10;stroke-dasharray:none;stroke-opacity:1"
       transform="matrix(0,1.3333333,1.3333333,0,119.5384,82.336107)" />
    <path
       id="path73"
       d="M 5.69984,0 0.3985,1.69629 V 0 -1.69629 Z"
       style="fill:#008000;fill-opacity:1;fill-rule:nonzero;stroke:#008000;stroke-width:0.79701;stroke-linecap:butt;stroke-linejoin:miter;stroke-miterlimit:10;stroke-dasharray:none;stroke-opacity:1"
       transform="matrix(1.3333333,0,0,-1.3333333,208.75129,103.04379)" />
    <path
       id="path74"
       d="M 5.69984,0 0.3985,1.69629 V 0 -1.69629 Z"
       style="fill:#008000;fill-opacity:1;fill-rule:nonzero;stroke:#008000;stroke-width:0.79701;stroke-linecap:butt;stroke-linejoin:miter;stroke-miterlimit:10;stroke-dasharray:none;stroke-opacity:1"
       transform="matrix(0,1.3333333,1.3333333,0,308.51712,113.19843)" />
    <path
       id="path75"
       d="M 5.69984,0 0.3985,1.69629 V 0 -1.69629 Z"
       style="fill:#008000;fill-opacity:1;fill-rule:nonzero;stroke:#008000;stroke-width:0.79701;stroke-linecap:butt;stroke-linejoin:miter;stroke-miterlimit:10;stroke-dasharray:none;stroke-opacity:1"
       transform="matrix(0,1.3333333,1.3333333,0,308.51712,218.55323)" />
    <path
       id="path76"
       d="m -121.89143,17.00824 v 6.2032 c 0,4.40189 -3.56833,7.97022 -7.97022,7.97022 h -23.74492 c -4.40188,0 -7.97021,-3.56833 -7.97021,-7.97022 v -62.89679"
       style="fill:none;stroke:#ff8000;stroke-width:0.79701;stroke-linecap:butt;stroke-linejoin:miter;stroke-miterlimit:10;stroke-dasharray:2.98883, 2.98883;stroke-dashoffset:0;stroke-opacity:1"
       transform="matrix(1.3333333,0,0,-1.3333333,448.36133,303.36133)" />
    <path
       id="path77"
       d="M 5.69984,0 0.3985,1.69629 V 0 -1.69629 Z"
       style="fill:#ff8000;fill-opacity:1;fill-rule:nonzero;stroke:#ff8000;stroke-width:0.79701;stroke-linecap:butt;stroke-linejoin:miter;stroke-miterlimit:10;stroke-dasharray:none;stroke-opacity:1"
       transform="matrix(-1.3333333,0,0,1.3333333,278.18712,261.78579)" />
    <path
       id="path78"
       d="M 5.69984,0 0.3985,1.69629 V 0 -1.69629 Z"
       style="fill:#ff8000;fill-opacity:1;fill-rule:nonzero;stroke:#ff8000;stroke-width:0.79701;stroke-linecap:butt;stroke-linejoin:miter;stroke-miterlimit:10;stroke-dasharray:none;stroke-opacity:1"
       transform="matrix(0,1.3333333,1.3333333,0,232.92563,268.24144)" />
    <path
       id="path79"
       d="M 5.69984,0 0.3985,1.69629 V 0 -1.69629 Z"
       style="fill:#ff8000;fill-opacity:1;fill-rule:nonzero;stroke:#ff8000;stroke-width:0.79701;stroke-linecap:butt;stroke-linejoin:miter;stroke-miterlimit:10;stroke-dasharray:none;stroke-opacity:1"
       transform="matrix(0,1.3333333,1.3333333,0,232.92563,315.39276)" />
    <g
       id="g79"
       aria-label="i&#10;sarj"
       transform="matrix(1.3333333,0,0,1.3333333,208.50667,94.553333)">
      <path
         id="path80"
         d="m 2.8250781,-6.2216406 c 0,-0.1992188 -0.1289062,-0.3632813 -0.3632812,-0.3632813 -0.2695313,0 -0.5390625,0.2578125 -0.5390625,0.5273438 0,0.1875 0.140625,0.3632812 0.375,0.3632812 0.234375,0 0.5273437,-0.234375 0.5273437,-0.5273437 z m -0.75,3.7382812 c 0.1171875,-0.28125 0.1171875,-0.3046875 0.2226563,-0.5742187 0.070312,-0.1992188 0.1289062,-0.3398438 0.1289062,-0.5273438 0,-0.4453125 -0.328125,-0.8203125 -0.8203125,-0.8203125 -0.93749997,0 -1.31249997,1.453125 -1.31249997,1.5351563 0,0.1054687 0.09375,0.1054687 0.1171875,0.1054687 0.09375,0 0.10546875,-0.023437 0.15234375,-0.1875 0.26953125,-0.9375 0.66796872,-1.2304687 1.00781252,-1.2304687 0.082031,0 0.2578125,0 0.2578125,0.3164062 0,0.2109375 -0.070312,0.421875 -0.1171875,0.515625 -0.082031,0.2578125 -0.5273438,1.4179688 -0.6796875,1.8515625 -0.10546877,0.2578125 -0.23437502,0.58593752 -0.23437502,0.79687502 0,0.46875 0.33984372,0.80859375 0.82031252,0.80859375 0.9375,0 1.3007812,-1.44140627 1.3007812,-1.53515627 0,-0.09375 -0.09375,-0.09375 -0.1171875,-0.09375 -0.1054687,0 -0.1054687,0.023437 -0.1523437,0.1757813 -0.1757813,0.63281247 -0.5039063,1.24218747 -1.0195313,1.24218747 -0.1640625,0 -0.234375,-0.10546875 -0.234375,-0.328125 0,-0.2578125 0.058594,-0.3984375 0.2929688,-0.99609377 z m 0,0"
         style="fill:#008000;fill-opacity:1;fill-rule:nonzero;stroke:none" />
      <path
         id="path81"
         d="m 6.4315234,-1.1298438 c -0.1757812,0.046875 -0.2929687,0.18750005 -0.2929687,0.32812505 0,0.1640625 0.140625,0.22265625 0.234375,0.22265625 0.070312,0 0.3398437,-0.0351563 0.3398437,-0.3984375 0,-0.4453125 -0.5039062,-0.5976563 -0.9257812,-0.5976563 -1.0898438,0 -1.2890625,0.79687505 -1.2890625,1.00781255 0,0.2578125 0.1523437,0.43359375 0.2460937,0.515625 0.1757813,0.140625 0.3046875,0.1640625 0.7851563,0.24609375 0.1523437,0.0351563 0.5976562,0.1171875 0.5976562,0.46875 0,0.1171875 -0.082031,0.375 -0.375,0.5507812 C 5.4823047,1.36625 5.1424609,1.36625 5.0604297,1.36625 c -0.28125,0 -0.6796875,-0.058594 -0.84375,-0.2929688 0.234375,-0.023437 0.3867187,-0.1992187 0.3867187,-0.39843745 0,-0.1640625 -0.1289062,-0.2578125 -0.2695312,-0.2578125 -0.1992188,0 -0.4101563,0.1640625 -0.4101563,0.46875 0,0.42187495 0.4453125,0.67968745 1.125,0.67968745 1.2890625,0 1.5234375,-0.8789062 1.5234375,-1.14843745 0,-0.64453125 -0.703125,-0.7734375 -0.9609375,-0.8203125 C 5.5408984,-0.415 5.3651172,-0.4384375 5.3299609,-0.461875 5.0721484,-0.50875 4.9432422,-0.649375 4.9432422,-0.80171875 c 0,-0.1640625 0.1289062,-0.35156255 0.28125,-0.44531255 0.1875,-0.1289062 0.4335937,-0.140625 0.5507812,-0.140625 0.140625,0 0.5039063,0.023437 0.65625,0.2578125 z M 10.134648,-1.165 C 9.9940234,-1.399375 9.7479297,-1.5751563 9.4198047,-1.5751563 c -0.890625,0 -1.8046875,0.9726563 -1.8046875,1.9804688 0,0.6796875 0.4570312,1.1601562 1.0546875,1.1601562 0.375,0 0.7148437,-0.2109375 0.9960937,-0.4921875 0.1289063,0.421875 0.5273436,0.4921875 0.7148436,0.4921875 0.246094,0 0.421875,-0.1523437 0.550781,-0.375 0.152344,-0.2695312 0.246094,-0.6679687 0.246094,-0.6914062 0,-0.09375 -0.09375,-0.09375 -0.117187,-0.09375 -0.09375,0 -0.105469,0.0351563 -0.152344,0.22265625 -0.08203,0.328125 -0.210938,0.73828125 -0.503906,0.73828125 -0.1875,0 -0.234375,-0.1523438 -0.234375,-0.3398438 0,-0.11718745 0.05859,-0.3632812 0.105468,-0.5507812 0.04687,-0.1875 0.117188,-0.46875 0.152344,-0.62109375 l 0.140625,-0.5390625 c 0.04687,-0.17578125 0.128906,-0.50390625 0.128906,-0.53906255 0,-0.1523437 -0.128906,-0.2226562 -0.246093,-0.2226562 -0.117188,0 -0.269532,0.082031 -0.316407,0.28125 z M 9.6893359,0.62796875 C 9.6424609,0.81546875 9.4901172,0.95609375 9.3377734,1.085 9.2674614,1.143594 8.9979297,1.36625 8.6932422,1.36625 c -0.2578125,0 -0.515625,-0.1757813 -0.515625,-0.66796875 0,-0.375 0.2109375,-1.13671875 0.3632812,-1.41796875 0.328125,-0.5625 0.6796875,-0.6679688 0.8789063,-0.6679688 0.4804687,0 0.6210933,0.5273438 0.6210933,0.60937505 0,0.0234375 -0.01172,0.0820313 -0.02344,0.09375 z m 3.4658201,-0.5390625 c 0,-0.046875 0.164063,-0.66796875 0.175782,-0.703125 0.01172,-0.0585938 0.222656,-0.41015625 0.445312,-0.57421875 0.07031,-0.058594 0.257813,-0.1992188 0.5625,-0.1992188 0.07031,0 0.246094,0.011719 0.386719,0.1054688 -0.222656,0.058594 -0.304688,0.2578125 -0.304688,0.375 0,0.15234375 0.117188,0.2578125 0.269532,0.2578125 0.164062,0 0.398437,-0.12890625 0.398437,-0.421875 0,-0.3632813 -0.386719,-0.5039063 -0.738281,-0.5039063 -0.363281,0 -0.679688,0.140625 -0.984375,0.4921875 -0.128906,-0.421875 -0.550781,-0.4921875 -0.726563,-0.4921875 -0.257812,0 -0.421875,0.1523438 -0.539062,0.3515625 -0.164063,0.2695313 -0.257813,0.67968755 -0.257813,0.7148438 0,0.0820313 0.09375,0.0820313 0.117188,0.0820313 0.09375,0 0.105469,-0.0117188 0.152344,-0.19921875 0.105468,-0.43359375 0.234375,-0.76171875 0.515625,-0.76171875 0.175781,0 0.222656,0.1523437 0.222656,0.3398437 0,0.14062505 -0.05859,0.39843755 -0.105469,0.58593755 -0.04687,0.1875 -0.117187,0.46875 -0.152344,0.62109375 L 12.37,1.0615625 c -0.03516,0.082031 -0.07031,0.2578125 -0.07031,0.28125 0,0.1523437 0.117187,0.2226562 0.234375,0.2226562 0.105468,0 0.246093,-0.058594 0.292968,-0.1992187 0.02344,-0.046875 0.09375,-0.3515625 0.140625,-0.52734375 z m 5.332032,-2.95312505 c 0,-0.1171875 -0.09375,-0.2578125 -0.28125,-0.2578125 -0.199219,0 -0.386719,0.1875 -0.386719,0.375 0,0.1171875 0.08203,0.2695313 0.28125,0.2695313 0.1875,0 0.386719,-0.1875 0.386719,-0.3867188 z M 17.010625,1.835 c -0.117187,0.4804687 -0.492187,0.890625 -0.902344,0.890625 -0.08203,0 -0.175781,-0.011719 -0.246093,-0.046875 0.175781,-0.082031 0.234375,-0.2460938 0.234375,-0.3515625 0,-0.1640625 -0.128907,-0.2578125 -0.269532,-0.2578125 -0.222656,0 -0.398437,0.1875 -0.398437,0.4101562 0,0.2695313 0.269531,0.4335938 0.691406,0.4335938 0.421875,0 1.230469,-0.2460938 1.453125,-1.1015625 l 0.621094,-2.49609375 c 0.02344,-0.0703125 0.03516,-0.140625 0.03516,-0.234375 0,-0.38671875 -0.328125,-0.65625005 -0.738281,-0.65625005 -0.785156,0 -1.230469,0.96093755 -1.230469,1.0664063 0,0.0820313 0.105469,0.0820313 0.128906,0.0820313 0.08203,0 0.08203,-0.0117188 0.128907,-0.1171875 0.175781,-0.41015625 0.539062,-0.8437501 0.949218,-0.8437501 0.175782,0 0.234375,0.1171875 0.234375,0.3398438 0,0.0820314 -0.01172,0.1757813 -0.02344,0.21093755 z m 0,0"
         style="fill:#008000;fill-opacity:1;fill-rule:nonzero;stroke:none" />
    </g>
    <g
       id="g81"
       aria-label="i&#10;desarj"
       transform="matrix(1.3333333,0,0,1.3333333,237.62133,351.196)">
      <path
         id="path82"
         d="m 2.8240391,-6.2231719 c 0,-0.1992187 -0.1289063,-0.3632812 -0.3632813,-0.3632812 -0.2695312,0 -0.5390625,0.2578125 -0.5390625,0.5273437 0,0.1875 0.140625,0.3632813 0.375,0.3632813 0.234375,0 0.5273438,-0.234375 0.5273438,-0.5273438 z m -0.75,3.7382813 c 0.1171875,-0.28125 0.1171875,-0.3046875 0.2226562,-0.5742188 0.070312,-0.1992187 0.1289063,-0.3398437 0.1289063,-0.5273437 0,-0.4453125 -0.328125,-0.8203125 -0.8203125,-0.8203125 -0.93750004,0 -1.31250004,1.453125 -1.31250004,1.5351562 0,0.1054688 0.09375,0.1054688 0.1171875,0.1054688 0.09375,0 0.10546875,-0.023437 0.15234375,-0.1875 0.26953125,-0.9375 0.66796879,-1.2304688 1.00781249,-1.2304688 0.082031,0 0.2578125,0 0.2578125,0.3164063 0,0.2109375 -0.070312,0.421875 -0.1171875,0.515625 -0.082031,0.2578125 -0.5273437,1.4179687 -0.6796875,1.8515625 -0.10546874,0.2578125 -0.23437499,0.58593747 -0.23437499,0.79687497 0,0.46875 0.33984379,0.80859375 0.82031249,0.80859375 0.9375,0 1.3007813,-1.44140622 1.3007813,-1.53515622 0,-0.09375 -0.09375,-0.09375 -0.1171875,-0.09375 -0.1054688,0 -0.1054688,0.023437 -0.1523438,0.1757812 -0.1757812,0.63281252 -0.5039062,1.24218752 -1.0195312,1.24218752 -0.1640625,0 -0.234375,-0.10546875 -0.234375,-0.328125 0,-0.2578125 0.058594,-0.3984375 0.2929687,-0.99609372 z m 0,0"
         style="fill:#ff8000;fill-opacity:1;fill-rule:nonzero;stroke:none" />
      <path
         id="path83"
         d="m 7.4177891,-3.1352813 c 0,-0.011719 0.023437,-0.1054687 0.023437,-0.1171875 0,-0.035156 -0.023437,-0.09375 -0.1054688,-0.09375 -0.140625,0 -0.7265625,0.058594 -0.9023437,0.070312 -0.046875,0.011719 -0.1523438,0.011719 -0.1523438,0.1640625 0,0.09375 0.1054688,0.09375 0.1875,0.09375 0.328125,0 0.328125,0.046875 0.328125,0.1054688 0,0.046875 -0.011719,0.09375 -0.023437,0.1523437 l -0.3984375,1.59375 C 6.2341953,-1.4009068 5.9881016,-1.576688 5.6599766,-1.576688 c -0.890625,0 -1.8046875,0.97265625 -1.8046875,1.98046875 0,0.67968745 0.4570312,1.16015625 1.0546875,1.16015625 0.375,0 0.7148437,-0.2109375 0.9960937,-0.4921875 0.1289063,0.421875 0.5273438,0.4921875 0.7148438,0.4921875 0.2460937,0 0.421875,-0.1523438 0.5507812,-0.375 0.1523438,-0.26953125 0.2460938,-0.66796875 0.2460938,-0.69140625 0,-0.09375 -0.09375,-0.09375 -0.1171875,-0.09375 -0.09375,0 -0.1054688,0.0351563 -0.1523438,0.22265625 -0.082031,0.328125 -0.2109375,0.7382812 -0.5039062,0.7382812 -0.1875,0 -0.234375,-0.1523437 -0.234375,-0.3398437 0,-0.12890625 0.011719,-0.19921875 0.035156,-0.28125 z M 5.9295078,0.6264375 c -0.046875,0.1875 -0.1992187,0.328125 -0.3515625,0.4570312 -0.070312,0.058594 -0.3398437,0.28125 -0.6445312,0.28125 -0.2578125,0 -0.515625,-0.1757812 -0.515625,-0.6679687 0,-0.375 0.2109375,-1.13671875 0.3632812,-1.41796875 0.328125,-0.56250005 0.6796875,-0.66796875 0.8789063,-0.66796875 0.4804687,0 0.6210937,0.52734375 0.6210937,0.609375 0,0.0234375 -0.011719,0.0820313 -0.023437,0.09375 z M 9.1375156,-0.100125 c 0.1992188,0 0.75,-0.0117188 1.1250004,-0.140625 0.515625,-0.1875 0.609375,-0.515625 0.609375,-0.7265625 0,-0.3867188 -0.375,-0.609375 -0.855469,-0.609375 -0.8437501,0 -1.9687501,0.6328125 -1.9687501,1.828125 0,0.703125 0.4335937,1.3125 1.2539062,1.3125 1.1835939,0 1.7343749,-0.69140625 1.7343749,-0.78515625 0,-0.046875 -0.07031,-0.1171875 -0.128906,-0.1171875 -0.03516,0 -0.04687,0.0117188 -0.105469,0.0703125 C 10.250797,1.3647187 9.4422031,1.3647187 9.3132969,1.3647187 c -0.421875,0 -0.6914063,-0.28125 -0.6914063,-0.84374995 0,-0.09375 0,-0.234375 0.082031,-0.62109375 z m -0.375,-0.1875 c 0.28125,-1.0195313 1.0546875,-1.1015625 1.2539064,-1.1015625 0.304687,0 0.5625,0.1523437 0.5625,0.421875 0,0.6796875 -1.1835939,0.6796875 -1.4765626,0.6796875 z m 5.5986324,-0.84375 c -0.175781,0.046875 -0.292968,0.1875 -0.292968,0.328125 0,0.1640625 0.140625,0.22265625 0.234375,0.22265625 0.07031,0 0.339843,-0.0351563 0.339843,-0.3984375 0,-0.44531255 -0.503906,-0.59765625 -0.925781,-0.59765625 -1.089844,0 -1.289062,0.796875 -1.289062,1.0078125 0,0.2578125 0.152343,0.43359375 0.246093,0.515625 0.175782,0.140625 0.304688,0.1640625 0.785157,0.24609375 0.152343,0.0351563 0.597656,0.1171875 0.597656,0.46875 0,0.1171875 -0.08203,0.37499995 -0.375,0.55078125 -0.269531,0.1523437 -0.609375,0.1523437 -0.691406,0.1523437 -0.28125,0 -0.679688,-0.058594 -0.84375,-0.2929687 0.234375,-0.023437 0.386718,-0.19921875 0.386718,-0.3984375 0,-0.1640625 -0.128906,-0.2578125 -0.269531,-0.2578125 -0.199219,0 -0.410156,0.1640625 -0.410156,0.46875 0,0.421875 0.445312,0.6796875 1.125,0.6796875 1.289062,0 1.523437,-0.87890625 1.523437,-1.1484375 0,-0.64453125 -0.703125,-0.7734375 -0.960937,-0.8203125 -0.07031,-0.0117188 -0.246094,-0.0351563 -0.28125,-0.0585938 -0.257813,-0.046875 -0.386719,-0.1875 -0.386719,-0.33984375 0,-0.1640625 0.128906,-0.35156245 0.28125,-0.44531245 0.1875,-0.1289063 0.433594,-0.140625 0.550781,-0.140625 0.140625,0 0.503907,0.023437 0.65625,0.2578125 z m 3.700196,-0.035156 c -0.140625,-0.234375 -0.386719,-0.4101562 -0.714844,-0.4101562 -0.890625,0 -1.804687,0.97265625 -1.804687,1.98046875 0,0.67968745 0.457031,1.16015625 1.054687,1.16015625 0.375,0 0.714844,-0.2109375 0.996094,-0.4921875 0.128906,0.421875 0.527344,0.4921875 0.714844,0.4921875 0.246093,0 0.421875,-0.1523438 0.550781,-0.375 0.152344,-0.26953125 0.246094,-0.66796875 0.246094,-0.69140625 0,-0.09375 -0.09375,-0.09375 -0.117188,-0.09375 -0.09375,0 -0.105469,0.0351563 -0.152344,0.22265625 -0.08203,0.328125 -0.210937,0.7382812 -0.503906,0.7382812 -0.1875,0 -0.234375,-0.1523437 -0.234375,-0.3398437 0,-0.1171875 0.05859,-0.36328125 0.105469,-0.55078125 0.04687,-0.1875 0.117187,-0.46875 0.152344,-0.62109375 l 0.140625,-0.5390625 c 0.04687,-0.17578125 0.128906,-0.5039063 0.128906,-0.5390625 0,-0.1523438 -0.128906,-0.2226563 -0.246094,-0.2226563 -0.117187,0 -0.269531,0.082031 -0.316406,0.28125 z m -0.445313,1.7929688 c -0.04687,0.1875 -0.199218,0.328125 -0.351562,0.4570312 -0.07031,0.058594 -0.339844,0.28125 -0.644531,0.28125 -0.257813,0 -0.515625,-0.1757812 -0.515625,-0.6679687 0,-0.375 0.210937,-1.13671875 0.363281,-1.41796875 0.328125,-0.56250005 0.679687,-0.66796875 0.878906,-0.66796875 0.480469,0 0.621094,0.52734375 0.621094,0.609375 0,0.0234375 -0.01172,0.0820313 -0.02344,0.09375 z M 21.081852,0.087375 c 0,-0.046875 0.164062,-0.66796875 0.175781,-0.703125 0.01172,-0.0585938 0.222656,-0.4101563 0.445312,-0.5742188 0.07031,-0.058594 0.257813,-0.1992187 0.5625,-0.1992187 0.07031,0 0.246094,0.011719 0.386719,0.1054687 -0.222656,0.058594 -0.304687,0.2578125 -0.304687,0.37500005 0,0.15234375 0.117187,0.2578125 0.269531,0.2578125 0.164062,0 0.398437,-0.12890625 0.398437,-0.42187505 0,-0.3632812 -0.386718,-0.5039062 -0.738281,-0.5039062 -0.363281,0 -0.679687,0.140625 -0.984375,0.4921875 -0.128906,-0.421875 -0.550781,-0.4921875 -0.726562,-0.4921875 -0.257813,0 -0.421875,0.1523437 -0.539063,0.3515625 -0.164062,0.26953125 -0.257812,0.6796875 -0.257812,0.71484375 0,0.0820313 0.09375,0.0820313 0.117187,0.0820313 0.09375,0 0.105469,-0.0117188 0.152344,-0.19921875 0.105469,-0.4335937 0.234375,-0.7617187 0.515625,-0.7617187 0.175781,0 0.222656,0.1523437 0.222656,0.3398437 0,0.140625 -0.05859,0.3984375 -0.105469,0.5859375 -0.04687,0.1875 -0.117187,0.46875 -0.152343,0.62109375 L 20.296695,1.0600313 c -0.03516,0.082031 -0.07031,0.2578125 -0.07031,0.28125 0,0.1523438 0.117187,0.2226563 0.234375,0.2226563 0.105469,0 0.246094,-0.058594 0.292969,-0.1992188 0.02344,-0.046875 0.09375,-0.3515625 0.140625,-0.52734375 z m 5.334961,-2.953125 c 0,-0.1171875 -0.09375,-0.2578125 -0.28125,-0.2578125 -0.199219,0 -0.386719,0.1875 -0.386719,0.375 0,0.1171875 0.08203,0.2695312 0.28125,0.2695312 0.1875,0 0.386719,-0.1875 0.386719,-0.3867187 z M 24.94025,1.8334687 c -0.117187,0.4804688 -0.492187,0.890625 -0.902344,0.890625 -0.08203,0 -0.175781,-0.011719 -0.246093,-0.046875 0.175781,-0.082031 0.234375,-0.2460937 0.234375,-0.3515625 0,-0.1640625 -0.128907,-0.2578125 -0.269532,-0.2578125 -0.222656,0 -0.398437,0.1875 -0.398437,0.4101563 0,0.2695312 0.269531,0.4335937 0.691406,0.4335937 0.421875,0 1.230469,-0.2460937 1.453125,-1.1015625 l 0.621094,-2.4960937 c 0.02344,-0.0703125 0.03516,-0.140625 0.03516,-0.234375 0,-0.3867188 -0.328125,-0.65625 -0.738281,-0.65625 -0.785156,0 -1.230469,0.9609375 -1.230469,1.06640625 0,0.0820313 0.105469,0.0820313 0.128906,0.0820313 0.08203,0 0.08203,-0.0117188 0.128907,-0.1171875 0.175781,-0.41015625 0.539062,-0.84374995 0.949218,-0.84374995 0.175782,0 0.234375,0.1171875 0.234375,0.3398437 0,0.0820313 -0.01172,0.17578125 -0.02344,0.2109375 z m 0,0"
         style="fill:#ff8000;fill-opacity:1;fill-rule:nonzero;stroke:none" />
    </g>
  </g>
</svg>
